<?xml version="1.0" encoding="UTF-8" standalone="no"?>
<!DOCTYPE svg PUBLIC "-//W3C//DTD SVG 1.1//EN"
 "http://www.w3.org/Graphics/SVG/1.1/DTD/svg11.dtd">
<!-- Generated by graphviz version 2.43.0 (0)
 -->
<!-- Title: protodot Pages: 1 -->
<svg width="404pt" height="116pt"
 viewBox="0.00 0.00 404.00 116.00" xmlns="http://www.w3.org/2000/svg" xmlns:xlink="http://www.w3.org/1999/xlink">
<g id="graph0" class="graph" transform="scale(1 1) rotate(0) translate(4 112)">
<title>protodot</title>
<g id="a_graph0"><a xlink:title="foxglove">
<text text-anchor="middle" x="198" y="-7.8" font-family="Times,serif" font-size="14.00">foxglove</text>
</a>
</g>
<!-- Node_Ja_101 -->
<g id="node1" class="node">
<title>Node_Ja_101</title>
<g id="a_node1"><a xlink:title="foxglove.CompressedImage">
<polygon fill="#fffaf0" stroke="transparent" points="8,-27 8,-104 246,-104 246,-27 8,-27"/>
<polygon fill="#e31a1c" stroke="transparent" points="9,-87.5 9,-102.5 245,-102.5 245,-87.5 9,-87.5"/>
<text text-anchor="start" x="137" y="-93.5" font-family="Ubuntu" font-weight="bold" font-size="10.00">CompressedImage</text>
<text text-anchor="start" x="15" y="-77.5" font-family="Ubuntu" font-size="10.00">1</text>
<text text-anchor="start" x="26" y="-77.5" font-family="Ubuntu" font-size="10.00">timestamp</text>
<polygon fill="#fb9a99" stroke="transparent" points="82,-72.5 82,-87.5 245,-87.5 245,-72.5 82,-72.5"/>
<text text-anchor="start" x="84" y="-78.5" font-family="Ubuntu" font-weight="bold" font-size="10.00">google.protobuf.Timestamp</text>
<text text-anchor="start" x="15" y="-62.5" font-family="Ubuntu" font-size="10.00">4</text>
<text text-anchor="start" x="26" y="-62.5" font-family="Ubuntu" font-size="10.00">frame_id</text>
<polygon fill="#a6cee3" stroke="transparent" points="82,-57.5 82,-72.5 245,-72.5 245,-57.5 82,-57.5"/>
<text text-anchor="start" x="215" y="-63.5" font-family="Ubuntu" font-style="italic" font-size="10.00">string</text>
<text text-anchor="start" x="15" y="-47.5" font-family="Ubuntu" font-size="10.00">2</text>
<text text-anchor="start" x="26" y="-47.5" font-family="Ubuntu" font-size="10.00">data</text>
<polygon fill="#a6cee3" stroke="transparent" points="82,-42.5 82,-57.5 245,-57.5 245,-42.5 82,-42.5"/>
<text text-anchor="start" x="215" y="-48.5" font-family="Ubuntu" font-style="italic" font-size="10.00">bytes</text>
<text text-anchor="start" x="15" y="-32.5" font-family="Ubuntu" font-size="10.00">3</text>
<text text-anchor="start" x="26" y="-32.5" font-family="Ubuntu" font-size="10.00">format</text>
<polygon fill="#a6cee3" stroke="transparent" points="82,-27.5 82,-42.5 245,-42.5 245,-27.5 82,-27.5"/>
<text text-anchor="start" x="215" y="-33.5" font-family="Ubuntu" font-style="italic" font-size="10.00">string</text>
<polygon fill="none" stroke="black" points="8,-27 8,-104 246,-104 246,-27 8,-27"/>
</a>
</g>
</g>
<!-- Node_Ja_100 -->
<g id="node2" class="node">
<title>Node_Ja_100</title>
<g id="a_node2"><a xlink:title="google.protobuf.Timestamp">
<polygon fill="#fffaf0" stroke="transparent" points="298,-42 298,-89 388,-89 388,-42 298,-42"/>
<polygon fill="#e31a1c" stroke="transparent" points="299,-72.5 299,-87.5 387,-87.5 387,-72.5 299,-72.5"/>
<text text-anchor="start" x="321" y="-78.5" font-family="Ubuntu" font-weight="bold" font-size="10.00">Timestamp</text>
<text text-anchor="start" x="305" y="-62.5" font-family="Ubuntu" font-size="10.00">1</text>
<text text-anchor="start" x="316" y="-62.5" font-family="Ubuntu" font-size="10.00">seconds</text>
<polygon fill="#a6cee3" stroke="transparent" points="358,-57.5 358,-72.5 387,-72.5 387,-57.5 358,-57.5"/>
<text text-anchor="start" x="360" y="-63.5" font-family="Ubuntu" font-style="italic" font-size="10.00">int64</text>
<text text-anchor="start" x="305" y="-47.5" font-family="Ubuntu" font-size="10.00">2</text>
<text text-anchor="start" x="316" y="-47.5" font-family="Ubuntu" font-size="10.00">nanos</text>
<polygon fill="#a6cee3" stroke="transparent" points="358,-42.5 358,-57.5 387,-57.5 387,-42.5 358,-42.5"/>
<text text-anchor="start" x="360" y="-48.5" font-family="Ubuntu" font-style="italic" font-size="10.00">int32</text>
<polygon fill="none" stroke="black" points="298,-42 298,-89 388,-89 388,-42 298,-42"/>
</a>
</g>
</g>
<!-- Node_Ja_101&#45;&gt;Node_Ja_100 -->
<g id="edge1" class="edge">
<title>Node_Ja_101:e&#45;&gt;Node_Ja_100:header</title>
<g id="a_edge1"><a xlink:title="Ja_101 &#45;&#45;&gt; Ja_100">
<path fill="none" stroke="#000000" d="M246,-80.5C265.32,-80.5 272.53,-80.5 287.87,-80.5"/>
<polygon fill="#000000" stroke="#000000" points="288,-84 298,-80.5 288,-77 288,-84"/>
</a>
</g>
</g>
</g>
</svg>
