<?xml version="1.0" encoding="UTF-8" standalone="no"?>
<!DOCTYPE svg PUBLIC "-//W3C//DTD SVG 1.1//EN"
 "http://www.w3.org/Graphics/SVG/1.1/DTD/svg11.dtd">
<!-- Generated by graphviz version 2.43.0 (0)
 -->
<!-- Title: protodot Pages: 1 -->
<svg width="704pt" height="399pt"
 viewBox="0.00 0.00 704.00 398.50" xmlns="http://www.w3.org/2000/svg" xmlns:xlink="http://www.w3.org/1999/xlink">
<g id="graph0" class="graph" transform="scale(1 1) rotate(0) translate(4 394.5)">
<title>protodot</title>
<g id="a_graph0"><a xlink:title="foxglove">
<text text-anchor="middle" x="348" y="-7.8" font-family="Times,serif" font-size="14.00">foxglove</text>
</a>
</g>
<!-- Node_Ja_102 -->
<g id="node1" class="node">
<title>Node_Ja_102</title>
<g id="a_node1"><a xlink:title="foxglove.Quaternion">
<polygon fill="#fffaf0" stroke="transparent" points="597.5,-205.5 597.5,-282.5 666.5,-282.5 666.5,-205.5 597.5,-205.5"/>
<polygon fill="#e31a1c" stroke="transparent" points="599,-266 599,-281 666,-281 666,-266 599,-266"/>
<text text-anchor="start" x="601" y="-272" font-family="Ubuntu" font-weight="bold" font-size="10.00">Quaternion</text>
<text text-anchor="start" x="605" y="-256" font-family="Ubuntu" font-size="10.00">1</text>
<text text-anchor="start" x="616" y="-256" font-family="Ubuntu" font-size="10.00">x</text>
<polygon fill="#a6cee3" stroke="transparent" points="627,-251 627,-266 666,-266 666,-251 627,-251"/>
<text text-anchor="start" x="630" y="-257" font-family="Ubuntu" font-style="italic" font-size="10.00">double</text>
<text text-anchor="start" x="605" y="-241" font-family="Ubuntu" font-size="10.00">2</text>
<text text-anchor="start" x="616" y="-241" font-family="Ubuntu" font-size="10.00">y</text>
<polygon fill="#a6cee3" stroke="transparent" points="627,-236 627,-251 666,-251 666,-236 627,-236"/>
<text text-anchor="start" x="630" y="-242" font-family="Ubuntu" font-style="italic" font-size="10.00">double</text>
<text text-anchor="start" x="605" y="-226" font-family="Ubuntu" font-size="10.00">3</text>
<text text-anchor="start" x="616" y="-226" font-family="Ubuntu" font-size="10.00">z</text>
<polygon fill="#a6cee3" stroke="transparent" points="627,-221 627,-236 666,-236 666,-221 627,-221"/>
<text text-anchor="start" x="630" y="-227" font-family="Ubuntu" font-style="italic" font-size="10.00">double</text>
<text text-anchor="start" x="605" y="-211" font-family="Ubuntu" font-size="10.00">4</text>
<text text-anchor="start" x="616" y="-211" font-family="Ubuntu" font-size="10.00">w</text>
<polygon fill="#a6cee3" stroke="transparent" points="627,-206 627,-221 666,-221 666,-206 627,-206"/>
<text text-anchor="start" x="630" y="-212" font-family="Ubuntu" font-style="italic" font-size="10.00">double</text>
<polygon fill="none" stroke="black" points="597.5,-205.5 597.5,-282.5 666.5,-282.5 666.5,-205.5 597.5,-205.5"/>
</a>
</g>
</g>
<!-- Node_Ja_106 -->
<g id="node2" class="node">
<title>Node_Ja_106</title>
<g id="a_node2"><a xlink:title="foxglove.PointCloud">
<polygon fill="#fffaf0" stroke="transparent" points="8,-252.5 8,-359.5 277,-359.5 277,-252.5 8,-252.5"/>
<polygon fill="#e31a1c" stroke="transparent" points="9.5,-343 9.5,-358 276.5,-358 276.5,-343 9.5,-343"/>
<text text-anchor="start" x="212.5" y="-349" font-family="Ubuntu" font-weight="bold" font-size="10.00">PointCloud</text>
<text text-anchor="start" x="32.5" y="-333" font-family="Ubuntu" font-size="10.00">1</text>
<text text-anchor="start" x="43.5" y="-333" font-family="Ubuntu" font-size="10.00">timestamp</text>
<polygon fill="#fb9a99" stroke="transparent" points="103.5,-328 103.5,-343 276.5,-343 276.5,-328 103.5,-328"/>
<text text-anchor="start" x="115.5" y="-334" font-family="Ubuntu" font-weight="bold" font-size="10.00">google.protobuf.Timestamp</text>
<text text-anchor="start" x="32.5" y="-318" font-family="Ubuntu" font-size="10.00">2</text>
<text text-anchor="start" x="43.5" y="-318" font-family="Ubuntu" font-size="10.00">frame_id</text>
<polygon fill="#a6cee3" stroke="transparent" points="103.5,-313 103.5,-328 276.5,-328 276.5,-313 103.5,-313"/>
<text text-anchor="start" x="246.5" y="-319" font-family="Ubuntu" font-style="italic" font-size="10.00">string</text>
<text text-anchor="start" x="32.5" y="-303" font-family="Ubuntu" font-size="10.00">3</text>
<text text-anchor="start" x="43.5" y="-303" font-family="Ubuntu" font-size="10.00">pose</text>
<polygon fill="#fb9a99" stroke="transparent" points="103.5,-298 103.5,-313 276.5,-313 276.5,-298 103.5,-298"/>
<text text-anchor="start" x="193.5" y="-304" font-family="Ubuntu" font-weight="bold" font-size="10.00">foxglove.Pose</text>
<text text-anchor="start" x="32.5" y="-288" font-family="Ubuntu" font-size="10.00">4</text>
<text text-anchor="start" x="43.5" y="-288" font-family="Ubuntu" font-size="10.00">point_stride</text>
<polygon fill="#a6cee3" stroke="transparent" points="103.5,-283 103.5,-298 276.5,-298 276.5,-283 103.5,-283"/>
<text text-anchor="start" x="237.5" y="-289" font-family="Ubuntu" font-style="italic" font-size="10.00">fixed32</text>
<text text-anchor="start" x="11.5" y="-273" font-family="Ubuntu" font-size="10.00">[...]</text>
<text text-anchor="start" x="32.5" y="-273" font-family="Ubuntu" font-size="10.00">5</text>
<text text-anchor="start" x="43.5" y="-273" font-family="Ubuntu" font-size="10.00">fields</text>
<polygon fill="#fb9a99" stroke="transparent" points="103.5,-268 103.5,-283 276.5,-283 276.5,-268 103.5,-268"/>
<text text-anchor="start" x="105.5" y="-274" font-family="Ubuntu" font-weight="bold" font-size="10.00">foxglove.PackedElementField</text>
<text text-anchor="start" x="32.5" y="-258" font-family="Ubuntu" font-size="10.00">6</text>
<text text-anchor="start" x="43.5" y="-258" font-family="Ubuntu" font-size="10.00">data</text>
<polygon fill="#a6cee3" stroke="transparent" points="103.5,-253 103.5,-268 276.5,-268 276.5,-253 103.5,-253"/>
<text text-anchor="start" x="246.5" y="-259" font-family="Ubuntu" font-style="italic" font-size="10.00">bytes</text>
<polygon fill="none" stroke="black" points="8,-252.5 8,-359.5 277,-359.5 277,-252.5 8,-252.5"/>
</a>
</g>
</g>
<!-- Node_Ja_100 -->
<g id="node3" class="node">
<title>Node_Ja_100</title>
<g id="a_node3"><a xlink:title="foxglove.PackedElementField">
<polygon fill="#fffaf0" stroke="transparent" points="366,-137 366,-199 487,-199 487,-137 366,-137"/>
<polygon fill="#e31a1c" stroke="transparent" points="367.5,-183 367.5,-198 486.5,-198 486.5,-183 367.5,-183"/>
<text text-anchor="start" x="369.5" y="-189" font-family="Ubuntu" font-weight="bold" font-size="10.00">PackedElementField</text>
<text text-anchor="start" x="376.5" y="-173" font-family="Ubuntu" font-size="10.00">1</text>
<text text-anchor="start" x="387.5" y="-173" font-family="Ubuntu" font-size="10.00">name</text>
<polygon fill="#a6cee3" stroke="transparent" points="417.5,-168 417.5,-183 486.5,-183 486.5,-168 417.5,-168"/>
<text text-anchor="start" x="456.5" y="-174" font-family="Ubuntu" font-style="italic" font-size="10.00">string</text>
<text text-anchor="start" x="376.5" y="-158" font-family="Ubuntu" font-size="10.00">2</text>
<text text-anchor="start" x="387.5" y="-158" font-family="Ubuntu" font-size="10.00">offset</text>
<polygon fill="#a6cee3" stroke="transparent" points="417.5,-153 417.5,-168 486.5,-168 486.5,-153 417.5,-153"/>
<text text-anchor="start" x="447.5" y="-159" font-family="Ubuntu" font-style="italic" font-size="10.00">fixed32</text>
<text text-anchor="start" x="376.5" y="-143" font-family="Ubuntu" font-size="10.00">3</text>
<text text-anchor="start" x="387.5" y="-143" font-family="Ubuntu" font-size="10.00">type</text>
<polygon fill="#b2df8a" stroke="transparent" points="417.5,-138 417.5,-153 486.5,-153 486.5,-138 417.5,-138"/>
<text text-anchor="start" x="420.5" y="-144" font-family="Ubuntu" text-decoration="underline" font-size="10.00">NumericType</text>
<polygon fill="none" stroke="black" points="366,-137 366,-199 487,-199 487,-137 366,-137"/>
</a>
</g>
</g>
<!-- Node_Ja_106&#45;&gt;Node_Ja_100 -->
<g id="edge1" class="edge">
<title>Node_Ja_106:e&#45;&gt;Node_Ja_100:header</title>
<g id="a_edge1"><a xlink:title="Ja_106 &#45;&#45;&gt; Ja_100">
<path fill="none" stroke="#000000" d="M277.5,-275C328.17,-275 314.47,-202.09 356.34,-192.12"/>
<polygon fill="#000000" stroke="#000000" points="356.95,-195.58 366.5,-191 356.18,-188.62 356.95,-195.58"/>
</a>
</g>
</g>
<!-- Node_Ja_105 -->
<g id="node4" class="node">
<title>Node_Ja_105</title>
<g id="a_node4"><a xlink:title="google.protobuf.Timestamp">
<polygon fill="#fffaf0" stroke="transparent" points="381.5,-339.5 381.5,-386.5 471.5,-386.5 471.5,-339.5 381.5,-339.5"/>
<polygon fill="#e31a1c" stroke="transparent" points="382.5,-370 382.5,-385 470.5,-385 470.5,-370 382.5,-370"/>
<text text-anchor="start" x="404.5" y="-376" font-family="Ubuntu" font-weight="bold" font-size="10.00">Timestamp</text>
<text text-anchor="start" x="388.5" y="-360" font-family="Ubuntu" font-size="10.00">1</text>
<text text-anchor="start" x="399.5" y="-360" font-family="Ubuntu" font-size="10.00">seconds</text>
<polygon fill="#a6cee3" stroke="transparent" points="441.5,-355 441.5,-370 470.5,-370 470.5,-355 441.5,-355"/>
<text text-anchor="start" x="443.5" y="-361" font-family="Ubuntu" font-style="italic" font-size="10.00">int64</text>
<text text-anchor="start" x="388.5" y="-345" font-family="Ubuntu" font-size="10.00">2</text>
<text text-anchor="start" x="399.5" y="-345" font-family="Ubuntu" font-size="10.00">nanos</text>
<polygon fill="#a6cee3" stroke="transparent" points="441.5,-340 441.5,-355 470.5,-355 470.5,-340 441.5,-340"/>
<text text-anchor="start" x="443.5" y="-346" font-family="Ubuntu" font-style="italic" font-size="10.00">int32</text>
<polygon fill="none" stroke="black" points="381.5,-339.5 381.5,-386.5 471.5,-386.5 471.5,-339.5 381.5,-339.5"/>
</a>
</g>
</g>
<!-- Node_Ja_106&#45;&gt;Node_Ja_105 -->
<g id="edge2" class="edge">
<title>Node_Ja_106:e&#45;&gt;Node_Ja_105:header</title>
<g id="a_edge2"><a xlink:title="Ja_106 &#45;&#45;&gt; Ja_105">
<path fill="none" stroke="#000000" d="M277.5,-336C323.75,-336 330.79,-372.15 371.37,-377.37"/>
<polygon fill="#000000" stroke="#000000" points="371.3,-380.88 381.5,-378 371.74,-373.89 371.3,-380.88"/>
</a>
</g>
</g>
<!-- Node_Ja_104 -->
<g id="node5" class="node">
<title>Node_Ja_104</title>
<g id="a_node5"><a xlink:title="foxglove.Pose">
<polygon fill="#fffaf0" stroke="transparent" points="329,-266.5 329,-313.5 524,-313.5 524,-266.5 329,-266.5"/>
<polygon fill="#e31a1c" stroke="transparent" points="330.5,-297 330.5,-312 523.5,-312 523.5,-297 330.5,-297"/>
<text text-anchor="start" x="493.5" y="-303" font-family="Ubuntu" font-weight="bold" font-size="10.00">Pose</text>
<text text-anchor="start" x="336.5" y="-287" font-family="Ubuntu" font-size="10.00">1</text>
<text text-anchor="start" x="347.5" y="-287" font-family="Ubuntu" font-size="10.00">position</text>
<polygon fill="#fb9a99" stroke="transparent" points="403.5,-282 403.5,-297 523.5,-297 523.5,-282 403.5,-282"/>
<text text-anchor="start" x="424.5" y="-288" font-family="Ubuntu" font-weight="bold" font-size="10.00">foxglove.Vector3</text>
<text text-anchor="start" x="336.5" y="-272" font-family="Ubuntu" font-size="10.00">2</text>
<text text-anchor="start" x="347.5" y="-272" font-family="Ubuntu" font-size="10.00">orientation</text>
<polygon fill="#fb9a99" stroke="transparent" points="403.5,-267 403.5,-282 523.5,-282 523.5,-267 403.5,-267"/>
<text text-anchor="start" x="405.5" y="-273" font-family="Ubuntu" font-weight="bold" font-size="10.00">foxglove.Quaternion</text>
<polygon fill="none" stroke="black" points="329,-266.5 329,-313.5 524,-313.5 524,-266.5 329,-266.5"/>
</a>
</g>
</g>
<!-- Node_Ja_106&#45;&gt;Node_Ja_104 -->
<g id="edge3" class="edge">
<title>Node_Ja_106:e&#45;&gt;Node_Ja_104:header</title>
<g id="a_edge3"><a xlink:title="Ja_106 &#45;&#45;&gt; Ja_104">
<path fill="none" stroke="#000000" d="M277.5,-305C296.82,-305 304.03,-305 319.37,-305"/>
<polygon fill="#000000" stroke="#000000" points="319.5,-308.5 329.5,-305 319.5,-301.5 319.5,-308.5"/>
</a>
</g>
</g>
<!-- Node_Ja_101 -->
<g id="node6" class="node">
<title>Node_Ja_101</title>
<g id="a_node6"><a xlink:title="NumericType">
<polygon fill="#b2df8a" stroke="transparent" points="576,-27 576,-179 688,-179 688,-27 576,-27"/>
<polygon fill="#33a02c" stroke="transparent" points="577,-163 577,-178 687,-178 687,-163 577,-163"/>
<text text-anchor="start" x="579" y="-169" font-family="Ubuntu" font-size="10.00">enum </text>
<text text-anchor="start" x="610" y="-169" font-family="Ubuntu" font-weight="bold" font-size="10.00">NumericType</text>
<polygon fill="#b2df8a" stroke="transparent" points="577,-148 577,-163 656,-163 656,-148 577,-148"/>
<text text-anchor="start" x="579" y="-153" font-family="Ubuntu" font-size="10.00">UNKNOWN</text>
<polygon fill="#b2df8a" stroke="transparent" points="656,-148 656,-163 687,-163 687,-148 656,-148"/>
<text text-anchor="start" x="658" y="-153" font-family="Ubuntu" font-size="10.00">0</text>
<polygon fill="#b2df8a" stroke="transparent" points="577,-133 577,-148 656,-148 656,-133 577,-133"/>
<text text-anchor="start" x="579" y="-138" font-family="Ubuntu" font-size="10.00">UINT8</text>
<polygon fill="#b2df8a" stroke="transparent" points="656,-133 656,-148 687,-148 687,-133 656,-133"/>
<text text-anchor="start" x="658" y="-138" font-family="Ubuntu" font-size="10.00">1</text>
<polygon fill="#b2df8a" stroke="transparent" points="577,-118 577,-133 656,-133 656,-118 577,-118"/>
<text text-anchor="start" x="579" y="-123" font-family="Ubuntu" font-size="10.00">INT8</text>
<polygon fill="#b2df8a" stroke="transparent" points="656,-118 656,-133 687,-133 687,-118 656,-118"/>
<text text-anchor="start" x="658" y="-123" font-family="Ubuntu" font-size="10.00">2</text>
<polygon fill="#b2df8a" stroke="transparent" points="577,-103 577,-118 656,-118 656,-103 577,-103"/>
<text text-anchor="start" x="579" y="-108" font-family="Ubuntu" font-size="10.00">UINT16</text>
<polygon fill="#b2df8a" stroke="transparent" points="656,-103 656,-118 687,-118 687,-103 656,-103"/>
<text text-anchor="start" x="658" y="-108" font-family="Ubuntu" font-size="10.00">3</text>
<polygon fill="#b2df8a" stroke="transparent" points="577,-88 577,-103 656,-103 656,-88 577,-88"/>
<text text-anchor="start" x="579" y="-93" font-family="Ubuntu" font-size="10.00">INT16</text>
<polygon fill="#b2df8a" stroke="transparent" points="656,-88 656,-103 687,-103 687,-88 656,-88"/>
<text text-anchor="start" x="658" y="-93" font-family="Ubuntu" font-size="10.00">4</text>
<polygon fill="#b2df8a" stroke="transparent" points="577,-73 577,-88 656,-88 656,-73 577,-73"/>
<text text-anchor="start" x="579" y="-78" font-family="Ubuntu" font-size="10.00">UINT32</text>
<polygon fill="#b2df8a" stroke="transparent" points="656,-73 656,-88 687,-88 687,-73 656,-73"/>
<text text-anchor="start" x="658" y="-78" font-family="Ubuntu" font-size="10.00">5</text>
<polygon fill="#b2df8a" stroke="transparent" points="577,-58 577,-73 656,-73 656,-58 577,-58"/>
<text text-anchor="start" x="579" y="-63" font-family="Ubuntu" font-size="10.00">INT32</text>
<polygon fill="#b2df8a" stroke="transparent" points="656,-58 656,-73 687,-73 687,-58 656,-58"/>
<text text-anchor="start" x="658" y="-63" font-family="Ubuntu" font-size="10.00">6</text>
<polygon fill="#b2df8a" stroke="transparent" points="577,-43 577,-58 656,-58 656,-43 577,-43"/>
<text text-anchor="start" x="579" y="-48" font-family="Ubuntu" font-size="10.00">FLOAT32</text>
<polygon fill="#b2df8a" stroke="transparent" points="656,-43 656,-58 687,-58 687,-43 656,-43"/>
<text text-anchor="start" x="658" y="-48" font-family="Ubuntu" font-size="10.00">7</text>
<polygon fill="#b2df8a" stroke="transparent" points="577,-28 577,-43 656,-43 656,-28 577,-28"/>
<text text-anchor="start" x="579" y="-33" font-family="Ubuntu" font-size="10.00">FLOAT64</text>
<polygon fill="#b2df8a" stroke="transparent" points="656,-28 656,-43 687,-43 687,-28 656,-28"/>
<text text-anchor="start" x="658" y="-33" font-family="Ubuntu" font-size="10.00">8</text>
<polygon fill="none" stroke="black" points="576,-27 576,-179 688,-179 688,-27 576,-27"/>
</a>
</g>
</g>
<!-- Node_Ja_100&#45;&gt;Node_Ja_101 -->
<g id="edge4" class="edge">
<title>Node_Ja_100:e&#45;&gt;Node_Ja_101</title>
<g id="a_edge4"><a xlink:title="Ja_100 &#45;&#45;&gt; Ja_101">
<path fill="none" stroke="#008000" d="M487.5,-145C511.02,-145 535.86,-139.74 558.15,-132.94"/>
<polygon fill="#008000" stroke="#008000" points="559.4,-136.22 567.86,-129.84 557.27,-129.55 559.4,-136.22"/>
</a>
</g>
</g>
<!-- Node_Ja_104&#45;&gt;Node_Ja_102 -->
<g id="edge6" class="edge">
<title>Node_Ja_104:e&#45;&gt;Node_Ja_102:header</title>
<g id="a_edge6"><a xlink:title="Ja_104 &#45;&#45;&gt; Ja_102">
<path fill="none" stroke="#000000" d="M524.5,-274C553.47,-274 563.17,-274 587.77,-274"/>
<polygon fill="#000000" stroke="#000000" points="588,-277.5 598,-274 588,-270.5 588,-277.5"/>
</a>
</g>
</g>
<!-- Node_Ja_103 -->
<g id="node7" class="node">
<title>Node_Ja_103</title>
<g id="a_node7"><a xlink:title="foxglove.Vector3">
<polygon fill="#fffaf0" stroke="transparent" points="599,-309 599,-371 665,-371 665,-309 599,-309"/>
<polygon fill="#e31a1c" stroke="transparent" points="600,-355 600,-370 664,-370 664,-355 600,-355"/>
<text text-anchor="start" x="618" y="-361" font-family="Ubuntu" font-weight="bold" font-size="10.00">Vector3</text>
<text text-anchor="start" x="606" y="-345" font-family="Ubuntu" font-size="10.00">1</text>
<text text-anchor="start" x="617" y="-345" font-family="Ubuntu" font-size="10.00">x</text>
<polygon fill="#a6cee3" stroke="transparent" points="626,-340 626,-355 664,-355 664,-340 626,-340"/>
<text text-anchor="start" x="628" y="-346" font-family="Ubuntu" font-style="italic" font-size="10.00">double</text>
<text text-anchor="start" x="606" y="-330" font-family="Ubuntu" font-size="10.00">2</text>
<text text-anchor="start" x="617" y="-330" font-family="Ubuntu" font-size="10.00">y</text>
<polygon fill="#a6cee3" stroke="transparent" points="626,-325 626,-340 664,-340 664,-325 626,-325"/>
<text text-anchor="start" x="628" y="-331" font-family="Ubuntu" font-style="italic" font-size="10.00">double</text>
<text text-anchor="start" x="606" y="-315" font-family="Ubuntu" font-size="10.00">3</text>
<text text-anchor="start" x="617" y="-315" font-family="Ubuntu" font-size="10.00">z</text>
<polygon fill="#a6cee3" stroke="transparent" points="626,-310 626,-325 664,-325 664,-310 626,-310"/>
<text text-anchor="start" x="628" y="-316" font-family="Ubuntu" font-style="italic" font-size="10.00">double</text>
<polygon fill="none" stroke="black" points="599,-309 599,-371 665,-371 665,-309 599,-309"/>
</a>
</g>
</g>
<!-- Node_Ja_104&#45;&gt;Node_Ja_103 -->
<g id="edge5" class="edge">
<title>Node_Ja_104:e&#45;&gt;Node_Ja_103:header</title>
<g id="a_edge5"><a xlink:title="Ja_104 &#45;&#45;&gt; Ja_103">
<path fill="none" stroke="#000000" d="M524.5,-289C567.34,-289 554.98,-351.36 588.77,-361.59"/>
<polygon fill="#000000" stroke="#000000" points="588.62,-365.1 599,-363 589.57,-358.17 588.62,-365.1"/>
</a>
</g>
</g>
</g>
</svg>
