<?xml version="1.0" encoding="UTF-8" standalone="no"?>
<!DOCTYPE svg PUBLIC "-//W3C//DTD SVG 1.1//EN"
 "http://www.w3.org/Graphics/SVG/1.1/DTD/svg11.dtd">
<!-- Generated by graphviz version 2.43.0 (0)
 -->
<!-- Title: protodot Pages: 1 -->
<svg width="404pt" height="161pt"
 viewBox="0.00 0.00 404.00 161.00" xmlns="http://www.w3.org/2000/svg" xmlns:xlink="http://www.w3.org/1999/xlink">
<g id="graph0" class="graph" transform="scale(1 1) rotate(0) translate(4 157)">
<title>protodot</title>
<g id="a_graph0"><a xlink:title="foxglove">
<text text-anchor="middle" x="198" y="-7.8" font-family="Times,serif" font-size="14.00">foxglove</text>
</a>
</g>
<!-- Node_Ja_101 -->
<g id="node1" class="node">
<title>Node_Ja_101</title>
<g id="a_node1"><a xlink:title="foxglove.RawImage">
<polygon fill="#fffaf0" stroke="transparent" points="8,-27 8,-149 246,-149 246,-27 8,-27"/>
<polygon fill="#e31a1c" stroke="transparent" points="9,-133 9,-148 245,-148 245,-133 9,-133"/>
<text text-anchor="start" x="184" y="-139" font-family="Ubuntu" font-weight="bold" font-size="10.00">RawImage</text>
<text text-anchor="start" x="15" y="-123" font-family="Ubuntu" font-size="10.00">1</text>
<text text-anchor="start" x="26" y="-123" font-family="Ubuntu" font-size="10.00">timestamp</text>
<polygon fill="#fb9a99" stroke="transparent" points="82,-118 82,-133 245,-133 245,-118 82,-118"/>
<text text-anchor="start" x="84" y="-124" font-family="Ubuntu" font-weight="bold" font-size="10.00">google.protobuf.Timestamp</text>
<text text-anchor="start" x="15" y="-108" font-family="Ubuntu" font-size="10.00">7</text>
<text text-anchor="start" x="26" y="-108" font-family="Ubuntu" font-size="10.00">frame_id</text>
<polygon fill="#a6cee3" stroke="transparent" points="82,-103 82,-118 245,-118 245,-103 82,-103"/>
<text text-anchor="start" x="215" y="-109" font-family="Ubuntu" font-style="italic" font-size="10.00">string</text>
<text text-anchor="start" x="15" y="-93" font-family="Ubuntu" font-size="10.00">2</text>
<text text-anchor="start" x="26" y="-93" font-family="Ubuntu" font-size="10.00">width</text>
<polygon fill="#a6cee3" stroke="transparent" points="82,-88 82,-103 245,-103 245,-88 82,-88"/>
<text text-anchor="start" x="206" y="-94" font-family="Ubuntu" font-style="italic" font-size="10.00">fixed32</text>
<text text-anchor="start" x="15" y="-78" font-family="Ubuntu" font-size="10.00">3</text>
<text text-anchor="start" x="26" y="-78" font-family="Ubuntu" font-size="10.00">height</text>
<polygon fill="#a6cee3" stroke="transparent" points="82,-73 82,-88 245,-88 245,-73 82,-73"/>
<text text-anchor="start" x="206" y="-79" font-family="Ubuntu" font-style="italic" font-size="10.00">fixed32</text>
<text text-anchor="start" x="15" y="-63" font-family="Ubuntu" font-size="10.00">4</text>
<text text-anchor="start" x="26" y="-63" font-family="Ubuntu" font-size="10.00">encoding</text>
<polygon fill="#a6cee3" stroke="transparent" points="82,-58 82,-73 245,-73 245,-58 82,-58"/>
<text text-anchor="start" x="215" y="-64" font-family="Ubuntu" font-style="italic" font-size="10.00">string</text>
<text text-anchor="start" x="15" y="-48" font-family="Ubuntu" font-size="10.00">5</text>
<text text-anchor="start" x="26" y="-48" font-family="Ubuntu" font-size="10.00">step</text>
<polygon fill="#a6cee3" stroke="transparent" points="82,-43 82,-58 245,-58 245,-43 82,-43"/>
<text text-anchor="start" x="206" y="-49" font-family="Ubuntu" font-style="italic" font-size="10.00">fixed32</text>
<text text-anchor="start" x="15" y="-33" font-family="Ubuntu" font-size="10.00">6</text>
<text text-anchor="start" x="26" y="-33" font-family="Ubuntu" font-size="10.00">data</text>
<polygon fill="#a6cee3" stroke="transparent" points="82,-28 82,-43 245,-43 245,-28 82,-28"/>
<text text-anchor="start" x="215" y="-34" font-family="Ubuntu" font-style="italic" font-size="10.00">bytes</text>
<polygon fill="none" stroke="black" points="8,-27 8,-149 246,-149 246,-27 8,-27"/>
</a>
</g>
</g>
<!-- Node_Ja_100 -->
<g id="node2" class="node">
<title>Node_Ja_100</title>
<g id="a_node2"><a xlink:title="google.protobuf.Timestamp">
<polygon fill="#fffaf0" stroke="transparent" points="298,-87.5 298,-134.5 388,-134.5 388,-87.5 298,-87.5"/>
<polygon fill="#e31a1c" stroke="transparent" points="299,-118 299,-133 387,-133 387,-118 299,-118"/>
<text text-anchor="start" x="321" y="-124" font-family="Ubuntu" font-weight="bold" font-size="10.00">Timestamp</text>
<text text-anchor="start" x="305" y="-108" font-family="Ubuntu" font-size="10.00">1</text>
<text text-anchor="start" x="316" y="-108" font-family="Ubuntu" font-size="10.00">seconds</text>
<polygon fill="#a6cee3" stroke="transparent" points="358,-103 358,-118 387,-118 387,-103 358,-103"/>
<text text-anchor="start" x="360" y="-109" font-family="Ubuntu" font-style="italic" font-size="10.00">int64</text>
<text text-anchor="start" x="305" y="-93" font-family="Ubuntu" font-size="10.00">2</text>
<text text-anchor="start" x="316" y="-93" font-family="Ubuntu" font-size="10.00">nanos</text>
<polygon fill="#a6cee3" stroke="transparent" points="358,-88 358,-103 387,-103 387,-88 358,-88"/>
<text text-anchor="start" x="360" y="-94" font-family="Ubuntu" font-style="italic" font-size="10.00">int32</text>
<polygon fill="none" stroke="black" points="298,-87.5 298,-134.5 388,-134.5 388,-87.5 298,-87.5"/>
</a>
</g>
</g>
<!-- Node_Ja_101&#45;&gt;Node_Ja_100 -->
<g id="edge1" class="edge">
<title>Node_Ja_101:e&#45;&gt;Node_Ja_100:header</title>
<g id="a_edge1"><a xlink:title="Ja_101 &#45;&#45;&gt; Ja_100">
<path fill="none" stroke="#000000" d="M246,-126C265.32,-126 272.53,-126 287.87,-126"/>
<polygon fill="#000000" stroke="#000000" points="288,-129.5 298,-126 288,-122.5 288,-129.5"/>
</a>
</g>
</g>
</g>
</svg>
