<?xml version="1.0" encoding="UTF-8" standalone="no"?>
<!DOCTYPE svg PUBLIC "-//W3C//DTD SVG 1.1//EN"
 "http://www.w3.org/Graphics/SVG/1.1/DTD/svg11.dtd">
<!-- Generated by graphviz version 2.43.0 (0)
 -->
<!-- Title: protodot Pages: 1 -->
<svg width="431pt" height="278pt"
 viewBox="0.00 0.00 431.00 278.00" xmlns="http://www.w3.org/2000/svg" xmlns:xlink="http://www.w3.org/1999/xlink">
<g id="graph0" class="graph" transform="scale(1 1) rotate(0) translate(4 274)">
<title>protodot</title>
<g id="a_graph0"><a xlink:title="foxglove">
<text text-anchor="middle" x="211.5" y="-7.8" font-family="Times,serif" font-size="14.00">foxglove</text>
</a>
</g>
<!-- Node_Ja_103 -->
<g id="node1" class="node">
<title>Node_Ja_103</title>
<g id="a_node1"><a xlink:title="foxglove.FrameTransform">
<polygon fill="#fffaf0" stroke="transparent" points="8,-161.5 8,-253.5 273,-253.5 273,-161.5 8,-161.5"/>
<polygon fill="#e31a1c" stroke="transparent" points="9.5,-237.5 9.5,-252.5 272.5,-252.5 272.5,-237.5 9.5,-237.5"/>
<text text-anchor="start" x="176.5" y="-243.5" font-family="Ubuntu" font-weight="bold" font-size="10.00">FrameTransform</text>
<text text-anchor="start" x="15.5" y="-227.5" font-family="Ubuntu" font-size="10.00">1</text>
<text text-anchor="start" x="26.5" y="-227.5" font-family="Ubuntu" font-size="10.00">timestamp</text>
<polygon fill="#fb9a99" stroke="transparent" points="109.5,-222.5 109.5,-237.5 272.5,-237.5 272.5,-222.5 109.5,-222.5"/>
<text text-anchor="start" x="111.5" y="-228.5" font-family="Ubuntu" font-weight="bold" font-size="10.00">google.protobuf.Timestamp</text>
<text text-anchor="start" x="15.5" y="-212.5" font-family="Ubuntu" font-size="10.00">2</text>
<text text-anchor="start" x="26.5" y="-212.5" font-family="Ubuntu" font-size="10.00">parent_frame_id</text>
<polygon fill="#a6cee3" stroke="transparent" points="109.5,-207.5 109.5,-222.5 272.5,-222.5 272.5,-207.5 109.5,-207.5"/>
<text text-anchor="start" x="242.5" y="-213.5" font-family="Ubuntu" font-style="italic" font-size="10.00">string</text>
<text text-anchor="start" x="15.5" y="-197.5" font-family="Ubuntu" font-size="10.00">3</text>
<text text-anchor="start" x="26.5" y="-197.5" font-family="Ubuntu" font-size="10.00">child_frame_id</text>
<polygon fill="#a6cee3" stroke="transparent" points="109.5,-192.5 109.5,-207.5 272.5,-207.5 272.5,-192.5 109.5,-192.5"/>
<text text-anchor="start" x="242.5" y="-198.5" font-family="Ubuntu" font-style="italic" font-size="10.00">string</text>
<text text-anchor="start" x="15.5" y="-182.5" font-family="Ubuntu" font-size="10.00">4</text>
<text text-anchor="start" x="26.5" y="-182.5" font-family="Ubuntu" font-size="10.00">translation</text>
<polygon fill="#fb9a99" stroke="transparent" points="109.5,-177.5 109.5,-192.5 272.5,-192.5 272.5,-177.5 109.5,-177.5"/>
<text text-anchor="start" x="173.5" y="-183.5" font-family="Ubuntu" font-weight="bold" font-size="10.00">foxglove.Vector3</text>
<text text-anchor="start" x="15.5" y="-167.5" font-family="Ubuntu" font-size="10.00">5</text>
<text text-anchor="start" x="26.5" y="-167.5" font-family="Ubuntu" font-size="10.00">rotation</text>
<polygon fill="#fb9a99" stroke="transparent" points="109.5,-162.5 109.5,-177.5 272.5,-177.5 272.5,-162.5 109.5,-162.5"/>
<text text-anchor="start" x="154.5" y="-168.5" font-family="Ubuntu" font-weight="bold" font-size="10.00">foxglove.Quaternion</text>
<polygon fill="none" stroke="black" points="8,-161.5 8,-253.5 273,-253.5 273,-161.5 8,-161.5"/>
</a>
</g>
</g>
<!-- Node_Ja_101 -->
<g id="node2" class="node">
<title>Node_Ja_101</title>
<g id="a_node2"><a xlink:title="foxglove.Vector3">
<polygon fill="#fffaf0" stroke="transparent" points="337,-130.5 337,-192.5 403,-192.5 403,-130.5 337,-130.5"/>
<polygon fill="#e31a1c" stroke="transparent" points="338,-176.5 338,-191.5 402,-191.5 402,-176.5 338,-176.5"/>
<text text-anchor="start" x="356" y="-182.5" font-family="Ubuntu" font-weight="bold" font-size="10.00">Vector3</text>
<text text-anchor="start" x="344" y="-166.5" font-family="Ubuntu" font-size="10.00">1</text>
<text text-anchor="start" x="355" y="-166.5" font-family="Ubuntu" font-size="10.00">x</text>
<polygon fill="#a6cee3" stroke="transparent" points="364,-161.5 364,-176.5 402,-176.5 402,-161.5 364,-161.5"/>
<text text-anchor="start" x="366" y="-167.5" font-family="Ubuntu" font-style="italic" font-size="10.00">double</text>
<text text-anchor="start" x="344" y="-151.5" font-family="Ubuntu" font-size="10.00">2</text>
<text text-anchor="start" x="355" y="-151.5" font-family="Ubuntu" font-size="10.00">y</text>
<polygon fill="#a6cee3" stroke="transparent" points="364,-146.5 364,-161.5 402,-161.5 402,-146.5 364,-146.5"/>
<text text-anchor="start" x="366" y="-152.5" font-family="Ubuntu" font-style="italic" font-size="10.00">double</text>
<text text-anchor="start" x="344" y="-136.5" font-family="Ubuntu" font-size="10.00">3</text>
<text text-anchor="start" x="355" y="-136.5" font-family="Ubuntu" font-size="10.00">z</text>
<polygon fill="#a6cee3" stroke="transparent" points="364,-131.5 364,-146.5 402,-146.5 402,-131.5 364,-131.5"/>
<text text-anchor="start" x="366" y="-137.5" font-family="Ubuntu" font-style="italic" font-size="10.00">double</text>
<polygon fill="none" stroke="black" points="337,-130.5 337,-192.5 403,-192.5 403,-130.5 337,-130.5"/>
</a>
</g>
</g>
<!-- Node_Ja_103&#45;&gt;Node_Ja_101 -->
<g id="edge1" class="edge">
<title>Node_Ja_103:e&#45;&gt;Node_Ja_101:header</title>
<g id="a_edge1"><a xlink:title="Ja_103 &#45;&#45;&gt; Ja_101">
<path fill="none" stroke="#000000" d="M273.5,-184.5C297.97,-184.5 306.53,-184.5 326.78,-184.5"/>
<polygon fill="#000000" stroke="#000000" points="327,-188 337,-184.5 327,-181 327,-188"/>
</a>
</g>
</g>
<!-- Node_Ja_100 -->
<g id="node3" class="node">
<title>Node_Ja_100</title>
<g id="a_node3"><a xlink:title="foxglove.Quaternion">
<polygon fill="#fffaf0" stroke="transparent" points="335.5,-27 335.5,-104 404.5,-104 404.5,-27 335.5,-27"/>
<polygon fill="#e31a1c" stroke="transparent" points="337,-87.5 337,-102.5 404,-102.5 404,-87.5 337,-87.5"/>
<text text-anchor="start" x="339" y="-93.5" font-family="Ubuntu" font-weight="bold" font-size="10.00">Quaternion</text>
<text text-anchor="start" x="343" y="-77.5" font-family="Ubuntu" font-size="10.00">1</text>
<text text-anchor="start" x="354" y="-77.5" font-family="Ubuntu" font-size="10.00">x</text>
<polygon fill="#a6cee3" stroke="transparent" points="365,-72.5 365,-87.5 404,-87.5 404,-72.5 365,-72.5"/>
<text text-anchor="start" x="368" y="-78.5" font-family="Ubuntu" font-style="italic" font-size="10.00">double</text>
<text text-anchor="start" x="343" y="-62.5" font-family="Ubuntu" font-size="10.00">2</text>
<text text-anchor="start" x="354" y="-62.5" font-family="Ubuntu" font-size="10.00">y</text>
<polygon fill="#a6cee3" stroke="transparent" points="365,-57.5 365,-72.5 404,-72.5 404,-57.5 365,-57.5"/>
<text text-anchor="start" x="368" y="-63.5" font-family="Ubuntu" font-style="italic" font-size="10.00">double</text>
<text text-anchor="start" x="343" y="-47.5" font-family="Ubuntu" font-size="10.00">3</text>
<text text-anchor="start" x="354" y="-47.5" font-family="Ubuntu" font-size="10.00">z</text>
<polygon fill="#a6cee3" stroke="transparent" points="365,-42.5 365,-57.5 404,-57.5 404,-42.5 365,-42.5"/>
<text text-anchor="start" x="368" y="-48.5" font-family="Ubuntu" font-style="italic" font-size="10.00">double</text>
<text text-anchor="start" x="343" y="-32.5" font-family="Ubuntu" font-size="10.00">4</text>
<text text-anchor="start" x="354" y="-32.5" font-family="Ubuntu" font-size="10.00">w</text>
<polygon fill="#a6cee3" stroke="transparent" points="365,-27.5 365,-42.5 404,-42.5 404,-27.5 365,-27.5"/>
<text text-anchor="start" x="368" y="-33.5" font-family="Ubuntu" font-style="italic" font-size="10.00">double</text>
<polygon fill="none" stroke="black" points="335.5,-27 335.5,-104 404.5,-104 404.5,-27 335.5,-27"/>
</a>
</g>
</g>
<!-- Node_Ja_103&#45;&gt;Node_Ja_100 -->
<g id="edge2" class="edge">
<title>Node_Ja_103:e&#45;&gt;Node_Ja_100:header</title>
<g id="a_edge2"><a xlink:title="Ja_103 &#45;&#45;&gt; Ja_100">
<path fill="none" stroke="#000000" d="M273.5,-169.5C312.68,-169.5 296.65,-108.2 325.91,-97.18"/>
<polygon fill="#000000" stroke="#000000" points="326.71,-100.6 336,-95.5 325.56,-93.7 326.71,-100.6"/>
</a>
</g>
</g>
<!-- Node_Ja_102 -->
<g id="node4" class="node">
<title>Node_Ja_102</title>
<g id="a_node4"><a xlink:title="google.protobuf.Timestamp">
<polygon fill="#fffaf0" stroke="transparent" points="325,-219 325,-266 415,-266 415,-219 325,-219"/>
<polygon fill="#e31a1c" stroke="transparent" points="326,-249.5 326,-264.5 414,-264.5 414,-249.5 326,-249.5"/>
<text text-anchor="start" x="348" y="-255.5" font-family="Ubuntu" font-weight="bold" font-size="10.00">Timestamp</text>
<text text-anchor="start" x="332" y="-239.5" font-family="Ubuntu" font-size="10.00">1</text>
<text text-anchor="start" x="343" y="-239.5" font-family="Ubuntu" font-size="10.00">seconds</text>
<polygon fill="#a6cee3" stroke="transparent" points="385,-234.5 385,-249.5 414,-249.5 414,-234.5 385,-234.5"/>
<text text-anchor="start" x="387" y="-240.5" font-family="Ubuntu" font-style="italic" font-size="10.00">int64</text>
<text text-anchor="start" x="332" y="-224.5" font-family="Ubuntu" font-size="10.00">2</text>
<text text-anchor="start" x="343" y="-224.5" font-family="Ubuntu" font-size="10.00">nanos</text>
<polygon fill="#a6cee3" stroke="transparent" points="385,-219.5 385,-234.5 414,-234.5 414,-219.5 385,-219.5"/>
<text text-anchor="start" x="387" y="-225.5" font-family="Ubuntu" font-style="italic" font-size="10.00">int32</text>
<polygon fill="none" stroke="black" points="325,-219 325,-266 415,-266 415,-219 325,-219"/>
</a>
</g>
</g>
<!-- Node_Ja_103&#45;&gt;Node_Ja_102 -->
<g id="edge3" class="edge">
<title>Node_Ja_103:e&#45;&gt;Node_Ja_102:header</title>
<g id="a_edge3"><a xlink:title="Ja_103 &#45;&#45;&gt; Ja_102">
<path fill="none" stroke="#000000" d="M273.5,-230.5C295.51,-230.5 298.64,-250.08 315.04,-255.89"/>
<polygon fill="#000000" stroke="#000000" points="314.57,-259.36 325,-257.5 315.69,-252.45 314.57,-259.36"/>
</a>
</g>
</g>
</g>
</svg>
