<?xml version="1.0" encoding="UTF-8" standalone="no"?>
<!DOCTYPE svg PUBLIC "-//W3C//DTD SVG 1.1//EN"
 "http://www.w3.org/Graphics/SVG/1.1/DTD/svg11.dtd">
<!-- Generated by graphviz version 2.43.0 (0)
 -->
<!-- Title: protodot Pages: 1 -->
<svg width="575pt" height="198pt"
 viewBox="0.00 0.00 575.00 197.50" xmlns="http://www.w3.org/2000/svg" xmlns:xlink="http://www.w3.org/1999/xlink">
<g id="graph0" class="graph" transform="scale(1 1) rotate(0) translate(4 193.5)">
<title>protodot</title>
<g id="a_graph0"><a xlink:title="foxglove">
<text text-anchor="middle" x="283.5" y="-7.8" font-family="Times,serif" font-size="14.00">foxglove</text>
</a>
</g>
<!-- Node_Ja_101 -->
<g id="node1" class="node">
<title>Node_Ja_101</title>
<g id="a_node1"><a xlink:title="foxglove.LocationFix">
<polygon fill="#fffaf0" stroke="transparent" points="8,-63.5 8,-185.5 334,-185.5 334,-63.5 8,-63.5"/>
<polygon fill="#e31a1c" stroke="transparent" points="9,-169.5 9,-184.5 333,-184.5 333,-169.5 9,-169.5"/>
<text text-anchor="start" x="266" y="-175.5" font-family="Ubuntu" font-weight="bold" font-size="10.00">LocationFix</text>
<text text-anchor="start" x="32" y="-159.5" font-family="Ubuntu" font-size="10.00">6</text>
<text text-anchor="start" x="43" y="-159.5" font-family="Ubuntu" font-size="10.00">timestamp</text>
<polygon fill="#fb9a99" stroke="transparent" points="170,-154.5 170,-169.5 333,-169.5 333,-154.5 170,-154.5"/>
<text text-anchor="start" x="172" y="-160.5" font-family="Ubuntu" font-weight="bold" font-size="10.00">google.protobuf.Timestamp</text>
<text text-anchor="start" x="32" y="-144.5" font-family="Ubuntu" font-size="10.00">7</text>
<text text-anchor="start" x="43" y="-144.5" font-family="Ubuntu" font-size="10.00">frame_id</text>
<polygon fill="#a6cee3" stroke="transparent" points="170,-139.5 170,-154.5 333,-154.5 333,-139.5 170,-139.5"/>
<text text-anchor="start" x="303" y="-145.5" font-family="Ubuntu" font-style="italic" font-size="10.00">string</text>
<text text-anchor="start" x="32" y="-129.5" font-family="Ubuntu" font-size="10.00">1</text>
<text text-anchor="start" x="43" y="-129.5" font-family="Ubuntu" font-size="10.00">latitude</text>
<polygon fill="#a6cee3" stroke="transparent" points="170,-124.5 170,-139.5 333,-139.5 333,-124.5 170,-124.5"/>
<text text-anchor="start" x="297" y="-130.5" font-family="Ubuntu" font-style="italic" font-size="10.00">double</text>
<text text-anchor="start" x="32" y="-114.5" font-family="Ubuntu" font-size="10.00">2</text>
<text text-anchor="start" x="43" y="-114.5" font-family="Ubuntu" font-size="10.00">longitude</text>
<polygon fill="#a6cee3" stroke="transparent" points="170,-109.5 170,-124.5 333,-124.5 333,-109.5 170,-109.5"/>
<text text-anchor="start" x="297" y="-115.5" font-family="Ubuntu" font-style="italic" font-size="10.00">double</text>
<text text-anchor="start" x="32" y="-99.5" font-family="Ubuntu" font-size="10.00">3</text>
<text text-anchor="start" x="43" y="-99.5" font-family="Ubuntu" font-size="10.00">altitude</text>
<polygon fill="#a6cee3" stroke="transparent" points="170,-94.5 170,-109.5 333,-109.5 333,-94.5 170,-94.5"/>
<text text-anchor="start" x="297" y="-100.5" font-family="Ubuntu" font-style="italic" font-size="10.00">double</text>
<text text-anchor="start" x="11" y="-84.5" font-family="Ubuntu" font-size="10.00">[...]</text>
<text text-anchor="start" x="32" y="-84.5" font-family="Ubuntu" font-size="10.00">4</text>
<text text-anchor="start" x="43" y="-84.5" font-family="Ubuntu" font-size="10.00">position_covariance</text>
<polygon fill="#a6cee3" stroke="transparent" points="170,-79.5 170,-94.5 333,-94.5 333,-79.5 170,-79.5"/>
<text text-anchor="start" x="297" y="-85.5" font-family="Ubuntu" font-style="italic" font-size="10.00">double</text>
<text text-anchor="start" x="32" y="-69.5" font-family="Ubuntu" font-size="10.00">5</text>
<text text-anchor="start" x="43" y="-69.5" font-family="Ubuntu" font-size="10.00">position_covariance_type</text>
<polygon fill="#b2df8a" stroke="transparent" points="170,-64.5 170,-79.5 333,-79.5 333,-64.5 170,-64.5"/>
<text text-anchor="start" x="214" y="-70.5" font-family="Ubuntu" text-decoration="underline" font-size="10.00">PositionCovarianceType</text>
<polygon fill="none" stroke="black" points="8,-63.5 8,-185.5 334,-185.5 334,-63.5 8,-63.5"/>
</a>
</g>
</g>
<!-- Node_Ja_100 -->
<g id="node2" class="node">
<title>Node_Ja_100</title>
<g id="a_node2"><a xlink:title="google.protobuf.Timestamp">
<polygon fill="#fffaf0" stroke="transparent" points="427.5,-130 427.5,-177 517.5,-177 517.5,-130 427.5,-130"/>
<polygon fill="#e31a1c" stroke="transparent" points="428.5,-160.5 428.5,-175.5 516.5,-175.5 516.5,-160.5 428.5,-160.5"/>
<text text-anchor="start" x="450.5" y="-166.5" font-family="Ubuntu" font-weight="bold" font-size="10.00">Timestamp</text>
<text text-anchor="start" x="434.5" y="-150.5" font-family="Ubuntu" font-size="10.00">1</text>
<text text-anchor="start" x="445.5" y="-150.5" font-family="Ubuntu" font-size="10.00">seconds</text>
<polygon fill="#a6cee3" stroke="transparent" points="487.5,-145.5 487.5,-160.5 516.5,-160.5 516.5,-145.5 487.5,-145.5"/>
<text text-anchor="start" x="489.5" y="-151.5" font-family="Ubuntu" font-style="italic" font-size="10.00">int64</text>
<text text-anchor="start" x="434.5" y="-135.5" font-family="Ubuntu" font-size="10.00">2</text>
<text text-anchor="start" x="445.5" y="-135.5" font-family="Ubuntu" font-size="10.00">nanos</text>
<polygon fill="#a6cee3" stroke="transparent" points="487.5,-130.5 487.5,-145.5 516.5,-145.5 516.5,-130.5 487.5,-130.5"/>
<text text-anchor="start" x="489.5" y="-136.5" font-family="Ubuntu" font-style="italic" font-size="10.00">int32</text>
<polygon fill="none" stroke="black" points="427.5,-130 427.5,-177 517.5,-177 517.5,-130 427.5,-130"/>
</a>
</g>
</g>
<!-- Node_Ja_101&#45;&gt;Node_Ja_100 -->
<g id="edge1" class="edge">
<title>Node_Ja_101:e&#45;&gt;Node_Ja_100:header</title>
<g id="a_edge1"><a xlink:title="Ja_101 &#45;&#45;&gt; Ja_100">
<path fill="none" stroke="#000000" d="M334,-162.5C372.06,-162.5 383.87,-167.51 417.42,-168.37"/>
<polygon fill="#000000" stroke="#000000" points="417.46,-171.88 427.5,-168.5 417.54,-164.88 417.46,-171.88"/>
</a>
</g>
</g>
<!-- Node_Ja_102 -->
<g id="node3" class="node">
<title>Node_Ja_102</title>
<g id="a_node3"><a xlink:title="PositionCovarianceType">
<polygon fill="#b2df8a" stroke="transparent" points="386,-27 386,-104 559,-104 559,-27 386,-27"/>
<polygon fill="#33a02c" stroke="transparent" points="387.5,-87.5 387.5,-102.5 558.5,-102.5 558.5,-87.5 387.5,-87.5"/>
<text text-anchor="start" x="389.5" y="-93.5" font-family="Ubuntu" font-size="10.00">enum </text>
<text text-anchor="start" x="420.5" y="-93.5" font-family="Ubuntu" font-weight="bold" font-size="10.00">PositionCovarianceType</text>
<polygon fill="#b2df8a" stroke="transparent" points="387.5,-72.5 387.5,-87.5 517.5,-87.5 517.5,-72.5 387.5,-72.5"/>
<text text-anchor="start" x="389.5" y="-77.5" font-family="Ubuntu" font-size="10.00">UNKNOWN</text>
<polygon fill="#b2df8a" stroke="transparent" points="517.5,-72.5 517.5,-87.5 558.5,-87.5 558.5,-72.5 517.5,-72.5"/>
<text text-anchor="start" x="519.5" y="-77.5" font-family="Ubuntu" font-size="10.00">0</text>
<polygon fill="#b2df8a" stroke="transparent" points="387.5,-57.5 387.5,-72.5 517.5,-72.5 517.5,-57.5 387.5,-57.5"/>
<text text-anchor="start" x="389.5" y="-62.5" font-family="Ubuntu" font-size="10.00">APPROXIMATED</text>
<polygon fill="#b2df8a" stroke="transparent" points="517.5,-57.5 517.5,-72.5 558.5,-72.5 558.5,-57.5 517.5,-57.5"/>
<text text-anchor="start" x="519.5" y="-62.5" font-family="Ubuntu" font-size="10.00">1</text>
<polygon fill="#b2df8a" stroke="transparent" points="387.5,-42.5 387.5,-57.5 517.5,-57.5 517.5,-42.5 387.5,-42.5"/>
<text text-anchor="start" x="389.5" y="-47.5" font-family="Ubuntu" font-size="10.00">DIAGONAL_KNOWN</text>
<polygon fill="#b2df8a" stroke="transparent" points="517.5,-42.5 517.5,-57.5 558.5,-57.5 558.5,-42.5 517.5,-42.5"/>
<text text-anchor="start" x="519.5" y="-47.5" font-family="Ubuntu" font-size="10.00">2</text>
<polygon fill="#b2df8a" stroke="transparent" points="387.5,-27.5 387.5,-42.5 517.5,-42.5 517.5,-27.5 387.5,-27.5"/>
<text text-anchor="start" x="389.5" y="-32.5" font-family="Ubuntu" font-size="10.00">KNOWN</text>
<polygon fill="#b2df8a" stroke="transparent" points="517.5,-27.5 517.5,-42.5 558.5,-42.5 558.5,-27.5 517.5,-27.5"/>
<text text-anchor="start" x="519.5" y="-32.5" font-family="Ubuntu" font-size="10.00">3</text>
<polygon fill="none" stroke="black" points="386,-27 386,-104 559,-104 559,-27 386,-27"/>
</a>
</g>
</g>
<!-- Node_Ja_101&#45;&gt;Node_Ja_102 -->
<g id="edge2" class="edge">
<title>Node_Ja_101:e&#45;&gt;Node_Ja_102</title>
<g id="a_edge2"><a xlink:title="Ja_101 &#45;&#45;&gt; Ja_102">
<path fill="none" stroke="#008000" d="M334,-71.5C345,-71.5 356.48,-71.31 367.93,-70.99"/>
<polygon fill="#008000" stroke="#008000" points="368.07,-74.49 377.96,-70.68 367.86,-67.49 368.07,-74.49"/>
</a>
</g>
</g>
</g>
</svg>
