<?xml version="1.0" encoding="UTF-8" standalone="no"?>
<!DOCTYPE svg PUBLIC "-//W3C//DTD SVG 1.1//EN"
 "http://www.w3.org/Graphics/SVG/1.1/DTD/svg11.dtd">
<!-- Generated by graphviz version 2.43.0 (0)
 -->
<!-- Title: protodot Pages: 1 -->
<svg width="404pt" height="219pt"
 viewBox="0.00 0.00 404.00 219.00" xmlns="http://www.w3.org/2000/svg" xmlns:xlink="http://www.w3.org/1999/xlink">
<g id="graph0" class="graph" transform="scale(1 1) rotate(0) translate(4 215)">
<title>protodot</title>
<g id="a_graph0"><a xlink:title="foxglove">
<text text-anchor="middle" x="198" y="-7.8" font-family="Times,serif" font-size="14.00">foxglove</text>
</a>
</g>
<!-- Node_Ja_101 -->
<g id="node1" class="node">
<title>Node_Ja_101</title>
<g id="a_node1"><a xlink:title="foxglove.Log">
<polygon fill="#fffaf0" stroke="transparent" points="8,-63 8,-170 246,-170 246,-63 8,-63"/>
<polygon fill="#e31a1c" stroke="transparent" points="9,-153.5 9,-168.5 245,-168.5 245,-153.5 9,-153.5"/>
<text text-anchor="start" x="222" y="-159.5" font-family="Ubuntu" font-weight="bold" font-size="10.00">Log</text>
<text text-anchor="start" x="15" y="-143.5" font-family="Ubuntu" font-size="10.00">1</text>
<text text-anchor="start" x="26" y="-143.5" font-family="Ubuntu" font-size="10.00">timestamp</text>
<polygon fill="#fb9a99" stroke="transparent" points="82,-138.5 82,-153.5 245,-153.5 245,-138.5 82,-138.5"/>
<text text-anchor="start" x="84" y="-144.5" font-family="Ubuntu" font-weight="bold" font-size="10.00">google.protobuf.Timestamp</text>
<text text-anchor="start" x="15" y="-128.5" font-family="Ubuntu" font-size="10.00">2</text>
<text text-anchor="start" x="26" y="-128.5" font-family="Ubuntu" font-size="10.00">level</text>
<polygon fill="#b2df8a" stroke="transparent" points="82,-123.5 82,-138.5 245,-138.5 245,-123.5 82,-123.5"/>
<text text-anchor="start" x="216" y="-129.5" font-family="Ubuntu" text-decoration="underline" font-size="10.00">Level</text>
<text text-anchor="start" x="15" y="-113.5" font-family="Ubuntu" font-size="10.00">3</text>
<text text-anchor="start" x="26" y="-113.5" font-family="Ubuntu" font-size="10.00">message</text>
<polygon fill="#a6cee3" stroke="transparent" points="82,-108.5 82,-123.5 245,-123.5 245,-108.5 82,-108.5"/>
<text text-anchor="start" x="215" y="-114.5" font-family="Ubuntu" font-style="italic" font-size="10.00">string</text>
<text text-anchor="start" x="15" y="-98.5" font-family="Ubuntu" font-size="10.00">4</text>
<text text-anchor="start" x="26" y="-98.5" font-family="Ubuntu" font-size="10.00">name</text>
<polygon fill="#a6cee3" stroke="transparent" points="82,-93.5 82,-108.5 245,-108.5 245,-93.5 82,-93.5"/>
<text text-anchor="start" x="215" y="-99.5" font-family="Ubuntu" font-style="italic" font-size="10.00">string</text>
<text text-anchor="start" x="15" y="-83.5" font-family="Ubuntu" font-size="10.00">5</text>
<text text-anchor="start" x="26" y="-83.5" font-family="Ubuntu" font-size="10.00">file</text>
<polygon fill="#a6cee3" stroke="transparent" points="82,-78.5 82,-93.5 245,-93.5 245,-78.5 82,-78.5"/>
<text text-anchor="start" x="215" y="-84.5" font-family="Ubuntu" font-style="italic" font-size="10.00">string</text>
<text text-anchor="start" x="15" y="-68.5" font-family="Ubuntu" font-size="10.00">6</text>
<text text-anchor="start" x="26" y="-68.5" font-family="Ubuntu" font-size="10.00">line</text>
<polygon fill="#a6cee3" stroke="transparent" points="82,-63.5 82,-78.5 245,-78.5 245,-63.5 82,-63.5"/>
<text text-anchor="start" x="206" y="-69.5" font-family="Ubuntu" font-style="italic" font-size="10.00">fixed32</text>
<polygon fill="none" stroke="black" points="8,-63 8,-170 246,-170 246,-63 8,-63"/>
</a>
</g>
</g>
<!-- Node_Ja_102 -->
<g id="node2" class="node">
<title>Node_Ja_102</title>
<g id="a_node2"><a xlink:title="Level">
<polygon fill="#b2df8a" stroke="transparent" points="307,-27 307,-134 379,-134 379,-27 307,-27"/>
<polygon fill="#33a02c" stroke="transparent" points="308,-117.5 308,-132.5 378,-132.5 378,-117.5 308,-117.5"/>
<text text-anchor="start" x="314" y="-123.5" font-family="Ubuntu" font-size="10.00">enum </text>
<text text-anchor="start" x="345" y="-123.5" font-family="Ubuntu" font-weight="bold" font-size="10.00">Level</text>
<polygon fill="#b2df8a" stroke="transparent" points="308,-102.5 308,-117.5 367,-117.5 367,-102.5 308,-102.5"/>
<text text-anchor="start" x="310" y="-107.5" font-family="Ubuntu" font-size="10.00">UNKNOWN</text>
<polygon fill="#b2df8a" stroke="transparent" points="367,-102.5 367,-117.5 378,-117.5 378,-102.5 367,-102.5"/>
<text text-anchor="start" x="369" y="-107.5" font-family="Ubuntu" font-size="10.00">0</text>
<polygon fill="#b2df8a" stroke="transparent" points="308,-87.5 308,-102.5 367,-102.5 367,-87.5 308,-87.5"/>
<text text-anchor="start" x="310" y="-92.5" font-family="Ubuntu" font-size="10.00">DEBUG</text>
<polygon fill="#b2df8a" stroke="transparent" points="367,-87.5 367,-102.5 378,-102.5 378,-87.5 367,-87.5"/>
<text text-anchor="start" x="369" y="-92.5" font-family="Ubuntu" font-size="10.00">1</text>
<polygon fill="#b2df8a" stroke="transparent" points="308,-72.5 308,-87.5 367,-87.5 367,-72.5 308,-72.5"/>
<text text-anchor="start" x="310" y="-77.5" font-family="Ubuntu" font-size="10.00">INFO</text>
<polygon fill="#b2df8a" stroke="transparent" points="367,-72.5 367,-87.5 378,-87.5 378,-72.5 367,-72.5"/>
<text text-anchor="start" x="369" y="-77.5" font-family="Ubuntu" font-size="10.00">2</text>
<polygon fill="#b2df8a" stroke="transparent" points="308,-57.5 308,-72.5 367,-72.5 367,-57.5 308,-57.5"/>
<text text-anchor="start" x="310" y="-62.5" font-family="Ubuntu" font-size="10.00">WARNING</text>
<polygon fill="#b2df8a" stroke="transparent" points="367,-57.5 367,-72.5 378,-72.5 378,-57.5 367,-57.5"/>
<text text-anchor="start" x="369" y="-62.5" font-family="Ubuntu" font-size="10.00">3</text>
<polygon fill="#b2df8a" stroke="transparent" points="308,-42.5 308,-57.5 367,-57.5 367,-42.5 308,-42.5"/>
<text text-anchor="start" x="310" y="-47.5" font-family="Ubuntu" font-size="10.00">ERROR</text>
<polygon fill="#b2df8a" stroke="transparent" points="367,-42.5 367,-57.5 378,-57.5 378,-42.5 367,-42.5"/>
<text text-anchor="start" x="369" y="-47.5" font-family="Ubuntu" font-size="10.00">4</text>
<polygon fill="#b2df8a" stroke="transparent" points="308,-27.5 308,-42.5 367,-42.5 367,-27.5 308,-27.5"/>
<text text-anchor="start" x="310" y="-32.5" font-family="Ubuntu" font-size="10.00">FATAL</text>
<polygon fill="#b2df8a" stroke="transparent" points="367,-27.5 367,-42.5 378,-42.5 378,-27.5 367,-27.5"/>
<text text-anchor="start" x="369" y="-32.5" font-family="Ubuntu" font-size="10.00">5</text>
<polygon fill="none" stroke="black" points="307,-27 307,-134 379,-134 379,-27 307,-27"/>
</a>
</g>
</g>
<!-- Node_Ja_101&#45;&gt;Node_Ja_102 -->
<g id="edge1" class="edge">
<title>Node_Ja_101:e&#45;&gt;Node_Ja_102</title>
<g id="a_edge1"><a xlink:title="Ja_101 &#45;&#45;&gt; Ja_102">
<path fill="none" stroke="#008000" d="M246,-131.5C261.03,-131.5 275.99,-126.57 289.48,-119.77"/>
<polygon fill="#008000" stroke="#008000" points="291.47,-122.67 298.57,-114.8 288.12,-116.53 291.47,-122.67"/>
</a>
</g>
</g>
<!-- Node_Ja_100 -->
<g id="node3" class="node">
<title>Node_Ja_100</title>
<g id="a_node3"><a xlink:title="google.protobuf.Timestamp">
<polygon fill="#fffaf0" stroke="transparent" points="298,-160 298,-207 388,-207 388,-160 298,-160"/>
<polygon fill="#e31a1c" stroke="transparent" points="299,-190.5 299,-205.5 387,-205.5 387,-190.5 299,-190.5"/>
<text text-anchor="start" x="321" y="-196.5" font-family="Ubuntu" font-weight="bold" font-size="10.00">Timestamp</text>
<text text-anchor="start" x="305" y="-180.5" font-family="Ubuntu" font-size="10.00">1</text>
<text text-anchor="start" x="316" y="-180.5" font-family="Ubuntu" font-size="10.00">seconds</text>
<polygon fill="#a6cee3" stroke="transparent" points="358,-175.5 358,-190.5 387,-190.5 387,-175.5 358,-175.5"/>
<text text-anchor="start" x="360" y="-181.5" font-family="Ubuntu" font-style="italic" font-size="10.00">int64</text>
<text text-anchor="start" x="305" y="-165.5" font-family="Ubuntu" font-size="10.00">2</text>
<text text-anchor="start" x="316" y="-165.5" font-family="Ubuntu" font-size="10.00">nanos</text>
<polygon fill="#a6cee3" stroke="transparent" points="358,-160.5 358,-175.5 387,-175.5 387,-160.5 358,-160.5"/>
<text text-anchor="start" x="360" y="-166.5" font-family="Ubuntu" font-style="italic" font-size="10.00">int32</text>
<polygon fill="none" stroke="black" points="298,-160 298,-207 388,-207 388,-160 298,-160"/>
</a>
</g>
</g>
<!-- Node_Ja_101&#45;&gt;Node_Ja_100 -->
<g id="edge2" class="edge">
<title>Node_Ja_101:e&#45;&gt;Node_Ja_100:header</title>
<g id="a_edge2"><a xlink:title="Ja_101 &#45;&#45;&gt; Ja_100">
<path fill="none" stroke="#000000" d="M246,-146.5C274.73,-146.5 267.88,-186.67 287.99,-196.4"/>
<polygon fill="#000000" stroke="#000000" points="287.49,-199.87 298,-198.5 288.93,-193.02 287.49,-199.87"/>
</a>
</g>
</g>
</g>
</svg>
