<?xml version="1.0" encoding="UTF-8" standalone="no"?>
<!DOCTYPE svg PUBLIC "-//W3C//DTD SVG 1.1//EN"
 "http://www.w3.org/Graphics/SVG/1.1/DTD/svg11.dtd">
<!-- Generated by graphviz version 2.43.0 (0)
 -->
<!-- Title: protodot Pages: 1 -->
<svg width="648pt" height="257pt"
 viewBox="0.00 0.00 648.00 257.00" xmlns="http://www.w3.org/2000/svg" xmlns:xlink="http://www.w3.org/1999/xlink">
<g id="graph0" class="graph" transform="scale(1 1) rotate(0) translate(4 253)">
<title>protodot</title>
<g id="a_graph0"><a xlink:title="foxglove">
<text text-anchor="middle" x="320" y="-7.8" font-family="Times,serif" font-size="14.00">foxglove</text>
</a>
</g>
<!-- Node_Ja_102 -->
<g id="node1" class="node">
<title>Node_Ja_102</title>
<g id="a_node1"><a xlink:title="foxglove.Pose">
<polygon fill="#fffaf0" stroke="transparent" points="316,-125 316,-172 511,-172 511,-125 316,-125"/>
<polygon fill="#e31a1c" stroke="transparent" points="317.5,-155.5 317.5,-170.5 510.5,-170.5 510.5,-155.5 317.5,-155.5"/>
<text text-anchor="start" x="480.5" y="-161.5" font-family="Ubuntu" font-weight="bold" font-size="10.00">Pose</text>
<text text-anchor="start" x="323.5" y="-145.5" font-family="Ubuntu" font-size="10.00">1</text>
<text text-anchor="start" x="334.5" y="-145.5" font-family="Ubuntu" font-size="10.00">position</text>
<polygon fill="#fb9a99" stroke="transparent" points="390.5,-140.5 390.5,-155.5 510.5,-155.5 510.5,-140.5 390.5,-140.5"/>
<text text-anchor="start" x="411.5" y="-146.5" font-family="Ubuntu" font-weight="bold" font-size="10.00">foxglove.Vector3</text>
<text text-anchor="start" x="323.5" y="-130.5" font-family="Ubuntu" font-size="10.00">2</text>
<text text-anchor="start" x="334.5" y="-130.5" font-family="Ubuntu" font-size="10.00">orientation</text>
<polygon fill="#fb9a99" stroke="transparent" points="390.5,-125.5 390.5,-140.5 510.5,-140.5 510.5,-125.5 390.5,-125.5"/>
<text text-anchor="start" x="392.5" y="-131.5" font-family="Ubuntu" font-weight="bold" font-size="10.00">foxglove.Quaternion</text>
<polygon fill="none" stroke="black" points="316,-125 316,-172 511,-172 511,-125 316,-125"/>
</a>
</g>
</g>
<!-- Node_Ja_101 -->
<g id="node2" class="node">
<title>Node_Ja_101</title>
<g id="a_node2"><a xlink:title="foxglove.Vector3">
<polygon fill="#fffaf0" stroke="transparent" points="564.5,-130.5 564.5,-192.5 630.5,-192.5 630.5,-130.5 564.5,-130.5"/>
<polygon fill="#e31a1c" stroke="transparent" points="565.5,-176.5 565.5,-191.5 629.5,-191.5 629.5,-176.5 565.5,-176.5"/>
<text text-anchor="start" x="583.5" y="-182.5" font-family="Ubuntu" font-weight="bold" font-size="10.00">Vector3</text>
<text text-anchor="start" x="571.5" y="-166.5" font-family="Ubuntu" font-size="10.00">1</text>
<text text-anchor="start" x="582.5" y="-166.5" font-family="Ubuntu" font-size="10.00">x</text>
<polygon fill="#a6cee3" stroke="transparent" points="591.5,-161.5 591.5,-176.5 629.5,-176.5 629.5,-161.5 591.5,-161.5"/>
<text text-anchor="start" x="593.5" y="-167.5" font-family="Ubuntu" font-style="italic" font-size="10.00">double</text>
<text text-anchor="start" x="571.5" y="-151.5" font-family="Ubuntu" font-size="10.00">2</text>
<text text-anchor="start" x="582.5" y="-151.5" font-family="Ubuntu" font-size="10.00">y</text>
<polygon fill="#a6cee3" stroke="transparent" points="591.5,-146.5 591.5,-161.5 629.5,-161.5 629.5,-146.5 591.5,-146.5"/>
<text text-anchor="start" x="593.5" y="-152.5" font-family="Ubuntu" font-style="italic" font-size="10.00">double</text>
<text text-anchor="start" x="571.5" y="-136.5" font-family="Ubuntu" font-size="10.00">3</text>
<text text-anchor="start" x="582.5" y="-136.5" font-family="Ubuntu" font-size="10.00">z</text>
<polygon fill="#a6cee3" stroke="transparent" points="591.5,-131.5 591.5,-146.5 629.5,-146.5 629.5,-131.5 591.5,-131.5"/>
<text text-anchor="start" x="593.5" y="-137.5" font-family="Ubuntu" font-style="italic" font-size="10.00">double</text>
<polygon fill="none" stroke="black" points="564.5,-130.5 564.5,-192.5 630.5,-192.5 630.5,-130.5 564.5,-130.5"/>
</a>
</g>
</g>
<!-- Node_Ja_102&#45;&gt;Node_Ja_101 -->
<g id="edge3" class="edge">
<title>Node_Ja_102:e&#45;&gt;Node_Ja_101:header</title>
<g id="a_edge3"><a xlink:title="Ja_102 &#45;&#45;&gt; Ja_101">
<path fill="none" stroke="#000000" d="M511.5,-147.5C536.41,-147.5 536.37,-175.32 554.65,-182.72"/>
<polygon fill="#000000" stroke="#000000" points="554.04,-186.16 564.5,-184.5 555.28,-179.27 554.04,-186.16"/>
</a>
</g>
</g>
<!-- Node_Ja_100 -->
<g id="node3" class="node">
<title>Node_Ja_100</title>
<g id="a_node3"><a xlink:title="foxglove.Quaternion">
<polygon fill="#fffaf0" stroke="transparent" points="563,-27 563,-104 632,-104 632,-27 563,-27"/>
<polygon fill="#e31a1c" stroke="transparent" points="564.5,-87.5 564.5,-102.5 631.5,-102.5 631.5,-87.5 564.5,-87.5"/>
<text text-anchor="start" x="566.5" y="-93.5" font-family="Ubuntu" font-weight="bold" font-size="10.00">Quaternion</text>
<text text-anchor="start" x="570.5" y="-77.5" font-family="Ubuntu" font-size="10.00">1</text>
<text text-anchor="start" x="581.5" y="-77.5" font-family="Ubuntu" font-size="10.00">x</text>
<polygon fill="#a6cee3" stroke="transparent" points="592.5,-72.5 592.5,-87.5 631.5,-87.5 631.5,-72.5 592.5,-72.5"/>
<text text-anchor="start" x="595.5" y="-78.5" font-family="Ubuntu" font-style="italic" font-size="10.00">double</text>
<text text-anchor="start" x="570.5" y="-62.5" font-family="Ubuntu" font-size="10.00">2</text>
<text text-anchor="start" x="581.5" y="-62.5" font-family="Ubuntu" font-size="10.00">y</text>
<polygon fill="#a6cee3" stroke="transparent" points="592.5,-57.5 592.5,-72.5 631.5,-72.5 631.5,-57.5 592.5,-57.5"/>
<text text-anchor="start" x="595.5" y="-63.5" font-family="Ubuntu" font-style="italic" font-size="10.00">double</text>
<text text-anchor="start" x="570.5" y="-47.5" font-family="Ubuntu" font-size="10.00">3</text>
<text text-anchor="start" x="581.5" y="-47.5" font-family="Ubuntu" font-size="10.00">z</text>
<polygon fill="#a6cee3" stroke="transparent" points="592.5,-42.5 592.5,-57.5 631.5,-57.5 631.5,-42.5 592.5,-42.5"/>
<text text-anchor="start" x="595.5" y="-48.5" font-family="Ubuntu" font-style="italic" font-size="10.00">double</text>
<text text-anchor="start" x="570.5" y="-32.5" font-family="Ubuntu" font-size="10.00">4</text>
<text text-anchor="start" x="581.5" y="-32.5" font-family="Ubuntu" font-size="10.00">w</text>
<polygon fill="#a6cee3" stroke="transparent" points="592.5,-27.5 592.5,-42.5 631.5,-42.5 631.5,-27.5 592.5,-27.5"/>
<text text-anchor="start" x="595.5" y="-33.5" font-family="Ubuntu" font-style="italic" font-size="10.00">double</text>
<polygon fill="none" stroke="black" points="563,-27 563,-104 632,-104 632,-27 563,-27"/>
</a>
</g>
</g>
<!-- Node_Ja_102&#45;&gt;Node_Ja_100 -->
<g id="edge4" class="edge">
<title>Node_Ja_102:e&#45;&gt;Node_Ja_100:header</title>
<g id="a_edge4"><a xlink:title="Ja_102 &#45;&#45;&gt; Ja_100">
<path fill="none" stroke="#000000" d="M511.5,-132.5C535.88,-132.5 535.81,-105.17 553.31,-97.49"/>
<polygon fill="#000000" stroke="#000000" points="554.36,-100.85 563.5,-95.5 553.01,-93.98 554.36,-100.85"/>
</a>
</g>
</g>
<!-- Node_Ja_104 -->
<g id="node4" class="node">
<title>Node_Ja_104</title>
<g id="a_node4"><a xlink:title="foxglove.LaserScan">
<polygon fill="#fffaf0" stroke="transparent" points="8,-115.5 8,-237.5 264,-237.5 264,-115.5 8,-115.5"/>
<polygon fill="#e31a1c" stroke="transparent" points="9,-221.5 9,-236.5 263,-236.5 263,-221.5 9,-221.5"/>
<text text-anchor="start" x="203" y="-227.5" font-family="Ubuntu" font-weight="bold" font-size="10.00">LaserScan</text>
<text text-anchor="start" x="32" y="-211.5" font-family="Ubuntu" font-size="10.00">1</text>
<text text-anchor="start" x="43" y="-211.5" font-family="Ubuntu" font-size="10.00">timestamp</text>
<polygon fill="#fb9a99" stroke="transparent" points="100,-206.5 100,-221.5 263,-221.5 263,-206.5 100,-206.5"/>
<text text-anchor="start" x="102" y="-212.5" font-family="Ubuntu" font-weight="bold" font-size="10.00">google.protobuf.Timestamp</text>
<text text-anchor="start" x="32" y="-196.5" font-family="Ubuntu" font-size="10.00">2</text>
<text text-anchor="start" x="43" y="-196.5" font-family="Ubuntu" font-size="10.00">frame_id</text>
<polygon fill="#a6cee3" stroke="transparent" points="100,-191.5 100,-206.5 263,-206.5 263,-191.5 100,-191.5"/>
<text text-anchor="start" x="233" y="-197.5" font-family="Ubuntu" font-style="italic" font-size="10.00">string</text>
<text text-anchor="start" x="32" y="-181.5" font-family="Ubuntu" font-size="10.00">3</text>
<text text-anchor="start" x="43" y="-181.5" font-family="Ubuntu" font-size="10.00">pose</text>
<polygon fill="#fb9a99" stroke="transparent" points="100,-176.5 100,-191.5 263,-191.5 263,-176.5 100,-176.5"/>
<text text-anchor="start" x="180" y="-182.5" font-family="Ubuntu" font-weight="bold" font-size="10.00">foxglove.Pose</text>
<text text-anchor="start" x="32" y="-166.5" font-family="Ubuntu" font-size="10.00">4</text>
<text text-anchor="start" x="43" y="-166.5" font-family="Ubuntu" font-size="10.00">start_angle</text>
<polygon fill="#a6cee3" stroke="transparent" points="100,-161.5 100,-176.5 263,-176.5 263,-161.5 100,-161.5"/>
<text text-anchor="start" x="227" y="-167.5" font-family="Ubuntu" font-style="italic" font-size="10.00">double</text>
<text text-anchor="start" x="32" y="-151.5" font-family="Ubuntu" font-size="10.00">5</text>
<text text-anchor="start" x="43" y="-151.5" font-family="Ubuntu" font-size="10.00">end_angle</text>
<polygon fill="#a6cee3" stroke="transparent" points="100,-146.5 100,-161.5 263,-161.5 263,-146.5 100,-146.5"/>
<text text-anchor="start" x="227" y="-152.5" font-family="Ubuntu" font-style="italic" font-size="10.00">double</text>
<text text-anchor="start" x="11" y="-136.5" font-family="Ubuntu" font-size="10.00">[...]</text>
<text text-anchor="start" x="32" y="-136.5" font-family="Ubuntu" font-size="10.00">6</text>
<text text-anchor="start" x="43" y="-136.5" font-family="Ubuntu" font-size="10.00">ranges</text>
<polygon fill="#a6cee3" stroke="transparent" points="100,-131.5 100,-146.5 263,-146.5 263,-131.5 100,-131.5"/>
<text text-anchor="start" x="227" y="-137.5" font-family="Ubuntu" font-style="italic" font-size="10.00">double</text>
<text text-anchor="start" x="11" y="-121.5" font-family="Ubuntu" font-size="10.00">[...]</text>
<text text-anchor="start" x="32" y="-121.5" font-family="Ubuntu" font-size="10.00">7</text>
<text text-anchor="start" x="43" y="-121.5" font-family="Ubuntu" font-size="10.00">intensities</text>
<polygon fill="#a6cee3" stroke="transparent" points="100,-116.5 100,-131.5 263,-131.5 263,-116.5 100,-116.5"/>
<text text-anchor="start" x="227" y="-122.5" font-family="Ubuntu" font-style="italic" font-size="10.00">double</text>
<polygon fill="none" stroke="black" points="8,-115.5 8,-237.5 264,-237.5 264,-115.5 8,-115.5"/>
</a>
</g>
</g>
<!-- Node_Ja_104&#45;&gt;Node_Ja_102 -->
<g id="edge2" class="edge">
<title>Node_Ja_104:e&#45;&gt;Node_Ja_102:header</title>
<g id="a_edge2"><a xlink:title="Ja_104 &#45;&#45;&gt; Ja_102">
<path fill="none" stroke="#000000" d="M264,-184.5C285.2,-184.5 290.11,-169.55 306.22,-164.88"/>
<polygon fill="#000000" stroke="#000000" points="307.05,-168.3 316.5,-163.5 306.12,-161.36 307.05,-168.3"/>
</a>
</g>
</g>
<!-- Node_Ja_103 -->
<g id="node5" class="node">
<title>Node_Ja_103</title>
<g id="a_node5"><a xlink:title="google.protobuf.Timestamp">
<polygon fill="#fffaf0" stroke="transparent" points="368.5,-198 368.5,-245 458.5,-245 458.5,-198 368.5,-198"/>
<polygon fill="#e31a1c" stroke="transparent" points="369.5,-228.5 369.5,-243.5 457.5,-243.5 457.5,-228.5 369.5,-228.5"/>
<text text-anchor="start" x="391.5" y="-234.5" font-family="Ubuntu" font-weight="bold" font-size="10.00">Timestamp</text>
<text text-anchor="start" x="375.5" y="-218.5" font-family="Ubuntu" font-size="10.00">1</text>
<text text-anchor="start" x="386.5" y="-218.5" font-family="Ubuntu" font-size="10.00">seconds</text>
<polygon fill="#a6cee3" stroke="transparent" points="428.5,-213.5 428.5,-228.5 457.5,-228.5 457.5,-213.5 428.5,-213.5"/>
<text text-anchor="start" x="430.5" y="-219.5" font-family="Ubuntu" font-style="italic" font-size="10.00">int64</text>
<text text-anchor="start" x="375.5" y="-203.5" font-family="Ubuntu" font-size="10.00">2</text>
<text text-anchor="start" x="386.5" y="-203.5" font-family="Ubuntu" font-size="10.00">nanos</text>
<polygon fill="#a6cee3" stroke="transparent" points="428.5,-198.5 428.5,-213.5 457.5,-213.5 457.5,-198.5 428.5,-198.5"/>
<text text-anchor="start" x="430.5" y="-204.5" font-family="Ubuntu" font-style="italic" font-size="10.00">int32</text>
<polygon fill="none" stroke="black" points="368.5,-198 368.5,-245 458.5,-245 458.5,-198 368.5,-198"/>
</a>
</g>
</g>
<!-- Node_Ja_104&#45;&gt;Node_Ja_103 -->
<g id="edge1" class="edge">
<title>Node_Ja_104:e&#45;&gt;Node_Ja_103:header</title>
<g id="a_edge1"><a xlink:title="Ja_104 &#45;&#45;&gt; Ja_103">
<path fill="none" stroke="#000000" d="M264,-214.5C307.75,-214.5 319.31,-233.2 358.03,-236.12"/>
<polygon fill="#000000" stroke="#000000" points="358.38,-239.63 368.5,-236.5 358.63,-232.64 358.38,-239.63"/>
</a>
</g>
</g>
</g>
</svg>
