<?xml version="1.0" encoding="UTF-8" standalone="no"?>
<!DOCTYPE svg PUBLIC "-//W3C//DTD SVG 1.1//EN"
 "http://www.w3.org/Graphics/SVG/1.1/DTD/svg11.dtd">
<!-- Generated by graphviz version 2.43.0 (0)
 -->
<!-- Title: protodot Pages: 1 -->
<svg width="432pt" height="295pt"
 viewBox="0.00 0.00 432.00 294.50" xmlns="http://www.w3.org/2000/svg" xmlns:xlink="http://www.w3.org/1999/xlink">
<g id="graph0" class="graph" transform="scale(1 1) rotate(0) translate(4 290.5)">
<title>protodot</title>
<g id="a_graph0"><a xlink:title="keelson">
<text text-anchor="middle" x="212" y="-7.8" font-family="Times,serif" font-size="14.00">keelson</text>
</a>
</g>
<!-- Node_Ja_106 -->
<g id="node1" class="node">
<title>Node_Ja_106</title>
<g id="a_node1"><a xlink:title="keelson.IceType">
<polygon fill="#fffaf0" stroke="transparent" points="8,-180.5 8,-227.5 246,-227.5 246,-180.5 8,-180.5"/>
<polygon fill="#e31a1c" stroke="transparent" points="9,-211 9,-226 245,-226 245,-211 9,-211"/>
<text text-anchor="start" x="199" y="-217" font-family="Ubuntu" font-weight="bold" font-size="10.00">IceType</text>
<text text-anchor="start" x="15" y="-201" font-family="Ubuntu" font-size="10.00">1</text>
<text text-anchor="start" x="26" y="-201" font-family="Ubuntu" font-size="10.00">timestamp</text>
<polygon fill="#fb9a99" stroke="transparent" points="82,-196 82,-211 245,-211 245,-196 82,-196"/>
<text text-anchor="start" x="84" y="-202" font-family="Ubuntu" font-weight="bold" font-size="10.00">google.protobuf.Timestamp</text>
<text text-anchor="start" x="15" y="-186" font-family="Ubuntu" font-size="10.00">2</text>
<text text-anchor="start" x="26" y="-186" font-family="Ubuntu" font-size="10.00">type</text>
<polygon fill="#b2df8a" stroke="transparent" points="82,-181 82,-196 245,-196 245,-181 82,-181"/>
<text text-anchor="start" x="220" y="-187" font-family="Ubuntu" text-decoration="underline" font-size="10.00">Type</text>
<polygon fill="none" stroke="black" points="8,-180.5 8,-227.5 246,-227.5 246,-180.5 8,-180.5"/>
</a>
</g>
</g>
<!-- Node_Ja_107 -->
<g id="node2" class="node">
<title>Node_Ja_107</title>
<g id="a_node2"><a xlink:title="Type">
<polygon fill="#b2df8a" stroke="transparent" points="298,-27 298,-209 416,-209 416,-27 298,-27"/>
<polygon fill="#33a02c" stroke="transparent" points="299,-193 299,-208 415,-208 415,-193 299,-193"/>
<text text-anchor="start" x="354" y="-199" font-family="Ubuntu" font-size="10.00">enum </text>
<text text-anchor="start" x="385" y="-199" font-family="Ubuntu" font-weight="bold" font-size="10.00">Type</text>
<polygon fill="#b2df8a" stroke="transparent" points="299,-178 299,-193 398,-193 398,-178 299,-178"/>
<text text-anchor="start" x="301" y="-183" font-family="Ubuntu" font-size="10.00">TYPE_UNSPECIFIED</text>
<polygon fill="#b2df8a" stroke="transparent" points="398,-178 398,-193 415,-193 415,-178 398,-178"/>
<text text-anchor="start" x="400" y="-183" font-family="Ubuntu" font-size="10.00">0</text>
<polygon fill="#b2df8a" stroke="transparent" points="299,-163 299,-178 398,-178 398,-163 299,-163"/>
<text text-anchor="start" x="301" y="-168" font-family="Ubuntu" font-size="10.00">FRAZIL</text>
<polygon fill="#b2df8a" stroke="transparent" points="398,-163 398,-178 415,-178 415,-163 398,-163"/>
<text text-anchor="start" x="400" y="-168" font-family="Ubuntu" font-size="10.00">1</text>
<polygon fill="#b2df8a" stroke="transparent" points="299,-148 299,-163 398,-163 398,-148 299,-148"/>
<text text-anchor="start" x="301" y="-153" font-family="Ubuntu" font-size="10.00">GREASE</text>
<polygon fill="#b2df8a" stroke="transparent" points="398,-148 398,-163 415,-163 415,-148 398,-148"/>
<text text-anchor="start" x="400" y="-153" font-family="Ubuntu" font-size="10.00">2</text>
<polygon fill="#b2df8a" stroke="transparent" points="299,-133 299,-148 398,-148 398,-133 299,-133"/>
<text text-anchor="start" x="301" y="-138" font-family="Ubuntu" font-size="10.00">SLUSH</text>
<polygon fill="#b2df8a" stroke="transparent" points="398,-133 398,-148 415,-148 415,-133 398,-133"/>
<text text-anchor="start" x="400" y="-138" font-family="Ubuntu" font-size="10.00">3</text>
<polygon fill="#b2df8a" stroke="transparent" points="299,-118 299,-133 398,-133 398,-118 299,-118"/>
<text text-anchor="start" x="301" y="-123" font-family="Ubuntu" font-size="10.00">SHUGA</text>
<polygon fill="#b2df8a" stroke="transparent" points="398,-118 398,-133 415,-133 415,-118 398,-118"/>
<text text-anchor="start" x="400" y="-123" font-family="Ubuntu" font-size="10.00">4</text>
<polygon fill="#b2df8a" stroke="transparent" points="299,-103 299,-118 398,-118 398,-103 299,-103"/>
<text text-anchor="start" x="301" y="-108" font-family="Ubuntu" font-size="10.00">NILAS</text>
<polygon fill="#b2df8a" stroke="transparent" points="398,-103 398,-118 415,-118 415,-103 398,-103"/>
<text text-anchor="start" x="400" y="-108" font-family="Ubuntu" font-size="10.00">5</text>
<polygon fill="#b2df8a" stroke="transparent" points="299,-88 299,-103 398,-103 398,-88 299,-88"/>
<text text-anchor="start" x="301" y="-93" font-family="Ubuntu" font-size="10.00">PANCAKE</text>
<polygon fill="#b2df8a" stroke="transparent" points="398,-88 398,-103 415,-103 415,-88 398,-88"/>
<text text-anchor="start" x="400" y="-93" font-family="Ubuntu" font-size="10.00">6</text>
<polygon fill="#b2df8a" stroke="transparent" points="299,-73 299,-88 398,-88 398,-73 299,-73"/>
<text text-anchor="start" x="301" y="-78" font-family="Ubuntu" font-size="10.00">FIRST_YEAR</text>
<polygon fill="#b2df8a" stroke="transparent" points="398,-73 398,-88 415,-88 415,-73 398,-73"/>
<text text-anchor="start" x="400" y="-78" font-family="Ubuntu" font-size="10.00">7</text>
<polygon fill="#b2df8a" stroke="transparent" points="299,-58 299,-73 398,-73 398,-58 299,-58"/>
<text text-anchor="start" x="301" y="-63" font-family="Ubuntu" font-size="10.00">MULTI_YEAR</text>
<polygon fill="#b2df8a" stroke="transparent" points="398,-58 398,-73 415,-73 415,-58 398,-58"/>
<text text-anchor="start" x="400" y="-63" font-family="Ubuntu" font-size="10.00">8</text>
<polygon fill="#b2df8a" stroke="transparent" points="299,-43 299,-58 398,-58 398,-43 299,-43"/>
<text text-anchor="start" x="301" y="-48" font-family="Ubuntu" font-size="10.00">GLACIER</text>
<polygon fill="#b2df8a" stroke="transparent" points="398,-43 398,-58 415,-58 415,-43 398,-43"/>
<text text-anchor="start" x="400" y="-48" font-family="Ubuntu" font-size="10.00">9</text>
<polygon fill="#b2df8a" stroke="transparent" points="299,-28 299,-43 398,-43 398,-28 299,-28"/>
<text text-anchor="start" x="301" y="-33" font-family="Ubuntu" font-size="10.00">ICEBERG</text>
<polygon fill="#b2df8a" stroke="transparent" points="398,-28 398,-43 415,-43 415,-28 398,-28"/>
<text text-anchor="start" x="400" y="-33" font-family="Ubuntu" font-size="10.00">10</text>
<polygon fill="none" stroke="black" points="298,-27 298,-209 416,-209 416,-27 298,-27"/>
</a>
</g>
</g>
<!-- Node_Ja_106&#45;&gt;Node_Ja_107 -->
<g id="edge1" class="edge">
<title>Node_Ja_106:e&#45;&gt;Node_Ja_107</title>
<g id="a_edge1"><a xlink:title="Ja_106 &#45;&#45;&gt; Ja_107">
<path fill="none" stroke="#008000" d="M246,-188C257.94,-188 269.62,-185.03 280.66,-180.31"/>
<polygon fill="#008000" stroke="#008000" points="282.25,-183.43 289.76,-175.97 279.23,-177.12 282.25,-183.43"/>
</a>
</g>
</g>
<!-- Node_Ja_100 -->
<g id="node3" class="node">
<title>Node_Ja_100</title>
<g id="a_node3"><a xlink:title="google.protobuf.Timestamp">
<polygon fill="#fffaf0" stroke="transparent" points="312,-235.5 312,-282.5 402,-282.5 402,-235.5 312,-235.5"/>
<polygon fill="#e31a1c" stroke="transparent" points="313,-266 313,-281 401,-281 401,-266 313,-266"/>
<text text-anchor="start" x="335" y="-272" font-family="Ubuntu" font-weight="bold" font-size="10.00">Timestamp</text>
<text text-anchor="start" x="319" y="-256" font-family="Ubuntu" font-size="10.00">1</text>
<text text-anchor="start" x="330" y="-256" font-family="Ubuntu" font-size="10.00">seconds</text>
<polygon fill="#a6cee3" stroke="transparent" points="372,-251 372,-266 401,-266 401,-251 372,-251"/>
<text text-anchor="start" x="374" y="-257" font-family="Ubuntu" font-style="italic" font-size="10.00">int64</text>
<text text-anchor="start" x="319" y="-241" font-family="Ubuntu" font-size="10.00">2</text>
<text text-anchor="start" x="330" y="-241" font-family="Ubuntu" font-size="10.00">nanos</text>
<polygon fill="#a6cee3" stroke="transparent" points="372,-236 372,-251 401,-251 401,-236 372,-236"/>
<text text-anchor="start" x="374" y="-242" font-family="Ubuntu" font-style="italic" font-size="10.00">int32</text>
<polygon fill="none" stroke="black" points="312,-235.5 312,-282.5 402,-282.5 402,-235.5 312,-235.5"/>
</a>
</g>
</g>
<!-- Node_Ja_106&#45;&gt;Node_Ja_100 -->
<g id="edge2" class="edge">
<title>Node_Ja_106:e&#45;&gt;Node_Ja_100:header</title>
<g id="a_edge2"><a xlink:title="Ja_106 &#45;&#45;&gt; Ja_100">
<path fill="none" stroke="#000000" d="M246,-203C285.21,-203 272.03,-261.82 301.83,-272.38"/>
<polygon fill="#000000" stroke="#000000" points="301.57,-275.89 312,-274 302.67,-268.97 301.57,-275.89"/>
</a>
</g>
</g>
</g>
</svg>
