<?xml version="1.0" encoding="UTF-8" standalone="no"?>
<!DOCTYPE svg PUBLIC "-//W3C//DTD SVG 1.1//EN"
 "http://www.w3.org/Graphics/SVG/1.1/DTD/svg11.dtd">
<!-- Generated by graphviz version 2.43.0 (0)
 -->
<!-- Title: protodot Pages: 1 -->
<svg width="404pt" height="175pt"
 viewBox="0.00 0.00 404.00 174.50" xmlns="http://www.w3.org/2000/svg" xmlns:xlink="http://www.w3.org/1999/xlink">
<g id="graph0" class="graph" transform="scale(1 1) rotate(0) translate(4 170.5)">
<title>protodot</title>
<g id="a_graph0"><a xlink:title="keelson">
<text text-anchor="middle" x="198" y="-7.8" font-family="Times,serif" font-size="14.00">keelson</text>
</a>
</g>
<!-- Node_Ja_102 -->
<g id="node1" class="node">
<title>Node_Ja_102</title>
<g id="a_node1"><a xlink:title="keelson.Decomposed3DVector">
<polygon fill="#fffaf0" stroke="transparent" points="8,-94 8,-156 246,-156 246,-94 8,-94"/>
<polygon fill="#e31a1c" stroke="transparent" points="9,-140 9,-155 245,-155 245,-140 9,-140"/>
<text text-anchor="start" x="118" y="-146" font-family="Ubuntu" font-weight="bold" font-size="10.00">Decomposed3DVector</text>
<text text-anchor="start" x="15" y="-130" font-family="Ubuntu" font-size="10.00">1</text>
<text text-anchor="start" x="26" y="-130" font-family="Ubuntu" font-size="10.00">timestamp</text>
<polygon fill="#fb9a99" stroke="transparent" points="82,-125 82,-140 245,-140 245,-125 82,-125"/>
<text text-anchor="start" x="84" y="-131" font-family="Ubuntu" font-weight="bold" font-size="10.00">google.protobuf.Timestamp</text>
<text text-anchor="start" x="15" y="-115" font-family="Ubuntu" font-size="10.00">2</text>
<text text-anchor="start" x="26" y="-115" font-family="Ubuntu" font-size="10.00">frame_id</text>
<polygon fill="#a6cee3" stroke="transparent" points="82,-110 82,-125 245,-125 245,-110 82,-110"/>
<text text-anchor="start" x="215" y="-116" font-family="Ubuntu" font-style="italic" font-size="10.00">string</text>
<text text-anchor="start" x="15" y="-100" font-family="Ubuntu" font-size="10.00">3</text>
<text text-anchor="start" x="26" y="-100" font-family="Ubuntu" font-size="10.00">vector</text>
<polygon fill="#fb9a99" stroke="transparent" points="82,-95 82,-110 245,-110 245,-95 82,-95"/>
<text text-anchor="start" x="146" y="-101" font-family="Ubuntu" font-weight="bold" font-size="10.00">foxglove.Vector3</text>
<polygon fill="none" stroke="black" points="8,-94 8,-156 246,-156 246,-94 8,-94"/>
</a>
</g>
</g>
<!-- Node_Ja_101 -->
<g id="node2" class="node">
<title>Node_Ja_101</title>
<g id="a_node2"><a xlink:title="foxglove.Vector3">
<polygon fill="#fffaf0" stroke="transparent" points="310,-27 310,-89 376,-89 376,-27 310,-27"/>
<polygon fill="#e31a1c" stroke="transparent" points="311,-73 311,-88 375,-88 375,-73 311,-73"/>
<text text-anchor="start" x="329" y="-79" font-family="Ubuntu" font-weight="bold" font-size="10.00">Vector3</text>
<text text-anchor="start" x="317" y="-63" font-family="Ubuntu" font-size="10.00">1</text>
<text text-anchor="start" x="328" y="-63" font-family="Ubuntu" font-size="10.00">x</text>
<polygon fill="#a6cee3" stroke="transparent" points="337,-58 337,-73 375,-73 375,-58 337,-58"/>
<text text-anchor="start" x="339" y="-64" font-family="Ubuntu" font-style="italic" font-size="10.00">double</text>
<text text-anchor="start" x="317" y="-48" font-family="Ubuntu" font-size="10.00">2</text>
<text text-anchor="start" x="328" y="-48" font-family="Ubuntu" font-size="10.00">y</text>
<polygon fill="#a6cee3" stroke="transparent" points="337,-43 337,-58 375,-58 375,-43 337,-43"/>
<text text-anchor="start" x="339" y="-49" font-family="Ubuntu" font-style="italic" font-size="10.00">double</text>
<text text-anchor="start" x="317" y="-33" font-family="Ubuntu" font-size="10.00">3</text>
<text text-anchor="start" x="328" y="-33" font-family="Ubuntu" font-size="10.00">z</text>
<polygon fill="#a6cee3" stroke="transparent" points="337,-28 337,-43 375,-43 375,-28 337,-28"/>
<text text-anchor="start" x="339" y="-34" font-family="Ubuntu" font-style="italic" font-size="10.00">double</text>
<polygon fill="none" stroke="black" points="310,-27 310,-89 376,-89 376,-27 310,-27"/>
</a>
</g>
</g>
<!-- Node_Ja_102&#45;&gt;Node_Ja_101 -->
<g id="edge1" class="edge">
<title>Node_Ja_102:e&#45;&gt;Node_Ja_101:header</title>
<g id="a_edge1"><a xlink:title="Ja_102 &#45;&#45;&gt; Ja_101">
<path fill="none" stroke="#000000" d="M246,-102C272.19,-102 278.63,-85.92 299.88,-81.9"/>
<polygon fill="#000000" stroke="#000000" points="300.35,-85.37 310,-81 299.73,-78.4 300.35,-85.37"/>
</a>
</g>
</g>
<!-- Node_Ja_100 -->
<g id="node3" class="node">
<title>Node_Ja_100</title>
<g id="a_node3"><a xlink:title="google.protobuf.Timestamp">
<polygon fill="#fffaf0" stroke="transparent" points="298,-115.5 298,-162.5 388,-162.5 388,-115.5 298,-115.5"/>
<polygon fill="#e31a1c" stroke="transparent" points="299,-146 299,-161 387,-161 387,-146 299,-146"/>
<text text-anchor="start" x="321" y="-152" font-family="Ubuntu" font-weight="bold" font-size="10.00">Timestamp</text>
<text text-anchor="start" x="305" y="-136" font-family="Ubuntu" font-size="10.00">1</text>
<text text-anchor="start" x="316" y="-136" font-family="Ubuntu" font-size="10.00">seconds</text>
<polygon fill="#a6cee3" stroke="transparent" points="358,-131 358,-146 387,-146 387,-131 358,-131"/>
<text text-anchor="start" x="360" y="-137" font-family="Ubuntu" font-style="italic" font-size="10.00">int64</text>
<text text-anchor="start" x="305" y="-121" font-family="Ubuntu" font-size="10.00">2</text>
<text text-anchor="start" x="316" y="-121" font-family="Ubuntu" font-size="10.00">nanos</text>
<polygon fill="#a6cee3" stroke="transparent" points="358,-116 358,-131 387,-131 387,-116 358,-116"/>
<text text-anchor="start" x="360" y="-122" font-family="Ubuntu" font-style="italic" font-size="10.00">int32</text>
<polygon fill="none" stroke="black" points="298,-115.5 298,-162.5 388,-162.5 388,-115.5 298,-115.5"/>
</a>
</g>
</g>
<!-- Node_Ja_102&#45;&gt;Node_Ja_100 -->
<g id="edge2" class="edge">
<title>Node_Ja_102:e&#45;&gt;Node_Ja_100:header</title>
<g id="a_edge2"><a xlink:title="Ja_102 &#45;&#45;&gt; Ja_100">
<path fill="none" stroke="#000000" d="M246,-133C267.03,-133 271.85,-147.95 287.81,-152.62"/>
<polygon fill="#000000" stroke="#000000" points="287.62,-156.13 298,-154 288.56,-149.19 287.62,-156.13"/>
</a>
</g>
</g>
</g>
</svg>
