<?xml version="1.0" encoding="UTF-8" standalone="no"?>
<!DOCTYPE svg PUBLIC "-//W3C//DTD SVG 1.1//EN"
 "http://www.w3.org/Graphics/SVG/1.1/DTD/svg11.dtd">
<!-- Generated by graphviz version 2.43.0 (0)
 -->
<!-- Title: protodot Pages: 1 -->
<svg width="879pt" height="601pt"
 viewBox="0.00 0.00 879.00 601.00" xmlns="http://www.w3.org/2000/svg" xmlns:xlink="http://www.w3.org/1999/xlink">
<g id="graph0" class="graph" transform="scale(1 1) rotate(0) translate(4 597)">
<title>protodot</title>
<g id="a_graph0"><a xlink:title="keelson">
<text text-anchor="middle" x="435.5" y="-7.8" font-family="Times,serif" font-size="14.00">keelson</text>
</a>
</g>
<!-- Node_Ja_108 -->
<g id="node1" class="node">
<title>Node_Ja_108</title>
<g id="a_node1"><a xlink:title="keelson.WeatherAlert">
<polygon fill="#fffaf0" stroke="transparent" points="336,-27 336,-179 610,-179 610,-27 336,-27"/>
<polygon fill="#e31a1c" stroke="transparent" points="337,-163 337,-178 609,-178 609,-163 337,-163"/>
<text text-anchor="start" x="531" y="-169" font-family="Ubuntu" font-weight="bold" font-size="10.00">WeatherAlert</text>
<text text-anchor="start" x="360" y="-153" font-family="Ubuntu" font-size="10.00">1</text>
<text text-anchor="start" x="371" y="-153" font-family="Ubuntu" font-size="10.00">id</text>
<polygon fill="#a6cee3" stroke="transparent" points="446,-148 446,-163 609,-163 609,-148 446,-148"/>
<text text-anchor="start" x="579" y="-154" font-family="Ubuntu" font-style="italic" font-size="10.00">string</text>
<text text-anchor="start" x="360" y="-138" font-family="Ubuntu" font-size="10.00">2</text>
<text text-anchor="start" x="371" y="-138" font-family="Ubuntu" font-size="10.00">severity</text>
<polygon fill="#b2df8a" stroke="transparent" points="446,-133 446,-148 609,-148 609,-133 446,-133"/>
<text text-anchor="start" x="540" y="-139" font-family="Ubuntu" text-decoration="underline" font-size="10.00">SeverityLevel</text>
<text text-anchor="start" x="360" y="-123" font-family="Ubuntu" font-size="10.00">3</text>
<text text-anchor="start" x="371" y="-123" font-family="Ubuntu" font-size="10.00">category</text>
<polygon fill="#a6cee3" stroke="transparent" points="446,-118 446,-133 609,-133 609,-118 446,-118"/>
<text text-anchor="start" x="579" y="-124" font-family="Ubuntu" font-style="italic" font-size="10.00">string</text>
<text text-anchor="start" x="360" y="-108" font-family="Ubuntu" font-size="10.00">4</text>
<text text-anchor="start" x="371" y="-108" font-family="Ubuntu" font-size="10.00">headline</text>
<polygon fill="#a6cee3" stroke="transparent" points="446,-103 446,-118 609,-118 609,-103 446,-103"/>
<text text-anchor="start" x="579" y="-109" font-family="Ubuntu" font-style="italic" font-size="10.00">string</text>
<text text-anchor="start" x="360" y="-93" font-family="Ubuntu" font-size="10.00">5</text>
<text text-anchor="start" x="371" y="-93" font-family="Ubuntu" font-size="10.00">description</text>
<polygon fill="#a6cee3" stroke="transparent" points="446,-88 446,-103 609,-103 609,-88 446,-88"/>
<text text-anchor="start" x="579" y="-94" font-family="Ubuntu" font-style="italic" font-size="10.00">string</text>
<text text-anchor="start" x="360" y="-78" font-family="Ubuntu" font-size="10.00">6</text>
<text text-anchor="start" x="371" y="-78" font-family="Ubuntu" font-size="10.00">effective_at</text>
<polygon fill="#fb9a99" stroke="transparent" points="446,-73 446,-88 609,-88 609,-73 446,-73"/>
<text text-anchor="start" x="448" y="-79" font-family="Ubuntu" font-weight="bold" font-size="10.00">google.protobuf.Timestamp</text>
<text text-anchor="start" x="360" y="-63" font-family="Ubuntu" font-size="10.00">7</text>
<text text-anchor="start" x="371" y="-63" font-family="Ubuntu" font-size="10.00">expires_at</text>
<polygon fill="#fb9a99" stroke="transparent" points="446,-58 446,-73 609,-73 609,-58 446,-58"/>
<text text-anchor="start" x="448" y="-64" font-family="Ubuntu" font-weight="bold" font-size="10.00">google.protobuf.Timestamp</text>
<text text-anchor="start" x="360" y="-48" font-family="Ubuntu" font-size="10.00">8</text>
<text text-anchor="start" x="371" y="-48" font-family="Ubuntu" font-size="10.00">issuer</text>
<polygon fill="#a6cee3" stroke="transparent" points="446,-43 446,-58 609,-58 609,-43 446,-43"/>
<text text-anchor="start" x="579" y="-49" font-family="Ubuntu" font-style="italic" font-size="10.00">string</text>
<text text-anchor="start" x="339" y="-33" font-family="Ubuntu" font-size="10.00">[...]</text>
<text text-anchor="start" x="360" y="-33" font-family="Ubuntu" font-size="10.00">9</text>
<text text-anchor="start" x="371" y="-33" font-family="Ubuntu" font-size="10.00">affected_areas</text>
<polygon fill="#a6cee3" stroke="transparent" points="446,-28 446,-43 609,-43 609,-28 446,-28"/>
<text text-anchor="start" x="579" y="-34" font-family="Ubuntu" font-style="italic" font-size="10.00">string</text>
<polygon fill="none" stroke="black" points="336,-27 336,-179 610,-179 610,-27 336,-27"/>
</a>
</g>
</g>
<!-- Node_Ja_100 -->
<g id="node3" class="node">
<title>Node_Ja_100</title>
<g id="a_node3"><a xlink:title="google.protobuf.Timestamp">
<polygon fill="#fffaf0" stroke="transparent" points="731.5,-340.5 731.5,-387.5 821.5,-387.5 821.5,-340.5 731.5,-340.5"/>
<polygon fill="#e31a1c" stroke="transparent" points="732.5,-371 732.5,-386 820.5,-386 820.5,-371 732.5,-371"/>
<text text-anchor="start" x="754.5" y="-377" font-family="Ubuntu" font-weight="bold" font-size="10.00">Timestamp</text>
<text text-anchor="start" x="738.5" y="-361" font-family="Ubuntu" font-size="10.00">1</text>
<text text-anchor="start" x="749.5" y="-361" font-family="Ubuntu" font-size="10.00">seconds</text>
<polygon fill="#a6cee3" stroke="transparent" points="791.5,-356 791.5,-371 820.5,-371 820.5,-356 791.5,-356"/>
<text text-anchor="start" x="793.5" y="-362" font-family="Ubuntu" font-style="italic" font-size="10.00">int64</text>
<text text-anchor="start" x="738.5" y="-346" font-family="Ubuntu" font-size="10.00">2</text>
<text text-anchor="start" x="749.5" y="-346" font-family="Ubuntu" font-size="10.00">nanos</text>
<polygon fill="#a6cee3" stroke="transparent" points="791.5,-341 791.5,-356 820.5,-356 820.5,-341 791.5,-341"/>
<text text-anchor="start" x="793.5" y="-347" font-family="Ubuntu" font-style="italic" font-size="10.00">int32</text>
<polygon fill="none" stroke="black" points="731.5,-340.5 731.5,-387.5 821.5,-387.5 821.5,-340.5 731.5,-340.5"/>
</a>
</g>
</g>
<!-- Node_Ja_108&#45;&gt;Node_Ja_100 -->
<g id="edge7" class="edge">
<title>Node_Ja_108:e&#45;&gt;Node_Ja_100:header</title>
<g id="a_edge7"><a xlink:title="Ja_108 &#45;&#45;&gt; Ja_100">
<path fill="none" stroke="#000000" d="M610,-80C749.8,-80 596.26,-364.01 721.16,-378.43"/>
<polygon fill="#000000" stroke="#000000" points="721.32,-381.95 731.5,-379 721.71,-374.96 721.32,-381.95"/>
</a>
</g>
</g>
<!-- Node_Ja_108&#45;&gt;Node_Ja_100 -->
<g id="edge8" class="edge">
<title>Node_Ja_108:e&#45;&gt;Node_Ja_100:header</title>
<g id="a_edge8"><a xlink:title="Ja_108 &#45;&#45;&gt; Ja_100">
<path fill="none" stroke="#000000" d="M610,-65C756.13,-65 590.01,-364.45 721.51,-378.49"/>
<polygon fill="#000000" stroke="#000000" points="721.33,-381.99 731.5,-379 721.69,-375 721.33,-381.99"/>
</a>
</g>
</g>
<!-- Node_Ja_103 -->
<g id="node5" class="node">
<title>Node_Ja_103</title>
<g id="a_node5"><a xlink:title="SeverityLevel">
<polygon fill="#b2df8a" stroke="transparent" points="692,-102.5 692,-179.5 861,-179.5 861,-102.5 692,-102.5"/>
<polygon fill="#33a02c" stroke="transparent" points="693.5,-163 693.5,-178 860.5,-178 860.5,-163 693.5,-163"/>
<text text-anchor="start" x="748.5" y="-169" font-family="Ubuntu" font-size="10.00">enum </text>
<text text-anchor="start" x="779.5" y="-169" font-family="Ubuntu" font-weight="bold" font-size="10.00">SeverityLevel</text>
<polygon fill="#b2df8a" stroke="transparent" points="693.5,-148 693.5,-163 849.5,-163 849.5,-148 693.5,-148"/>
<text text-anchor="start" x="695.5" y="-153" font-family="Ubuntu" font-size="10.00">SEVERITY_LEVEL_UNSPECIFIED</text>
<polygon fill="#b2df8a" stroke="transparent" points="849.5,-148 849.5,-163 860.5,-163 860.5,-148 849.5,-148"/>
<text text-anchor="start" x="851.5" y="-153" font-family="Ubuntu" font-size="10.00">0</text>
<polygon fill="#b2df8a" stroke="transparent" points="693.5,-133 693.5,-148 849.5,-148 849.5,-133 693.5,-133"/>
<text text-anchor="start" x="695.5" y="-138" font-family="Ubuntu" font-size="10.00">INFO</text>
<polygon fill="#b2df8a" stroke="transparent" points="849.5,-133 849.5,-148 860.5,-148 860.5,-133 849.5,-133"/>
<text text-anchor="start" x="851.5" y="-138" font-family="Ubuntu" font-size="10.00">1</text>
<polygon fill="#b2df8a" stroke="transparent" points="693.5,-118 693.5,-133 849.5,-133 849.5,-118 693.5,-118"/>
<text text-anchor="start" x="695.5" y="-123" font-family="Ubuntu" font-size="10.00">WARNING</text>
<polygon fill="#b2df8a" stroke="transparent" points="849.5,-118 849.5,-133 860.5,-133 860.5,-118 849.5,-118"/>
<text text-anchor="start" x="851.5" y="-123" font-family="Ubuntu" font-size="10.00">2</text>
<polygon fill="#b2df8a" stroke="transparent" points="693.5,-103 693.5,-118 849.5,-118 849.5,-103 693.5,-103"/>
<text text-anchor="start" x="695.5" y="-108" font-family="Ubuntu" font-size="10.00">CRITICAL</text>
<polygon fill="#b2df8a" stroke="transparent" points="849.5,-103 849.5,-118 860.5,-118 860.5,-103 849.5,-103"/>
<text text-anchor="start" x="851.5" y="-108" font-family="Ubuntu" font-size="10.00">3</text>
<polygon fill="none" stroke="black" points="692,-102.5 692,-179.5 861,-179.5 861,-102.5 692,-102.5"/>
</a>
</g>
</g>
<!-- Node_Ja_108&#45;&gt;Node_Ja_103 -->
<g id="edge6" class="edge">
<title>Node_Ja_108:e&#45;&gt;Node_Ja_103</title>
<g id="a_edge6"><a xlink:title="Ja_108 &#45;&#45;&gt; Ja_103">
<path fill="none" stroke="#008000" d="M610,-141C630.49,-141 652.42,-141 673.38,-141"/>
<polygon fill="#008000" stroke="#008000" points="673.58,-144.5 683.58,-141 673.58,-137.5 673.58,-144.5"/>
</a>
</g>
</g>
<!-- Node_Ja_101 -->
<g id="node2" class="node">
<title>Node_Ja_101</title>
<g id="a_node2"><a xlink:title="foxglove.LocationFix">
<polygon fill="#fffaf0" stroke="transparent" points="310,-467 310,-589 636,-589 636,-467 310,-467"/>
<polygon fill="#e31a1c" stroke="transparent" points="311,-573 311,-588 635,-588 635,-573 311,-573"/>
<text text-anchor="start" x="568" y="-579" font-family="Ubuntu" font-weight="bold" font-size="10.00">LocationFix</text>
<text text-anchor="start" x="334" y="-563" font-family="Ubuntu" font-size="10.00">6</text>
<text text-anchor="start" x="345" y="-563" font-family="Ubuntu" font-size="10.00">timestamp</text>
<polygon fill="#fb9a99" stroke="transparent" points="472,-558 472,-573 635,-573 635,-558 472,-558"/>
<text text-anchor="start" x="474" y="-564" font-family="Ubuntu" font-weight="bold" font-size="10.00">google.protobuf.Timestamp</text>
<text text-anchor="start" x="334" y="-548" font-family="Ubuntu" font-size="10.00">7</text>
<text text-anchor="start" x="345" y="-548" font-family="Ubuntu" font-size="10.00">frame_id</text>
<polygon fill="#a6cee3" stroke="transparent" points="472,-543 472,-558 635,-558 635,-543 472,-543"/>
<text text-anchor="start" x="605" y="-549" font-family="Ubuntu" font-style="italic" font-size="10.00">string</text>
<text text-anchor="start" x="334" y="-533" font-family="Ubuntu" font-size="10.00">1</text>
<text text-anchor="start" x="345" y="-533" font-family="Ubuntu" font-size="10.00">latitude</text>
<polygon fill="#a6cee3" stroke="transparent" points="472,-528 472,-543 635,-543 635,-528 472,-528"/>
<text text-anchor="start" x="599" y="-534" font-family="Ubuntu" font-style="italic" font-size="10.00">double</text>
<text text-anchor="start" x="334" y="-518" font-family="Ubuntu" font-size="10.00">2</text>
<text text-anchor="start" x="345" y="-518" font-family="Ubuntu" font-size="10.00">longitude</text>
<polygon fill="#a6cee3" stroke="transparent" points="472,-513 472,-528 635,-528 635,-513 472,-513"/>
<text text-anchor="start" x="599" y="-519" font-family="Ubuntu" font-style="italic" font-size="10.00">double</text>
<text text-anchor="start" x="334" y="-503" font-family="Ubuntu" font-size="10.00">3</text>
<text text-anchor="start" x="345" y="-503" font-family="Ubuntu" font-size="10.00">altitude</text>
<polygon fill="#a6cee3" stroke="transparent" points="472,-498 472,-513 635,-513 635,-498 472,-498"/>
<text text-anchor="start" x="599" y="-504" font-family="Ubuntu" font-style="italic" font-size="10.00">double</text>
<text text-anchor="start" x="313" y="-488" font-family="Ubuntu" font-size="10.00">[...]</text>
<text text-anchor="start" x="334" y="-488" font-family="Ubuntu" font-size="10.00">4</text>
<text text-anchor="start" x="345" y="-488" font-family="Ubuntu" font-size="10.00">position_covariance</text>
<polygon fill="#a6cee3" stroke="transparent" points="472,-483 472,-498 635,-498 635,-483 472,-483"/>
<text text-anchor="start" x="599" y="-489" font-family="Ubuntu" font-style="italic" font-size="10.00">double</text>
<text text-anchor="start" x="334" y="-473" font-family="Ubuntu" font-size="10.00">5</text>
<text text-anchor="start" x="345" y="-473" font-family="Ubuntu" font-size="10.00">position_covariance_type</text>
<polygon fill="#b2df8a" stroke="transparent" points="472,-468 472,-483 635,-483 635,-468 472,-468"/>
<text text-anchor="start" x="516" y="-474" font-family="Ubuntu" text-decoration="underline" font-size="10.00">PositionCovarianceType</text>
<polygon fill="none" stroke="black" points="310,-467 310,-589 636,-589 636,-467 310,-467"/>
</a>
</g>
</g>
<!-- Node_Ja_101&#45;&gt;Node_Ja_100 -->
<g id="edge9" class="edge">
<title>Node_Ja_101:e&#45;&gt;Node_Ja_100:header</title>
<g id="a_edge9"><a xlink:title="Ja_101 &#45;&#45;&gt; Ja_100">
<path fill="none" stroke="#000000" d="M636,-566C702.34,-566 646.03,-479.74 682,-424 696.11,-402.14 700.66,-384.08 721.5,-379.91"/>
<polygon fill="#000000" stroke="#000000" points="721.86,-383.39 731.5,-379 721.22,-376.42 721.86,-383.39"/>
</a>
</g>
</g>
<!-- Node_Ja_102 -->
<g id="node6" class="node">
<title>Node_Ja_102</title>
<g id="a_node6"><a xlink:title="PositionCovarianceType">
<polygon fill="#b2df8a" stroke="transparent" points="690,-436.5 690,-513.5 863,-513.5 863,-436.5 690,-436.5"/>
<polygon fill="#33a02c" stroke="transparent" points="691.5,-497 691.5,-512 862.5,-512 862.5,-497 691.5,-497"/>
<text text-anchor="start" x="693.5" y="-503" font-family="Ubuntu" font-size="10.00">enum </text>
<text text-anchor="start" x="724.5" y="-503" font-family="Ubuntu" font-weight="bold" font-size="10.00">PositionCovarianceType</text>
<polygon fill="#b2df8a" stroke="transparent" points="691.5,-482 691.5,-497 821.5,-497 821.5,-482 691.5,-482"/>
<text text-anchor="start" x="693.5" y="-487" font-family="Ubuntu" font-size="10.00">UNKNOWN</text>
<polygon fill="#b2df8a" stroke="transparent" points="821.5,-482 821.5,-497 862.5,-497 862.5,-482 821.5,-482"/>
<text text-anchor="start" x="823.5" y="-487" font-family="Ubuntu" font-size="10.00">0</text>
<polygon fill="#b2df8a" stroke="transparent" points="691.5,-467 691.5,-482 821.5,-482 821.5,-467 691.5,-467"/>
<text text-anchor="start" x="693.5" y="-472" font-family="Ubuntu" font-size="10.00">APPROXIMATED</text>
<polygon fill="#b2df8a" stroke="transparent" points="821.5,-467 821.5,-482 862.5,-482 862.5,-467 821.5,-467"/>
<text text-anchor="start" x="823.5" y="-472" font-family="Ubuntu" font-size="10.00">1</text>
<polygon fill="#b2df8a" stroke="transparent" points="691.5,-452 691.5,-467 821.5,-467 821.5,-452 691.5,-452"/>
<text text-anchor="start" x="693.5" y="-457" font-family="Ubuntu" font-size="10.00">DIAGONAL_KNOWN</text>
<polygon fill="#b2df8a" stroke="transparent" points="821.5,-452 821.5,-467 862.5,-467 862.5,-452 821.5,-452"/>
<text text-anchor="start" x="823.5" y="-457" font-family="Ubuntu" font-size="10.00">2</text>
<polygon fill="#b2df8a" stroke="transparent" points="691.5,-437 691.5,-452 821.5,-452 821.5,-437 691.5,-437"/>
<text text-anchor="start" x="693.5" y="-442" font-family="Ubuntu" font-size="10.00">KNOWN</text>
<polygon fill="#b2df8a" stroke="transparent" points="821.5,-437 821.5,-452 862.5,-452 862.5,-437 821.5,-437"/>
<text text-anchor="start" x="823.5" y="-442" font-family="Ubuntu" font-size="10.00">3</text>
<polygon fill="none" stroke="black" points="690,-436.5 690,-513.5 863,-513.5 863,-436.5 690,-436.5"/>
</a>
</g>
</g>
<!-- Node_Ja_101&#45;&gt;Node_Ja_102 -->
<g id="edge3" class="edge">
<title>Node_Ja_101:e&#45;&gt;Node_Ja_102</title>
<g id="a_edge3"><a xlink:title="Ja_101 &#45;&#45;&gt; Ja_102">
<path fill="none" stroke="#008000" d="M636,-475C647.54,-475 659.62,-475 671.64,-475"/>
<polygon fill="#008000" stroke="#008000" points="671.7,-478.5 681.7,-475 671.7,-471.5 671.7,-478.5"/>
</a>
</g>
</g>
<!-- Node_Ja_110 -->
<g id="node4" class="node">
<title>Node_Ja_110</title>
<g id="a_node4"><a xlink:title="keelson.WeatherForecast.Step">
<polygon fill="#fffaf0" stroke="transparent" points="308,-205.5 308,-402.5 638,-402.5 638,-205.5 308,-205.5"/>
<polygon fill="#e31a1c" stroke="transparent" points="309,-386 309,-401 637,-401 637,-386 309,-386"/>
<text text-anchor="start" x="608" y="-392" font-family="Ubuntu" font-weight="bold" font-size="10.00">Step</text>
<text text-anchor="start" x="321" y="-376" font-family="Ubuntu" font-size="10.00">1</text>
<text text-anchor="start" x="332" y="-376" font-family="Ubuntu" font-size="10.00">valid_at</text>
<polygon fill="#fb9a99" stroke="transparent" points="474,-371 474,-386 637,-386 637,-371 474,-371"/>
<text text-anchor="start" x="476" y="-377" font-family="Ubuntu" font-weight="bold" font-size="10.00">google.protobuf.Timestamp</text>
<text text-anchor="start" x="321" y="-361" font-family="Ubuntu" font-size="10.00">2</text>
<text text-anchor="start" x="332" y="-361" font-family="Ubuntu" font-size="10.00">true_wind_speed_mps</text>
<polygon fill="#a6cee3" stroke="transparent" points="474,-356 474,-371 637,-371 637,-356 474,-356"/>
<text text-anchor="start" x="612" y="-362" font-family="Ubuntu" font-style="italic" font-size="10.00">float</text>
<text text-anchor="start" x="321" y="-346" font-family="Ubuntu" font-size="10.00">3</text>
<text text-anchor="start" x="332" y="-346" font-family="Ubuntu" font-size="10.00">true_wind_direction_deg</text>
<polygon fill="#a6cee3" stroke="transparent" points="474,-341 474,-356 637,-356 637,-341 474,-341"/>
<text text-anchor="start" x="612" y="-347" font-family="Ubuntu" font-style="italic" font-size="10.00">float</text>
<text text-anchor="start" x="321" y="-331" font-family="Ubuntu" font-size="10.00">4</text>
<text text-anchor="start" x="332" y="-331" font-family="Ubuntu" font-size="10.00">true_wind_gust_mps</text>
<polygon fill="#a6cee3" stroke="transparent" points="474,-326 474,-341 637,-341 637,-326 474,-326"/>
<text text-anchor="start" x="612" y="-332" font-family="Ubuntu" font-style="italic" font-size="10.00">float</text>
<text text-anchor="start" x="321" y="-316" font-family="Ubuntu" font-size="10.00">5</text>
<text text-anchor="start" x="332" y="-316" font-family="Ubuntu" font-size="10.00">wave_height_significant_m</text>
<polygon fill="#a6cee3" stroke="transparent" points="474,-311 474,-326 637,-326 637,-311 474,-311"/>
<text text-anchor="start" x="612" y="-317" font-family="Ubuntu" font-style="italic" font-size="10.00">float</text>
<text text-anchor="start" x="321" y="-301" font-family="Ubuntu" font-size="10.00">6</text>
<text text-anchor="start" x="332" y="-301" font-family="Ubuntu" font-size="10.00">wave_period_s</text>
<polygon fill="#a6cee3" stroke="transparent" points="474,-296 474,-311 637,-311 637,-296 474,-296"/>
<text text-anchor="start" x="612" y="-302" font-family="Ubuntu" font-style="italic" font-size="10.00">float</text>
<text text-anchor="start" x="321" y="-286" font-family="Ubuntu" font-size="10.00">7</text>
<text text-anchor="start" x="332" y="-286" font-family="Ubuntu" font-size="10.00">wave_true_direction_deg</text>
<polygon fill="#a6cee3" stroke="transparent" points="474,-281 474,-296 637,-296 637,-281 474,-281"/>
<text text-anchor="start" x="612" y="-287" font-family="Ubuntu" font-style="italic" font-size="10.00">float</text>
<text text-anchor="start" x="321" y="-271" font-family="Ubuntu" font-size="10.00">8</text>
<text text-anchor="start" x="332" y="-271" font-family="Ubuntu" font-size="10.00">precipitation_rate_mmph</text>
<polygon fill="#a6cee3" stroke="transparent" points="474,-266 474,-281 637,-281 637,-266 474,-266"/>
<text text-anchor="start" x="612" y="-272" font-family="Ubuntu" font-style="italic" font-size="10.00">float</text>
<text text-anchor="start" x="321" y="-256" font-family="Ubuntu" font-size="10.00">9</text>
<text text-anchor="start" x="332" y="-256" font-family="Ubuntu" font-size="10.00">precipitation_probability_pct</text>
<polygon fill="#a6cee3" stroke="transparent" points="474,-251 474,-266 637,-266 637,-251 474,-251"/>
<text text-anchor="start" x="612" y="-257" font-family="Ubuntu" font-style="italic" font-size="10.00">float</text>
<text text-anchor="start" x="315" y="-241" font-family="Ubuntu" font-size="10.00">10</text>
<text text-anchor="start" x="332" y="-241" font-family="Ubuntu" font-size="10.00">visibility_range_m</text>
<polygon fill="#a6cee3" stroke="transparent" points="474,-236 474,-251 637,-251 637,-236 474,-236"/>
<text text-anchor="start" x="612" y="-242" font-family="Ubuntu" font-style="italic" font-size="10.00">float</text>
<text text-anchor="start" x="315" y="-226" font-family="Ubuntu" font-size="10.00">11</text>
<text text-anchor="start" x="332" y="-226" font-family="Ubuntu" font-size="10.00">air_temperature_celsius</text>
<polygon fill="#a6cee3" stroke="transparent" points="474,-221 474,-236 637,-236 637,-221 474,-221"/>
<text text-anchor="start" x="612" y="-227" font-family="Ubuntu" font-style="italic" font-size="10.00">float</text>
<text text-anchor="start" x="315" y="-211" font-family="Ubuntu" font-size="10.00">12</text>
<text text-anchor="start" x="332" y="-211" font-family="Ubuntu" font-size="10.00">air_pressure_pa</text>
<polygon fill="#a6cee3" stroke="transparent" points="474,-206 474,-221 637,-221 637,-206 474,-206"/>
<text text-anchor="start" x="612" y="-212" font-family="Ubuntu" font-style="italic" font-size="10.00">float</text>
<polygon fill="none" stroke="black" points="308,-205.5 308,-402.5 638,-402.5 638,-205.5 308,-205.5"/>
</a>
</g>
</g>
<!-- Node_Ja_110&#45;&gt;Node_Ja_100 -->
<g id="edge10" class="edge">
<title>Node_Ja_110:e&#45;&gt;Node_Ja_100:header</title>
<g id="a_edge10"><a xlink:title="Ja_110 &#45;&#45;&gt; Ja_100">
<path fill="none" stroke="#000000" d="M638,-379C675.98,-379 687.93,-379 721.44,-379"/>
<polygon fill="#000000" stroke="#000000" points="721.5,-382.5 731.5,-379 721.5,-375.5 721.5,-382.5"/>
</a>
</g>
</g>
<!-- Node_Ja_109 -->
<g id="node7" class="node">
<title>Node_Ja_109</title>
<g id="a_node7"><a xlink:title="keelson.WeatherForecast">
<polygon fill="#fffaf0" stroke="transparent" points="8,-376 8,-468 256,-468 256,-376 8,-376"/>
<polygon fill="#e31a1c" stroke="transparent" points="9,-452 9,-467 255,-467 255,-452 9,-452"/>
<text text-anchor="start" x="156" y="-458" font-family="Ubuntu" font-weight="bold" font-size="10.00">WeatherForecast</text>
<text text-anchor="start" x="32" y="-442" font-family="Ubuntu" font-size="10.00">1</text>
<text text-anchor="start" x="43" y="-442" font-family="Ubuntu" font-size="10.00">location</text>
<polygon fill="#fb9a99" stroke="transparent" points="92,-437 92,-452 255,-452 255,-437 92,-437"/>
<text text-anchor="start" x="135" y="-443" font-family="Ubuntu" font-weight="bold" font-size="10.00">foxglove.LocationFix</text>
<text text-anchor="start" x="32" y="-427" font-family="Ubuntu" font-size="10.00">2</text>
<text text-anchor="start" x="43" y="-427" font-family="Ubuntu" font-size="10.00">issued_at</text>
<polygon fill="#fb9a99" stroke="transparent" points="92,-422 92,-437 255,-437 255,-422 92,-422"/>
<text text-anchor="start" x="94" y="-428" font-family="Ubuntu" font-weight="bold" font-size="10.00">google.protobuf.Timestamp</text>
<text text-anchor="start" x="32" y="-412" font-family="Ubuntu" font-size="10.00">3</text>
<text text-anchor="start" x="43" y="-412" font-family="Ubuntu" font-size="10.00">source</text>
<polygon fill="#a6cee3" stroke="transparent" points="92,-407 92,-422 255,-422 255,-407 92,-407"/>
<text text-anchor="start" x="225" y="-413" font-family="Ubuntu" font-style="italic" font-size="10.00">string</text>
<text text-anchor="start" x="11" y="-397" font-family="Ubuntu" font-size="10.00">[...]</text>
<text text-anchor="start" x="32" y="-397" font-family="Ubuntu" font-size="10.00">4</text>
<text text-anchor="start" x="43" y="-397" font-family="Ubuntu" font-size="10.00">steps</text>
<polygon fill="#fb9a99" stroke="transparent" points="92,-392 92,-407 255,-407 255,-392 92,-392"/>
<text text-anchor="start" x="226" y="-398" font-family="Ubuntu" font-weight="bold" font-size="10.00">Step</text>
<text text-anchor="start" x="11" y="-382" font-family="Ubuntu" font-size="10.00">[...]</text>
<text text-anchor="start" x="32" y="-382" font-family="Ubuntu" font-size="10.00">5</text>
<text text-anchor="start" x="43" y="-382" font-family="Ubuntu" font-size="10.00">alerts</text>
<polygon fill="#fb9a99" stroke="transparent" points="92,-377 92,-392 255,-392 255,-377 92,-377"/>
<text text-anchor="start" x="177" y="-383" font-family="Ubuntu" font-weight="bold" font-size="10.00">WeatherAlert</text>
<polygon fill="none" stroke="black" points="8,-376 8,-468 256,-468 256,-376 8,-376"/>
</a>
</g>
</g>
<!-- Node_Ja_109&#45;&gt;Node_Ja_108 -->
<g id="edge1" class="edge">
<title>Node_Ja_109:e&#45;&gt;Node_Ja_108:header</title>
<g id="a_edge1"><a xlink:title="Ja_109 &#45;&#45;&gt; Ja_108">
<path fill="none" stroke="#000000" d="M256,-384C353.47,-384 243.42,-186.11 325.89,-171.81"/>
<polygon fill="#000000" stroke="#000000" points="326.31,-175.29 336,-171 325.75,-168.31 326.31,-175.29"/>
</a>
</g>
</g>
<!-- Node_Ja_109&#45;&gt;Node_Ja_101 -->
<g id="edge4" class="edge">
<title>Node_Ja_109:e&#45;&gt;Node_Ja_101:header</title>
<g id="a_edge4"><a xlink:title="Ja_109 &#45;&#45;&gt; Ja_101">
<path fill="none" stroke="#000000" d="M256,-445C317.22,-445 253.4,-565.53 299.96,-579.65"/>
<polygon fill="#000000" stroke="#000000" points="299.62,-583.14 310,-581 300.55,-576.2 299.62,-583.14"/>
</a>
</g>
</g>
<!-- Node_Ja_109&#45;&gt;Node_Ja_100 -->
<g id="edge5" class="edge">
<title>Node_Ja_109:e&#45;&gt;Node_Ja_100:header</title>
<g id="a_edge5"><a xlink:title="Ja_109 &#45;&#45;&gt; Ja_100">
<path fill="none" stroke="#000000" d="M256,-430C429.46,-430 476.66,-452.6 646,-415 682.63,-406.87 689.25,-383.72 721.23,-379.62"/>
<polygon fill="#000000" stroke="#000000" points="721.73,-383.1 731.5,-379 721.31,-376.11 721.73,-383.1"/>
</a>
</g>
</g>
<!-- Node_Ja_109&#45;&gt;Node_Ja_110 -->
<g id="edge2" class="edge">
<title>Node_Ja_109:e&#45;&gt;Node_Ja_110:header</title>
<g id="a_edge2"><a xlink:title="Ja_109 &#45;&#45;&gt; Ja_110">
<path fill="none" stroke="#000000" d="M256,-399C275.41,-399 282.48,-395.51 297.84,-394.36"/>
<polygon fill="#000000" stroke="#000000" points="298.13,-397.85 308,-394 297.88,-390.86 298.13,-397.85"/>
</a>
</g>
</g>
</g>
</svg>
