<?xml version="1.0" encoding="UTF-8" standalone="no"?>
<!DOCTYPE svg PUBLIC "-//W3C//DTD SVG 1.1//EN"
 "http://www.w3.org/Graphics/SVG/1.1/DTD/svg11.dtd">
<!-- Generated by graphviz version 2.43.0 (0)
 -->
<!-- Title: protodot Pages: 1 -->
<svg width="780pt" height="344pt"
 viewBox="0.00 0.00 780.00 344.00" xmlns="http://www.w3.org/2000/svg" xmlns:xlink="http://www.w3.org/1999/xlink">
<g id="graph0" class="graph" transform="scale(1 1) rotate(0) translate(4 340)">
<title>protodot</title>
<g id="a_graph0"><a xlink:title="keelson">
<text text-anchor="middle" x="386" y="-7.8" font-family="Times,serif" font-size="14.00">keelson</text>
</a>
</g>
<!-- Node_Ja_102 -->
<g id="node1" class="node">
<title>Node_Ja_102</title>
<g id="a_node1"><a xlink:title="keelson.ReplayStatus">
<polygon fill="#fffaf0" stroke="transparent" points="8,-48.5 8,-260.5 313,-260.5 313,-48.5 8,-48.5"/>
<polygon fill="#e31a1c" stroke="transparent" points="9.5,-244.5 9.5,-259.5 312.5,-259.5 312.5,-244.5 9.5,-244.5"/>
<text text-anchor="start" x="234.5" y="-250.5" font-family="Ubuntu" font-weight="bold" font-size="10.00">ReplayStatus</text>
<text text-anchor="start" x="21.5" y="-234.5" font-family="Ubuntu" font-size="10.00">1</text>
<text text-anchor="start" x="32.5" y="-234.5" font-family="Ubuntu" font-size="10.00">state</text>
<polygon fill="#b2df8a" stroke="transparent" points="149.5,-229.5 149.5,-244.5 312.5,-244.5 312.5,-229.5 149.5,-229.5"/>
<text text-anchor="start" x="284.5" y="-235.5" font-family="Ubuntu" text-decoration="underline" font-size="10.00">State</text>
<text text-anchor="start" x="21.5" y="-219.5" font-family="Ubuntu" font-size="10.00">2</text>
<text text-anchor="start" x="32.5" y="-219.5" font-family="Ubuntu" font-size="10.00">current_time</text>
<polygon fill="#fb9a99" stroke="transparent" points="149.5,-214.5 149.5,-229.5 312.5,-229.5 312.5,-214.5 149.5,-214.5"/>
<text text-anchor="start" x="151.5" y="-220.5" font-family="Ubuntu" font-weight="bold" font-size="10.00">google.protobuf.Timestamp</text>
<text text-anchor="start" x="21.5" y="-204.5" font-family="Ubuntu" font-size="10.00">3</text>
<text text-anchor="start" x="32.5" y="-204.5" font-family="Ubuntu" font-size="10.00">start_time</text>
<polygon fill="#fb9a99" stroke="transparent" points="149.5,-199.5 149.5,-214.5 312.5,-214.5 312.5,-199.5 149.5,-199.5"/>
<text text-anchor="start" x="151.5" y="-205.5" font-family="Ubuntu" font-weight="bold" font-size="10.00">google.protobuf.Timestamp</text>
<text text-anchor="start" x="21.5" y="-189.5" font-family="Ubuntu" font-size="10.00">4</text>
<text text-anchor="start" x="32.5" y="-189.5" font-family="Ubuntu" font-size="10.00">end_time</text>
<polygon fill="#fb9a99" stroke="transparent" points="149.5,-184.5 149.5,-199.5 312.5,-199.5 312.5,-184.5 149.5,-184.5"/>
<text text-anchor="start" x="151.5" y="-190.5" font-family="Ubuntu" font-weight="bold" font-size="10.00">google.protobuf.Timestamp</text>
<text text-anchor="start" x="21.5" y="-174.5" font-family="Ubuntu" font-size="10.00">5</text>
<text text-anchor="start" x="32.5" y="-174.5" font-family="Ubuntu" font-size="10.00">playback_speed</text>
<polygon fill="#a6cee3" stroke="transparent" points="149.5,-169.5 149.5,-184.5 312.5,-184.5 312.5,-169.5 149.5,-169.5"/>
<text text-anchor="start" x="287.5" y="-175.5" font-family="Ubuntu" font-style="italic" font-size="10.00">float</text>
<text text-anchor="start" x="21.5" y="-159.5" font-family="Ubuntu" font-size="10.00">6</text>
<text text-anchor="start" x="32.5" y="-159.5" font-family="Ubuntu" font-size="10.00">loaded_file</text>
<polygon fill="#a6cee3" stroke="transparent" points="149.5,-154.5 149.5,-169.5 312.5,-169.5 312.5,-154.5 149.5,-154.5"/>
<text text-anchor="start" x="282.5" y="-160.5" font-family="Ubuntu" font-style="italic" font-size="10.00">string</text>
<text text-anchor="start" x="21.5" y="-144.5" font-family="Ubuntu" font-size="10.00">7</text>
<text text-anchor="start" x="32.5" y="-144.5" font-family="Ubuntu" font-size="10.00">played_message_count</text>
<polygon fill="#a6cee3" stroke="transparent" points="149.5,-139.5 149.5,-154.5 312.5,-154.5 312.5,-139.5 149.5,-139.5"/>
<text text-anchor="start" x="279.5" y="-145.5" font-family="Ubuntu" font-style="italic" font-size="10.00">uint64</text>
<text text-anchor="start" x="21.5" y="-129.5" font-family="Ubuntu" font-size="10.00">8</text>
<text text-anchor="start" x="32.5" y="-129.5" font-family="Ubuntu" font-size="10.00">total_message_count</text>
<polygon fill="#a6cee3" stroke="transparent" points="149.5,-124.5 149.5,-139.5 312.5,-139.5 312.5,-124.5 149.5,-124.5"/>
<text text-anchor="start" x="279.5" y="-130.5" font-family="Ubuntu" font-style="italic" font-size="10.00">uint64</text>
<text text-anchor="start" x="21.5" y="-114.5" font-family="Ubuntu" font-size="10.00">9</text>
<text text-anchor="start" x="32.5" y="-114.5" font-family="Ubuntu" font-size="10.00">progress_pct</text>
<polygon fill="#a6cee3" stroke="transparent" points="149.5,-109.5 149.5,-124.5 312.5,-124.5 312.5,-109.5 149.5,-109.5"/>
<text text-anchor="start" x="287.5" y="-115.5" font-family="Ubuntu" font-style="italic" font-size="10.00">float</text>
<text text-anchor="start" x="15.5" y="-99.5" font-family="Ubuntu" font-size="10.00">10</text>
<text text-anchor="start" x="32.5" y="-99.5" font-family="Ubuntu" font-size="10.00">loop</text>
<polygon fill="#a6cee3" stroke="transparent" points="149.5,-94.5 149.5,-109.5 312.5,-109.5 312.5,-94.5 149.5,-94.5"/>
<text text-anchor="start" x="288.5" y="-100.5" font-family="Ubuntu" font-style="italic" font-size="10.00">bool</text>
<text text-anchor="start" x="15.5" y="-84.5" font-family="Ubuntu" font-size="10.00">20</text>
<text text-anchor="start" x="32.5" y="-84.5" font-family="Ubuntu" font-size="10.00">daemon</text>
<polygon fill="#fb9a99" stroke="transparent" points="149.5,-79.5 149.5,-94.5 312.5,-94.5 312.5,-79.5 149.5,-79.5"/>
<text text-anchor="start" x="242.5" y="-85.5" font-family="Ubuntu" font-weight="bold" font-size="10.00">DaemonInfo</text>
<text text-anchor="start" x="15.5" y="-69.5" font-family="Ubuntu" font-size="10.00">24</text>
<text text-anchor="start" x="32.5" y="-69.5" font-family="Ubuntu" font-size="10.00">load_progress_pct</text>
<polygon fill="#a6cee3" stroke="transparent" points="149.5,-64.5 149.5,-79.5 312.5,-79.5 312.5,-64.5 149.5,-64.5"/>
<text text-anchor="start" x="287.5" y="-70.5" font-family="Ubuntu" font-style="italic" font-size="10.00">float</text>
<text text-anchor="start" x="15.5" y="-54.5" font-family="Ubuntu" font-size="10.00">25</text>
<text text-anchor="start" x="32.5" y="-54.5" font-family="Ubuntu" font-size="10.00">last_load_error</text>
<polygon fill="#a6cee3" stroke="transparent" points="149.5,-49.5 149.5,-64.5 312.5,-64.5 312.5,-49.5 149.5,-49.5"/>
<text text-anchor="start" x="282.5" y="-55.5" font-family="Ubuntu" font-style="italic" font-size="10.00">string</text>
<polygon fill="none" stroke="black" points="8,-48.5 8,-260.5 313,-260.5 313,-48.5 8,-48.5"/>
</a>
</g>
</g>
<!-- Node_Ja_101 -->
<g id="node2" class="node">
<title>Node_Ja_101</title>
<g id="a_node2"><a xlink:title="keelson.DaemonInfo">
<polygon fill="#fffaf0" stroke="transparent" points="365,-27 365,-104 622,-104 622,-27 365,-27"/>
<polygon fill="#e31a1c" stroke="transparent" points="366.5,-87.5 366.5,-102.5 621.5,-102.5 621.5,-87.5 366.5,-87.5"/>
<text text-anchor="start" x="551.5" y="-93.5" font-family="Ubuntu" font-weight="bold" font-size="10.00">DaemonInfo</text>
<text text-anchor="start" x="372.5" y="-77.5" font-family="Ubuntu" font-size="10.00">1</text>
<text text-anchor="start" x="383.5" y="-77.5" font-family="Ubuntu" font-size="10.00">version</text>
<polygon fill="#a6cee3" stroke="transparent" points="458.5,-72.5 458.5,-87.5 621.5,-87.5 621.5,-72.5 458.5,-72.5"/>
<text text-anchor="start" x="591.5" y="-78.5" font-family="Ubuntu" font-style="italic" font-size="10.00">string</text>
<text text-anchor="start" x="372.5" y="-62.5" font-family="Ubuntu" font-size="10.00">2</text>
<text text-anchor="start" x="383.5" y="-62.5" font-family="Ubuntu" font-size="10.00">hostname</text>
<polygon fill="#a6cee3" stroke="transparent" points="458.5,-57.5 458.5,-72.5 621.5,-72.5 621.5,-57.5 458.5,-57.5"/>
<text text-anchor="start" x="591.5" y="-63.5" font-family="Ubuntu" font-style="italic" font-size="10.00">string</text>
<text text-anchor="start" x="372.5" y="-47.5" font-family="Ubuntu" font-size="10.00">3</text>
<text text-anchor="start" x="383.5" y="-47.5" font-family="Ubuntu" font-size="10.00">started_at</text>
<polygon fill="#fb9a99" stroke="transparent" points="458.5,-42.5 458.5,-57.5 621.5,-57.5 621.5,-42.5 458.5,-42.5"/>
<text text-anchor="start" x="460.5" y="-48.5" font-family="Ubuntu" font-weight="bold" font-size="10.00">google.protobuf.Timestamp</text>
<text text-anchor="start" x="372.5" y="-32.5" font-family="Ubuntu" font-size="10.00">4</text>
<text text-anchor="start" x="383.5" y="-32.5" font-family="Ubuntu" font-size="10.00">base_directory</text>
<polygon fill="#a6cee3" stroke="transparent" points="458.5,-27.5 458.5,-42.5 621.5,-42.5 621.5,-27.5 458.5,-27.5"/>
<text text-anchor="start" x="591.5" y="-33.5" font-family="Ubuntu" font-style="italic" font-size="10.00">string</text>
<polygon fill="none" stroke="black" points="365,-27 365,-104 622,-104 622,-27 365,-27"/>
</a>
</g>
</g>
<!-- Node_Ja_102&#45;&gt;Node_Ja_101 -->
<g id="edge1" class="edge">
<title>Node_Ja_102:e&#45;&gt;Node_Ja_101:header</title>
<g id="a_edge1"><a xlink:title="Ja_102 &#45;&#45;&gt; Ja_101">
<path fill="none" stroke="#000000" d="M313.5,-86.5C333.11,-86.5 339.88,-92.79 355.28,-94.85"/>
<polygon fill="#000000" stroke="#000000" points="355.3,-98.36 365.5,-95.5 355.74,-91.38 355.3,-98.36"/>
</a>
</g>
</g>
<!-- Node_Ja_103 -->
<g id="node3" class="node">
<title>Node_Ja_103</title>
<g id="a_node3"><a xlink:title="State">
<polygon fill="#b2df8a" stroke="transparent" points="459.5,-255 459.5,-332 527.5,-332 527.5,-255 459.5,-255"/>
<polygon fill="#33a02c" stroke="transparent" points="460.5,-315.5 460.5,-330.5 526.5,-330.5 526.5,-315.5 460.5,-315.5"/>
<text text-anchor="start" x="462.5" y="-321.5" font-family="Ubuntu" font-size="10.00">enum </text>
<text text-anchor="start" x="493.5" y="-321.5" font-family="Ubuntu" font-weight="bold" font-size="10.00">State</text>
<polygon fill="#b2df8a" stroke="transparent" points="460.5,-300.5 460.5,-315.5 512.5,-315.5 512.5,-300.5 460.5,-300.5"/>
<text text-anchor="start" x="462.5" y="-305.5" font-family="Ubuntu" font-size="10.00">STOPPED</text>
<polygon fill="#b2df8a" stroke="transparent" points="512.5,-300.5 512.5,-315.5 526.5,-315.5 526.5,-300.5 512.5,-300.5"/>
<text text-anchor="start" x="514.5" y="-305.5" font-family="Ubuntu" font-size="10.00">0</text>
<polygon fill="#b2df8a" stroke="transparent" points="460.5,-285.5 460.5,-300.5 512.5,-300.5 512.5,-285.5 460.5,-285.5"/>
<text text-anchor="start" x="462.5" y="-290.5" font-family="Ubuntu" font-size="10.00">PLAYING</text>
<polygon fill="#b2df8a" stroke="transparent" points="512.5,-285.5 512.5,-300.5 526.5,-300.5 526.5,-285.5 512.5,-285.5"/>
<text text-anchor="start" x="514.5" y="-290.5" font-family="Ubuntu" font-size="10.00">1</text>
<polygon fill="#b2df8a" stroke="transparent" points="460.5,-270.5 460.5,-285.5 512.5,-285.5 512.5,-270.5 460.5,-270.5"/>
<text text-anchor="start" x="462.5" y="-275.5" font-family="Ubuntu" font-size="10.00">PAUSED</text>
<polygon fill="#b2df8a" stroke="transparent" points="512.5,-270.5 512.5,-285.5 526.5,-285.5 526.5,-270.5 512.5,-270.5"/>
<text text-anchor="start" x="514.5" y="-275.5" font-family="Ubuntu" font-size="10.00">2</text>
<polygon fill="#b2df8a" stroke="transparent" points="460.5,-255.5 460.5,-270.5 512.5,-270.5 512.5,-255.5 460.5,-255.5"/>
<text text-anchor="start" x="462.5" y="-260.5" font-family="Ubuntu" font-size="10.00">LOADING</text>
<polygon fill="#b2df8a" stroke="transparent" points="512.5,-255.5 512.5,-270.5 526.5,-270.5 526.5,-255.5 512.5,-255.5"/>
<text text-anchor="start" x="514.5" y="-260.5" font-family="Ubuntu" font-size="10.00">3</text>
<polygon fill="none" stroke="black" points="459.5,-255 459.5,-332 527.5,-332 527.5,-255 459.5,-255"/>
</a>
</g>
</g>
<!-- Node_Ja_102&#45;&gt;Node_Ja_103 -->
<g id="edge2" class="edge">
<title>Node_Ja_102:e&#45;&gt;Node_Ja_103</title>
<g id="a_edge2"><a xlink:title="Ja_102 &#45;&#45;&gt; Ja_103">
<path fill="none" stroke="#008000" d="M313.5,-237.5C358.29,-237.5 406.64,-253.67 441.78,-268.63"/>
<polygon fill="#008000" stroke="#008000" points="440.76,-272.01 451.32,-272.81 443.56,-265.59 440.76,-272.01"/>
</a>
</g>
</g>
<!-- Node_Ja_100 -->
<g id="node4" class="node">
<title>Node_Ja_100</title>
<g id="a_node4"><a xlink:title="google.protobuf.Timestamp">
<polygon fill="#fffaf0" stroke="transparent" points="674,-127 674,-174 764,-174 764,-127 674,-127"/>
<polygon fill="#e31a1c" stroke="transparent" points="675,-157.5 675,-172.5 763,-172.5 763,-157.5 675,-157.5"/>
<text text-anchor="start" x="697" y="-163.5" font-family="Ubuntu" font-weight="bold" font-size="10.00">Timestamp</text>
<text text-anchor="start" x="681" y="-147.5" font-family="Ubuntu" font-size="10.00">1</text>
<text text-anchor="start" x="692" y="-147.5" font-family="Ubuntu" font-size="10.00">seconds</text>
<polygon fill="#a6cee3" stroke="transparent" points="734,-142.5 734,-157.5 763,-157.5 763,-142.5 734,-142.5"/>
<text text-anchor="start" x="736" y="-148.5" font-family="Ubuntu" font-style="italic" font-size="10.00">int64</text>
<text text-anchor="start" x="681" y="-132.5" font-family="Ubuntu" font-size="10.00">2</text>
<text text-anchor="start" x="692" y="-132.5" font-family="Ubuntu" font-size="10.00">nanos</text>
<polygon fill="#a6cee3" stroke="transparent" points="734,-127.5 734,-142.5 763,-142.5 763,-127.5 734,-127.5"/>
<text text-anchor="start" x="736" y="-133.5" font-family="Ubuntu" font-style="italic" font-size="10.00">int32</text>
<polygon fill="none" stroke="black" points="674,-127 674,-174 764,-174 764,-127 674,-127"/>
</a>
</g>
</g>
<!-- Node_Ja_102&#45;&gt;Node_Ja_100 -->
<g id="edge3" class="edge">
<title>Node_Ja_102:e&#45;&gt;Node_Ja_100:header</title>
<g id="a_edge3"><a xlink:title="Ja_102 &#45;&#45;&gt; Ja_100">
<path fill="none" stroke="#000000" d="M313.5,-222.5C454.57,-222.5 497.95,-248.14 630,-198.5 649.13,-191.31 649.94,-173.08 663.97,-167.29"/>
<polygon fill="#000000" stroke="#000000" points="664.77,-170.71 674,-165.5 663.54,-163.81 664.77,-170.71"/>
</a>
</g>
</g>
<!-- Node_Ja_102&#45;&gt;Node_Ja_100 -->
<g id="edge4" class="edge">
<title>Node_Ja_102:e&#45;&gt;Node_Ja_100:header</title>
<g id="a_edge4"><a xlink:title="Ja_102 &#45;&#45;&gt; Ja_100">
<path fill="none" stroke="#000000" d="M313.5,-207.5C333.24,-207.5 337.49,-201.53 357,-198.5 493.56,-177.32 530.56,-166.06 663.81,-165.52"/>
<polygon fill="#000000" stroke="#000000" points="664.01,-169.02 674,-165.5 663.99,-162.02 664.01,-169.02"/>
</a>
</g>
</g>
<!-- Node_Ja_102&#45;&gt;Node_Ja_100 -->
<g id="edge5" class="edge">
<title>Node_Ja_102:e&#45;&gt;Node_Ja_100:header</title>
<g id="a_edge5"><a xlink:title="Ja_102 &#45;&#45;&gt; Ja_100">
<path fill="none" stroke="#000000" d="M313.5,-192.5C336.99,-192.5 334.58,-169.48 357,-162.5 472.85,-126.43 508.74,-158.37 630,-162.5 645.76,-163.04 651.96,-164.65 663.99,-165.26"/>
<polygon fill="#000000" stroke="#000000" points="663.92,-168.76 674,-165.5 664.09,-161.76 663.92,-168.76"/>
</a>
</g>
</g>
<!-- Node_Ja_101&#45;&gt;Node_Ja_100 -->
<g id="edge6" class="edge">
<title>Node_Ja_101:e&#45;&gt;Node_Ja_100:header</title>
<g id="a_edge6"><a xlink:title="Ja_101 &#45;&#45;&gt; Ja_100">
<path fill="none" stroke="#000000" d="M622.5,-49.5C674.94,-49.5 625.63,-149.76 663.77,-163.86"/>
<polygon fill="#000000" stroke="#000000" points="663.57,-167.37 674,-165.5 664.68,-160.46 663.57,-167.37"/>
</a>
</g>
</g>
</g>
</svg>
