<?xml version="1.0" encoding="UTF-8" standalone="no"?>
<!DOCTYPE svg PUBLIC "-//W3C//DTD SVG 1.1//EN"
 "http://www.w3.org/Graphics/SVG/1.1/DTD/svg11.dtd">
<!-- Generated by graphviz version 2.43.0 (0)
 -->
<!-- Title: protodot Pages: 1 -->
<svg width="448pt" height="176pt"
 viewBox="0.00 0.00 448.00 176.00" xmlns="http://www.w3.org/2000/svg" xmlns:xlink="http://www.w3.org/1999/xlink">
<g id="graph0" class="graph" transform="scale(1 1) rotate(0) translate(4 172)">
<title>protodot</title>
<g id="a_graph0"><a xlink:title="keelson">
<text text-anchor="middle" x="220" y="-7.8" font-family="Times,serif" font-size="14.00">keelson</text>
</a>
</g>
<!-- Node_Ja_100 -->
<g id="node1" class="node">
<title>Node_Ja_100</title>
<g id="a_node1"><a xlink:title="google.protobuf.Timestamp">
<polygon fill="#fffaf0" stroke="transparent" points="342,-94 342,-141 432,-141 432,-94 342,-94"/>
<polygon fill="#e31a1c" stroke="transparent" points="343,-124.5 343,-139.5 431,-139.5 431,-124.5 343,-124.5"/>
<text text-anchor="start" x="365" y="-130.5" font-family="Ubuntu" font-weight="bold" font-size="10.00">Timestamp</text>
<text text-anchor="start" x="349" y="-114.5" font-family="Ubuntu" font-size="10.00">1</text>
<text text-anchor="start" x="360" y="-114.5" font-family="Ubuntu" font-size="10.00">seconds</text>
<polygon fill="#a6cee3" stroke="transparent" points="402,-109.5 402,-124.5 431,-124.5 431,-109.5 402,-109.5"/>
<text text-anchor="start" x="404" y="-115.5" font-family="Ubuntu" font-style="italic" font-size="10.00">int64</text>
<text text-anchor="start" x="349" y="-99.5" font-family="Ubuntu" font-size="10.00">2</text>
<text text-anchor="start" x="360" y="-99.5" font-family="Ubuntu" font-size="10.00">nanos</text>
<polygon fill="#a6cee3" stroke="transparent" points="402,-94.5 402,-109.5 431,-109.5 431,-94.5 402,-94.5"/>
<text text-anchor="start" x="404" y="-100.5" font-family="Ubuntu" font-style="italic" font-size="10.00">int32</text>
<polygon fill="none" stroke="black" points="342,-94 342,-141 432,-141 432,-94 342,-94"/>
</a>
</g>
</g>
<!-- Node_Ja_101 -->
<g id="node2" class="node">
<title>Node_Ja_101</title>
<g id="a_node2"><a xlink:title="keelson.NetworkStatus">
<polygon fill="#fffaf0" stroke="transparent" points="8,-27 8,-164 290,-164 290,-27 8,-27"/>
<polygon fill="#e31a1c" stroke="transparent" points="9,-147.5 9,-162.5 289,-162.5 289,-147.5 9,-147.5"/>
<text text-anchor="start" x="203" y="-153.5" font-family="Ubuntu" font-weight="bold" font-size="10.00">NetworkStatus</text>
<text text-anchor="start" x="15" y="-137.5" font-family="Ubuntu" font-size="10.00">1</text>
<text text-anchor="start" x="26" y="-137.5" font-family="Ubuntu" font-size="10.00">ping_sent_at</text>
<polygon fill="#fb9a99" stroke="transparent" points="126,-132.5 126,-147.5 289,-147.5 289,-132.5 126,-132.5"/>
<text text-anchor="start" x="128" y="-138.5" font-family="Ubuntu" font-weight="bold" font-size="10.00">google.protobuf.Timestamp</text>
<text text-anchor="start" x="15" y="-122.5" font-family="Ubuntu" font-size="10.00">2</text>
<text text-anchor="start" x="26" y="-122.5" font-family="Ubuntu" font-size="10.00">pong_sent_at</text>
<polygon fill="#fb9a99" stroke="transparent" points="126,-117.5 126,-132.5 289,-132.5 289,-117.5 126,-117.5"/>
<text text-anchor="start" x="128" y="-123.5" font-family="Ubuntu" font-weight="bold" font-size="10.00">google.protobuf.Timestamp</text>
<text text-anchor="start" x="15" y="-107.5" font-family="Ubuntu" font-size="10.00">3</text>
<text text-anchor="start" x="26" y="-107.5" font-family="Ubuntu" font-size="10.00">ping_host</text>
<polygon fill="#a6cee3" stroke="transparent" points="126,-102.5 126,-117.5 289,-117.5 289,-102.5 126,-102.5"/>
<text text-anchor="start" x="259" y="-108.5" font-family="Ubuntu" font-style="italic" font-size="10.00">string</text>
<text text-anchor="start" x="15" y="-92.5" font-family="Ubuntu" font-size="10.00">4</text>
<text text-anchor="start" x="26" y="-92.5" font-family="Ubuntu" font-size="10.00">pong_host</text>
<polygon fill="#a6cee3" stroke="transparent" points="126,-87.5 126,-102.5 289,-102.5 289,-87.5 126,-87.5"/>
<text text-anchor="start" x="259" y="-93.5" font-family="Ubuntu" font-style="italic" font-size="10.00">string</text>
<text text-anchor="start" x="15" y="-77.5" font-family="Ubuntu" font-size="10.00">5</text>
<text text-anchor="start" x="26" y="-77.5" font-family="Ubuntu" font-size="10.00">payload_size_mb</text>
<polygon fill="#a6cee3" stroke="transparent" points="126,-72.5 126,-87.5 289,-87.5 289,-72.5 126,-72.5"/>
<text text-anchor="start" x="264" y="-78.5" font-family="Ubuntu" font-style="italic" font-size="10.00">float</text>
<text text-anchor="start" x="15" y="-62.5" font-family="Ubuntu" font-size="10.00">6</text>
<text text-anchor="start" x="26" y="-62.5" font-family="Ubuntu" font-size="10.00">round_trip_time_ms</text>
<polygon fill="#a6cee3" stroke="transparent" points="126,-57.5 126,-72.5 289,-72.5 289,-57.5 126,-57.5"/>
<text text-anchor="start" x="264" y="-63.5" font-family="Ubuntu" font-style="italic" font-size="10.00">float</text>
<text text-anchor="start" x="15" y="-47.5" font-family="Ubuntu" font-size="10.00">7</text>
<text text-anchor="start" x="26" y="-47.5" font-family="Ubuntu" font-size="10.00">latency_ms</text>
<polygon fill="#a6cee3" stroke="transparent" points="126,-42.5 126,-57.5 289,-57.5 289,-42.5 126,-42.5"/>
<text text-anchor="start" x="264" y="-48.5" font-family="Ubuntu" font-style="italic" font-size="10.00">float</text>
<text text-anchor="start" x="15" y="-32.5" font-family="Ubuntu" font-size="10.00">8</text>
<text text-anchor="start" x="26" y="-32.5" font-family="Ubuntu" font-size="10.00">clock_skew_ms</text>
<polygon fill="#a6cee3" stroke="transparent" points="126,-27.5 126,-42.5 289,-42.5 289,-27.5 126,-27.5"/>
<text text-anchor="start" x="264" y="-33.5" font-family="Ubuntu" font-style="italic" font-size="10.00">float</text>
<polygon fill="none" stroke="black" points="8,-27 8,-164 290,-164 290,-27 8,-27"/>
</a>
</g>
</g>
<!-- Node_Ja_101&#45;&gt;Node_Ja_100 -->
<g id="edge1" class="edge">
<title>Node_Ja_101:e&#45;&gt;Node_Ja_100:header</title>
<g id="a_edge1"><a xlink:title="Ja_101 &#45;&#45;&gt; Ja_100">
<path fill="none" stroke="#000000" d="M290,-140.5C309.55,-140.5 316.41,-134.91 331.8,-133.08"/>
<polygon fill="#000000" stroke="#000000" points="332.21,-136.56 342,-132.5 331.82,-129.57 332.21,-136.56"/>
</a>
</g>
</g>
<!-- Node_Ja_101&#45;&gt;Node_Ja_100 -->
<g id="edge2" class="edge">
<title>Node_Ja_101:e&#45;&gt;Node_Ja_100:header</title>
<g id="a_edge2"><a xlink:title="Ja_101 &#45;&#45;&gt; Ja_100">
<path fill="none" stroke="#000000" d="M290,-125.5C309.49,-125.5 316.44,-130.39 331.81,-132"/>
<polygon fill="#000000" stroke="#000000" points="331.84,-135.5 342,-132.5 332.18,-128.51 331.84,-135.5"/>
</a>
</g>
</g>
</g>
</svg>
