<?xml version="1.0" encoding="UTF-8" standalone="no"?>
<!DOCTYPE svg PUBLIC "-//W3C//DTD SVG 1.1//EN"
 "http://www.w3.org/Graphics/SVG/1.1/DTD/svg11.dtd">
<!-- Generated by graphviz version 2.43.0 (0)
 -->
<!-- Title: protodot Pages: 1 -->
<svg width="471pt" height="256pt"
 viewBox="0.00 0.00 471.00 256.00" xmlns="http://www.w3.org/2000/svg" xmlns:xlink="http://www.w3.org/1999/xlink">
<g id="graph0" class="graph" transform="scale(1 1) rotate(0) translate(4 252)">
<title>protodot</title>
<g id="a_graph0"><a xlink:title="keelson">
<text text-anchor="middle" x="231.5" y="-7.8" font-family="Times,serif" font-size="14.00">keelson</text>
</a>
</g>
<!-- Node_Ja_101 -->
<g id="node1" class="node">
<title>Node_Ja_101</title>
<g id="a_node1"><a xlink:title="keelson.ReplayStatus">
<polygon fill="#fffaf0" stroke="transparent" points="8,-27 8,-194 313,-194 313,-27 8,-27"/>
<polygon fill="#e31a1c" stroke="transparent" points="9.5,-177.5 9.5,-192.5 312.5,-192.5 312.5,-177.5 9.5,-177.5"/>
<text text-anchor="start" x="234.5" y="-183.5" font-family="Ubuntu" font-weight="bold" font-size="10.00">ReplayStatus</text>
<text text-anchor="start" x="21.5" y="-167.5" font-family="Ubuntu" font-size="10.00">1</text>
<text text-anchor="start" x="32.5" y="-167.5" font-family="Ubuntu" font-size="10.00">state</text>
<polygon fill="#b2df8a" stroke="transparent" points="149.5,-162.5 149.5,-177.5 312.5,-177.5 312.5,-162.5 149.5,-162.5"/>
<text text-anchor="start" x="284.5" y="-168.5" font-family="Ubuntu" text-decoration="underline" font-size="10.00">State</text>
<text text-anchor="start" x="21.5" y="-152.5" font-family="Ubuntu" font-size="10.00">2</text>
<text text-anchor="start" x="32.5" y="-152.5" font-family="Ubuntu" font-size="10.00">current_time</text>
<polygon fill="#fb9a99" stroke="transparent" points="149.5,-147.5 149.5,-162.5 312.5,-162.5 312.5,-147.5 149.5,-147.5"/>
<text text-anchor="start" x="151.5" y="-153.5" font-family="Ubuntu" font-weight="bold" font-size="10.00">google.protobuf.Timestamp</text>
<text text-anchor="start" x="21.5" y="-137.5" font-family="Ubuntu" font-size="10.00">3</text>
<text text-anchor="start" x="32.5" y="-137.5" font-family="Ubuntu" font-size="10.00">start_time</text>
<polygon fill="#fb9a99" stroke="transparent" points="149.5,-132.5 149.5,-147.5 312.5,-147.5 312.5,-132.5 149.5,-132.5"/>
<text text-anchor="start" x="151.5" y="-138.5" font-family="Ubuntu" font-weight="bold" font-size="10.00">google.protobuf.Timestamp</text>
<text text-anchor="start" x="21.5" y="-122.5" font-family="Ubuntu" font-size="10.00">4</text>
<text text-anchor="start" x="32.5" y="-122.5" font-family="Ubuntu" font-size="10.00">end_time</text>
<polygon fill="#fb9a99" stroke="transparent" points="149.5,-117.5 149.5,-132.5 312.5,-132.5 312.5,-117.5 149.5,-117.5"/>
<text text-anchor="start" x="151.5" y="-123.5" font-family="Ubuntu" font-weight="bold" font-size="10.00">google.protobuf.Timestamp</text>
<text text-anchor="start" x="21.5" y="-107.5" font-family="Ubuntu" font-size="10.00">5</text>
<text text-anchor="start" x="32.5" y="-107.5" font-family="Ubuntu" font-size="10.00">playback_speed</text>
<polygon fill="#a6cee3" stroke="transparent" points="149.5,-102.5 149.5,-117.5 312.5,-117.5 312.5,-102.5 149.5,-102.5"/>
<text text-anchor="start" x="287.5" y="-108.5" font-family="Ubuntu" font-style="italic" font-size="10.00">float</text>
<text text-anchor="start" x="21.5" y="-92.5" font-family="Ubuntu" font-size="10.00">6</text>
<text text-anchor="start" x="32.5" y="-92.5" font-family="Ubuntu" font-size="10.00">loaded_file</text>
<polygon fill="#a6cee3" stroke="transparent" points="149.5,-87.5 149.5,-102.5 312.5,-102.5 312.5,-87.5 149.5,-87.5"/>
<text text-anchor="start" x="282.5" y="-93.5" font-family="Ubuntu" font-style="italic" font-size="10.00">string</text>
<text text-anchor="start" x="21.5" y="-77.5" font-family="Ubuntu" font-size="10.00">7</text>
<text text-anchor="start" x="32.5" y="-77.5" font-family="Ubuntu" font-size="10.00">played_message_count</text>
<polygon fill="#a6cee3" stroke="transparent" points="149.5,-72.5 149.5,-87.5 312.5,-87.5 312.5,-72.5 149.5,-72.5"/>
<text text-anchor="start" x="279.5" y="-78.5" font-family="Ubuntu" font-style="italic" font-size="10.00">uint64</text>
<text text-anchor="start" x="21.5" y="-62.5" font-family="Ubuntu" font-size="10.00">8</text>
<text text-anchor="start" x="32.5" y="-62.5" font-family="Ubuntu" font-size="10.00">total_message_count</text>
<polygon fill="#a6cee3" stroke="transparent" points="149.5,-57.5 149.5,-72.5 312.5,-72.5 312.5,-57.5 149.5,-57.5"/>
<text text-anchor="start" x="279.5" y="-63.5" font-family="Ubuntu" font-style="italic" font-size="10.00">uint64</text>
<text text-anchor="start" x="21.5" y="-47.5" font-family="Ubuntu" font-size="10.00">9</text>
<text text-anchor="start" x="32.5" y="-47.5" font-family="Ubuntu" font-size="10.00">progress_pct</text>
<polygon fill="#a6cee3" stroke="transparent" points="149.5,-42.5 149.5,-57.5 312.5,-57.5 312.5,-42.5 149.5,-42.5"/>
<text text-anchor="start" x="287.5" y="-48.5" font-family="Ubuntu" font-style="italic" font-size="10.00">float</text>
<text text-anchor="start" x="15.5" y="-32.5" font-family="Ubuntu" font-size="10.00">10</text>
<text text-anchor="start" x="32.5" y="-32.5" font-family="Ubuntu" font-size="10.00">loop</text>
<polygon fill="#a6cee3" stroke="transparent" points="149.5,-27.5 149.5,-42.5 312.5,-42.5 312.5,-27.5 149.5,-27.5"/>
<text text-anchor="start" x="288.5" y="-33.5" font-family="Ubuntu" font-style="italic" font-size="10.00">bool</text>
<polygon fill="none" stroke="black" points="8,-27 8,-194 313,-194 313,-27 8,-27"/>
</a>
</g>
</g>
<!-- Node_Ja_100 -->
<g id="node2" class="node">
<title>Node_Ja_100</title>
<g id="a_node2"><a xlink:title="google.protobuf.Timestamp">
<polygon fill="#fffaf0" stroke="transparent" points="365,-94 365,-141 455,-141 455,-94 365,-94"/>
<polygon fill="#e31a1c" stroke="transparent" points="366,-124.5 366,-139.5 454,-139.5 454,-124.5 366,-124.5"/>
<text text-anchor="start" x="388" y="-130.5" font-family="Ubuntu" font-weight="bold" font-size="10.00">Timestamp</text>
<text text-anchor="start" x="372" y="-114.5" font-family="Ubuntu" font-size="10.00">1</text>
<text text-anchor="start" x="383" y="-114.5" font-family="Ubuntu" font-size="10.00">seconds</text>
<polygon fill="#a6cee3" stroke="transparent" points="425,-109.5 425,-124.5 454,-124.5 454,-109.5 425,-109.5"/>
<text text-anchor="start" x="427" y="-115.5" font-family="Ubuntu" font-style="italic" font-size="10.00">int64</text>
<text text-anchor="start" x="372" y="-99.5" font-family="Ubuntu" font-size="10.00">2</text>
<text text-anchor="start" x="383" y="-99.5" font-family="Ubuntu" font-size="10.00">nanos</text>
<polygon fill="#a6cee3" stroke="transparent" points="425,-94.5 425,-109.5 454,-109.5 454,-94.5 425,-94.5"/>
<text text-anchor="start" x="427" y="-100.5" font-family="Ubuntu" font-style="italic" font-size="10.00">int32</text>
<polygon fill="none" stroke="black" points="365,-94 365,-141 455,-141 455,-94 365,-94"/>
</a>
</g>
</g>
<!-- Node_Ja_101&#45;&gt;Node_Ja_100 -->
<g id="edge1" class="edge">
<title>Node_Ja_101:e&#45;&gt;Node_Ja_100:header</title>
<g id="a_edge1"><a xlink:title="Ja_101 &#45;&#45;&gt; Ja_100">
<path fill="none" stroke="#000000" d="M313.5,-125.5C332.81,-125.5 339.68,-130.39 354.91,-132"/>
<polygon fill="#000000" stroke="#000000" points="354.84,-135.5 365,-132.5 355.19,-128.51 354.84,-135.5"/>
</a>
</g>
</g>
<!-- Node_Ja_101&#45;&gt;Node_Ja_100 -->
<g id="edge3" class="edge">
<title>Node_Ja_101:e&#45;&gt;Node_Ja_100:header</title>
<g id="a_edge3"><a xlink:title="Ja_101 &#45;&#45;&gt; Ja_100">
<path fill="none" stroke="#000000" d="M313.5,-155.5C334.65,-155.5 338.93,-139.13 354.8,-134.01"/>
<polygon fill="#000000" stroke="#000000" points="355.62,-137.43 365,-132.5 354.6,-130.5 355.62,-137.43"/>
</a>
</g>
</g>
<!-- Node_Ja_101&#45;&gt;Node_Ja_100 -->
<g id="edge4" class="edge">
<title>Node_Ja_101:e&#45;&gt;Node_Ja_100:header</title>
<g id="a_edge4"><a xlink:title="Ja_101 &#45;&#45;&gt; Ja_100">
<path fill="none" stroke="#000000" d="M313.5,-140.5C332.86,-140.5 339.65,-134.91 354.89,-133.08"/>
<polygon fill="#000000" stroke="#000000" points="355.22,-136.56 365,-132.5 354.82,-129.57 355.22,-136.56"/>
</a>
</g>
</g>
<!-- Node_Ja_102 -->
<g id="node3" class="node">
<title>Node_Ja_102</title>
<g id="a_node3"><a xlink:title="State">
<polygon fill="#b2df8a" stroke="transparent" points="376,-167 376,-244 444,-244 444,-167 376,-167"/>
<polygon fill="#33a02c" stroke="transparent" points="377,-227.5 377,-242.5 443,-242.5 443,-227.5 377,-227.5"/>
<text text-anchor="start" x="379" y="-233.5" font-family="Ubuntu" font-size="10.00">enum </text>
<text text-anchor="start" x="410" y="-233.5" font-family="Ubuntu" font-weight="bold" font-size="10.00">State</text>
<polygon fill="#b2df8a" stroke="transparent" points="377,-212.5 377,-227.5 429,-227.5 429,-212.5 377,-212.5"/>
<text text-anchor="start" x="379" y="-217.5" font-family="Ubuntu" font-size="10.00">STOPPED</text>
<polygon fill="#b2df8a" stroke="transparent" points="429,-212.5 429,-227.5 443,-227.5 443,-212.5 429,-212.5"/>
<text text-anchor="start" x="431" y="-217.5" font-family="Ubuntu" font-size="10.00">0</text>
<polygon fill="#b2df8a" stroke="transparent" points="377,-197.5 377,-212.5 429,-212.5 429,-197.5 377,-197.5"/>
<text text-anchor="start" x="379" y="-202.5" font-family="Ubuntu" font-size="10.00">PLAYING</text>
<polygon fill="#b2df8a" stroke="transparent" points="429,-197.5 429,-212.5 443,-212.5 443,-197.5 429,-197.5"/>
<text text-anchor="start" x="431" y="-202.5" font-family="Ubuntu" font-size="10.00">1</text>
<polygon fill="#b2df8a" stroke="transparent" points="377,-182.5 377,-197.5 429,-197.5 429,-182.5 377,-182.5"/>
<text text-anchor="start" x="379" y="-187.5" font-family="Ubuntu" font-size="10.00">PAUSED</text>
<polygon fill="#b2df8a" stroke="transparent" points="429,-182.5 429,-197.5 443,-197.5 443,-182.5 429,-182.5"/>
<text text-anchor="start" x="431" y="-187.5" font-family="Ubuntu" font-size="10.00">2</text>
<polygon fill="#b2df8a" stroke="transparent" points="377,-167.5 377,-182.5 429,-182.5 429,-167.5 377,-167.5"/>
<text text-anchor="start" x="379" y="-172.5" font-family="Ubuntu" font-size="10.00">LOADING</text>
<polygon fill="#b2df8a" stroke="transparent" points="429,-167.5 429,-182.5 443,-182.5 443,-167.5 429,-167.5"/>
<text text-anchor="start" x="431" y="-172.5" font-family="Ubuntu" font-size="10.00">3</text>
<polygon fill="none" stroke="black" points="376,-167 376,-244 444,-244 444,-167 376,-167"/>
</a>
</g>
</g>
<!-- Node_Ja_101&#45;&gt;Node_Ja_102 -->
<g id="edge2" class="edge">
<title>Node_Ja_101:e&#45;&gt;Node_Ja_102</title>
<g id="a_edge2"><a xlink:title="Ja_101 &#45;&#45;&gt; Ja_102">
<path fill="none" stroke="#008000" d="M313.5,-170.5C328.56,-170.5 344.19,-174.39 358.34,-179.57"/>
<polygon fill="#008000" stroke="#008000" points="357.28,-182.92 367.87,-183.33 359.86,-176.41 357.28,-182.92"/>
</a>
</g>
</g>
</g>
</svg>
