<?xml version="1.0" encoding="UTF-8" standalone="no"?>
<!DOCTYPE svg PUBLIC "-//W3C//DTD SVG 1.1//EN"
 "http://www.w3.org/Graphics/SVG/1.1/DTD/svg11.dtd">
<!-- Generated by graphviz version 2.43.0 (0)
 -->
<!-- Title: protodot Pages: 1 -->
<svg width="404pt" height="109pt"
 viewBox="0.00 0.00 404.00 109.00" xmlns="http://www.w3.org/2000/svg" xmlns:xlink="http://www.w3.org/1999/xlink">
<g id="graph0" class="graph" transform="scale(1 1) rotate(0) translate(4 105)">
<title>protodot</title>
<g id="a_graph0"><a xlink:title="keelson">
<text text-anchor="middle" x="198" y="-7.8" font-family="Times,serif" font-size="14.00">keelson</text>
</a>
</g>
<!-- Node_Ja_111 -->
<g id="node1" class="node">
<title>Node_Ja_111</title>
<g id="a_node1"><a xlink:title="keelson.TimestampedTimestamp">
<polygon fill="#fffaf0" stroke="transparent" points="8,-50 8,-97 246,-97 246,-50 8,-50"/>
<polygon fill="#e31a1c" stroke="transparent" points="9,-80.5 9,-95.5 245,-95.5 245,-80.5 9,-80.5"/>
<text text-anchor="start" x="102" y="-86.5" font-family="Ubuntu" font-weight="bold" font-size="10.00">TimestampedTimestamp</text>
<text text-anchor="start" x="15" y="-70.5" font-family="Ubuntu" font-size="10.00">1</text>
<text text-anchor="start" x="26" y="-70.5" font-family="Ubuntu" font-size="10.00">timestamp</text>
<polygon fill="#fb9a99" stroke="transparent" points="82,-65.5 82,-80.5 245,-80.5 245,-65.5 82,-65.5"/>
<text text-anchor="start" x="84" y="-71.5" font-family="Ubuntu" font-weight="bold" font-size="10.00">google.protobuf.Timestamp</text>
<text text-anchor="start" x="15" y="-55.5" font-family="Ubuntu" font-size="10.00">2</text>
<text text-anchor="start" x="26" y="-55.5" font-family="Ubuntu" font-size="10.00">value</text>
<polygon fill="#fb9a99" stroke="transparent" points="82,-50.5 82,-65.5 245,-65.5 245,-50.5 82,-50.5"/>
<text text-anchor="start" x="84" y="-56.5" font-family="Ubuntu" font-weight="bold" font-size="10.00">google.protobuf.Timestamp</text>
<polygon fill="none" stroke="black" points="8,-50 8,-97 246,-97 246,-50 8,-50"/>
</a>
</g>
</g>
<!-- Node_Ja_100 -->
<g id="node2" class="node">
<title>Node_Ja_100</title>
<g id="a_node2"><a xlink:title="google.protobuf.Timestamp">
<polygon fill="#fffaf0" stroke="transparent" points="298,-27 298,-74 388,-74 388,-27 298,-27"/>
<polygon fill="#e31a1c" stroke="transparent" points="299,-57.5 299,-72.5 387,-72.5 387,-57.5 299,-57.5"/>
<text text-anchor="start" x="321" y="-63.5" font-family="Ubuntu" font-weight="bold" font-size="10.00">Timestamp</text>
<text text-anchor="start" x="305" y="-47.5" font-family="Ubuntu" font-size="10.00">1</text>
<text text-anchor="start" x="316" y="-47.5" font-family="Ubuntu" font-size="10.00">seconds</text>
<polygon fill="#a6cee3" stroke="transparent" points="358,-42.5 358,-57.5 387,-57.5 387,-42.5 358,-42.5"/>
<text text-anchor="start" x="360" y="-48.5" font-family="Ubuntu" font-style="italic" font-size="10.00">int64</text>
<text text-anchor="start" x="305" y="-32.5" font-family="Ubuntu" font-size="10.00">2</text>
<text text-anchor="start" x="316" y="-32.5" font-family="Ubuntu" font-size="10.00">nanos</text>
<polygon fill="#a6cee3" stroke="transparent" points="358,-27.5 358,-42.5 387,-42.5 387,-27.5 358,-27.5"/>
<text text-anchor="start" x="360" y="-33.5" font-family="Ubuntu" font-style="italic" font-size="10.00">int32</text>
<polygon fill="none" stroke="black" points="298,-27 298,-74 388,-74 388,-27 298,-27"/>
</a>
</g>
</g>
<!-- Node_Ja_111&#45;&gt;Node_Ja_100 -->
<g id="edge1" class="edge">
<title>Node_Ja_111:e&#45;&gt;Node_Ja_100:header</title>
<g id="a_edge1"><a xlink:title="Ja_111 &#45;&#45;&gt; Ja_100">
<path fill="none" stroke="#000000" d="M246,-72.5C265.49,-72.5 272.44,-67.61 287.81,-66"/>
<polygon fill="#000000" stroke="#000000" points="288.18,-69.49 298,-65.5 287.84,-62.5 288.18,-69.49"/>
</a>
</g>
</g>
<!-- Node_Ja_111&#45;&gt;Node_Ja_100 -->
<g id="edge2" class="edge">
<title>Node_Ja_111:e&#45;&gt;Node_Ja_100:header</title>
<g id="a_edge2"><a xlink:title="Ja_111 &#45;&#45;&gt; Ja_100">
<path fill="none" stroke="#000000" d="M246,-57.5C265.55,-57.5 272.41,-63.09 287.8,-64.92"/>
<polygon fill="#000000" stroke="#000000" points="287.82,-68.43 298,-65.5 288.21,-61.44 287.82,-68.43"/>
</a>
</g>
</g>
</g>
</svg>
