<?xml version="1.0" encoding="UTF-8" standalone="no"?>
<!DOCTYPE svg PUBLIC "-//W3C//DTD SVG 1.1//EN"
 "http://www.w3.org/Graphics/SVG/1.1/DTD/svg11.dtd">
<!-- Generated by graphviz version 2.43.0 (0)
 -->
<!-- Title: protodot Pages: 1 -->
<svg width="531pt" height="385pt"
 viewBox="0.00 0.00 531.00 384.50" xmlns="http://www.w3.org/2000/svg" xmlns:xlink="http://www.w3.org/1999/xlink">
<g id="graph0" class="graph" transform="scale(1 1) rotate(0) translate(4 380.5)">
<title>protodot</title>
<g id="a_graph0"><a xlink:title="keelson">
<text text-anchor="middle" x="261.5" y="-7.8" font-family="Times,serif" font-size="14.00">keelson</text>
</a>
</g>
<!-- Node_Ja_102 -->
<g id="node1" class="node">
<title>Node_Ja_102</title>
<g id="a_node1"><a xlink:title="NavigationStatus">
<polygon fill="#b2df8a" stroke="transparent" points="332,-27 332,-299 515,-299 515,-27 332,-27"/>
<polygon fill="#33a02c" stroke="transparent" points="333.5,-283 333.5,-298 514.5,-298 514.5,-283 333.5,-283"/>
<text text-anchor="start" x="383.5" y="-289" font-family="Ubuntu" font-size="10.00">enum </text>
<text text-anchor="start" x="414.5" y="-289" font-family="Ubuntu" font-weight="bold" font-size="10.00">NavigationStatus</text>
<polygon fill="#b2df8a" stroke="transparent" points="333.5,-268 333.5,-283 497.5,-283 497.5,-268 333.5,-268"/>
<text text-anchor="start" x="335.5" y="-273" font-family="Ubuntu" font-size="10.00">UNKNOWN</text>
<polygon fill="#b2df8a" stroke="transparent" points="497.5,-268 497.5,-283 514.5,-283 514.5,-268 497.5,-268"/>
<text text-anchor="start" x="499.5" y="-273" font-family="Ubuntu" font-size="10.00">0</text>
<polygon fill="#b2df8a" stroke="transparent" points="333.5,-253 333.5,-268 497.5,-268 497.5,-253 333.5,-253"/>
<text text-anchor="start" x="335.5" y="-258" font-family="Ubuntu" font-size="10.00">UNDER_WAY</text>
<polygon fill="#b2df8a" stroke="transparent" points="497.5,-253 497.5,-268 514.5,-268 514.5,-253 497.5,-253"/>
<text text-anchor="start" x="499.5" y="-258" font-family="Ubuntu" font-size="10.00">1</text>
<polygon fill="#b2df8a" stroke="transparent" points="333.5,-238 333.5,-253 497.5,-253 497.5,-238 333.5,-238"/>
<text text-anchor="start" x="335.5" y="-243" font-family="Ubuntu" font-size="10.00">AT_ANCHOR</text>
<polygon fill="#b2df8a" stroke="transparent" points="497.5,-238 497.5,-253 514.5,-253 514.5,-238 497.5,-238"/>
<text text-anchor="start" x="499.5" y="-243" font-family="Ubuntu" font-size="10.00">2</text>
<polygon fill="#b2df8a" stroke="transparent" points="333.5,-223 333.5,-238 497.5,-238 497.5,-223 333.5,-223"/>
<text text-anchor="start" x="335.5" y="-228" font-family="Ubuntu" font-size="10.00">NOT_UNDER_COMMAND</text>
<polygon fill="#b2df8a" stroke="transparent" points="497.5,-223 497.5,-238 514.5,-238 514.5,-223 497.5,-223"/>
<text text-anchor="start" x="499.5" y="-228" font-family="Ubuntu" font-size="10.00">3</text>
<polygon fill="#b2df8a" stroke="transparent" points="333.5,-208 333.5,-223 497.5,-223 497.5,-208 333.5,-208"/>
<text text-anchor="start" x="335.5" y="-213" font-family="Ubuntu" font-size="10.00">RESTRICTED_MANEUVERABILITY</text>
<polygon fill="#b2df8a" stroke="transparent" points="497.5,-208 497.5,-223 514.5,-223 514.5,-208 497.5,-208"/>
<text text-anchor="start" x="499.5" y="-213" font-family="Ubuntu" font-size="10.00">4</text>
<polygon fill="#b2df8a" stroke="transparent" points="333.5,-193 333.5,-208 497.5,-208 497.5,-193 333.5,-193"/>
<text text-anchor="start" x="335.5" y="-198" font-family="Ubuntu" font-size="10.00">CONSTRAINED_BY_DRAFT</text>
<polygon fill="#b2df8a" stroke="transparent" points="497.5,-193 497.5,-208 514.5,-208 514.5,-193 497.5,-193"/>
<text text-anchor="start" x="499.5" y="-198" font-family="Ubuntu" font-size="10.00">5</text>
<polygon fill="#b2df8a" stroke="transparent" points="333.5,-178 333.5,-193 497.5,-193 497.5,-178 333.5,-178"/>
<text text-anchor="start" x="335.5" y="-183" font-family="Ubuntu" font-size="10.00">MOORING</text>
<polygon fill="#b2df8a" stroke="transparent" points="497.5,-178 497.5,-193 514.5,-193 514.5,-178 497.5,-178"/>
<text text-anchor="start" x="499.5" y="-183" font-family="Ubuntu" font-size="10.00">6</text>
<polygon fill="#b2df8a" stroke="transparent" points="333.5,-163 333.5,-178 497.5,-178 497.5,-163 333.5,-163"/>
<text text-anchor="start" x="335.5" y="-168" font-family="Ubuntu" font-size="10.00">AGROUND</text>
<polygon fill="#b2df8a" stroke="transparent" points="497.5,-163 497.5,-178 514.5,-178 514.5,-163 497.5,-163"/>
<text text-anchor="start" x="499.5" y="-168" font-family="Ubuntu" font-size="10.00">7</text>
<polygon fill="#b2df8a" stroke="transparent" points="333.5,-148 333.5,-163 497.5,-163 497.5,-148 333.5,-148"/>
<text text-anchor="start" x="335.5" y="-153" font-family="Ubuntu" font-size="10.00">FISHING</text>
<polygon fill="#b2df8a" stroke="transparent" points="497.5,-148 497.5,-163 514.5,-163 514.5,-148 497.5,-148"/>
<text text-anchor="start" x="499.5" y="-153" font-family="Ubuntu" font-size="10.00">8</text>
<polygon fill="#b2df8a" stroke="transparent" points="333.5,-133 333.5,-148 497.5,-148 497.5,-133 333.5,-133"/>
<text text-anchor="start" x="335.5" y="-138" font-family="Ubuntu" font-size="10.00">UNDER_WAY_SAILING</text>
<polygon fill="#b2df8a" stroke="transparent" points="497.5,-133 497.5,-148 514.5,-148 514.5,-133 497.5,-133"/>
<text text-anchor="start" x="499.5" y="-138" font-family="Ubuntu" font-size="10.00">9</text>
<polygon fill="#b2df8a" stroke="transparent" points="333.5,-118 333.5,-133 497.5,-133 497.5,-118 333.5,-118"/>
<text text-anchor="start" x="335.5" y="-123" font-family="Ubuntu" font-size="10.00">HSC</text>
<polygon fill="#b2df8a" stroke="transparent" points="497.5,-118 497.5,-133 514.5,-133 514.5,-118 497.5,-118"/>
<text text-anchor="start" x="499.5" y="-123" font-family="Ubuntu" font-size="10.00">10</text>
<polygon fill="#b2df8a" stroke="transparent" points="333.5,-103 333.5,-118 497.5,-118 497.5,-103 333.5,-103"/>
<text text-anchor="start" x="335.5" y="-108" font-family="Ubuntu" font-size="10.00">WIG</text>
<polygon fill="#b2df8a" stroke="transparent" points="497.5,-103 497.5,-118 514.5,-118 514.5,-103 497.5,-103"/>
<text text-anchor="start" x="499.5" y="-108" font-family="Ubuntu" font-size="10.00">11</text>
<polygon fill="#b2df8a" stroke="transparent" points="333.5,-88 333.5,-103 497.5,-103 497.5,-88 333.5,-88"/>
<text text-anchor="start" x="335.5" y="-93" font-family="Ubuntu" font-size="10.00">RESERVED_12</text>
<polygon fill="#b2df8a" stroke="transparent" points="497.5,-88 497.5,-103 514.5,-103 514.5,-88 497.5,-88"/>
<text text-anchor="start" x="499.5" y="-93" font-family="Ubuntu" font-size="10.00">12</text>
<polygon fill="#b2df8a" stroke="transparent" points="333.5,-73 333.5,-88 497.5,-88 497.5,-73 333.5,-73"/>
<text text-anchor="start" x="335.5" y="-78" font-family="Ubuntu" font-size="10.00">RESERVED_13</text>
<polygon fill="#b2df8a" stroke="transparent" points="497.5,-73 497.5,-88 514.5,-88 514.5,-73 497.5,-73"/>
<text text-anchor="start" x="499.5" y="-78" font-family="Ubuntu" font-size="10.00">13</text>
<polygon fill="#b2df8a" stroke="transparent" points="333.5,-58 333.5,-73 497.5,-73 497.5,-58 333.5,-58"/>
<text text-anchor="start" x="335.5" y="-63" font-family="Ubuntu" font-size="10.00">RESERVED_14</text>
<polygon fill="#b2df8a" stroke="transparent" points="497.5,-58 497.5,-73 514.5,-73 514.5,-58 497.5,-58"/>
<text text-anchor="start" x="499.5" y="-63" font-family="Ubuntu" font-size="10.00">14</text>
<polygon fill="#b2df8a" stroke="transparent" points="333.5,-43 333.5,-58 497.5,-58 497.5,-43 333.5,-43"/>
<text text-anchor="start" x="335.5" y="-48" font-family="Ubuntu" font-size="10.00">AIS_SART</text>
<polygon fill="#b2df8a" stroke="transparent" points="497.5,-43 497.5,-58 514.5,-58 514.5,-43 497.5,-43"/>
<text text-anchor="start" x="499.5" y="-48" font-family="Ubuntu" font-size="10.00">15</text>
<polygon fill="#b2df8a" stroke="transparent" points="333.5,-28 333.5,-43 497.5,-43 497.5,-28 333.5,-28"/>
<text text-anchor="start" x="335.5" y="-33" font-family="Ubuntu" font-size="10.00">NOT_DEFINED</text>
<polygon fill="#b2df8a" stroke="transparent" points="497.5,-28 497.5,-43 514.5,-43 514.5,-28 497.5,-28"/>
<text text-anchor="start" x="499.5" y="-33" font-family="Ubuntu" font-size="10.00">16</text>
<polygon fill="none" stroke="black" points="332,-27 332,-299 515,-299 515,-27 332,-27"/>
</a>
</g>
</g>
<!-- Node_Ja_101 -->
<g id="node2" class="node">
<title>Node_Ja_101</title>
<g id="a_node2"><a xlink:title="keelson.VesselNavStatus">
<polygon fill="#fffaf0" stroke="transparent" points="8,-248.5 8,-295.5 280,-295.5 280,-248.5 8,-248.5"/>
<polygon fill="#e31a1c" stroke="transparent" points="9,-279 9,-294 279,-294 279,-279 9,-279"/>
<text text-anchor="start" x="182" y="-285" font-family="Ubuntu" font-weight="bold" font-size="10.00">VesselNavStatus</text>
<text text-anchor="start" x="15" y="-269" font-family="Ubuntu" font-size="10.00">1</text>
<text text-anchor="start" x="26" y="-269" font-family="Ubuntu" font-size="10.00">timestamp</text>
<polygon fill="#fb9a99" stroke="transparent" points="116,-264 116,-279 279,-279 279,-264 116,-264"/>
<text text-anchor="start" x="118" y="-270" font-family="Ubuntu" font-weight="bold" font-size="10.00">google.protobuf.Timestamp</text>
<text text-anchor="start" x="15" y="-254" font-family="Ubuntu" font-size="10.00">2</text>
<text text-anchor="start" x="26" y="-254" font-family="Ubuntu" font-size="10.00">navigation_status</text>
<polygon fill="#b2df8a" stroke="transparent" points="116,-249 116,-264 279,-264 279,-249 116,-249"/>
<text text-anchor="start" x="192" y="-255" font-family="Ubuntu" text-decoration="underline" font-size="10.00">NavigationStatus</text>
<polygon fill="none" stroke="black" points="8,-248.5 8,-295.5 280,-295.5 280,-248.5 8,-248.5"/>
</a>
</g>
</g>
<!-- Node_Ja_101&#45;&gt;Node_Ja_102 -->
<g id="edge2" class="edge">
<title>Node_Ja_101:e&#45;&gt;Node_Ja_102</title>
<g id="a_edge2"><a xlink:title="Ja_101 &#45;&#45;&gt; Ja_102">
<path fill="none" stroke="#008000" d="M280,-256C291.65,-256 303.1,-253.79 314.12,-250.06"/>
<polygon fill="#008000" stroke="#008000" points="315.61,-253.24 323.7,-246.4 313.11,-246.7 315.61,-253.24"/>
</a>
</g>
</g>
<!-- Node_Ja_100 -->
<g id="node3" class="node">
<title>Node_Ja_100</title>
<g id="a_node3"><a xlink:title="google.protobuf.Timestamp">
<polygon fill="#fffaf0" stroke="transparent" points="378.5,-325.5 378.5,-372.5 468.5,-372.5 468.5,-325.5 378.5,-325.5"/>
<polygon fill="#e31a1c" stroke="transparent" points="379.5,-356 379.5,-371 467.5,-371 467.5,-356 379.5,-356"/>
<text text-anchor="start" x="401.5" y="-362" font-family="Ubuntu" font-weight="bold" font-size="10.00">Timestamp</text>
<text text-anchor="start" x="385.5" y="-346" font-family="Ubuntu" font-size="10.00">1</text>
<text text-anchor="start" x="396.5" y="-346" font-family="Ubuntu" font-size="10.00">seconds</text>
<polygon fill="#a6cee3" stroke="transparent" points="438.5,-341 438.5,-356 467.5,-356 467.5,-341 438.5,-341"/>
<text text-anchor="start" x="440.5" y="-347" font-family="Ubuntu" font-style="italic" font-size="10.00">int64</text>
<text text-anchor="start" x="385.5" y="-331" font-family="Ubuntu" font-size="10.00">2</text>
<text text-anchor="start" x="396.5" y="-331" font-family="Ubuntu" font-size="10.00">nanos</text>
<polygon fill="#a6cee3" stroke="transparent" points="438.5,-326 438.5,-341 467.5,-341 467.5,-326 438.5,-326"/>
<text text-anchor="start" x="440.5" y="-332" font-family="Ubuntu" font-style="italic" font-size="10.00">int32</text>
<polygon fill="none" stroke="black" points="378.5,-325.5 378.5,-372.5 468.5,-372.5 468.5,-325.5 378.5,-325.5"/>
</a>
</g>
</g>
<!-- Node_Ja_101&#45;&gt;Node_Ja_100 -->
<g id="edge1" class="edge">
<title>Node_Ja_101:e&#45;&gt;Node_Ja_100:header</title>
<g id="a_edge1"><a xlink:title="Ja_101 &#45;&#45;&gt; Ja_100">
<path fill="none" stroke="#000000" d="M280,-271C286.38,-271 347.31,-337.82 370.31,-358.18"/>
<polygon fill="#000000" stroke="#000000" points="368.32,-361.06 378.5,-364 372.37,-355.36 368.32,-361.06"/>
</a>
</g>
</g>
</g>
</svg>
