<?xml version="1.0" encoding="UTF-8" standalone="no"?>
<!DOCTYPE svg PUBLIC "-//W3C//DTD SVG 1.1//EN"
 "http://www.w3.org/Graphics/SVG/1.1/DTD/svg11.dtd">
<!-- Generated by graphviz version 2.43.0 (0)
 -->
<!-- Title: protodot Pages: 1 -->
<svg width="426pt" height="265pt"
 viewBox="0.00 0.00 426.00 264.50" xmlns="http://www.w3.org/2000/svg" xmlns:xlink="http://www.w3.org/1999/xlink">
<g id="graph0" class="graph" transform="scale(1 1) rotate(0) translate(4 260.5)">
<title>protodot</title>
<g id="a_graph0"><a xlink:title="keelson">
<text text-anchor="middle" x="209" y="-7.8" font-family="Times,serif" font-size="14.00">keelson</text>
</a>
</g>
<!-- Node_Ja_100 -->
<g id="node1" class="node">
<title>Node_Ja_100</title>
<g id="a_node1"><a xlink:title="google.protobuf.Timestamp">
<polygon fill="#fffaf0" stroke="transparent" points="309,-205.5 309,-252.5 399,-252.5 399,-205.5 309,-205.5"/>
<polygon fill="#e31a1c" stroke="transparent" points="310,-236 310,-251 398,-251 398,-236 310,-236"/>
<text text-anchor="start" x="332" y="-242" font-family="Ubuntu" font-weight="bold" font-size="10.00">Timestamp</text>
<text text-anchor="start" x="316" y="-226" font-family="Ubuntu" font-size="10.00">1</text>
<text text-anchor="start" x="327" y="-226" font-family="Ubuntu" font-size="10.00">seconds</text>
<polygon fill="#a6cee3" stroke="transparent" points="369,-221 369,-236 398,-236 398,-221 369,-221"/>
<text text-anchor="start" x="371" y="-227" font-family="Ubuntu" font-style="italic" font-size="10.00">int64</text>
<text text-anchor="start" x="316" y="-211" font-family="Ubuntu" font-size="10.00">2</text>
<text text-anchor="start" x="327" y="-211" font-family="Ubuntu" font-size="10.00">nanos</text>
<polygon fill="#a6cee3" stroke="transparent" points="369,-206 369,-221 398,-221 398,-206 369,-206"/>
<text text-anchor="start" x="371" y="-212" font-family="Ubuntu" font-style="italic" font-size="10.00">int32</text>
<polygon fill="none" stroke="black" points="309,-205.5 309,-252.5 399,-252.5 399,-205.5 309,-205.5"/>
</a>
</g>
</g>
<!-- Node_Ja_105 -->
<g id="node2" class="node">
<title>Node_Ja_105</title>
<g id="a_node2"><a xlink:title="Type">
<polygon fill="#b2df8a" stroke="transparent" points="298,-27 298,-179 410,-179 410,-27 298,-27"/>
<polygon fill="#33a02c" stroke="transparent" points="299,-163 299,-178 409,-178 409,-163 299,-163"/>
<text text-anchor="start" x="348" y="-169" font-family="Ubuntu" font-size="10.00">enum </text>
<text text-anchor="start" x="379" y="-169" font-family="Ubuntu" font-weight="bold" font-size="10.00">Type</text>
<polygon fill="#b2df8a" stroke="transparent" points="299,-148 299,-163 398,-163 398,-148 299,-148"/>
<text text-anchor="start" x="301" y="-153" font-family="Ubuntu" font-size="10.00">TYPE_UNSPECIFIED</text>
<polygon fill="#b2df8a" stroke="transparent" points="398,-148 398,-163 409,-163 409,-148 398,-148"/>
<text text-anchor="start" x="400" y="-153" font-family="Ubuntu" font-size="10.00">0</text>
<polygon fill="#b2df8a" stroke="transparent" points="299,-133 299,-148 398,-148 398,-133 299,-133"/>
<text text-anchor="start" x="301" y="-138" font-family="Ubuntu" font-size="10.00">NONE</text>
<polygon fill="#b2df8a" stroke="transparent" points="398,-133 398,-148 409,-148 409,-133 398,-133"/>
<text text-anchor="start" x="400" y="-138" font-family="Ubuntu" font-size="10.00">1</text>
<polygon fill="#b2df8a" stroke="transparent" points="299,-118 299,-133 398,-133 398,-118 299,-118"/>
<text text-anchor="start" x="301" y="-123" font-family="Ubuntu" font-size="10.00">RAIN</text>
<polygon fill="#b2df8a" stroke="transparent" points="398,-118 398,-133 409,-133 409,-118 398,-118"/>
<text text-anchor="start" x="400" y="-123" font-family="Ubuntu" font-size="10.00">2</text>
<polygon fill="#b2df8a" stroke="transparent" points="299,-103 299,-118 398,-118 398,-103 299,-103"/>
<text text-anchor="start" x="301" y="-108" font-family="Ubuntu" font-size="10.00">DRIZZLE</text>
<polygon fill="#b2df8a" stroke="transparent" points="398,-103 398,-118 409,-118 409,-103 398,-103"/>
<text text-anchor="start" x="400" y="-108" font-family="Ubuntu" font-size="10.00">3</text>
<polygon fill="#b2df8a" stroke="transparent" points="299,-88 299,-103 398,-103 398,-88 299,-88"/>
<text text-anchor="start" x="301" y="-93" font-family="Ubuntu" font-size="10.00">SNOW</text>
<polygon fill="#b2df8a" stroke="transparent" points="398,-88 398,-103 409,-103 409,-88 398,-88"/>
<text text-anchor="start" x="400" y="-93" font-family="Ubuntu" font-size="10.00">4</text>
<polygon fill="#b2df8a" stroke="transparent" points="299,-73 299,-88 398,-88 398,-73 299,-73"/>
<text text-anchor="start" x="301" y="-78" font-family="Ubuntu" font-size="10.00">SLEET</text>
<polygon fill="#b2df8a" stroke="transparent" points="398,-73 398,-88 409,-88 409,-73 398,-73"/>
<text text-anchor="start" x="400" y="-78" font-family="Ubuntu" font-size="10.00">5</text>
<polygon fill="#b2df8a" stroke="transparent" points="299,-58 299,-73 398,-73 398,-58 299,-58"/>
<text text-anchor="start" x="301" y="-63" font-family="Ubuntu" font-size="10.00">HAIL</text>
<polygon fill="#b2df8a" stroke="transparent" points="398,-58 398,-73 409,-73 409,-58 398,-58"/>
<text text-anchor="start" x="400" y="-63" font-family="Ubuntu" font-size="10.00">6</text>
<polygon fill="#b2df8a" stroke="transparent" points="299,-43 299,-58 398,-58 398,-43 299,-43"/>
<text text-anchor="start" x="301" y="-48" font-family="Ubuntu" font-size="10.00">FREEZING_RAIN</text>
<polygon fill="#b2df8a" stroke="transparent" points="398,-43 398,-58 409,-58 409,-43 398,-43"/>
<text text-anchor="start" x="400" y="-48" font-family="Ubuntu" font-size="10.00">7</text>
<polygon fill="#b2df8a" stroke="transparent" points="299,-28 299,-43 398,-43 398,-28 299,-28"/>
<text text-anchor="start" x="301" y="-33" font-family="Ubuntu" font-size="10.00">MIXED</text>
<polygon fill="#b2df8a" stroke="transparent" points="398,-28 398,-43 409,-43 409,-28 398,-28"/>
<text text-anchor="start" x="400" y="-33" font-family="Ubuntu" font-size="10.00">8</text>
<polygon fill="none" stroke="black" points="298,-27 298,-179 410,-179 410,-27 298,-27"/>
</a>
</g>
</g>
<!-- Node_Ja_104 -->
<g id="node3" class="node">
<title>Node_Ja_104</title>
<g id="a_node3"><a xlink:title="keelson.PrecipitationType">
<polygon fill="#fffaf0" stroke="transparent" points="8,-158.5 8,-205.5 246,-205.5 246,-158.5 8,-158.5"/>
<polygon fill="#e31a1c" stroke="transparent" points="9,-189 9,-204 245,-204 245,-189 9,-189"/>
<text text-anchor="start" x="142" y="-195" font-family="Ubuntu" font-weight="bold" font-size="10.00">PrecipitationType</text>
<text text-anchor="start" x="15" y="-179" font-family="Ubuntu" font-size="10.00">1</text>
<text text-anchor="start" x="26" y="-179" font-family="Ubuntu" font-size="10.00">timestamp</text>
<polygon fill="#fb9a99" stroke="transparent" points="82,-174 82,-189 245,-189 245,-174 82,-174"/>
<text text-anchor="start" x="84" y="-180" font-family="Ubuntu" font-weight="bold" font-size="10.00">google.protobuf.Timestamp</text>
<text text-anchor="start" x="15" y="-164" font-family="Ubuntu" font-size="10.00">2</text>
<text text-anchor="start" x="26" y="-164" font-family="Ubuntu" font-size="10.00">type</text>
<polygon fill="#b2df8a" stroke="transparent" points="82,-159 82,-174 245,-174 245,-159 82,-159"/>
<text text-anchor="start" x="220" y="-165" font-family="Ubuntu" text-decoration="underline" font-size="10.00">Type</text>
<polygon fill="none" stroke="black" points="8,-158.5 8,-205.5 246,-205.5 246,-158.5 8,-158.5"/>
</a>
</g>
</g>
<!-- Node_Ja_104&#45;&gt;Node_Ja_100 -->
<g id="edge2" class="edge">
<title>Node_Ja_104:e&#45;&gt;Node_Ja_100:header</title>
<g id="a_edge2"><a xlink:title="Ja_104 &#45;&#45;&gt; Ja_100">
<path fill="none" stroke="#000000" d="M246,-181C281.73,-181 272.03,-232.3 298.89,-242.31"/>
<polygon fill="#000000" stroke="#000000" points="298.56,-245.81 309,-244 299.71,-238.9 298.56,-245.81"/>
</a>
</g>
</g>
<!-- Node_Ja_104&#45;&gt;Node_Ja_105 -->
<g id="edge1" class="edge">
<title>Node_Ja_104:e&#45;&gt;Node_Ja_105</title>
<g id="a_edge1"><a xlink:title="Ja_104 &#45;&#45;&gt; Ja_105">
<path fill="none" stroke="#008000" d="M246,-166C257.87,-166 269.59,-163.08 280.67,-158.51"/>
<polygon fill="#008000" stroke="#008000" points="282.19,-161.66 289.81,-154.3 279.27,-155.3 282.19,-161.66"/>
</a>
</g>
</g>
</g>
</svg>
