<?xml version="1.0" encoding="UTF-8" standalone="no"?>
<!DOCTYPE svg PUBLIC "-//W3C//DTD SVG 1.1//EN"
 "http://www.w3.org/Graphics/SVG/1.1/DTD/svg11.dtd">
<!-- Generated by graphviz version 2.43.0 (0)
 -->
<!-- Title: protodot Pages: 1 -->
<svg width="567pt" height="190pt"
 viewBox="0.00 0.00 567.00 190.00" xmlns="http://www.w3.org/2000/svg" xmlns:xlink="http://www.w3.org/1999/xlink">
<g id="graph0" class="graph" transform="scale(1 1) rotate(0) translate(4 186)">
<title>protodot</title>
<g id="a_graph0"><a xlink:title="keelson">
<text text-anchor="middle" x="279.5" y="-7.8" font-family="Times,serif" font-size="14.00">keelson</text>
</a>
</g>
<!-- Node_Ja_101 -->
<g id="node1" class="node">
<title>Node_Ja_101</title>
<g id="a_node1"><a xlink:title="keelson.ROCStatus">
<polygon fill="#fffaf0" stroke="transparent" points="8,-118 8,-165 263,-165 263,-118 8,-118"/>
<polygon fill="#e31a1c" stroke="transparent" points="9.5,-148.5 9.5,-163.5 262.5,-163.5 262.5,-148.5 9.5,-148.5"/>
<text text-anchor="start" x="200.5" y="-154.5" font-family="Ubuntu" font-weight="bold" font-size="10.00">ROCStatus</text>
<text text-anchor="start" x="32.5" y="-138.5" font-family="Ubuntu" font-size="10.00">1</text>
<text text-anchor="start" x="43.5" y="-138.5" font-family="Ubuntu" font-size="10.00">timestamp</text>
<polygon fill="#fb9a99" stroke="transparent" points="99.5,-133.5 99.5,-148.5 262.5,-148.5 262.5,-133.5 99.5,-133.5"/>
<text text-anchor="start" x="101.5" y="-139.5" font-family="Ubuntu" font-weight="bold" font-size="10.00">google.protobuf.Timestamp</text>
<text text-anchor="start" x="11.5" y="-123.5" font-family="Ubuntu" font-size="10.00">[...]</text>
<text text-anchor="start" x="32.5" y="-123.5" font-family="Ubuntu" font-size="10.00">2</text>
<text text-anchor="start" x="43.5" y="-123.5" font-family="Ubuntu" font-size="10.00">entities</text>
<polygon fill="#fb9a99" stroke="transparent" points="99.5,-118.5 99.5,-133.5 262.5,-133.5 262.5,-118.5 99.5,-118.5"/>
<text text-anchor="start" x="203.5" y="-124.5" font-family="Ubuntu" font-weight="bold" font-size="10.00">ROCEntity</text>
<polygon fill="none" stroke="black" points="8,-118 8,-165 263,-165 263,-118 8,-118"/>
</a>
</g>
</g>
<!-- Node_Ja_100 -->
<g id="node2" class="node">
<title>Node_Ja_100</title>
<g id="a_node2"><a xlink:title="google.protobuf.Timestamp">
<polygon fill="#fffaf0" stroke="transparent" points="318,-131 318,-178 408,-178 408,-131 318,-131"/>
<polygon fill="#e31a1c" stroke="transparent" points="319,-161.5 319,-176.5 407,-176.5 407,-161.5 319,-161.5"/>
<text text-anchor="start" x="341" y="-167.5" font-family="Ubuntu" font-weight="bold" font-size="10.00">Timestamp</text>
<text text-anchor="start" x="325" y="-151.5" font-family="Ubuntu" font-size="10.00">1</text>
<text text-anchor="start" x="336" y="-151.5" font-family="Ubuntu" font-size="10.00">seconds</text>
<polygon fill="#a6cee3" stroke="transparent" points="378,-146.5 378,-161.5 407,-161.5 407,-146.5 378,-146.5"/>
<text text-anchor="start" x="380" y="-152.5" font-family="Ubuntu" font-style="italic" font-size="10.00">int64</text>
<text text-anchor="start" x="325" y="-136.5" font-family="Ubuntu" font-size="10.00">2</text>
<text text-anchor="start" x="336" y="-136.5" font-family="Ubuntu" font-size="10.00">nanos</text>
<polygon fill="#a6cee3" stroke="transparent" points="378,-131.5 378,-146.5 407,-146.5 407,-131.5 378,-131.5"/>
<text text-anchor="start" x="380" y="-137.5" font-family="Ubuntu" font-style="italic" font-size="10.00">int32</text>
<polygon fill="none" stroke="black" points="318,-131 318,-178 408,-178 408,-131 318,-131"/>
</a>
</g>
</g>
<!-- Node_Ja_101&#45;&gt;Node_Ja_100 -->
<g id="edge1" class="edge">
<title>Node_Ja_101:e&#45;&gt;Node_Ja_100:header</title>
<g id="a_edge1"><a xlink:title="Ja_101 &#45;&#45;&gt; Ja_100">
<path fill="none" stroke="#000000" d="M263.5,-140.5C287.08,-140.5 290.12,-161.92 307.92,-167.94"/>
<polygon fill="#000000" stroke="#000000" points="307.58,-171.43 318,-169.5 308.65,-164.51 307.58,-171.43"/>
</a>
</g>
</g>
<!-- Node_Ja_102 -->
<g id="node3" class="node">
<title>Node_Ja_102</title>
<g id="a_node3"><a xlink:title="keelson.ROCStatus.ROCEntity">
<polygon fill="#fffaf0" stroke="transparent" points="315,-58 315,-105 411,-105 411,-58 315,-58"/>
<polygon fill="#e31a1c" stroke="transparent" points="316,-88.5 316,-103.5 410,-103.5 410,-88.5 316,-88.5"/>
<text text-anchor="start" x="351" y="-94.5" font-family="Ubuntu" font-weight="bold" font-size="10.00">ROCEntity</text>
<text text-anchor="start" x="322" y="-78.5" font-family="Ubuntu" font-size="10.00">1</text>
<text text-anchor="start" x="333" y="-78.5" font-family="Ubuntu" font-size="10.00">entity_id</text>
<polygon fill="#a6cee3" stroke="transparent" points="378,-73.5 378,-88.5 410,-88.5 410,-73.5 378,-73.5"/>
<text text-anchor="start" x="380" y="-79.5" font-family="Ubuntu" font-style="italic" font-size="10.00">string</text>
<text text-anchor="start" x="322" y="-63.5" font-family="Ubuntu" font-size="10.00">2</text>
<text text-anchor="start" x="333" y="-63.5" font-family="Ubuntu" font-size="10.00">state</text>
<polygon fill="#b2df8a" stroke="transparent" points="378,-58.5 378,-73.5 410,-73.5 410,-58.5 378,-58.5"/>
<text text-anchor="start" x="382" y="-64.5" font-family="Ubuntu" text-decoration="underline" font-size="10.00">State</text>
<polygon fill="none" stroke="black" points="315,-58 315,-105 411,-105 411,-58 315,-58"/>
</a>
</g>
</g>
<!-- Node_Ja_101&#45;&gt;Node_Ja_102 -->
<g id="edge2" class="edge">
<title>Node_Ja_101:e&#45;&gt;Node_Ja_102:header</title>
<g id="a_edge2"><a xlink:title="Ja_101 &#45;&#45;&gt; Ja_102">
<path fill="none" stroke="#000000" d="M263.5,-125.5C285.87,-125.5 288.44,-104.47 304.93,-98.23"/>
<polygon fill="#000000" stroke="#000000" points="305.74,-101.64 315,-96.5 304.55,-94.74 305.74,-101.64"/>
</a>
</g>
</g>
<!-- Node_Ja_103 -->
<g id="node4" class="node">
<title>Node_Ja_103</title>
<g id="a_node4"><a xlink:title="State">
<polygon fill="#b2df8a" stroke="transparent" points="463,-27 463,-104 551,-104 551,-27 463,-27"/>
<polygon fill="#33a02c" stroke="transparent" points="464,-87.5 464,-102.5 550,-102.5 550,-87.5 464,-87.5"/>
<text text-anchor="start" x="486" y="-93.5" font-family="Ubuntu" font-size="10.00">enum </text>
<text text-anchor="start" x="517" y="-93.5" font-family="Ubuntu" font-weight="bold" font-size="10.00">State</text>
<polygon fill="#b2df8a" stroke="transparent" points="464,-72.5 464,-87.5 539,-87.5 539,-72.5 464,-72.5"/>
<text text-anchor="start" x="466" y="-77.5" font-family="Ubuntu" font-size="10.00">UNKNOWN</text>
<polygon fill="#b2df8a" stroke="transparent" points="539,-72.5 539,-87.5 550,-87.5 550,-72.5 539,-72.5"/>
<text text-anchor="start" x="541" y="-77.5" font-family="Ubuntu" font-size="10.00">0</text>
<polygon fill="#b2df8a" stroke="transparent" points="464,-57.5 464,-72.5 539,-72.5 539,-57.5 464,-57.5"/>
<text text-anchor="start" x="466" y="-62.5" font-family="Ubuntu" font-size="10.00">UNASSIGNED</text>
<polygon fill="#b2df8a" stroke="transparent" points="539,-57.5 539,-72.5 550,-72.5 550,-57.5 539,-57.5"/>
<text text-anchor="start" x="541" y="-62.5" font-family="Ubuntu" font-size="10.00">1</text>
<polygon fill="#b2df8a" stroke="transparent" points="464,-42.5 464,-57.5 539,-57.5 539,-42.5 464,-42.5"/>
<text text-anchor="start" x="466" y="-47.5" font-family="Ubuntu" font-size="10.00">MONITORING</text>
<polygon fill="#b2df8a" stroke="transparent" points="539,-42.5 539,-57.5 550,-57.5 550,-42.5 539,-42.5"/>
<text text-anchor="start" x="541" y="-47.5" font-family="Ubuntu" font-size="10.00">2</text>
<polygon fill="#b2df8a" stroke="transparent" points="464,-27.5 464,-42.5 539,-42.5 539,-27.5 464,-27.5"/>
<text text-anchor="start" x="466" y="-32.5" font-family="Ubuntu" font-size="10.00">CONTROLLING</text>
<polygon fill="#b2df8a" stroke="transparent" points="539,-27.5 539,-42.5 550,-42.5 550,-27.5 539,-27.5"/>
<text text-anchor="start" x="541" y="-32.5" font-family="Ubuntu" font-size="10.00">3</text>
<polygon fill="none" stroke="black" points="463,-27 463,-104 551,-104 551,-27 463,-27"/>
</a>
</g>
</g>
<!-- Node_Ja_102&#45;&gt;Node_Ja_103 -->
<g id="edge3" class="edge">
<title>Node_Ja_102:e&#45;&gt;Node_Ja_103</title>
<g id="a_edge3"><a xlink:title="Ja_102 &#45;&#45;&gt; Ja_103">
<path fill="none" stroke="#008000" d="M411,-65.5C421.86,-65.5 433.42,-65.5 444.6,-65.5"/>
<polygon fill="#008000" stroke="#008000" points="444.72,-69 454.72,-65.5 444.72,-62 444.72,-69"/>
</a>
</g>
</g>
</g>
</svg>
