<?xml version="1.0" encoding="UTF-8" standalone="no"?>
<!DOCTYPE svg PUBLIC "-//W3C//DTD SVG 1.1//EN"
 "http://www.w3.org/Graphics/SVG/1.1/DTD/svg11.dtd">
<!-- Generated by graphviz version 2.43.0 (0)
 -->
<!-- Title: protodot Pages: 1 -->
<svg width="404pt" height="102pt"
 viewBox="0.00 0.00 404.00 102.00" xmlns="http://www.w3.org/2000/svg" xmlns:xlink="http://www.w3.org/1999/xlink">
<g id="graph0" class="graph" transform="scale(1 1) rotate(0) translate(4 98)">
<title>protodot</title>
<g id="a_graph0"><a xlink:title="keelson">
<text text-anchor="middle" x="198" y="-7.8" font-family="Times,serif" font-size="14.00">keelson</text>
</a>
</g>
<!-- Node_Ja_109 -->
<g id="node1" class="node">
<title>Node_Ja_109</title>
<g id="a_node1"><a xlink:title="keelson.TimestampedBool">
<polygon fill="#fffaf0" stroke="transparent" points="8,-43 8,-90 246,-90 246,-43 8,-43"/>
<polygon fill="#e31a1c" stroke="transparent" points="9,-73.5 9,-88.5 245,-88.5 245,-73.5 9,-73.5"/>
<text text-anchor="start" x="140" y="-79.5" font-family="Ubuntu" font-weight="bold" font-size="10.00">TimestampedBool</text>
<text text-anchor="start" x="15" y="-63.5" font-family="Ubuntu" font-size="10.00">1</text>
<text text-anchor="start" x="26" y="-63.5" font-family="Ubuntu" font-size="10.00">timestamp</text>
<polygon fill="#fb9a99" stroke="transparent" points="82,-58.5 82,-73.5 245,-73.5 245,-58.5 82,-58.5"/>
<text text-anchor="start" x="84" y="-64.5" font-family="Ubuntu" font-weight="bold" font-size="10.00">google.protobuf.Timestamp</text>
<text text-anchor="start" x="15" y="-48.5" font-family="Ubuntu" font-size="10.00">2</text>
<text text-anchor="start" x="26" y="-48.5" font-family="Ubuntu" font-size="10.00">value</text>
<polygon fill="#a6cee3" stroke="transparent" points="82,-43.5 82,-58.5 245,-58.5 245,-43.5 82,-43.5"/>
<text text-anchor="start" x="221" y="-49.5" font-family="Ubuntu" font-style="italic" font-size="10.00">bool</text>
<polygon fill="none" stroke="black" points="8,-43 8,-90 246,-90 246,-43 8,-43"/>
</a>
</g>
</g>
<!-- Node_Ja_100 -->
<g id="node2" class="node">
<title>Node_Ja_100</title>
<g id="a_node2"><a xlink:title="google.protobuf.Timestamp">
<polygon fill="#fffaf0" stroke="transparent" points="298,-27 298,-74 388,-74 388,-27 298,-27"/>
<polygon fill="#e31a1c" stroke="transparent" points="299,-57.5 299,-72.5 387,-72.5 387,-57.5 299,-57.5"/>
<text text-anchor="start" x="321" y="-63.5" font-family="Ubuntu" font-weight="bold" font-size="10.00">Timestamp</text>
<text text-anchor="start" x="305" y="-47.5" font-family="Ubuntu" font-size="10.00">1</text>
<text text-anchor="start" x="316" y="-47.5" font-family="Ubuntu" font-size="10.00">seconds</text>
<polygon fill="#a6cee3" stroke="transparent" points="358,-42.5 358,-57.5 387,-57.5 387,-42.5 358,-42.5"/>
<text text-anchor="start" x="360" y="-48.5" font-family="Ubuntu" font-style="italic" font-size="10.00">int64</text>
<text text-anchor="start" x="305" y="-32.5" font-family="Ubuntu" font-size="10.00">2</text>
<text text-anchor="start" x="316" y="-32.5" font-family="Ubuntu" font-size="10.00">nanos</text>
<polygon fill="#a6cee3" stroke="transparent" points="358,-27.5 358,-42.5 387,-42.5 387,-27.5 358,-27.5"/>
<text text-anchor="start" x="360" y="-33.5" font-family="Ubuntu" font-style="italic" font-size="10.00">int32</text>
<polygon fill="none" stroke="black" points="298,-27 298,-74 388,-74 388,-27 298,-27"/>
</a>
</g>
</g>
<!-- Node_Ja_109&#45;&gt;Node_Ja_100 -->
<g id="edge1" class="edge">
<title>Node_Ja_109:e&#45;&gt;Node_Ja_100:header</title>
<g id="a_edge1"><a xlink:title="Ja_109 &#45;&#45;&gt; Ja_100">
<path fill="none" stroke="#000000" d="M246,-65.5C265.32,-65.5 272.53,-65.5 287.87,-65.5"/>
<polygon fill="#000000" stroke="#000000" points="288,-69 298,-65.5 288,-62 288,-69"/>
</a>
</g>
</g>
</g>
</svg>
