<?xml version="1.0" encoding="UTF-8" standalone="no"?>
<!DOCTYPE svg PUBLIC "-//W3C//DTD SVG 1.1//EN"
 "http://www.w3.org/Graphics/SVG/1.1/DTD/svg11.dtd">
<!-- Generated by graphviz version 2.43.0 (0)
 -->
<!-- Title: protodot Pages: 1 -->
<svg width="532pt" height="265pt"
 viewBox="0.00 0.00 532.00 264.50" xmlns="http://www.w3.org/2000/svg" xmlns:xlink="http://www.w3.org/1999/xlink">
<g id="graph0" class="graph" transform="scale(1 1) rotate(0) translate(4 260.5)">
<title>protodot</title>
<g id="a_graph0"><a xlink:title="keelson">
<text text-anchor="middle" x="262" y="-7.8" font-family="Times,serif" font-size="14.00">keelson</text>
</a>
</g>
<!-- Node_Ja_135 -->
<g id="node1" class="node">
<title>Node_Ja_135</title>
<g id="a_node1"><a xlink:title="keelson.RouteStatusUpdate">
<polygon fill="#fffaf0" stroke="transparent" points="8,-112.5 8,-219.5 300,-219.5 300,-112.5 8,-112.5"/>
<polygon fill="#e31a1c" stroke="transparent" points="9,-203 9,-218 299,-218 299,-203 9,-203"/>
<text text-anchor="start" x="187" y="-209" font-family="Ubuntu" font-weight="bold" font-size="10.00">RouteStatusUpdate</text>
<text text-anchor="start" x="15" y="-193" font-family="Ubuntu" font-size="10.00">1</text>
<text text-anchor="start" x="26" y="-193" font-family="Ubuntu" font-size="10.00">timestamp</text>
<polygon fill="#fb9a99" stroke="transparent" points="136,-188 136,-203 299,-203 299,-188 136,-188"/>
<text text-anchor="start" x="138" y="-194" font-family="Ubuntu" font-weight="bold" font-size="10.00">google.protobuf.Timestamp</text>
<text text-anchor="start" x="15" y="-178" font-family="Ubuntu" font-size="10.00">2</text>
<text text-anchor="start" x="26" y="-178" font-family="Ubuntu" font-size="10.00">route_id</text>
<polygon fill="#a6cee3" stroke="transparent" points="136,-173 136,-188 299,-188 299,-173 136,-173"/>
<text text-anchor="start" x="269" y="-179" font-family="Ubuntu" font-style="italic" font-size="10.00">string</text>
<text text-anchor="start" x="15" y="-163" font-family="Ubuntu" font-size="10.00">3</text>
<text text-anchor="start" x="26" y="-163" font-family="Ubuntu" font-size="10.00">route_edition_number</text>
<polygon fill="#a6cee3" stroke="transparent" points="136,-158 136,-173 299,-173 299,-158 136,-158"/>
<text text-anchor="start" x="266" y="-164" font-family="Ubuntu" font-style="italic" font-size="10.00">uint32</text>
<text text-anchor="start" x="15" y="-148" font-family="Ubuntu" font-size="10.00">4</text>
<text text-anchor="start" x="26" y="-148" font-family="Ubuntu" font-size="10.00">status</text>
<polygon fill="#b2df8a" stroke="transparent" points="136,-143 136,-158 299,-158 299,-143 136,-143"/>
<text text-anchor="start" x="237" y="-149" font-family="Ubuntu" text-decoration="underline" font-size="10.00">RouteStatus</text>
<text text-anchor="start" x="15" y="-133" font-family="Ubuntu" font-size="10.00">5</text>
<text text-anchor="start" x="26" y="-133" font-family="Ubuntu" font-size="10.00">changed_by</text>
<polygon fill="#a6cee3" stroke="transparent" points="136,-128 136,-143 299,-143 299,-128 136,-128"/>
<text text-anchor="start" x="269" y="-134" font-family="Ubuntu" font-style="italic" font-size="10.00">string</text>
<text text-anchor="start" x="15" y="-118" font-family="Ubuntu" font-size="10.00">6</text>
<text text-anchor="start" x="26" y="-118" font-family="Ubuntu" font-size="10.00">note</text>
<polygon fill="#a6cee3" stroke="transparent" points="136,-113 136,-128 299,-128 299,-113 136,-113"/>
<text text-anchor="start" x="269" y="-119" font-family="Ubuntu" font-style="italic" font-size="10.00">string</text>
<polygon fill="none" stroke="black" points="8,-112.5 8,-219.5 300,-219.5 300,-112.5 8,-112.5"/>
</a>
</g>
</g>
<!-- Node_Ja_114 -->
<g id="node2" class="node">
<title>Node_Ja_114</title>
<g id="a_node2"><a xlink:title="RouteStatus">
<polygon fill="#b2df8a" stroke="transparent" points="352,-27 352,-179 516,-179 516,-27 352,-27"/>
<polygon fill="#33a02c" stroke="transparent" points="353,-163 353,-178 515,-178 515,-163 353,-163"/>
<text text-anchor="start" x="413" y="-169" font-family="Ubuntu" font-size="10.00">enum </text>
<text text-anchor="start" x="444" y="-169" font-family="Ubuntu" font-weight="bold" font-size="10.00">RouteStatus</text>
<polygon fill="#b2df8a" stroke="transparent" points="353,-148 353,-163 504,-163 504,-148 353,-148"/>
<text text-anchor="start" x="355" y="-153" font-family="Ubuntu" font-size="10.00">ROUTE_STATUS_UNSPECIFIED</text>
<polygon fill="#b2df8a" stroke="transparent" points="504,-148 504,-163 515,-163 515,-148 504,-148"/>
<text text-anchor="start" x="506" y="-153" font-family="Ubuntu" font-size="10.00">0</text>
<polygon fill="#b2df8a" stroke="transparent" points="353,-133 353,-148 504,-148 504,-133 353,-133"/>
<text text-anchor="start" x="355" y="-138" font-family="Ubuntu" font-size="10.00">INITIAL</text>
<polygon fill="#b2df8a" stroke="transparent" points="504,-133 504,-148 515,-148 515,-133 504,-133"/>
<text text-anchor="start" x="506" y="-138" font-family="Ubuntu" font-size="10.00">1</text>
<polygon fill="#b2df8a" stroke="transparent" points="353,-118 353,-133 504,-133 504,-118 353,-118"/>
<text text-anchor="start" x="355" y="-123" font-family="Ubuntu" font-size="10.00">PLANNED</text>
<polygon fill="#b2df8a" stroke="transparent" points="504,-118 504,-133 515,-133 515,-118 504,-118"/>
<text text-anchor="start" x="506" y="-123" font-family="Ubuntu" font-size="10.00">2</text>
<polygon fill="#b2df8a" stroke="transparent" points="353,-103 353,-118 504,-118 504,-103 353,-103"/>
<text text-anchor="start" x="355" y="-108" font-family="Ubuntu" font-size="10.00">RECOMMENDED</text>
<polygon fill="#b2df8a" stroke="transparent" points="504,-103 504,-118 515,-118 515,-103 504,-103"/>
<text text-anchor="start" x="506" y="-108" font-family="Ubuntu" font-size="10.00">3</text>
<polygon fill="#b2df8a" stroke="transparent" points="353,-88 353,-103 504,-103 504,-88 353,-88"/>
<text text-anchor="start" x="355" y="-93" font-family="Ubuntu" font-size="10.00">ACKNOWLEDGED</text>
<polygon fill="#b2df8a" stroke="transparent" points="504,-88 504,-103 515,-103 515,-88 504,-88"/>
<text text-anchor="start" x="506" y="-93" font-family="Ubuntu" font-size="10.00">4</text>
<polygon fill="#b2df8a" stroke="transparent" points="353,-73 353,-88 504,-88 504,-73 353,-73"/>
<text text-anchor="start" x="355" y="-78" font-family="Ubuntu" font-size="10.00">TERMINATED</text>
<polygon fill="#b2df8a" stroke="transparent" points="504,-73 504,-88 515,-88 515,-73 504,-73"/>
<text text-anchor="start" x="506" y="-78" font-family="Ubuntu" font-size="10.00">6</text>
<polygon fill="#b2df8a" stroke="transparent" points="353,-58 353,-73 504,-73 504,-58 353,-58"/>
<text text-anchor="start" x="355" y="-63" font-family="Ubuntu" font-size="10.00">ERRORS</text>
<polygon fill="#b2df8a" stroke="transparent" points="504,-58 504,-73 515,-73 515,-58 504,-58"/>
<text text-anchor="start" x="506" y="-63" font-family="Ubuntu" font-size="10.00">7</text>
<polygon fill="#b2df8a" stroke="transparent" points="353,-43 353,-58 504,-58 504,-43 353,-43"/>
<text text-anchor="start" x="355" y="-48" font-family="Ubuntu" font-size="10.00">INCOMPLETE</text>
<polygon fill="#b2df8a" stroke="transparent" points="504,-43 504,-58 515,-58 515,-43 504,-43"/>
<text text-anchor="start" x="506" y="-48" font-family="Ubuntu" font-size="10.00">8</text>
<polygon fill="#b2df8a" stroke="transparent" points="353,-28 353,-43 504,-43 504,-28 353,-28"/>
<text text-anchor="start" x="355" y="-33" font-family="Ubuntu" font-size="10.00">ROUTE_ISSUES</text>
<polygon fill="#b2df8a" stroke="transparent" points="504,-28 504,-43 515,-43 515,-28 504,-28"/>
<text text-anchor="start" x="506" y="-33" font-family="Ubuntu" font-size="10.00">9</text>
<polygon fill="none" stroke="black" points="352,-27 352,-179 516,-179 516,-27 352,-27"/>
</a>
</g>
</g>
<!-- Node_Ja_135&#45;&gt;Node_Ja_114 -->
<g id="edge1" class="edge">
<title>Node_Ja_135:e&#45;&gt;Node_Ja_114</title>
<g id="a_edge1"><a xlink:title="Ja_135 &#45;&#45;&gt; Ja_114">
<path fill="none" stroke="#008000" d="M300,-150C311.27,-150 322.79,-148.48 334.1,-145.99"/>
<polygon fill="#008000" stroke="#008000" points="335.09,-149.35 343.97,-143.56 333.42,-142.55 335.09,-149.35"/>
</a>
</g>
</g>
<!-- Node_Ja_100 -->
<g id="node3" class="node">
<title>Node_Ja_100</title>
<g id="a_node3"><a xlink:title="google.protobuf.Timestamp">
<polygon fill="#fffaf0" stroke="transparent" points="389,-205.5 389,-252.5 479,-252.5 479,-205.5 389,-205.5"/>
<polygon fill="#e31a1c" stroke="transparent" points="390,-236 390,-251 478,-251 478,-236 390,-236"/>
<text text-anchor="start" x="412" y="-242" font-family="Ubuntu" font-weight="bold" font-size="10.00">Timestamp</text>
<text text-anchor="start" x="396" y="-226" font-family="Ubuntu" font-size="10.00">1</text>
<text text-anchor="start" x="407" y="-226" font-family="Ubuntu" font-size="10.00">seconds</text>
<polygon fill="#a6cee3" stroke="transparent" points="449,-221 449,-236 478,-236 478,-221 449,-221"/>
<text text-anchor="start" x="451" y="-227" font-family="Ubuntu" font-style="italic" font-size="10.00">int64</text>
<text text-anchor="start" x="396" y="-211" font-family="Ubuntu" font-size="10.00">2</text>
<text text-anchor="start" x="407" y="-211" font-family="Ubuntu" font-size="10.00">nanos</text>
<polygon fill="#a6cee3" stroke="transparent" points="449,-206 449,-221 478,-221 478,-206 449,-206"/>
<text text-anchor="start" x="451" y="-212" font-family="Ubuntu" font-style="italic" font-size="10.00">int32</text>
<polygon fill="none" stroke="black" points="389,-205.5 389,-252.5 479,-252.5 479,-205.5 389,-205.5"/>
</a>
</g>
</g>
<!-- Node_Ja_135&#45;&gt;Node_Ja_100 -->
<g id="edge2" class="edge">
<title>Node_Ja_135:e&#45;&gt;Node_Ja_100:header</title>
<g id="a_edge2"><a xlink:title="Ja_135 &#45;&#45;&gt; Ja_100">
<path fill="none" stroke="#000000" d="M300,-196C341.26,-196 343.89,-236.45 378.81,-243.08"/>
<polygon fill="#000000" stroke="#000000" points="378.73,-246.59 389,-244 379.35,-239.62 378.73,-246.59"/>
</a>
</g>
</g>
</g>
</svg>
