<?xml version="1.0" encoding="UTF-8" standalone="no"?>
<!DOCTYPE svg PUBLIC "-//W3C//DTD SVG 1.1//EN"
 "http://www.w3.org/Graphics/SVG/1.1/DTD/svg11.dtd">
<!-- Generated by graphviz version 2.43.0 (0)
 -->
<!-- Title: protodot Pages: 1 -->
<svg width="898pt" height="399pt"
 viewBox="0.00 0.00 898.00 398.50" xmlns="http://www.w3.org/2000/svg" xmlns:xlink="http://www.w3.org/1999/xlink">
<g id="graph0" class="graph" transform="scale(1 1) rotate(0) translate(4 394.5)">
<title>protodot</title>
<g id="a_graph0"><a xlink:title="keelson">
<text text-anchor="middle" x="445" y="-7.8" font-family="Times,serif" font-size="14.00">keelson</text>
</a>
</g>
<!-- Node_Ja_102 -->
<g id="node1" class="node">
<title>Node_Ja_102</title>
<g id="a_node1"><a xlink:title="foxglove.Vector3">
<polygon fill="#fffaf0" stroke="transparent" points="793,-309 793,-371 859,-371 859,-309 793,-309"/>
<polygon fill="#e31a1c" stroke="transparent" points="794,-355 794,-370 858,-370 858,-355 794,-355"/>
<text text-anchor="start" x="812" y="-361" font-family="Ubuntu" font-weight="bold" font-size="10.00">Vector3</text>
<text text-anchor="start" x="800" y="-345" font-family="Ubuntu" font-size="10.00">1</text>
<text text-anchor="start" x="811" y="-345" font-family="Ubuntu" font-size="10.00">x</text>
<polygon fill="#a6cee3" stroke="transparent" points="820,-340 820,-355 858,-355 858,-340 820,-340"/>
<text text-anchor="start" x="822" y="-346" font-family="Ubuntu" font-style="italic" font-size="10.00">double</text>
<text text-anchor="start" x="800" y="-330" font-family="Ubuntu" font-size="10.00">2</text>
<text text-anchor="start" x="811" y="-330" font-family="Ubuntu" font-size="10.00">y</text>
<polygon fill="#a6cee3" stroke="transparent" points="820,-325 820,-340 858,-340 858,-325 820,-325"/>
<text text-anchor="start" x="822" y="-331" font-family="Ubuntu" font-style="italic" font-size="10.00">double</text>
<text text-anchor="start" x="800" y="-315" font-family="Ubuntu" font-size="10.00">3</text>
<text text-anchor="start" x="811" y="-315" font-family="Ubuntu" font-size="10.00">z</text>
<polygon fill="#a6cee3" stroke="transparent" points="820,-310 820,-325 858,-325 858,-310 820,-310"/>
<text text-anchor="start" x="822" y="-316" font-family="Ubuntu" font-style="italic" font-size="10.00">double</text>
<polygon fill="none" stroke="black" points="793,-309 793,-371 859,-371 859,-309 793,-309"/>
</a>
</g>
</g>
<!-- Node_Ja_101 -->
<g id="node2" class="node">
<title>Node_Ja_101</title>
<g id="a_node2"><a xlink:title="foxglove.Quaternion">
<polygon fill="#fffaf0" stroke="transparent" points="791.5,-205.5 791.5,-282.5 860.5,-282.5 860.5,-205.5 791.5,-205.5"/>
<polygon fill="#e31a1c" stroke="transparent" points="793,-266 793,-281 860,-281 860,-266 793,-266"/>
<text text-anchor="start" x="795" y="-272" font-family="Ubuntu" font-weight="bold" font-size="10.00">Quaternion</text>
<text text-anchor="start" x="799" y="-256" font-family="Ubuntu" font-size="10.00">1</text>
<text text-anchor="start" x="810" y="-256" font-family="Ubuntu" font-size="10.00">x</text>
<polygon fill="#a6cee3" stroke="transparent" points="821,-251 821,-266 860,-266 860,-251 821,-251"/>
<text text-anchor="start" x="824" y="-257" font-family="Ubuntu" font-style="italic" font-size="10.00">double</text>
<text text-anchor="start" x="799" y="-241" font-family="Ubuntu" font-size="10.00">2</text>
<text text-anchor="start" x="810" y="-241" font-family="Ubuntu" font-size="10.00">y</text>
<polygon fill="#a6cee3" stroke="transparent" points="821,-236 821,-251 860,-251 860,-236 821,-236"/>
<text text-anchor="start" x="824" y="-242" font-family="Ubuntu" font-style="italic" font-size="10.00">double</text>
<text text-anchor="start" x="799" y="-226" font-family="Ubuntu" font-size="10.00">3</text>
<text text-anchor="start" x="810" y="-226" font-family="Ubuntu" font-size="10.00">z</text>
<polygon fill="#a6cee3" stroke="transparent" points="821,-221 821,-236 860,-236 860,-221 821,-221"/>
<text text-anchor="start" x="824" y="-227" font-family="Ubuntu" font-style="italic" font-size="10.00">double</text>
<text text-anchor="start" x="799" y="-211" font-family="Ubuntu" font-size="10.00">4</text>
<text text-anchor="start" x="810" y="-211" font-family="Ubuntu" font-size="10.00">w</text>
<polygon fill="#a6cee3" stroke="transparent" points="821,-206 821,-221 860,-221 860,-206 821,-206"/>
<text text-anchor="start" x="824" y="-212" font-family="Ubuntu" font-style="italic" font-size="10.00">double</text>
<polygon fill="none" stroke="black" points="791.5,-205.5 791.5,-282.5 860.5,-282.5 860.5,-205.5 791.5,-205.5"/>
</a>
</g>
</g>
<!-- Node_Ja_105 -->
<g id="node3" class="node">
<title>Node_Ja_105</title>
<g id="a_node3"><a xlink:title="NumericType">
<polygon fill="#b2df8a" stroke="transparent" points="770,-27 770,-179 882,-179 882,-27 770,-27"/>
<polygon fill="#33a02c" stroke="transparent" points="771,-163 771,-178 881,-178 881,-163 771,-163"/>
<text text-anchor="start" x="773" y="-169" font-family="Ubuntu" font-size="10.00">enum </text>
<text text-anchor="start" x="804" y="-169" font-family="Ubuntu" font-weight="bold" font-size="10.00">NumericType</text>
<polygon fill="#b2df8a" stroke="transparent" points="771,-148 771,-163 850,-163 850,-148 771,-148"/>
<text text-anchor="start" x="773" y="-153" font-family="Ubuntu" font-size="10.00">UNKNOWN</text>
<polygon fill="#b2df8a" stroke="transparent" points="850,-148 850,-163 881,-163 881,-148 850,-148"/>
<text text-anchor="start" x="852" y="-153" font-family="Ubuntu" font-size="10.00">0</text>
<polygon fill="#b2df8a" stroke="transparent" points="771,-133 771,-148 850,-148 850,-133 771,-133"/>
<text text-anchor="start" x="773" y="-138" font-family="Ubuntu" font-size="10.00">UINT8</text>
<polygon fill="#b2df8a" stroke="transparent" points="850,-133 850,-148 881,-148 881,-133 850,-133"/>
<text text-anchor="start" x="852" y="-138" font-family="Ubuntu" font-size="10.00">1</text>
<polygon fill="#b2df8a" stroke="transparent" points="771,-118 771,-133 850,-133 850,-118 771,-118"/>
<text text-anchor="start" x="773" y="-123" font-family="Ubuntu" font-size="10.00">INT8</text>
<polygon fill="#b2df8a" stroke="transparent" points="850,-118 850,-133 881,-133 881,-118 850,-118"/>
<text text-anchor="start" x="852" y="-123" font-family="Ubuntu" font-size="10.00">2</text>
<polygon fill="#b2df8a" stroke="transparent" points="771,-103 771,-118 850,-118 850,-103 771,-103"/>
<text text-anchor="start" x="773" y="-108" font-family="Ubuntu" font-size="10.00">UINT16</text>
<polygon fill="#b2df8a" stroke="transparent" points="850,-103 850,-118 881,-118 881,-103 850,-103"/>
<text text-anchor="start" x="852" y="-108" font-family="Ubuntu" font-size="10.00">3</text>
<polygon fill="#b2df8a" stroke="transparent" points="771,-88 771,-103 850,-103 850,-88 771,-88"/>
<text text-anchor="start" x="773" y="-93" font-family="Ubuntu" font-size="10.00">INT16</text>
<polygon fill="#b2df8a" stroke="transparent" points="850,-88 850,-103 881,-103 881,-88 850,-88"/>
<text text-anchor="start" x="852" y="-93" font-family="Ubuntu" font-size="10.00">4</text>
<polygon fill="#b2df8a" stroke="transparent" points="771,-73 771,-88 850,-88 850,-73 771,-73"/>
<text text-anchor="start" x="773" y="-78" font-family="Ubuntu" font-size="10.00">UINT32</text>
<polygon fill="#b2df8a" stroke="transparent" points="850,-73 850,-88 881,-88 881,-73 850,-73"/>
<text text-anchor="start" x="852" y="-78" font-family="Ubuntu" font-size="10.00">5</text>
<polygon fill="#b2df8a" stroke="transparent" points="771,-58 771,-73 850,-73 850,-58 771,-58"/>
<text text-anchor="start" x="773" y="-63" font-family="Ubuntu" font-size="10.00">INT32</text>
<polygon fill="#b2df8a" stroke="transparent" points="850,-58 850,-73 881,-73 881,-58 850,-58"/>
<text text-anchor="start" x="852" y="-63" font-family="Ubuntu" font-size="10.00">6</text>
<polygon fill="#b2df8a" stroke="transparent" points="771,-43 771,-58 850,-58 850,-43 771,-43"/>
<text text-anchor="start" x="773" y="-48" font-family="Ubuntu" font-size="10.00">FLOAT32</text>
<polygon fill="#b2df8a" stroke="transparent" points="850,-43 850,-58 881,-58 881,-43 850,-43"/>
<text text-anchor="start" x="852" y="-48" font-family="Ubuntu" font-size="10.00">7</text>
<polygon fill="#b2df8a" stroke="transparent" points="771,-28 771,-43 850,-43 850,-28 771,-28"/>
<text text-anchor="start" x="773" y="-33" font-family="Ubuntu" font-size="10.00">FLOAT64</text>
<polygon fill="#b2df8a" stroke="transparent" points="850,-28 850,-43 881,-43 881,-28 850,-28"/>
<text text-anchor="start" x="852" y="-33" font-family="Ubuntu" font-size="10.00">8</text>
<polygon fill="none" stroke="black" points="770,-27 770,-179 882,-179 882,-27 770,-27"/>
</a>
</g>
</g>
<!-- Node_Ja_107 -->
<g id="node4" class="node">
<title>Node_Ja_107</title>
<g id="a_node4"><a xlink:title="keelson.RadarSweep">
<polygon fill="#fffaf0" stroke="transparent" points="8,-342 8,-374 154,-374 154,-342 8,-342"/>
<polygon fill="#e31a1c" stroke="transparent" points="9,-358 9,-373 153,-373 153,-358 9,-358"/>
<text text-anchor="start" x="79" y="-364" font-family="Ubuntu" font-weight="bold" font-size="10.00">RadarSweep</text>
<text text-anchor="start" x="11" y="-348" font-family="Ubuntu" font-size="10.00">[...]</text>
<text text-anchor="start" x="32" y="-348" font-family="Ubuntu" font-size="10.00">1</text>
<text text-anchor="start" x="43" y="-348" font-family="Ubuntu" font-size="10.00">spokes</text>
<polygon fill="#fb9a99" stroke="transparent" points="79,-343 79,-358 153,-358 153,-343 79,-343"/>
<text text-anchor="start" x="81" y="-349" font-family="Ubuntu" font-weight="bold" font-size="10.00">RadarSpoke</text>
<polygon fill="none" stroke="black" points="8,-342 8,-374 154,-374 154,-342 8,-342"/>
</a>
</g>
</g>
<!-- Node_Ja_106 -->
<g id="node5" class="node">
<title>Node_Ja_106</title>
<g id="a_node5"><a xlink:title="keelson.RadarSpoke">
<polygon fill="#fffaf0" stroke="transparent" points="206,-236 206,-358 471,-358 471,-236 206,-236"/>
<polygon fill="#e31a1c" stroke="transparent" points="207.5,-342 207.5,-357 470.5,-357 470.5,-342 207.5,-342"/>
<text text-anchor="start" x="398.5" y="-348" font-family="Ubuntu" font-weight="bold" font-size="10.00">RadarSpoke</text>
<text text-anchor="start" x="230.5" y="-332" font-family="Ubuntu" font-size="10.00">1</text>
<text text-anchor="start" x="241.5" y="-332" font-family="Ubuntu" font-size="10.00">timestamp</text>
<polygon fill="#fb9a99" stroke="transparent" points="297.5,-327 297.5,-342 470.5,-342 470.5,-327 297.5,-327"/>
<text text-anchor="start" x="309.5" y="-333" font-family="Ubuntu" font-weight="bold" font-size="10.00">google.protobuf.Timestamp</text>
<text text-anchor="start" x="230.5" y="-317" font-family="Ubuntu" font-size="10.00">2</text>
<text text-anchor="start" x="241.5" y="-317" font-family="Ubuntu" font-size="10.00">frame_id</text>
<polygon fill="#a6cee3" stroke="transparent" points="297.5,-312 297.5,-327 470.5,-327 470.5,-312 297.5,-312"/>
<text text-anchor="start" x="440.5" y="-318" font-family="Ubuntu" font-style="italic" font-size="10.00">string</text>
<text text-anchor="start" x="230.5" y="-302" font-family="Ubuntu" font-size="10.00">3</text>
<text text-anchor="start" x="241.5" y="-302" font-family="Ubuntu" font-size="10.00">pose</text>
<polygon fill="#fb9a99" stroke="transparent" points="297.5,-297 297.5,-312 470.5,-312 470.5,-297 297.5,-297"/>
<text text-anchor="start" x="387.5" y="-303" font-family="Ubuntu" font-weight="bold" font-size="10.00">foxglove.Pose</text>
<text text-anchor="start" x="230.5" y="-287" font-family="Ubuntu" font-size="10.00">4</text>
<text text-anchor="start" x="241.5" y="-287" font-family="Ubuntu" font-size="10.00">azimuth</text>
<polygon fill="#a6cee3" stroke="transparent" points="297.5,-282 297.5,-297 470.5,-297 470.5,-282 297.5,-282"/>
<text text-anchor="start" x="445.5" y="-288" font-family="Ubuntu" font-style="italic" font-size="10.00">float</text>
<text text-anchor="start" x="230.5" y="-272" font-family="Ubuntu" font-size="10.00">5</text>
<text text-anchor="start" x="241.5" y="-272" font-family="Ubuntu" font-size="10.00">range</text>
<polygon fill="#a6cee3" stroke="transparent" points="297.5,-267 297.5,-282 470.5,-282 470.5,-267 297.5,-267"/>
<text text-anchor="start" x="445.5" y="-273" font-family="Ubuntu" font-style="italic" font-size="10.00">float</text>
<text text-anchor="start" x="209.5" y="-257" font-family="Ubuntu" font-size="10.00">[...]</text>
<text text-anchor="start" x="230.5" y="-257" font-family="Ubuntu" font-size="10.00">6</text>
<text text-anchor="start" x="241.5" y="-257" font-family="Ubuntu" font-size="10.00">fields</text>
<polygon fill="#fb9a99" stroke="transparent" points="297.5,-252 297.5,-267 470.5,-267 470.5,-252 297.5,-252"/>
<text text-anchor="start" x="299.5" y="-258" font-family="Ubuntu" font-weight="bold" font-size="10.00">foxglove.PackedElementField</text>
<text text-anchor="start" x="230.5" y="-242" font-family="Ubuntu" font-size="10.00">7</text>
<text text-anchor="start" x="241.5" y="-242" font-family="Ubuntu" font-size="10.00">data</text>
<polygon fill="#a6cee3" stroke="transparent" points="297.5,-237 297.5,-252 470.5,-252 470.5,-237 297.5,-237"/>
<text text-anchor="start" x="440.5" y="-243" font-family="Ubuntu" font-style="italic" font-size="10.00">bytes</text>
<polygon fill="none" stroke="black" points="206,-236 206,-358 471,-358 471,-236 206,-236"/>
</a>
</g>
</g>
<!-- Node_Ja_107&#45;&gt;Node_Ja_106 -->
<g id="edge4" class="edge">
<title>Node_Ja_107:e&#45;&gt;Node_Ja_106:header</title>
<g id="a_edge4"><a xlink:title="Ja_107 &#45;&#45;&gt; Ja_106">
<path fill="none" stroke="#000000" d="M154,-350C173.51,-350 180.78,-350 196.27,-350"/>
<polygon fill="#000000" stroke="#000000" points="196.5,-353.5 206.5,-350 196.5,-346.5 196.5,-353.5"/>
</a>
</g>
</g>
<!-- Node_Ja_100 -->
<g id="node6" class="node">
<title>Node_Ja_100</title>
<g id="a_node6"><a xlink:title="google.protobuf.Timestamp">
<polygon fill="#fffaf0" stroke="transparent" points="575.5,-339.5 575.5,-386.5 665.5,-386.5 665.5,-339.5 575.5,-339.5"/>
<polygon fill="#e31a1c" stroke="transparent" points="576.5,-370 576.5,-385 664.5,-385 664.5,-370 576.5,-370"/>
<text text-anchor="start" x="598.5" y="-376" font-family="Ubuntu" font-weight="bold" font-size="10.00">Timestamp</text>
<text text-anchor="start" x="582.5" y="-360" font-family="Ubuntu" font-size="10.00">1</text>
<text text-anchor="start" x="593.5" y="-360" font-family="Ubuntu" font-size="10.00">seconds</text>
<polygon fill="#a6cee3" stroke="transparent" points="635.5,-355 635.5,-370 664.5,-370 664.5,-355 635.5,-355"/>
<text text-anchor="start" x="637.5" y="-361" font-family="Ubuntu" font-style="italic" font-size="10.00">int64</text>
<text text-anchor="start" x="582.5" y="-345" font-family="Ubuntu" font-size="10.00">2</text>
<text text-anchor="start" x="593.5" y="-345" font-family="Ubuntu" font-size="10.00">nanos</text>
<polygon fill="#a6cee3" stroke="transparent" points="635.5,-340 635.5,-355 664.5,-355 664.5,-340 635.5,-340"/>
<text text-anchor="start" x="637.5" y="-346" font-family="Ubuntu" font-style="italic" font-size="10.00">int32</text>
<polygon fill="none" stroke="black" points="575.5,-339.5 575.5,-386.5 665.5,-386.5 665.5,-339.5 575.5,-339.5"/>
</a>
</g>
</g>
<!-- Node_Ja_106&#45;&gt;Node_Ja_100 -->
<g id="edge5" class="edge">
<title>Node_Ja_106:e&#45;&gt;Node_Ja_100:header</title>
<g id="a_edge5"><a xlink:title="Ja_106 &#45;&#45;&gt; Ja_100">
<path fill="none" stroke="#000000" d="M471.5,-335C517.9,-335 524.67,-372.01 565.34,-377.36"/>
<polygon fill="#000000" stroke="#000000" points="565.3,-380.86 575.5,-378 565.74,-373.88 565.3,-380.86"/>
</a>
</g>
</g>
<!-- Node_Ja_103 -->
<g id="node7" class="node">
<title>Node_Ja_103</title>
<g id="a_node7"><a xlink:title="foxglove.Pose">
<polygon fill="#fffaf0" stroke="transparent" points="523,-266.5 523,-313.5 718,-313.5 718,-266.5 523,-266.5"/>
<polygon fill="#e31a1c" stroke="transparent" points="524.5,-297 524.5,-312 717.5,-312 717.5,-297 524.5,-297"/>
<text text-anchor="start" x="687.5" y="-303" font-family="Ubuntu" font-weight="bold" font-size="10.00">Pose</text>
<text text-anchor="start" x="530.5" y="-287" font-family="Ubuntu" font-size="10.00">1</text>
<text text-anchor="start" x="541.5" y="-287" font-family="Ubuntu" font-size="10.00">position</text>
<polygon fill="#fb9a99" stroke="transparent" points="597.5,-282 597.5,-297 717.5,-297 717.5,-282 597.5,-282"/>
<text text-anchor="start" x="618.5" y="-288" font-family="Ubuntu" font-weight="bold" font-size="10.00">foxglove.Vector3</text>
<text text-anchor="start" x="530.5" y="-272" font-family="Ubuntu" font-size="10.00">2</text>
<text text-anchor="start" x="541.5" y="-272" font-family="Ubuntu" font-size="10.00">orientation</text>
<polygon fill="#fb9a99" stroke="transparent" points="597.5,-267 597.5,-282 717.5,-282 717.5,-267 597.5,-267"/>
<text text-anchor="start" x="599.5" y="-273" font-family="Ubuntu" font-weight="bold" font-size="10.00">foxglove.Quaternion</text>
<polygon fill="none" stroke="black" points="523,-266.5 523,-313.5 718,-313.5 718,-266.5 523,-266.5"/>
</a>
</g>
</g>
<!-- Node_Ja_106&#45;&gt;Node_Ja_103 -->
<g id="edge6" class="edge">
<title>Node_Ja_106:e&#45;&gt;Node_Ja_103:header</title>
<g id="a_edge6"><a xlink:title="Ja_106 &#45;&#45;&gt; Ja_103">
<path fill="none" stroke="#000000" d="M471.5,-305C490.82,-305 498.03,-305 513.37,-305"/>
<polygon fill="#000000" stroke="#000000" points="513.5,-308.5 523.5,-305 513.5,-301.5 513.5,-308.5"/>
</a>
</g>
</g>
<!-- Node_Ja_104 -->
<g id="node8" class="node">
<title>Node_Ja_104</title>
<g id="a_node8"><a xlink:title="foxglove.PackedElementField">
<polygon fill="#fffaf0" stroke="transparent" points="560,-137 560,-199 681,-199 681,-137 560,-137"/>
<polygon fill="#e31a1c" stroke="transparent" points="561.5,-183 561.5,-198 680.5,-198 680.5,-183 561.5,-183"/>
<text text-anchor="start" x="563.5" y="-189" font-family="Ubuntu" font-weight="bold" font-size="10.00">PackedElementField</text>
<text text-anchor="start" x="570.5" y="-173" font-family="Ubuntu" font-size="10.00">1</text>
<text text-anchor="start" x="581.5" y="-173" font-family="Ubuntu" font-size="10.00">name</text>
<polygon fill="#a6cee3" stroke="transparent" points="611.5,-168 611.5,-183 680.5,-183 680.5,-168 611.5,-168"/>
<text text-anchor="start" x="650.5" y="-174" font-family="Ubuntu" font-style="italic" font-size="10.00">string</text>
<text text-anchor="start" x="570.5" y="-158" font-family="Ubuntu" font-size="10.00">2</text>
<text text-anchor="start" x="581.5" y="-158" font-family="Ubuntu" font-size="10.00">offset</text>
<polygon fill="#a6cee3" stroke="transparent" points="611.5,-153 611.5,-168 680.5,-168 680.5,-153 611.5,-153"/>
<text text-anchor="start" x="641.5" y="-159" font-family="Ubuntu" font-style="italic" font-size="10.00">fixed32</text>
<text text-anchor="start" x="570.5" y="-143" font-family="Ubuntu" font-size="10.00">3</text>
<text text-anchor="start" x="581.5" y="-143" font-family="Ubuntu" font-size="10.00">type</text>
<polygon fill="#b2df8a" stroke="transparent" points="611.5,-138 611.5,-153 680.5,-153 680.5,-138 611.5,-138"/>
<text text-anchor="start" x="614.5" y="-144" font-family="Ubuntu" text-decoration="underline" font-size="10.00">NumericType</text>
<polygon fill="none" stroke="black" points="560,-137 560,-199 681,-199 681,-137 560,-137"/>
</a>
</g>
</g>
<!-- Node_Ja_106&#45;&gt;Node_Ja_104 -->
<g id="edge7" class="edge">
<title>Node_Ja_106:e&#45;&gt;Node_Ja_104:header</title>
<g id="a_edge7"><a xlink:title="Ja_106 &#45;&#45;&gt; Ja_104">
<path fill="none" stroke="#000000" d="M471.5,-259C517.59,-259 511.96,-200.72 550.36,-192.07"/>
<polygon fill="#000000" stroke="#000000" points="550.92,-195.53 560.5,-191 550.19,-188.57 550.92,-195.53"/>
</a>
</g>
</g>
<!-- Node_Ja_103&#45;&gt;Node_Ja_102 -->
<g id="edge1" class="edge">
<title>Node_Ja_103:e&#45;&gt;Node_Ja_102:header</title>
<g id="a_edge1"><a xlink:title="Ja_103 &#45;&#45;&gt; Ja_102">
<path fill="none" stroke="#000000" d="M718.5,-289C761.34,-289 748.98,-351.36 782.77,-361.59"/>
<polygon fill="#000000" stroke="#000000" points="782.62,-365.1 793,-363 783.57,-358.17 782.62,-365.1"/>
</a>
</g>
</g>
<!-- Node_Ja_103&#45;&gt;Node_Ja_101 -->
<g id="edge2" class="edge">
<title>Node_Ja_103:e&#45;&gt;Node_Ja_101:header</title>
<g id="a_edge2"><a xlink:title="Ja_103 &#45;&#45;&gt; Ja_101">
<path fill="none" stroke="#000000" d="M718.5,-274C747.47,-274 757.17,-274 781.77,-274"/>
<polygon fill="#000000" stroke="#000000" points="782,-277.5 792,-274 782,-270.5 782,-277.5"/>
</a>
</g>
</g>
<!-- Node_Ja_104&#45;&gt;Node_Ja_105 -->
<g id="edge3" class="edge">
<title>Node_Ja_104:e&#45;&gt;Node_Ja_105</title>
<g id="a_edge3"><a xlink:title="Ja_104 &#45;&#45;&gt; Ja_105">
<path fill="none" stroke="#008000" d="M681.5,-145C705.02,-145 729.86,-139.74 752.15,-132.94"/>
<polygon fill="#008000" stroke="#008000" points="753.4,-136.22 761.86,-129.84 751.27,-129.55 753.4,-136.22"/>
</a>
</g>
</g>
</g>
</svg>
