<?xml version="1.0" encoding="UTF-8" standalone="no"?>
<!DOCTYPE svg PUBLIC "-//W3C//DTD SVG 1.1//EN"
 "http://www.w3.org/Graphics/SVG/1.1/DTD/svg11.dtd">
<!-- Generated by graphviz version 2.43.0 (0)
 -->
<!-- Title: protodot Pages: 1 -->
<svg width="426pt" height="399pt"
 viewBox="0.00 0.00 426.00 399.00" xmlns="http://www.w3.org/2000/svg" xmlns:xlink="http://www.w3.org/1999/xlink">
<g id="graph0" class="graph" transform="scale(1 1) rotate(0) translate(4 395)">
<title>protodot</title>
<g id="a_graph0"><a xlink:title="keelson">
<text text-anchor="middle" x="209" y="-7.8" font-family="Times,serif" font-size="14.00">keelson</text>
</a>
</g>
<!-- Node_Ja_105 -->
<g id="node1" class="node">
<title>Node_Ja_105</title>
<g id="a_node1"><a xlink:title="Category">
<polygon fill="#b2df8a" stroke="transparent" points="298,-27 298,-314 410,-314 410,-27 298,-27"/>
<polygon fill="#33a02c" stroke="transparent" points="299,-297.5 299,-312.5 409,-312.5 409,-297.5 299,-297.5"/>
<text text-anchor="start" x="324" y="-303.5" font-family="Ubuntu" font-size="10.00">enum </text>
<text text-anchor="start" x="355" y="-303.5" font-family="Ubuntu" font-weight="bold" font-size="10.00">Category</text>
<polygon fill="#b2df8a" stroke="transparent" points="299,-282.5 299,-297.5 392,-297.5 392,-282.5 299,-282.5"/>
<text text-anchor="start" x="301" y="-287.5" font-family="Ubuntu" font-size="10.00">UNKNOWN</text>
<polygon fill="#b2df8a" stroke="transparent" points="392,-282.5 392,-297.5 409,-297.5 409,-282.5 392,-282.5"/>
<text text-anchor="start" x="394" y="-287.5" font-family="Ubuntu" font-size="10.00">0</text>
<polygon fill="#b2df8a" stroke="transparent" points="299,-267.5 299,-282.5 392,-282.5 392,-267.5 299,-267.5"/>
<text text-anchor="start" x="301" y="-272.5" font-family="Ubuntu" font-size="10.00">CLEAR</text>
<polygon fill="#b2df8a" stroke="transparent" points="392,-267.5 392,-282.5 409,-282.5 409,-267.5 392,-267.5"/>
<text text-anchor="start" x="394" y="-272.5" font-family="Ubuntu" font-size="10.00">1</text>
<polygon fill="#b2df8a" stroke="transparent" points="299,-252.5 299,-267.5 392,-267.5 392,-252.5 299,-252.5"/>
<text text-anchor="start" x="301" y="-257.5" font-family="Ubuntu" font-size="10.00">PARTLY_CLOUDY</text>
<polygon fill="#b2df8a" stroke="transparent" points="392,-252.5 392,-267.5 409,-267.5 409,-252.5 392,-252.5"/>
<text text-anchor="start" x="394" y="-257.5" font-family="Ubuntu" font-size="10.00">2</text>
<polygon fill="#b2df8a" stroke="transparent" points="299,-237.5 299,-252.5 392,-252.5 392,-237.5 299,-237.5"/>
<text text-anchor="start" x="301" y="-242.5" font-family="Ubuntu" font-size="10.00">CLOUDY</text>
<polygon fill="#b2df8a" stroke="transparent" points="392,-237.5 392,-252.5 409,-252.5 409,-237.5 392,-237.5"/>
<text text-anchor="start" x="394" y="-242.5" font-family="Ubuntu" font-size="10.00">3</text>
<polygon fill="#b2df8a" stroke="transparent" points="299,-222.5 299,-237.5 392,-237.5 392,-222.5 299,-222.5"/>
<text text-anchor="start" x="301" y="-227.5" font-family="Ubuntu" font-size="10.00">RAIN</text>
<polygon fill="#b2df8a" stroke="transparent" points="392,-222.5 392,-237.5 409,-237.5 409,-222.5 392,-222.5"/>
<text text-anchor="start" x="394" y="-227.5" font-family="Ubuntu" font-size="10.00">4</text>
<polygon fill="#b2df8a" stroke="transparent" points="299,-207.5 299,-222.5 392,-222.5 392,-207.5 299,-207.5"/>
<text text-anchor="start" x="301" y="-212.5" font-family="Ubuntu" font-size="10.00">HEAVY_RAIN</text>
<polygon fill="#b2df8a" stroke="transparent" points="392,-207.5 392,-222.5 409,-222.5 409,-207.5 392,-207.5"/>
<text text-anchor="start" x="394" y="-212.5" font-family="Ubuntu" font-size="10.00">5</text>
<polygon fill="#b2df8a" stroke="transparent" points="299,-192.5 299,-207.5 392,-207.5 392,-192.5 299,-192.5"/>
<text text-anchor="start" x="301" y="-197.5" font-family="Ubuntu" font-size="10.00">SNOW</text>
<polygon fill="#b2df8a" stroke="transparent" points="392,-192.5 392,-207.5 409,-207.5 409,-192.5 392,-192.5"/>
<text text-anchor="start" x="394" y="-197.5" font-family="Ubuntu" font-size="10.00">6</text>
<polygon fill="#b2df8a" stroke="transparent" points="299,-177.5 299,-192.5 392,-192.5 392,-177.5 299,-177.5"/>
<text text-anchor="start" x="301" y="-182.5" font-family="Ubuntu" font-size="10.00">HEAVY_SNOW</text>
<polygon fill="#b2df8a" stroke="transparent" points="392,-177.5 392,-192.5 409,-192.5 409,-177.5 392,-177.5"/>
<text text-anchor="start" x="394" y="-182.5" font-family="Ubuntu" font-size="10.00">7</text>
<polygon fill="#b2df8a" stroke="transparent" points="299,-162.5 299,-177.5 392,-177.5 392,-162.5 299,-162.5"/>
<text text-anchor="start" x="301" y="-167.5" font-family="Ubuntu" font-size="10.00">SLEET</text>
<polygon fill="#b2df8a" stroke="transparent" points="392,-162.5 392,-177.5 409,-177.5 409,-162.5 392,-162.5"/>
<text text-anchor="start" x="394" y="-167.5" font-family="Ubuntu" font-size="10.00">8</text>
<polygon fill="#b2df8a" stroke="transparent" points="299,-147.5 299,-162.5 392,-162.5 392,-147.5 299,-147.5"/>
<text text-anchor="start" x="301" y="-152.5" font-family="Ubuntu" font-size="10.00">HAIL</text>
<polygon fill="#b2df8a" stroke="transparent" points="392,-147.5 392,-162.5 409,-162.5 409,-147.5 392,-147.5"/>
<text text-anchor="start" x="394" y="-152.5" font-family="Ubuntu" font-size="10.00">9</text>
<polygon fill="#b2df8a" stroke="transparent" points="299,-132.5 299,-147.5 392,-147.5 392,-132.5 299,-132.5"/>
<text text-anchor="start" x="301" y="-137.5" font-family="Ubuntu" font-size="10.00">FOG</text>
<polygon fill="#b2df8a" stroke="transparent" points="392,-132.5 392,-147.5 409,-147.5 409,-132.5 392,-132.5"/>
<text text-anchor="start" x="394" y="-137.5" font-family="Ubuntu" font-size="10.00">10</text>
<polygon fill="#b2df8a" stroke="transparent" points="299,-117.5 299,-132.5 392,-132.5 392,-117.5 299,-117.5"/>
<text text-anchor="start" x="301" y="-122.5" font-family="Ubuntu" font-size="10.00">MIST</text>
<polygon fill="#b2df8a" stroke="transparent" points="392,-117.5 392,-132.5 409,-132.5 409,-117.5 392,-117.5"/>
<text text-anchor="start" x="394" y="-122.5" font-family="Ubuntu" font-size="10.00">11</text>
<polygon fill="#b2df8a" stroke="transparent" points="299,-102.5 299,-117.5 392,-117.5 392,-102.5 299,-102.5"/>
<text text-anchor="start" x="301" y="-107.5" font-family="Ubuntu" font-size="10.00">THUNDERSTORM</text>
<polygon fill="#b2df8a" stroke="transparent" points="392,-102.5 392,-117.5 409,-117.5 409,-102.5 392,-102.5"/>
<text text-anchor="start" x="394" y="-107.5" font-family="Ubuntu" font-size="10.00">12</text>
<polygon fill="#b2df8a" stroke="transparent" points="299,-87.5 299,-102.5 392,-102.5 392,-87.5 299,-87.5"/>
<text text-anchor="start" x="301" y="-92.5" font-family="Ubuntu" font-size="10.00">SEVERE_STORM</text>
<polygon fill="#b2df8a" stroke="transparent" points="392,-87.5 392,-102.5 409,-102.5 409,-87.5 392,-87.5"/>
<text text-anchor="start" x="394" y="-92.5" font-family="Ubuntu" font-size="10.00">13</text>
<polygon fill="#b2df8a" stroke="transparent" points="299,-72.5 299,-87.5 392,-87.5 392,-72.5 299,-72.5"/>
<text text-anchor="start" x="301" y="-77.5" font-family="Ubuntu" font-size="10.00">TROPICAL_STORM</text>
<polygon fill="#b2df8a" stroke="transparent" points="392,-72.5 392,-87.5 409,-87.5 409,-72.5 392,-72.5"/>
<text text-anchor="start" x="394" y="-77.5" font-family="Ubuntu" font-size="10.00">14</text>
<polygon fill="#b2df8a" stroke="transparent" points="299,-57.5 299,-72.5 392,-72.5 392,-57.5 299,-57.5"/>
<text text-anchor="start" x="301" y="-62.5" font-family="Ubuntu" font-size="10.00">HURRICANE</text>
<polygon fill="#b2df8a" stroke="transparent" points="392,-57.5 392,-72.5 409,-72.5 409,-57.5 392,-57.5"/>
<text text-anchor="start" x="394" y="-62.5" font-family="Ubuntu" font-size="10.00">15</text>
<polygon fill="#b2df8a" stroke="transparent" points="299,-42.5 299,-57.5 392,-57.5 392,-42.5 299,-42.5"/>
<text text-anchor="start" x="301" y="-47.5" font-family="Ubuntu" font-size="10.00">GALE</text>
<polygon fill="#b2df8a" stroke="transparent" points="392,-42.5 392,-57.5 409,-57.5 409,-42.5 392,-42.5"/>
<text text-anchor="start" x="394" y="-47.5" font-family="Ubuntu" font-size="10.00">16</text>
<polygon fill="#b2df8a" stroke="transparent" points="299,-27.5 299,-42.5 392,-42.5 392,-27.5 299,-27.5"/>
<text text-anchor="start" x="301" y="-32.5" font-family="Ubuntu" font-size="10.00">ICE</text>
<polygon fill="#b2df8a" stroke="transparent" points="392,-27.5 392,-42.5 409,-42.5 409,-27.5 392,-27.5"/>
<text text-anchor="start" x="394" y="-32.5" font-family="Ubuntu" font-size="10.00">17</text>
<polygon fill="none" stroke="black" points="298,-27 298,-314 410,-314 410,-27 298,-27"/>
</a>
</g>
</g>
<!-- Node_Ja_104 -->
<g id="node2" class="node">
<title>Node_Ja_104</title>
<g id="a_node2"><a xlink:title="keelson.WeatherCategory">
<polygon fill="#fffaf0" stroke="transparent" points="8,-259 8,-306 246,-306 246,-259 8,-259"/>
<polygon fill="#e31a1c" stroke="transparent" points="9,-289.5 9,-304.5 245,-304.5 245,-289.5 9,-289.5"/>
<text text-anchor="start" x="143" y="-295.5" font-family="Ubuntu" font-weight="bold" font-size="10.00">WeatherCategory</text>
<text text-anchor="start" x="15" y="-279.5" font-family="Ubuntu" font-size="10.00">1</text>
<text text-anchor="start" x="26" y="-279.5" font-family="Ubuntu" font-size="10.00">timestamp</text>
<polygon fill="#fb9a99" stroke="transparent" points="82,-274.5 82,-289.5 245,-289.5 245,-274.5 82,-274.5"/>
<text text-anchor="start" x="84" y="-280.5" font-family="Ubuntu" font-weight="bold" font-size="10.00">google.protobuf.Timestamp</text>
<text text-anchor="start" x="15" y="-264.5" font-family="Ubuntu" font-size="10.00">2</text>
<text text-anchor="start" x="26" y="-264.5" font-family="Ubuntu" font-size="10.00">category</text>
<polygon fill="#b2df8a" stroke="transparent" points="82,-259.5 82,-274.5 245,-274.5 245,-259.5 82,-259.5"/>
<text text-anchor="start" x="198" y="-265.5" font-family="Ubuntu" text-decoration="underline" font-size="10.00">Category</text>
<polygon fill="none" stroke="black" points="8,-259 8,-306 246,-306 246,-259 8,-259"/>
</a>
</g>
</g>
<!-- Node_Ja_104&#45;&gt;Node_Ja_105 -->
<g id="edge2" class="edge">
<title>Node_Ja_104:e&#45;&gt;Node_Ja_105</title>
<g id="a_edge2"><a xlink:title="Ja_104 &#45;&#45;&gt; Ja_105">
<path fill="none" stroke="#008000" d="M246,-266.5C258.7,-266.5 270.58,-262.71 281.47,-256.63"/>
<polygon fill="#008000" stroke="#008000" points="283.36,-259.57 289.98,-251.29 279.65,-253.64 283.36,-259.57"/>
</a>
</g>
</g>
<!-- Node_Ja_100 -->
<g id="node3" class="node">
<title>Node_Ja_100</title>
<g id="a_node3"><a xlink:title="google.protobuf.Timestamp">
<polygon fill="#fffaf0" stroke="transparent" points="309,-340 309,-387 399,-387 399,-340 309,-340"/>
<polygon fill="#e31a1c" stroke="transparent" points="310,-370.5 310,-385.5 398,-385.5 398,-370.5 310,-370.5"/>
<text text-anchor="start" x="332" y="-376.5" font-family="Ubuntu" font-weight="bold" font-size="10.00">Timestamp</text>
<text text-anchor="start" x="316" y="-360.5" font-family="Ubuntu" font-size="10.00">1</text>
<text text-anchor="start" x="327" y="-360.5" font-family="Ubuntu" font-size="10.00">seconds</text>
<polygon fill="#a6cee3" stroke="transparent" points="369,-355.5 369,-370.5 398,-370.5 398,-355.5 369,-355.5"/>
<text text-anchor="start" x="371" y="-361.5" font-family="Ubuntu" font-style="italic" font-size="10.00">int64</text>
<text text-anchor="start" x="316" y="-345.5" font-family="Ubuntu" font-size="10.00">2</text>
<text text-anchor="start" x="327" y="-345.5" font-family="Ubuntu" font-size="10.00">nanos</text>
<polygon fill="#a6cee3" stroke="transparent" points="369,-340.5 369,-355.5 398,-355.5 398,-340.5 369,-340.5"/>
<text text-anchor="start" x="371" y="-346.5" font-family="Ubuntu" font-style="italic" font-size="10.00">int32</text>
<polygon fill="none" stroke="black" points="309,-340 309,-387 399,-387 399,-340 309,-340"/>
</a>
</g>
</g>
<!-- Node_Ja_104&#45;&gt;Node_Ja_100 -->
<g id="edge1" class="edge">
<title>Node_Ja_104:e&#45;&gt;Node_Ja_100:header</title>
<g id="a_edge1"><a xlink:title="Ja_104 &#45;&#45;&gt; Ja_100">
<path fill="none" stroke="#000000" d="M246,-281.5C293.59,-281.5 263,-364.64 298.99,-376.98"/>
<polygon fill="#000000" stroke="#000000" points="298.59,-380.46 309,-378.5 299.64,-373.54 298.59,-380.46"/>
</a>
</g>
</g>
</g>
</svg>
