<?xml version="1.0" encoding="UTF-8" standalone="no"?>
<!DOCTYPE svg PUBLIC "-//W3C//DTD SVG 1.1//EN"
 "http://www.w3.org/Graphics/SVG/1.1/DTD/svg11.dtd">
<!-- Generated by graphviz version 2.43.0 (0)
 -->
<!-- Title: protodot Pages: 1 -->
<svg width="505pt" height="281pt"
 viewBox="0.00 0.00 505.00 281.00" xmlns="http://www.w3.org/2000/svg" xmlns:xlink="http://www.w3.org/1999/xlink">
<g id="graph0" class="graph" transform="scale(1 1) rotate(0) translate(4 277)">
<title>protodot</title>
<g id="a_graph0"><a xlink:title="keelson">
<text text-anchor="middle" x="248.5" y="-7.8" font-family="Times,serif" font-size="14.00">keelson</text>
</a>
</g>
<!-- Node_Ja_101 -->
<g id="node1" class="node">
<title>Node_Ja_101</title>
<g id="a_node1"><a xlink:title="keelson.RouteExecution">
<polygon fill="#fffaf0" stroke="transparent" points="8,-27 8,-269 347,-269 347,-27 8,-27"/>
<polygon fill="#e31a1c" stroke="transparent" points="9.5,-253 9.5,-268 346.5,-268 346.5,-253 9.5,-253"/>
<text text-anchor="start" x="256.5" y="-259" font-family="Ubuntu" font-weight="bold" font-size="10.00">RouteExecution</text>
<text text-anchor="start" x="21.5" y="-243" font-family="Ubuntu" font-size="10.00">1</text>
<text text-anchor="start" x="32.5" y="-243" font-family="Ubuntu" font-size="10.00">timestamp</text>
<polygon fill="#fb9a99" stroke="transparent" points="183.5,-238 183.5,-253 346.5,-253 346.5,-238 183.5,-238"/>
<text text-anchor="start" x="185.5" y="-244" font-family="Ubuntu" font-weight="bold" font-size="10.00">google.protobuf.Timestamp</text>
<text text-anchor="start" x="21.5" y="-228" font-family="Ubuntu" font-size="10.00">2</text>
<text text-anchor="start" x="32.5" y="-228" font-family="Ubuntu" font-size="10.00">voyage_id</text>
<polygon fill="#a6cee3" stroke="transparent" points="183.5,-223 183.5,-238 346.5,-238 346.5,-223 183.5,-223"/>
<text text-anchor="start" x="316.5" y="-229" font-family="Ubuntu" font-style="italic" font-size="10.00">string</text>
<text text-anchor="start" x="21.5" y="-213" font-family="Ubuntu" font-size="10.00">3</text>
<text text-anchor="start" x="32.5" y="-213" font-family="Ubuntu" font-size="10.00">route_id</text>
<polygon fill="#a6cee3" stroke="transparent" points="183.5,-208 183.5,-223 346.5,-223 346.5,-208 183.5,-208"/>
<text text-anchor="start" x="316.5" y="-214" font-family="Ubuntu" font-style="italic" font-size="10.00">string</text>
<text text-anchor="start" x="21.5" y="-198" font-family="Ubuntu" font-size="10.00">4</text>
<text text-anchor="start" x="32.5" y="-198" font-family="Ubuntu" font-size="10.00">route_edition_number</text>
<polygon fill="#a6cee3" stroke="transparent" points="183.5,-193 183.5,-208 346.5,-208 346.5,-193 183.5,-193"/>
<text text-anchor="start" x="313.5" y="-199" font-family="Ubuntu" font-style="italic" font-size="10.00">uint32</text>
<text text-anchor="start" x="15.5" y="-183" font-family="Ubuntu" font-size="10.00">10</text>
<text text-anchor="start" x="32.5" y="-183" font-family="Ubuntu" font-size="10.00">current_leg_index</text>
<polygon fill="#a6cee3" stroke="transparent" points="183.5,-178 183.5,-193 346.5,-193 346.5,-178 183.5,-178"/>
<text text-anchor="start" x="313.5" y="-184" font-family="Ubuntu" font-style="italic" font-size="10.00">uint32</text>
<text text-anchor="start" x="15.5" y="-168" font-family="Ubuntu" font-size="10.00">11</text>
<text text-anchor="start" x="32.5" y="-168" font-family="Ubuntu" font-size="10.00">next_waypoint_index</text>
<polygon fill="#a6cee3" stroke="transparent" points="183.5,-163 183.5,-178 346.5,-178 346.5,-163 183.5,-163"/>
<text text-anchor="start" x="313.5" y="-169" font-family="Ubuntu" font-style="italic" font-size="10.00">uint32</text>
<text text-anchor="start" x="15.5" y="-153" font-family="Ubuntu" font-size="10.00">12</text>
<text text-anchor="start" x="32.5" y="-153" font-family="Ubuntu" font-size="10.00">distance_to_next_waypoint_m</text>
<polygon fill="#a6cee3" stroke="transparent" points="183.5,-148 183.5,-163 346.5,-163 346.5,-148 183.5,-148"/>
<text text-anchor="start" x="321.5" y="-154" font-family="Ubuntu" font-style="italic" font-size="10.00">float</text>
<text text-anchor="start" x="15.5" y="-138" font-family="Ubuntu" font-size="10.00">13</text>
<text text-anchor="start" x="32.5" y="-138" font-family="Ubuntu" font-size="10.00">xtd_m</text>
<polygon fill="#a6cee3" stroke="transparent" points="183.5,-133 183.5,-148 346.5,-148 346.5,-133 183.5,-133"/>
<text text-anchor="start" x="321.5" y="-139" font-family="Ubuntu" font-style="italic" font-size="10.00">float</text>
<text text-anchor="start" x="15.5" y="-123" font-family="Ubuntu" font-size="10.00">14</text>
<text text-anchor="start" x="32.5" y="-123" font-family="Ubuntu" font-size="10.00">bearing_to_next_deg</text>
<polygon fill="#a6cee3" stroke="transparent" points="183.5,-118 183.5,-133 346.5,-133 346.5,-118 183.5,-118"/>
<text text-anchor="start" x="321.5" y="-124" font-family="Ubuntu" font-style="italic" font-size="10.00">float</text>
<text text-anchor="start" x="15.5" y="-108" font-family="Ubuntu" font-size="10.00">20</text>
<text text-anchor="start" x="32.5" y="-108" font-family="Ubuntu" font-size="10.00">eta_next_waypoint</text>
<polygon fill="#fb9a99" stroke="transparent" points="183.5,-103 183.5,-118 346.5,-118 346.5,-103 183.5,-103"/>
<text text-anchor="start" x="185.5" y="-109" font-family="Ubuntu" font-weight="bold" font-size="10.00">google.protobuf.Timestamp</text>
<text text-anchor="start" x="15.5" y="-93" font-family="Ubuntu" font-size="10.00">21</text>
<text text-anchor="start" x="32.5" y="-93" font-family="Ubuntu" font-size="10.00">eta_arrival</text>
<polygon fill="#fb9a99" stroke="transparent" points="183.5,-88 183.5,-103 346.5,-103 346.5,-88 183.5,-88"/>
<text text-anchor="start" x="185.5" y="-94" font-family="Ubuntu" font-weight="bold" font-size="10.00">google.protobuf.Timestamp</text>
<text text-anchor="start" x="15.5" y="-78" font-family="Ubuntu" font-size="10.00">30</text>
<text text-anchor="start" x="32.5" y="-78" font-family="Ubuntu" font-size="10.00">deviation_active</text>
<polygon fill="#a6cee3" stroke="transparent" points="183.5,-73 183.5,-88 346.5,-88 346.5,-73 183.5,-73"/>
<text text-anchor="start" x="322.5" y="-79" font-family="Ubuntu" font-style="italic" font-size="10.00">bool</text>
<text text-anchor="start" x="15.5" y="-63" font-family="Ubuntu" font-size="10.00">31</text>
<text text-anchor="start" x="32.5" y="-63" font-family="Ubuntu" font-size="10.00">deviation_threshold_m</text>
<polygon fill="#a6cee3" stroke="transparent" points="183.5,-58 183.5,-73 346.5,-73 346.5,-58 183.5,-58"/>
<text text-anchor="start" x="321.5" y="-64" font-family="Ubuntu" font-style="italic" font-size="10.00">float</text>
<text text-anchor="start" x="15.5" y="-48" font-family="Ubuntu" font-size="10.00">40</text>
<text text-anchor="start" x="32.5" y="-48" font-family="Ubuntu" font-size="10.00">speed_over_ground_knots</text>
<polygon fill="#a6cee3" stroke="transparent" points="183.5,-43 183.5,-58 346.5,-58 346.5,-43 183.5,-43"/>
<text text-anchor="start" x="321.5" y="-49" font-family="Ubuntu" font-style="italic" font-size="10.00">float</text>
<text text-anchor="start" x="15.5" y="-33" font-family="Ubuntu" font-size="10.00">41</text>
<text text-anchor="start" x="32.5" y="-33" font-family="Ubuntu" font-size="10.00">course_over_ground_deg</text>
<polygon fill="#a6cee3" stroke="transparent" points="183.5,-28 183.5,-43 346.5,-43 346.5,-28 183.5,-28"/>
<text text-anchor="start" x="321.5" y="-34" font-family="Ubuntu" font-style="italic" font-size="10.00">float</text>
<polygon fill="none" stroke="black" points="8,-27 8,-269 347,-269 347,-27 8,-27"/>
</a>
</g>
</g>
<!-- Node_Ja_100 -->
<g id="node2" class="node">
<title>Node_Ja_100</title>
<g id="a_node2"><a xlink:title="google.protobuf.Timestamp">
<polygon fill="#fffaf0" stroke="transparent" points="399,-71.5 399,-118.5 489,-118.5 489,-71.5 399,-71.5"/>
<polygon fill="#e31a1c" stroke="transparent" points="400,-102 400,-117 488,-117 488,-102 400,-102"/>
<text text-anchor="start" x="422" y="-108" font-family="Ubuntu" font-weight="bold" font-size="10.00">Timestamp</text>
<text text-anchor="start" x="406" y="-92" font-family="Ubuntu" font-size="10.00">1</text>
<text text-anchor="start" x="417" y="-92" font-family="Ubuntu" font-size="10.00">seconds</text>
<polygon fill="#a6cee3" stroke="transparent" points="459,-87 459,-102 488,-102 488,-87 459,-87"/>
<text text-anchor="start" x="461" y="-93" font-family="Ubuntu" font-style="italic" font-size="10.00">int64</text>
<text text-anchor="start" x="406" y="-77" font-family="Ubuntu" font-size="10.00">2</text>
<text text-anchor="start" x="417" y="-77" font-family="Ubuntu" font-size="10.00">nanos</text>
<polygon fill="#a6cee3" stroke="transparent" points="459,-72 459,-87 488,-87 488,-72 459,-72"/>
<text text-anchor="start" x="461" y="-78" font-family="Ubuntu" font-style="italic" font-size="10.00">int32</text>
<polygon fill="none" stroke="black" points="399,-71.5 399,-118.5 489,-118.5 489,-71.5 399,-71.5"/>
</a>
</g>
</g>
<!-- Node_Ja_101&#45;&gt;Node_Ja_100 -->
<g id="edge1" class="edge">
<title>Node_Ja_101:e&#45;&gt;Node_Ja_100:header</title>
<g id="a_edge1"><a xlink:title="Ja_101 &#45;&#45;&gt; Ja_100">
<path fill="none" stroke="#000000" d="M347.5,-246C408.35,-246 342.99,-125.47 389.05,-111.35"/>
<polygon fill="#000000" stroke="#000000" points="389.56,-114.81 399,-110 388.62,-107.87 389.56,-114.81"/>
</a>
</g>
</g>
<!-- Node_Ja_101&#45;&gt;Node_Ja_100 -->
<g id="edge2" class="edge">
<title>Node_Ja_101:e&#45;&gt;Node_Ja_100:header</title>
<g id="a_edge2"><a xlink:title="Ja_101 &#45;&#45;&gt; Ja_100">
<path fill="none" stroke="#000000" d="M347.5,-110C366.63,-110 373.77,-110 388.97,-110"/>
<polygon fill="#000000" stroke="#000000" points="389,-113.5 399,-110 389,-106.5 389,-113.5"/>
</a>
</g>
</g>
<!-- Node_Ja_101&#45;&gt;Node_Ja_100 -->
<g id="edge3" class="edge">
<title>Node_Ja_101:e&#45;&gt;Node_Ja_100:header</title>
<g id="a_edge3"><a xlink:title="Ja_101 &#45;&#45;&gt; Ja_100">
<path fill="none" stroke="#000000" d="M347.5,-95C367.43,-95 373.37,-105.48 388.71,-108.92"/>
<polygon fill="#000000" stroke="#000000" points="388.69,-112.44 399,-110 389.42,-105.48 388.69,-112.44"/>
</a>
</g>
</g>
</g>
</svg>
