<?xml version="1.0" encoding="UTF-8" standalone="no"?>
<!DOCTYPE svg PUBLIC "-//W3C//DTD SVG 1.1//EN"
 "http://www.w3.org/Graphics/SVG/1.1/DTD/svg11.dtd">
<!-- Generated by graphviz version 2.43.0 (0)
 -->
<!-- Title: protodot Pages: 1 -->
<svg width="421pt" height="189pt"
 viewBox="0.00 0.00 421.00 189.00" xmlns="http://www.w3.org/2000/svg" xmlns:xlink="http://www.w3.org/1999/xlink">
<g id="graph0" class="graph" transform="scale(1 1) rotate(0) translate(4 185)">
<title>protodot</title>
<g id="a_graph0"><a xlink:title="keelson">
<text text-anchor="middle" x="206.5" y="-7.8" font-family="Times,serif" font-size="14.00">keelson</text>
</a>
</g>
<!-- Node_Ja_100 -->
<g id="node1" class="node">
<title>Node_Ja_100</title>
<g id="a_node1"><a xlink:title="google.protobuf.Timestamp">
<polygon fill="#fffaf0" stroke="transparent" points="306.5,-130 306.5,-177 396.5,-177 396.5,-130 306.5,-130"/>
<polygon fill="#e31a1c" stroke="transparent" points="307.5,-160.5 307.5,-175.5 395.5,-175.5 395.5,-160.5 307.5,-160.5"/>
<text text-anchor="start" x="329.5" y="-166.5" font-family="Ubuntu" font-weight="bold" font-size="10.00">Timestamp</text>
<text text-anchor="start" x="313.5" y="-150.5" font-family="Ubuntu" font-size="10.00">1</text>
<text text-anchor="start" x="324.5" y="-150.5" font-family="Ubuntu" font-size="10.00">seconds</text>
<polygon fill="#a6cee3" stroke="transparent" points="366.5,-145.5 366.5,-160.5 395.5,-160.5 395.5,-145.5 366.5,-145.5"/>
<text text-anchor="start" x="368.5" y="-151.5" font-family="Ubuntu" font-style="italic" font-size="10.00">int64</text>
<text text-anchor="start" x="313.5" y="-135.5" font-family="Ubuntu" font-size="10.00">2</text>
<text text-anchor="start" x="324.5" y="-135.5" font-family="Ubuntu" font-size="10.00">nanos</text>
<polygon fill="#a6cee3" stroke="transparent" points="366.5,-130.5 366.5,-145.5 395.5,-145.5 395.5,-130.5 366.5,-130.5"/>
<text text-anchor="start" x="368.5" y="-136.5" font-family="Ubuntu" font-style="italic" font-size="10.00">int32</text>
<polygon fill="none" stroke="black" points="306.5,-130 306.5,-177 396.5,-177 396.5,-130 306.5,-130"/>
</a>
</g>
</g>
<!-- Node_Ja_101 -->
<g id="node2" class="node">
<title>Node_Ja_101</title>
<g id="a_node2"><a xlink:title="keelson.TargetType">
<polygon fill="#fffaf0" stroke="transparent" points="8,-102 8,-149 246,-149 246,-102 8,-102"/>
<polygon fill="#e31a1c" stroke="transparent" points="9,-132.5 9,-147.5 245,-147.5 245,-132.5 9,-132.5"/>
<text text-anchor="start" x="179" y="-138.5" font-family="Ubuntu" font-weight="bold" font-size="10.00">TargetType</text>
<text text-anchor="start" x="15" y="-122.5" font-family="Ubuntu" font-size="10.00">1</text>
<text text-anchor="start" x="26" y="-122.5" font-family="Ubuntu" font-size="10.00">timestamp</text>
<polygon fill="#fb9a99" stroke="transparent" points="82,-117.5 82,-132.5 245,-132.5 245,-117.5 82,-117.5"/>
<text text-anchor="start" x="84" y="-123.5" font-family="Ubuntu" font-weight="bold" font-size="10.00">google.protobuf.Timestamp</text>
<text text-anchor="start" x="15" y="-107.5" font-family="Ubuntu" font-size="10.00">2</text>
<text text-anchor="start" x="26" y="-107.5" font-family="Ubuntu" font-size="10.00">type</text>
<polygon fill="#b2df8a" stroke="transparent" points="82,-102.5 82,-117.5 245,-117.5 245,-102.5 82,-102.5"/>
<text text-anchor="start" x="185" y="-108.5" font-family="Ubuntu" text-decoration="underline" font-size="10.00">TargetTypes</text>
<polygon fill="none" stroke="black" points="8,-102 8,-149 246,-149 246,-102 8,-102"/>
</a>
</g>
</g>
<!-- Node_Ja_101&#45;&gt;Node_Ja_100 -->
<g id="edge1" class="edge">
<title>Node_Ja_101:e&#45;&gt;Node_Ja_100:header</title>
<g id="a_edge1"><a xlink:title="Ja_101 &#45;&#45;&gt; Ja_100">
<path fill="none" stroke="#000000" d="M246,-124.5C275.48,-124.5 274.11,-159.1 296.6,-166.93"/>
<polygon fill="#000000" stroke="#000000" points="296.08,-170.39 306.5,-168.5 297.17,-163.48 296.08,-170.39"/>
</a>
</g>
</g>
<!-- Node_Ja_102 -->
<g id="node3" class="node">
<title>Node_Ja_102</title>
<g id="a_node3"><a xlink:title="TargetTypes">
<polygon fill="#b2df8a" stroke="transparent" points="298,-27 298,-104 405,-104 405,-27 298,-27"/>
<polygon fill="#33a02c" stroke="transparent" points="299.5,-87.5 299.5,-102.5 404.5,-102.5 404.5,-87.5 299.5,-87.5"/>
<text text-anchor="start" x="301.5" y="-93.5" font-family="Ubuntu" font-size="10.00">enum </text>
<text text-anchor="start" x="332.5" y="-93.5" font-family="Ubuntu" font-weight="bold" font-size="10.00">TargetTypes</text>
<polygon fill="#b2df8a" stroke="transparent" points="299.5,-72.5 299.5,-87.5 375.5,-87.5 375.5,-72.5 299.5,-72.5"/>
<text text-anchor="start" x="301.5" y="-77.5" font-family="Ubuntu" font-size="10.00">UNKNOWN</text>
<polygon fill="#b2df8a" stroke="transparent" points="375.5,-72.5 375.5,-87.5 404.5,-87.5 404.5,-72.5 375.5,-72.5"/>
<text text-anchor="start" x="377.5" y="-77.5" font-family="Ubuntu" font-size="10.00">0</text>
<polygon fill="#b2df8a" stroke="transparent" points="299.5,-57.5 299.5,-72.5 375.5,-72.5 375.5,-57.5 299.5,-57.5"/>
<text text-anchor="start" x="301.5" y="-62.5" font-family="Ubuntu" font-size="10.00">PERSON</text>
<polygon fill="#b2df8a" stroke="transparent" points="375.5,-57.5 375.5,-72.5 404.5,-72.5 404.5,-57.5 375.5,-57.5"/>
<text text-anchor="start" x="377.5" y="-62.5" font-family="Ubuntu" font-size="10.00">1</text>
<polygon fill="#b2df8a" stroke="transparent" points="299.5,-42.5 299.5,-57.5 375.5,-57.5 375.5,-42.5 299.5,-42.5"/>
<text text-anchor="start" x="301.5" y="-47.5" font-family="Ubuntu" font-size="10.00">VESSEL</text>
<polygon fill="#b2df8a" stroke="transparent" points="375.5,-42.5 375.5,-57.5 404.5,-57.5 404.5,-42.5 375.5,-42.5"/>
<text text-anchor="start" x="377.5" y="-47.5" font-family="Ubuntu" font-size="10.00">2</text>
<polygon fill="#b2df8a" stroke="transparent" points="299.5,-27.5 299.5,-42.5 375.5,-42.5 375.5,-27.5 299.5,-27.5"/>
<text text-anchor="start" x="301.5" y="-32.5" font-family="Ubuntu" font-size="10.00">SEAMARK</text>
<polygon fill="#b2df8a" stroke="transparent" points="375.5,-27.5 375.5,-42.5 404.5,-42.5 404.5,-27.5 375.5,-27.5"/>
<text text-anchor="start" x="377.5" y="-32.5" font-family="Ubuntu" font-size="10.00">3</text>
<polygon fill="none" stroke="black" points="298,-27 298,-104 405,-104 405,-27 298,-27"/>
</a>
</g>
</g>
<!-- Node_Ja_101&#45;&gt;Node_Ja_102 -->
<g id="edge2" class="edge">
<title>Node_Ja_101:e&#45;&gt;Node_Ja_102</title>
<g id="a_edge2"><a xlink:title="Ja_101 &#45;&#45;&gt; Ja_102">
<path fill="none" stroke="#008000" d="M246,-109.5C257.42,-109.5 269.03,-107.24 280.16,-103.75"/>
<polygon fill="#008000" stroke="#008000" points="281.5,-106.98 289.79,-100.38 279.2,-100.37 281.5,-106.98"/>
</a>
</g>
</g>
</g>
</svg>
