<?xml version="1.0" encoding="UTF-8" standalone="no"?>
<!DOCTYPE svg PUBLIC "-//W3C//DTD SVG 1.1//EN"
 "http://www.w3.org/Graphics/SVG/1.1/DTD/svg11.dtd">
<!-- Generated by graphviz version 2.43.0 (0)
 -->
<!-- Title: protodot Pages: 1 -->
<svg width="592pt" height="219pt"
 viewBox="0.00 0.00 592.00 219.00" xmlns="http://www.w3.org/2000/svg" xmlns:xlink="http://www.w3.org/1999/xlink">
<g id="graph0" class="graph" transform="scale(1 1) rotate(0) translate(4 215)">
<title>protodot</title>
<g id="a_graph0"><a xlink:title="keelson">
<text text-anchor="middle" x="292" y="-7.8" font-family="Times,serif" font-size="14.00">keelson</text>
</a>
</g>
<!-- Node_Ja_101 -->
<g id="node1" class="node">
<title>Node_Ja_101</title>
<g id="a_node1"><a xlink:title="keelson.OperationalAuthority">
<polygon fill="#fffaf0" stroke="transparent" points="8,-77.5 8,-169.5 284,-169.5 284,-77.5 8,-77.5"/>
<polygon fill="#e31a1c" stroke="transparent" points="9,-153.5 9,-168.5 283,-168.5 283,-153.5 9,-153.5"/>
<text text-anchor="start" x="161" y="-159.5" font-family="Ubuntu" font-weight="bold" font-size="10.00">OperationalAuthority</text>
<text text-anchor="start" x="15" y="-143.5" font-family="Ubuntu" font-size="10.00">1</text>
<text text-anchor="start" x="26" y="-143.5" font-family="Ubuntu" font-size="10.00">timestamp</text>
<polygon fill="#fb9a99" stroke="transparent" points="120,-138.5 120,-153.5 283,-153.5 283,-138.5 120,-138.5"/>
<text text-anchor="start" x="122" y="-144.5" font-family="Ubuntu" font-weight="bold" font-size="10.00">google.protobuf.Timestamp</text>
<text text-anchor="start" x="15" y="-128.5" font-family="Ubuntu" font-size="10.00">2</text>
<text text-anchor="start" x="26" y="-128.5" font-family="Ubuntu" font-size="10.00">level</text>
<polygon fill="#b2df8a" stroke="transparent" points="120,-123.5 120,-138.5 283,-138.5 283,-123.5 120,-123.5"/>
<text text-anchor="start" x="209" y="-129.5" font-family="Ubuntu" text-decoration="underline" font-size="10.00">AuthorityLevel</text>
<text text-anchor="start" x="15" y="-113.5" font-family="Ubuntu" font-size="10.00">3</text>
<text text-anchor="start" x="26" y="-113.5" font-family="Ubuntu" font-size="10.00">composite_score</text>
<polygon fill="#a6cee3" stroke="transparent" points="120,-108.5 120,-123.5 283,-123.5 283,-108.5 120,-108.5"/>
<text text-anchor="start" x="258" y="-114.5" font-family="Ubuntu" font-style="italic" font-size="10.00">float</text>
<text text-anchor="start" x="15" y="-98.5" font-family="Ubuntu" font-size="10.00">4</text>
<text text-anchor="start" x="26" y="-98.5" font-family="Ubuntu" font-size="10.00">reason</text>
<polygon fill="#a6cee3" stroke="transparent" points="120,-93.5 120,-108.5 283,-108.5 283,-93.5 120,-93.5"/>
<text text-anchor="start" x="253" y="-99.5" font-family="Ubuntu" font-style="italic" font-size="10.00">string</text>
<text text-anchor="start" x="15" y="-83.5" font-family="Ubuntu" font-size="10.00">5</text>
<text text-anchor="start" x="26" y="-83.5" font-family="Ubuntu" font-size="10.00">component_scores</text>
<polygon fill="#a6cee3" stroke="transparent" points="120,-78.5 120,-93.5 283,-93.5 283,-78.5 120,-78.5"/>
<text text-anchor="start" x="185" y="-84.5" font-family="Ubuntu" font-size="10.00">map&lt;string, </text>
<text text-anchor="start" x="249" y="-84.5" font-family="Ubuntu" font-style="italic" font-size="10.00">float</text>
<text text-anchor="start" x="272" y="-84.5" font-family="Ubuntu" font-size="10.00">&gt;</text>
<polygon fill="none" stroke="black" points="8,-77.5 8,-169.5 284,-169.5 284,-77.5 8,-77.5"/>
</a>
</g>
</g>
<!-- Node_Ja_100 -->
<g id="node2" class="node">
<title>Node_Ja_100</title>
<g id="a_node2"><a xlink:title="google.protobuf.Timestamp">
<polygon fill="#fffaf0" stroke="transparent" points="411,-160 411,-207 501,-207 501,-160 411,-160"/>
<polygon fill="#e31a1c" stroke="transparent" points="412,-190.5 412,-205.5 500,-205.5 500,-190.5 412,-190.5"/>
<text text-anchor="start" x="434" y="-196.5" font-family="Ubuntu" font-weight="bold" font-size="10.00">Timestamp</text>
<text text-anchor="start" x="418" y="-180.5" font-family="Ubuntu" font-size="10.00">1</text>
<text text-anchor="start" x="429" y="-180.5" font-family="Ubuntu" font-size="10.00">seconds</text>
<polygon fill="#a6cee3" stroke="transparent" points="471,-175.5 471,-190.5 500,-190.5 500,-175.5 471,-175.5"/>
<text text-anchor="start" x="473" y="-181.5" font-family="Ubuntu" font-style="italic" font-size="10.00">int64</text>
<text text-anchor="start" x="418" y="-165.5" font-family="Ubuntu" font-size="10.00">2</text>
<text text-anchor="start" x="429" y="-165.5" font-family="Ubuntu" font-size="10.00">nanos</text>
<polygon fill="#a6cee3" stroke="transparent" points="471,-160.5 471,-175.5 500,-175.5 500,-160.5 471,-160.5"/>
<text text-anchor="start" x="473" y="-166.5" font-family="Ubuntu" font-style="italic" font-size="10.00">int32</text>
<polygon fill="none" stroke="black" points="411,-160 411,-207 501,-207 501,-160 411,-160"/>
</a>
</g>
</g>
<!-- Node_Ja_101&#45;&gt;Node_Ja_100 -->
<g id="edge1" class="edge">
<title>Node_Ja_101:e&#45;&gt;Node_Ja_100:header</title>
<g id="a_edge1"><a xlink:title="Ja_101 &#45;&#45;&gt; Ja_100">
<path fill="none" stroke="#000000" d="M284,-146.5C341.42,-146.5 349.23,-192.58 400.83,-197.99"/>
<polygon fill="#000000" stroke="#000000" points="400.84,-201.49 411,-198.5 401.19,-194.5 400.84,-201.49"/>
</a>
</g>
</g>
<!-- Node_Ja_102 -->
<g id="node3" class="node">
<title>Node_Ja_102</title>
<g id="a_node3"><a xlink:title="AuthorityLevel">
<polygon fill="#b2df8a" stroke="transparent" points="336,-27 336,-134 576,-134 576,-27 336,-27"/>
<polygon fill="#33a02c" stroke="transparent" points="337,-117.5 337,-132.5 575,-132.5 575,-117.5 337,-117.5"/>
<text text-anchor="start" x="459" y="-123.5" font-family="Ubuntu" font-size="10.00">enum </text>
<text text-anchor="start" x="490" y="-123.5" font-family="Ubuntu" font-weight="bold" font-size="10.00">AuthorityLevel</text>
<polygon fill="#b2df8a" stroke="transparent" points="337,-102.5 337,-117.5 564,-117.5 564,-102.5 337,-102.5"/>
<text text-anchor="start" x="339" y="-107.5" font-family="Ubuntu" font-size="10.00">AUTHORITY_LEVEL_UNKNOWN</text>
<polygon fill="#b2df8a" stroke="transparent" points="564,-102.5 564,-117.5 575,-117.5 575,-102.5 564,-102.5"/>
<text text-anchor="start" x="566" y="-107.5" font-family="Ubuntu" font-size="10.00">0</text>
<polygon fill="#b2df8a" stroke="transparent" points="337,-87.5 337,-102.5 564,-102.5 564,-87.5 337,-87.5"/>
<text text-anchor="start" x="339" y="-92.5" font-family="Ubuntu" font-size="10.00">AUTHORITY_LEVEL_MINIMAL_SAFE_MODE</text>
<polygon fill="#b2df8a" stroke="transparent" points="564,-87.5 564,-102.5 575,-102.5 575,-87.5 564,-87.5"/>
<text text-anchor="start" x="566" y="-92.5" font-family="Ubuntu" font-size="10.00">1</text>
<polygon fill="#b2df8a" stroke="transparent" points="337,-72.5 337,-87.5 564,-87.5 564,-72.5 337,-72.5"/>
<text text-anchor="start" x="339" y="-77.5" font-family="Ubuntu" font-size="10.00">AUTHORITY_LEVEL_SUPERVISED_REMOTE</text>
<polygon fill="#b2df8a" stroke="transparent" points="564,-72.5 564,-87.5 575,-87.5 575,-72.5 564,-72.5"/>
<text text-anchor="start" x="566" y="-77.5" font-family="Ubuntu" font-size="10.00">2</text>
<polygon fill="#b2df8a" stroke="transparent" points="337,-57.5 337,-72.5 564,-72.5 564,-57.5 337,-57.5"/>
<text text-anchor="start" x="339" y="-62.5" font-family="Ubuntu" font-size="10.00">AUTHORITY_LEVEL_REMOTE_CONTROLLED</text>
<polygon fill="#b2df8a" stroke="transparent" points="564,-57.5 564,-72.5 575,-72.5 575,-57.5 564,-57.5"/>
<text text-anchor="start" x="566" y="-62.5" font-family="Ubuntu" font-size="10.00">3</text>
<polygon fill="#b2df8a" stroke="transparent" points="337,-42.5 337,-57.5 564,-57.5 564,-42.5 337,-42.5"/>
<text text-anchor="start" x="339" y="-47.5" font-family="Ubuntu" font-size="10.00">AUTHORITY_LEVEL_ASSISTED_AUTONOMOUS</text>
<polygon fill="#b2df8a" stroke="transparent" points="564,-42.5 564,-57.5 575,-57.5 575,-42.5 564,-42.5"/>
<text text-anchor="start" x="566" y="-47.5" font-family="Ubuntu" font-size="10.00">4</text>
<polygon fill="#b2df8a" stroke="transparent" points="337,-27.5 337,-42.5 564,-42.5 564,-27.5 337,-27.5"/>
<text text-anchor="start" x="339" y="-32.5" font-family="Ubuntu" font-size="10.00">AUTHORITY_LEVEL_FULL_AUTONOMOUS</text>
<polygon fill="#b2df8a" stroke="transparent" points="564,-27.5 564,-42.5 575,-42.5 575,-27.5 564,-27.5"/>
<text text-anchor="start" x="566" y="-32.5" font-family="Ubuntu" font-size="10.00">5</text>
<polygon fill="none" stroke="black" points="336,-27 336,-134 576,-134 576,-27 336,-27"/>
</a>
</g>
</g>
<!-- Node_Ja_101&#45;&gt;Node_Ja_102 -->
<g id="edge2" class="edge">
<title>Node_Ja_101:e&#45;&gt;Node_Ja_102</title>
<g id="a_edge2"><a xlink:title="Ja_101 &#45;&#45;&gt; Ja_102">
<path fill="none" stroke="#008000" d="M284,-131.5C295.14,-131.5 306.53,-130.49 317.87,-128.76"/>
<polygon fill="#008000" stroke="#008000" points="318.55,-132.2 327.82,-127.06 317.37,-125.3 318.55,-132.2"/>
</a>
</g>
</g>
</g>
</svg>
