<?xml version="1.0" encoding="UTF-8" standalone="no"?>
<!DOCTYPE svg PUBLIC "-//W3C//DTD SVG 1.1//EN"
 "http://www.w3.org/Graphics/SVG/1.1/DTD/svg11.dtd">
<!-- Generated by graphviz version 2.43.0 (0)
 -->
<!-- Title: protodot Pages: 1 -->
<svg width="494pt" height="205pt"
 viewBox="0.00 0.00 494.00 204.50" xmlns="http://www.w3.org/2000/svg" xmlns:xlink="http://www.w3.org/1999/xlink">
<g id="graph0" class="graph" transform="scale(1 1) rotate(0) translate(4 200.5)">
<title>protodot</title>
<g id="a_graph0"><a xlink:title="keelson">
<text text-anchor="middle" x="243" y="-7.8" font-family="Times,serif" font-size="14.00">keelson</text>
</a>
</g>
<!-- Node_Ja_101 -->
<g id="node1" class="node">
<title>Node_Ja_101</title>
<g id="a_node1"><a xlink:title="keelson.SimulationStatus">
<polygon fill="#fffaf0" stroke="transparent" points="8,-57.5 8,-149.5 298,-149.5 298,-57.5 8,-57.5"/>
<polygon fill="#e31a1c" stroke="transparent" points="9,-133.5 9,-148.5 297,-148.5 297,-133.5 9,-133.5"/>
<text text-anchor="start" x="198" y="-139.5" font-family="Ubuntu" font-weight="bold" font-size="10.00">SimulationStatus</text>
<text text-anchor="start" x="15" y="-123.5" font-family="Ubuntu" font-size="10.00">1</text>
<text text-anchor="start" x="26" y="-123.5" font-family="Ubuntu" font-size="10.00">timestamp</text>
<polygon fill="#fb9a99" stroke="transparent" points="134,-118.5 134,-133.5 297,-133.5 297,-118.5 134,-118.5"/>
<text text-anchor="start" x="136" y="-124.5" font-family="Ubuntu" font-weight="bold" font-size="10.00">google.protobuf.Timestamp</text>
<text text-anchor="start" x="15" y="-108.5" font-family="Ubuntu" font-size="10.00">2</text>
<text text-anchor="start" x="26" y="-108.5" font-family="Ubuntu" font-size="10.00">state</text>
<polygon fill="#b2df8a" stroke="transparent" points="134,-103.5 134,-118.5 297,-118.5 297,-103.5 134,-103.5"/>
<text text-anchor="start" x="216" y="-109.5" font-family="Ubuntu" text-decoration="underline" font-size="10.00">SimulationState</text>
<text text-anchor="start" x="15" y="-93.5" font-family="Ubuntu" font-size="10.00">3</text>
<text text-anchor="start" x="26" y="-93.5" font-family="Ubuntu" font-size="10.00">name</text>
<polygon fill="#a6cee3" stroke="transparent" points="134,-88.5 134,-103.5 297,-103.5 297,-88.5 134,-88.5"/>
<text text-anchor="start" x="267" y="-94.5" font-family="Ubuntu" font-style="italic" font-size="10.00">string</text>
<text text-anchor="start" x="15" y="-78.5" font-family="Ubuntu" font-size="10.00">4</text>
<text text-anchor="start" x="26" y="-78.5" font-family="Ubuntu" font-size="10.00">id</text>
<polygon fill="#a6cee3" stroke="transparent" points="134,-73.5 134,-88.5 297,-88.5 297,-73.5 134,-73.5"/>
<text text-anchor="start" x="267" y="-79.5" font-family="Ubuntu" font-style="italic" font-size="10.00">string</text>
<text text-anchor="start" x="15" y="-63.5" font-family="Ubuntu" font-size="10.00">5</text>
<text text-anchor="start" x="26" y="-63.5" font-family="Ubuntu" font-size="10.00">timestampSimulation</text>
<polygon fill="#fb9a99" stroke="transparent" points="134,-58.5 134,-73.5 297,-73.5 297,-58.5 134,-58.5"/>
<text text-anchor="start" x="136" y="-64.5" font-family="Ubuntu" font-weight="bold" font-size="10.00">google.protobuf.Timestamp</text>
<polygon fill="none" stroke="black" points="8,-57.5 8,-149.5 298,-149.5 298,-57.5 8,-57.5"/>
</a>
</g>
</g>
<!-- Node_Ja_100 -->
<g id="node2" class="node">
<title>Node_Ja_100</title>
<g id="a_node2"><a xlink:title="google.protobuf.Timestamp">
<polygon fill="#fffaf0" stroke="transparent" points="369,-27 369,-74 459,-74 459,-27 369,-27"/>
<polygon fill="#e31a1c" stroke="transparent" points="370,-57.5 370,-72.5 458,-72.5 458,-57.5 370,-57.5"/>
<text text-anchor="start" x="392" y="-63.5" font-family="Ubuntu" font-weight="bold" font-size="10.00">Timestamp</text>
<text text-anchor="start" x="376" y="-47.5" font-family="Ubuntu" font-size="10.00">1</text>
<text text-anchor="start" x="387" y="-47.5" font-family="Ubuntu" font-size="10.00">seconds</text>
<polygon fill="#a6cee3" stroke="transparent" points="429,-42.5 429,-57.5 458,-57.5 458,-42.5 429,-42.5"/>
<text text-anchor="start" x="431" y="-48.5" font-family="Ubuntu" font-style="italic" font-size="10.00">int64</text>
<text text-anchor="start" x="376" y="-32.5" font-family="Ubuntu" font-size="10.00">2</text>
<text text-anchor="start" x="387" y="-32.5" font-family="Ubuntu" font-size="10.00">nanos</text>
<polygon fill="#a6cee3" stroke="transparent" points="429,-27.5 429,-42.5 458,-42.5 458,-27.5 429,-27.5"/>
<text text-anchor="start" x="431" y="-33.5" font-family="Ubuntu" font-style="italic" font-size="10.00">int32</text>
<polygon fill="none" stroke="black" points="369,-27 369,-74 459,-74 459,-27 369,-27"/>
</a>
</g>
</g>
<!-- Node_Ja_101&#45;&gt;Node_Ja_100 -->
<g id="edge1" class="edge">
<title>Node_Ja_101:e&#45;&gt;Node_Ja_100:header</title>
<g id="a_edge1"><a xlink:title="Ja_101 &#45;&#45;&gt; Ja_100">
<path fill="none" stroke="#000000" d="M298,-126.5C335.86,-126.5 329.16,-75.97 359.01,-66.89"/>
<polygon fill="#000000" stroke="#000000" points="359.58,-70.34 369,-65.5 358.61,-63.41 359.58,-70.34"/>
</a>
</g>
</g>
<!-- Node_Ja_101&#45;&gt;Node_Ja_100 -->
<g id="edge3" class="edge">
<title>Node_Ja_101:e&#45;&gt;Node_Ja_100:header</title>
<g id="a_edge3"><a xlink:title="Ja_101 &#45;&#45;&gt; Ja_100">
<path fill="none" stroke="#000000" d="M298,-65.5C325.86,-65.5 335.27,-65.5 358.81,-65.5"/>
<polygon fill="#000000" stroke="#000000" points="359,-69 369,-65.5 359,-62 359,-69"/>
</a>
</g>
</g>
<!-- Node_Ja_102 -->
<g id="node3" class="node">
<title>Node_Ja_102</title>
<g id="a_node3"><a xlink:title="SimulationState">
<polygon fill="#b2df8a" stroke="transparent" points="350,-100.5 350,-192.5 478,-192.5 478,-100.5 350,-100.5"/>
<polygon fill="#33a02c" stroke="transparent" points="351,-176.5 351,-191.5 477,-191.5 477,-176.5 351,-176.5"/>
<text text-anchor="start" x="353" y="-182.5" font-family="Ubuntu" font-size="10.00">enum </text>
<text text-anchor="start" x="384" y="-182.5" font-family="Ubuntu" font-weight="bold" font-size="10.00">SimulationState</text>
<polygon fill="#b2df8a" stroke="transparent" points="351,-161.5 351,-176.5 438,-176.5 438,-161.5 351,-161.5"/>
<text text-anchor="start" x="353" y="-166.5" font-family="Ubuntu" font-size="10.00">UNKNOWN</text>
<polygon fill="#b2df8a" stroke="transparent" points="438,-161.5 438,-176.5 477,-176.5 477,-161.5 438,-161.5"/>
<text text-anchor="start" x="440" y="-166.5" font-family="Ubuntu" font-size="10.00">0</text>
<polygon fill="#b2df8a" stroke="transparent" points="351,-146.5 351,-161.5 438,-161.5 438,-146.5 351,-146.5"/>
<text text-anchor="start" x="353" y="-151.5" font-family="Ubuntu" font-size="10.00">STOPPED</text>
<polygon fill="#b2df8a" stroke="transparent" points="438,-146.5 438,-161.5 477,-161.5 477,-146.5 438,-146.5"/>
<text text-anchor="start" x="440" y="-151.5" font-family="Ubuntu" font-size="10.00">1</text>
<polygon fill="#b2df8a" stroke="transparent" points="351,-131.5 351,-146.5 438,-146.5 438,-131.5 351,-131.5"/>
<text text-anchor="start" x="353" y="-136.5" font-family="Ubuntu" font-size="10.00">ASSIGNED</text>
<polygon fill="#b2df8a" stroke="transparent" points="438,-131.5 438,-146.5 477,-146.5 477,-131.5 438,-131.5"/>
<text text-anchor="start" x="440" y="-136.5" font-family="Ubuntu" font-size="10.00">2</text>
<polygon fill="#b2df8a" stroke="transparent" points="351,-116.5 351,-131.5 438,-131.5 438,-116.5 351,-116.5"/>
<text text-anchor="start" x="353" y="-121.5" font-family="Ubuntu" font-size="10.00">RUNNING</text>
<polygon fill="#b2df8a" stroke="transparent" points="438,-116.5 438,-131.5 477,-131.5 477,-116.5 438,-116.5"/>
<text text-anchor="start" x="440" y="-121.5" font-family="Ubuntu" font-size="10.00">3</text>
<polygon fill="#b2df8a" stroke="transparent" points="351,-101.5 351,-116.5 438,-116.5 438,-101.5 351,-101.5"/>
<text text-anchor="start" x="353" y="-106.5" font-family="Ubuntu" font-size="10.00">PAUSED</text>
<polygon fill="#b2df8a" stroke="transparent" points="438,-101.5 438,-116.5 477,-116.5 477,-101.5 438,-101.5"/>
<text text-anchor="start" x="440" y="-106.5" font-family="Ubuntu" font-size="10.00">4</text>
<polygon fill="none" stroke="black" points="350,-100.5 350,-192.5 478,-192.5 478,-100.5 350,-100.5"/>
</a>
</g>
</g>
<!-- Node_Ja_101&#45;&gt;Node_Ja_102 -->
<g id="edge2" class="edge">
<title>Node_Ja_101:e&#45;&gt;Node_Ja_102</title>
<g id="a_edge2"><a xlink:title="Ja_101 &#45;&#45;&gt; Ja_102">
<path fill="none" stroke="#008000" d="M298,-111.5C309.22,-111.5 320.8,-113.04 332.09,-115.48"/>
<polygon fill="#008000" stroke="#008000" points="331.38,-118.91 341.92,-117.84 333.01,-112.1 331.38,-118.91"/>
</a>
</g>
</g>
</g>
</svg>
