<?xml version="1.0" encoding="UTF-8" standalone="no"?>
<!DOCTYPE svg PUBLIC "-//W3C//DTD SVG 1.1//EN"
 "http://www.w3.org/Graphics/SVG/1.1/DTD/svg11.dtd">
<!-- Generated by graphviz version 2.43.0 (0)
 -->
<!-- Title: protodot Pages: 1 -->
<svg width="417pt" height="159pt"
 viewBox="0.00 0.00 417.00 159.00" xmlns="http://www.w3.org/2000/svg" xmlns:xlink="http://www.w3.org/1999/xlink">
<g id="graph0" class="graph" transform="scale(1 1) rotate(0) translate(4 155)">
<title>protodot</title>
<g id="a_graph0"><a xlink:title="keelson">
<text text-anchor="middle" x="204.5" y="-7.8" font-family="Times,serif" font-size="14.00">keelson</text>
</a>
</g>
<!-- Node_Ja_101 -->
<g id="node1" class="node">
<title>Node_Ja_101</title>
<g id="a_node1"><a xlink:title="keelson.Audio">
<polygon fill="#fffaf0" stroke="transparent" points="8,-64 8,-141 259,-141 259,-64 8,-64"/>
<polygon fill="#e31a1c" stroke="transparent" points="9.5,-124.5 9.5,-139.5 258.5,-139.5 258.5,-124.5 9.5,-124.5"/>
<text text-anchor="start" x="223.5" y="-130.5" font-family="Ubuntu" font-weight="bold" font-size="10.00">Audio</text>
<text text-anchor="start" x="15.5" y="-114.5" font-family="Ubuntu" font-size="10.00">1</text>
<text text-anchor="start" x="26.5" y="-114.5" font-family="Ubuntu" font-size="10.00">timestamp</text>
<polygon fill="#fb9a99" stroke="transparent" points="95.5,-109.5 95.5,-124.5 258.5,-124.5 258.5,-109.5 95.5,-109.5"/>
<text text-anchor="start" x="97.5" y="-115.5" font-family="Ubuntu" font-weight="bold" font-size="10.00">google.protobuf.Timestamp</text>
<text text-anchor="start" x="15.5" y="-99.5" font-family="Ubuntu" font-size="10.00">2</text>
<text text-anchor="start" x="26.5" y="-99.5" font-family="Ubuntu" font-size="10.00">text_to_voice</text>
<polygon fill="#a6cee3" stroke="transparent" points="95.5,-94.5 95.5,-109.5 258.5,-109.5 258.5,-94.5 95.5,-94.5"/>
<text text-anchor="start" x="228.5" y="-100.5" font-family="Ubuntu" font-style="italic" font-size="10.00">string</text>
<text text-anchor="start" x="15.5" y="-84.5" font-family="Ubuntu" font-size="10.00">3</text>
<text text-anchor="start" x="26.5" y="-84.5" font-family="Ubuntu" font-size="10.00">data</text>
<polygon fill="#a6cee3" stroke="transparent" points="95.5,-79.5 95.5,-94.5 258.5,-94.5 258.5,-79.5 95.5,-79.5"/>
<text text-anchor="start" x="228.5" y="-85.5" font-family="Ubuntu" font-style="italic" font-size="10.00">bytes</text>
<text text-anchor="start" x="15.5" y="-69.5" font-family="Ubuntu" font-size="10.00">4</text>
<text text-anchor="start" x="26.5" y="-69.5" font-family="Ubuntu" font-size="10.00">encoding</text>
<polygon fill="#b2df8a" stroke="transparent" points="95.5,-64.5 95.5,-79.5 258.5,-79.5 258.5,-64.5 95.5,-64.5"/>
<text text-anchor="start" x="211.5" y="-70.5" font-family="Ubuntu" text-decoration="underline" font-size="10.00">Encoding</text>
<polygon fill="none" stroke="black" points="8,-64 8,-141 259,-141 259,-64 8,-64"/>
</a>
</g>
</g>
<!-- Node_Ja_100 -->
<g id="node2" class="node">
<title>Node_Ja_100</title>
<g id="a_node2"><a xlink:title="google.protobuf.Timestamp">
<polygon fill="#fffaf0" stroke="transparent" points="311,-100 311,-147 401,-147 401,-100 311,-100"/>
<polygon fill="#e31a1c" stroke="transparent" points="312,-130.5 312,-145.5 400,-145.5 400,-130.5 312,-130.5"/>
<text text-anchor="start" x="334" y="-136.5" font-family="Ubuntu" font-weight="bold" font-size="10.00">Timestamp</text>
<text text-anchor="start" x="318" y="-120.5" font-family="Ubuntu" font-size="10.00">1</text>
<text text-anchor="start" x="329" y="-120.5" font-family="Ubuntu" font-size="10.00">seconds</text>
<polygon fill="#a6cee3" stroke="transparent" points="371,-115.5 371,-130.5 400,-130.5 400,-115.5 371,-115.5"/>
<text text-anchor="start" x="373" y="-121.5" font-family="Ubuntu" font-style="italic" font-size="10.00">int64</text>
<text text-anchor="start" x="318" y="-105.5" font-family="Ubuntu" font-size="10.00">2</text>
<text text-anchor="start" x="329" y="-105.5" font-family="Ubuntu" font-size="10.00">nanos</text>
<polygon fill="#a6cee3" stroke="transparent" points="371,-100.5 371,-115.5 400,-115.5 400,-100.5 371,-100.5"/>
<text text-anchor="start" x="373" y="-106.5" font-family="Ubuntu" font-style="italic" font-size="10.00">int32</text>
<polygon fill="none" stroke="black" points="311,-100 311,-147 401,-147 401,-100 311,-100"/>
</a>
</g>
</g>
<!-- Node_Ja_101&#45;&gt;Node_Ja_100 -->
<g id="edge1" class="edge">
<title>Node_Ja_101:e&#45;&gt;Node_Ja_100:header</title>
<g id="a_edge1"><a xlink:title="Ja_101 &#45;&#45;&gt; Ja_100">
<path fill="none" stroke="#000000" d="M259.5,-117.5C280.36,-117.5 285.08,-132.45 300.9,-137.12"/>
<polygon fill="#000000" stroke="#000000" points="300.62,-140.62 311,-138.5 301.56,-133.68 300.62,-140.62"/>
</a>
</g>
</g>
<!-- Node_Ja_102 -->
<g id="node3" class="node">
<title>Node_Ja_102</title>
<g id="a_node3"><a xlink:title="Encoding">
<polygon fill="#b2df8a" stroke="transparent" points="311.5,-27 311.5,-74 400.5,-74 400.5,-27 311.5,-27"/>
<polygon fill="#33a02c" stroke="transparent" points="313,-57.5 313,-72.5 400,-72.5 400,-57.5 313,-57.5"/>
<text text-anchor="start" x="315" y="-63.5" font-family="Ubuntu" font-size="10.00">enum </text>
<text text-anchor="start" x="346" y="-63.5" font-family="Ubuntu" font-weight="bold" font-size="10.00">Encoding</text>
<polygon fill="#b2df8a" stroke="transparent" points="313,-42.5 313,-57.5 364,-57.5 364,-42.5 313,-42.5"/>
<text text-anchor="start" x="315" y="-47.5" font-family="Ubuntu" font-size="10.00">MP3</text>
<polygon fill="#b2df8a" stroke="transparent" points="364,-42.5 364,-57.5 400,-57.5 400,-42.5 364,-42.5"/>
<text text-anchor="start" x="366" y="-47.5" font-family="Ubuntu" font-size="10.00">0</text>
<polygon fill="#b2df8a" stroke="transparent" points="313,-27.5 313,-42.5 364,-42.5 364,-27.5 313,-27.5"/>
<text text-anchor="start" x="315" y="-32.5" font-family="Ubuntu" font-size="10.00">WAV</text>
<polygon fill="#b2df8a" stroke="transparent" points="364,-27.5 364,-42.5 400,-42.5 400,-27.5 364,-27.5"/>
<text text-anchor="start" x="366" y="-32.5" font-family="Ubuntu" font-size="10.00">1</text>
<polygon fill="none" stroke="black" points="311.5,-27 311.5,-74 400.5,-74 400.5,-27 311.5,-27"/>
</a>
</g>
</g>
<!-- Node_Ja_101&#45;&gt;Node_Ja_102 -->
<g id="edge2" class="edge">
<title>Node_Ja_101:e&#45;&gt;Node_Ja_102</title>
<g id="a_edge2"><a xlink:title="Ja_101 &#45;&#45;&gt; Ja_102">
<path fill="none" stroke="#008000" d="M259.5,-71.5C270.55,-71.5 282.15,-70.14 293.31,-68.12"/>
<polygon fill="#008000" stroke="#008000" points="294.29,-71.49 303.41,-66.09 292.92,-64.63 294.29,-71.49"/>
</a>
</g>
</g>
</g>
</svg>
