<?xml version="1.0" encoding="UTF-8" standalone="no"?>
<!DOCTYPE svg PUBLIC "-//W3C//DTD SVG 1.1//EN"
 "http://www.w3.org/Graphics/SVG/1.1/DTD/svg11.dtd">
<!-- Generated by graphviz version 2.43.0 (0)
 -->
<!-- Title: protodot Pages: 1 -->
<svg width="454pt" height="325pt"
 viewBox="0.00 0.00 454.00 324.50" xmlns="http://www.w3.org/2000/svg" xmlns:xlink="http://www.w3.org/1999/xlink">
<g id="graph0" class="graph" transform="scale(1 1) rotate(0) translate(4 320.5)">
<title>protodot</title>
<g id="a_graph0"><a xlink:title="keelson">
<text text-anchor="middle" x="223" y="-7.8" font-family="Times,serif" font-size="14.00">keelson</text>
</a>
</g>
<!-- Node_Ja_106 -->
<g id="node1" class="node">
<title>Node_Ja_106</title>
<g id="a_node1"><a xlink:title="keelson.Beaufort">
<polygon fill="#fffaf0" stroke="transparent" points="8,-203.5 8,-250.5 246,-250.5 246,-203.5 8,-203.5"/>
<polygon fill="#e31a1c" stroke="transparent" points="9,-234 9,-249 245,-249 245,-234 9,-234"/>
<text text-anchor="start" x="194" y="-240" font-family="Ubuntu" font-weight="bold" font-size="10.00">Beaufort</text>
<text text-anchor="start" x="15" y="-224" font-family="Ubuntu" font-size="10.00">1</text>
<text text-anchor="start" x="26" y="-224" font-family="Ubuntu" font-size="10.00">timestamp</text>
<polygon fill="#fb9a99" stroke="transparent" points="82,-219 82,-234 245,-234 245,-219 82,-219"/>
<text text-anchor="start" x="84" y="-225" font-family="Ubuntu" font-weight="bold" font-size="10.00">google.protobuf.Timestamp</text>
<text text-anchor="start" x="15" y="-209" font-family="Ubuntu" font-size="10.00">2</text>
<text text-anchor="start" x="26" y="-209" font-family="Ubuntu" font-size="10.00">force</text>
<polygon fill="#b2df8a" stroke="transparent" points="82,-204 82,-219 245,-219 245,-204 82,-204"/>
<text text-anchor="start" x="174" y="-210" font-family="Ubuntu" text-decoration="underline" font-size="10.00">BeaufortScale</text>
<polygon fill="none" stroke="black" points="8,-203.5 8,-250.5 246,-250.5 246,-203.5 8,-203.5"/>
</a>
</g>
</g>
<!-- Node_Ja_107 -->
<g id="node2" class="node">
<title>Node_Ja_107</title>
<g id="a_node2"><a xlink:title="BeaufortScale">
<polygon fill="#b2df8a" stroke="transparent" points="298,-27 298,-239 438,-239 438,-27 298,-27"/>
<polygon fill="#33a02c" stroke="transparent" points="299,-223 299,-238 437,-238 437,-223 299,-223"/>
<text text-anchor="start" x="324" y="-229" font-family="Ubuntu" font-size="10.00">enum </text>
<text text-anchor="start" x="355" y="-229" font-family="Ubuntu" font-weight="bold" font-size="10.00">BeaufortScale</text>
<polygon fill="#b2df8a" stroke="transparent" points="299,-208 299,-223 420,-223 420,-208 299,-208"/>
<text text-anchor="start" x="301" y="-213" font-family="Ubuntu" font-size="10.00">B0_CALM</text>
<polygon fill="#b2df8a" stroke="transparent" points="420,-208 420,-223 437,-223 437,-208 420,-208"/>
<text text-anchor="start" x="422" y="-213" font-family="Ubuntu" font-size="10.00">0</text>
<polygon fill="#b2df8a" stroke="transparent" points="299,-193 299,-208 420,-208 420,-193 299,-193"/>
<text text-anchor="start" x="301" y="-198" font-family="Ubuntu" font-size="10.00">B1_LIGHT_AIR</text>
<polygon fill="#b2df8a" stroke="transparent" points="420,-193 420,-208 437,-208 437,-193 420,-193"/>
<text text-anchor="start" x="422" y="-198" font-family="Ubuntu" font-size="10.00">1</text>
<polygon fill="#b2df8a" stroke="transparent" points="299,-178 299,-193 420,-193 420,-178 299,-178"/>
<text text-anchor="start" x="301" y="-183" font-family="Ubuntu" font-size="10.00">B2_LIGHT_BREEZE</text>
<polygon fill="#b2df8a" stroke="transparent" points="420,-178 420,-193 437,-193 437,-178 420,-178"/>
<text text-anchor="start" x="422" y="-183" font-family="Ubuntu" font-size="10.00">2</text>
<polygon fill="#b2df8a" stroke="transparent" points="299,-163 299,-178 420,-178 420,-163 299,-163"/>
<text text-anchor="start" x="301" y="-168" font-family="Ubuntu" font-size="10.00">B3_GENTLE_BREEZE</text>
<polygon fill="#b2df8a" stroke="transparent" points="420,-163 420,-178 437,-178 437,-163 420,-163"/>
<text text-anchor="start" x="422" y="-168" font-family="Ubuntu" font-size="10.00">3</text>
<polygon fill="#b2df8a" stroke="transparent" points="299,-148 299,-163 420,-163 420,-148 299,-148"/>
<text text-anchor="start" x="301" y="-153" font-family="Ubuntu" font-size="10.00">B4_MODERATE_BREEZE</text>
<polygon fill="#b2df8a" stroke="transparent" points="420,-148 420,-163 437,-163 437,-148 420,-148"/>
<text text-anchor="start" x="422" y="-153" font-family="Ubuntu" font-size="10.00">4</text>
<polygon fill="#b2df8a" stroke="transparent" points="299,-133 299,-148 420,-148 420,-133 299,-133"/>
<text text-anchor="start" x="301" y="-138" font-family="Ubuntu" font-size="10.00">B5_FRESH_BREEZE</text>
<polygon fill="#b2df8a" stroke="transparent" points="420,-133 420,-148 437,-148 437,-133 420,-133"/>
<text text-anchor="start" x="422" y="-138" font-family="Ubuntu" font-size="10.00">5</text>
<polygon fill="#b2df8a" stroke="transparent" points="299,-118 299,-133 420,-133 420,-118 299,-118"/>
<text text-anchor="start" x="301" y="-123" font-family="Ubuntu" font-size="10.00">B6_STRONG_BREEZE</text>
<polygon fill="#b2df8a" stroke="transparent" points="420,-118 420,-133 437,-133 437,-118 420,-118"/>
<text text-anchor="start" x="422" y="-123" font-family="Ubuntu" font-size="10.00">6</text>
<polygon fill="#b2df8a" stroke="transparent" points="299,-103 299,-118 420,-118 420,-103 299,-103"/>
<text text-anchor="start" x="301" y="-108" font-family="Ubuntu" font-size="10.00">B7_NEAR_GALE</text>
<polygon fill="#b2df8a" stroke="transparent" points="420,-103 420,-118 437,-118 437,-103 420,-103"/>
<text text-anchor="start" x="422" y="-108" font-family="Ubuntu" font-size="10.00">7</text>
<polygon fill="#b2df8a" stroke="transparent" points="299,-88 299,-103 420,-103 420,-88 299,-88"/>
<text text-anchor="start" x="301" y="-93" font-family="Ubuntu" font-size="10.00">B8_GALE</text>
<polygon fill="#b2df8a" stroke="transparent" points="420,-88 420,-103 437,-103 437,-88 420,-88"/>
<text text-anchor="start" x="422" y="-93" font-family="Ubuntu" font-size="10.00">8</text>
<polygon fill="#b2df8a" stroke="transparent" points="299,-73 299,-88 420,-88 420,-73 299,-73"/>
<text text-anchor="start" x="301" y="-78" font-family="Ubuntu" font-size="10.00">B9_STRONG_GALE</text>
<polygon fill="#b2df8a" stroke="transparent" points="420,-73 420,-88 437,-88 437,-73 420,-73"/>
<text text-anchor="start" x="422" y="-78" font-family="Ubuntu" font-size="10.00">9</text>
<polygon fill="#b2df8a" stroke="transparent" points="299,-58 299,-73 420,-73 420,-58 299,-58"/>
<text text-anchor="start" x="301" y="-63" font-family="Ubuntu" font-size="10.00">B10_STORM</text>
<polygon fill="#b2df8a" stroke="transparent" points="420,-58 420,-73 437,-73 437,-58 420,-58"/>
<text text-anchor="start" x="422" y="-63" font-family="Ubuntu" font-size="10.00">10</text>
<polygon fill="#b2df8a" stroke="transparent" points="299,-43 299,-58 420,-58 420,-43 299,-43"/>
<text text-anchor="start" x="301" y="-48" font-family="Ubuntu" font-size="10.00">B11_VIOLENT_STORM</text>
<polygon fill="#b2df8a" stroke="transparent" points="420,-43 420,-58 437,-58 437,-43 420,-43"/>
<text text-anchor="start" x="422" y="-48" font-family="Ubuntu" font-size="10.00">11</text>
<polygon fill="#b2df8a" stroke="transparent" points="299,-28 299,-43 420,-43 420,-28 299,-28"/>
<text text-anchor="start" x="301" y="-33" font-family="Ubuntu" font-size="10.00">B12_HURRICANE</text>
<polygon fill="#b2df8a" stroke="transparent" points="420,-28 420,-43 437,-43 437,-28 420,-28"/>
<text text-anchor="start" x="422" y="-33" font-family="Ubuntu" font-size="10.00">12</text>
<polygon fill="none" stroke="black" points="298,-27 298,-239 438,-239 438,-27 298,-27"/>
</a>
</g>
</g>
<!-- Node_Ja_106&#45;&gt;Node_Ja_107 -->
<g id="edge1" class="edge">
<title>Node_Ja_106:e&#45;&gt;Node_Ja_107</title>
<g id="a_edge1"><a xlink:title="Ja_106 &#45;&#45;&gt; Ja_107">
<path fill="none" stroke="#008000" d="M246,-211C257.91,-211 269.58,-208.3 280.69,-203.9"/>
<polygon fill="#008000" stroke="#008000" points="282.15,-207.08 289.87,-199.82 279.31,-200.68 282.15,-207.08"/>
</a>
</g>
</g>
<!-- Node_Ja_100 -->
<g id="node3" class="node">
<title>Node_Ja_100</title>
<g id="a_node3"><a xlink:title="google.protobuf.Timestamp">
<polygon fill="#fffaf0" stroke="transparent" points="323,-265.5 323,-312.5 413,-312.5 413,-265.5 323,-265.5"/>
<polygon fill="#e31a1c" stroke="transparent" points="324,-296 324,-311 412,-311 412,-296 324,-296"/>
<text text-anchor="start" x="346" y="-302" font-family="Ubuntu" font-weight="bold" font-size="10.00">Timestamp</text>
<text text-anchor="start" x="330" y="-286" font-family="Ubuntu" font-size="10.00">1</text>
<text text-anchor="start" x="341" y="-286" font-family="Ubuntu" font-size="10.00">seconds</text>
<polygon fill="#a6cee3" stroke="transparent" points="383,-281 383,-296 412,-296 412,-281 383,-281"/>
<text text-anchor="start" x="385" y="-287" font-family="Ubuntu" font-style="italic" font-size="10.00">int64</text>
<text text-anchor="start" x="330" y="-271" font-family="Ubuntu" font-size="10.00">2</text>
<text text-anchor="start" x="341" y="-271" font-family="Ubuntu" font-size="10.00">nanos</text>
<polygon fill="#a6cee3" stroke="transparent" points="383,-266 383,-281 412,-281 412,-266 383,-266"/>
<text text-anchor="start" x="385" y="-272" font-family="Ubuntu" font-style="italic" font-size="10.00">int32</text>
<polygon fill="none" stroke="black" points="323,-265.5 323,-312.5 413,-312.5 413,-265.5 323,-265.5"/>
</a>
</g>
</g>
<!-- Node_Ja_106&#45;&gt;Node_Ja_100 -->
<g id="edge2" class="edge">
<title>Node_Ja_106:e&#45;&gt;Node_Ja_100:header</title>
<g id="a_edge2"><a xlink:title="Ja_106 &#45;&#45;&gt; Ja_100">
<path fill="none" stroke="#000000" d="M246,-226C290.91,-226 277.06,-292.29 312.78,-302.65"/>
<polygon fill="#000000" stroke="#000000" points="312.63,-306.16 323,-304 313.55,-299.22 312.63,-306.16"/>
</a>
</g>
</g>
</g>
</svg>
