<?xml version="1.0" encoding="UTF-8" standalone="no"?>
<!DOCTYPE svg PUBLIC "-//W3C//DTD SVG 1.1//EN"
 "http://www.w3.org/Graphics/SVG/1.1/DTD/svg11.dtd">
<!-- Generated by graphviz version 2.43.0 (0)
 -->
<!-- Title: protodot Pages: 1 -->
<svg width="1170pt" height="971pt"
 viewBox="0.00 0.00 1170.00 971.47" xmlns="http://www.w3.org/2000/svg" xmlns:xlink="http://www.w3.org/1999/xlink">
<g id="graph0" class="graph" transform="scale(1 1) rotate(0) translate(4 967.47)">
<title>protodot</title>
<g id="a_graph0"><a xlink:title="keelson">
<text text-anchor="middle" x="581" y="-7.8" font-family="Times,serif" font-size="14.00">keelson</text>
</a>
</g>
<!-- Node_Ja_108 -->
<g id="node1" class="node">
<title>Node_Ja_108</title>
<g id="a_node1"><a xlink:title="Priority">
<polygon fill="#b2df8a" stroke="transparent" points="439,-701 439,-793 572,-793 572,-701 439,-701"/>
<polygon fill="#33a02c" stroke="transparent" points="440.5,-777 440.5,-792 571.5,-792 571.5,-777 440.5,-777"/>
<text text-anchor="start" x="494.5" y="-783" font-family="Ubuntu" font-size="10.00">enum </text>
<text text-anchor="start" x="525.5" y="-783" font-family="Ubuntu" font-weight="bold" font-size="10.00">Priority</text>
<polygon fill="#b2df8a" stroke="transparent" points="440.5,-762 440.5,-777 560.5,-777 560.5,-762 440.5,-762"/>
<text text-anchor="start" x="442.5" y="-767" font-family="Ubuntu" font-size="10.00">PRIORITY_UNSPECIFIED</text>
<polygon fill="#b2df8a" stroke="transparent" points="560.5,-762 560.5,-777 571.5,-777 571.5,-762 560.5,-762"/>
<text text-anchor="start" x="562.5" y="-767" font-family="Ubuntu" font-size="10.00">0</text>
<polygon fill="#b2df8a" stroke="transparent" points="440.5,-747 440.5,-762 560.5,-762 560.5,-747 440.5,-747"/>
<text text-anchor="start" x="442.5" y="-752" font-family="Ubuntu" font-size="10.00">PRIORITY_NORMAL</text>
<polygon fill="#b2df8a" stroke="transparent" points="560.5,-747 560.5,-762 571.5,-762 571.5,-747 560.5,-747"/>
<text text-anchor="start" x="562.5" y="-752" font-family="Ubuntu" font-size="10.00">1</text>
<polygon fill="#b2df8a" stroke="transparent" points="440.5,-732 440.5,-747 560.5,-747 560.5,-732 440.5,-732"/>
<text text-anchor="start" x="442.5" y="-737" font-family="Ubuntu" font-size="10.00">PRIORITY_CAUTION</text>
<polygon fill="#b2df8a" stroke="transparent" points="560.5,-732 560.5,-747 571.5,-747 571.5,-732 560.5,-732"/>
<text text-anchor="start" x="562.5" y="-737" font-family="Ubuntu" font-size="10.00">2</text>
<polygon fill="#b2df8a" stroke="transparent" points="440.5,-717 440.5,-732 560.5,-732 560.5,-717 440.5,-717"/>
<text text-anchor="start" x="442.5" y="-722" font-family="Ubuntu" font-size="10.00">PRIORITY_WARNING</text>
<polygon fill="#b2df8a" stroke="transparent" points="560.5,-717 560.5,-732 571.5,-732 571.5,-717 560.5,-717"/>
<text text-anchor="start" x="562.5" y="-722" font-family="Ubuntu" font-size="10.00">3</text>
<polygon fill="#b2df8a" stroke="transparent" points="440.5,-702 440.5,-717 560.5,-717 560.5,-702 440.5,-702"/>
<text text-anchor="start" x="442.5" y="-707" font-family="Ubuntu" font-size="10.00">PRIORITY_EMERGENCY</text>
<polygon fill="#b2df8a" stroke="transparent" points="560.5,-702 560.5,-717 571.5,-717 571.5,-702 560.5,-702"/>
<text text-anchor="start" x="562.5" y="-707" font-family="Ubuntu" font-size="10.00">4</text>
<polygon fill="none" stroke="black" points="439,-701 439,-793 572,-793 572,-701 439,-701"/>
</a>
</g>
</g>
<!-- Node_Ja_110 -->
<g id="node2" class="node">
<title>Node_Ja_110</title>
<g id="a_node2"><a xlink:title="Severity">
<polygon fill="#b2df8a" stroke="transparent" points="438,-27 438,-119 573,-119 573,-27 438,-27"/>
<polygon fill="#33a02c" stroke="transparent" points="439.5,-103 439.5,-118 572.5,-118 572.5,-103 439.5,-103"/>
<text text-anchor="start" x="490.5" y="-109" font-family="Ubuntu" font-size="10.00">enum </text>
<text text-anchor="start" x="521.5" y="-109" font-family="Ubuntu" font-weight="bold" font-size="10.00">Severity</text>
<polygon fill="#b2df8a" stroke="transparent" points="439.5,-88 439.5,-103 561.5,-103 561.5,-88 439.5,-88"/>
<text text-anchor="start" x="441.5" y="-93" font-family="Ubuntu" font-size="10.00">SEVERITY_UNSPECIFIED</text>
<polygon fill="#b2df8a" stroke="transparent" points="561.5,-88 561.5,-103 572.5,-103 572.5,-88 561.5,-88"/>
<text text-anchor="start" x="563.5" y="-93" font-family="Ubuntu" font-size="10.00">0</text>
<polygon fill="#b2df8a" stroke="transparent" points="439.5,-73 439.5,-88 561.5,-88 561.5,-73 439.5,-73"/>
<text text-anchor="start" x="441.5" y="-78" font-family="Ubuntu" font-size="10.00">SEVERITY_LOW</text>
<polygon fill="#b2df8a" stroke="transparent" points="561.5,-73 561.5,-88 572.5,-88 572.5,-73 561.5,-73"/>
<text text-anchor="start" x="563.5" y="-78" font-family="Ubuntu" font-size="10.00">1</text>
<polygon fill="#b2df8a" stroke="transparent" points="439.5,-58 439.5,-73 561.5,-73 561.5,-58 439.5,-58"/>
<text text-anchor="start" x="441.5" y="-63" font-family="Ubuntu" font-size="10.00">SEVERITY_MEDIUM</text>
<polygon fill="#b2df8a" stroke="transparent" points="561.5,-58 561.5,-73 572.5,-73 572.5,-58 561.5,-58"/>
<text text-anchor="start" x="563.5" y="-63" font-family="Ubuntu" font-size="10.00">2</text>
<polygon fill="#b2df8a" stroke="transparent" points="439.5,-43 439.5,-58 561.5,-58 561.5,-43 439.5,-43"/>
<text text-anchor="start" x="441.5" y="-48" font-family="Ubuntu" font-size="10.00">SEVERITY_HIGH</text>
<polygon fill="#b2df8a" stroke="transparent" points="561.5,-43 561.5,-58 572.5,-58 572.5,-43 561.5,-43"/>
<text text-anchor="start" x="563.5" y="-48" font-family="Ubuntu" font-size="10.00">3</text>
<polygon fill="#b2df8a" stroke="transparent" points="439.5,-28 439.5,-43 561.5,-43 561.5,-28 439.5,-28"/>
<text text-anchor="start" x="441.5" y="-33" font-family="Ubuntu" font-size="10.00">SEVERITY_CRITICAL</text>
<polygon fill="#b2df8a" stroke="transparent" points="561.5,-28 561.5,-43 572.5,-43 572.5,-28 561.5,-28"/>
<text text-anchor="start" x="563.5" y="-33" font-family="Ubuntu" font-size="10.00">4</text>
<polygon fill="none" stroke="black" points="438,-27 438,-119 573,-119 573,-27 438,-27"/>
</a>
</g>
</g>
<!-- Node_Ja_100 -->
<g id="node3" class="node">
<title>Node_Ja_100</title>
<g id="a_node3"><a xlink:title="google.protobuf.Timestamp">
<polygon fill="#fffaf0" stroke="transparent" points="1064,-592.5 1064,-639.5 1154,-639.5 1154,-592.5 1064,-592.5"/>
<polygon fill="#e31a1c" stroke="transparent" points="1065,-623 1065,-638 1153,-638 1153,-623 1065,-623"/>
<text text-anchor="start" x="1087" y="-629" font-family="Ubuntu" font-weight="bold" font-size="10.00">Timestamp</text>
<text text-anchor="start" x="1071" y="-613" font-family="Ubuntu" font-size="10.00">1</text>
<text text-anchor="start" x="1082" y="-613" font-family="Ubuntu" font-size="10.00">seconds</text>
<polygon fill="#a6cee3" stroke="transparent" points="1124,-608 1124,-623 1153,-623 1153,-608 1124,-608"/>
<text text-anchor="start" x="1126" y="-614" font-family="Ubuntu" font-style="italic" font-size="10.00">int64</text>
<text text-anchor="start" x="1071" y="-598" font-family="Ubuntu" font-size="10.00">2</text>
<text text-anchor="start" x="1082" y="-598" font-family="Ubuntu" font-size="10.00">nanos</text>
<polygon fill="#a6cee3" stroke="transparent" points="1124,-593 1124,-608 1153,-608 1153,-593 1124,-593"/>
<text text-anchor="start" x="1126" y="-599" font-family="Ubuntu" font-style="italic" font-size="10.00">int32</text>
<polygon fill="none" stroke="black" points="1064,-592.5 1064,-639.5 1154,-639.5 1154,-592.5 1064,-592.5"/>
</a>
</g>
</g>
<!-- Node_Ja_109 -->
<g id="node4" class="node">
<title>Node_Ja_109</title>
<g id="a_node4"><a xlink:title="AckScheme">
<polygon fill="#b2df8a" stroke="transparent" points="451,-145.5 451,-222.5 560,-222.5 560,-145.5 451,-145.5"/>
<polygon fill="#33a02c" stroke="transparent" points="452.5,-206 452.5,-221 559.5,-221 559.5,-206 452.5,-206"/>
<text text-anchor="start" x="461.5" y="-212" font-family="Ubuntu" font-size="10.00">enum </text>
<text text-anchor="start" x="492.5" y="-212" font-family="Ubuntu" font-weight="bold" font-size="10.00">AckScheme</text>
<polygon fill="#b2df8a" stroke="transparent" points="452.5,-191 452.5,-206 548.5,-206 548.5,-191 452.5,-191"/>
<text text-anchor="start" x="454.5" y="-196" font-family="Ubuntu" font-size="10.00">ACK_UNSPECIFIED</text>
<polygon fill="#b2df8a" stroke="transparent" points="548.5,-191 548.5,-206 559.5,-206 559.5,-191 548.5,-191"/>
<text text-anchor="start" x="550.5" y="-196" font-family="Ubuntu" font-size="10.00">0</text>
<polygon fill="#b2df8a" stroke="transparent" points="452.5,-176 452.5,-191 548.5,-191 548.5,-176 452.5,-176"/>
<text text-anchor="start" x="454.5" y="-181" font-family="Ubuntu" font-size="10.00">ACK_IMMEDIATELY</text>
<polygon fill="#b2df8a" stroke="transparent" points="548.5,-176 548.5,-191 559.5,-191 559.5,-176 548.5,-176"/>
<text text-anchor="start" x="550.5" y="-181" font-family="Ubuntu" font-size="10.00">1</text>
<polygon fill="#b2df8a" stroke="transparent" points="452.5,-161 452.5,-176 548.5,-176 548.5,-161 452.5,-161"/>
<text text-anchor="start" x="454.5" y="-166" font-family="Ubuntu" font-size="10.00">ACK_AUTO</text>
<polygon fill="#b2df8a" stroke="transparent" points="548.5,-161 548.5,-176 559.5,-176 559.5,-161 548.5,-161"/>
<text text-anchor="start" x="550.5" y="-166" font-family="Ubuntu" font-size="10.00">2</text>
<polygon fill="#b2df8a" stroke="transparent" points="452.5,-146 452.5,-161 548.5,-161 548.5,-146 452.5,-146"/>
<text text-anchor="start" x="454.5" y="-151" font-family="Ubuntu" font-size="10.00">ACK_NONE</text>
<polygon fill="#b2df8a" stroke="transparent" points="548.5,-146 548.5,-161 559.5,-161 559.5,-146 548.5,-146"/>
<text text-anchor="start" x="550.5" y="-151" font-family="Ubuntu" font-size="10.00">3</text>
<polygon fill="none" stroke="black" points="451,-145.5 451,-222.5 560,-222.5 560,-145.5 451,-145.5"/>
</a>
</g>
</g>
<!-- Node_Ja_107 -->
<g id="node5" class="node">
<title>Node_Ja_107</title>
<g id="a_node5"><a xlink:title="Category">
<polygon fill="#b2df8a" stroke="transparent" points="435.5,-819 435.5,-911 575.5,-911 575.5,-819 435.5,-819"/>
<polygon fill="#33a02c" stroke="transparent" points="436.5,-895 436.5,-910 574.5,-910 574.5,-895 436.5,-895"/>
<text text-anchor="start" x="489.5" y="-901" font-family="Ubuntu" font-size="10.00">enum </text>
<text text-anchor="start" x="520.5" y="-901" font-family="Ubuntu" font-weight="bold" font-size="10.00">Category</text>
<polygon fill="#b2df8a" stroke="transparent" points="436.5,-880 436.5,-895 563.5,-895 563.5,-880 436.5,-880"/>
<text text-anchor="start" x="438.5" y="-885" font-family="Ubuntu" font-size="10.00">CATEGORY_UNSPECIFIED</text>
<polygon fill="#b2df8a" stroke="transparent" points="563.5,-880 563.5,-895 574.5,-895 574.5,-880 563.5,-880"/>
<text text-anchor="start" x="565.5" y="-885" font-family="Ubuntu" font-size="10.00">0</text>
<polygon fill="#b2df8a" stroke="transparent" points="436.5,-865 436.5,-880 563.5,-880 563.5,-865 436.5,-865"/>
<text text-anchor="start" x="438.5" y="-870" font-family="Ubuntu" font-size="10.00">CATEGORY_SAFETY</text>
<polygon fill="#b2df8a" stroke="transparent" points="563.5,-865 563.5,-880 574.5,-880 574.5,-865 563.5,-865"/>
<text text-anchor="start" x="565.5" y="-870" font-family="Ubuntu" font-size="10.00">1</text>
<polygon fill="#b2df8a" stroke="transparent" points="436.5,-850 436.5,-865 563.5,-865 563.5,-850 436.5,-850"/>
<text text-anchor="start" x="438.5" y="-855" font-family="Ubuntu" font-size="10.00">CATEGORY_NAVIGATION</text>
<polygon fill="#b2df8a" stroke="transparent" points="563.5,-850 563.5,-865 574.5,-865 574.5,-850 563.5,-850"/>
<text text-anchor="start" x="565.5" y="-855" font-family="Ubuntu" font-size="10.00">2</text>
<polygon fill="#b2df8a" stroke="transparent" points="436.5,-835 436.5,-850 563.5,-850 563.5,-835 436.5,-835"/>
<text text-anchor="start" x="438.5" y="-840" font-family="Ubuntu" font-size="10.00">CATEGORY_TECHNICAL</text>
<polygon fill="#b2df8a" stroke="transparent" points="563.5,-835 563.5,-850 574.5,-850 574.5,-835 563.5,-835"/>
<text text-anchor="start" x="565.5" y="-840" font-family="Ubuntu" font-size="10.00">3</text>
<polygon fill="#b2df8a" stroke="transparent" points="436.5,-820 436.5,-835 563.5,-835 563.5,-820 436.5,-820"/>
<text text-anchor="start" x="438.5" y="-825" font-family="Ubuntu" font-size="10.00">CATEGORY_FIRE_ALARM</text>
<polygon fill="#b2df8a" stroke="transparent" points="563.5,-820 563.5,-835 574.5,-835 574.5,-820 563.5,-820"/>
<text text-anchor="start" x="565.5" y="-825" font-family="Ubuntu" font-size="10.00">4</text>
<polygon fill="none" stroke="black" points="435.5,-819 435.5,-911 575.5,-911 575.5,-819 435.5,-819"/>
</a>
</g>
</g>
<!-- Node_Ja_112 -->
<g id="node6" class="node">
<title>Node_Ja_112</title>
<g id="a_node6"><a xlink:title="keelson.Visual">
<polygon fill="#fffaf0" stroke="transparent" points="365,-441 365,-533 646,-533 646,-441 365,-441"/>
<polygon fill="#e31a1c" stroke="transparent" points="366.5,-517 366.5,-532 645.5,-532 645.5,-517 366.5,-517"/>
<text text-anchor="start" x="608.5" y="-523" font-family="Ubuntu" font-weight="bold" font-size="10.00">Visual</text>
<text text-anchor="start" x="372.5" y="-507" font-family="Ubuntu" font-size="10.00">1</text>
<text text-anchor="start" x="383.5" y="-507" font-family="Ubuntu" font-size="10.00">timestamp</text>
<polygon fill="#fb9a99" stroke="transparent" points="481.5,-502 481.5,-517 645.5,-517 645.5,-502 481.5,-502"/>
<text text-anchor="start" x="484.5" y="-508" font-family="Ubuntu" font-weight="bold" font-size="10.00">google.protobuf.Timestamp</text>
<text text-anchor="start" x="372.5" y="-492" font-family="Ubuntu" font-size="10.00">2</text>
<text text-anchor="start" x="383.5" y="-492" font-family="Ubuntu" font-size="10.00">description</text>
<polygon fill="#a6cee3" stroke="transparent" points="481.5,-487 481.5,-502 645.5,-502 645.5,-487 481.5,-487"/>
<text text-anchor="start" x="615.5" y="-493" font-family="Ubuntu" font-style="italic" font-size="10.00">string</text>
<text text-anchor="start" x="372.5" y="-477" font-family="Ubuntu" font-size="10.00">3</text>
<text text-anchor="start" x="383.5" y="-477" font-family="Ubuntu" font-size="10.00">image</text>
<polygon fill="#fb9a99" stroke="transparent" points="481.5,-472 481.5,-487 645.5,-487 645.5,-472 481.5,-472"/>
<text text-anchor="start" x="531.5" y="-478" font-family="Ubuntu" font-weight="bold" font-size="10.00">foxglove.RawImage</text>
<text text-anchor="start" x="372.5" y="-462" font-family="Ubuntu" font-size="10.00">4</text>
<text text-anchor="start" x="383.5" y="-462" font-family="Ubuntu" font-size="10.00">compressed_image</text>
<polygon fill="#fb9a99" stroke="transparent" points="481.5,-457 481.5,-472 645.5,-472 645.5,-457 481.5,-457"/>
<text text-anchor="start" x="483.5" y="-463" font-family="Ubuntu" font-weight="bold" font-size="10.00">foxglove.CompressedImage</text>
<text text-anchor="start" x="372.5" y="-447" font-family="Ubuntu" font-size="10.00">5</text>
<text text-anchor="start" x="383.5" y="-447" font-family="Ubuntu" font-size="10.00">compressed_video</text>
<polygon fill="#fb9a99" stroke="transparent" points="481.5,-442 481.5,-457 645.5,-457 645.5,-442 481.5,-442"/>
<text text-anchor="start" x="486.5" y="-448" font-family="Ubuntu" font-weight="bold" font-size="10.00">foxglove.CompressedVideo</text>
<polygon fill="none" stroke="black" points="365,-441 365,-533 646,-533 646,-441 365,-441"/>
</a>
</g>
</g>
<!-- Node_Ja_112&#45;&gt;Node_Ja_100 -->
<g id="edge20" class="edge">
<title>Node_Ja_112:e&#45;&gt;Node_Ja_100:header</title>
<g id="a_edge20"><a xlink:title="Ja_112 &#45;&#45;&gt; Ja_100">
<path fill="none" stroke="#000000" d="M646.5,-510C718.91,-510 632.37,-623.17 690,-667 748.37,-711.4 950.94,-691.65 1020,-667 1040.08,-659.83 1039.61,-639.13 1054.15,-632.84"/>
<polygon fill="#000000" stroke="#000000" points="1054.81,-636.27 1064,-631 1053.53,-629.39 1054.81,-636.27"/>
</a>
</g>
</g>
<!-- Node_Ja_101 -->
<g id="node8" class="node">
<title>Node_Ja_101</title>
<g id="a_node8"><a xlink:title="foxglove.RawImage">
<polygon fill="#fffaf0" stroke="transparent" points="736,-532 736,-654 974,-654 974,-532 736,-532"/>
<polygon fill="#e31a1c" stroke="transparent" points="737,-638 737,-653 973,-653 973,-638 737,-638"/>
<text text-anchor="start" x="912" y="-644" font-family="Ubuntu" font-weight="bold" font-size="10.00">RawImage</text>
<text text-anchor="start" x="743" y="-628" font-family="Ubuntu" font-size="10.00">1</text>
<text text-anchor="start" x="754" y="-628" font-family="Ubuntu" font-size="10.00">timestamp</text>
<polygon fill="#fb9a99" stroke="transparent" points="810,-623 810,-638 973,-638 973,-623 810,-623"/>
<text text-anchor="start" x="812" y="-629" font-family="Ubuntu" font-weight="bold" font-size="10.00">google.protobuf.Timestamp</text>
<text text-anchor="start" x="743" y="-613" font-family="Ubuntu" font-size="10.00">7</text>
<text text-anchor="start" x="754" y="-613" font-family="Ubuntu" font-size="10.00">frame_id</text>
<polygon fill="#a6cee3" stroke="transparent" points="810,-608 810,-623 973,-623 973,-608 810,-608"/>
<text text-anchor="start" x="943" y="-614" font-family="Ubuntu" font-style="italic" font-size="10.00">string</text>
<text text-anchor="start" x="743" y="-598" font-family="Ubuntu" font-size="10.00">2</text>
<text text-anchor="start" x="754" y="-598" font-family="Ubuntu" font-size="10.00">width</text>
<polygon fill="#a6cee3" stroke="transparent" points="810,-593 810,-608 973,-608 973,-593 810,-593"/>
<text text-anchor="start" x="934" y="-599" font-family="Ubuntu" font-style="italic" font-size="10.00">fixed32</text>
<text text-anchor="start" x="743" y="-583" font-family="Ubuntu" font-size="10.00">3</text>
<text text-anchor="start" x="754" y="-583" font-family="Ubuntu" font-size="10.00">height</text>
<polygon fill="#a6cee3" stroke="transparent" points="810,-578 810,-593 973,-593 973,-578 810,-578"/>
<text text-anchor="start" x="934" y="-584" font-family="Ubuntu" font-style="italic" font-size="10.00">fixed32</text>
<text text-anchor="start" x="743" y="-568" font-family="Ubuntu" font-size="10.00">4</text>
<text text-anchor="start" x="754" y="-568" font-family="Ubuntu" font-size="10.00">encoding</text>
<polygon fill="#a6cee3" stroke="transparent" points="810,-563 810,-578 973,-578 973,-563 810,-563"/>
<text text-anchor="start" x="943" y="-569" font-family="Ubuntu" font-style="italic" font-size="10.00">string</text>
<text text-anchor="start" x="743" y="-553" font-family="Ubuntu" font-size="10.00">5</text>
<text text-anchor="start" x="754" y="-553" font-family="Ubuntu" font-size="10.00">step</text>
<polygon fill="#a6cee3" stroke="transparent" points="810,-548 810,-563 973,-563 973,-548 810,-548"/>
<text text-anchor="start" x="934" y="-554" font-family="Ubuntu" font-style="italic" font-size="10.00">fixed32</text>
<text text-anchor="start" x="743" y="-538" font-family="Ubuntu" font-size="10.00">6</text>
<text text-anchor="start" x="754" y="-538" font-family="Ubuntu" font-size="10.00">data</text>
<polygon fill="#a6cee3" stroke="transparent" points="810,-533 810,-548 973,-548 973,-533 810,-533"/>
<text text-anchor="start" x="943" y="-539" font-family="Ubuntu" font-style="italic" font-size="10.00">bytes</text>
<polygon fill="none" stroke="black" points="736,-532 736,-654 974,-654 974,-532 736,-532"/>
</a>
</g>
</g>
<!-- Node_Ja_112&#45;&gt;Node_Ja_101 -->
<g id="edge15" class="edge">
<title>Node_Ja_112:e&#45;&gt;Node_Ja_101:header</title>
<g id="a_edge15"><a xlink:title="Ja_112 &#45;&#45;&gt; Ja_101">
<path fill="none" stroke="#000000" d="M646.5,-479C727.09,-479 658.27,-631.96 726.02,-645.1"/>
<polygon fill="#000000" stroke="#000000" points="725.73,-648.59 736,-646 726.35,-641.62 725.73,-648.59"/>
</a>
</g>
</g>
<!-- Node_Ja_102 -->
<g id="node9" class="node">
<title>Node_Ja_102</title>
<g id="a_node9"><a xlink:title="foxglove.CompressedImage">
<polygon fill="#fffaf0" stroke="transparent" points="736,-428.5 736,-505.5 974,-505.5 974,-428.5 736,-428.5"/>
<polygon fill="#e31a1c" stroke="transparent" points="737,-489 737,-504 973,-504 973,-489 737,-489"/>
<text text-anchor="start" x="865" y="-495" font-family="Ubuntu" font-weight="bold" font-size="10.00">CompressedImage</text>
<text text-anchor="start" x="743" y="-479" font-family="Ubuntu" font-size="10.00">1</text>
<text text-anchor="start" x="754" y="-479" font-family="Ubuntu" font-size="10.00">timestamp</text>
<polygon fill="#fb9a99" stroke="transparent" points="810,-474 810,-489 973,-489 973,-474 810,-474"/>
<text text-anchor="start" x="812" y="-480" font-family="Ubuntu" font-weight="bold" font-size="10.00">google.protobuf.Timestamp</text>
<text text-anchor="start" x="743" y="-464" font-family="Ubuntu" font-size="10.00">4</text>
<text text-anchor="start" x="754" y="-464" font-family="Ubuntu" font-size="10.00">frame_id</text>
<polygon fill="#a6cee3" stroke="transparent" points="810,-459 810,-474 973,-474 973,-459 810,-459"/>
<text text-anchor="start" x="943" y="-465" font-family="Ubuntu" font-style="italic" font-size="10.00">string</text>
<text text-anchor="start" x="743" y="-449" font-family="Ubuntu" font-size="10.00">2</text>
<text text-anchor="start" x="754" y="-449" font-family="Ubuntu" font-size="10.00">data</text>
<polygon fill="#a6cee3" stroke="transparent" points="810,-444 810,-459 973,-459 973,-444 810,-444"/>
<text text-anchor="start" x="943" y="-450" font-family="Ubuntu" font-style="italic" font-size="10.00">bytes</text>
<text text-anchor="start" x="743" y="-434" font-family="Ubuntu" font-size="10.00">3</text>
<text text-anchor="start" x="754" y="-434" font-family="Ubuntu" font-size="10.00">format</text>
<polygon fill="#a6cee3" stroke="transparent" points="810,-429 810,-444 973,-444 973,-429 810,-429"/>
<text text-anchor="start" x="943" y="-435" font-family="Ubuntu" font-style="italic" font-size="10.00">string</text>
<polygon fill="none" stroke="black" points="736,-428.5 736,-505.5 974,-505.5 974,-428.5 736,-428.5"/>
</a>
</g>
</g>
<!-- Node_Ja_112&#45;&gt;Node_Ja_102 -->
<g id="edge12" class="edge">
<title>Node_Ja_112:e&#45;&gt;Node_Ja_102:header</title>
<g id="a_edge12"><a xlink:title="Ja_112 &#45;&#45;&gt; Ja_102">
<path fill="none" stroke="#000000" d="M646.5,-464C685.25,-464 692.52,-491.57 725.86,-496.31"/>
<polygon fill="#000000" stroke="#000000" points="725.79,-499.81 736,-497 726.26,-492.83 725.79,-499.81"/>
</a>
</g>
</g>
<!-- Node_Ja_103 -->
<g id="node13" class="node">
<title>Node_Ja_103</title>
<g id="a_node13"><a xlink:title="foxglove.CompressedVideo">
<polygon fill="#fffaf0" stroke="transparent" points="736,-325.5 736,-402.5 974,-402.5 974,-325.5 736,-325.5"/>
<polygon fill="#e31a1c" stroke="transparent" points="737,-386 737,-401 973,-401 973,-386 737,-386"/>
<text text-anchor="start" x="868" y="-392" font-family="Ubuntu" font-weight="bold" font-size="10.00">CompressedVideo</text>
<text text-anchor="start" x="743" y="-376" font-family="Ubuntu" font-size="10.00">1</text>
<text text-anchor="start" x="754" y="-376" font-family="Ubuntu" font-size="10.00">timestamp</text>
<polygon fill="#fb9a99" stroke="transparent" points="810,-371 810,-386 973,-386 973,-371 810,-371"/>
<text text-anchor="start" x="812" y="-377" font-family="Ubuntu" font-weight="bold" font-size="10.00">google.protobuf.Timestamp</text>
<text text-anchor="start" x="743" y="-361" font-family="Ubuntu" font-size="10.00">2</text>
<text text-anchor="start" x="754" y="-361" font-family="Ubuntu" font-size="10.00">frame_id</text>
<polygon fill="#a6cee3" stroke="transparent" points="810,-356 810,-371 973,-371 973,-356 810,-356"/>
<text text-anchor="start" x="943" y="-362" font-family="Ubuntu" font-style="italic" font-size="10.00">string</text>
<text text-anchor="start" x="743" y="-346" font-family="Ubuntu" font-size="10.00">3</text>
<text text-anchor="start" x="754" y="-346" font-family="Ubuntu" font-size="10.00">data</text>
<polygon fill="#a6cee3" stroke="transparent" points="810,-341 810,-356 973,-356 973,-341 810,-341"/>
<text text-anchor="start" x="943" y="-347" font-family="Ubuntu" font-style="italic" font-size="10.00">bytes</text>
<text text-anchor="start" x="743" y="-331" font-family="Ubuntu" font-size="10.00">4</text>
<text text-anchor="start" x="754" y="-331" font-family="Ubuntu" font-size="10.00">format</text>
<polygon fill="#a6cee3" stroke="transparent" points="810,-326 810,-341 973,-341 973,-326 810,-326"/>
<text text-anchor="start" x="943" y="-332" font-family="Ubuntu" font-style="italic" font-size="10.00">string</text>
<polygon fill="none" stroke="black" points="736,-325.5 736,-402.5 974,-402.5 974,-325.5 736,-325.5"/>
</a>
</g>
</g>
<!-- Node_Ja_112&#45;&gt;Node_Ja_103 -->
<g id="edge8" class="edge">
<title>Node_Ja_112:e&#45;&gt;Node_Ja_103:header</title>
<g id="a_edge8"><a xlink:title="Ja_112 &#45;&#45;&gt; Ja_103">
<path fill="none" stroke="#000000" d="M646.5,-449C670.77,-449 669.28,-428.63 690,-416 706.02,-406.23 711.51,-397.55 725.8,-394.86"/>
<polygon fill="#000000" stroke="#000000" points="726.33,-398.33 736,-394 725.74,-391.35 726.33,-398.33"/>
</a>
</g>
</g>
<!-- Node_Ja_105 -->
<g id="node7" class="node">
<title>Node_Ja_105</title>
<g id="a_node7"><a xlink:title="Encoding">
<polygon fill="#b2df8a" stroke="transparent" points="810.5,-718.5 810.5,-765.5 899.5,-765.5 899.5,-718.5 810.5,-718.5"/>
<polygon fill="#33a02c" stroke="transparent" points="812,-749 812,-764 899,-764 899,-749 812,-749"/>
<text text-anchor="start" x="814" y="-755" font-family="Ubuntu" font-size="10.00">enum </text>
<text text-anchor="start" x="845" y="-755" font-family="Ubuntu" font-weight="bold" font-size="10.00">Encoding</text>
<polygon fill="#b2df8a" stroke="transparent" points="812,-734 812,-749 863,-749 863,-734 812,-734"/>
<text text-anchor="start" x="814" y="-739" font-family="Ubuntu" font-size="10.00">MP3</text>
<polygon fill="#b2df8a" stroke="transparent" points="863,-734 863,-749 899,-749 899,-734 863,-734"/>
<text text-anchor="start" x="865" y="-739" font-family="Ubuntu" font-size="10.00">0</text>
<polygon fill="#b2df8a" stroke="transparent" points="812,-719 812,-734 863,-734 863,-719 812,-719"/>
<text text-anchor="start" x="814" y="-724" font-family="Ubuntu" font-size="10.00">WAV</text>
<polygon fill="#b2df8a" stroke="transparent" points="863,-719 863,-734 899,-734 899,-719 863,-719"/>
<text text-anchor="start" x="865" y="-724" font-family="Ubuntu" font-size="10.00">1</text>
<polygon fill="none" stroke="black" points="810.5,-718.5 810.5,-765.5 899.5,-765.5 899.5,-718.5 810.5,-718.5"/>
</a>
</g>
</g>
<!-- Node_Ja_101&#45;&gt;Node_Ja_100 -->
<g id="edge17" class="edge">
<title>Node_Ja_101:e&#45;&gt;Node_Ja_100:header</title>
<g id="a_edge17"><a xlink:title="Ja_101 &#45;&#45;&gt; Ja_100">
<path fill="none" stroke="#000000" d="M974,-631C1010.41,-631 1021.96,-631 1053.9,-631"/>
<polygon fill="#000000" stroke="#000000" points="1054,-634.5 1064,-631 1054,-627.5 1054,-634.5"/>
</a>
</g>
</g>
<!-- Node_Ja_102&#45;&gt;Node_Ja_100 -->
<g id="edge18" class="edge">
<title>Node_Ja_102:e&#45;&gt;Node_Ja_100:header</title>
<g id="a_edge18"><a xlink:title="Ja_102 &#45;&#45;&gt; Ja_100">
<path fill="none" stroke="#000000" d="M974,-482C1000.24,-482 1004.46,-497.86 1020,-519 1049.32,-558.89 1016.23,-620.91 1053.59,-629.9"/>
<polygon fill="#000000" stroke="#000000" points="1053.69,-633.43 1064,-631 1054.42,-626.47 1053.69,-633.43"/>
</a>
</g>
</g>
<!-- Node_Ja_106 -->
<g id="node10" class="node">
<title>Node_Ja_106</title>
<g id="a_node10"><a xlink:title="keelson.Alarm">
<polygon fill="#fffaf0" stroke="transparent" points="8,-471.5 8,-698.5 313,-698.5 313,-471.5 8,-471.5"/>
<polygon fill="#e31a1c" stroke="transparent" points="9.5,-682 9.5,-697 312.5,-697 312.5,-682 9.5,-682"/>
<text text-anchor="start" x="276.5" y="-688" font-family="Ubuntu" font-weight="bold" font-size="10.00">Alarm</text>
<text text-anchor="start" x="38.5" y="-672" font-family="Ubuntu" font-size="10.00">1</text>
<text text-anchor="start" x="49.5" y="-672" font-family="Ubuntu" font-size="10.00">timestamp</text>
<polygon fill="#fb9a99" stroke="transparent" points="149.5,-667 149.5,-682 312.5,-682 312.5,-667 149.5,-667"/>
<text text-anchor="start" x="151.5" y="-673" font-family="Ubuntu" font-weight="bold" font-size="10.00">google.protobuf.Timestamp</text>
<text text-anchor="start" x="38.5" y="-657" font-family="Ubuntu" font-size="10.00">4</text>
<text text-anchor="start" x="49.5" y="-657" font-family="Ubuntu" font-size="10.00">identifier</text>
<polygon fill="#a6cee3" stroke="transparent" points="149.5,-652 149.5,-667 312.5,-667 312.5,-652 149.5,-652"/>
<text text-anchor="start" x="282.5" y="-658" font-family="Ubuntu" font-style="italic" font-size="10.00">string</text>
<text text-anchor="start" x="38.5" y="-642" font-family="Ubuntu" font-size="10.00">5</text>
<text text-anchor="start" x="49.5" y="-642" font-family="Ubuntu" font-size="10.00">description</text>
<polygon fill="#a6cee3" stroke="transparent" points="149.5,-637 149.5,-652 312.5,-652 312.5,-637 149.5,-637"/>
<text text-anchor="start" x="282.5" y="-643" font-family="Ubuntu" font-style="italic" font-size="10.00">string</text>
<text text-anchor="start" x="38.5" y="-627" font-family="Ubuntu" font-size="10.00">6</text>
<text text-anchor="start" x="49.5" y="-627" font-family="Ubuntu" font-size="10.00">category</text>
<polygon fill="#b2df8a" stroke="transparent" points="149.5,-622 149.5,-637 312.5,-637 312.5,-622 149.5,-622"/>
<text text-anchor="start" x="265.5" y="-628" font-family="Ubuntu" text-decoration="underline" font-size="10.00">Category</text>
<text text-anchor="start" x="38.5" y="-612" font-family="Ubuntu" font-size="10.00">7</text>
<text text-anchor="start" x="49.5" y="-612" font-family="Ubuntu" font-size="10.00">priority</text>
<polygon fill="#b2df8a" stroke="transparent" points="149.5,-607 149.5,-622 312.5,-622 312.5,-607 149.5,-607"/>
<text text-anchor="start" x="274.5" y="-613" font-family="Ubuntu" text-decoration="underline" font-size="10.00">Priority</text>
<text text-anchor="start" x="11.5" y="-597" font-family="Ubuntu" font-size="10.00">[...]</text>
<text text-anchor="start" x="38.5" y="-597" font-family="Ubuntu" font-size="10.00">8</text>
<text text-anchor="start" x="49.5" y="-597" font-family="Ubuntu" font-size="10.00">acknowledgers</text>
<polygon fill="#fb9a99" stroke="transparent" points="149.5,-592 149.5,-607 312.5,-607 312.5,-592 149.5,-592"/>
<text text-anchor="start" x="179.5" y="-598" font-family="Ubuntu" font-weight="bold" font-size="10.00">AlarmAcknowledgment</text>
<text text-anchor="start" x="38.5" y="-582" font-family="Ubuntu" font-size="10.00">9</text>
<text text-anchor="start" x="49.5" y="-582" font-family="Ubuntu" font-size="10.00">audio</text>
<polygon fill="#fb9a99" stroke="transparent" points="149.5,-577 149.5,-592 312.5,-592 312.5,-577 149.5,-577"/>
<text text-anchor="start" x="230.5" y="-583" font-family="Ubuntu" font-weight="bold" font-size="10.00">keelson.Audio</text>
<text text-anchor="start" x="32.5" y="-567" font-family="Ubuntu" font-size="10.00">10</text>
<text text-anchor="start" x="49.5" y="-567" font-family="Ubuntu" font-size="10.00">visual</text>
<polygon fill="#fb9a99" stroke="transparent" points="149.5,-562 149.5,-577 312.5,-577 312.5,-562 149.5,-562"/>
<text text-anchor="start" x="275.5" y="-568" font-family="Ubuntu" font-weight="bold" font-size="10.00">Visual</text>
<text text-anchor="start" x="32.5" y="-552" font-family="Ubuntu" font-size="10.00">11</text>
<text text-anchor="start" x="49.5" y="-552" font-family="Ubuntu" font-size="10.00">activation_time_utc</text>
<polygon fill="#fb9a99" stroke="transparent" points="149.5,-547 149.5,-562 312.5,-562 312.5,-547 149.5,-547"/>
<text text-anchor="start" x="151.5" y="-553" font-family="Ubuntu" font-weight="bold" font-size="10.00">google.protobuf.Timestamp</text>
<text text-anchor="start" x="32.5" y="-537" font-family="Ubuntu" font-size="10.00">12</text>
<text text-anchor="start" x="49.5" y="-537" font-family="Ubuntu" font-size="10.00">expiration_time_utc</text>
<polygon fill="#fb9a99" stroke="transparent" points="149.5,-532 149.5,-547 312.5,-547 312.5,-532 149.5,-532"/>
<text text-anchor="start" x="151.5" y="-538" font-family="Ubuntu" font-weight="bold" font-size="10.00">google.protobuf.Timestamp</text>
<text text-anchor="start" x="32.5" y="-522" font-family="Ubuntu" font-size="10.00">13</text>
<text text-anchor="start" x="49.5" y="-522" font-family="Ubuntu" font-size="10.00">duration_seconds</text>
<polygon fill="#a6cee3" stroke="transparent" points="149.5,-517 149.5,-532 312.5,-532 312.5,-517 149.5,-517"/>
<text text-anchor="start" x="285.5" y="-523" font-family="Ubuntu" font-style="italic" font-size="10.00">int32</text>
<text text-anchor="start" x="32.5" y="-507" font-family="Ubuntu" font-size="10.00">14</text>
<text text-anchor="start" x="49.5" y="-507" font-family="Ubuntu" font-size="10.00">ack_scheme</text>
<polygon fill="#b2df8a" stroke="transparent" points="149.5,-502 149.5,-517 312.5,-517 312.5,-502 149.5,-502"/>
<text text-anchor="start" x="252.5" y="-508" font-family="Ubuntu" text-decoration="underline" font-size="10.00">AckScheme</text>
<text text-anchor="start" x="32.5" y="-492" font-family="Ubuntu" font-size="10.00">15</text>
<text text-anchor="start" x="49.5" y="-492" font-family="Ubuntu" font-size="10.00">severity</text>
<polygon fill="#b2df8a" stroke="transparent" points="149.5,-487 149.5,-502 312.5,-502 312.5,-487 149.5,-487"/>
<text text-anchor="start" x="269.5" y="-493" font-family="Ubuntu" text-decoration="underline" font-size="10.00">Severity</text>
<text text-anchor="start" x="32.5" y="-477" font-family="Ubuntu" font-size="10.00">16</text>
<text text-anchor="start" x="49.5" y="-477" font-family="Ubuntu" font-size="10.00">acknowledged</text>
<polygon fill="#a6cee3" stroke="transparent" points="149.5,-472 149.5,-487 312.5,-487 312.5,-472 149.5,-472"/>
<text text-anchor="start" x="288.5" y="-478" font-family="Ubuntu" font-style="italic" font-size="10.00">bool</text>
<polygon fill="none" stroke="black" points="8,-471.5 8,-698.5 313,-698.5 313,-471.5 8,-471.5"/>
</a>
</g>
</g>
<!-- Node_Ja_106&#45;&gt;Node_Ja_108 -->
<g id="edge13" class="edge">
<title>Node_Ja_106:e&#45;&gt;Node_Ja_108</title>
<g id="a_edge13"><a xlink:title="Ja_106 &#45;&#45;&gt; Ja_108">
<path fill="none" stroke="#008000" d="M313.5,-615C349.38,-615 329.69,-659.74 357,-683 375.77,-698.99 399.15,-711.56 421.72,-721.18"/>
<polygon fill="#008000" stroke="#008000" points="420.41,-724.42 430.99,-724.98 423.07,-717.95 420.41,-724.42"/>
</a>
</g>
</g>
<!-- Node_Ja_106&#45;&gt;Node_Ja_110 -->
<g id="edge9" class="edge">
<title>Node_Ja_106:e&#45;&gt;Node_Ja_110</title>
<g id="a_edge9"><a xlink:title="Ja_106 &#45;&#45;&gt; Ja_110">
<path fill="none" stroke="#008000" d="M313.5,-494C394.52,-494 307.65,-196.26 357,-132 372.65,-111.63 396.43,-98.27 420.36,-89.52"/>
<polygon fill="#008000" stroke="#008000" points="421.55,-92.81 429.88,-86.27 419.29,-86.19 421.55,-92.81"/>
</a>
</g>
</g>
<!-- Node_Ja_106&#45;&gt;Node_Ja_100 -->
<g id="edge3" class="edge">
<title>Node_Ja_106:e&#45;&gt;Node_Ja_100:header</title>
<g id="a_edge3"><a xlink:title="Ja_106 &#45;&#45;&gt; Ja_100">
<path fill="none" stroke="#000000" d="M313.5,-539C372.08,-539 312.29,-316.85 357,-279 413.22,-231.4 964.77,-230.25 1020,-279 1076.33,-328.73 993.64,-603.44 1054.02,-629.08"/>
<polygon fill="#000000" stroke="#000000" points="1053.52,-632.55 1064,-631 1054.84,-625.67 1053.52,-632.55"/>
</a>
</g>
</g>
<!-- Node_Ja_106&#45;&gt;Node_Ja_100 -->
<g id="edge4" class="edge">
<title>Node_Ja_106:e&#45;&gt;Node_Ja_100:header</title>
<g id="a_edge4"><a xlink:title="Ja_106 &#45;&#45;&gt; Ja_100">
<path fill="none" stroke="#000000" d="M313.5,-554C372.74,-554 315.17,-469.95 357,-428 467.67,-317.03 535.47,-338.14 690,-312 762.31,-299.77 964.72,-263.82 1020,-312 1071.1,-356.54 1000.66,-602.94 1053.91,-628.8"/>
<polygon fill="#000000" stroke="#000000" points="1053.48,-632.29 1064,-631 1054.97,-625.45 1053.48,-632.29"/>
</a>
</g>
</g>
<!-- Node_Ja_106&#45;&gt;Node_Ja_100 -->
<g id="edge10" class="edge">
<title>Node_Ja_106:e&#45;&gt;Node_Ja_100:header</title>
<g id="a_edge10"><a xlink:title="Ja_106 &#45;&#45;&gt; Ja_100">
<path fill="none" stroke="#000000" d="M313.5,-675C425.84,-675 271,-851.72 357,-924 458.05,-1008.93 522.13,-929.93 654,-924 817.16,-916.66 900.11,-1001.92 1020,-891 1060.24,-853.77 1012.41,-658.64 1054.06,-633.64"/>
<polygon fill="#000000" stroke="#000000" points="1055.23,-636.95 1064,-631 1053.44,-630.18 1055.23,-636.95"/>
</a>
</g>
</g>
<!-- Node_Ja_106&#45;&gt;Node_Ja_109 -->
<g id="edge2" class="edge">
<title>Node_Ja_106:e&#45;&gt;Node_Ja_109</title>
<g id="a_edge2"><a xlink:title="Ja_106 &#45;&#45;&gt; Ja_109">
<path fill="none" stroke="#008000" d="M313.5,-509C373.83,-509 318.99,-287.86 357,-241 375.87,-217.73 405.46,-203.94 433.2,-195.78"/>
<polygon fill="#008000" stroke="#008000" points="434.19,-199.14 442.91,-193.12 432.34,-192.39 434.19,-199.14"/>
</a>
</g>
</g>
<!-- Node_Ja_106&#45;&gt;Node_Ja_107 -->
<g id="edge1" class="edge">
<title>Node_Ja_106:e&#45;&gt;Node_Ja_107</title>
<g id="a_edge1"><a xlink:title="Ja_106 &#45;&#45;&gt; Ja_107">
<path fill="none" stroke="#008000" d="M313.5,-630C394.08,-630 304.09,-745.23 357,-806 372.92,-824.29 395.31,-836.98 417.85,-845.75"/>
<polygon fill="#008000" stroke="#008000" points="416.9,-849.13 427.49,-849.28 419.3,-842.56 416.9,-849.13"/>
</a>
</g>
</g>
<!-- Node_Ja_106&#45;&gt;Node_Ja_112 -->
<g id="edge5" class="edge">
<title>Node_Ja_106:e&#45;&gt;Node_Ja_112:header</title>
<g id="a_edge5"><a xlink:title="Ja_106 &#45;&#45;&gt; Ja_112">
<path fill="none" stroke="#000000" d="M313.5,-569C339.75,-569 336.81,-535.91 355.31,-527.12"/>
<polygon fill="#000000" stroke="#000000" points="356.42,-530.47 365.5,-525 355,-523.61 356.42,-530.47"/>
</a>
</g>
</g>
<!-- Node_Ja_104 -->
<g id="node11" class="node">
<title>Node_Ja_104</title>
<g id="a_node11"><a xlink:title="keelson.Audio">
<polygon fill="#fffaf0" stroke="transparent" points="380,-559.5 380,-636.5 631,-636.5 631,-559.5 380,-559.5"/>
<polygon fill="#e31a1c" stroke="transparent" points="381.5,-620 381.5,-635 630.5,-635 630.5,-620 381.5,-620"/>
<text text-anchor="start" x="595.5" y="-626" font-family="Ubuntu" font-weight="bold" font-size="10.00">Audio</text>
<text text-anchor="start" x="387.5" y="-610" font-family="Ubuntu" font-size="10.00">1</text>
<text text-anchor="start" x="398.5" y="-610" font-family="Ubuntu" font-size="10.00">timestamp</text>
<polygon fill="#fb9a99" stroke="transparent" points="467.5,-605 467.5,-620 630.5,-620 630.5,-605 467.5,-605"/>
<text text-anchor="start" x="469.5" y="-611" font-family="Ubuntu" font-weight="bold" font-size="10.00">google.protobuf.Timestamp</text>
<text text-anchor="start" x="387.5" y="-595" font-family="Ubuntu" font-size="10.00">2</text>
<text text-anchor="start" x="398.5" y="-595" font-family="Ubuntu" font-size="10.00">text_to_voice</text>
<polygon fill="#a6cee3" stroke="transparent" points="467.5,-590 467.5,-605 630.5,-605 630.5,-590 467.5,-590"/>
<text text-anchor="start" x="600.5" y="-596" font-family="Ubuntu" font-style="italic" font-size="10.00">string</text>
<text text-anchor="start" x="387.5" y="-580" font-family="Ubuntu" font-size="10.00">3</text>
<text text-anchor="start" x="398.5" y="-580" font-family="Ubuntu" font-size="10.00">data</text>
<polygon fill="#a6cee3" stroke="transparent" points="467.5,-575 467.5,-590 630.5,-590 630.5,-575 467.5,-575"/>
<text text-anchor="start" x="600.5" y="-581" font-family="Ubuntu" font-style="italic" font-size="10.00">bytes</text>
<text text-anchor="start" x="387.5" y="-565" font-family="Ubuntu" font-size="10.00">4</text>
<text text-anchor="start" x="398.5" y="-565" font-family="Ubuntu" font-size="10.00">encoding</text>
<polygon fill="#b2df8a" stroke="transparent" points="467.5,-560 467.5,-575 630.5,-575 630.5,-560 467.5,-560"/>
<text text-anchor="start" x="583.5" y="-566" font-family="Ubuntu" text-decoration="underline" font-size="10.00">Encoding</text>
<polygon fill="none" stroke="black" points="380,-559.5 380,-636.5 631,-636.5 631,-559.5 380,-559.5"/>
</a>
</g>
</g>
<!-- Node_Ja_106&#45;&gt;Node_Ja_104 -->
<g id="edge19" class="edge">
<title>Node_Ja_106:e&#45;&gt;Node_Ja_104:header</title>
<g id="a_edge19"><a xlink:title="Ja_106 &#45;&#45;&gt; Ja_104">
<path fill="none" stroke="#000000" d="M313.5,-584C345.37,-584 345.33,-619.21 370.47,-626.63"/>
<polygon fill="#000000" stroke="#000000" points="370.12,-630.12 380.5,-628 371.06,-623.18 370.12,-630.12"/>
</a>
</g>
</g>
<!-- Node_Ja_111 -->
<g id="node12" class="node">
<title>Node_Ja_111</title>
<g id="a_node12"><a xlink:title="keelson.AlarmAcknowledgment">
<polygon fill="#fffaf0" stroke="transparent" points="698,-830.5 698,-877.5 1012,-877.5 1012,-830.5 698,-830.5"/>
<polygon fill="#e31a1c" stroke="transparent" points="699,-861 699,-876 1011,-876 1011,-861 699,-861"/>
<text text-anchor="start" x="878" y="-867" font-family="Ubuntu" font-weight="bold" font-size="10.00">AlarmAcknowledgment</text>
<text text-anchor="start" x="705" y="-851" font-family="Ubuntu" font-size="10.00">1</text>
<text text-anchor="start" x="716" y="-851" font-family="Ubuntu" font-size="10.00">timestamp_acknowledged</text>
<polygon fill="#fb9a99" stroke="transparent" points="848,-846 848,-861 1011,-861 1011,-846 848,-846"/>
<text text-anchor="start" x="850" y="-852" font-family="Ubuntu" font-weight="bold" font-size="10.00">google.protobuf.Timestamp</text>
<text text-anchor="start" x="705" y="-836" font-family="Ubuntu" font-size="10.00">2</text>
<text text-anchor="start" x="716" y="-836" font-family="Ubuntu" font-size="10.00">acknowledged_by</text>
<polygon fill="#a6cee3" stroke="transparent" points="848,-831 848,-846 1011,-846 1011,-831 848,-831"/>
<text text-anchor="start" x="981" y="-837" font-family="Ubuntu" font-style="italic" font-size="10.00">string</text>
<polygon fill="none" stroke="black" points="698,-830.5 698,-877.5 1012,-877.5 1012,-830.5 698,-830.5"/>
</a>
</g>
</g>
<!-- Node_Ja_106&#45;&gt;Node_Ja_111 -->
<g id="edge14" class="edge">
<title>Node_Ja_106:e&#45;&gt;Node_Ja_111:header</title>
<g id="a_edge14"><a xlink:title="Ja_106 &#45;&#45;&gt; Ja_111">
<path fill="none" stroke="#000000" d="M313.5,-600C342.96,-600 331.03,-636.11 357,-650 474.35,-712.75 554.82,-599.28 654,-688 712.93,-740.72 623.91,-857.84 687.92,-868.26"/>
<polygon fill="#000000" stroke="#000000" points="687.77,-871.75 698,-869 688.28,-864.77 687.77,-871.75"/>
</a>
</g>
</g>
<!-- Node_Ja_104&#45;&gt;Node_Ja_100 -->
<g id="edge7" class="edge">
<title>Node_Ja_104:e&#45;&gt;Node_Ja_100:header</title>
<g id="a_edge7"><a xlink:title="Ja_104 &#45;&#45;&gt; Ja_100">
<path fill="none" stroke="#000000" d="M631.5,-613C709.73,-613 627.45,-732.03 690,-779 748.64,-823.04 961.22,-822.85 1020,-779 1072,-740.21 1003.68,-642.5 1054.03,-631.93"/>
<polygon fill="#000000" stroke="#000000" points="1054.37,-635.41 1064,-631 1053.72,-628.45 1054.37,-635.41"/>
</a>
</g>
</g>
<!-- Node_Ja_104&#45;&gt;Node_Ja_105 -->
<g id="edge6" class="edge">
<title>Node_Ja_104:e&#45;&gt;Node_Ja_105</title>
<g id="a_edge6"><a xlink:title="Ja_104 &#45;&#45;&gt; Ja_105">
<path fill="none" stroke="#008000" d="M631.5,-567C696.08,-567 640.76,-658.22 690,-700 718.33,-724.04 758.68,-734.58 792.26,-739.09"/>
<polygon fill="#008000" stroke="#008000" points="792.1,-742.59 802.45,-740.3 792.93,-735.64 792.1,-742.59"/>
</a>
</g>
</g>
<!-- Node_Ja_111&#45;&gt;Node_Ja_100 -->
<g id="edge11" class="edge">
<title>Node_Ja_111:e&#45;&gt;Node_Ja_100:header</title>
<g id="a_edge11"><a xlink:title="Ja_111 &#45;&#45;&gt; Ja_100">
<path fill="none" stroke="#000000" d="M1012,-853C1109.58,-853 973.5,-647.17 1053.73,-631.89"/>
<polygon fill="#000000" stroke="#000000" points="1054.34,-635.35 1064,-631 1053.73,-628.38 1054.34,-635.35"/>
</a>
</g>
</g>
<!-- Node_Ja_103&#45;&gt;Node_Ja_100 -->
<g id="edge16" class="edge">
<title>Node_Ja_103:e&#45;&gt;Node_Ja_100:header</title>
<g id="a_edge16"><a xlink:title="Ja_103 &#45;&#45;&gt; Ja_100">
<path fill="none" stroke="#000000" d="M974,-379C1000.24,-379 1006.34,-393.6 1020,-416 1068.9,-496.18 973.99,-621.29 1053.96,-630.46"/>
<polygon fill="#000000" stroke="#000000" points="1053.83,-633.96 1064,-631 1054.2,-626.97 1053.83,-633.96"/>
</a>
</g>
</g>
</g>
</svg>
