<?xml version="1.0" encoding="UTF-8" standalone="no"?>
<!DOCTYPE svg PUBLIC "-//W3C//DTD SVG 1.1//EN"
 "http://www.w3.org/Graphics/SVG/1.1/DTD/svg11.dtd">
<!-- Generated by graphviz version 2.43.0 (0)
 -->
<!-- Title: protodot Pages: 1 -->
<svg width="700pt" height="399pt"
 viewBox="0.00 0.00 700.00 398.50" xmlns="http://www.w3.org/2000/svg" xmlns:xlink="http://www.w3.org/1999/xlink">
<g id="graph0" class="graph" transform="scale(1 1) rotate(0) translate(4 394.5)">
<title>protodot</title>
<g id="a_graph0"><a xlink:title="keelson">
<text text-anchor="middle" x="346" y="-7.8" font-family="Times,serif" font-size="14.00">keelson</text>
</a>
</g>
<!-- Node_Ja_106 -->
<g id="node1" class="node">
<title>Node_Ja_106</title>
<g id="a_node1"><a xlink:title="keelson.RadarSpoke">
<polygon fill="#fffaf0" stroke="transparent" points="8,-236 8,-358 273,-358 273,-236 8,-236"/>
<polygon fill="#e31a1c" stroke="transparent" points="9.5,-342 9.5,-357 272.5,-357 272.5,-342 9.5,-342"/>
<text text-anchor="start" x="200.5" y="-348" font-family="Ubuntu" font-weight="bold" font-size="10.00">RadarSpoke</text>
<text text-anchor="start" x="32.5" y="-332" font-family="Ubuntu" font-size="10.00">1</text>
<text text-anchor="start" x="43.5" y="-332" font-family="Ubuntu" font-size="10.00">timestamp</text>
<polygon fill="#fb9a99" stroke="transparent" points="99.5,-327 99.5,-342 272.5,-342 272.5,-327 99.5,-327"/>
<text text-anchor="start" x="111.5" y="-333" font-family="Ubuntu" font-weight="bold" font-size="10.00">google.protobuf.Timestamp</text>
<text text-anchor="start" x="32.5" y="-317" font-family="Ubuntu" font-size="10.00">2</text>
<text text-anchor="start" x="43.5" y="-317" font-family="Ubuntu" font-size="10.00">frame_id</text>
<polygon fill="#a6cee3" stroke="transparent" points="99.5,-312 99.5,-327 272.5,-327 272.5,-312 99.5,-312"/>
<text text-anchor="start" x="242.5" y="-318" font-family="Ubuntu" font-style="italic" font-size="10.00">string</text>
<text text-anchor="start" x="32.5" y="-302" font-family="Ubuntu" font-size="10.00">3</text>
<text text-anchor="start" x="43.5" y="-302" font-family="Ubuntu" font-size="10.00">pose</text>
<polygon fill="#fb9a99" stroke="transparent" points="99.5,-297 99.5,-312 272.5,-312 272.5,-297 99.5,-297"/>
<text text-anchor="start" x="189.5" y="-303" font-family="Ubuntu" font-weight="bold" font-size="10.00">foxglove.Pose</text>
<text text-anchor="start" x="32.5" y="-287" font-family="Ubuntu" font-size="10.00">4</text>
<text text-anchor="start" x="43.5" y="-287" font-family="Ubuntu" font-size="10.00">azimuth</text>
<polygon fill="#a6cee3" stroke="transparent" points="99.5,-282 99.5,-297 272.5,-297 272.5,-282 99.5,-282"/>
<text text-anchor="start" x="247.5" y="-288" font-family="Ubuntu" font-style="italic" font-size="10.00">float</text>
<text text-anchor="start" x="32.5" y="-272" font-family="Ubuntu" font-size="10.00">5</text>
<text text-anchor="start" x="43.5" y="-272" font-family="Ubuntu" font-size="10.00">range</text>
<polygon fill="#a6cee3" stroke="transparent" points="99.5,-267 99.5,-282 272.5,-282 272.5,-267 99.5,-267"/>
<text text-anchor="start" x="247.5" y="-273" font-family="Ubuntu" font-style="italic" font-size="10.00">float</text>
<text text-anchor="start" x="11.5" y="-257" font-family="Ubuntu" font-size="10.00">[...]</text>
<text text-anchor="start" x="32.5" y="-257" font-family="Ubuntu" font-size="10.00">6</text>
<text text-anchor="start" x="43.5" y="-257" font-family="Ubuntu" font-size="10.00">fields</text>
<polygon fill="#fb9a99" stroke="transparent" points="99.5,-252 99.5,-267 272.5,-267 272.5,-252 99.5,-252"/>
<text text-anchor="start" x="101.5" y="-258" font-family="Ubuntu" font-weight="bold" font-size="10.00">foxglove.PackedElementField</text>
<text text-anchor="start" x="32.5" y="-242" font-family="Ubuntu" font-size="10.00">7</text>
<text text-anchor="start" x="43.5" y="-242" font-family="Ubuntu" font-size="10.00">data</text>
<polygon fill="#a6cee3" stroke="transparent" points="99.5,-237 99.5,-252 272.5,-252 272.5,-237 99.5,-237"/>
<text text-anchor="start" x="242.5" y="-243" font-family="Ubuntu" font-style="italic" font-size="10.00">bytes</text>
<polygon fill="none" stroke="black" points="8,-236 8,-358 273,-358 273,-236 8,-236"/>
</a>
</g>
</g>
<!-- Node_Ja_100 -->
<g id="node2" class="node">
<title>Node_Ja_100</title>
<g id="a_node2"><a xlink:title="google.protobuf.Timestamp">
<polygon fill="#fffaf0" stroke="transparent" points="377.5,-339.5 377.5,-386.5 467.5,-386.5 467.5,-339.5 377.5,-339.5"/>
<polygon fill="#e31a1c" stroke="transparent" points="378.5,-370 378.5,-385 466.5,-385 466.5,-370 378.5,-370"/>
<text text-anchor="start" x="400.5" y="-376" font-family="Ubuntu" font-weight="bold" font-size="10.00">Timestamp</text>
<text text-anchor="start" x="384.5" y="-360" font-family="Ubuntu" font-size="10.00">1</text>
<text text-anchor="start" x="395.5" y="-360" font-family="Ubuntu" font-size="10.00">seconds</text>
<polygon fill="#a6cee3" stroke="transparent" points="437.5,-355 437.5,-370 466.5,-370 466.5,-355 437.5,-355"/>
<text text-anchor="start" x="439.5" y="-361" font-family="Ubuntu" font-style="italic" font-size="10.00">int64</text>
<text text-anchor="start" x="384.5" y="-345" font-family="Ubuntu" font-size="10.00">2</text>
<text text-anchor="start" x="395.5" y="-345" font-family="Ubuntu" font-size="10.00">nanos</text>
<polygon fill="#a6cee3" stroke="transparent" points="437.5,-340 437.5,-355 466.5,-355 466.5,-340 437.5,-340"/>
<text text-anchor="start" x="439.5" y="-346" font-family="Ubuntu" font-style="italic" font-size="10.00">int32</text>
<polygon fill="none" stroke="black" points="377.5,-339.5 377.5,-386.5 467.5,-386.5 467.5,-339.5 377.5,-339.5"/>
</a>
</g>
</g>
<!-- Node_Ja_106&#45;&gt;Node_Ja_100 -->
<g id="edge6" class="edge">
<title>Node_Ja_106:e&#45;&gt;Node_Ja_100:header</title>
<g id="a_edge6"><a xlink:title="Ja_106 &#45;&#45;&gt; Ja_100">
<path fill="none" stroke="#000000" d="M273.5,-335C319.9,-335 326.67,-372.01 367.34,-377.36"/>
<polygon fill="#000000" stroke="#000000" points="367.3,-380.86 377.5,-378 367.74,-373.88 367.3,-380.86"/>
</a>
</g>
</g>
<!-- Node_Ja_103 -->
<g id="node3" class="node">
<title>Node_Ja_103</title>
<g id="a_node3"><a xlink:title="foxglove.Pose">
<polygon fill="#fffaf0" stroke="transparent" points="325,-266.5 325,-313.5 520,-313.5 520,-266.5 325,-266.5"/>
<polygon fill="#e31a1c" stroke="transparent" points="326.5,-297 326.5,-312 519.5,-312 519.5,-297 326.5,-297"/>
<text text-anchor="start" x="489.5" y="-303" font-family="Ubuntu" font-weight="bold" font-size="10.00">Pose</text>
<text text-anchor="start" x="332.5" y="-287" font-family="Ubuntu" font-size="10.00">1</text>
<text text-anchor="start" x="343.5" y="-287" font-family="Ubuntu" font-size="10.00">position</text>
<polygon fill="#fb9a99" stroke="transparent" points="399.5,-282 399.5,-297 519.5,-297 519.5,-282 399.5,-282"/>
<text text-anchor="start" x="420.5" y="-288" font-family="Ubuntu" font-weight="bold" font-size="10.00">foxglove.Vector3</text>
<text text-anchor="start" x="332.5" y="-272" font-family="Ubuntu" font-size="10.00">2</text>
<text text-anchor="start" x="343.5" y="-272" font-family="Ubuntu" font-size="10.00">orientation</text>
<polygon fill="#fb9a99" stroke="transparent" points="399.5,-267 399.5,-282 519.5,-282 519.5,-267 399.5,-267"/>
<text text-anchor="start" x="401.5" y="-273" font-family="Ubuntu" font-weight="bold" font-size="10.00">foxglove.Quaternion</text>
<polygon fill="none" stroke="black" points="325,-266.5 325,-313.5 520,-313.5 520,-266.5 325,-266.5"/>
</a>
</g>
</g>
<!-- Node_Ja_106&#45;&gt;Node_Ja_103 -->
<g id="edge1" class="edge">
<title>Node_Ja_106:e&#45;&gt;Node_Ja_103:header</title>
<g id="a_edge1"><a xlink:title="Ja_106 &#45;&#45;&gt; Ja_103">
<path fill="none" stroke="#000000" d="M273.5,-305C292.82,-305 300.03,-305 315.37,-305"/>
<polygon fill="#000000" stroke="#000000" points="315.5,-308.5 325.5,-305 315.5,-301.5 315.5,-308.5"/>
</a>
</g>
</g>
<!-- Node_Ja_104 -->
<g id="node4" class="node">
<title>Node_Ja_104</title>
<g id="a_node4"><a xlink:title="foxglove.PackedElementField">
<polygon fill="#fffaf0" stroke="transparent" points="362,-137 362,-199 483,-199 483,-137 362,-137"/>
<polygon fill="#e31a1c" stroke="transparent" points="363.5,-183 363.5,-198 482.5,-198 482.5,-183 363.5,-183"/>
<text text-anchor="start" x="365.5" y="-189" font-family="Ubuntu" font-weight="bold" font-size="10.00">PackedElementField</text>
<text text-anchor="start" x="372.5" y="-173" font-family="Ubuntu" font-size="10.00">1</text>
<text text-anchor="start" x="383.5" y="-173" font-family="Ubuntu" font-size="10.00">name</text>
<polygon fill="#a6cee3" stroke="transparent" points="413.5,-168 413.5,-183 482.5,-183 482.5,-168 413.5,-168"/>
<text text-anchor="start" x="452.5" y="-174" font-family="Ubuntu" font-style="italic" font-size="10.00">string</text>
<text text-anchor="start" x="372.5" y="-158" font-family="Ubuntu" font-size="10.00">2</text>
<text text-anchor="start" x="383.5" y="-158" font-family="Ubuntu" font-size="10.00">offset</text>
<polygon fill="#a6cee3" stroke="transparent" points="413.5,-153 413.5,-168 482.5,-168 482.5,-153 413.5,-153"/>
<text text-anchor="start" x="443.5" y="-159" font-family="Ubuntu" font-style="italic" font-size="10.00">fixed32</text>
<text text-anchor="start" x="372.5" y="-143" font-family="Ubuntu" font-size="10.00">3</text>
<text text-anchor="start" x="383.5" y="-143" font-family="Ubuntu" font-size="10.00">type</text>
<polygon fill="#b2df8a" stroke="transparent" points="413.5,-138 413.5,-153 482.5,-153 482.5,-138 413.5,-138"/>
<text text-anchor="start" x="416.5" y="-144" font-family="Ubuntu" text-decoration="underline" font-size="10.00">NumericType</text>
<polygon fill="none" stroke="black" points="362,-137 362,-199 483,-199 483,-137 362,-137"/>
</a>
</g>
</g>
<!-- Node_Ja_106&#45;&gt;Node_Ja_104 -->
<g id="edge2" class="edge">
<title>Node_Ja_106:e&#45;&gt;Node_Ja_104:header</title>
<g id="a_edge2"><a xlink:title="Ja_106 &#45;&#45;&gt; Ja_104">
<path fill="none" stroke="#000000" d="M273.5,-259C319.59,-259 313.96,-200.72 352.36,-192.07"/>
<polygon fill="#000000" stroke="#000000" points="352.92,-195.53 362.5,-191 352.19,-188.57 352.92,-195.53"/>
</a>
</g>
</g>
<!-- Node_Ja_102 -->
<g id="node5" class="node">
<title>Node_Ja_102</title>
<g id="a_node5"><a xlink:title="foxglove.Vector3">
<polygon fill="#fffaf0" stroke="transparent" points="595,-309 595,-371 661,-371 661,-309 595,-309"/>
<polygon fill="#e31a1c" stroke="transparent" points="596,-355 596,-370 660,-370 660,-355 596,-355"/>
<text text-anchor="start" x="614" y="-361" font-family="Ubuntu" font-weight="bold" font-size="10.00">Vector3</text>
<text text-anchor="start" x="602" y="-345" font-family="Ubuntu" font-size="10.00">1</text>
<text text-anchor="start" x="613" y="-345" font-family="Ubuntu" font-size="10.00">x</text>
<polygon fill="#a6cee3" stroke="transparent" points="622,-340 622,-355 660,-355 660,-340 622,-340"/>
<text text-anchor="start" x="624" y="-346" font-family="Ubuntu" font-style="italic" font-size="10.00">double</text>
<text text-anchor="start" x="602" y="-330" font-family="Ubuntu" font-size="10.00">2</text>
<text text-anchor="start" x="613" y="-330" font-family="Ubuntu" font-size="10.00">y</text>
<polygon fill="#a6cee3" stroke="transparent" points="622,-325 622,-340 660,-340 660,-325 622,-325"/>
<text text-anchor="start" x="624" y="-331" font-family="Ubuntu" font-style="italic" font-size="10.00">double</text>
<text text-anchor="start" x="602" y="-315" font-family="Ubuntu" font-size="10.00">3</text>
<text text-anchor="start" x="613" y="-315" font-family="Ubuntu" font-size="10.00">z</text>
<polygon fill="#a6cee3" stroke="transparent" points="622,-310 622,-325 660,-325 660,-310 622,-310"/>
<text text-anchor="start" x="624" y="-316" font-family="Ubuntu" font-style="italic" font-size="10.00">double</text>
<polygon fill="none" stroke="black" points="595,-309 595,-371 661,-371 661,-309 595,-309"/>
</a>
</g>
</g>
<!-- Node_Ja_103&#45;&gt;Node_Ja_102 -->
<g id="edge3" class="edge">
<title>Node_Ja_103:e&#45;&gt;Node_Ja_102:header</title>
<g id="a_edge3"><a xlink:title="Ja_103 &#45;&#45;&gt; Ja_102">
<path fill="none" stroke="#000000" d="M520.5,-289C563.34,-289 550.98,-351.36 584.77,-361.59"/>
<polygon fill="#000000" stroke="#000000" points="584.62,-365.1 595,-363 585.57,-358.17 584.62,-365.1"/>
</a>
</g>
</g>
<!-- Node_Ja_101 -->
<g id="node6" class="node">
<title>Node_Ja_101</title>
<g id="a_node6"><a xlink:title="foxglove.Quaternion">
<polygon fill="#fffaf0" stroke="transparent" points="593.5,-205.5 593.5,-282.5 662.5,-282.5 662.5,-205.5 593.5,-205.5"/>
<polygon fill="#e31a1c" stroke="transparent" points="595,-266 595,-281 662,-281 662,-266 595,-266"/>
<text text-anchor="start" x="597" y="-272" font-family="Ubuntu" font-weight="bold" font-size="10.00">Quaternion</text>
<text text-anchor="start" x="601" y="-256" font-family="Ubuntu" font-size="10.00">1</text>
<text text-anchor="start" x="612" y="-256" font-family="Ubuntu" font-size="10.00">x</text>
<polygon fill="#a6cee3" stroke="transparent" points="623,-251 623,-266 662,-266 662,-251 623,-251"/>
<text text-anchor="start" x="626" y="-257" font-family="Ubuntu" font-style="italic" font-size="10.00">double</text>
<text text-anchor="start" x="601" y="-241" font-family="Ubuntu" font-size="10.00">2</text>
<text text-anchor="start" x="612" y="-241" font-family="Ubuntu" font-size="10.00">y</text>
<polygon fill="#a6cee3" stroke="transparent" points="623,-236 623,-251 662,-251 662,-236 623,-236"/>
<text text-anchor="start" x="626" y="-242" font-family="Ubuntu" font-style="italic" font-size="10.00">double</text>
<text text-anchor="start" x="601" y="-226" font-family="Ubuntu" font-size="10.00">3</text>
<text text-anchor="start" x="612" y="-226" font-family="Ubuntu" font-size="10.00">z</text>
<polygon fill="#a6cee3" stroke="transparent" points="623,-221 623,-236 662,-236 662,-221 623,-221"/>
<text text-anchor="start" x="626" y="-227" font-family="Ubuntu" font-style="italic" font-size="10.00">double</text>
<text text-anchor="start" x="601" y="-211" font-family="Ubuntu" font-size="10.00">4</text>
<text text-anchor="start" x="612" y="-211" font-family="Ubuntu" font-size="10.00">w</text>
<polygon fill="#a6cee3" stroke="transparent" points="623,-206 623,-221 662,-221 662,-206 623,-206"/>
<text text-anchor="start" x="626" y="-212" font-family="Ubuntu" font-style="italic" font-size="10.00">double</text>
<polygon fill="none" stroke="black" points="593.5,-205.5 593.5,-282.5 662.5,-282.5 662.5,-205.5 593.5,-205.5"/>
</a>
</g>
</g>
<!-- Node_Ja_103&#45;&gt;Node_Ja_101 -->
<g id="edge4" class="edge">
<title>Node_Ja_103:e&#45;&gt;Node_Ja_101:header</title>
<g id="a_edge4"><a xlink:title="Ja_103 &#45;&#45;&gt; Ja_101">
<path fill="none" stroke="#000000" d="M520.5,-274C549.47,-274 559.17,-274 583.77,-274"/>
<polygon fill="#000000" stroke="#000000" points="584,-277.5 594,-274 584,-270.5 584,-277.5"/>
</a>
</g>
</g>
<!-- Node_Ja_105 -->
<g id="node7" class="node">
<title>Node_Ja_105</title>
<g id="a_node7"><a xlink:title="NumericType">
<polygon fill="#b2df8a" stroke="transparent" points="572,-27 572,-179 684,-179 684,-27 572,-27"/>
<polygon fill="#33a02c" stroke="transparent" points="573,-163 573,-178 683,-178 683,-163 573,-163"/>
<text text-anchor="start" x="575" y="-169" font-family="Ubuntu" font-size="10.00">enum </text>
<text text-anchor="start" x="606" y="-169" font-family="Ubuntu" font-weight="bold" font-size="10.00">NumericType</text>
<polygon fill="#b2df8a" stroke="transparent" points="573,-148 573,-163 652,-163 652,-148 573,-148"/>
<text text-anchor="start" x="575" y="-153" font-family="Ubuntu" font-size="10.00">UNKNOWN</text>
<polygon fill="#b2df8a" stroke="transparent" points="652,-148 652,-163 683,-163 683,-148 652,-148"/>
<text text-anchor="start" x="654" y="-153" font-family="Ubuntu" font-size="10.00">0</text>
<polygon fill="#b2df8a" stroke="transparent" points="573,-133 573,-148 652,-148 652,-133 573,-133"/>
<text text-anchor="start" x="575" y="-138" font-family="Ubuntu" font-size="10.00">UINT8</text>
<polygon fill="#b2df8a" stroke="transparent" points="652,-133 652,-148 683,-148 683,-133 652,-133"/>
<text text-anchor="start" x="654" y="-138" font-family="Ubuntu" font-size="10.00">1</text>
<polygon fill="#b2df8a" stroke="transparent" points="573,-118 573,-133 652,-133 652,-118 573,-118"/>
<text text-anchor="start" x="575" y="-123" font-family="Ubuntu" font-size="10.00">INT8</text>
<polygon fill="#b2df8a" stroke="transparent" points="652,-118 652,-133 683,-133 683,-118 652,-118"/>
<text text-anchor="start" x="654" y="-123" font-family="Ubuntu" font-size="10.00">2</text>
<polygon fill="#b2df8a" stroke="transparent" points="573,-103 573,-118 652,-118 652,-103 573,-103"/>
<text text-anchor="start" x="575" y="-108" font-family="Ubuntu" font-size="10.00">UINT16</text>
<polygon fill="#b2df8a" stroke="transparent" points="652,-103 652,-118 683,-118 683,-103 652,-103"/>
<text text-anchor="start" x="654" y="-108" font-family="Ubuntu" font-size="10.00">3</text>
<polygon fill="#b2df8a" stroke="transparent" points="573,-88 573,-103 652,-103 652,-88 573,-88"/>
<text text-anchor="start" x="575" y="-93" font-family="Ubuntu" font-size="10.00">INT16</text>
<polygon fill="#b2df8a" stroke="transparent" points="652,-88 652,-103 683,-103 683,-88 652,-88"/>
<text text-anchor="start" x="654" y="-93" font-family="Ubuntu" font-size="10.00">4</text>
<polygon fill="#b2df8a" stroke="transparent" points="573,-73 573,-88 652,-88 652,-73 573,-73"/>
<text text-anchor="start" x="575" y="-78" font-family="Ubuntu" font-size="10.00">UINT32</text>
<polygon fill="#b2df8a" stroke="transparent" points="652,-73 652,-88 683,-88 683,-73 652,-73"/>
<text text-anchor="start" x="654" y="-78" font-family="Ubuntu" font-size="10.00">5</text>
<polygon fill="#b2df8a" stroke="transparent" points="573,-58 573,-73 652,-73 652,-58 573,-58"/>
<text text-anchor="start" x="575" y="-63" font-family="Ubuntu" font-size="10.00">INT32</text>
<polygon fill="#b2df8a" stroke="transparent" points="652,-58 652,-73 683,-73 683,-58 652,-58"/>
<text text-anchor="start" x="654" y="-63" font-family="Ubuntu" font-size="10.00">6</text>
<polygon fill="#b2df8a" stroke="transparent" points="573,-43 573,-58 652,-58 652,-43 573,-43"/>
<text text-anchor="start" x="575" y="-48" font-family="Ubuntu" font-size="10.00">FLOAT32</text>
<polygon fill="#b2df8a" stroke="transparent" points="652,-43 652,-58 683,-58 683,-43 652,-43"/>
<text text-anchor="start" x="654" y="-48" font-family="Ubuntu" font-size="10.00">7</text>
<polygon fill="#b2df8a" stroke="transparent" points="573,-28 573,-43 652,-43 652,-28 573,-28"/>
<text text-anchor="start" x="575" y="-33" font-family="Ubuntu" font-size="10.00">FLOAT64</text>
<polygon fill="#b2df8a" stroke="transparent" points="652,-28 652,-43 683,-43 683,-28 652,-28"/>
<text text-anchor="start" x="654" y="-33" font-family="Ubuntu" font-size="10.00">8</text>
<polygon fill="none" stroke="black" points="572,-27 572,-179 684,-179 684,-27 572,-27"/>
</a>
</g>
</g>
<!-- Node_Ja_104&#45;&gt;Node_Ja_105 -->
<g id="edge5" class="edge">
<title>Node_Ja_104:e&#45;&gt;Node_Ja_105</title>
<g id="a_edge5"><a xlink:title="Ja_104 &#45;&#45;&gt; Ja_105">
<path fill="none" stroke="#008000" d="M483.5,-145C507.02,-145 531.86,-139.74 554.15,-132.94"/>
<polygon fill="#008000" stroke="#008000" points="555.4,-136.22 563.86,-129.84 553.27,-129.55 555.4,-136.22"/>
</a>
</g>
</g>
</g>
</svg>
