<?xml version="1.0" encoding="UTF-8" standalone="no"?>
<!DOCTYPE svg PUBLIC "-//W3C//DTD SVG 1.1//EN"
 "http://www.w3.org/Graphics/SVG/1.1/DTD/svg11.dtd">
<!-- Generated by graphviz version 2.43.0 (0)
 -->
<!-- Title: protodot Pages: 1 -->
<svg width="467pt" height="694pt"
 viewBox="0.00 0.00 467.00 693.50" xmlns="http://www.w3.org/2000/svg" xmlns:xlink="http://www.w3.org/1999/xlink">
<g id="graph0" class="graph" transform="scale(1 1) rotate(0) translate(4 689.5)">
<title>protodot</title>
<g id="a_graph0"><a xlink:title="keelson">
<text text-anchor="middle" x="229.5" y="-7.8" font-family="Times,serif" font-size="14.00">keelson</text>
</a>
</g>
<!-- Node_Ja_105 -->
<g id="node1" class="node">
<title>Node_Ja_105</title>
<g id="a_node1"><a xlink:title="Integrity">
<polygon fill="#b2df8a" stroke="transparent" points="310,-27 310,-119 439,-119 439,-27 310,-27"/>
<polygon fill="#33a02c" stroke="transparent" points="311.5,-103 311.5,-118 438.5,-118 438.5,-103 311.5,-103"/>
<text text-anchor="start" x="355.5" y="-109" font-family="Ubuntu" font-size="10.00">enum </text>
<text text-anchor="start" x="386.5" y="-109" font-family="Ubuntu" font-weight="bold" font-size="10.00">Integrity</text>
<polygon fill="#b2df8a" stroke="transparent" points="311.5,-88 311.5,-103 427.5,-103 427.5,-88 311.5,-88"/>
<text text-anchor="start" x="313.5" y="-93" font-family="Ubuntu" font-size="10.00">INTEGRITY_UNKNOWN</text>
<polygon fill="#b2df8a" stroke="transparent" points="427.5,-88 427.5,-103 438.5,-103 438.5,-88 427.5,-88"/>
<text text-anchor="start" x="429.5" y="-93" font-family="Ubuntu" font-size="10.00">0</text>
<polygon fill="#b2df8a" stroke="transparent" points="311.5,-73 311.5,-88 427.5,-88 427.5,-73 311.5,-73"/>
<text text-anchor="start" x="313.5" y="-78" font-family="Ubuntu" font-size="10.00">INTEGRITY_NO_CHECK</text>
<polygon fill="#b2df8a" stroke="transparent" points="427.5,-73 427.5,-88 438.5,-88 438.5,-73 427.5,-73"/>
<text text-anchor="start" x="429.5" y="-78" font-family="Ubuntu" font-size="10.00">1</text>
<polygon fill="#b2df8a" stroke="transparent" points="311.5,-58 311.5,-73 427.5,-73 427.5,-58 311.5,-58"/>
<text text-anchor="start" x="313.5" y="-63" font-family="Ubuntu" font-size="10.00">INTEGRITY_SAFE</text>
<polygon fill="#b2df8a" stroke="transparent" points="427.5,-58 427.5,-73 438.5,-73 438.5,-58 427.5,-58"/>
<text text-anchor="start" x="429.5" y="-63" font-family="Ubuntu" font-size="10.00">2</text>
<polygon fill="#b2df8a" stroke="transparent" points="311.5,-43 311.5,-58 427.5,-58 427.5,-43 311.5,-43"/>
<text text-anchor="start" x="313.5" y="-48" font-family="Ubuntu" font-size="10.00">INTEGRITY_CAUTION</text>
<polygon fill="#b2df8a" stroke="transparent" points="427.5,-43 427.5,-58 438.5,-58 438.5,-43 427.5,-43"/>
<text text-anchor="start" x="429.5" y="-48" font-family="Ubuntu" font-size="10.00">3</text>
<polygon fill="#b2df8a" stroke="transparent" points="311.5,-28 311.5,-43 427.5,-43 427.5,-28 311.5,-28"/>
<text text-anchor="start" x="313.5" y="-33" font-family="Ubuntu" font-size="10.00">INTEGRITY_UNSAFE</text>
<polygon fill="#b2df8a" stroke="transparent" points="427.5,-28 427.5,-43 438.5,-43 438.5,-28 427.5,-28"/>
<text text-anchor="start" x="429.5" y="-33" font-family="Ubuntu" font-size="10.00">4</text>
<polygon fill="none" stroke="black" points="310,-27 310,-119 439,-119 439,-27 310,-27"/>
</a>
</g>
</g>
<!-- Node_Ja_100 -->
<g id="node2" class="node">
<title>Node_Ja_100</title>
<g id="a_node2"><a xlink:title="google.protobuf.Timestamp">
<polygon fill="#fffaf0" stroke="transparent" points="329.5,-634.5 329.5,-681.5 419.5,-681.5 419.5,-634.5 329.5,-634.5"/>
<polygon fill="#e31a1c" stroke="transparent" points="330.5,-665 330.5,-680 418.5,-680 418.5,-665 330.5,-665"/>
<text text-anchor="start" x="352.5" y="-671" font-family="Ubuntu" font-weight="bold" font-size="10.00">Timestamp</text>
<text text-anchor="start" x="336.5" y="-655" font-family="Ubuntu" font-size="10.00">1</text>
<text text-anchor="start" x="347.5" y="-655" font-family="Ubuntu" font-size="10.00">seconds</text>
<polygon fill="#a6cee3" stroke="transparent" points="389.5,-650 389.5,-665 418.5,-665 418.5,-650 389.5,-650"/>
<text text-anchor="start" x="391.5" y="-656" font-family="Ubuntu" font-style="italic" font-size="10.00">int64</text>
<text text-anchor="start" x="336.5" y="-640" font-family="Ubuntu" font-size="10.00">2</text>
<text text-anchor="start" x="347.5" y="-640" font-family="Ubuntu" font-size="10.00">nanos</text>
<polygon fill="#a6cee3" stroke="transparent" points="389.5,-635 389.5,-650 418.5,-650 418.5,-635 389.5,-635"/>
<text text-anchor="start" x="391.5" y="-641" font-family="Ubuntu" font-style="italic" font-size="10.00">int32</text>
<polygon fill="none" stroke="black" points="329.5,-634.5 329.5,-681.5 419.5,-681.5 419.5,-634.5 329.5,-634.5"/>
</a>
</g>
</g>
<!-- Node_Ja_101 -->
<g id="node3" class="node">
<title>Node_Ja_101</title>
<g id="a_node3"><a xlink:title="keelson.LocationFixQuality">
<polygon fill="#fffaf0" stroke="transparent" points="8,-316 8,-408 246,-408 246,-316 8,-316"/>
<polygon fill="#e31a1c" stroke="transparent" points="9,-392 9,-407 245,-407 245,-392 9,-392"/>
<text text-anchor="start" x="137" y="-398" font-family="Ubuntu" font-weight="bold" font-size="10.00">LocationFixQuality</text>
<text text-anchor="start" x="15" y="-382" font-family="Ubuntu" font-size="10.00">1</text>
<text text-anchor="start" x="26" y="-382" font-family="Ubuntu" font-size="10.00">timestamp</text>
<polygon fill="#fb9a99" stroke="transparent" points="82,-377 82,-392 245,-392 245,-377 82,-377"/>
<text text-anchor="start" x="84" y="-383" font-family="Ubuntu" font-weight="bold" font-size="10.00">google.protobuf.Timestamp</text>
<text text-anchor="start" x="15" y="-367" font-family="Ubuntu" font-size="10.00">2</text>
<text text-anchor="start" x="26" y="-367" font-family="Ubuntu" font-size="10.00">fix_type</text>
<polygon fill="#b2df8a" stroke="transparent" points="82,-362 82,-377 245,-377 245,-362 82,-362"/>
<text text-anchor="start" x="206" y="-368" font-family="Ubuntu" text-decoration="underline" font-size="10.00">FixType</text>
<text text-anchor="start" x="15" y="-352" font-family="Ubuntu" font-size="10.00">3</text>
<text text-anchor="start" x="26" y="-352" font-family="Ubuntu" font-size="10.00">pos_type</text>
<polygon fill="#b2df8a" stroke="transparent" points="82,-347 82,-362 245,-362 245,-347 82,-347"/>
<text text-anchor="start" x="203" y="-353" font-family="Ubuntu" text-decoration="underline" font-size="10.00">PosType</text>
<text text-anchor="start" x="15" y="-337" font-family="Ubuntu" font-size="10.00">4</text>
<text text-anchor="start" x="26" y="-337" font-family="Ubuntu" font-size="10.00">rtk_status</text>
<polygon fill="#b2df8a" stroke="transparent" points="82,-332 82,-347 245,-347 245,-332 82,-332"/>
<text text-anchor="start" x="195" y="-338" font-family="Ubuntu" text-decoration="underline" font-size="10.00">RtkStatus</text>
<text text-anchor="start" x="15" y="-322" font-family="Ubuntu" font-size="10.00">5</text>
<text text-anchor="start" x="26" y="-322" font-family="Ubuntu" font-size="10.00">integrity</text>
<polygon fill="#b2df8a" stroke="transparent" points="82,-317 82,-332 245,-332 245,-317 82,-317"/>
<text text-anchor="start" x="201" y="-323" font-family="Ubuntu" text-decoration="underline" font-size="10.00">Integrity</text>
<polygon fill="none" stroke="black" points="8,-316 8,-408 246,-408 246,-316 8,-316"/>
</a>
</g>
</g>
<!-- Node_Ja_101&#45;&gt;Node_Ja_105 -->
<g id="edge3" class="edge">
<title>Node_Ja_101:e&#45;&gt;Node_Ja_105</title>
<g id="a_edge3"><a xlink:title="Ja_101 &#45;&#45;&gt; Ja_105">
<path fill="none" stroke="#008000" d="M246,-324C333.55,-324 241.26,-204.72 290,-132 291.62,-129.58 293.38,-127.23 295.25,-124.95"/>
<polygon fill="#008000" stroke="#008000" points="297.9,-127.23 301.99,-117.46 292.7,-122.55 297.9,-127.23"/>
</a>
</g>
</g>
<!-- Node_Ja_101&#45;&gt;Node_Ja_100 -->
<g id="edge4" class="edge">
<title>Node_Ja_101:e&#45;&gt;Node_Ja_100:header</title>
<g id="a_edge4"><a xlink:title="Ja_101 &#45;&#45;&gt; Ja_100">
<path fill="none" stroke="#000000" d="M246,-385C299.57,-385 268.09,-573.12 290,-622 300.17,-644.69 300.84,-666.38 319.54,-671.74"/>
<polygon fill="#000000" stroke="#000000" points="319.14,-675.22 329.5,-673 320.02,-668.27 319.14,-675.22"/>
</a>
</g>
</g>
<!-- Node_Ja_102 -->
<g id="node4" class="node">
<title>Node_Ja_102</title>
<g id="a_node4"><a xlink:title="FixType">
<polygon fill="#b2df8a" stroke="transparent" points="333.5,-471.5 333.5,-608.5 415.5,-608.5 415.5,-471.5 333.5,-471.5"/>
<polygon fill="#33a02c" stroke="transparent" points="334.5,-592 334.5,-607 414.5,-607 414.5,-592 334.5,-592"/>
<text text-anchor="start" x="336.5" y="-598" font-family="Ubuntu" font-size="10.00">enum </text>
<text text-anchor="start" x="367.5" y="-598" font-family="Ubuntu" font-weight="bold" font-size="10.00">FixType</text>
<polygon fill="#b2df8a" stroke="transparent" points="334.5,-577 334.5,-592 398.5,-592 398.5,-577 334.5,-577"/>
<text text-anchor="start" x="336.5" y="-582" font-family="Ubuntu" font-size="10.00">UNKNOWN</text>
<polygon fill="#b2df8a" stroke="transparent" points="398.5,-577 398.5,-592 414.5,-592 414.5,-577 398.5,-577"/>
<text text-anchor="start" x="400.5" y="-582" font-family="Ubuntu" font-size="10.00">0</text>
<polygon fill="#b2df8a" stroke="transparent" points="334.5,-562 334.5,-577 398.5,-577 398.5,-562 334.5,-562"/>
<text text-anchor="start" x="336.5" y="-567" font-family="Ubuntu" font-size="10.00">INVALID</text>
<polygon fill="#b2df8a" stroke="transparent" points="398.5,-562 398.5,-577 414.5,-577 414.5,-562 398.5,-562"/>
<text text-anchor="start" x="400.5" y="-567" font-family="Ubuntu" font-size="10.00">1</text>
<polygon fill="#b2df8a" stroke="transparent" points="334.5,-547 334.5,-562 398.5,-562 398.5,-547 334.5,-547"/>
<text text-anchor="start" x="336.5" y="-552" font-family="Ubuntu" font-size="10.00">FIX_NO</text>
<polygon fill="#b2df8a" stroke="transparent" points="398.5,-547 398.5,-562 414.5,-562 414.5,-547 398.5,-547"/>
<text text-anchor="start" x="400.5" y="-552" font-family="Ubuntu" font-size="10.00">2</text>
<polygon fill="#b2df8a" stroke="transparent" points="334.5,-532 334.5,-547 398.5,-547 398.5,-532 334.5,-532"/>
<text text-anchor="start" x="336.5" y="-537" font-family="Ubuntu" font-size="10.00">FIX_2D</text>
<polygon fill="#b2df8a" stroke="transparent" points="398.5,-532 398.5,-547 414.5,-547 414.5,-532 398.5,-532"/>
<text text-anchor="start" x="400.5" y="-537" font-family="Ubuntu" font-size="10.00">3</text>
<polygon fill="#b2df8a" stroke="transparent" points="334.5,-517 334.5,-532 398.5,-532 398.5,-517 334.5,-517"/>
<text text-anchor="start" x="336.5" y="-522" font-family="Ubuntu" font-size="10.00">FIX_3D</text>
<polygon fill="#b2df8a" stroke="transparent" points="398.5,-517 398.5,-532 414.5,-532 414.5,-517 398.5,-517"/>
<text text-anchor="start" x="400.5" y="-522" font-family="Ubuntu" font-size="10.00">4</text>
<polygon fill="#b2df8a" stroke="transparent" points="334.5,-502 334.5,-517 398.5,-517 398.5,-502 334.5,-502"/>
<text text-anchor="start" x="336.5" y="-507" font-family="Ubuntu" font-size="10.00">GPS_DR</text>
<polygon fill="#b2df8a" stroke="transparent" points="398.5,-502 398.5,-517 414.5,-517 414.5,-502 398.5,-502"/>
<text text-anchor="start" x="400.5" y="-507" font-family="Ubuntu" font-size="10.00">5</text>
<polygon fill="#b2df8a" stroke="transparent" points="334.5,-487 334.5,-502 398.5,-502 398.5,-487 334.5,-487"/>
<text text-anchor="start" x="336.5" y="-492" font-family="Ubuntu" font-size="10.00">TIME_ONLY</text>
<polygon fill="#b2df8a" stroke="transparent" points="398.5,-487 398.5,-502 414.5,-502 414.5,-487 398.5,-487"/>
<text text-anchor="start" x="400.5" y="-492" font-family="Ubuntu" font-size="10.00">6</text>
<polygon fill="#b2df8a" stroke="transparent" points="334.5,-472 334.5,-487 398.5,-487 398.5,-472 334.5,-472"/>
<text text-anchor="start" x="336.5" y="-477" font-family="Ubuntu" font-size="10.00">DR_ONLY</text>
<polygon fill="#b2df8a" stroke="transparent" points="398.5,-472 398.5,-487 414.5,-487 414.5,-472 398.5,-472"/>
<text text-anchor="start" x="400.5" y="-477" font-family="Ubuntu" font-size="10.00">7</text>
<polygon fill="none" stroke="black" points="333.5,-471.5 333.5,-608.5 415.5,-608.5 415.5,-471.5 333.5,-471.5"/>
</a>
</g>
</g>
<!-- Node_Ja_101&#45;&gt;Node_Ja_102 -->
<g id="edge5" class="edge">
<title>Node_Ja_101:e&#45;&gt;Node_Ja_102</title>
<g id="a_edge5"><a xlink:title="Ja_101 &#45;&#45;&gt; Ja_102">
<path fill="none" stroke="#008000" d="M246,-370C289.73,-370 264.27,-422.64 290,-458 298.18,-469.24 307.94,-480.32 317.87,-490.54"/>
<polygon fill="#008000" stroke="#008000" points="315.57,-493.19 325.1,-497.81 320.53,-488.25 315.57,-493.19"/>
</a>
</g>
</g>
<!-- Node_Ja_103 -->
<g id="node5" class="node">
<title>Node_Ja_103</title>
<g id="a_node5"><a xlink:title="PosType">
<polygon fill="#b2df8a" stroke="transparent" points="300.5,-263 300.5,-445 448.5,-445 448.5,-263 300.5,-263"/>
<polygon fill="#33a02c" stroke="transparent" points="301.5,-429 301.5,-444 447.5,-444 447.5,-429 301.5,-429"/>
<text text-anchor="start" x="366.5" y="-435" font-family="Ubuntu" font-size="10.00">enum </text>
<text text-anchor="start" x="397.5" y="-435" font-family="Ubuntu" font-weight="bold" font-size="10.00">PosType</text>
<polygon fill="#b2df8a" stroke="transparent" points="301.5,-414 301.5,-429 430.5,-429 430.5,-414 301.5,-414"/>
<text text-anchor="start" x="303.5" y="-419" font-family="Ubuntu" font-size="10.00">POS_TYPE_NO_SOLUTION</text>
<polygon fill="#b2df8a" stroke="transparent" points="430.5,-414 430.5,-429 447.5,-429 447.5,-414 430.5,-414"/>
<text text-anchor="start" x="432.5" y="-419" font-family="Ubuntu" font-size="10.00">0</text>
<polygon fill="#b2df8a" stroke="transparent" points="301.5,-399 301.5,-414 430.5,-414 430.5,-399 301.5,-399"/>
<text text-anchor="start" x="303.5" y="-404" font-family="Ubuntu" font-size="10.00">POS_TYPE_UNKNOWN</text>
<polygon fill="#b2df8a" stroke="transparent" points="430.5,-399 430.5,-414 447.5,-414 447.5,-399 430.5,-399"/>
<text text-anchor="start" x="432.5" y="-404" font-family="Ubuntu" font-size="10.00">1</text>
<polygon fill="#b2df8a" stroke="transparent" points="301.5,-384 301.5,-399 430.5,-399 430.5,-384 301.5,-384"/>
<text text-anchor="start" x="303.5" y="-389" font-family="Ubuntu" font-size="10.00">POS_TYPE_SINGLE</text>
<polygon fill="#b2df8a" stroke="transparent" points="430.5,-384 430.5,-399 447.5,-399 447.5,-384 430.5,-384"/>
<text text-anchor="start" x="432.5" y="-389" font-family="Ubuntu" font-size="10.00">2</text>
<polygon fill="#b2df8a" stroke="transparent" points="301.5,-369 301.5,-384 430.5,-384 430.5,-369 301.5,-369"/>
<text text-anchor="start" x="303.5" y="-374" font-family="Ubuntu" font-size="10.00">POS_TYPE_PSRDIFF</text>
<polygon fill="#b2df8a" stroke="transparent" points="430.5,-369 430.5,-384 447.5,-384 447.5,-369 430.5,-369"/>
<text text-anchor="start" x="432.5" y="-374" font-family="Ubuntu" font-size="10.00">3</text>
<polygon fill="#b2df8a" stroke="transparent" points="301.5,-354 301.5,-369 430.5,-369 430.5,-354 301.5,-354"/>
<text text-anchor="start" x="303.5" y="-359" font-family="Ubuntu" font-size="10.00">POS_TYPE_SBAS</text>
<polygon fill="#b2df8a" stroke="transparent" points="430.5,-354 430.5,-369 447.5,-369 447.5,-354 430.5,-354"/>
<text text-anchor="start" x="432.5" y="-359" font-family="Ubuntu" font-size="10.00">4</text>
<polygon fill="#b2df8a" stroke="transparent" points="301.5,-339 301.5,-354 430.5,-354 430.5,-339 301.5,-339"/>
<text text-anchor="start" x="303.5" y="-344" font-family="Ubuntu" font-size="10.00">POS_TYPE_OMNISTAR</text>
<polygon fill="#b2df8a" stroke="transparent" points="430.5,-339 430.5,-354 447.5,-354 447.5,-339 430.5,-339"/>
<text text-anchor="start" x="432.5" y="-344" font-family="Ubuntu" font-size="10.00">5</text>
<polygon fill="#b2df8a" stroke="transparent" points="301.5,-324 301.5,-339 430.5,-339 430.5,-324 301.5,-324"/>
<text text-anchor="start" x="303.5" y="-329" font-family="Ubuntu" font-size="10.00">POS_TYPE_RTK_FLOAT</text>
<polygon fill="#b2df8a" stroke="transparent" points="430.5,-324 430.5,-339 447.5,-339 447.5,-324 430.5,-324"/>
<text text-anchor="start" x="432.5" y="-329" font-family="Ubuntu" font-size="10.00">6</text>
<polygon fill="#b2df8a" stroke="transparent" points="301.5,-309 301.5,-324 430.5,-324 430.5,-309 301.5,-309"/>
<text text-anchor="start" x="303.5" y="-314" font-family="Ubuntu" font-size="10.00">POS_TYPE_RTK_INT</text>
<polygon fill="#b2df8a" stroke="transparent" points="430.5,-309 430.5,-324 447.5,-324 447.5,-309 430.5,-309"/>
<text text-anchor="start" x="432.5" y="-314" font-family="Ubuntu" font-size="10.00">7</text>
<polygon fill="#b2df8a" stroke="transparent" points="301.5,-294 301.5,-309 430.5,-309 430.5,-294 301.5,-294"/>
<text text-anchor="start" x="303.5" y="-299" font-family="Ubuntu" font-size="10.00">POS_TYPE_PPP_FLOAT</text>
<polygon fill="#b2df8a" stroke="transparent" points="430.5,-294 430.5,-309 447.5,-309 447.5,-294 430.5,-294"/>
<text text-anchor="start" x="432.5" y="-299" font-family="Ubuntu" font-size="10.00">8</text>
<polygon fill="#b2df8a" stroke="transparent" points="301.5,-279 301.5,-294 430.5,-294 430.5,-279 301.5,-279"/>
<text text-anchor="start" x="303.5" y="-284" font-family="Ubuntu" font-size="10.00">POS_TYPE_PPP_INT</text>
<polygon fill="#b2df8a" stroke="transparent" points="430.5,-279 430.5,-294 447.5,-294 447.5,-279 430.5,-279"/>
<text text-anchor="start" x="432.5" y="-284" font-family="Ubuntu" font-size="10.00">9</text>
<polygon fill="#b2df8a" stroke="transparent" points="301.5,-264 301.5,-279 430.5,-279 430.5,-264 301.5,-264"/>
<text text-anchor="start" x="303.5" y="-269" font-family="Ubuntu" font-size="10.00">POS_TYPE_FIXED</text>
<polygon fill="#b2df8a" stroke="transparent" points="430.5,-264 430.5,-279 447.5,-279 447.5,-264 430.5,-264"/>
<text text-anchor="start" x="432.5" y="-269" font-family="Ubuntu" font-size="10.00">10</text>
<polygon fill="none" stroke="black" points="300.5,-263 300.5,-445 448.5,-445 448.5,-263 300.5,-263"/>
</a>
</g>
</g>
<!-- Node_Ja_101&#45;&gt;Node_Ja_103 -->
<g id="edge1" class="edge">
<title>Node_Ja_101:e&#45;&gt;Node_Ja_103</title>
<g id="a_edge1"><a xlink:title="Ja_101 &#45;&#45;&gt; Ja_103">
<path fill="none" stroke="#008000" d="M246,-354C257.67,-354 269.95,-354 282.08,-354"/>
<polygon fill="#008000" stroke="#008000" points="282.22,-357.5 292.22,-354 282.22,-350.5 282.22,-357.5"/>
</a>
</g>
</g>
<!-- Node_Ja_104 -->
<g id="node6" class="node">
<title>Node_Ja_104</title>
<g id="a_node6"><a xlink:title="RtkStatus">
<polygon fill="#b2df8a" stroke="transparent" points="298,-145 298,-237 451,-237 451,-145 298,-145"/>
<polygon fill="#33a02c" stroke="transparent" points="299.5,-221 299.5,-236 450.5,-236 450.5,-221 299.5,-221"/>
<text text-anchor="start" x="362.5" y="-227" font-family="Ubuntu" font-size="10.00">enum </text>
<text text-anchor="start" x="393.5" y="-227" font-family="Ubuntu" font-weight="bold" font-size="10.00">RtkStatus</text>
<polygon fill="#b2df8a" stroke="transparent" points="299.5,-206 299.5,-221 439.5,-221 439.5,-206 299.5,-206"/>
<text text-anchor="start" x="301.5" y="-211" font-family="Ubuntu" font-size="10.00">RTK_STATUS_UNKNOWN</text>
<polygon fill="#b2df8a" stroke="transparent" points="439.5,-206 439.5,-221 450.5,-221 450.5,-206 439.5,-206"/>
<text text-anchor="start" x="441.5" y="-211" font-family="Ubuntu" font-size="10.00">0</text>
<polygon fill="#b2df8a" stroke="transparent" points="299.5,-191 299.5,-206 439.5,-206 439.5,-191 299.5,-191"/>
<text text-anchor="start" x="301.5" y="-196" font-family="Ubuntu" font-size="10.00">RTK_STATUS_NONE</text>
<polygon fill="#b2df8a" stroke="transparent" points="439.5,-191 439.5,-206 450.5,-206 450.5,-191 439.5,-191"/>
<text text-anchor="start" x="441.5" y="-196" font-family="Ubuntu" font-size="10.00">1</text>
<polygon fill="#b2df8a" stroke="transparent" points="299.5,-176 299.5,-191 439.5,-191 439.5,-176 299.5,-176"/>
<text text-anchor="start" x="301.5" y="-181" font-family="Ubuntu" font-size="10.00">RTK_STATUS_DIFFERENTIAL</text>
<polygon fill="#b2df8a" stroke="transparent" points="439.5,-176 439.5,-191 450.5,-191 450.5,-176 439.5,-176"/>
<text text-anchor="start" x="441.5" y="-181" font-family="Ubuntu" font-size="10.00">2</text>
<polygon fill="#b2df8a" stroke="transparent" points="299.5,-161 299.5,-176 439.5,-176 439.5,-161 299.5,-161"/>
<text text-anchor="start" x="301.5" y="-166" font-family="Ubuntu" font-size="10.00">RTK_STATUS_FLOAT</text>
<polygon fill="#b2df8a" stroke="transparent" points="439.5,-161 439.5,-176 450.5,-176 450.5,-161 439.5,-161"/>
<text text-anchor="start" x="441.5" y="-166" font-family="Ubuntu" font-size="10.00">3</text>
<polygon fill="#b2df8a" stroke="transparent" points="299.5,-146 299.5,-161 439.5,-161 439.5,-146 299.5,-146"/>
<text text-anchor="start" x="301.5" y="-151" font-family="Ubuntu" font-size="10.00">RTK_STATUS_FIXED</text>
<polygon fill="#b2df8a" stroke="transparent" points="439.5,-146 439.5,-161 450.5,-161 450.5,-146 439.5,-146"/>
<text text-anchor="start" x="441.5" y="-151" font-family="Ubuntu" font-size="10.00">4</text>
<polygon fill="none" stroke="black" points="298,-145 298,-237 451,-237 451,-145 298,-145"/>
</a>
</g>
</g>
<!-- Node_Ja_101&#45;&gt;Node_Ja_104 -->
<g id="edge2" class="edge">
<title>Node_Ja_101:e&#45;&gt;Node_Ja_104</title>
<g id="a_edge2"><a xlink:title="Ja_101 &#45;&#45;&gt; Ja_104">
<path fill="none" stroke="#008000" d="M246,-339C290.13,-339 261.32,-283.54 290,-250 290.4,-249.54 290.8,-249.07 291.2,-248.61"/>
<polygon fill="#008000" stroke="#008000" points="293.77,-250.99 298.1,-241.33 288.69,-246.18 293.77,-250.99"/>
</a>
</g>
</g>
</g>
</svg>
