<?xml version="1.0" encoding="UTF-8" standalone="no"?>
<!DOCTYPE svg PUBLIC "-//W3C//DTD SVG 1.1//EN"
 "http://www.w3.org/Graphics/SVG/1.1/DTD/svg11.dtd">
<!-- Generated by graphviz version 2.43.0 (0)
 -->
<!-- Title: protodot Pages: 1 -->
<svg width="439pt" height="219pt"
 viewBox="0.00 0.00 439.00 219.00" xmlns="http://www.w3.org/2000/svg" xmlns:xlink="http://www.w3.org/1999/xlink">
<g id="graph0" class="graph" transform="scale(1 1) rotate(0) translate(4 215)">
<title>protodot</title>
<g id="a_graph0"><a xlink:title="keelson">
<text text-anchor="middle" x="215.5" y="-7.8" font-family="Times,serif" font-size="14.00">keelson</text>
</a>
</g>
<!-- Node_Ja_102 -->
<g id="node1" class="node">
<title>Node_Ja_102</title>
<g id="a_node1"><a xlink:title="OperatingMode">
<polygon fill="#b2df8a" stroke="transparent" points="298,-27 298,-134 423,-134 423,-27 298,-27"/>
<polygon fill="#33a02c" stroke="transparent" points="299.5,-117.5 299.5,-132.5 422.5,-132.5 422.5,-117.5 299.5,-117.5"/>
<text text-anchor="start" x="301.5" y="-123.5" font-family="Ubuntu" font-size="10.00">enum </text>
<text text-anchor="start" x="332.5" y="-123.5" font-family="Ubuntu" font-weight="bold" font-size="10.00">OperatingMode</text>
<polygon fill="#b2df8a" stroke="transparent" points="299.5,-102.5 299.5,-117.5 384.5,-117.5 384.5,-102.5 299.5,-102.5"/>
<text text-anchor="start" x="301.5" y="-107.5" font-family="Ubuntu" font-size="10.00">UNKNOWN</text>
<polygon fill="#b2df8a" stroke="transparent" points="384.5,-102.5 384.5,-117.5 422.5,-117.5 422.5,-102.5 384.5,-102.5"/>
<text text-anchor="start" x="386.5" y="-107.5" font-family="Ubuntu" font-size="10.00">0</text>
<polygon fill="#b2df8a" stroke="transparent" points="299.5,-87.5 299.5,-102.5 384.5,-102.5 384.5,-87.5 299.5,-87.5"/>
<text text-anchor="start" x="301.5" y="-92.5" font-family="Ubuntu" font-size="10.00">RUNNING</text>
<polygon fill="#b2df8a" stroke="transparent" points="384.5,-87.5 384.5,-102.5 422.5,-102.5 422.5,-87.5 384.5,-87.5"/>
<text text-anchor="start" x="386.5" y="-92.5" font-family="Ubuntu" font-size="10.00">1</text>
<polygon fill="#b2df8a" stroke="transparent" points="299.5,-72.5 299.5,-87.5 384.5,-87.5 384.5,-72.5 299.5,-72.5"/>
<text text-anchor="start" x="301.5" y="-77.5" font-family="Ubuntu" font-size="10.00">STANDBY</text>
<polygon fill="#b2df8a" stroke="transparent" points="384.5,-72.5 384.5,-87.5 422.5,-87.5 422.5,-72.5 384.5,-72.5"/>
<text text-anchor="start" x="386.5" y="-77.5" font-family="Ubuntu" font-size="10.00">2</text>
<polygon fill="#b2df8a" stroke="transparent" points="299.5,-57.5 299.5,-72.5 384.5,-72.5 384.5,-57.5 299.5,-57.5"/>
<text text-anchor="start" x="301.5" y="-62.5" font-family="Ubuntu" font-size="10.00">DISABLED</text>
<polygon fill="#b2df8a" stroke="transparent" points="384.5,-57.5 384.5,-72.5 422.5,-72.5 422.5,-57.5 384.5,-57.5"/>
<text text-anchor="start" x="386.5" y="-62.5" font-family="Ubuntu" font-size="10.00">3</text>
<polygon fill="#b2df8a" stroke="transparent" points="299.5,-42.5 299.5,-57.5 384.5,-57.5 384.5,-42.5 299.5,-42.5"/>
<text text-anchor="start" x="301.5" y="-47.5" font-family="Ubuntu" font-size="10.00">OFF</text>
<polygon fill="#b2df8a" stroke="transparent" points="384.5,-42.5 384.5,-57.5 422.5,-57.5 422.5,-42.5 384.5,-42.5"/>
<text text-anchor="start" x="386.5" y="-47.5" font-family="Ubuntu" font-size="10.00">4</text>
<polygon fill="#b2df8a" stroke="transparent" points="299.5,-27.5 299.5,-42.5 384.5,-42.5 384.5,-27.5 299.5,-27.5"/>
<text text-anchor="start" x="301.5" y="-32.5" font-family="Ubuntu" font-size="10.00">ERROR</text>
<polygon fill="#b2df8a" stroke="transparent" points="384.5,-27.5 384.5,-42.5 422.5,-42.5 422.5,-27.5 384.5,-27.5"/>
<text text-anchor="start" x="386.5" y="-32.5" font-family="Ubuntu" font-size="10.00">5</text>
<polygon fill="none" stroke="black" points="298,-27 298,-134 423,-134 423,-27 298,-27"/>
</a>
</g>
</g>
<!-- Node_Ja_101 -->
<g id="node2" class="node">
<title>Node_Ja_101</title>
<g id="a_node2"><a xlink:title="keelson.SensorStatus">
<polygon fill="#fffaf0" stroke="transparent" points="8,-124 8,-171 246,-171 246,-124 8,-124"/>
<polygon fill="#e31a1c" stroke="transparent" points="9,-154.5 9,-169.5 245,-169.5 245,-154.5 9,-154.5"/>
<text text-anchor="start" x="167" y="-160.5" font-family="Ubuntu" font-weight="bold" font-size="10.00">SensorStatus</text>
<text text-anchor="start" x="15" y="-144.5" font-family="Ubuntu" font-size="10.00">1</text>
<text text-anchor="start" x="26" y="-144.5" font-family="Ubuntu" font-size="10.00">timestamp</text>
<polygon fill="#fb9a99" stroke="transparent" points="82,-139.5 82,-154.5 245,-154.5 245,-139.5 82,-139.5"/>
<text text-anchor="start" x="84" y="-145.5" font-family="Ubuntu" font-weight="bold" font-size="10.00">google.protobuf.Timestamp</text>
<text text-anchor="start" x="15" y="-129.5" font-family="Ubuntu" font-size="10.00">2</text>
<text text-anchor="start" x="26" y="-129.5" font-family="Ubuntu" font-size="10.00">mode</text>
<polygon fill="#b2df8a" stroke="transparent" points="82,-124.5 82,-139.5 245,-139.5 245,-124.5 82,-124.5"/>
<text text-anchor="start" x="167" y="-130.5" font-family="Ubuntu" text-decoration="underline" font-size="10.00">OperatingMode</text>
<polygon fill="none" stroke="black" points="8,-124 8,-171 246,-171 246,-124 8,-124"/>
</a>
</g>
</g>
<!-- Node_Ja_101&#45;&gt;Node_Ja_102 -->
<g id="edge2" class="edge">
<title>Node_Ja_101:e&#45;&gt;Node_Ja_102</title>
<g id="a_edge2"><a xlink:title="Ja_101 &#45;&#45;&gt; Ja_102">
<path fill="none" stroke="#008000" d="M246,-131.5C257.45,-131.5 269.01,-129.32 280.17,-125.85"/>
<polygon fill="#008000" stroke="#008000" points="281.54,-129.08 289.84,-122.5 279.25,-122.46 281.54,-129.08"/>
</a>
</g>
</g>
<!-- Node_Ja_100 -->
<g id="node3" class="node">
<title>Node_Ja_100</title>
<g id="a_node3"><a xlink:title="google.protobuf.Timestamp">
<polygon fill="#fffaf0" stroke="transparent" points="315.5,-160 315.5,-207 405.5,-207 405.5,-160 315.5,-160"/>
<polygon fill="#e31a1c" stroke="transparent" points="316.5,-190.5 316.5,-205.5 404.5,-205.5 404.5,-190.5 316.5,-190.5"/>
<text text-anchor="start" x="338.5" y="-196.5" font-family="Ubuntu" font-weight="bold" font-size="10.00">Timestamp</text>
<text text-anchor="start" x="322.5" y="-180.5" font-family="Ubuntu" font-size="10.00">1</text>
<text text-anchor="start" x="333.5" y="-180.5" font-family="Ubuntu" font-size="10.00">seconds</text>
<polygon fill="#a6cee3" stroke="transparent" points="375.5,-175.5 375.5,-190.5 404.5,-190.5 404.5,-175.5 375.5,-175.5"/>
<text text-anchor="start" x="377.5" y="-181.5" font-family="Ubuntu" font-style="italic" font-size="10.00">int64</text>
<text text-anchor="start" x="322.5" y="-165.5" font-family="Ubuntu" font-size="10.00">2</text>
<text text-anchor="start" x="333.5" y="-165.5" font-family="Ubuntu" font-size="10.00">nanos</text>
<polygon fill="#a6cee3" stroke="transparent" points="375.5,-160.5 375.5,-175.5 404.5,-175.5 404.5,-160.5 375.5,-160.5"/>
<text text-anchor="start" x="377.5" y="-166.5" font-family="Ubuntu" font-style="italic" font-size="10.00">int32</text>
<polygon fill="none" stroke="black" points="315.5,-160 315.5,-207 405.5,-207 405.5,-160 315.5,-160"/>
</a>
</g>
</g>
<!-- Node_Ja_101&#45;&gt;Node_Ja_100 -->
<g id="edge1" class="edge">
<title>Node_Ja_101:e&#45;&gt;Node_Ja_100:header</title>
<g id="a_edge1"><a xlink:title="Ja_101 &#45;&#45;&gt; Ja_100">
<path fill="none" stroke="#000000" d="M246,-146.5C280.81,-146.5 277.98,-188.84 305.43,-197.11"/>
<polygon fill="#000000" stroke="#000000" points="305.12,-200.6 315.5,-198.5 306.07,-193.66 305.12,-200.6"/>
</a>
</g>
</g>
</g>
</svg>
