<?xml version="1.0" encoding="UTF-8" standalone="no"?>
<!DOCTYPE svg PUBLIC "-//W3C//DTD SVG 1.1//EN"
 "http://www.w3.org/Graphics/SVG/1.1/DTD/svg11.dtd">
<!-- Generated by graphviz version 2.43.0 (0)
 -->
<!-- Title: protodot Pages: 1 -->
<svg width="404pt" height="159pt"
 viewBox="0.00 0.00 404.00 159.00" xmlns="http://www.w3.org/2000/svg" xmlns:xlink="http://www.w3.org/1999/xlink">
<g id="graph0" class="graph" transform="scale(1 1) rotate(0) translate(4 155)">
<title>protodot</title>
<g id="a_graph0"><a xlink:title="keelson">
<text text-anchor="middle" x="198" y="-7.8" font-family="Times,serif" font-size="14.00">keelson</text>
</a>
</g>
<!-- Node_Ja_101 -->
<g id="node1" class="node">
<title>Node_Ja_101</title>
<g id="a_node1"><a xlink:title="google.protobuf.Duration">
<polygon fill="#fffaf0" stroke="transparent" points="298,-27 298,-74 388,-74 388,-27 298,-27"/>
<polygon fill="#e31a1c" stroke="transparent" points="299,-57.5 299,-72.5 387,-72.5 387,-57.5 299,-57.5"/>
<text text-anchor="start" x="336" y="-63.5" font-family="Ubuntu" font-weight="bold" font-size="10.00">Duration</text>
<text text-anchor="start" x="305" y="-47.5" font-family="Ubuntu" font-size="10.00">1</text>
<text text-anchor="start" x="316" y="-47.5" font-family="Ubuntu" font-size="10.00">seconds</text>
<polygon fill="#a6cee3" stroke="transparent" points="358,-42.5 358,-57.5 387,-57.5 387,-42.5 358,-42.5"/>
<text text-anchor="start" x="360" y="-48.5" font-family="Ubuntu" font-style="italic" font-size="10.00">int64</text>
<text text-anchor="start" x="305" y="-32.5" font-family="Ubuntu" font-size="10.00">2</text>
<text text-anchor="start" x="316" y="-32.5" font-family="Ubuntu" font-size="10.00">nanos</text>
<polygon fill="#a6cee3" stroke="transparent" points="358,-27.5 358,-42.5 387,-42.5 387,-27.5 358,-27.5"/>
<text text-anchor="start" x="360" y="-33.5" font-family="Ubuntu" font-style="italic" font-size="10.00">int32</text>
<polygon fill="none" stroke="black" points="298,-27 298,-74 388,-74 388,-27 298,-27"/>
</a>
</g>
</g>
<!-- Node_Ja_100 -->
<g id="node2" class="node">
<title>Node_Ja_100</title>
<g id="a_node2"><a xlink:title="google.protobuf.Timestamp">
<polygon fill="#fffaf0" stroke="transparent" points="298,-100 298,-147 388,-147 388,-100 298,-100"/>
<polygon fill="#e31a1c" stroke="transparent" points="299,-130.5 299,-145.5 387,-145.5 387,-130.5 299,-130.5"/>
<text text-anchor="start" x="321" y="-136.5" font-family="Ubuntu" font-weight="bold" font-size="10.00">Timestamp</text>
<text text-anchor="start" x="305" y="-120.5" font-family="Ubuntu" font-size="10.00">1</text>
<text text-anchor="start" x="316" y="-120.5" font-family="Ubuntu" font-size="10.00">seconds</text>
<polygon fill="#a6cee3" stroke="transparent" points="358,-115.5 358,-130.5 387,-130.5 387,-115.5 358,-115.5"/>
<text text-anchor="start" x="360" y="-121.5" font-family="Ubuntu" font-style="italic" font-size="10.00">int64</text>
<text text-anchor="start" x="305" y="-105.5" font-family="Ubuntu" font-size="10.00">2</text>
<text text-anchor="start" x="316" y="-105.5" font-family="Ubuntu" font-size="10.00">nanos</text>
<polygon fill="#a6cee3" stroke="transparent" points="358,-100.5 358,-115.5 387,-115.5 387,-100.5 358,-100.5"/>
<text text-anchor="start" x="360" y="-106.5" font-family="Ubuntu" font-style="italic" font-size="10.00">int32</text>
<polygon fill="none" stroke="black" points="298,-100 298,-147 388,-147 388,-100 298,-100"/>
</a>
</g>
</g>
<!-- Node_Ja_113 -->
<g id="node3" class="node">
<title>Node_Ja_113</title>
<g id="a_node3"><a xlink:title="keelson.TimestampedFloatPeriod">
<polygon fill="#fffaf0" stroke="transparent" points="8,-78.5 8,-140.5 246,-140.5 246,-78.5 8,-78.5"/>
<polygon fill="#e31a1c" stroke="transparent" points="9,-124.5 9,-139.5 245,-139.5 245,-124.5 9,-124.5"/>
<text text-anchor="start" x="99" y="-130.5" font-family="Ubuntu" font-weight="bold" font-size="10.00">TimestampedFloatPeriod</text>
<text text-anchor="start" x="15" y="-114.5" font-family="Ubuntu" font-size="10.00">1</text>
<text text-anchor="start" x="26" y="-114.5" font-family="Ubuntu" font-size="10.00">timestamp</text>
<polygon fill="#fb9a99" stroke="transparent" points="82,-109.5 82,-124.5 245,-124.5 245,-109.5 82,-109.5"/>
<text text-anchor="start" x="84" y="-115.5" font-family="Ubuntu" font-weight="bold" font-size="10.00">google.protobuf.Timestamp</text>
<text text-anchor="start" x="15" y="-99.5" font-family="Ubuntu" font-size="10.00">2</text>
<text text-anchor="start" x="26" y="-99.5" font-family="Ubuntu" font-size="10.00">value</text>
<polygon fill="#a6cee3" stroke="transparent" points="82,-94.5 82,-109.5 245,-109.5 245,-94.5 82,-94.5"/>
<text text-anchor="start" x="220" y="-100.5" font-family="Ubuntu" font-style="italic" font-size="10.00">float</text>
<text text-anchor="start" x="15" y="-84.5" font-family="Ubuntu" font-size="10.00">3</text>
<text text-anchor="start" x="26" y="-84.5" font-family="Ubuntu" font-size="10.00">period</text>
<polygon fill="#fb9a99" stroke="transparent" points="82,-79.5 82,-94.5 245,-94.5 245,-79.5 82,-79.5"/>
<text text-anchor="start" x="98" y="-85.5" font-family="Ubuntu" font-weight="bold" font-size="10.00">google.protobuf.Duration</text>
<polygon fill="none" stroke="black" points="8,-78.5 8,-140.5 246,-140.5 246,-78.5 8,-78.5"/>
</a>
</g>
</g>
<!-- Node_Ja_113&#45;&gt;Node_Ja_101 -->
<g id="edge1" class="edge">
<title>Node_Ja_113:e&#45;&gt;Node_Ja_101:header</title>
<g id="a_edge1"><a xlink:title="Ja_113 &#45;&#45;&gt; Ja_101">
<path fill="none" stroke="#000000" d="M246,-86.5C267.03,-86.5 271.85,-71.55 287.81,-66.88"/>
<polygon fill="#000000" stroke="#000000" points="288.56,-70.31 298,-65.5 287.62,-63.37 288.56,-70.31"/>
</a>
</g>
</g>
<!-- Node_Ja_113&#45;&gt;Node_Ja_100 -->
<g id="edge2" class="edge">
<title>Node_Ja_113:e&#45;&gt;Node_Ja_100:header</title>
<g id="a_edge2"><a xlink:title="Ja_113 &#45;&#45;&gt; Ja_100">
<path fill="none" stroke="#000000" d="M246,-117.5C267.03,-117.5 271.85,-132.45 287.81,-137.12"/>
<polygon fill="#000000" stroke="#000000" points="287.62,-140.63 298,-138.5 288.56,-133.69 287.62,-140.63"/>
</a>
</g>
</g>
</g>
</svg>
