<?xml version="1.0" encoding="UTF-8" standalone="no"?>
<!DOCTYPE svg PUBLIC "-//W3C//DTD SVG 1.1//EN"
 "http://www.w3.org/Graphics/SVG/1.1/DTD/svg11.dtd">
<!-- Generated by graphviz version 2.43.0 (0)
 -->
<!-- Title: protodot Pages: 1 -->
<svg width="1141pt" height="314pt"
 viewBox="0.00 0.00 1141.00 313.50" xmlns="http://www.w3.org/2000/svg" xmlns:xlink="http://www.w3.org/1999/xlink">
<g id="graph0" class="graph" transform="scale(1 1) rotate(0) translate(4 309.5)">
<title>protodot</title>
<g id="a_graph0"><a xlink:title="keelson">
<text text-anchor="middle" x="566.5" y="-7.8" font-family="Times,serif" font-size="14.00">keelson</text>
</a>
</g>
<!-- Node_Ja_104 -->
<g id="node1" class="node">
<title>Node_Ja_104</title>
<g id="a_node1"><a xlink:title="keelson.SourceHealth">
<polygon fill="#fffaf0" stroke="transparent" points="315,-128 315,-190 478,-190 478,-128 315,-128"/>
<polygon fill="#e31a1c" stroke="transparent" points="316.5,-174 316.5,-189 477.5,-189 477.5,-174 316.5,-174"/>
<text text-anchor="start" x="399.5" y="-180" font-family="Ubuntu" font-weight="bold" font-size="10.00">SourceHealth</text>
<text text-anchor="start" x="339.5" y="-164" font-family="Ubuntu" font-size="10.00">1</text>
<text text-anchor="start" x="350.5" y="-164" font-family="Ubuntu" font-size="10.00">name</text>
<polygon fill="#a6cee3" stroke="transparent" points="393.5,-159 393.5,-174 477.5,-174 477.5,-159 393.5,-159"/>
<text text-anchor="start" x="447.5" y="-165" font-family="Ubuntu" font-style="italic" font-size="10.00">string</text>
<text text-anchor="start" x="339.5" y="-149" font-family="Ubuntu" font-size="10.00">2</text>
<text text-anchor="start" x="350.5" y="-149" font-family="Ubuntu" font-size="10.00">level</text>
<polygon fill="#b2df8a" stroke="transparent" points="393.5,-144 393.5,-159 477.5,-159 477.5,-144 393.5,-144"/>
<text text-anchor="start" x="416.5" y="-150" font-family="Ubuntu" text-decoration="underline" font-size="10.00">HealthLevel</text>
<text text-anchor="start" x="318.5" y="-134" font-family="Ubuntu" font-size="10.00">[...]</text>
<text text-anchor="start" x="339.5" y="-134" font-family="Ubuntu" font-size="10.00">3</text>
<text text-anchor="start" x="350.5" y="-134" font-family="Ubuntu" font-size="10.00">subjects</text>
<polygon fill="#fb9a99" stroke="transparent" points="393.5,-129 393.5,-144 477.5,-144 477.5,-129 393.5,-129"/>
<text text-anchor="start" x="395.5" y="-135" font-family="Ubuntu" font-weight="bold" font-size="10.00">SubjectHealth</text>
<polygon fill="none" stroke="black" points="315,-128 315,-190 478,-190 478,-128 315,-128"/>
</a>
</g>
</g>
<!-- Node_Ja_103 -->
<g id="node2" class="node">
<title>Node_Ja_103</title>
<g id="a_node2"><a xlink:title="keelson.SubjectHealth">
<polygon fill="#fffaf0" stroke="transparent" points="530,-67.5 530,-144.5 792,-144.5 792,-67.5 530,-67.5"/>
<polygon fill="#e31a1c" stroke="transparent" points="531,-128 531,-143 791,-143 791,-128 531,-128"/>
<text text-anchor="start" x="709" y="-134" font-family="Ubuntu" font-weight="bold" font-size="10.00">SubjectHealth</text>
<text text-anchor="start" x="554" y="-118" font-family="Ubuntu" font-size="10.00">1</text>
<text text-anchor="start" x="565" y="-118" font-family="Ubuntu" font-size="10.00">name</text>
<polygon fill="#a6cee3" stroke="transparent" points="717,-113 717,-128 791,-128 791,-113 717,-113"/>
<text text-anchor="start" x="761" y="-119" font-family="Ubuntu" font-style="italic" font-size="10.00">string</text>
<text text-anchor="start" x="554" y="-103" font-family="Ubuntu" font-size="10.00">2</text>
<text text-anchor="start" x="565" y="-103" font-family="Ubuntu" font-size="10.00">level</text>
<polygon fill="#b2df8a" stroke="transparent" points="717,-98 717,-113 791,-113 791,-98 717,-98"/>
<text text-anchor="start" x="730" y="-104" font-family="Ubuntu" text-decoration="underline" font-size="10.00">HealthLevel</text>
<text text-anchor="start" x="554" y="-88" font-family="Ubuntu" font-size="10.00">3</text>
<text text-anchor="start" x="565" y="-88" font-family="Ubuntu" font-size="10.00">measured_publication_rate_hz</text>
<polygon fill="#a6cee3" stroke="transparent" points="717,-83 717,-98 791,-98 791,-83 717,-83"/>
<text text-anchor="start" x="766" y="-89" font-family="Ubuntu" font-style="italic" font-size="10.00">float</text>
<text text-anchor="start" x="533" y="-73" font-family="Ubuntu" font-size="10.00">[...]</text>
<text text-anchor="start" x="554" y="-73" font-family="Ubuntu" font-size="10.00">4</text>
<text text-anchor="start" x="565" y="-73" font-family="Ubuntu" font-size="10.00">checks</text>
<polygon fill="#fb9a99" stroke="transparent" points="717,-68 717,-83 791,-83 791,-68 717,-68"/>
<text text-anchor="start" x="719" y="-74" font-family="Ubuntu" font-weight="bold" font-size="10.00">CheckResult</text>
<polygon fill="none" stroke="black" points="530,-67.5 530,-144.5 792,-144.5 792,-67.5 530,-67.5"/>
</a>
</g>
</g>
<!-- Node_Ja_104&#45;&gt;Node_Ja_103 -->
<g id="edge3" class="edge">
<title>Node_Ja_104:e&#45;&gt;Node_Ja_103:header</title>
<g id="a_edge3"><a xlink:title="Ja_104 &#45;&#45;&gt; Ja_103">
<path fill="none" stroke="#000000" d="M478.5,-136C497.63,-136 504.77,-136 519.97,-136"/>
<polygon fill="#000000" stroke="#000000" points="520,-139.5 530,-136 520,-132.5 520,-139.5"/>
</a>
</g>
</g>
<!-- Node_Ja_101 -->
<g id="node6" class="node">
<title>Node_Ja_101</title>
<g id="a_node6"><a xlink:title="HealthLevel">
<polygon fill="#b2df8a" stroke="transparent" points="1008,-112 1008,-204 1125,-204 1125,-112 1008,-112"/>
<polygon fill="#33a02c" stroke="transparent" points="1009.5,-188 1009.5,-203 1124.5,-203 1124.5,-188 1009.5,-188"/>
<text text-anchor="start" x="1024.5" y="-194" font-family="Ubuntu" font-size="10.00">enum </text>
<text text-anchor="start" x="1055.5" y="-194" font-family="Ubuntu" font-weight="bold" font-size="10.00">HealthLevel</text>
<polygon fill="#b2df8a" stroke="transparent" points="1009.5,-173 1009.5,-188 1113.5,-188 1113.5,-173 1009.5,-173"/>
<text text-anchor="start" x="1011.5" y="-178" font-family="Ubuntu" font-size="10.00">HEALTH_UNKNOWN</text>
<polygon fill="#b2df8a" stroke="transparent" points="1113.5,-173 1113.5,-188 1124.5,-188 1124.5,-173 1113.5,-173"/>
<text text-anchor="start" x="1115.5" y="-178" font-family="Ubuntu" font-size="10.00">0</text>
<polygon fill="#b2df8a" stroke="transparent" points="1009.5,-158 1009.5,-173 1113.5,-173 1113.5,-158 1009.5,-158"/>
<text text-anchor="start" x="1011.5" y="-163" font-family="Ubuntu" font-size="10.00">HEALTH_INACTIVE</text>
<polygon fill="#b2df8a" stroke="transparent" points="1113.5,-158 1113.5,-173 1124.5,-173 1124.5,-158 1113.5,-158"/>
<text text-anchor="start" x="1115.5" y="-163" font-family="Ubuntu" font-size="10.00">1</text>
<polygon fill="#b2df8a" stroke="transparent" points="1009.5,-143 1009.5,-158 1113.5,-158 1113.5,-143 1009.5,-143"/>
<text text-anchor="start" x="1011.5" y="-148" font-family="Ubuntu" font-size="10.00">HEALTH_CRITICAL</text>
<polygon fill="#b2df8a" stroke="transparent" points="1113.5,-143 1113.5,-158 1124.5,-158 1124.5,-143 1113.5,-143"/>
<text text-anchor="start" x="1115.5" y="-148" font-family="Ubuntu" font-size="10.00">2</text>
<polygon fill="#b2df8a" stroke="transparent" points="1009.5,-128 1009.5,-143 1113.5,-143 1113.5,-128 1009.5,-128"/>
<text text-anchor="start" x="1011.5" y="-133" font-family="Ubuntu" font-size="10.00">HEALTH_DEGRADED</text>
<polygon fill="#b2df8a" stroke="transparent" points="1113.5,-128 1113.5,-143 1124.5,-143 1124.5,-128 1113.5,-128"/>
<text text-anchor="start" x="1115.5" y="-133" font-family="Ubuntu" font-size="10.00">3</text>
<polygon fill="#b2df8a" stroke="transparent" points="1009.5,-113 1009.5,-128 1113.5,-128 1113.5,-113 1009.5,-113"/>
<text text-anchor="start" x="1011.5" y="-118" font-family="Ubuntu" font-size="10.00">HEALTH_NOMINAL</text>
<polygon fill="#b2df8a" stroke="transparent" points="1113.5,-113 1113.5,-128 1124.5,-128 1124.5,-113 1113.5,-113"/>
<text text-anchor="start" x="1115.5" y="-118" font-family="Ubuntu" font-size="10.00">4</text>
<polygon fill="none" stroke="black" points="1008,-112 1008,-204 1125,-204 1125,-112 1008,-112"/>
</a>
</g>
</g>
<!-- Node_Ja_104&#45;&gt;Node_Ja_101 -->
<g id="edge2" class="edge">
<title>Node_Ja_104:e&#45;&gt;Node_Ja_101</title>
<g id="a_edge2"><a xlink:title="Ja_104 &#45;&#45;&gt; Ja_101">
<path fill="none" stroke="#008000" d="M478.5,-151C498.02,-151 502.53,-155.65 522,-157 688.48,-168.58 884.34,-164.64 989.52,-161.09"/>
<polygon fill="#008000" stroke="#008000" points="989.85,-164.58 999.72,-160.74 989.61,-157.59 989.85,-164.58"/>
</a>
</g>
</g>
<!-- Node_Ja_102 -->
<g id="node3" class="node">
<title>Node_Ja_102</title>
<g id="a_node3"><a xlink:title="keelson.CheckResult">
<polygon fill="#fffaf0" stroke="transparent" points="844,-27 844,-89 956,-89 956,-27 844,-27"/>
<polygon fill="#e31a1c" stroke="transparent" points="845,-73 845,-88 955,-88 955,-73 845,-73"/>
<text text-anchor="start" x="883" y="-79" font-family="Ubuntu" font-weight="bold" font-size="10.00">CheckResult</text>
<text text-anchor="start" x="851" y="-63" font-family="Ubuntu" font-size="10.00">1</text>
<text text-anchor="start" x="862" y="-63" font-family="Ubuntu" font-size="10.00">name</text>
<polygon fill="#a6cee3" stroke="transparent" points="892,-58 892,-73 955,-73 955,-58 892,-58"/>
<text text-anchor="start" x="925" y="-64" font-family="Ubuntu" font-style="italic" font-size="10.00">string</text>
<text text-anchor="start" x="851" y="-48" font-family="Ubuntu" font-size="10.00">2</text>
<text text-anchor="start" x="862" y="-48" font-family="Ubuntu" font-size="10.00">level</text>
<polygon fill="#b2df8a" stroke="transparent" points="892,-43 892,-58 955,-58 955,-43 892,-43"/>
<text text-anchor="start" x="894" y="-49" font-family="Ubuntu" text-decoration="underline" font-size="10.00">HealthLevel</text>
<text text-anchor="start" x="851" y="-33" font-family="Ubuntu" font-size="10.00">3</text>
<text text-anchor="start" x="862" y="-33" font-family="Ubuntu" font-size="10.00">detail</text>
<polygon fill="#a6cee3" stroke="transparent" points="892,-28 892,-43 955,-43 955,-28 892,-28"/>
<text text-anchor="start" x="925" y="-34" font-family="Ubuntu" font-style="italic" font-size="10.00">string</text>
<polygon fill="none" stroke="black" points="844,-27 844,-89 956,-89 956,-27 844,-27"/>
</a>
</g>
</g>
<!-- Node_Ja_103&#45;&gt;Node_Ja_102 -->
<g id="edge5" class="edge">
<title>Node_Ja_103:e&#45;&gt;Node_Ja_102:header</title>
<g id="a_edge5"><a xlink:title="Ja_103 &#45;&#45;&gt; Ja_102">
<path fill="none" stroke="#000000" d="M792,-75C811.45,-75 818.46,-79.19 833.83,-80.57"/>
<polygon fill="#000000" stroke="#000000" points="833.86,-84.07 844,-81 834.16,-77.08 833.86,-84.07"/>
</a>
</g>
</g>
<!-- Node_Ja_103&#45;&gt;Node_Ja_101 -->
<g id="edge4" class="edge">
<title>Node_Ja_103:e&#45;&gt;Node_Ja_101</title>
<g id="a_edge4"><a xlink:title="Ja_103 &#45;&#45;&gt; Ja_101">
<path fill="none" stroke="#008000" d="M792,-105C859.84,-105 935.45,-120.91 989.95,-135.3"/>
<polygon fill="#008000" stroke="#008000" points="989.3,-138.75 999.87,-137.96 991.12,-131.99 989.3,-138.75"/>
</a>
</g>
</g>
<!-- Node_Ja_102&#45;&gt;Node_Ja_101 -->
<g id="edge6" class="edge">
<title>Node_Ja_102:e&#45;&gt;Node_Ja_101</title>
<g id="a_edge6"><a xlink:title="Ja_102 &#45;&#45;&gt; Ja_101">
<path fill="none" stroke="#008000" d="M956,-50C988.29,-50 1014.5,-74.09 1033.18,-99.52"/>
<polygon fill="#008000" stroke="#008000" points="1030.37,-101.61 1038.97,-107.79 1036.1,-97.6 1030.37,-101.61"/>
</a>
</g>
</g>
<!-- Node_Ja_105 -->
<g id="node4" class="node">
<title>Node_Ja_105</title>
<g id="a_node4"><a xlink:title="keelson.EntityHealth">
<polygon fill="#fffaf0" stroke="transparent" points="8,-184.5 8,-261.5 263,-261.5 263,-184.5 8,-184.5"/>
<polygon fill="#e31a1c" stroke="transparent" points="9.5,-245 9.5,-260 262.5,-260 262.5,-245 9.5,-245"/>
<text text-anchor="start" x="190.5" y="-251" font-family="Ubuntu" font-weight="bold" font-size="10.00">EntityHealth</text>
<text text-anchor="start" x="32.5" y="-235" font-family="Ubuntu" font-size="10.00">1</text>
<text text-anchor="start" x="43.5" y="-235" font-family="Ubuntu" font-size="10.00">timestamp</text>
<polygon fill="#fb9a99" stroke="transparent" points="99.5,-230 99.5,-245 262.5,-245 262.5,-230 99.5,-230"/>
<text text-anchor="start" x="101.5" y="-236" font-family="Ubuntu" font-weight="bold" font-size="10.00">google.protobuf.Timestamp</text>
<text text-anchor="start" x="32.5" y="-220" font-family="Ubuntu" font-size="10.00">2</text>
<text text-anchor="start" x="43.5" y="-220" font-family="Ubuntu" font-size="10.00">level</text>
<polygon fill="#b2df8a" stroke="transparent" points="99.5,-215 99.5,-230 262.5,-230 262.5,-215 99.5,-215"/>
<text text-anchor="start" x="201.5" y="-221" font-family="Ubuntu" text-decoration="underline" font-size="10.00">HealthLevel</text>
<text text-anchor="start" x="32.5" y="-205" font-family="Ubuntu" font-size="10.00">3</text>
<text text-anchor="start" x="43.5" y="-205" font-family="Ubuntu" font-size="10.00">rate_hz</text>
<polygon fill="#a6cee3" stroke="transparent" points="99.5,-200 99.5,-215 262.5,-215 262.5,-200 99.5,-200"/>
<text text-anchor="start" x="237.5" y="-206" font-family="Ubuntu" font-style="italic" font-size="10.00">float</text>
<text text-anchor="start" x="11.5" y="-190" font-family="Ubuntu" font-size="10.00">[...]</text>
<text text-anchor="start" x="32.5" y="-190" font-family="Ubuntu" font-size="10.00">4</text>
<text text-anchor="start" x="43.5" y="-190" font-family="Ubuntu" font-size="10.00">sources</text>
<polygon fill="#fb9a99" stroke="transparent" points="99.5,-185 99.5,-200 262.5,-200 262.5,-185 99.5,-185"/>
<text text-anchor="start" x="184.5" y="-191" font-family="Ubuntu" font-weight="bold" font-size="10.00">SourceHealth</text>
<polygon fill="none" stroke="black" points="8,-184.5 8,-261.5 263,-261.5 263,-184.5 8,-184.5"/>
</a>
</g>
</g>
<!-- Node_Ja_105&#45;&gt;Node_Ja_104 -->
<g id="edge1" class="edge">
<title>Node_Ja_105:e&#45;&gt;Node_Ja_104:header</title>
<g id="a_edge1"><a xlink:title="Ja_105 &#45;&#45;&gt; Ja_104">
<path fill="none" stroke="#000000" d="M263.5,-192C283.17,-192 289.85,-185.01 305.25,-182.72"/>
<polygon fill="#000000" stroke="#000000" points="305.77,-186.19 315.5,-182 305.28,-179.21 305.77,-186.19"/>
</a>
</g>
</g>
<!-- Node_Ja_100 -->
<g id="node5" class="node">
<title>Node_Ja_100</title>
<g id="a_node5"><a xlink:title="google.protobuf.Timestamp">
<polygon fill="#fffaf0" stroke="transparent" points="351.5,-254.5 351.5,-301.5 441.5,-301.5 441.5,-254.5 351.5,-254.5"/>
<polygon fill="#e31a1c" stroke="transparent" points="352.5,-285 352.5,-300 440.5,-300 440.5,-285 352.5,-285"/>
<text text-anchor="start" x="374.5" y="-291" font-family="Ubuntu" font-weight="bold" font-size="10.00">Timestamp</text>
<text text-anchor="start" x="358.5" y="-275" font-family="Ubuntu" font-size="10.00">1</text>
<text text-anchor="start" x="369.5" y="-275" font-family="Ubuntu" font-size="10.00">seconds</text>
<polygon fill="#a6cee3" stroke="transparent" points="411.5,-270 411.5,-285 440.5,-285 440.5,-270 411.5,-270"/>
<text text-anchor="start" x="413.5" y="-276" font-family="Ubuntu" font-style="italic" font-size="10.00">int64</text>
<text text-anchor="start" x="358.5" y="-260" font-family="Ubuntu" font-size="10.00">2</text>
<text text-anchor="start" x="369.5" y="-260" font-family="Ubuntu" font-size="10.00">nanos</text>
<polygon fill="#a6cee3" stroke="transparent" points="411.5,-255 411.5,-270 440.5,-270 440.5,-255 411.5,-255"/>
<text text-anchor="start" x="413.5" y="-261" font-family="Ubuntu" font-style="italic" font-size="10.00">int32</text>
<polygon fill="none" stroke="black" points="351.5,-254.5 351.5,-301.5 441.5,-301.5 441.5,-254.5 351.5,-254.5"/>
</a>
</g>
</g>
<!-- Node_Ja_105&#45;&gt;Node_Ja_100 -->
<g id="edge7" class="edge">
<title>Node_Ja_105:e&#45;&gt;Node_Ja_100:header</title>
<g id="a_edge7"><a xlink:title="Ja_105 &#45;&#45;&gt; Ja_100">
<path fill="none" stroke="#000000" d="M263.5,-238C305.84,-238 305.74,-284.35 341.11,-291.95"/>
<polygon fill="#000000" stroke="#000000" points="341.2,-295.48 351.5,-293 341.9,-288.51 341.2,-295.48"/>
</a>
</g>
</g>
<!-- Node_Ja_105&#45;&gt;Node_Ja_101 -->
<g id="edge8" class="edge">
<title>Node_Ja_105:e&#45;&gt;Node_Ja_101</title>
<g id="a_edge8"><a xlink:title="Ja_105 &#45;&#45;&gt; Ja_101">
<path fill="none" stroke="#008000" d="M263.5,-222C575.45,-222 654.63,-218.02 964,-178 972.39,-176.92 981.12,-175.55 989.79,-174.05"/>
<polygon fill="#008000" stroke="#008000" points="990.69,-177.45 999.91,-172.24 989.45,-170.56 990.69,-177.45"/>
</a>
</g>
</g>
</g>
</svg>
