<?xml version="1.0" encoding="UTF-8" standalone="no"?>
<!DOCTYPE svg PUBLIC "-//W3C//DTD SVG 1.1//EN"
 "http://www.w3.org/Graphics/SVG/1.1/DTD/svg11.dtd">
<!-- Generated by graphviz version 2.43.0 (0)
 -->
<!-- Title: protodot Pages: 1 -->
<svg width="519pt" height="278pt"
 viewBox="0.00 0.00 519.00 277.50" xmlns="http://www.w3.org/2000/svg" xmlns:xlink="http://www.w3.org/1999/xlink">
<g id="graph0" class="graph" transform="scale(1 1) rotate(0) translate(4 273.5)">
<title>protodot</title>
<g id="a_graph0"><a xlink:title="keelson">
<text text-anchor="middle" x="255.5" y="-7.8" font-family="Times,serif" font-size="14.00">keelson</text>
</a>
</g>
<!-- Node_Ja_100 -->
<g id="node1" class="node">
<title>Node_Ja_100</title>
<g id="a_node1"><a xlink:title="google.protobuf.Timestamp">
<polygon fill="#fffaf0" stroke="transparent" points="413,-218.5 413,-265.5 503,-265.5 503,-218.5 413,-218.5"/>
<polygon fill="#e31a1c" stroke="transparent" points="414,-249 414,-264 502,-264 502,-249 414,-249"/>
<text text-anchor="start" x="436" y="-255" font-family="Ubuntu" font-weight="bold" font-size="10.00">Timestamp</text>
<text text-anchor="start" x="420" y="-239" font-family="Ubuntu" font-size="10.00">1</text>
<text text-anchor="start" x="431" y="-239" font-family="Ubuntu" font-size="10.00">seconds</text>
<polygon fill="#a6cee3" stroke="transparent" points="473,-234 473,-249 502,-249 502,-234 473,-234"/>
<text text-anchor="start" x="475" y="-240" font-family="Ubuntu" font-style="italic" font-size="10.00">int64</text>
<text text-anchor="start" x="420" y="-224" font-family="Ubuntu" font-size="10.00">2</text>
<text text-anchor="start" x="431" y="-224" font-family="Ubuntu" font-size="10.00">nanos</text>
<polygon fill="#a6cee3" stroke="transparent" points="473,-219 473,-234 502,-234 502,-219 473,-219"/>
<text text-anchor="start" x="475" y="-225" font-family="Ubuntu" font-style="italic" font-size="10.00">int32</text>
<polygon fill="none" stroke="black" points="413,-218.5 413,-265.5 503,-265.5 503,-218.5 413,-218.5"/>
</a>
</g>
</g>
<!-- Node_Ja_102 -->
<g id="node2" class="node">
<title>Node_Ja_102</title>
<g id="a_node2"><a xlink:title="foxglove.Quaternion">
<polygon fill="#fffaf0" stroke="transparent" points="423.5,-115.5 423.5,-192.5 492.5,-192.5 492.5,-115.5 423.5,-115.5"/>
<polygon fill="#e31a1c" stroke="transparent" points="425,-176 425,-191 492,-191 492,-176 425,-176"/>
<text text-anchor="start" x="427" y="-182" font-family="Ubuntu" font-weight="bold" font-size="10.00">Quaternion</text>
<text text-anchor="start" x="431" y="-166" font-family="Ubuntu" font-size="10.00">1</text>
<text text-anchor="start" x="442" y="-166" font-family="Ubuntu" font-size="10.00">x</text>
<polygon fill="#a6cee3" stroke="transparent" points="453,-161 453,-176 492,-176 492,-161 453,-161"/>
<text text-anchor="start" x="456" y="-167" font-family="Ubuntu" font-style="italic" font-size="10.00">double</text>
<text text-anchor="start" x="431" y="-151" font-family="Ubuntu" font-size="10.00">2</text>
<text text-anchor="start" x="442" y="-151" font-family="Ubuntu" font-size="10.00">y</text>
<polygon fill="#a6cee3" stroke="transparent" points="453,-146 453,-161 492,-161 492,-146 453,-146"/>
<text text-anchor="start" x="456" y="-152" font-family="Ubuntu" font-style="italic" font-size="10.00">double</text>
<text text-anchor="start" x="431" y="-136" font-family="Ubuntu" font-size="10.00">3</text>
<text text-anchor="start" x="442" y="-136" font-family="Ubuntu" font-size="10.00">z</text>
<polygon fill="#a6cee3" stroke="transparent" points="453,-131 453,-146 492,-146 492,-131 453,-131"/>
<text text-anchor="start" x="456" y="-137" font-family="Ubuntu" font-style="italic" font-size="10.00">double</text>
<text text-anchor="start" x="431" y="-121" font-family="Ubuntu" font-size="10.00">4</text>
<text text-anchor="start" x="442" y="-121" font-family="Ubuntu" font-size="10.00">w</text>
<polygon fill="#a6cee3" stroke="transparent" points="453,-116 453,-131 492,-131 492,-116 453,-116"/>
<text text-anchor="start" x="456" y="-122" font-family="Ubuntu" font-style="italic" font-size="10.00">double</text>
<polygon fill="none" stroke="black" points="423.5,-115.5 423.5,-192.5 492.5,-192.5 492.5,-115.5 423.5,-115.5"/>
</a>
</g>
</g>
<!-- Node_Ja_101 -->
<g id="node3" class="node">
<title>Node_Ja_101</title>
<g id="a_node3"><a xlink:title="foxglove.Vector3">
<polygon fill="#fffaf0" stroke="transparent" points="425,-27 425,-89 491,-89 491,-27 425,-27"/>
<polygon fill="#e31a1c" stroke="transparent" points="426,-73 426,-88 490,-88 490,-73 426,-73"/>
<text text-anchor="start" x="444" y="-79" font-family="Ubuntu" font-weight="bold" font-size="10.00">Vector3</text>
<text text-anchor="start" x="432" y="-63" font-family="Ubuntu" font-size="10.00">1</text>
<text text-anchor="start" x="443" y="-63" font-family="Ubuntu" font-size="10.00">x</text>
<polygon fill="#a6cee3" stroke="transparent" points="452,-58 452,-73 490,-73 490,-58 452,-58"/>
<text text-anchor="start" x="454" y="-64" font-family="Ubuntu" font-style="italic" font-size="10.00">double</text>
<text text-anchor="start" x="432" y="-48" font-family="Ubuntu" font-size="10.00">2</text>
<text text-anchor="start" x="443" y="-48" font-family="Ubuntu" font-size="10.00">y</text>
<polygon fill="#a6cee3" stroke="transparent" points="452,-43 452,-58 490,-58 490,-43 452,-43"/>
<text text-anchor="start" x="454" y="-49" font-family="Ubuntu" font-style="italic" font-size="10.00">double</text>
<text text-anchor="start" x="432" y="-33" font-family="Ubuntu" font-size="10.00">3</text>
<text text-anchor="start" x="443" y="-33" font-family="Ubuntu" font-size="10.00">z</text>
<polygon fill="#a6cee3" stroke="transparent" points="452,-28 452,-43 490,-43 490,-28 452,-28"/>
<text text-anchor="start" x="454" y="-34" font-family="Ubuntu" font-style="italic" font-size="10.00">double</text>
<polygon fill="none" stroke="black" points="425,-27 425,-89 491,-89 491,-27 425,-27"/>
</a>
</g>
</g>
<!-- Node_Ja_103 -->
<g id="node4" class="node">
<title>Node_Ja_103</title>
<g id="a_node4"><a xlink:title="keelson.ImuReading">
<polygon fill="#fffaf0" stroke="transparent" points="8,-79.5 8,-216.5 361,-216.5 361,-79.5 8,-79.5"/>
<polygon fill="#e31a1c" stroke="transparent" points="9.5,-200 9.5,-215 360.5,-215 360.5,-200 9.5,-200"/>
<text text-anchor="start" x="290.5" y="-206" font-family="Ubuntu" font-weight="bold" font-size="10.00">ImuReading</text>
<text text-anchor="start" x="32.5" y="-190" font-family="Ubuntu" font-size="10.00">1</text>
<text text-anchor="start" x="43.5" y="-190" font-family="Ubuntu" font-size="10.00">timestamp</text>
<polygon fill="#fb9a99" stroke="transparent" points="197.5,-185 197.5,-200 360.5,-200 360.5,-185 197.5,-185"/>
<text text-anchor="start" x="199.5" y="-191" font-family="Ubuntu" font-weight="bold" font-size="10.00">google.protobuf.Timestamp</text>
<text text-anchor="start" x="32.5" y="-175" font-family="Ubuntu" font-size="10.00">2</text>
<text text-anchor="start" x="43.5" y="-175" font-family="Ubuntu" font-size="10.00">frame_id</text>
<polygon fill="#a6cee3" stroke="transparent" points="197.5,-170 197.5,-185 360.5,-185 360.5,-170 197.5,-170"/>
<text text-anchor="start" x="330.5" y="-176" font-family="Ubuntu" font-style="italic" font-size="10.00">string</text>
<text text-anchor="start" x="32.5" y="-160" font-family="Ubuntu" font-size="10.00">3</text>
<text text-anchor="start" x="43.5" y="-160" font-family="Ubuntu" font-size="10.00">orientation</text>
<polygon fill="#fb9a99" stroke="transparent" points="197.5,-155 197.5,-170 360.5,-170 360.5,-155 197.5,-155"/>
<text text-anchor="start" x="242.5" y="-161" font-family="Ubuntu" font-weight="bold" font-size="10.00">foxglove.Quaternion</text>
<text text-anchor="start" x="11.5" y="-145" font-family="Ubuntu" font-size="10.00">[...]</text>
<text text-anchor="start" x="32.5" y="-145" font-family="Ubuntu" font-size="10.00">4</text>
<text text-anchor="start" x="43.5" y="-145" font-family="Ubuntu" font-size="10.00">orientation_covariance</text>
<polygon fill="#a6cee3" stroke="transparent" points="197.5,-140 197.5,-155 360.5,-155 360.5,-140 197.5,-140"/>
<text text-anchor="start" x="324.5" y="-146" font-family="Ubuntu" font-style="italic" font-size="10.00">double</text>
<text text-anchor="start" x="32.5" y="-130" font-family="Ubuntu" font-size="10.00">5</text>
<text text-anchor="start" x="43.5" y="-130" font-family="Ubuntu" font-size="10.00">angular_velocity</text>
<polygon fill="#fb9a99" stroke="transparent" points="197.5,-125 197.5,-140 360.5,-140 360.5,-125 197.5,-125"/>
<text text-anchor="start" x="261.5" y="-131" font-family="Ubuntu" font-weight="bold" font-size="10.00">foxglove.Vector3</text>
<text text-anchor="start" x="11.5" y="-115" font-family="Ubuntu" font-size="10.00">[...]</text>
<text text-anchor="start" x="32.5" y="-115" font-family="Ubuntu" font-size="10.00">6</text>
<text text-anchor="start" x="43.5" y="-115" font-family="Ubuntu" font-size="10.00">angular_velocity_covariance</text>
<polygon fill="#a6cee3" stroke="transparent" points="197.5,-110 197.5,-125 360.5,-125 360.5,-110 197.5,-110"/>
<text text-anchor="start" x="324.5" y="-116" font-family="Ubuntu" font-style="italic" font-size="10.00">double</text>
<text text-anchor="start" x="32.5" y="-100" font-family="Ubuntu" font-size="10.00">7</text>
<text text-anchor="start" x="43.5" y="-100" font-family="Ubuntu" font-size="10.00">linear_acceleration</text>
<polygon fill="#fb9a99" stroke="transparent" points="197.5,-95 197.5,-110 360.5,-110 360.5,-95 197.5,-95"/>
<text text-anchor="start" x="261.5" y="-101" font-family="Ubuntu" font-weight="bold" font-size="10.00">foxglove.Vector3</text>
<text text-anchor="start" x="11.5" y="-85" font-family="Ubuntu" font-size="10.00">[...]</text>
<text text-anchor="start" x="32.5" y="-85" font-family="Ubuntu" font-size="10.00">8</text>
<text text-anchor="start" x="43.5" y="-85" font-family="Ubuntu" font-size="10.00">linear_acceleration_covariance</text>
<polygon fill="#a6cee3" stroke="transparent" points="197.5,-80 197.5,-95 360.5,-95 360.5,-80 197.5,-80"/>
<text text-anchor="start" x="324.5" y="-86" font-family="Ubuntu" font-style="italic" font-size="10.00">double</text>
<polygon fill="none" stroke="black" points="8,-79.5 8,-216.5 361,-216.5 361,-79.5 8,-79.5"/>
</a>
</g>
</g>
<!-- Node_Ja_103&#45;&gt;Node_Ja_100 -->
<g id="edge1" class="edge">
<title>Node_Ja_103:e&#45;&gt;Node_Ja_100:header</title>
<g id="a_edge1"><a xlink:title="Ja_103 &#45;&#45;&gt; Ja_100">
<path fill="none" stroke="#000000" d="M361.5,-193C394.02,-193 380.5,-243.77 402.95,-254.87"/>
<polygon fill="#000000" stroke="#000000" points="402.49,-258.35 413,-257 403.94,-251.5 402.49,-258.35"/>
</a>
</g>
</g>
<!-- Node_Ja_103&#45;&gt;Node_Ja_102 -->
<g id="edge2" class="edge">
<title>Node_Ja_103:e&#45;&gt;Node_Ja_102:header</title>
<g id="a_edge2"><a xlink:title="Ja_103 &#45;&#45;&gt; Ja_102">
<path fill="none" stroke="#000000" d="M361.5,-163C387.03,-163 393.27,-178.93 413.83,-183.04"/>
<polygon fill="#000000" stroke="#000000" points="413.72,-186.55 424,-184 414.37,-179.58 413.72,-186.55"/>
</a>
</g>
</g>
<!-- Node_Ja_103&#45;&gt;Node_Ja_101 -->
<g id="edge3" class="edge">
<title>Node_Ja_103:e&#45;&gt;Node_Ja_101:header</title>
<g id="a_edge3"><a xlink:title="Ja_103 &#45;&#45;&gt; Ja_101">
<path fill="none" stroke="#000000" d="M361.5,-132C393.88,-132 390.18,-91.19 414.95,-82.58"/>
<polygon fill="#000000" stroke="#000000" points="415.67,-86.01 425,-81 414.58,-79.1 415.67,-86.01"/>
</a>
</g>
</g>
<!-- Node_Ja_103&#45;&gt;Node_Ja_101 -->
<g id="edge4" class="edge">
<title>Node_Ja_103:e&#45;&gt;Node_Ja_101:header</title>
<g id="a_edge4"><a xlink:title="Ja_103 &#45;&#45;&gt; Ja_101">
<path fill="none" stroke="#000000" d="M361.5,-102C387.51,-102 393.86,-85.92 414.96,-81.9"/>
<polygon fill="#000000" stroke="#000000" points="415.35,-85.38 425,-81 414.73,-78.41 415.35,-85.38"/>
</a>
</g>
</g>
</g>
</svg>
