<?xml version="1.0" encoding="UTF-8" standalone="no"?>
<!DOCTYPE svg PUBLIC "-//W3C//DTD SVG 1.1//EN"
 "http://www.w3.org/Graphics/SVG/1.1/DTD/svg11.dtd">
<!-- Generated by graphviz version 2.43.0 (0)
 -->
<!-- Title: protodot Pages: 1 -->
<svg width="519pt" height="192pt"
 viewBox="0.00 0.00 519.00 191.50" xmlns="http://www.w3.org/2000/svg" xmlns:xlink="http://www.w3.org/1999/xlink">
<g id="graph0" class="graph" transform="scale(1 1) rotate(0) translate(4 187.5)">
<title>protodot</title>
<g id="a_graph0"><a xlink:title="keelson">
<text text-anchor="middle" x="255.5" y="-7.8" font-family="Times,serif" font-size="14.00">keelson</text>
</a>
</g>
<!-- Node_Ja_108 -->
<g id="node1" class="node">
<title>Node_Ja_108</title>
<g id="a_node1"><a xlink:title="keelson.WeatherAlert">
<polygon fill="#fffaf0" stroke="transparent" points="8,-27 8,-179 282,-179 282,-27 8,-27"/>
<polygon fill="#e31a1c" stroke="transparent" points="9,-163 9,-178 281,-178 281,-163 9,-163"/>
<text text-anchor="start" x="203" y="-169" font-family="Ubuntu" font-weight="bold" font-size="10.00">WeatherAlert</text>
<text text-anchor="start" x="32" y="-153" font-family="Ubuntu" font-size="10.00">1</text>
<text text-anchor="start" x="43" y="-153" font-family="Ubuntu" font-size="10.00">id</text>
<polygon fill="#a6cee3" stroke="transparent" points="118,-148 118,-163 281,-163 281,-148 118,-148"/>
<text text-anchor="start" x="251" y="-154" font-family="Ubuntu" font-style="italic" font-size="10.00">string</text>
<text text-anchor="start" x="32" y="-138" font-family="Ubuntu" font-size="10.00">2</text>
<text text-anchor="start" x="43" y="-138" font-family="Ubuntu" font-size="10.00">severity</text>
<polygon fill="#b2df8a" stroke="transparent" points="118,-133 118,-148 281,-148 281,-133 118,-133"/>
<text text-anchor="start" x="212" y="-139" font-family="Ubuntu" text-decoration="underline" font-size="10.00">SeverityLevel</text>
<text text-anchor="start" x="32" y="-123" font-family="Ubuntu" font-size="10.00">3</text>
<text text-anchor="start" x="43" y="-123" font-family="Ubuntu" font-size="10.00">category</text>
<polygon fill="#a6cee3" stroke="transparent" points="118,-118 118,-133 281,-133 281,-118 118,-118"/>
<text text-anchor="start" x="251" y="-124" font-family="Ubuntu" font-style="italic" font-size="10.00">string</text>
<text text-anchor="start" x="32" y="-108" font-family="Ubuntu" font-size="10.00">4</text>
<text text-anchor="start" x="43" y="-108" font-family="Ubuntu" font-size="10.00">headline</text>
<polygon fill="#a6cee3" stroke="transparent" points="118,-103 118,-118 281,-118 281,-103 118,-103"/>
<text text-anchor="start" x="251" y="-109" font-family="Ubuntu" font-style="italic" font-size="10.00">string</text>
<text text-anchor="start" x="32" y="-93" font-family="Ubuntu" font-size="10.00">5</text>
<text text-anchor="start" x="43" y="-93" font-family="Ubuntu" font-size="10.00">description</text>
<polygon fill="#a6cee3" stroke="transparent" points="118,-88 118,-103 281,-103 281,-88 118,-88"/>
<text text-anchor="start" x="251" y="-94" font-family="Ubuntu" font-style="italic" font-size="10.00">string</text>
<text text-anchor="start" x="32" y="-78" font-family="Ubuntu" font-size="10.00">6</text>
<text text-anchor="start" x="43" y="-78" font-family="Ubuntu" font-size="10.00">effective_at</text>
<polygon fill="#fb9a99" stroke="transparent" points="118,-73 118,-88 281,-88 281,-73 118,-73"/>
<text text-anchor="start" x="120" y="-79" font-family="Ubuntu" font-weight="bold" font-size="10.00">google.protobuf.Timestamp</text>
<text text-anchor="start" x="32" y="-63" font-family="Ubuntu" font-size="10.00">7</text>
<text text-anchor="start" x="43" y="-63" font-family="Ubuntu" font-size="10.00">expires_at</text>
<polygon fill="#fb9a99" stroke="transparent" points="118,-58 118,-73 281,-73 281,-58 118,-58"/>
<text text-anchor="start" x="120" y="-64" font-family="Ubuntu" font-weight="bold" font-size="10.00">google.protobuf.Timestamp</text>
<text text-anchor="start" x="32" y="-48" font-family="Ubuntu" font-size="10.00">8</text>
<text text-anchor="start" x="43" y="-48" font-family="Ubuntu" font-size="10.00">issuer</text>
<polygon fill="#a6cee3" stroke="transparent" points="118,-43 118,-58 281,-58 281,-43 118,-43"/>
<text text-anchor="start" x="251" y="-49" font-family="Ubuntu" font-style="italic" font-size="10.00">string</text>
<text text-anchor="start" x="11" y="-33" font-family="Ubuntu" font-size="10.00">[...]</text>
<text text-anchor="start" x="32" y="-33" font-family="Ubuntu" font-size="10.00">9</text>
<text text-anchor="start" x="43" y="-33" font-family="Ubuntu" font-size="10.00">affected_areas</text>
<polygon fill="#a6cee3" stroke="transparent" points="118,-28 118,-43 281,-43 281,-28 118,-28"/>
<text text-anchor="start" x="251" y="-34" font-family="Ubuntu" font-style="italic" font-size="10.00">string</text>
<polygon fill="none" stroke="black" points="8,-27 8,-179 282,-179 282,-27 8,-27"/>
</a>
</g>
</g>
<!-- Node_Ja_100 -->
<g id="node2" class="node">
<title>Node_Ja_100</title>
<g id="a_node2"><a xlink:title="google.protobuf.Timestamp">
<polygon fill="#fffaf0" stroke="transparent" points="373.5,-28.5 373.5,-75.5 463.5,-75.5 463.5,-28.5 373.5,-28.5"/>
<polygon fill="#e31a1c" stroke="transparent" points="374.5,-59 374.5,-74 462.5,-74 462.5,-59 374.5,-59"/>
<text text-anchor="start" x="396.5" y="-65" font-family="Ubuntu" font-weight="bold" font-size="10.00">Timestamp</text>
<text text-anchor="start" x="380.5" y="-49" font-family="Ubuntu" font-size="10.00">1</text>
<text text-anchor="start" x="391.5" y="-49" font-family="Ubuntu" font-size="10.00">seconds</text>
<polygon fill="#a6cee3" stroke="transparent" points="433.5,-44 433.5,-59 462.5,-59 462.5,-44 433.5,-44"/>
<text text-anchor="start" x="435.5" y="-50" font-family="Ubuntu" font-style="italic" font-size="10.00">int64</text>
<text text-anchor="start" x="380.5" y="-34" font-family="Ubuntu" font-size="10.00">2</text>
<text text-anchor="start" x="391.5" y="-34" font-family="Ubuntu" font-size="10.00">nanos</text>
<polygon fill="#a6cee3" stroke="transparent" points="433.5,-29 433.5,-44 462.5,-44 462.5,-29 433.5,-29"/>
<text text-anchor="start" x="435.5" y="-35" font-family="Ubuntu" font-style="italic" font-size="10.00">int32</text>
<polygon fill="none" stroke="black" points="373.5,-28.5 373.5,-75.5 463.5,-75.5 463.5,-28.5 373.5,-28.5"/>
</a>
</g>
</g>
<!-- Node_Ja_108&#45;&gt;Node_Ja_100 -->
<g id="edge1" class="edge">
<title>Node_Ja_108:e&#45;&gt;Node_Ja_100:header</title>
<g id="a_edge1"><a xlink:title="Ja_108 &#45;&#45;&gt; Ja_100">
<path fill="none" stroke="#000000" d="M282,-80C319.38,-80 330.49,-69.23 363.15,-67.3"/>
<polygon fill="#000000" stroke="#000000" points="363.6,-70.78 373.5,-67 363.4,-63.79 363.6,-70.78"/>
</a>
</g>
</g>
<!-- Node_Ja_108&#45;&gt;Node_Ja_100 -->
<g id="edge3" class="edge">
<title>Node_Ja_108:e&#45;&gt;Node_Ja_100:header</title>
<g id="a_edge3"><a xlink:title="Ja_108 &#45;&#45;&gt; Ja_100">
<path fill="none" stroke="#000000" d="M282,-65C319.02,-65 330.75,-66.66 363.23,-66.95"/>
<polygon fill="#000000" stroke="#000000" points="363.48,-70.46 373.5,-67 363.52,-63.46 363.48,-70.46"/>
</a>
</g>
</g>
<!-- Node_Ja_103 -->
<g id="node3" class="node">
<title>Node_Ja_103</title>
<g id="a_node3"><a xlink:title="SeverityLevel">
<polygon fill="#b2df8a" stroke="transparent" points="334,-102.5 334,-179.5 503,-179.5 503,-102.5 334,-102.5"/>
<polygon fill="#33a02c" stroke="transparent" points="335.5,-163 335.5,-178 502.5,-178 502.5,-163 335.5,-163"/>
<text text-anchor="start" x="390.5" y="-169" font-family="Ubuntu" font-size="10.00">enum </text>
<text text-anchor="start" x="421.5" y="-169" font-family="Ubuntu" font-weight="bold" font-size="10.00">SeverityLevel</text>
<polygon fill="#b2df8a" stroke="transparent" points="335.5,-148 335.5,-163 491.5,-163 491.5,-148 335.5,-148"/>
<text text-anchor="start" x="337.5" y="-153" font-family="Ubuntu" font-size="10.00">SEVERITY_LEVEL_UNSPECIFIED</text>
<polygon fill="#b2df8a" stroke="transparent" points="491.5,-148 491.5,-163 502.5,-163 502.5,-148 491.5,-148"/>
<text text-anchor="start" x="493.5" y="-153" font-family="Ubuntu" font-size="10.00">0</text>
<polygon fill="#b2df8a" stroke="transparent" points="335.5,-133 335.5,-148 491.5,-148 491.5,-133 335.5,-133"/>
<text text-anchor="start" x="337.5" y="-138" font-family="Ubuntu" font-size="10.00">INFO</text>
<polygon fill="#b2df8a" stroke="transparent" points="491.5,-133 491.5,-148 502.5,-148 502.5,-133 491.5,-133"/>
<text text-anchor="start" x="493.5" y="-138" font-family="Ubuntu" font-size="10.00">1</text>
<polygon fill="#b2df8a" stroke="transparent" points="335.5,-118 335.5,-133 491.5,-133 491.5,-118 335.5,-118"/>
<text text-anchor="start" x="337.5" y="-123" font-family="Ubuntu" font-size="10.00">WARNING</text>
<polygon fill="#b2df8a" stroke="transparent" points="491.5,-118 491.5,-133 502.5,-133 502.5,-118 491.5,-118"/>
<text text-anchor="start" x="493.5" y="-123" font-family="Ubuntu" font-size="10.00">2</text>
<polygon fill="#b2df8a" stroke="transparent" points="335.5,-103 335.5,-118 491.5,-118 491.5,-103 335.5,-103"/>
<text text-anchor="start" x="337.5" y="-108" font-family="Ubuntu" font-size="10.00">CRITICAL</text>
<polygon fill="#b2df8a" stroke="transparent" points="491.5,-103 491.5,-118 502.5,-118 502.5,-103 491.5,-103"/>
<text text-anchor="start" x="493.5" y="-108" font-family="Ubuntu" font-size="10.00">3</text>
<polygon fill="none" stroke="black" points="334,-102.5 334,-179.5 503,-179.5 503,-102.5 334,-102.5"/>
</a>
</g>
</g>
<!-- Node_Ja_108&#45;&gt;Node_Ja_103 -->
<g id="edge2" class="edge">
<title>Node_Ja_108:e&#45;&gt;Node_Ja_103</title>
<g id="a_edge2"><a xlink:title="Ja_108 &#45;&#45;&gt; Ja_103">
<path fill="none" stroke="#008000" d="M282,-141C292.81,-141 304.1,-141 315.35,-141"/>
<polygon fill="#008000" stroke="#008000" points="315.66,-144.5 325.66,-141 315.66,-137.5 315.66,-144.5"/>
</a>
</g>
</g>
</g>
</svg>
