<?xml version="1.0" encoding="UTF-8" standalone="no"?>
<!DOCTYPE svg PUBLIC "-//W3C//DTD SVG 1.1//EN"
 "http://www.w3.org/Graphics/SVG/1.1/DTD/svg11.dtd">
<!-- Generated by graphviz version 2.43.0 (0)
 -->
<!-- Title: protodot Pages: 1 -->
<svg width="499pt" height="189pt"
 viewBox="0.00 0.00 499.00 189.00" xmlns="http://www.w3.org/2000/svg" xmlns:xlink="http://www.w3.org/1999/xlink">
<g id="graph0" class="graph" transform="scale(1 1) rotate(0) translate(4 185)">
<title>protodot</title>
<g id="a_graph0"><a xlink:title="keelson">
<text text-anchor="middle" x="245.5" y="-7.8" font-family="Times,serif" font-size="14.00">keelson</text>
</a>
</g>
<!-- Node_Ja_101 -->
<g id="node1" class="node">
<title>Node_Ja_101</title>
<g id="a_node1"><a xlink:title="keelson.SimulationStatus">
<polygon fill="#fffaf0" stroke="transparent" points="8,-57.5 8,-149.5 303,-149.5 303,-57.5 8,-57.5"/>
<polygon fill="#e31a1c" stroke="transparent" points="9.5,-133.5 9.5,-148.5 302.5,-148.5 302.5,-133.5 9.5,-133.5"/>
<text text-anchor="start" x="203.5" y="-139.5" font-family="Ubuntu" font-weight="bold" font-size="10.00">SimulationStatus</text>
<text text-anchor="start" x="15.5" y="-123.5" font-family="Ubuntu" font-size="10.00">1</text>
<text text-anchor="start" x="26.5" y="-123.5" font-family="Ubuntu" font-size="10.00">timestamp</text>
<polygon fill="#fb9a99" stroke="transparent" points="139.5,-118.5 139.5,-133.5 302.5,-133.5 302.5,-118.5 139.5,-118.5"/>
<text text-anchor="start" x="141.5" y="-124.5" font-family="Ubuntu" font-weight="bold" font-size="10.00">google.protobuf.Timestamp</text>
<text text-anchor="start" x="15.5" y="-108.5" font-family="Ubuntu" font-size="10.00">2</text>
<text text-anchor="start" x="26.5" y="-108.5" font-family="Ubuntu" font-size="10.00">state</text>
<polygon fill="#b2df8a" stroke="transparent" points="139.5,-103.5 139.5,-118.5 302.5,-118.5 302.5,-103.5 139.5,-103.5"/>
<text text-anchor="start" x="221.5" y="-109.5" font-family="Ubuntu" text-decoration="underline" font-size="10.00">SimulationState</text>
<text text-anchor="start" x="15.5" y="-93.5" font-family="Ubuntu" font-size="10.00">3</text>
<text text-anchor="start" x="26.5" y="-93.5" font-family="Ubuntu" font-size="10.00">name</text>
<polygon fill="#a6cee3" stroke="transparent" points="139.5,-88.5 139.5,-103.5 302.5,-103.5 302.5,-88.5 139.5,-88.5"/>
<text text-anchor="start" x="272.5" y="-94.5" font-family="Ubuntu" font-style="italic" font-size="10.00">string</text>
<text text-anchor="start" x="15.5" y="-78.5" font-family="Ubuntu" font-size="10.00">4</text>
<text text-anchor="start" x="26.5" y="-78.5" font-family="Ubuntu" font-size="10.00">id</text>
<polygon fill="#a6cee3" stroke="transparent" points="139.5,-73.5 139.5,-88.5 302.5,-88.5 302.5,-73.5 139.5,-73.5"/>
<text text-anchor="start" x="272.5" y="-79.5" font-family="Ubuntu" font-style="italic" font-size="10.00">string</text>
<text text-anchor="start" x="15.5" y="-63.5" font-family="Ubuntu" font-size="10.00">5</text>
<text text-anchor="start" x="26.5" y="-63.5" font-family="Ubuntu" font-size="10.00">simulation_timestamp</text>
<polygon fill="#fb9a99" stroke="transparent" points="139.5,-58.5 139.5,-73.5 302.5,-73.5 302.5,-58.5 139.5,-58.5"/>
<text text-anchor="start" x="141.5" y="-64.5" font-family="Ubuntu" font-weight="bold" font-size="10.00">google.protobuf.Timestamp</text>
<polygon fill="none" stroke="black" points="8,-57.5 8,-149.5 303,-149.5 303,-57.5 8,-57.5"/>
</a>
</g>
</g>
<!-- Node_Ja_100 -->
<g id="node2" class="node">
<title>Node_Ja_100</title>
<g id="a_node2"><a xlink:title="google.protobuf.Timestamp">
<polygon fill="#fffaf0" stroke="transparent" points="374,-27 374,-74 464,-74 464,-27 374,-27"/>
<polygon fill="#e31a1c" stroke="transparent" points="375,-57.5 375,-72.5 463,-72.5 463,-57.5 375,-57.5"/>
<text text-anchor="start" x="397" y="-63.5" font-family="Ubuntu" font-weight="bold" font-size="10.00">Timestamp</text>
<text text-anchor="start" x="381" y="-47.5" font-family="Ubuntu" font-size="10.00">1</text>
<text text-anchor="start" x="392" y="-47.5" font-family="Ubuntu" font-size="10.00">seconds</text>
<polygon fill="#a6cee3" stroke="transparent" points="434,-42.5 434,-57.5 463,-57.5 463,-42.5 434,-42.5"/>
<text text-anchor="start" x="436" y="-48.5" font-family="Ubuntu" font-style="italic" font-size="10.00">int64</text>
<text text-anchor="start" x="381" y="-32.5" font-family="Ubuntu" font-size="10.00">2</text>
<text text-anchor="start" x="392" y="-32.5" font-family="Ubuntu" font-size="10.00">nanos</text>
<polygon fill="#a6cee3" stroke="transparent" points="434,-27.5 434,-42.5 463,-42.5 463,-27.5 434,-27.5"/>
<text text-anchor="start" x="436" y="-33.5" font-family="Ubuntu" font-style="italic" font-size="10.00">int32</text>
<polygon fill="none" stroke="black" points="374,-27 374,-74 464,-74 464,-27 374,-27"/>
</a>
</g>
</g>
<!-- Node_Ja_101&#45;&gt;Node_Ja_100 -->
<g id="edge1" class="edge">
<title>Node_Ja_101:e&#45;&gt;Node_Ja_100:header</title>
<g id="a_edge1"><a xlink:title="Ja_101 &#45;&#45;&gt; Ja_100">
<path fill="none" stroke="#000000" d="M303.5,-126.5C341.21,-126.5 334.35,-75.97 364.06,-66.89"/>
<polygon fill="#000000" stroke="#000000" points="364.58,-70.35 374,-65.5 363.61,-63.42 364.58,-70.35"/>
</a>
</g>
</g>
<!-- Node_Ja_101&#45;&gt;Node_Ja_100 -->
<g id="edge3" class="edge">
<title>Node_Ja_101:e&#45;&gt;Node_Ja_100:header</title>
<g id="a_edge3"><a xlink:title="Ja_101 &#45;&#45;&gt; Ja_100">
<path fill="none" stroke="#000000" d="M303.5,-65.5C331.16,-65.5 340.51,-65.5 363.88,-65.5"/>
<polygon fill="#000000" stroke="#000000" points="364,-69 374,-65.5 364,-62 364,-69"/>
</a>
</g>
</g>
<!-- Node_Ja_102 -->
<g id="node3" class="node">
<title>Node_Ja_102</title>
<g id="a_node3"><a xlink:title="SimulationState">
<polygon fill="#b2df8a" stroke="transparent" points="355,-100 355,-177 483,-177 483,-100 355,-100"/>
<polygon fill="#33a02c" stroke="transparent" points="356,-160.5 356,-175.5 482,-175.5 482,-160.5 356,-160.5"/>
<text text-anchor="start" x="358" y="-166.5" font-family="Ubuntu" font-size="10.00">enum </text>
<text text-anchor="start" x="389" y="-166.5" font-family="Ubuntu" font-weight="bold" font-size="10.00">SimulationState</text>
<polygon fill="#b2df8a" stroke="transparent" points="356,-145.5 356,-160.5 443,-160.5 443,-145.5 356,-145.5"/>
<text text-anchor="start" x="358" y="-150.5" font-family="Ubuntu" font-size="10.00">UNKNOWN</text>
<polygon fill="#b2df8a" stroke="transparent" points="443,-145.5 443,-160.5 482,-160.5 482,-145.5 443,-145.5"/>
<text text-anchor="start" x="445" y="-150.5" font-family="Ubuntu" font-size="10.00">0</text>
<polygon fill="#b2df8a" stroke="transparent" points="356,-130.5 356,-145.5 443,-145.5 443,-130.5 356,-130.5"/>
<text text-anchor="start" x="358" y="-135.5" font-family="Ubuntu" font-size="10.00">STOPPED</text>
<polygon fill="#b2df8a" stroke="transparent" points="443,-130.5 443,-145.5 482,-145.5 482,-130.5 443,-130.5"/>
<text text-anchor="start" x="445" y="-135.5" font-family="Ubuntu" font-size="10.00">1</text>
<polygon fill="#b2df8a" stroke="transparent" points="356,-115.5 356,-130.5 443,-130.5 443,-115.5 356,-115.5"/>
<text text-anchor="start" x="358" y="-120.5" font-family="Ubuntu" font-size="10.00">RUNNING</text>
<polygon fill="#b2df8a" stroke="transparent" points="443,-115.5 443,-130.5 482,-130.5 482,-115.5 443,-115.5"/>
<text text-anchor="start" x="445" y="-120.5" font-family="Ubuntu" font-size="10.00">2</text>
<polygon fill="#b2df8a" stroke="transparent" points="356,-100.5 356,-115.5 443,-115.5 443,-100.5 356,-100.5"/>
<text text-anchor="start" x="358" y="-105.5" font-family="Ubuntu" font-size="10.00">PAUSED</text>
<polygon fill="#b2df8a" stroke="transparent" points="443,-100.5 443,-115.5 482,-115.5 482,-100.5 443,-100.5"/>
<text text-anchor="start" x="445" y="-105.5" font-family="Ubuntu" font-size="10.00">3</text>
<polygon fill="none" stroke="black" points="355,-100 355,-177 483,-177 483,-100 355,-100"/>
</a>
</g>
</g>
<!-- Node_Ja_101&#45;&gt;Node_Ja_102 -->
<g id="edge2" class="edge">
<title>Node_Ja_101:e&#45;&gt;Node_Ja_102</title>
<g id="a_edge2"><a xlink:title="Ja_101 &#45;&#45;&gt; Ja_102">
<path fill="none" stroke="#008000" d="M303.5,-111.5C314.37,-111.5 325.66,-112.67 336.74,-114.51"/>
<polygon fill="#008000" stroke="#008000" points="336.36,-118 346.84,-116.39 337.64,-111.12 336.36,-118"/>
</a>
</g>
</g>
</g>
</svg>
