<?xml version="1.0" encoding="UTF-8" standalone="no"?>
<!DOCTYPE svg PUBLIC "-//W3C//DTD SVG 1.1//EN"
 "http://www.w3.org/Graphics/SVG/1.1/DTD/svg11.dtd">
<!-- Generated by graphviz version 2.43.0 (0)
 -->
<!-- Title: protodot Pages: 1 -->
<svg width="431pt" height="265pt"
 viewBox="0.00 0.00 431.00 264.50" xmlns="http://www.w3.org/2000/svg" xmlns:xlink="http://www.w3.org/1999/xlink">
<g id="graph0" class="graph" transform="scale(1 1) rotate(0) translate(4 260.5)">
<title>protodot</title>
<g id="a_graph0"><a xlink:title="keelson">
<text text-anchor="middle" x="211.5" y="-7.8" font-family="Times,serif" font-size="14.00">keelson</text>
</a>
</g>
<!-- Node_Ja_101 -->
<g id="node1" class="node">
<title>Node_Ja_101</title>
<g id="a_node1"><a xlink:title="keelson.VehicleState">
<polygon fill="#fffaf0" stroke="transparent" points="8,-158.5 8,-205.5 246,-205.5 246,-158.5 8,-158.5"/>
<polygon fill="#e31a1c" stroke="transparent" points="9,-189 9,-204 245,-204 245,-189 9,-189"/>
<text text-anchor="start" x="171" y="-195" font-family="Ubuntu" font-weight="bold" font-size="10.00">VehicleState</text>
<text text-anchor="start" x="15" y="-179" font-family="Ubuntu" font-size="10.00">1</text>
<text text-anchor="start" x="26" y="-179" font-family="Ubuntu" font-size="10.00">timestamp</text>
<polygon fill="#fb9a99" stroke="transparent" points="82,-174 82,-189 245,-189 245,-174 82,-174"/>
<text text-anchor="start" x="84" y="-180" font-family="Ubuntu" font-weight="bold" font-size="10.00">google.protobuf.Timestamp</text>
<text text-anchor="start" x="15" y="-164" font-family="Ubuntu" font-size="10.00">2</text>
<text text-anchor="start" x="26" y="-164" font-family="Ubuntu" font-size="10.00">state</text>
<polygon fill="#b2df8a" stroke="transparent" points="82,-159 82,-174 245,-174 245,-159 82,-159"/>
<text text-anchor="start" x="217" y="-165" font-family="Ubuntu" text-decoration="underline" font-size="10.00">State</text>
<polygon fill="none" stroke="black" points="8,-158.5 8,-205.5 246,-205.5 246,-158.5 8,-158.5"/>
</a>
</g>
</g>
<!-- Node_Ja_100 -->
<g id="node2" class="node">
<title>Node_Ja_100</title>
<g id="a_node2"><a xlink:title="google.protobuf.Timestamp">
<polygon fill="#fffaf0" stroke="transparent" points="311.5,-205.5 311.5,-252.5 401.5,-252.5 401.5,-205.5 311.5,-205.5"/>
<polygon fill="#e31a1c" stroke="transparent" points="312.5,-236 312.5,-251 400.5,-251 400.5,-236 312.5,-236"/>
<text text-anchor="start" x="334.5" y="-242" font-family="Ubuntu" font-weight="bold" font-size="10.00">Timestamp</text>
<text text-anchor="start" x="318.5" y="-226" font-family="Ubuntu" font-size="10.00">1</text>
<text text-anchor="start" x="329.5" y="-226" font-family="Ubuntu" font-size="10.00">seconds</text>
<polygon fill="#a6cee3" stroke="transparent" points="371.5,-221 371.5,-236 400.5,-236 400.5,-221 371.5,-221"/>
<text text-anchor="start" x="373.5" y="-227" font-family="Ubuntu" font-style="italic" font-size="10.00">int64</text>
<text text-anchor="start" x="318.5" y="-211" font-family="Ubuntu" font-size="10.00">2</text>
<text text-anchor="start" x="329.5" y="-211" font-family="Ubuntu" font-size="10.00">nanos</text>
<polygon fill="#a6cee3" stroke="transparent" points="371.5,-206 371.5,-221 400.5,-221 400.5,-206 371.5,-206"/>
<text text-anchor="start" x="373.5" y="-212" font-family="Ubuntu" font-style="italic" font-size="10.00">int32</text>
<polygon fill="none" stroke="black" points="311.5,-205.5 311.5,-252.5 401.5,-252.5 401.5,-205.5 311.5,-205.5"/>
</a>
</g>
</g>
<!-- Node_Ja_101&#45;&gt;Node_Ja_100 -->
<g id="edge1" class="edge">
<title>Node_Ja_101:e&#45;&gt;Node_Ja_100:header</title>
<g id="a_edge1"><a xlink:title="Ja_101 &#45;&#45;&gt; Ja_100">
<path fill="none" stroke="#000000" d="M246,-181C282.6,-181 273.48,-232.74 301.52,-242.44"/>
<polygon fill="#000000" stroke="#000000" points="301.08,-245.92 311.5,-244 302.16,-239 301.08,-245.92"/>
</a>
</g>
</g>
<!-- Node_Ja_102 -->
<g id="node3" class="node">
<title>Node_Ja_102</title>
<g id="a_node3"><a xlink:title="State">
<polygon fill="#b2df8a" stroke="transparent" points="298,-27 298,-179 415,-179 415,-27 298,-27"/>
<polygon fill="#33a02c" stroke="transparent" points="299.5,-163 299.5,-178 414.5,-178 414.5,-163 299.5,-163"/>
<text text-anchor="start" x="350.5" y="-169" font-family="Ubuntu" font-size="10.00">enum </text>
<text text-anchor="start" x="381.5" y="-169" font-family="Ubuntu" font-weight="bold" font-size="10.00">State</text>
<polygon fill="#b2df8a" stroke="transparent" points="299.5,-148 299.5,-163 403.5,-163 403.5,-148 299.5,-148"/>
<text text-anchor="start" x="301.5" y="-153" font-family="Ubuntu" font-size="10.00">STATE_UNKNOWN</text>
<polygon fill="#b2df8a" stroke="transparent" points="403.5,-148 403.5,-163 414.5,-163 414.5,-148 403.5,-148"/>
<text text-anchor="start" x="405.5" y="-153" font-family="Ubuntu" font-size="10.00">0</text>
<polygon fill="#b2df8a" stroke="transparent" points="299.5,-133 299.5,-148 403.5,-148 403.5,-133 299.5,-133"/>
<text text-anchor="start" x="301.5" y="-138" font-family="Ubuntu" font-size="10.00">STATE_BOOTING</text>
<polygon fill="#b2df8a" stroke="transparent" points="403.5,-133 403.5,-148 414.5,-148 414.5,-133 403.5,-133"/>
<text text-anchor="start" x="405.5" y="-138" font-family="Ubuntu" font-size="10.00">1</text>
<polygon fill="#b2df8a" stroke="transparent" points="299.5,-118 299.5,-133 403.5,-133 403.5,-118 299.5,-118"/>
<text text-anchor="start" x="301.5" y="-123" font-family="Ubuntu" font-size="10.00">STATE_CALIBRATING</text>
<polygon fill="#b2df8a" stroke="transparent" points="403.5,-118 403.5,-133 414.5,-133 414.5,-118 403.5,-118"/>
<text text-anchor="start" x="405.5" y="-123" font-family="Ubuntu" font-size="10.00">2</text>
<polygon fill="#b2df8a" stroke="transparent" points="299.5,-103 299.5,-118 403.5,-118 403.5,-103 299.5,-103"/>
<text text-anchor="start" x="301.5" y="-108" font-family="Ubuntu" font-size="10.00">STATE_STANDBY</text>
<polygon fill="#b2df8a" stroke="transparent" points="403.5,-103 403.5,-118 414.5,-118 414.5,-103 403.5,-103"/>
<text text-anchor="start" x="405.5" y="-108" font-family="Ubuntu" font-size="10.00">3</text>
<polygon fill="#b2df8a" stroke="transparent" points="299.5,-88 299.5,-103 403.5,-103 403.5,-88 299.5,-88"/>
<text text-anchor="start" x="301.5" y="-93" font-family="Ubuntu" font-size="10.00">STATE_ACTIVE</text>
<polygon fill="#b2df8a" stroke="transparent" points="403.5,-88 403.5,-103 414.5,-103 414.5,-88 403.5,-88"/>
<text text-anchor="start" x="405.5" y="-93" font-family="Ubuntu" font-size="10.00">4</text>
<polygon fill="#b2df8a" stroke="transparent" points="299.5,-73 299.5,-88 403.5,-88 403.5,-73 299.5,-73"/>
<text text-anchor="start" x="301.5" y="-78" font-family="Ubuntu" font-size="10.00">STATE_CRITICAL</text>
<polygon fill="#b2df8a" stroke="transparent" points="403.5,-73 403.5,-88 414.5,-88 414.5,-73 403.5,-73"/>
<text text-anchor="start" x="405.5" y="-78" font-family="Ubuntu" font-size="10.00">5</text>
<polygon fill="#b2df8a" stroke="transparent" points="299.5,-58 299.5,-73 403.5,-73 403.5,-58 299.5,-58"/>
<text text-anchor="start" x="301.5" y="-63" font-family="Ubuntu" font-size="10.00">STATE_EMERGENCY</text>
<polygon fill="#b2df8a" stroke="transparent" points="403.5,-58 403.5,-73 414.5,-73 414.5,-58 403.5,-58"/>
<text text-anchor="start" x="405.5" y="-63" font-family="Ubuntu" font-size="10.00">6</text>
<polygon fill="#b2df8a" stroke="transparent" points="299.5,-43 299.5,-58 403.5,-58 403.5,-43 299.5,-43"/>
<text text-anchor="start" x="301.5" y="-48" font-family="Ubuntu" font-size="10.00">STATE_SHUTDOWN</text>
<polygon fill="#b2df8a" stroke="transparent" points="403.5,-43 403.5,-58 414.5,-58 414.5,-43 403.5,-43"/>
<text text-anchor="start" x="405.5" y="-48" font-family="Ubuntu" font-size="10.00">7</text>
<polygon fill="#b2df8a" stroke="transparent" points="299.5,-28 299.5,-43 403.5,-43 403.5,-28 299.5,-28"/>
<text text-anchor="start" x="301.5" y="-33" font-family="Ubuntu" font-size="10.00">STATE_TERMINATED</text>
<polygon fill="#b2df8a" stroke="transparent" points="403.5,-28 403.5,-43 414.5,-43 414.5,-28 403.5,-28"/>
<text text-anchor="start" x="405.5" y="-33" font-family="Ubuntu" font-size="10.00">8</text>
<polygon fill="none" stroke="black" points="298,-27 298,-179 415,-179 415,-27 298,-27"/>
</a>
</g>
</g>
<!-- Node_Ja_101&#45;&gt;Node_Ja_102 -->
<g id="edge2" class="edge">
<title>Node_Ja_101:e&#45;&gt;Node_Ja_102</title>
<g id="a_edge2"><a xlink:title="Ja_101 &#45;&#45;&gt; Ja_102">
<path fill="none" stroke="#008000" d="M246,-166C257.82,-166 269.52,-163.21 280.62,-158.8"/>
<polygon fill="#008000" stroke="#008000" points="282.07,-161.98 289.8,-154.74 279.24,-155.58 282.07,-161.98"/>
</a>
</g>
</g>
</g>
</svg>
