<?xml version="1.0" encoding="UTF-8" standalone="no"?>
<!DOCTYPE svg PUBLIC "-//W3C//DTD SVG 1.1//EN"
 "http://www.w3.org/Graphics/SVG/1.1/DTD/svg11.dtd">
<!-- Generated by graphviz version 2.43.0 (0)
 -->
<!-- Title: protodot Pages: 1 -->
<svg width="404pt" height="279pt"
 viewBox="0.00 0.00 404.00 279.00" xmlns="http://www.w3.org/2000/svg" xmlns:xlink="http://www.w3.org/1999/xlink">
<g id="graph0" class="graph" transform="scale(1 1) rotate(0) translate(4 275)">
<title>protodot</title>
<g id="a_graph0"><a xlink:title="keelson">
<text text-anchor="middle" x="198" y="-7.8" font-family="Times,serif" font-size="14.00">keelson</text>
</a>
</g>
<!-- Node_Ja_101 -->
<g id="node1" class="node">
<title>Node_Ja_101</title>
<g id="a_node1"><a xlink:title="keelson.LocationFixQuality">
<polygon fill="#fffaf0" stroke="transparent" points="8,-169 8,-216 246,-216 246,-169 8,-169"/>
<polygon fill="#e31a1c" stroke="transparent" points="9,-199.5 9,-214.5 245,-214.5 245,-199.5 9,-199.5"/>
<text text-anchor="start" x="137" y="-205.5" font-family="Ubuntu" font-weight="bold" font-size="10.00">LocationFixQuality</text>
<text text-anchor="start" x="15" y="-189.5" font-family="Ubuntu" font-size="10.00">1</text>
<text text-anchor="start" x="26" y="-189.5" font-family="Ubuntu" font-size="10.00">timestamp</text>
<polygon fill="#fb9a99" stroke="transparent" points="82,-184.5 82,-199.5 245,-199.5 245,-184.5 82,-184.5"/>
<text text-anchor="start" x="84" y="-190.5" font-family="Ubuntu" font-weight="bold" font-size="10.00">google.protobuf.Timestamp</text>
<text text-anchor="start" x="15" y="-174.5" font-family="Ubuntu" font-size="10.00">2</text>
<text text-anchor="start" x="26" y="-174.5" font-family="Ubuntu" font-size="10.00">fix_type</text>
<polygon fill="#b2df8a" stroke="transparent" points="82,-169.5 82,-184.5 245,-184.5 245,-169.5 82,-169.5"/>
<text text-anchor="start" x="206" y="-175.5" font-family="Ubuntu" text-decoration="underline" font-size="10.00">FixType</text>
<polygon fill="none" stroke="black" points="8,-169 8,-216 246,-216 246,-169 8,-169"/>
</a>
</g>
</g>
<!-- Node_Ja_100 -->
<g id="node2" class="node">
<title>Node_Ja_100</title>
<g id="a_node2"><a xlink:title="google.protobuf.Timestamp">
<polygon fill="#fffaf0" stroke="transparent" points="298,-220 298,-267 388,-267 388,-220 298,-220"/>
<polygon fill="#e31a1c" stroke="transparent" points="299,-250.5 299,-265.5 387,-265.5 387,-250.5 299,-250.5"/>
<text text-anchor="start" x="321" y="-256.5" font-family="Ubuntu" font-weight="bold" font-size="10.00">Timestamp</text>
<text text-anchor="start" x="305" y="-240.5" font-family="Ubuntu" font-size="10.00">1</text>
<text text-anchor="start" x="316" y="-240.5" font-family="Ubuntu" font-size="10.00">seconds</text>
<polygon fill="#a6cee3" stroke="transparent" points="358,-235.5 358,-250.5 387,-250.5 387,-235.5 358,-235.5"/>
<text text-anchor="start" x="360" y="-241.5" font-family="Ubuntu" font-style="italic" font-size="10.00">int64</text>
<text text-anchor="start" x="305" y="-225.5" font-family="Ubuntu" font-size="10.00">2</text>
<text text-anchor="start" x="316" y="-225.5" font-family="Ubuntu" font-size="10.00">nanos</text>
<polygon fill="#a6cee3" stroke="transparent" points="358,-220.5 358,-235.5 387,-235.5 387,-220.5 358,-220.5"/>
<text text-anchor="start" x="360" y="-226.5" font-family="Ubuntu" font-style="italic" font-size="10.00">int32</text>
<polygon fill="none" stroke="black" points="298,-220 298,-267 388,-267 388,-220 298,-220"/>
</a>
</g>
</g>
<!-- Node_Ja_101&#45;&gt;Node_Ja_100 -->
<g id="edge1" class="edge">
<title>Node_Ja_101:e&#45;&gt;Node_Ja_100:header</title>
<g id="a_edge1"><a xlink:title="Ja_101 &#45;&#45;&gt; Ja_100">
<path fill="none" stroke="#000000" d="M246,-191.5C279.72,-191.5 264.56,-245.11 287.97,-256.42"/>
<polygon fill="#000000" stroke="#000000" points="287.5,-259.9 298,-258.5 288.92,-253.04 287.5,-259.9"/>
</a>
</g>
</g>
<!-- Node_Ja_102 -->
<g id="node3" class="node">
<title>Node_Ja_102</title>
<g id="a_node3"><a xlink:title="FixType">
<polygon fill="#b2df8a" stroke="transparent" points="301,-27 301,-194 385,-194 385,-27 301,-27"/>
<polygon fill="#33a02c" stroke="transparent" points="302,-177.5 302,-192.5 384,-192.5 384,-177.5 302,-177.5"/>
<text text-anchor="start" x="306" y="-183.5" font-family="Ubuntu" font-size="10.00">enum </text>
<text text-anchor="start" x="337" y="-183.5" font-family="Ubuntu" font-weight="bold" font-size="10.00">FixType</text>
<polygon fill="#b2df8a" stroke="transparent" points="302,-162.5 302,-177.5 373,-177.5 373,-162.5 302,-162.5"/>
<text text-anchor="start" x="304" y="-167.5" font-family="Ubuntu" font-size="10.00">UNKNOWN</text>
<polygon fill="#b2df8a" stroke="transparent" points="373,-162.5 373,-177.5 384,-177.5 384,-162.5 373,-162.5"/>
<text text-anchor="start" x="375" y="-167.5" font-family="Ubuntu" font-size="10.00">0</text>
<polygon fill="#b2df8a" stroke="transparent" points="302,-147.5 302,-162.5 373,-162.5 373,-147.5 302,-147.5"/>
<text text-anchor="start" x="304" y="-152.5" font-family="Ubuntu" font-size="10.00">INVALID</text>
<polygon fill="#b2df8a" stroke="transparent" points="373,-147.5 373,-162.5 384,-162.5 384,-147.5 373,-147.5"/>
<text text-anchor="start" x="375" y="-152.5" font-family="Ubuntu" font-size="10.00">1</text>
<polygon fill="#b2df8a" stroke="transparent" points="302,-132.5 302,-147.5 373,-147.5 373,-132.5 302,-132.5"/>
<text text-anchor="start" x="304" y="-137.5" font-family="Ubuntu" font-size="10.00">FIX_NO</text>
<polygon fill="#b2df8a" stroke="transparent" points="373,-132.5 373,-147.5 384,-147.5 384,-132.5 373,-132.5"/>
<text text-anchor="start" x="375" y="-137.5" font-family="Ubuntu" font-size="10.00">2</text>
<polygon fill="#b2df8a" stroke="transparent" points="302,-117.5 302,-132.5 373,-132.5 373,-117.5 302,-117.5"/>
<text text-anchor="start" x="304" y="-122.5" font-family="Ubuntu" font-size="10.00">FIX_2D</text>
<polygon fill="#b2df8a" stroke="transparent" points="373,-117.5 373,-132.5 384,-132.5 384,-117.5 373,-117.5"/>
<text text-anchor="start" x="375" y="-122.5" font-family="Ubuntu" font-size="10.00">3</text>
<polygon fill="#b2df8a" stroke="transparent" points="302,-102.5 302,-117.5 373,-117.5 373,-102.5 302,-102.5"/>
<text text-anchor="start" x="304" y="-107.5" font-family="Ubuntu" font-size="10.00">FIX_3D</text>
<polygon fill="#b2df8a" stroke="transparent" points="373,-102.5 373,-117.5 384,-117.5 384,-102.5 373,-102.5"/>
<text text-anchor="start" x="375" y="-107.5" font-family="Ubuntu" font-size="10.00">4</text>
<polygon fill="#b2df8a" stroke="transparent" points="302,-87.5 302,-102.5 373,-102.5 373,-87.5 302,-87.5"/>
<text text-anchor="start" x="304" y="-92.5" font-family="Ubuntu" font-size="10.00">GPS_DR</text>
<polygon fill="#b2df8a" stroke="transparent" points="373,-87.5 373,-102.5 384,-102.5 384,-87.5 373,-87.5"/>
<text text-anchor="start" x="375" y="-92.5" font-family="Ubuntu" font-size="10.00">5</text>
<polygon fill="#b2df8a" stroke="transparent" points="302,-72.5 302,-87.5 373,-87.5 373,-72.5 302,-72.5"/>
<text text-anchor="start" x="304" y="-77.5" font-family="Ubuntu" font-size="10.00">TIME_ONLY</text>
<polygon fill="#b2df8a" stroke="transparent" points="373,-72.5 373,-87.5 384,-87.5 384,-72.5 373,-72.5"/>
<text text-anchor="start" x="375" y="-77.5" font-family="Ubuntu" font-size="10.00">6</text>
<polygon fill="#b2df8a" stroke="transparent" points="302,-57.5 302,-72.5 373,-72.5 373,-57.5 302,-57.5"/>
<text text-anchor="start" x="304" y="-62.5" font-family="Ubuntu" font-size="10.00">DR_ONLY</text>
<polygon fill="#b2df8a" stroke="transparent" points="373,-57.5 373,-72.5 384,-72.5 384,-57.5 373,-57.5"/>
<text text-anchor="start" x="375" y="-62.5" font-family="Ubuntu" font-size="10.00">7</text>
<polygon fill="#b2df8a" stroke="transparent" points="302,-42.5 302,-57.5 373,-57.5 373,-42.5 302,-42.5"/>
<text text-anchor="start" x="304" y="-47.5" font-family="Ubuntu" font-size="10.00">FIX_3D_DGPS</text>
<polygon fill="#b2df8a" stroke="transparent" points="373,-42.5 373,-57.5 384,-57.5 384,-42.5 373,-42.5"/>
<text text-anchor="start" x="375" y="-47.5" font-family="Ubuntu" font-size="10.00">8</text>
<polygon fill="#b2df8a" stroke="transparent" points="302,-27.5 302,-42.5 373,-42.5 373,-27.5 302,-27.5"/>
<text text-anchor="start" x="304" y="-32.5" font-family="Ubuntu" font-size="10.00">FIX_3D_RTK</text>
<polygon fill="#b2df8a" stroke="transparent" points="373,-27.5 373,-42.5 384,-42.5 384,-27.5 373,-27.5"/>
<text text-anchor="start" x="375" y="-32.5" font-family="Ubuntu" font-size="10.00">9</text>
<polygon fill="none" stroke="black" points="301,-27 301,-194 385,-194 385,-27 301,-27"/>
</a>
</g>
</g>
<!-- Node_Ja_101&#45;&gt;Node_Ja_102 -->
<g id="edge2" class="edge">
<title>Node_Ja_101:e&#45;&gt;Node_Ja_102</title>
<g id="a_edge2"><a xlink:title="Ja_101 &#45;&#45;&gt; Ja_102">
<path fill="none" stroke="#008000" d="M246,-176.5C259.46,-176.5 272.41,-172.04 284.2,-165.44"/>
<polygon fill="#008000" stroke="#008000" points="286.31,-168.25 292.98,-160.02 282.63,-162.29 286.31,-168.25"/>
</a>
</g>
</g>
</g>
</svg>
