<?xml version="1.0" encoding="UTF-8" standalone="no"?>
<!DOCTYPE svg PUBLIC "-//W3C//DTD SVG 1.1//EN"
 "http://www.w3.org/Graphics/SVG/1.1/DTD/svg11.dtd">
<!-- Generated by graphviz version 2.43.0 (0)
 -->
<!-- Title: protodot Pages: 1 -->
<svg width="492pt" height="206pt"
 viewBox="0.00 0.00 492.00 206.00" xmlns="http://www.w3.org/2000/svg" xmlns:xlink="http://www.w3.org/1999/xlink">
<g id="graph0" class="graph" transform="scale(1 1) rotate(0) translate(4 202)">
<title>protodot</title>
<g id="a_graph0"><a xlink:title="keelson">
<text text-anchor="middle" x="242" y="-7.8" font-family="Times,serif" font-size="14.00">keelson</text>
</a>
</g>
<!-- Node_Ja_101 -->
<g id="node1" class="node">
<title>Node_Ja_101</title>
<g id="a_node1"><a xlink:title="keelson.RouteEditAuthority">
<polygon fill="#fffaf0" stroke="transparent" points="8,-27 8,-194 334,-194 334,-27 8,-27"/>
<polygon fill="#e31a1c" stroke="transparent" points="9,-177.5 9,-192.5 333,-192.5 333,-177.5 9,-177.5"/>
<text text-anchor="start" x="223" y="-183.5" font-family="Ubuntu" font-weight="bold" font-size="10.00">RouteEditAuthority</text>
<text text-anchor="start" x="21" y="-167.5" font-family="Ubuntu" font-size="10.00">1</text>
<text text-anchor="start" x="32" y="-167.5" font-family="Ubuntu" font-size="10.00">route_id</text>
<polygon fill="#a6cee3" stroke="transparent" points="170,-162.5 170,-177.5 333,-177.5 333,-162.5 170,-162.5"/>
<text text-anchor="start" x="303" y="-168.5" font-family="Ubuntu" font-style="italic" font-size="10.00">string</text>
<text text-anchor="start" x="21" y="-152.5" font-family="Ubuntu" font-size="10.00">2</text>
<text text-anchor="start" x="32" y="-152.5" font-family="Ubuntu" font-size="10.00">controller_id</text>
<polygon fill="#a6cee3" stroke="transparent" points="170,-147.5 170,-162.5 333,-162.5 333,-147.5 170,-147.5"/>
<text text-anchor="start" x="303" y="-153.5" font-family="Ubuntu" font-style="italic" font-size="10.00">string</text>
<text text-anchor="start" x="21" y="-137.5" font-family="Ubuntu" font-size="10.00">3</text>
<text text-anchor="start" x="32" y="-137.5" font-family="Ubuntu" font-size="10.00">controller_site</text>
<polygon fill="#a6cee3" stroke="transparent" points="170,-132.5 170,-147.5 333,-147.5 333,-132.5 170,-132.5"/>
<text text-anchor="start" x="303" y="-138.5" font-family="Ubuntu" font-style="italic" font-size="10.00">string</text>
<text text-anchor="start" x="21" y="-122.5" font-family="Ubuntu" font-size="10.00">4</text>
<text text-anchor="start" x="32" y="-122.5" font-family="Ubuntu" font-size="10.00">token</text>
<polygon fill="#a6cee3" stroke="transparent" points="170,-117.5 170,-132.5 333,-132.5 333,-117.5 170,-117.5"/>
<text text-anchor="start" x="303" y="-123.5" font-family="Ubuntu" font-style="italic" font-size="10.00">string</text>
<text text-anchor="start" x="15" y="-107.5" font-family="Ubuntu" font-size="10.00">10</text>
<text text-anchor="start" x="32" y="-107.5" font-family="Ubuntu" font-size="10.00">granted_at</text>
<polygon fill="#fb9a99" stroke="transparent" points="170,-102.5 170,-117.5 333,-117.5 333,-102.5 170,-102.5"/>
<text text-anchor="start" x="172" y="-108.5" font-family="Ubuntu" font-weight="bold" font-size="10.00">google.protobuf.Timestamp</text>
<text text-anchor="start" x="15" y="-92.5" font-family="Ubuntu" font-size="10.00">11</text>
<text text-anchor="start" x="32" y="-92.5" font-family="Ubuntu" font-size="10.00">expires_at</text>
<polygon fill="#fb9a99" stroke="transparent" points="170,-87.5 170,-102.5 333,-102.5 333,-87.5 170,-87.5"/>
<text text-anchor="start" x="172" y="-93.5" font-family="Ubuntu" font-weight="bold" font-size="10.00">google.protobuf.Timestamp</text>
<text text-anchor="start" x="15" y="-77.5" font-family="Ubuntu" font-size="10.00">12</text>
<text text-anchor="start" x="32" y="-77.5" font-family="Ubuntu" font-size="10.00">last_heartbeat</text>
<polygon fill="#fb9a99" stroke="transparent" points="170,-72.5 170,-87.5 333,-87.5 333,-72.5 170,-72.5"/>
<text text-anchor="start" x="172" y="-78.5" font-family="Ubuntu" font-weight="bold" font-size="10.00">google.protobuf.Timestamp</text>
<text text-anchor="start" x="15" y="-62.5" font-family="Ubuntu" font-size="10.00">13</text>
<text text-anchor="start" x="32" y="-62.5" font-family="Ubuntu" font-size="10.00">lease_ttl_seconds</text>
<polygon fill="#a6cee3" stroke="transparent" points="170,-57.5 170,-72.5 333,-72.5 333,-57.5 170,-57.5"/>
<text text-anchor="start" x="300" y="-63.5" font-family="Ubuntu" font-style="italic" font-size="10.00">uint32</text>
<text text-anchor="start" x="15" y="-47.5" font-family="Ubuntu" font-size="10.00">14</text>
<text text-anchor="start" x="32" y="-47.5" font-family="Ubuntu" font-size="10.00">heartbeat_interval_seconds</text>
<polygon fill="#a6cee3" stroke="transparent" points="170,-42.5 170,-57.5 333,-57.5 333,-42.5 170,-42.5"/>
<text text-anchor="start" x="300" y="-48.5" font-family="Ubuntu" font-style="italic" font-size="10.00">uint32</text>
<text text-anchor="start" x="15" y="-32.5" font-family="Ubuntu" font-size="10.00">20</text>
<text text-anchor="start" x="32" y="-32.5" font-family="Ubuntu" font-size="10.00">released</text>
<polygon fill="#a6cee3" stroke="transparent" points="170,-27.5 170,-42.5 333,-42.5 333,-27.5 170,-27.5"/>
<text text-anchor="start" x="309" y="-33.5" font-family="Ubuntu" font-style="italic" font-size="10.00">bool</text>
<polygon fill="none" stroke="black" points="8,-27 8,-194 334,-194 334,-27 8,-27"/>
</a>
</g>
</g>
<!-- Node_Ja_100 -->
<g id="node2" class="node">
<title>Node_Ja_100</title>
<g id="a_node2"><a xlink:title="google.protobuf.Timestamp">
<polygon fill="#fffaf0" stroke="transparent" points="386,-56 386,-103 476,-103 476,-56 386,-56"/>
<polygon fill="#e31a1c" stroke="transparent" points="387,-86.5 387,-101.5 475,-101.5 475,-86.5 387,-86.5"/>
<text text-anchor="start" x="409" y="-92.5" font-family="Ubuntu" font-weight="bold" font-size="10.00">Timestamp</text>
<text text-anchor="start" x="393" y="-76.5" font-family="Ubuntu" font-size="10.00">1</text>
<text text-anchor="start" x="404" y="-76.5" font-family="Ubuntu" font-size="10.00">seconds</text>
<polygon fill="#a6cee3" stroke="transparent" points="446,-71.5 446,-86.5 475,-86.5 475,-71.5 446,-71.5"/>
<text text-anchor="start" x="448" y="-77.5" font-family="Ubuntu" font-style="italic" font-size="10.00">int64</text>
<text text-anchor="start" x="393" y="-61.5" font-family="Ubuntu" font-size="10.00">2</text>
<text text-anchor="start" x="404" y="-61.5" font-family="Ubuntu" font-size="10.00">nanos</text>
<polygon fill="#a6cee3" stroke="transparent" points="446,-56.5 446,-71.5 475,-71.5 475,-56.5 446,-56.5"/>
<text text-anchor="start" x="448" y="-62.5" font-family="Ubuntu" font-style="italic" font-size="10.00">int32</text>
<polygon fill="none" stroke="black" points="386,-56 386,-103 476,-103 476,-56 386,-56"/>
</a>
</g>
</g>
<!-- Node_Ja_101&#45;&gt;Node_Ja_100 -->
<g id="edge1" class="edge">
<title>Node_Ja_101:e&#45;&gt;Node_Ja_100:header</title>
<g id="a_edge1"><a xlink:title="Ja_101 &#45;&#45;&gt; Ja_100">
<path fill="none" stroke="#000000" d="M334,-109.5C354.3,-109.5 360.24,-98.82 376.05,-95.48"/>
<polygon fill="#000000" stroke="#000000" points="376.39,-98.97 386,-94.5 375.7,-92 376.39,-98.97"/>
</a>
</g>
</g>
<!-- Node_Ja_101&#45;&gt;Node_Ja_100 -->
<g id="edge2" class="edge">
<title>Node_Ja_101:e&#45;&gt;Node_Ja_100:header</title>
<g id="a_edge2"><a xlink:title="Ja_101 &#45;&#45;&gt; Ja_100">
<path fill="none" stroke="#000000" d="M334,-94.5C353.32,-94.5 360.53,-94.5 375.87,-94.5"/>
<polygon fill="#000000" stroke="#000000" points="376,-98 386,-94.5 376,-91 376,-98"/>
</a>
</g>
</g>
<!-- Node_Ja_101&#45;&gt;Node_Ja_100 -->
<g id="edge3" class="edge">
<title>Node_Ja_101:e&#45;&gt;Node_Ja_100:header</title>
<g id="a_edge3"><a xlink:title="Ja_101 &#45;&#45;&gt; Ja_100">
<path fill="none" stroke="#000000" d="M334,-79.5C354.3,-79.5 360.24,-90.18 376.05,-93.52"/>
<polygon fill="#000000" stroke="#000000" points="375.7,-97 386,-94.5 376.39,-90.03 375.7,-97"/>
</a>
</g>
</g>
</g>
</svg>
