<?xml version="1.0" encoding="UTF-8" standalone="no"?>
<!DOCTYPE svg PUBLIC "-//W3C//DTD SVG 1.1//EN"
 "http://www.w3.org/Graphics/SVG/1.1/DTD/svg11.dtd">
<!-- Generated by graphviz version 2.43.0 (0)
 -->
<!-- Title: protodot Pages: 1 -->
<svg width="420pt" height="147pt"
 viewBox="0.00 0.00 420.00 147.00" xmlns="http://www.w3.org/2000/svg" xmlns:xlink="http://www.w3.org/1999/xlink">
<g id="graph0" class="graph" transform="scale(1 1) rotate(0) translate(4 143)">
<title>protodot</title>
<g id="a_graph0"><a xlink:title="keelson">
<text text-anchor="middle" x="206" y="-7.8" font-family="Times,serif" font-size="14.00">keelson</text>
</a>
</g>
<!-- Node_Ja_102 -->
<g id="node1" class="node">
<title>Node_Ja_102</title>
<g id="a_node1"><a xlink:title="keelson.RouteEditRequest">
<polygon fill="#fffaf0" stroke="transparent" points="8,-28 8,-135 262,-135 262,-28 8,-28"/>
<polygon fill="#e31a1c" stroke="transparent" points="9,-118.5 9,-133.5 261,-133.5 261,-118.5 9,-118.5"/>
<text text-anchor="start" x="158" y="-124.5" font-family="Ubuntu" font-weight="bold" font-size="10.00">RouteEditRequest</text>
<text text-anchor="start" x="15" y="-108.5" font-family="Ubuntu" font-size="10.00">1</text>
<text text-anchor="start" x="26" y="-108.5" font-family="Ubuntu" font-size="10.00">route_id</text>
<polygon fill="#a6cee3" stroke="transparent" points="98,-103.5 98,-118.5 261,-118.5 261,-103.5 98,-103.5"/>
<text text-anchor="start" x="231" y="-109.5" font-family="Ubuntu" font-style="italic" font-size="10.00">string</text>
<text text-anchor="start" x="15" y="-93.5" font-family="Ubuntu" font-size="10.00">2</text>
<text text-anchor="start" x="26" y="-93.5" font-family="Ubuntu" font-size="10.00">requester_id</text>
<polygon fill="#a6cee3" stroke="transparent" points="98,-88.5 98,-103.5 261,-103.5 261,-88.5 98,-88.5"/>
<text text-anchor="start" x="231" y="-94.5" font-family="Ubuntu" font-style="italic" font-size="10.00">string</text>
<text text-anchor="start" x="15" y="-78.5" font-family="Ubuntu" font-size="10.00">3</text>
<text text-anchor="start" x="26" y="-78.5" font-family="Ubuntu" font-size="10.00">requester_site</text>
<polygon fill="#a6cee3" stroke="transparent" points="98,-73.5 98,-88.5 261,-88.5 261,-73.5 98,-73.5"/>
<text text-anchor="start" x="231" y="-79.5" font-family="Ubuntu" font-style="italic" font-size="10.00">string</text>
<text text-anchor="start" x="15" y="-63.5" font-family="Ubuntu" font-size="10.00">4</text>
<text text-anchor="start" x="26" y="-63.5" font-family="Ubuntu" font-size="10.00">requested_at</text>
<polygon fill="#fb9a99" stroke="transparent" points="98,-58.5 98,-73.5 261,-73.5 261,-58.5 98,-58.5"/>
<text text-anchor="start" x="100" y="-64.5" font-family="Ubuntu" font-weight="bold" font-size="10.00">google.protobuf.Timestamp</text>
<text text-anchor="start" x="15" y="-48.5" font-family="Ubuntu" font-size="10.00">5</text>
<text text-anchor="start" x="26" y="-48.5" font-family="Ubuntu" font-size="10.00">reason</text>
<polygon fill="#a6cee3" stroke="transparent" points="98,-43.5 98,-58.5 261,-58.5 261,-43.5 98,-43.5"/>
<text text-anchor="start" x="231" y="-49.5" font-family="Ubuntu" font-style="italic" font-size="10.00">string</text>
<text text-anchor="start" x="15" y="-33.5" font-family="Ubuntu" font-size="10.00">6</text>
<text text-anchor="start" x="26" y="-33.5" font-family="Ubuntu" font-size="10.00">force</text>
<polygon fill="#a6cee3" stroke="transparent" points="98,-28.5 98,-43.5 261,-43.5 261,-28.5 98,-28.5"/>
<text text-anchor="start" x="237" y="-34.5" font-family="Ubuntu" font-style="italic" font-size="10.00">bool</text>
<polygon fill="none" stroke="black" points="8,-28 8,-135 262,-135 262,-28 8,-28"/>
</a>
</g>
</g>
<!-- Node_Ja_100 -->
<g id="node2" class="node">
<title>Node_Ja_100</title>
<g id="a_node2"><a xlink:title="google.protobuf.Timestamp">
<polygon fill="#fffaf0" stroke="transparent" points="314,-27 314,-74 404,-74 404,-27 314,-27"/>
<polygon fill="#e31a1c" stroke="transparent" points="315,-57.5 315,-72.5 403,-72.5 403,-57.5 315,-57.5"/>
<text text-anchor="start" x="337" y="-63.5" font-family="Ubuntu" font-weight="bold" font-size="10.00">Timestamp</text>
<text text-anchor="start" x="321" y="-47.5" font-family="Ubuntu" font-size="10.00">1</text>
<text text-anchor="start" x="332" y="-47.5" font-family="Ubuntu" font-size="10.00">seconds</text>
<polygon fill="#a6cee3" stroke="transparent" points="374,-42.5 374,-57.5 403,-57.5 403,-42.5 374,-42.5"/>
<text text-anchor="start" x="376" y="-48.5" font-family="Ubuntu" font-style="italic" font-size="10.00">int64</text>
<text text-anchor="start" x="321" y="-32.5" font-family="Ubuntu" font-size="10.00">2</text>
<text text-anchor="start" x="332" y="-32.5" font-family="Ubuntu" font-size="10.00">nanos</text>
<polygon fill="#a6cee3" stroke="transparent" points="374,-27.5 374,-42.5 403,-42.5 403,-27.5 374,-27.5"/>
<text text-anchor="start" x="376" y="-33.5" font-family="Ubuntu" font-style="italic" font-size="10.00">int32</text>
<polygon fill="none" stroke="black" points="314,-27 314,-74 404,-74 404,-27 314,-27"/>
</a>
</g>
</g>
<!-- Node_Ja_102&#45;&gt;Node_Ja_100 -->
<g id="edge1" class="edge">
<title>Node_Ja_102:e&#45;&gt;Node_Ja_100:header</title>
<g id="a_edge1"><a xlink:title="Ja_102 &#45;&#45;&gt; Ja_100">
<path fill="none" stroke="#000000" d="M262,-65.5C281.32,-65.5 288.53,-65.5 303.87,-65.5"/>
<polygon fill="#000000" stroke="#000000" points="304,-69 314,-65.5 304,-62 304,-69"/>
</a>
</g>
</g>
</g>
</svg>
