<?xml version="1.0" encoding="UTF-8" standalone="no"?>
<!DOCTYPE svg PUBLIC "-//W3C//DTD SVG 1.1//EN"
 "http://www.w3.org/Graphics/SVG/1.1/DTD/svg11.dtd">
<!-- Generated by graphviz version 2.43.0 (0)
 -->
<!-- Title: protodot Pages: 1 -->
<svg width="404pt" height="189pt"
 viewBox="0.00 0.00 404.00 189.00" xmlns="http://www.w3.org/2000/svg" xmlns:xlink="http://www.w3.org/1999/xlink">
<g id="graph0" class="graph" transform="scale(1 1) rotate(0) translate(4 185)">
<title>protodot</title>
<g id="a_graph0"><a xlink:title="keelson">
<text text-anchor="middle" x="198" y="-7.8" font-family="Times,serif" font-size="14.00">keelson</text>
</a>
</g>
<!-- Node_Ja_102 -->
<g id="node1" class="node">
<title>Node_Ja_102</title>
<g id="a_node1"><a xlink:title="foxglove.Quaternion">
<polygon fill="#fffaf0" stroke="transparent" points="308.5,-27 308.5,-104 377.5,-104 377.5,-27 308.5,-27"/>
<polygon fill="#e31a1c" stroke="transparent" points="310,-87.5 310,-102.5 377,-102.5 377,-87.5 310,-87.5"/>
<text text-anchor="start" x="312" y="-93.5" font-family="Ubuntu" font-weight="bold" font-size="10.00">Quaternion</text>
<text text-anchor="start" x="316" y="-77.5" font-family="Ubuntu" font-size="10.00">1</text>
<text text-anchor="start" x="327" y="-77.5" font-family="Ubuntu" font-size="10.00">x</text>
<polygon fill="#a6cee3" stroke="transparent" points="338,-72.5 338,-87.5 377,-87.5 377,-72.5 338,-72.5"/>
<text text-anchor="start" x="341" y="-78.5" font-family="Ubuntu" font-style="italic" font-size="10.00">double</text>
<text text-anchor="start" x="316" y="-62.5" font-family="Ubuntu" font-size="10.00">2</text>
<text text-anchor="start" x="327" y="-62.5" font-family="Ubuntu" font-size="10.00">y</text>
<polygon fill="#a6cee3" stroke="transparent" points="338,-57.5 338,-72.5 377,-72.5 377,-57.5 338,-57.5"/>
<text text-anchor="start" x="341" y="-63.5" font-family="Ubuntu" font-style="italic" font-size="10.00">double</text>
<text text-anchor="start" x="316" y="-47.5" font-family="Ubuntu" font-size="10.00">3</text>
<text text-anchor="start" x="327" y="-47.5" font-family="Ubuntu" font-size="10.00">z</text>
<polygon fill="#a6cee3" stroke="transparent" points="338,-42.5 338,-57.5 377,-57.5 377,-42.5 338,-42.5"/>
<text text-anchor="start" x="341" y="-48.5" font-family="Ubuntu" font-style="italic" font-size="10.00">double</text>
<text text-anchor="start" x="316" y="-32.5" font-family="Ubuntu" font-size="10.00">4</text>
<text text-anchor="start" x="327" y="-32.5" font-family="Ubuntu" font-size="10.00">w</text>
<polygon fill="#a6cee3" stroke="transparent" points="338,-27.5 338,-42.5 377,-42.5 377,-27.5 338,-27.5"/>
<text text-anchor="start" x="341" y="-33.5" font-family="Ubuntu" font-style="italic" font-size="10.00">double</text>
<polygon fill="none" stroke="black" points="308.5,-27 308.5,-104 377.5,-104 377.5,-27 308.5,-27"/>
</a>
</g>
</g>
<!-- Node_Ja_100 -->
<g id="node2" class="node">
<title>Node_Ja_100</title>
<g id="a_node2"><a xlink:title="google.protobuf.Timestamp">
<polygon fill="#fffaf0" stroke="transparent" points="298,-130 298,-177 388,-177 388,-130 298,-130"/>
<polygon fill="#e31a1c" stroke="transparent" points="299,-160.5 299,-175.5 387,-175.5 387,-160.5 299,-160.5"/>
<text text-anchor="start" x="321" y="-166.5" font-family="Ubuntu" font-weight="bold" font-size="10.00">Timestamp</text>
<text text-anchor="start" x="305" y="-150.5" font-family="Ubuntu" font-size="10.00">1</text>
<text text-anchor="start" x="316" y="-150.5" font-family="Ubuntu" font-size="10.00">seconds</text>
<polygon fill="#a6cee3" stroke="transparent" points="358,-145.5 358,-160.5 387,-160.5 387,-145.5 358,-145.5"/>
<text text-anchor="start" x="360" y="-151.5" font-family="Ubuntu" font-style="italic" font-size="10.00">int64</text>
<text text-anchor="start" x="305" y="-135.5" font-family="Ubuntu" font-size="10.00">2</text>
<text text-anchor="start" x="316" y="-135.5" font-family="Ubuntu" font-size="10.00">nanos</text>
<polygon fill="#a6cee3" stroke="transparent" points="358,-130.5 358,-145.5 387,-145.5 387,-130.5 358,-130.5"/>
<text text-anchor="start" x="360" y="-136.5" font-family="Ubuntu" font-style="italic" font-size="10.00">int32</text>
<polygon fill="none" stroke="black" points="298,-130 298,-177 388,-177 388,-130 298,-130"/>
</a>
</g>
</g>
<!-- Node_Ja_112 -->
<g id="node3" class="node">
<title>Node_Ja_112</title>
<g id="a_node3"><a xlink:title="keelson.TimestampedQuaternion">
<polygon fill="#fffaf0" stroke="transparent" points="8,-117 8,-164 246,-164 246,-117 8,-117"/>
<polygon fill="#e31a1c" stroke="transparent" points="9,-147.5 9,-162.5 245,-162.5 245,-147.5 9,-147.5"/>
<text text-anchor="start" x="103" y="-153.5" font-family="Ubuntu" font-weight="bold" font-size="10.00">TimestampedQuaternion</text>
<text text-anchor="start" x="15" y="-137.5" font-family="Ubuntu" font-size="10.00">1</text>
<text text-anchor="start" x="26" y="-137.5" font-family="Ubuntu" font-size="10.00">timestamp</text>
<polygon fill="#fb9a99" stroke="transparent" points="82,-132.5 82,-147.5 245,-147.5 245,-132.5 82,-132.5"/>
<text text-anchor="start" x="84" y="-138.5" font-family="Ubuntu" font-weight="bold" font-size="10.00">google.protobuf.Timestamp</text>
<text text-anchor="start" x="15" y="-122.5" font-family="Ubuntu" font-size="10.00">2</text>
<text text-anchor="start" x="26" y="-122.5" font-family="Ubuntu" font-size="10.00">value</text>
<polygon fill="#fb9a99" stroke="transparent" points="82,-117.5 82,-132.5 245,-132.5 245,-117.5 82,-117.5"/>
<text text-anchor="start" x="127" y="-123.5" font-family="Ubuntu" font-weight="bold" font-size="10.00">foxglove.Quaternion</text>
<polygon fill="none" stroke="black" points="8,-117 8,-164 246,-164 246,-117 8,-117"/>
</a>
</g>
</g>
<!-- Node_Ja_112&#45;&gt;Node_Ja_102 -->
<g id="edge1" class="edge">
<title>Node_Ja_112:e&#45;&gt;Node_Ja_102:header</title>
<g id="a_edge1"><a xlink:title="Ja_112 &#45;&#45;&gt; Ja_102">
<path fill="none" stroke="#000000" d="M246,-124.5C273.09,-124.5 277.42,-102.1 298.99,-96.67"/>
<polygon fill="#000000" stroke="#000000" points="299.48,-100.14 309,-95.5 298.66,-93.19 299.48,-100.14"/>
</a>
</g>
</g>
<!-- Node_Ja_112&#45;&gt;Node_Ja_100 -->
<g id="edge2" class="edge">
<title>Node_Ja_112:e&#45;&gt;Node_Ja_100:header</title>
<g id="a_edge2"><a xlink:title="Ja_112 &#45;&#45;&gt; Ja_100">
<path fill="none" stroke="#000000" d="M246,-139.5C268.53,-139.5 271.21,-160.53 287.85,-166.77"/>
<polygon fill="#000000" stroke="#000000" points="287.55,-170.27 298,-168.5 288.73,-163.37 287.55,-170.27"/>
</a>
</g>
</g>
</g>
</svg>
