<?xml version="1.0" encoding="UTF-8" standalone="no"?>
<!DOCTYPE svg PUBLIC "-//W3C//DTD SVG 1.1//EN"
 "http://www.w3.org/Graphics/SVG/1.1/DTD/svg11.dtd">
<!-- Generated by graphviz version 2.43.0 (0)
 -->
<!-- Title: protodot Pages: 1 -->
<svg width="447pt" height="237pt"
 viewBox="0.00 0.00 447.00 237.00" xmlns="http://www.w3.org/2000/svg" xmlns:xlink="http://www.w3.org/1999/xlink">
<g id="graph0" class="graph" transform="scale(1 1) rotate(0) translate(4 233)">
<title>protodot</title>
<g id="a_graph0"><a xlink:title="keelson">
<text text-anchor="middle" x="219.5" y="-7.8" font-family="Times,serif" font-size="14.00">keelson</text>
</a>
</g>
<!-- Node_Ja_102 -->
<g id="node1" class="node">
<title>Node_Ja_102</title>
<g id="a_node1"><a xlink:title="keelson.RouteChangeEvent">
<polygon fill="#fffaf0" stroke="transparent" points="8,-58 8,-225 286,-225 286,-58 8,-58"/>
<polygon fill="#e31a1c" stroke="transparent" points="9,-208.5 9,-223.5 285,-223.5 285,-208.5 9,-208.5"/>
<text text-anchor="start" x="177" y="-214.5" font-family="Ubuntu" font-weight="bold" font-size="10.00">RouteChangeEvent</text>
<text text-anchor="start" x="21" y="-198.5" font-family="Ubuntu" font-size="10.00">1</text>
<text text-anchor="start" x="32" y="-198.5" font-family="Ubuntu" font-size="10.00">change_id</text>
<polygon fill="#a6cee3" stroke="transparent" points="122,-193.5 122,-208.5 285,-208.5 285,-193.5 122,-193.5"/>
<text text-anchor="start" x="255" y="-199.5" font-family="Ubuntu" font-style="italic" font-size="10.00">string</text>
<text text-anchor="start" x="21" y="-183.5" font-family="Ubuntu" font-size="10.00">2</text>
<text text-anchor="start" x="32" y="-183.5" font-family="Ubuntu" font-size="10.00">route_id</text>
<polygon fill="#a6cee3" stroke="transparent" points="122,-178.5 122,-193.5 285,-193.5 285,-178.5 122,-178.5"/>
<text text-anchor="start" x="255" y="-184.5" font-family="Ubuntu" font-style="italic" font-size="10.00">string</text>
<text text-anchor="start" x="21" y="-168.5" font-family="Ubuntu" font-size="10.00">3</text>
<text text-anchor="start" x="32" y="-168.5" font-family="Ubuntu" font-size="10.00">old_edition</text>
<polygon fill="#a6cee3" stroke="transparent" points="122,-163.5 122,-178.5 285,-178.5 285,-163.5 122,-163.5"/>
<text text-anchor="start" x="252" y="-169.5" font-family="Ubuntu" font-style="italic" font-size="10.00">uint32</text>
<text text-anchor="start" x="21" y="-153.5" font-family="Ubuntu" font-size="10.00">4</text>
<text text-anchor="start" x="32" y="-153.5" font-family="Ubuntu" font-size="10.00">new_edition</text>
<polygon fill="#a6cee3" stroke="transparent" points="122,-148.5 122,-163.5 285,-163.5 285,-148.5 122,-148.5"/>
<text text-anchor="start" x="252" y="-154.5" font-family="Ubuntu" font-style="italic" font-size="10.00">uint32</text>
<text text-anchor="start" x="21" y="-138.5" font-family="Ubuntu" font-size="10.00">5</text>
<text text-anchor="start" x="32" y="-138.5" font-family="Ubuntu" font-size="10.00">at</text>
<polygon fill="#fb9a99" stroke="transparent" points="122,-133.5 122,-148.5 285,-148.5 285,-133.5 122,-133.5"/>
<text text-anchor="start" x="124" y="-139.5" font-family="Ubuntu" font-weight="bold" font-size="10.00">google.protobuf.Timestamp</text>
<text text-anchor="start" x="21" y="-123.5" font-family="Ubuntu" font-size="10.00">6</text>
<text text-anchor="start" x="32" y="-123.5" font-family="Ubuntu" font-size="10.00">author_id</text>
<polygon fill="#a6cee3" stroke="transparent" points="122,-118.5 122,-133.5 285,-133.5 285,-118.5 122,-118.5"/>
<text text-anchor="start" x="255" y="-124.5" font-family="Ubuntu" font-style="italic" font-size="10.00">string</text>
<text text-anchor="start" x="21" y="-108.5" font-family="Ubuntu" font-size="10.00">7</text>
<text text-anchor="start" x="32" y="-108.5" font-family="Ubuntu" font-size="10.00">author_site</text>
<polygon fill="#a6cee3" stroke="transparent" points="122,-103.5 122,-118.5 285,-118.5 285,-103.5 122,-103.5"/>
<text text-anchor="start" x="255" y="-109.5" font-family="Ubuntu" font-style="italic" font-size="10.00">string</text>
<text text-anchor="start" x="21" y="-93.5" font-family="Ubuntu" font-size="10.00">8</text>
<text text-anchor="start" x="32" y="-93.5" font-family="Ubuntu" font-size="10.00">reason</text>
<polygon fill="#a6cee3" stroke="transparent" points="122,-88.5 122,-103.5 285,-103.5 285,-88.5 122,-88.5"/>
<text text-anchor="start" x="255" y="-94.5" font-family="Ubuntu" font-style="italic" font-size="10.00">string</text>
<text text-anchor="start" x="21" y="-78.5" font-family="Ubuntu" font-size="10.00">9</text>
<text text-anchor="start" x="32" y="-78.5" font-family="Ubuntu" font-size="10.00">change_summary</text>
<polygon fill="#a6cee3" stroke="transparent" points="122,-73.5 122,-88.5 285,-88.5 285,-73.5 122,-73.5"/>
<text text-anchor="start" x="255" y="-79.5" font-family="Ubuntu" font-style="italic" font-size="10.00">string</text>
<text text-anchor="start" x="15" y="-63.5" font-family="Ubuntu" font-size="10.00">10</text>
<text text-anchor="start" x="32" y="-63.5" font-family="Ubuntu" font-size="10.00">diff</text>
<polygon fill="#fb9a99" stroke="transparent" points="122,-58.5 122,-73.5 285,-73.5 285,-58.5 122,-58.5"/>
<text text-anchor="start" x="166" y="-64.5" font-family="Ubuntu" font-weight="bold" font-size="10.00">google.protobuf.Any</text>
<polygon fill="none" stroke="black" points="8,-58 8,-225 286,-225 286,-58 8,-58"/>
</a>
</g>
</g>
<!-- Node_Ja_100 -->
<g id="node2" class="node">
<title>Node_Ja_100</title>
<g id="a_node2"><a xlink:title="google.protobuf.Timestamp">
<polygon fill="#fffaf0" stroke="transparent" points="339.5,-102 339.5,-149 429.5,-149 429.5,-102 339.5,-102"/>
<polygon fill="#e31a1c" stroke="transparent" points="340.5,-132.5 340.5,-147.5 428.5,-147.5 428.5,-132.5 340.5,-132.5"/>
<text text-anchor="start" x="362.5" y="-138.5" font-family="Ubuntu" font-weight="bold" font-size="10.00">Timestamp</text>
<text text-anchor="start" x="346.5" y="-122.5" font-family="Ubuntu" font-size="10.00">1</text>
<text text-anchor="start" x="357.5" y="-122.5" font-family="Ubuntu" font-size="10.00">seconds</text>
<polygon fill="#a6cee3" stroke="transparent" points="399.5,-117.5 399.5,-132.5 428.5,-132.5 428.5,-117.5 399.5,-117.5"/>
<text text-anchor="start" x="401.5" y="-123.5" font-family="Ubuntu" font-style="italic" font-size="10.00">int64</text>
<text text-anchor="start" x="346.5" y="-107.5" font-family="Ubuntu" font-size="10.00">2</text>
<text text-anchor="start" x="357.5" y="-107.5" font-family="Ubuntu" font-size="10.00">nanos</text>
<polygon fill="#a6cee3" stroke="transparent" points="399.5,-102.5 399.5,-117.5 428.5,-117.5 428.5,-102.5 399.5,-102.5"/>
<text text-anchor="start" x="401.5" y="-108.5" font-family="Ubuntu" font-style="italic" font-size="10.00">int32</text>
<polygon fill="none" stroke="black" points="339.5,-102 339.5,-149 429.5,-149 429.5,-102 339.5,-102"/>
</a>
</g>
</g>
<!-- Node_Ja_102&#45;&gt;Node_Ja_100 -->
<g id="edge1" class="edge">
<title>Node_Ja_102:e&#45;&gt;Node_Ja_100:header</title>
<g id="a_edge1"><a xlink:title="Ja_102 &#45;&#45;&gt; Ja_100">
<path fill="none" stroke="#000000" d="M286,-140.5C305.88,-140.5 313.29,-140.5 329.08,-140.5"/>
<polygon fill="#000000" stroke="#000000" points="329.5,-144 339.5,-140.5 329.5,-137 329.5,-144"/>
</a>
</g>
</g>
<!-- Node_Ja_101 -->
<g id="node3" class="node">
<title>Node_Ja_101</title>
<g id="a_node3"><a xlink:title="google.protobuf.Any">
<polygon fill="#fffaf0" stroke="transparent" points="338,-27 338,-74 431,-74 431,-27 338,-27"/>
<polygon fill="#e31a1c" stroke="transparent" points="339.5,-57.5 339.5,-72.5 430.5,-72.5 430.5,-57.5 339.5,-57.5"/>
<text text-anchor="start" x="406.5" y="-63.5" font-family="Ubuntu" font-weight="bold" font-size="10.00">Any</text>
<text text-anchor="start" x="345.5" y="-47.5" font-family="Ubuntu" font-size="10.00">1</text>
<text text-anchor="start" x="356.5" y="-47.5" font-family="Ubuntu" font-size="10.00">type_url</text>
<polygon fill="#a6cee3" stroke="transparent" points="398.5,-42.5 398.5,-57.5 430.5,-57.5 430.5,-42.5 398.5,-42.5"/>
<text text-anchor="start" x="400.5" y="-48.5" font-family="Ubuntu" font-style="italic" font-size="10.00">string</text>
<text text-anchor="start" x="345.5" y="-32.5" font-family="Ubuntu" font-size="10.00">2</text>
<text text-anchor="start" x="356.5" y="-32.5" font-family="Ubuntu" font-size="10.00">value</text>
<polygon fill="#a6cee3" stroke="transparent" points="398.5,-27.5 398.5,-42.5 430.5,-42.5 430.5,-27.5 398.5,-27.5"/>
<text text-anchor="start" x="400.5" y="-33.5" font-family="Ubuntu" font-style="italic" font-size="10.00">bytes</text>
<polygon fill="none" stroke="black" points="338,-27 338,-74 431,-74 431,-27 338,-27"/>
</a>
</g>
</g>
<!-- Node_Ja_102&#45;&gt;Node_Ja_101 -->
<g id="edge2" class="edge">
<title>Node_Ja_102:e&#45;&gt;Node_Ja_101:header</title>
<g id="a_edge2"><a xlink:title="Ja_102 &#45;&#45;&gt; Ja_101">
<path fill="none" stroke="#000000" d="M286,-65.5C305.51,-65.5 312.78,-65.5 328.27,-65.5"/>
<polygon fill="#000000" stroke="#000000" points="328.5,-69 338.5,-65.5 328.5,-62 328.5,-69"/>
</a>
</g>
</g>
</g>
</svg>
