<?xml version="1.0" encoding="UTF-8" standalone="no"?>
<!DOCTYPE svg PUBLIC "-//W3C//DTD SVG 1.1//EN"
 "http://www.w3.org/Graphics/SVG/1.1/DTD/svg11.dtd">
<!-- Generated by graphviz version 2.43.0 (0)
 -->
<!-- Title: protodot Pages: 1 -->
<svg width="406pt" height="145pt"
 viewBox="0.00 0.00 406.00 144.50" xmlns="http://www.w3.org/2000/svg" xmlns:xlink="http://www.w3.org/1999/xlink">
<g id="graph0" class="graph" transform="scale(1 1) rotate(0) translate(4 140.5)">
<title>protodot</title>
<g id="a_graph0"><a xlink:title="keelson">
<text text-anchor="middle" x="199" y="-7.8" font-family="Times,serif" font-size="14.00">keelson</text>
</a>
</g>
<!-- Node_Ja_102 -->
<g id="node1" class="node">
<title>Node_Ja_102</title>
<g id="a_node1"><a xlink:title="keelson.TimestampedGeoJSON">
<polygon fill="#fffaf0" stroke="transparent" points="8,-72.5 8,-119.5 246,-119.5 246,-72.5 8,-72.5"/>
<polygon fill="#e31a1c" stroke="transparent" points="9,-103 9,-118 245,-118 245,-103 9,-103"/>
<text text-anchor="start" x="116" y="-109" font-family="Ubuntu" font-weight="bold" font-size="10.00">TimestampedGeoJSON</text>
<text text-anchor="start" x="15" y="-93" font-family="Ubuntu" font-size="10.00">1</text>
<text text-anchor="start" x="26" y="-93" font-family="Ubuntu" font-size="10.00">timestamp</text>
<polygon fill="#fb9a99" stroke="transparent" points="82,-88 82,-103 245,-103 245,-88 82,-88"/>
<text text-anchor="start" x="84" y="-94" font-family="Ubuntu" font-weight="bold" font-size="10.00">google.protobuf.Timestamp</text>
<text text-anchor="start" x="15" y="-78" font-family="Ubuntu" font-size="10.00">2</text>
<text text-anchor="start" x="26" y="-78" font-family="Ubuntu" font-size="10.00">geojson</text>
<polygon fill="#fb9a99" stroke="transparent" points="82,-73 82,-88 245,-88 245,-73 82,-73"/>
<text text-anchor="start" x="140" y="-79" font-family="Ubuntu" font-weight="bold" font-size="10.00">foxglove.GeoJSON</text>
<polygon fill="none" stroke="black" points="8,-72.5 8,-119.5 246,-119.5 246,-72.5 8,-72.5"/>
</a>
</g>
</g>
<!-- Node_Ja_100 -->
<g id="node2" class="node">
<title>Node_Ja_100</title>
<g id="a_node2"><a xlink:title="google.protobuf.Timestamp">
<polygon fill="#fffaf0" stroke="transparent" points="299,-85.5 299,-132.5 389,-132.5 389,-85.5 299,-85.5"/>
<polygon fill="#e31a1c" stroke="transparent" points="300,-116 300,-131 388,-131 388,-116 300,-116"/>
<text text-anchor="start" x="322" y="-122" font-family="Ubuntu" font-weight="bold" font-size="10.00">Timestamp</text>
<text text-anchor="start" x="306" y="-106" font-family="Ubuntu" font-size="10.00">1</text>
<text text-anchor="start" x="317" y="-106" font-family="Ubuntu" font-size="10.00">seconds</text>
<polygon fill="#a6cee3" stroke="transparent" points="359,-101 359,-116 388,-116 388,-101 359,-101"/>
<text text-anchor="start" x="361" y="-107" font-family="Ubuntu" font-style="italic" font-size="10.00">int64</text>
<text text-anchor="start" x="306" y="-91" font-family="Ubuntu" font-size="10.00">2</text>
<text text-anchor="start" x="317" y="-91" font-family="Ubuntu" font-size="10.00">nanos</text>
<polygon fill="#a6cee3" stroke="transparent" points="359,-86 359,-101 388,-101 388,-86 359,-86"/>
<text text-anchor="start" x="361" y="-92" font-family="Ubuntu" font-style="italic" font-size="10.00">int32</text>
<polygon fill="none" stroke="black" points="299,-85.5 299,-132.5 389,-132.5 389,-85.5 299,-85.5"/>
</a>
</g>
</g>
<!-- Node_Ja_102&#45;&gt;Node_Ja_100 -->
<g id="edge1" class="edge">
<title>Node_Ja_102:e&#45;&gt;Node_Ja_100:header</title>
<g id="a_edge1"><a xlink:title="Ja_102 &#45;&#45;&gt; Ja_100">
<path fill="none" stroke="#000000" d="M246,-95C268.87,-95 271.75,-116.03 288.68,-122.27"/>
<polygon fill="#000000" stroke="#000000" points="288.56,-125.8 299,-124 289.72,-118.9 288.56,-125.8"/>
</a>
</g>
</g>
<!-- Node_Ja_101 -->
<g id="node3" class="node">
<title>Node_Ja_101</title>
<g id="a_node3"><a xlink:title="foxglove.GeoJSON">
<polygon fill="#fffaf0" stroke="transparent" points="298,-27 298,-59 390,-59 390,-27 298,-27"/>
<polygon fill="#e31a1c" stroke="transparent" points="299,-43 299,-58 389,-58 389,-43 299,-43"/>
<text text-anchor="start" x="337" y="-49" font-family="Ubuntu" font-weight="bold" font-size="10.00">GeoJSON</text>
<text text-anchor="start" x="305" y="-33" font-family="Ubuntu" font-size="10.00">1</text>
<text text-anchor="start" x="316" y="-33" font-family="Ubuntu" font-size="10.00">geojson</text>
<polygon fill="#a6cee3" stroke="transparent" points="357,-28 357,-43 389,-43 389,-28 357,-28"/>
<text text-anchor="start" x="359" y="-34" font-family="Ubuntu" font-style="italic" font-size="10.00">string</text>
<polygon fill="none" stroke="black" points="298,-27 298,-59 390,-59 390,-27 298,-27"/>
</a>
</g>
</g>
<!-- Node_Ja_102&#45;&gt;Node_Ja_101 -->
<g id="edge2" class="edge">
<title>Node_Ja_102:e&#45;&gt;Node_Ja_101:header</title>
<g id="a_edge2"><a xlink:title="Ja_102 &#45;&#45;&gt; Ja_101">
<path fill="none" stroke="#000000" d="M246,-80C268.53,-80 271.21,-58.97 287.85,-52.73"/>
<polygon fill="#000000" stroke="#000000" points="288.73,-56.13 298,-51 287.55,-49.23 288.73,-56.13"/>
</a>
</g>
</g>
</g>
</svg>
