<?xml version="1.0" encoding="UTF-8" standalone="no"?>
<!DOCTYPE svg PUBLIC "-//W3C//DTD SVG 1.1//EN"
 "http://www.w3.org/Graphics/SVG/1.1/DTD/svg11.dtd">
<!-- Generated by graphviz version 2.43.0 (0)
 -->
<!-- Title: protodot Pages: 1 -->
<svg width="475pt" height="191pt"
 viewBox="0.00 0.00 475.00 191.00" xmlns="http://www.w3.org/2000/svg" xmlns:xlink="http://www.w3.org/1999/xlink">
<g id="graph0" class="graph" transform="scale(1 1) rotate(0) translate(4 187)">
<title>protodot</title>
<g id="clust1" class="cluster">
<title>cluster_ac8d7b3b7cac</title>
<g id="a_clust1"><a xlink:title="google/protobuf/empty.proto">
<polygon fill="#caff70" stroke="black" points="319,-100 319,-175 421,-175 421,-100 319,-100"/>
<text text-anchor="middle" x="370" y="-159.8" font-family="Times,serif" font-size="14.00">empty.proto</text>
</a>
</g>
</g>
<!-- Node_Ja_100 -->
<g id="node1" class="node">
<title>Node_Ja_100</title>
<g id="a_node1"><a xlink:title="google.protobuf.Empty">
<polygon fill="#fffaf0" stroke="transparent" points="347,-117.5 347,-134.5 393,-134.5 393,-117.5 347,-117.5"/>
<polygon fill="#e31a1c" stroke="transparent" points="348,-118 348,-133 392,-133 392,-118 348,-118"/>
<text text-anchor="start" x="353" y="-124" font-family="Ubuntu" font-weight="bold" font-size="10.00">Empty</text>
<polygon fill="none" stroke="black" points="347,-117.5 347,-134.5 393,-134.5 393,-117.5 347,-117.5"/>
</a>
</g>
</g>
<!-- Node_Ja_101 -->
<g id="node2" class="node">
<title>Node_Ja_101</title>
<g id="a_node2"><a xlink:title=".JSON">
<polygon fill="#fffaf0" stroke="transparent" points="353,-63.5 353,-80.5 387,-80.5 387,-63.5 353,-63.5"/>
<polygon fill="#e31a1c" stroke="transparent" points="354,-64 354,-79 386,-79 386,-64 354,-64"/>
<text text-anchor="start" x="356" y="-70" font-family="Ubuntu" font-weight="bold" font-size="10.00">JSON</text>
<polygon fill="none" stroke="black" points="353,-63.5 353,-80.5 387,-80.5 387,-63.5 353,-63.5"/>
</a>
</g>
</g>
<!-- Node_Ja_102 -->
<g id="node3" class="node">
<title>Node_Ja_102</title>
<g id="a_node3"><a xlink:title=".ConfigurableSuccessResponse">
<polygon fill="#fffaf0" stroke="transparent" points="281,-9.5 281,-26.5 459,-26.5 459,-9.5 281,-9.5"/>
<polygon fill="#e31a1c" stroke="transparent" points="282,-10 282,-25 458,-25 458,-10 282,-10"/>
<text text-anchor="start" x="284" y="-16" font-family="Ubuntu" font-weight="bold" font-size="10.00">ConfigurableSuccessResponse</text>
<polygon fill="none" stroke="black" points="281,-9.5 281,-26.5 459,-26.5 459,-9.5 281,-9.5"/>
</a>
</g>
</g>
<!-- Node_Ja_103 -->
<g id="node4" class="node">
<title>Node_Ja_103</title>
<g id="a_node4"><a xlink:title="Configurable">
<polygon fill="#ffd700" stroke="transparent" points="8,-40.5 8,-117.5 229,-117.5 229,-40.5 8,-40.5"/>
<polygon fill="#ff7f50" stroke="transparent" points="9.5,-101 9.5,-116 228.5,-116 228.5,-101 9.5,-101"/>
<text text-anchor="start" x="153.5" y="-107" font-family="Ubuntu" font-weight="bold" font-size="10.00">Configurable</text>
<text text-anchor="start" x="11.5" y="-92" font-family="Ubuntu" font-weight="bold" font-size="10.00">get_config</text>
<text text-anchor="start" x="114.5" y="-91" font-family="Ubuntu" font-size="10.00">google.protobuf.Empty</text>
<polygon fill="#ff7f50" stroke="transparent" points="72.5,-71 72.5,-86 76.5,-86 76.5,-71 72.5,-71"/>
<polygon fill="#ff7f50" stroke="transparent" points="76.5,-71 76.5,-86 228.5,-86 228.5,-71 76.5,-71"/>
<text text-anchor="start" x="201.5" y="-76" font-family="Ubuntu" font-size="10.00">JSON</text>
<text text-anchor="start" x="11.5" y="-62" font-family="Ubuntu" font-weight="bold" font-size="10.00">set_config</text>
<text text-anchor="start" x="201.5" y="-61" font-family="Ubuntu" font-size="10.00">JSON</text>
<polygon fill="#ff7f50" stroke="transparent" points="72.5,-41 72.5,-56 76.5,-56 76.5,-41 72.5,-41"/>
<polygon fill="#ff7f50" stroke="transparent" points="76.5,-41 76.5,-56 228.5,-56 228.5,-41 76.5,-41"/>
<text text-anchor="start" x="78.5" y="-46" font-family="Ubuntu" font-size="10.00">ConfigurableSuccessResponse</text>
<polygon fill="none" stroke="black" points="8,-40.5 8,-117.5 229,-117.5 229,-40.5 8,-40.5"/>
</a>
</g>
</g>
<!-- Node_Ja_103&#45;&gt;Node_Ja_100 -->
<g id="edge1" class="edge">
<title>Node_Ja_103:e&#45;&gt;Node_Ja_100:header</title>
<g id="a_edge1"><a xlink:title="Ja_103 &#45;&#45;&gt; Ja_100">
<path fill="none" stroke="#000000" d="M229.5,-94C250.24,-94 303.4,-107.22 337.78,-116.4"/>
<polygon fill="#000000" stroke="#000000" points="337.22,-119.87 347.79,-119.1 339.04,-113.11 337.22,-119.87"/>
</a>
</g>
</g>
<!-- Node_Ja_103&#45;&gt;Node_Ja_101 -->
<g id="edge2" class="edge">
<title>Node_Ja_103:e&#45;&gt;Node_Ja_101:header</title>
<g id="a_edge2"><a xlink:title="Ja_103 &#45;&#45;&gt; Ja_101">
<path fill="none" stroke="#000000" d="M229.5,-78C269.53,-78 315.94,-75.09 343.86,-73.02"/>
<polygon fill="#000000" stroke="#000000" points="344.24,-76.5 353.94,-72.25 343.71,-69.52 344.24,-76.5"/>
</a>
</g>
</g>
<!-- Node_Ja_103&#45;&gt;Node_Ja_101 -->
<g id="edge3" class="edge">
<title>Node_Ja_103:e&#45;&gt;Node_Ja_101:header</title>
<g id="a_edge3"><a xlink:title="Ja_103 &#45;&#45;&gt; Ja_101">
<path fill="none" stroke="#000000" d="M229.5,-63C269.55,-63 315.96,-66.33 343.87,-68.69"/>
<polygon fill="#000000" stroke="#000000" points="343.68,-72.19 353.95,-69.57 344.29,-65.21 343.68,-72.19"/>
</a>
</g>
</g>
<!-- Node_Ja_103&#45;&gt;Node_Ja_102 -->
<g id="edge4" class="edge">
<title>Node_Ja_103:e&#45;&gt;Node_Ja_102:header</title>
<g id="a_edge4"><a xlink:title="Ja_103 &#45;&#45;&gt; Ja_102">
<path fill="none" stroke="#000000" d="M229.5,-48C267.06,-48 308.99,-37.16 336.98,-28.3"/>
<polygon fill="#000000" stroke="#000000" points="338.21,-31.58 346.63,-25.14 336.03,-24.92 338.21,-31.58"/>
</a>
</g>
</g>
</g>
</svg>
