<?xml version="1.0" encoding="UTF-8" standalone="no"?>
<!DOCTYPE svg PUBLIC "-//W3C//DTD SVG 1.1//EN"
 "http://www.w3.org/Graphics/SVG/1.1/DTD/svg11.dtd">
<!-- Generated by graphviz version 2.43.0 (0)
 -->
<!-- Title: protodot Pages: 1 -->
<svg width="349pt" height="200pt"
 viewBox="0.00 0.00 349.00 200.00" xmlns="http://www.w3.org/2000/svg" xmlns:xlink="http://www.w3.org/1999/xlink">
<g id="graph0" class="graph" transform="scale(1 1) rotate(0) translate(4 196)">
<title>protodot</title>
<g id="clust1" class="cluster">
<title>cluster_da39a3ee5e6b</title>
<polygon fill="#caff70" stroke="black" points="180,-8 180,-184 333,-184 333,-8 180,-8"/>
</g>
<!-- Node_Ja_100 -->
<g id="node1" class="node">
<title>Node_Ja_100</title>
<g id="a_node1"><a xlink:title=".ErrorResponse">
<polygon fill="#fffaf0" stroke="transparent" points="8,-88.5 8,-135.5 144,-135.5 144,-88.5 8,-88.5"/>
<polygon fill="#e31a1c" stroke="transparent" points="9,-119 9,-134 143,-134 143,-119 9,-119"/>
<text text-anchor="start" x="57" y="-125" font-family="Ubuntu" font-weight="bold" font-size="10.00">ErrorResponse</text>
<text text-anchor="start" x="15" y="-109" font-family="Ubuntu" font-size="10.00">1</text>
<text text-anchor="start" x="26" y="-109" font-family="Ubuntu" font-size="10.00">error_description</text>
<polygon fill="#a6cee3" stroke="transparent" points="111,-104 111,-119 143,-119 143,-104 111,-104"/>
<text text-anchor="start" x="113" y="-110" font-family="Ubuntu" font-style="italic" font-size="10.00">string</text>
<text text-anchor="start" x="15" y="-94" font-family="Ubuntu" font-size="10.00">2</text>
<text text-anchor="start" x="26" y="-94" font-family="Ubuntu" font-size="10.00">code</text>
<polygon fill="#b2df8a" stroke="transparent" points="111,-89 111,-104 143,-104 143,-89 111,-89"/>
<text text-anchor="start" x="116" y="-95" font-family="Ubuntu" text-decoration="underline" font-size="10.00">Code</text>
<polygon fill="none" stroke="black" points="8,-88.5 8,-135.5 144,-135.5 144,-88.5 8,-88.5"/>
</a>
</g>
</g>
<!-- Node_Ja_101 -->
<g id="node2" class="node">
<title>Node_Ja_101</title>
<g id="a_node2"><a xlink:title="Code">
<polygon fill="#b2df8a" stroke="transparent" points="196,-20 196,-172 317,-172 317,-20 196,-20"/>
<polygon fill="#33a02c" stroke="transparent" points="197.5,-156 197.5,-171 316.5,-171 316.5,-156 197.5,-156"/>
<text text-anchor="start" x="254.5" y="-162" font-family="Ubuntu" font-size="10.00">enum </text>
<text text-anchor="start" x="285.5" y="-162" font-family="Ubuntu" font-weight="bold" font-size="10.00">Code</text>
<polygon fill="#b2df8a" stroke="transparent" points="197.5,-141 197.5,-156 305.5,-156 305.5,-141 197.5,-141"/>
<text text-anchor="start" x="199.5" y="-146" font-family="Ubuntu" font-size="10.00">UNSPECIFIED</text>
<polygon fill="#b2df8a" stroke="transparent" points="305.5,-141 305.5,-156 316.5,-156 316.5,-141 305.5,-141"/>
<text text-anchor="start" x="307.5" y="-146" font-family="Ubuntu" font-size="10.00">0</text>
<polygon fill="#b2df8a" stroke="transparent" points="197.5,-126 197.5,-141 305.5,-141 305.5,-126 197.5,-126"/>
<text text-anchor="start" x="199.5" y="-131" font-family="Ubuntu" font-size="10.00">NOT_FOUND</text>
<polygon fill="#b2df8a" stroke="transparent" points="305.5,-126 305.5,-141 316.5,-141 316.5,-126 305.5,-126"/>
<text text-anchor="start" x="307.5" y="-131" font-family="Ubuntu" font-size="10.00">1</text>
<polygon fill="#b2df8a" stroke="transparent" points="197.5,-111 197.5,-126 305.5,-126 305.5,-111 197.5,-111"/>
<text text-anchor="start" x="199.5" y="-116" font-family="Ubuntu" font-size="10.00">INVALID_ARGUMENT</text>
<polygon fill="#b2df8a" stroke="transparent" points="305.5,-111 305.5,-126 316.5,-126 316.5,-111 305.5,-111"/>
<text text-anchor="start" x="307.5" y="-116" font-family="Ubuntu" font-size="10.00">2</text>
<polygon fill="#b2df8a" stroke="transparent" points="197.5,-96 197.5,-111 305.5,-111 305.5,-96 197.5,-96"/>
<text text-anchor="start" x="199.5" y="-101" font-family="Ubuntu" font-size="10.00">OUT_OF_RANGE</text>
<polygon fill="#b2df8a" stroke="transparent" points="305.5,-96 305.5,-111 316.5,-111 316.5,-96 305.5,-96"/>
<text text-anchor="start" x="307.5" y="-101" font-family="Ubuntu" font-size="10.00">3</text>
<polygon fill="#b2df8a" stroke="transparent" points="197.5,-81 197.5,-96 305.5,-96 305.5,-81 197.5,-81"/>
<text text-anchor="start" x="199.5" y="-86" font-family="Ubuntu" font-size="10.00">INVALID_STATE</text>
<polygon fill="#b2df8a" stroke="transparent" points="305.5,-81 305.5,-96 316.5,-96 316.5,-81 305.5,-81"/>
<text text-anchor="start" x="307.5" y="-86" font-family="Ubuntu" font-size="10.00">4</text>
<polygon fill="#b2df8a" stroke="transparent" points="197.5,-66 197.5,-81 305.5,-81 305.5,-66 197.5,-66"/>
<text text-anchor="start" x="199.5" y="-71" font-family="Ubuntu" font-size="10.00">PERMISSION_DENIED</text>
<polygon fill="#b2df8a" stroke="transparent" points="305.5,-66 305.5,-81 316.5,-81 316.5,-66 305.5,-66"/>
<text text-anchor="start" x="307.5" y="-71" font-family="Ubuntu" font-size="10.00">5</text>
<polygon fill="#b2df8a" stroke="transparent" points="197.5,-51 197.5,-66 305.5,-66 305.5,-51 197.5,-51"/>
<text text-anchor="start" x="199.5" y="-56" font-family="Ubuntu" font-size="10.00">IO_FAILURE</text>
<polygon fill="#b2df8a" stroke="transparent" points="305.5,-51 305.5,-66 316.5,-66 316.5,-51 305.5,-51"/>
<text text-anchor="start" x="307.5" y="-56" font-family="Ubuntu" font-size="10.00">6</text>
<polygon fill="#b2df8a" stroke="transparent" points="197.5,-36 197.5,-51 305.5,-51 305.5,-36 197.5,-36"/>
<text text-anchor="start" x="199.5" y="-41" font-family="Ubuntu" font-size="10.00">UNAVAILABLE</text>
<polygon fill="#b2df8a" stroke="transparent" points="305.5,-36 305.5,-51 316.5,-51 316.5,-36 305.5,-36"/>
<text text-anchor="start" x="307.5" y="-41" font-family="Ubuntu" font-size="10.00">7</text>
<polygon fill="#b2df8a" stroke="transparent" points="197.5,-21 197.5,-36 305.5,-36 305.5,-21 197.5,-21"/>
<text text-anchor="start" x="199.5" y="-26" font-family="Ubuntu" font-size="10.00">INTERNAL</text>
<polygon fill="#b2df8a" stroke="transparent" points="305.5,-21 305.5,-36 316.5,-36 316.5,-21 305.5,-21"/>
<text text-anchor="start" x="307.5" y="-26" font-family="Ubuntu" font-size="10.00">8</text>
<polygon fill="none" stroke="black" points="196,-20 196,-172 317,-172 317,-20 196,-20"/>
</a>
</g>
</g>
<!-- Node_Ja_100&#45;&gt;Node_Ja_101 -->
<g id="edge1" class="edge">
<title>Node_Ja_100:e&#45;&gt;Node_Ja_101</title>
<g id="a_edge1"><a xlink:title="Ja_100 &#45;&#45;&gt; Ja_101">
<path fill="none" stroke="#008000" d="M144,-96C154.89,-96 166.39,-96 177.69,-96"/>
<polygon fill="#008000" stroke="#008000" points="177.99,-99.5 187.99,-96 177.99,-92.5 177.99,-99.5"/>
</a>
</g>
</g>
</g>
</svg>
