<?xml version="1.0" encoding="UTF-8" standalone="no"?>
<!DOCTYPE svg PUBLIC "-//W3C//DTD SVG 1.1//EN"
 "http://www.w3.org/Graphics/SVG/1.1/DTD/svg11.dtd">
<!-- Generated by graphviz version 2.43.0 (0)
 -->
<!-- Title: protodot Pages: 1 -->
<svg width="873pt" height="432pt"
 viewBox="0.00 0.00 873.00 432.00" xmlns="http://www.w3.org/2000/svg" xmlns:xlink="http://www.w3.org/1999/xlink">
<g id="graph0" class="graph" transform="scale(1 1) rotate(0) translate(4 428)">
<title>protodot</title>
<g id="clust1" class="cluster">
<title>cluster_da39a3ee5e6b</title>
<polygon fill="#caff70" stroke="black" points="585,-80 585,-272 857,-272 857,-80 585,-80"/>
</g>
<g id="clust2" class="cluster">
<title>cluster_d527937d7e0f</title>
<g id="a_clust2"><a xlink:title="VehicleCommon.proto">
<polygon fill="#caff70" stroke="black" points="62.5,-306 62.5,-401 235.5,-401 235.5,-306 62.5,-306"/>
<text text-anchor="middle" x="149" y="-385.8" font-family="Times,serif" font-size="14.00">VehicleCommon.proto</text>
</a>
</g>
</g>
<!-- Node_Ja_100 -->
<g id="node1" class="node">
<title>Node_Ja_100</title>
<g id="a_node1"><a xlink:title="CommandResult">
<polygon fill="#b2df8a" stroke="transparent" points="601,-92.5 601,-259.5 841,-259.5 841,-92.5 601,-92.5"/>
<polygon fill="#33a02c" stroke="transparent" points="602,-243 602,-258 840,-258 840,-243 602,-243"/>
<text text-anchor="start" x="715" y="-249" font-family="Ubuntu" font-size="10.00">enum </text>
<text text-anchor="start" x="746" y="-249" font-family="Ubuntu" font-weight="bold" font-size="10.00">CommandResult</text>
<polygon fill="#b2df8a" stroke="transparent" points="602,-228 602,-243 829,-243 829,-228 602,-228"/>
<text text-anchor="start" x="604" y="-233" font-family="Ubuntu" font-size="10.00">COMMAND_RESULT_UNSPECIFIED</text>
<polygon fill="#b2df8a" stroke="transparent" points="829,-228 829,-243 840,-243 840,-228 829,-228"/>
<text text-anchor="start" x="831" y="-233" font-family="Ubuntu" font-size="10.00">0</text>
<polygon fill="#b2df8a" stroke="transparent" points="602,-213 602,-228 829,-228 829,-213 602,-213"/>
<text text-anchor="start" x="604" y="-218" font-family="Ubuntu" font-size="10.00">COMMAND_RESULT_ACCEPTED</text>
<polygon fill="#b2df8a" stroke="transparent" points="829,-213 829,-228 840,-228 840,-213 829,-213"/>
<text text-anchor="start" x="831" y="-218" font-family="Ubuntu" font-size="10.00">1</text>
<polygon fill="#b2df8a" stroke="transparent" points="602,-198 602,-213 829,-213 829,-198 602,-198"/>
<text text-anchor="start" x="604" y="-203" font-family="Ubuntu" font-size="10.00">COMMAND_RESULT_TEMPORARILY_REJECTED</text>
<polygon fill="#b2df8a" stroke="transparent" points="829,-198 829,-213 840,-213 840,-198 829,-198"/>
<text text-anchor="start" x="831" y="-203" font-family="Ubuntu" font-size="10.00">2</text>
<polygon fill="#b2df8a" stroke="transparent" points="602,-183 602,-198 829,-198 829,-183 602,-183"/>
<text text-anchor="start" x="604" y="-188" font-family="Ubuntu" font-size="10.00">COMMAND_RESULT_DENIED</text>
<polygon fill="#b2df8a" stroke="transparent" points="829,-183 829,-198 840,-198 840,-183 829,-183"/>
<text text-anchor="start" x="831" y="-188" font-family="Ubuntu" font-size="10.00">3</text>
<polygon fill="#b2df8a" stroke="transparent" points="602,-168 602,-183 829,-183 829,-168 602,-168"/>
<text text-anchor="start" x="604" y="-173" font-family="Ubuntu" font-size="10.00">COMMAND_RESULT_UNSUPPORTED</text>
<polygon fill="#b2df8a" stroke="transparent" points="829,-168 829,-183 840,-183 840,-168 829,-168"/>
<text text-anchor="start" x="831" y="-173" font-family="Ubuntu" font-size="10.00">4</text>
<polygon fill="#b2df8a" stroke="transparent" points="602,-153 602,-168 829,-168 829,-153 602,-153"/>
<text text-anchor="start" x="604" y="-158" font-family="Ubuntu" font-size="10.00">COMMAND_RESULT_FAILED</text>
<polygon fill="#b2df8a" stroke="transparent" points="829,-153 829,-168 840,-168 840,-153 829,-153"/>
<text text-anchor="start" x="831" y="-158" font-family="Ubuntu" font-size="10.00">5</text>
<polygon fill="#b2df8a" stroke="transparent" points="602,-138 602,-153 829,-153 829,-138 602,-138"/>
<text text-anchor="start" x="604" y="-143" font-family="Ubuntu" font-size="10.00">COMMAND_RESULT_IN_PROGRESS</text>
<polygon fill="#b2df8a" stroke="transparent" points="829,-138 829,-153 840,-153 840,-138 829,-138"/>
<text text-anchor="start" x="831" y="-143" font-family="Ubuntu" font-size="10.00">6</text>
<polygon fill="#b2df8a" stroke="transparent" points="602,-123 602,-138 829,-138 829,-123 602,-123"/>
<text text-anchor="start" x="604" y="-128" font-family="Ubuntu" font-size="10.00">COMMAND_RESULT_CANCELLED</text>
<polygon fill="#b2df8a" stroke="transparent" points="829,-123 829,-138 840,-138 840,-123 829,-123"/>
<text text-anchor="start" x="831" y="-128" font-family="Ubuntu" font-size="10.00">7</text>
<polygon fill="#b2df8a" stroke="transparent" points="602,-108 602,-123 829,-123 829,-108 602,-108"/>
<text text-anchor="start" x="604" y="-113" font-family="Ubuntu" font-size="10.00">COMMAND_RESULT_TIMEOUT</text>
<polygon fill="#b2df8a" stroke="transparent" points="829,-108 829,-123 840,-123 840,-108 829,-108"/>
<text text-anchor="start" x="831" y="-113" font-family="Ubuntu" font-size="10.00">8</text>
<polygon fill="#b2df8a" stroke="transparent" points="602,-93 602,-108 829,-108 829,-93 602,-93"/>
<text text-anchor="start" x="604" y="-98" font-family="Ubuntu" font-size="10.00">COMMAND_RESULT_NOT_OBSERVABLE</text>
<polygon fill="#b2df8a" stroke="transparent" points="829,-93 829,-108 840,-108 840,-93 829,-93"/>
<text text-anchor="start" x="831" y="-98" font-family="Ubuntu" font-size="10.00">9</text>
<polygon fill="none" stroke="black" points="601,-92.5 601,-259.5 841,-259.5 841,-92.5 601,-92.5"/>
</a>
</g>
</g>
<!-- Node_Ja_101 -->
<g id="node2" class="node">
<title>Node_Ja_101</title>
<g id="a_node2"><a xlink:title=".Coordinate">
<polygon fill="#fffaf0" stroke="transparent" points="84.5,-318.5 84.5,-365.5 213.5,-365.5 213.5,-318.5 84.5,-318.5"/>
<polygon fill="#e31a1c" stroke="transparent" points="86,-349 86,-364 213,-364 213,-349 86,-349"/>
<text text-anchor="start" x="148" y="-355" font-family="Ubuntu" font-weight="bold" font-size="10.00">Coordinate</text>
<text text-anchor="start" x="92" y="-339" font-family="Ubuntu" font-size="10.00">1</text>
<text text-anchor="start" x="103" y="-339" font-family="Ubuntu" font-size="10.00">latitude_deg</text>
<polygon fill="#a6cee3" stroke="transparent" points="175,-334 175,-349 213,-349 213,-334 175,-334"/>
<text text-anchor="start" x="177" y="-340" font-family="Ubuntu" font-style="italic" font-size="10.00">double</text>
<text text-anchor="start" x="92" y="-324" font-family="Ubuntu" font-size="10.00">2</text>
<text text-anchor="start" x="103" y="-324" font-family="Ubuntu" font-size="10.00">longitude_deg</text>
<polygon fill="#a6cee3" stroke="transparent" points="175,-319 175,-334 213,-334 213,-319 175,-319"/>
<text text-anchor="start" x="177" y="-325" font-family="Ubuntu" font-style="italic" font-size="10.00">double</text>
<polygon fill="none" stroke="black" points="84.5,-318.5 84.5,-365.5 213.5,-365.5 213.5,-318.5 84.5,-318.5"/>
</a>
</g>
</g>
<!-- Node_Ja_104 -->
<g id="node3" class="node">
<title>Node_Ja_104</title>
<g id="a_node3"><a xlink:title=".CommandLongRequest">
<polygon fill="#fffaf0" stroke="transparent" points="372.5,-92 372.5,-244 518.5,-244 518.5,-92 372.5,-92"/>
<polygon fill="#e31a1c" stroke="transparent" points="373.5,-228 373.5,-243 517.5,-243 517.5,-228 373.5,-228"/>
<text text-anchor="start" x="385.5" y="-234" font-family="Ubuntu" font-weight="bold" font-size="10.00">CommandLongRequest</text>
<text text-anchor="start" x="379.5" y="-218" font-family="Ubuntu" font-size="10.00">1</text>
<text text-anchor="start" x="390.5" y="-218" font-family="Ubuntu" font-size="10.00">command</text>
<polygon fill="#a6cee3" stroke="transparent" points="482.5,-213 482.5,-228 517.5,-228 517.5,-213 482.5,-213"/>
<text text-anchor="start" x="484.5" y="-219" font-family="Ubuntu" font-style="italic" font-size="10.00">uint32</text>
<text text-anchor="start" x="379.5" y="-203" font-family="Ubuntu" font-size="10.00">2</text>
<text text-anchor="start" x="390.5" y="-203" font-family="Ubuntu" font-size="10.00">param1</text>
<polygon fill="#a6cee3" stroke="transparent" points="482.5,-198 482.5,-213 517.5,-213 517.5,-198 482.5,-198"/>
<text text-anchor="start" x="492.5" y="-204" font-family="Ubuntu" font-style="italic" font-size="10.00">float</text>
<text text-anchor="start" x="379.5" y="-188" font-family="Ubuntu" font-size="10.00">3</text>
<text text-anchor="start" x="390.5" y="-188" font-family="Ubuntu" font-size="10.00">param2</text>
<polygon fill="#a6cee3" stroke="transparent" points="482.5,-183 482.5,-198 517.5,-198 517.5,-183 482.5,-183"/>
<text text-anchor="start" x="492.5" y="-189" font-family="Ubuntu" font-style="italic" font-size="10.00">float</text>
<text text-anchor="start" x="379.5" y="-173" font-family="Ubuntu" font-size="10.00">4</text>
<text text-anchor="start" x="390.5" y="-173" font-family="Ubuntu" font-size="10.00">param3</text>
<polygon fill="#a6cee3" stroke="transparent" points="482.5,-168 482.5,-183 517.5,-183 517.5,-168 482.5,-168"/>
<text text-anchor="start" x="492.5" y="-174" font-family="Ubuntu" font-style="italic" font-size="10.00">float</text>
<text text-anchor="start" x="379.5" y="-158" font-family="Ubuntu" font-size="10.00">5</text>
<text text-anchor="start" x="390.5" y="-158" font-family="Ubuntu" font-size="10.00">param4</text>
<polygon fill="#a6cee3" stroke="transparent" points="482.5,-153 482.5,-168 517.5,-168 517.5,-153 482.5,-153"/>
<text text-anchor="start" x="492.5" y="-159" font-family="Ubuntu" font-style="italic" font-size="10.00">float</text>
<text text-anchor="start" x="379.5" y="-143" font-family="Ubuntu" font-size="10.00">6</text>
<text text-anchor="start" x="390.5" y="-143" font-family="Ubuntu" font-size="10.00">param5</text>
<polygon fill="#a6cee3" stroke="transparent" points="482.5,-138 482.5,-153 517.5,-153 517.5,-138 482.5,-138"/>
<text text-anchor="start" x="492.5" y="-144" font-family="Ubuntu" font-style="italic" font-size="10.00">float</text>
<text text-anchor="start" x="379.5" y="-128" font-family="Ubuntu" font-size="10.00">7</text>
<text text-anchor="start" x="390.5" y="-128" font-family="Ubuntu" font-size="10.00">param6</text>
<polygon fill="#a6cee3" stroke="transparent" points="482.5,-123 482.5,-138 517.5,-138 517.5,-123 482.5,-123"/>
<text text-anchor="start" x="492.5" y="-129" font-family="Ubuntu" font-style="italic" font-size="10.00">float</text>
<text text-anchor="start" x="379.5" y="-113" font-family="Ubuntu" font-size="10.00">8</text>
<text text-anchor="start" x="390.5" y="-113" font-family="Ubuntu" font-size="10.00">param7</text>
<polygon fill="#a6cee3" stroke="transparent" points="482.5,-108 482.5,-123 517.5,-123 517.5,-108 482.5,-108"/>
<text text-anchor="start" x="492.5" y="-114" font-family="Ubuntu" font-style="italic" font-size="10.00">float</text>
<text text-anchor="start" x="379.5" y="-98" font-family="Ubuntu" font-size="10.00">9</text>
<text text-anchor="start" x="390.5" y="-98" font-family="Ubuntu" font-size="10.00">target_component</text>
<polygon fill="#a6cee3" stroke="transparent" points="482.5,-93 482.5,-108 517.5,-108 517.5,-93 482.5,-93"/>
<text text-anchor="start" x="484.5" y="-99" font-family="Ubuntu" font-style="italic" font-size="10.00">uint32</text>
<polygon fill="none" stroke="black" points="372.5,-92 372.5,-244 518.5,-244 518.5,-92 372.5,-92"/>
</a>
</g>
</g>
<!-- Node_Ja_105 -->
<g id="node4" class="node">
<title>Node_Ja_105</title>
<g id="a_node4"><a xlink:title=".CommandLongResponse">
<polygon fill="#fffaf0" stroke="transparent" points="342,-4 342,-66 549,-66 549,-4 342,-4"/>
<polygon fill="#e31a1c" stroke="transparent" points="343.5,-50 343.5,-65 548.5,-65 548.5,-50 343.5,-50"/>
<text text-anchor="start" x="408.5" y="-56" font-family="Ubuntu" font-weight="bold" font-size="10.00">CommandLongResponse</text>
<text text-anchor="start" x="349.5" y="-40" font-family="Ubuntu" font-size="10.00">1</text>
<text text-anchor="start" x="360.5" y="-40" font-family="Ubuntu" font-size="10.00">result</text>
<polygon fill="#b2df8a" stroke="transparent" points="462.5,-35 462.5,-50 548.5,-50 548.5,-35 462.5,-35"/>
<text text-anchor="start" x="464.5" y="-41" font-family="Ubuntu" text-decoration="underline" font-size="10.00">CommandResult</text>
<text text-anchor="start" x="349.5" y="-25" font-family="Ubuntu" font-size="10.00">2</text>
<text text-anchor="start" x="360.5" y="-25" font-family="Ubuntu" font-size="10.00">raw_autopilot_result</text>
<polygon fill="#a6cee3" stroke="transparent" points="462.5,-20 462.5,-35 548.5,-35 548.5,-20 462.5,-20"/>
<text text-anchor="start" x="521.5" y="-26" font-family="Ubuntu" font-style="italic" font-size="10.00">int32</text>
<text text-anchor="start" x="349.5" y="-10" font-family="Ubuntu" font-size="10.00">3</text>
<text text-anchor="start" x="360.5" y="-10" font-family="Ubuntu" font-size="10.00">detail</text>
<polygon fill="#a6cee3" stroke="transparent" points="462.5,-5 462.5,-20 548.5,-20 548.5,-5 462.5,-5"/>
<text text-anchor="start" x="518.5" y="-11" font-family="Ubuntu" font-style="italic" font-size="10.00">string</text>
<polygon fill="none" stroke="black" points="342,-4 342,-66 549,-66 549,-4 342,-4"/>
</a>
</g>
</g>
<!-- Node_Ja_105&#45;&gt;Node_Ja_100 -->
<g id="edge6" class="edge">
<title>Node_Ja_105:e&#45;&gt;Node_Ja_100</title>
<g id="a_edge6"><a xlink:title="Ja_105 &#45;&#45;&gt; Ja_100">
<path fill="none" stroke="#008000" d="M549.5,-43C583.84,-43 615.41,-59.98 641.8,-81.81"/>
<polygon fill="#008000" stroke="#008000" points="639.6,-84.53 649.46,-88.4 644.16,-79.22 639.6,-84.53"/>
</a>
</g>
</g>
<!-- Node_Ja_106 -->
<g id="node5" class="node">
<title>Node_Ja_106</title>
<g id="a_node5"><a xlink:title="MavlinkCommand">
<polygon fill="#ffd700" stroke="transparent" points="8,-214.5 8,-291.5 290,-291.5 290,-214.5 8,-214.5"/>
<polygon fill="#ff7f50" stroke="transparent" points="9,-275 9,-290 289,-290 289,-275 9,-275"/>
<text text-anchor="start" x="186" y="-281" font-family="Ubuntu" font-weight="bold" font-size="10.00">MavlinkCommand</text>
<text text-anchor="start" x="11" y="-266" font-family="Ubuntu" font-weight="bold" font-size="10.00">set_message_interval</text>
<text text-anchor="start" x="150" y="-265" font-family="Ubuntu" font-size="10.00">SetMessageIntervalRequest</text>
<polygon fill="#ff7f50" stroke="transparent" points="136,-245 136,-260 140,-260 140,-245 136,-245"/>
<polygon fill="#ff7f50" stroke="transparent" points="140,-245 140,-260 289,-260 289,-245 140,-245"/>
<text text-anchor="start" x="142" y="-250" font-family="Ubuntu" font-size="10.00">SetMessageIntervalResponse</text>
<text text-anchor="start" x="11" y="-236" font-family="Ubuntu" font-weight="bold" font-size="10.00">send_command_long</text>
<text text-anchor="start" x="173" y="-235" font-family="Ubuntu" font-size="10.00">CommandLongRequest</text>
<polygon fill="#ff7f50" stroke="transparent" points="136,-215 136,-230 140,-230 140,-215 136,-215"/>
<polygon fill="#ff7f50" stroke="transparent" points="140,-215 140,-230 289,-230 289,-215 140,-215"/>
<text text-anchor="start" x="166" y="-220" font-family="Ubuntu" font-size="10.00">CommandLongResponse</text>
<polygon fill="none" stroke="black" points="8,-214.5 8,-291.5 290,-291.5 290,-214.5 8,-214.5"/>
</a>
</g>
</g>
<!-- Node_Ja_106&#45;&gt;Node_Ja_104 -->
<g id="edge3" class="edge">
<title>Node_Ja_106:e&#45;&gt;Node_Ja_104:header</title>
<g id="a_edge3"><a xlink:title="Ja_106 &#45;&#45;&gt; Ja_104">
<path fill="none" stroke="#000000" d="M290,-237C323.09,-237 333.78,-236.19 362.49,-236.03"/>
<polygon fill="#000000" stroke="#000000" points="362.51,-239.53 372.5,-236 362.49,-232.53 362.51,-239.53"/>
</a>
</g>
</g>
<!-- Node_Ja_106&#45;&gt;Node_Ja_105 -->
<g id="edge4" class="edge">
<title>Node_Ja_106:e&#45;&gt;Node_Ja_105:header</title>
<g id="a_edge4"><a xlink:title="Ja_106 &#45;&#45;&gt; Ja_105">
<path fill="none" stroke="#000000" d="M290,-222C362.8,-222 275.37,-73.62 332.51,-59.13"/>
<polygon fill="#000000" stroke="#000000" points="332.96,-62.61 342.5,-58 332.17,-55.65 332.96,-62.61"/>
</a>
</g>
</g>
<!-- Node_Ja_102 -->
<g id="node6" class="node">
<title>Node_Ja_102</title>
<g id="a_node6"><a xlink:title=".SetMessageIntervalRequest">
<polygon fill="#fffaf0" stroke="transparent" points="363,-358 363,-420 528,-420 528,-358 363,-358"/>
<polygon fill="#e31a1c" stroke="transparent" points="364.5,-404 364.5,-419 527.5,-419 527.5,-404 364.5,-404"/>
<text text-anchor="start" x="366.5" y="-410" font-family="Ubuntu" font-weight="bold" font-size="10.00">SetMessageIntervalRequest</text>
<text text-anchor="start" x="393.5" y="-394" font-family="Ubuntu" font-size="10.00">1</text>
<text text-anchor="start" x="404.5" y="-394" font-family="Ubuntu" font-size="10.00">message_name</text>
<polygon fill="#a6cee3" stroke="transparent" points="488.5,-389 488.5,-404 527.5,-404 527.5,-389 488.5,-389"/>
<text text-anchor="start" x="497.5" y="-395" font-family="Ubuntu" font-style="italic" font-size="10.00">string</text>
<text text-anchor="start" x="393.5" y="-379" font-family="Ubuntu" font-size="10.00">2</text>
<text text-anchor="start" x="404.5" y="-379" font-family="Ubuntu" font-size="10.00">message_id</text>
<polygon fill="#a6cee3" stroke="transparent" points="488.5,-374 488.5,-389 527.5,-389 527.5,-374 488.5,-374"/>
<text text-anchor="start" x="494.5" y="-380" font-family="Ubuntu" font-style="italic" font-size="10.00">uint32</text>
<text text-anchor="start" x="393.5" y="-364" font-family="Ubuntu" font-size="10.00">3</text>
<text text-anchor="start" x="404.5" y="-364" font-family="Ubuntu" font-size="10.00">hz</text>
<polygon fill="#a6cee3" stroke="transparent" points="488.5,-359 488.5,-374 527.5,-374 527.5,-359 488.5,-359"/>
<text text-anchor="start" x="502.5" y="-365" font-family="Ubuntu" font-style="italic" font-size="10.00">float</text>
<polygon fill="none" stroke="black" points="363,-358 363,-420 528,-420 528,-358 363,-358"/>
</a>
</g>
</g>
<!-- Node_Ja_106&#45;&gt;Node_Ja_102 -->
<g id="edge1" class="edge">
<title>Node_Ja_106:e&#45;&gt;Node_Ja_102:header</title>
<g id="a_edge1"><a xlink:title="Ja_106 &#45;&#45;&gt; Ja_102">
<path fill="none" stroke="#000000" d="M290,-268C358.07,-268 298.66,-397.21 353.28,-410.84"/>
<polygon fill="#000000" stroke="#000000" points="353.17,-414.35 363.5,-412 353.96,-407.4 353.17,-414.35"/>
</a>
</g>
</g>
<!-- Node_Ja_103 -->
<g id="node7" class="node">
<title>Node_Ja_103</title>
<g id="a_node7"><a xlink:title=".SetMessageIntervalResponse">
<polygon fill="#fffaf0" stroke="transparent" points="342,-270 342,-332 549,-332 549,-270 342,-270"/>
<polygon fill="#e31a1c" stroke="transparent" points="343.5,-316 343.5,-331 548.5,-331 548.5,-316 343.5,-316"/>
<text text-anchor="start" x="379.5" y="-322" font-family="Ubuntu" font-weight="bold" font-size="10.00">SetMessageIntervalResponse</text>
<text text-anchor="start" x="349.5" y="-306" font-family="Ubuntu" font-size="10.00">1</text>
<text text-anchor="start" x="360.5" y="-306" font-family="Ubuntu" font-size="10.00">result</text>
<polygon fill="#b2df8a" stroke="transparent" points="462.5,-301 462.5,-316 548.5,-316 548.5,-301 462.5,-301"/>
<text text-anchor="start" x="464.5" y="-307" font-family="Ubuntu" text-decoration="underline" font-size="10.00">CommandResult</text>
<text text-anchor="start" x="349.5" y="-291" font-family="Ubuntu" font-size="10.00">2</text>
<text text-anchor="start" x="360.5" y="-291" font-family="Ubuntu" font-size="10.00">raw_autopilot_result</text>
<polygon fill="#a6cee3" stroke="transparent" points="462.5,-286 462.5,-301 548.5,-301 548.5,-286 462.5,-286"/>
<text text-anchor="start" x="521.5" y="-292" font-family="Ubuntu" font-style="italic" font-size="10.00">int32</text>
<text text-anchor="start" x="349.5" y="-276" font-family="Ubuntu" font-size="10.00">3</text>
<text text-anchor="start" x="360.5" y="-276" font-family="Ubuntu" font-size="10.00">detail</text>
<polygon fill="#a6cee3" stroke="transparent" points="462.5,-271 462.5,-286 548.5,-286 548.5,-271 462.5,-271"/>
<text text-anchor="start" x="518.5" y="-277" font-family="Ubuntu" font-style="italic" font-size="10.00">string</text>
<polygon fill="none" stroke="black" points="342,-270 342,-332 549,-332 549,-270 342,-270"/>
</a>
</g>
</g>
<!-- Node_Ja_106&#45;&gt;Node_Ja_103 -->
<g id="edge2" class="edge">
<title>Node_Ja_106:e&#45;&gt;Node_Ja_103:header</title>
<g id="a_edge2"><a xlink:title="Ja_106 &#45;&#45;&gt; Ja_103">
<path fill="none" stroke="#000000" d="M290,-252C325.74,-252 307.48,-310.62 332.67,-322.07"/>
<polygon fill="#000000" stroke="#000000" points="332.01,-325.51 342.5,-324 333.36,-318.64 332.01,-325.51"/>
</a>
</g>
</g>
<!-- Node_Ja_103&#45;&gt;Node_Ja_100 -->
<g id="edge5" class="edge">
<title>Node_Ja_103:e&#45;&gt;Node_Ja_100</title>
<g id="a_edge5"><a xlink:title="Ja_103 &#45;&#45;&gt; Ja_100">
<path fill="none" stroke="#008000" d="M549.5,-309C583.84,-309 615.41,-292.02 641.8,-270.19"/>
<polygon fill="#008000" stroke="#008000" points="644.16,-272.78 649.46,-263.6 639.6,-267.47 644.16,-272.78"/>
</a>
</g>
</g>
</g>
</svg>
