<?xml version="1.0" encoding="UTF-8" standalone="no"?>
<!DOCTYPE svg PUBLIC "-//W3C//DTD SVG 1.1//EN"
 "http://www.w3.org/Graphics/SVG/1.1/DTD/svg11.dtd">
<!-- Generated by graphviz version 2.43.0 (0)
 -->
<!-- Title: protodot Pages: 1 -->
<svg width="996pt" height="535pt"
 viewBox="0.00 0.00 996.00 535.00" xmlns="http://www.w3.org/2000/svg" xmlns:xlink="http://www.w3.org/1999/xlink">
<g id="graph0" class="graph" transform="scale(1 1) rotate(0) translate(4 531)">
<title>protodot</title>
<g id="clust1" class="cluster">
<title>cluster_ac8d7b3b7cac</title>
<g id="a_clust1"><a xlink:title="google/protobuf/empty.proto">
<polygon fill="#caff70" stroke="black" points="318,-200 318,-275 420,-275 420,-200 318,-200"/>
<text text-anchor="middle" x="369" y="-259.8" font-family="Times,serif" font-size="14.00">empty.proto</text>
</a>
</g>
</g>
<g id="clust2" class="cluster">
<title>cluster_fb36aafb54f5</title>
<g id="a_clust2"><a xlink:title="google/protobuf/timestamp.proto">
<polygon fill="#caff70" stroke="black" points="851,-174 851,-269 987,-269 987,-174 851,-174"/>
<text text-anchor="middle" x="919" y="-253.8" font-family="Times,serif" font-size="14.00">timestamp.proto</text>
</a>
</g>
</g>
<g id="clust3" class="cluster">
<title>cluster_da39a3ee5e6b</title>
<polygon fill="#caff70" stroke="black" points="869,-417 869,-519 969,-519 969,-417 869,-417"/>
</g>
<!-- Node_Ja_100 -->
<g id="node1" class="node">
<title>Node_Ja_100</title>
<g id="a_node1"><a xlink:title="google.protobuf.Empty">
<polygon fill="#fffaf0" stroke="transparent" points="346,-217.5 346,-234.5 392,-234.5 392,-217.5 346,-217.5"/>
<polygon fill="#e31a1c" stroke="transparent" points="347,-218 347,-233 391,-233 391,-218 347,-218"/>
<text text-anchor="start" x="352" y="-224" font-family="Ubuntu" font-weight="bold" font-size="10.00">Empty</text>
<polygon fill="none" stroke="black" points="346,-217.5 346,-234.5 392,-234.5 392,-217.5 346,-217.5"/>
</a>
</g>
</g>
<!-- Node_Ja_101 -->
<g id="node2" class="node">
<title>Node_Ja_101</title>
<g id="a_node2"><a xlink:title="google.protobuf.Timestamp">
<polygon fill="#fffaf0" stroke="transparent" points="874,-186.5 874,-233.5 964,-233.5 964,-186.5 874,-186.5"/>
<polygon fill="#e31a1c" stroke="transparent" points="875,-217 875,-232 963,-232 963,-217 875,-217"/>
<text text-anchor="start" x="897" y="-223" font-family="Ubuntu" font-weight="bold" font-size="10.00">Timestamp</text>
<text text-anchor="start" x="881" y="-207" font-family="Ubuntu" font-size="10.00">1</text>
<text text-anchor="start" x="892" y="-207" font-family="Ubuntu" font-size="10.00">seconds</text>
<polygon fill="#a6cee3" stroke="transparent" points="934,-202 934,-217 963,-217 963,-202 934,-202"/>
<text text-anchor="start" x="936" y="-208" font-family="Ubuntu" font-style="italic" font-size="10.00">int64</text>
<text text-anchor="start" x="881" y="-192" font-family="Ubuntu" font-size="10.00">2</text>
<text text-anchor="start" x="892" y="-192" font-family="Ubuntu" font-size="10.00">nanos</text>
<polygon fill="#a6cee3" stroke="transparent" points="934,-187 934,-202 963,-202 963,-187 934,-187"/>
<text text-anchor="start" x="936" y="-193" font-family="Ubuntu" font-style="italic" font-size="10.00">int32</text>
<polygon fill="none" stroke="black" points="874,-186.5 874,-233.5 964,-233.5 964,-186.5 874,-186.5"/>
</a>
</g>
</g>
<!-- Node_Ja_103 -->
<g id="node3" class="node">
<title>Node_Ja_103</title>
<g id="a_node3"><a xlink:title="State">
<polygon fill="#b2df8a" stroke="transparent" points="885,-429.5 885,-506.5 953,-506.5 953,-429.5 885,-429.5"/>
<polygon fill="#33a02c" stroke="transparent" points="886,-490 886,-505 952,-505 952,-490 886,-490"/>
<text text-anchor="start" x="888" y="-496" font-family="Ubuntu" font-size="10.00">enum </text>
<text text-anchor="start" x="919" y="-496" font-family="Ubuntu" font-weight="bold" font-size="10.00">State</text>
<polygon fill="#b2df8a" stroke="transparent" points="886,-475 886,-490 938,-490 938,-475 886,-475"/>
<text text-anchor="start" x="888" y="-480" font-family="Ubuntu" font-size="10.00">STOPPED</text>
<polygon fill="#b2df8a" stroke="transparent" points="938,-475 938,-490 952,-490 952,-475 938,-475"/>
<text text-anchor="start" x="940" y="-480" font-family="Ubuntu" font-size="10.00">0</text>
<polygon fill="#b2df8a" stroke="transparent" points="886,-460 886,-475 938,-475 938,-460 886,-460"/>
<text text-anchor="start" x="888" y="-465" font-family="Ubuntu" font-size="10.00">PLAYING</text>
<polygon fill="#b2df8a" stroke="transparent" points="938,-460 938,-475 952,-475 952,-460 938,-460"/>
<text text-anchor="start" x="940" y="-465" font-family="Ubuntu" font-size="10.00">1</text>
<polygon fill="#b2df8a" stroke="transparent" points="886,-445 886,-460 938,-460 938,-445 886,-445"/>
<text text-anchor="start" x="888" y="-450" font-family="Ubuntu" font-size="10.00">PAUSED</text>
<polygon fill="#b2df8a" stroke="transparent" points="938,-445 938,-460 952,-460 952,-445 938,-445"/>
<text text-anchor="start" x="940" y="-450" font-family="Ubuntu" font-size="10.00">2</text>
<polygon fill="#b2df8a" stroke="transparent" points="886,-430 886,-445 938,-445 938,-430 886,-430"/>
<text text-anchor="start" x="888" y="-435" font-family="Ubuntu" font-size="10.00">LOADING</text>
<polygon fill="#b2df8a" stroke="transparent" points="938,-430 938,-445 952,-445 952,-430 938,-430"/>
<text text-anchor="start" x="940" y="-435" font-family="Ubuntu" font-size="10.00">3</text>
<polygon fill="none" stroke="black" points="885,-429.5 885,-506.5 953,-506.5 953,-429.5 885,-429.5"/>
</a>
</g>
</g>
<!-- Node_Ja_104 -->
<g id="node4" class="node">
<title>Node_Ja_104</title>
<g id="a_node4"><a xlink:title=".FileInfo">
<polygon fill="#fffaf0" stroke="transparent" points="523.5,-161 523.5,-283 801.5,-283 801.5,-161 523.5,-161"/>
<polygon fill="#e31a1c" stroke="transparent" points="524.5,-267 524.5,-282 800.5,-282 800.5,-267 524.5,-267"/>
<text text-anchor="start" x="755.5" y="-273" font-family="Ubuntu" font-weight="bold" font-size="10.00">FileInfo</text>
<text text-anchor="start" x="547.5" y="-257" font-family="Ubuntu" font-size="10.00">1</text>
<text text-anchor="start" x="558.5" y="-257" font-family="Ubuntu" font-size="10.00">path</text>
<polygon fill="#a6cee3" stroke="transparent" points="637.5,-252 637.5,-267 800.5,-267 800.5,-252 637.5,-252"/>
<text text-anchor="start" x="770.5" y="-258" font-family="Ubuntu" font-style="italic" font-size="10.00">string</text>
<text text-anchor="start" x="547.5" y="-242" font-family="Ubuntu" font-size="10.00">2</text>
<text text-anchor="start" x="558.5" y="-242" font-family="Ubuntu" font-size="10.00">size_bytes</text>
<polygon fill="#a6cee3" stroke="transparent" points="637.5,-237 637.5,-252 800.5,-252 800.5,-237 637.5,-237"/>
<text text-anchor="start" x="767.5" y="-243" font-family="Ubuntu" font-style="italic" font-size="10.00">uint64</text>
<text text-anchor="start" x="547.5" y="-227" font-family="Ubuntu" font-size="10.00">3</text>
<text text-anchor="start" x="558.5" y="-227" font-family="Ubuntu" font-size="10.00">message_count</text>
<polygon fill="#a6cee3" stroke="transparent" points="637.5,-222 637.5,-237 800.5,-237 800.5,-222 637.5,-222"/>
<text text-anchor="start" x="767.5" y="-228" font-family="Ubuntu" font-style="italic" font-size="10.00">uint64</text>
<text text-anchor="start" x="547.5" y="-212" font-family="Ubuntu" font-size="10.00">4</text>
<text text-anchor="start" x="558.5" y="-212" font-family="Ubuntu" font-size="10.00">channel_count</text>
<polygon fill="#a6cee3" stroke="transparent" points="637.5,-207 637.5,-222 800.5,-222 800.5,-207 637.5,-207"/>
<text text-anchor="start" x="767.5" y="-213" font-family="Ubuntu" font-style="italic" font-size="10.00">uint32</text>
<text text-anchor="start" x="547.5" y="-197" font-family="Ubuntu" font-size="10.00">5</text>
<text text-anchor="start" x="558.5" y="-197" font-family="Ubuntu" font-size="10.00">start_time</text>
<polygon fill="#fb9a99" stroke="transparent" points="637.5,-192 637.5,-207 800.5,-207 800.5,-192 637.5,-192"/>
<text text-anchor="start" x="639.5" y="-198" font-family="Ubuntu" font-weight="bold" font-size="10.00">google.protobuf.Timestamp</text>
<text text-anchor="start" x="547.5" y="-182" font-family="Ubuntu" font-size="10.00">6</text>
<text text-anchor="start" x="558.5" y="-182" font-family="Ubuntu" font-size="10.00">end_time</text>
<polygon fill="#fb9a99" stroke="transparent" points="637.5,-177 637.5,-192 800.5,-192 800.5,-177 637.5,-177"/>
<text text-anchor="start" x="639.5" y="-183" font-family="Ubuntu" font-weight="bold" font-size="10.00">google.protobuf.Timestamp</text>
<text text-anchor="start" x="526.5" y="-167" font-family="Ubuntu" font-size="10.00">[...]</text>
<text text-anchor="start" x="547.5" y="-167" font-family="Ubuntu" font-size="10.00">7</text>
<text text-anchor="start" x="558.5" y="-167" font-family="Ubuntu" font-size="10.00">channel_names</text>
<polygon fill="#a6cee3" stroke="transparent" points="637.5,-162 637.5,-177 800.5,-177 800.5,-162 637.5,-162"/>
<text text-anchor="start" x="770.5" y="-168" font-family="Ubuntu" font-style="italic" font-size="10.00">string</text>
<polygon fill="none" stroke="black" points="523.5,-161 523.5,-283 801.5,-283 801.5,-161 523.5,-161"/>
</a>
</g>
</g>
<!-- Node_Ja_104&#45;&gt;Node_Ja_101 -->
<g id="edge1" class="edge">
<title>Node_Ja_104:e&#45;&gt;Node_Ja_101:header</title>
<g id="a_edge1"><a xlink:title="Ja_104 &#45;&#45;&gt; Ja_101">
<path fill="none" stroke="#000000" d="M801.5,-184C834.76,-184 836.9,-217.09 863.83,-223.82"/>
<polygon fill="#000000" stroke="#000000" points="863.66,-227.32 874,-225 864.47,-220.37 863.66,-227.32"/>
</a>
</g>
</g>
<!-- Node_Ja_104&#45;&gt;Node_Ja_101 -->
<g id="edge8" class="edge">
<title>Node_Ja_104:e&#45;&gt;Node_Ja_101:header</title>
<g id="a_edge8"><a xlink:title="Ja_104 &#45;&#45;&gt; Ja_101">
<path fill="none" stroke="#000000" d="M801.5,-199C831.99,-199 838.52,-219.62 863.77,-224.13"/>
<polygon fill="#000000" stroke="#000000" points="863.74,-227.64 874,-225 864.33,-220.67 863.74,-227.64"/>
</a>
</g>
</g>
<!-- Node_Ja_106 -->
<g id="node5" class="node">
<title>Node_Ja_106</title>
<g id="a_node5"><a xlink:title=".ListFilesResponse">
<polygon fill="#fffaf0" stroke="transparent" points="290,-345.5 290,-392.5 448,-392.5 448,-345.5 290,-345.5"/>
<polygon fill="#e31a1c" stroke="transparent" points="291,-376 291,-391 447,-391 447,-376 291,-376"/>
<text text-anchor="start" x="343" y="-382" font-family="Ubuntu" font-weight="bold" font-size="10.00">ListFilesResponse</text>
<text text-anchor="start" x="314" y="-366" font-family="Ubuntu" font-size="10.00">1</text>
<text text-anchor="start" x="325" y="-366" font-family="Ubuntu" font-size="10.00">base_directory</text>
<polygon fill="#a6cee3" stroke="transparent" points="400,-361 400,-376 447,-376 447,-361 400,-361"/>
<text text-anchor="start" x="417" y="-367" font-family="Ubuntu" font-style="italic" font-size="10.00">string</text>
<text text-anchor="start" x="293" y="-351" font-family="Ubuntu" font-size="10.00">[...]</text>
<text text-anchor="start" x="314" y="-351" font-family="Ubuntu" font-size="10.00">2</text>
<text text-anchor="start" x="325" y="-351" font-family="Ubuntu" font-size="10.00">files</text>
<polygon fill="#fb9a99" stroke="transparent" points="400,-346 400,-361 447,-361 447,-346 400,-346"/>
<text text-anchor="start" x="402" y="-352" font-family="Ubuntu" font-weight="bold" font-size="10.00">FileInfo</text>
<polygon fill="none" stroke="black" points="290,-345.5 290,-392.5 448,-392.5 448,-345.5 290,-345.5"/>
</a>
</g>
</g>
<!-- Node_Ja_106&#45;&gt;Node_Ja_104 -->
<g id="edge2" class="edge">
<title>Node_Ja_106:e&#45;&gt;Node_Ja_104:header</title>
<g id="a_edge2"><a xlink:title="Ja_106 &#45;&#45;&gt; Ja_104">
<path fill="none" stroke="#000000" d="M448,-353C492.48,-353 478.11,-286.71 513.39,-276.35"/>
<polygon fill="#000000" stroke="#000000" points="514.05,-279.8 523.5,-275 513.12,-272.86 514.05,-279.8"/>
</a>
</g>
</g>
<!-- Node_Ja_107 -->
<g id="node6" class="node">
<title>Node_Ja_107</title>
<g id="a_node6"><a xlink:title=".LoadFileRequest">
<polygon fill="#fffaf0" stroke="transparent" points="319,-287 319,-319 419,-319 419,-287 319,-287"/>
<polygon fill="#e31a1c" stroke="transparent" points="320,-303 320,-318 418,-318 418,-303 320,-303"/>
<text text-anchor="start" x="322" y="-309" font-family="Ubuntu" font-weight="bold" font-size="10.00">LoadFileRequest</text>
<text text-anchor="start" x="344" y="-293" font-family="Ubuntu" font-size="10.00">1</text>
<text text-anchor="start" x="355" y="-293" font-family="Ubuntu" font-size="10.00">path</text>
<polygon fill="#a6cee3" stroke="transparent" points="382,-288 382,-303 418,-303 418,-288 382,-288"/>
<text text-anchor="start" x="388" y="-294" font-family="Ubuntu" font-style="italic" font-size="10.00">string</text>
<polygon fill="none" stroke="black" points="319,-287 319,-319 419,-319 419,-287 319,-287"/>
</a>
</g>
</g>
<!-- Node_Ja_108 -->
<g id="node7" class="node">
<title>Node_Ja_108</title>
<g id="a_node7"><a xlink:title=".SeekRequest">
<polygon fill="#fffaf0" stroke="transparent" points="555.5,-102 555.5,-134 769.5,-134 769.5,-102 555.5,-102"/>
<polygon fill="#e31a1c" stroke="transparent" points="556.5,-118 556.5,-133 768.5,-133 768.5,-118 556.5,-118"/>
<text text-anchor="start" x="692.5" y="-124" font-family="Ubuntu" font-weight="bold" font-size="10.00">SeekRequest</text>
<text text-anchor="start" x="562.5" y="-108" font-family="Ubuntu" font-size="10.00">1</text>
<text text-anchor="start" x="573.5" y="-108" font-family="Ubuntu" font-size="10.00">target</text>
<polygon fill="#fb9a99" stroke="transparent" points="605.5,-103 605.5,-118 768.5,-118 768.5,-103 605.5,-103"/>
<text text-anchor="start" x="607.5" y="-109" font-family="Ubuntu" font-weight="bold" font-size="10.00">google.protobuf.Timestamp</text>
<polygon fill="none" stroke="black" points="555.5,-102 555.5,-134 769.5,-134 769.5,-102 555.5,-102"/>
</a>
</g>
</g>
<!-- Node_Ja_108&#45;&gt;Node_Ja_101 -->
<g id="edge17" class="edge">
<title>Node_Ja_108:e&#45;&gt;Node_Ja_101:header</title>
<g id="a_edge17"><a xlink:title="Ja_108 &#45;&#45;&gt; Ja_101">
<path fill="none" stroke="#000000" d="M769.5,-110C798.67,-110 802.72,-127.04 823,-148 848.87,-174.73 836.02,-216.25 863.94,-223.8"/>
<polygon fill="#000000" stroke="#000000" points="863.66,-227.29 874,-225 864.48,-220.34 863.66,-227.29"/>
</a>
</g>
</g>
<!-- Node_Ja_109 -->
<g id="node8" class="node">
<title>Node_Ja_109</title>
<g id="a_node8"><a xlink:title=".SetSpeedRequest">
<polygon fill="#fffaf0" stroke="transparent" points="315.5,-62 315.5,-94 422.5,-94 422.5,-62 315.5,-62"/>
<polygon fill="#e31a1c" stroke="transparent" points="317,-78 317,-93 422,-93 422,-78 317,-78"/>
<text text-anchor="start" x="319" y="-84" font-family="Ubuntu" font-weight="bold" font-size="10.00">SetSpeedRequest</text>
<text text-anchor="start" x="344" y="-68" font-family="Ubuntu" font-size="10.00">1</text>
<text text-anchor="start" x="355" y="-68" font-family="Ubuntu" font-size="10.00">speed</text>
<polygon fill="#a6cee3" stroke="transparent" points="391,-63 391,-78 422,-78 422,-63 391,-63"/>
<text text-anchor="start" x="397" y="-69" font-family="Ubuntu" font-style="italic" font-size="10.00">float</text>
<polygon fill="none" stroke="black" points="315.5,-62 315.5,-94 422.5,-94 422.5,-62 315.5,-62"/>
</a>
</g>
</g>
<!-- Node_Ja_110 -->
<g id="node9" class="node">
<title>Node_Ja_110</title>
<g id="a_node9"><a xlink:title=".SetLoopRequest">
<polygon fill="#fffaf0" stroke="transparent" points="320,-4 320,-36 418,-36 418,-4 320,-4"/>
<polygon fill="#e31a1c" stroke="transparent" points="321,-20 321,-35 417,-35 417,-20 321,-20"/>
<text text-anchor="start" x="323" y="-26" font-family="Ubuntu" font-weight="bold" font-size="10.00">SetLoopRequest</text>
<text text-anchor="start" x="348" y="-10" font-family="Ubuntu" font-size="10.00">1</text>
<text text-anchor="start" x="359" y="-10" font-family="Ubuntu" font-size="10.00">loop</text>
<polygon fill="#a6cee3" stroke="transparent" points="387,-5 387,-20 417,-20 417,-5 387,-5"/>
<text text-anchor="start" x="393" y="-11" font-family="Ubuntu" font-style="italic" font-size="10.00">bool</text>
<polygon fill="none" stroke="black" points="320,-4 320,-36 418,-36 418,-4 320,-4"/>
</a>
</g>
</g>
<!-- Node_Ja_102 -->
<g id="node10" class="node">
<title>Node_Ja_102</title>
<g id="a_node10"><a xlink:title=".ReplayStatus">
<polygon fill="#fffaf0" stroke="transparent" points="510,-309 510,-491 815,-491 815,-309 510,-309"/>
<polygon fill="#e31a1c" stroke="transparent" points="511.5,-475 511.5,-490 814.5,-490 814.5,-475 511.5,-475"/>
<text text-anchor="start" x="736.5" y="-481" font-family="Ubuntu" font-weight="bold" font-size="10.00">ReplayStatus</text>
<text text-anchor="start" x="523.5" y="-465" font-family="Ubuntu" font-size="10.00">1</text>
<text text-anchor="start" x="534.5" y="-465" font-family="Ubuntu" font-size="10.00">state</text>
<polygon fill="#b2df8a" stroke="transparent" points="651.5,-460 651.5,-475 814.5,-475 814.5,-460 651.5,-460"/>
<text text-anchor="start" x="786.5" y="-466" font-family="Ubuntu" text-decoration="underline" font-size="10.00">State</text>
<text text-anchor="start" x="523.5" y="-450" font-family="Ubuntu" font-size="10.00">2</text>
<text text-anchor="start" x="534.5" y="-450" font-family="Ubuntu" font-size="10.00">current_time</text>
<polygon fill="#fb9a99" stroke="transparent" points="651.5,-445 651.5,-460 814.5,-460 814.5,-445 651.5,-445"/>
<text text-anchor="start" x="653.5" y="-451" font-family="Ubuntu" font-weight="bold" font-size="10.00">google.protobuf.Timestamp</text>
<text text-anchor="start" x="523.5" y="-435" font-family="Ubuntu" font-size="10.00">3</text>
<text text-anchor="start" x="534.5" y="-435" font-family="Ubuntu" font-size="10.00">start_time</text>
<polygon fill="#fb9a99" stroke="transparent" points="651.5,-430 651.5,-445 814.5,-445 814.5,-430 651.5,-430"/>
<text text-anchor="start" x="653.5" y="-436" font-family="Ubuntu" font-weight="bold" font-size="10.00">google.protobuf.Timestamp</text>
<text text-anchor="start" x="523.5" y="-420" font-family="Ubuntu" font-size="10.00">4</text>
<text text-anchor="start" x="534.5" y="-420" font-family="Ubuntu" font-size="10.00">end_time</text>
<polygon fill="#fb9a99" stroke="transparent" points="651.5,-415 651.5,-430 814.5,-430 814.5,-415 651.5,-415"/>
<text text-anchor="start" x="653.5" y="-421" font-family="Ubuntu" font-weight="bold" font-size="10.00">google.protobuf.Timestamp</text>
<text text-anchor="start" x="523.5" y="-405" font-family="Ubuntu" font-size="10.00">5</text>
<text text-anchor="start" x="534.5" y="-405" font-family="Ubuntu" font-size="10.00">playback_speed</text>
<polygon fill="#a6cee3" stroke="transparent" points="651.5,-400 651.5,-415 814.5,-415 814.5,-400 651.5,-400"/>
<text text-anchor="start" x="789.5" y="-406" font-family="Ubuntu" font-style="italic" font-size="10.00">float</text>
<text text-anchor="start" x="523.5" y="-390" font-family="Ubuntu" font-size="10.00">6</text>
<text text-anchor="start" x="534.5" y="-390" font-family="Ubuntu" font-size="10.00">loaded_file</text>
<polygon fill="#a6cee3" stroke="transparent" points="651.5,-385 651.5,-400 814.5,-400 814.5,-385 651.5,-385"/>
<text text-anchor="start" x="784.5" y="-391" font-family="Ubuntu" font-style="italic" font-size="10.00">string</text>
<text text-anchor="start" x="523.5" y="-375" font-family="Ubuntu" font-size="10.00">7</text>
<text text-anchor="start" x="534.5" y="-375" font-family="Ubuntu" font-size="10.00">channel_count</text>
<polygon fill="#a6cee3" stroke="transparent" points="651.5,-370 651.5,-385 814.5,-385 814.5,-370 651.5,-370"/>
<text text-anchor="start" x="781.5" y="-376" font-family="Ubuntu" font-style="italic" font-size="10.00">uint32</text>
<text text-anchor="start" x="523.5" y="-360" font-family="Ubuntu" font-size="10.00">8</text>
<text text-anchor="start" x="534.5" y="-360" font-family="Ubuntu" font-size="10.00">total_message_count</text>
<polygon fill="#a6cee3" stroke="transparent" points="651.5,-355 651.5,-370 814.5,-370 814.5,-355 651.5,-355"/>
<text text-anchor="start" x="781.5" y="-361" font-family="Ubuntu" font-style="italic" font-size="10.00">uint64</text>
<text text-anchor="start" x="523.5" y="-345" font-family="Ubuntu" font-size="10.00">9</text>
<text text-anchor="start" x="534.5" y="-345" font-family="Ubuntu" font-size="10.00">played_message_count</text>
<polygon fill="#a6cee3" stroke="transparent" points="651.5,-340 651.5,-355 814.5,-355 814.5,-340 651.5,-340"/>
<text text-anchor="start" x="781.5" y="-346" font-family="Ubuntu" font-style="italic" font-size="10.00">uint64</text>
<text text-anchor="start" x="517.5" y="-330" font-family="Ubuntu" font-size="10.00">10</text>
<text text-anchor="start" x="534.5" y="-330" font-family="Ubuntu" font-size="10.00">progress_pct</text>
<polygon fill="#a6cee3" stroke="transparent" points="651.5,-325 651.5,-340 814.5,-340 814.5,-325 651.5,-325"/>
<text text-anchor="start" x="789.5" y="-331" font-family="Ubuntu" font-style="italic" font-size="10.00">float</text>
<text text-anchor="start" x="517.5" y="-315" font-family="Ubuntu" font-size="10.00">11</text>
<text text-anchor="start" x="534.5" y="-315" font-family="Ubuntu" font-size="10.00">loop</text>
<polygon fill="#a6cee3" stroke="transparent" points="651.5,-310 651.5,-325 814.5,-325 814.5,-310 651.5,-310"/>
<text text-anchor="start" x="790.5" y="-316" font-family="Ubuntu" font-style="italic" font-size="10.00">bool</text>
<polygon fill="none" stroke="black" points="510,-309 510,-491 815,-491 815,-309 510,-309"/>
</a>
</g>
</g>
<!-- Node_Ja_102&#45;&gt;Node_Ja_101 -->
<g id="edge6" class="edge">
<title>Node_Ja_102:e&#45;&gt;Node_Ja_101:header</title>
<g id="a_edge6"><a xlink:title="Ja_102 &#45;&#45;&gt; Ja_101">
<path fill="none" stroke="#000000" d="M815.5,-453C864.13,-453 827.69,-255.94 864.36,-228.22"/>
<polygon fill="#000000" stroke="#000000" points="865.63,-231.49 874,-225 863.41,-224.85 865.63,-231.49"/>
</a>
</g>
</g>
<!-- Node_Ja_102&#45;&gt;Node_Ja_101 -->
<g id="edge7" class="edge">
<title>Node_Ja_102:e&#45;&gt;Node_Ja_101:header</title>
<g id="a_edge7"><a xlink:title="Ja_102 &#45;&#45;&gt; Ja_101">
<path fill="none" stroke="#000000" d="M815.5,-423C903.5,-423 792.13,-240.91 863.77,-225.97"/>
<polygon fill="#000000" stroke="#000000" points="864.38,-229.43 874,-225 863.71,-222.46 864.38,-229.43"/>
</a>
</g>
</g>
<!-- Node_Ja_102&#45;&gt;Node_Ja_101 -->
<g id="edge13" class="edge">
<title>Node_Ja_102:e&#45;&gt;Node_Ja_101:header</title>
<g id="a_edge13"><a xlink:title="Ja_102 &#45;&#45;&gt; Ja_101">
<path fill="none" stroke="#000000" d="M815.5,-438C910.03,-438 785.73,-240.52 864.02,-225.86"/>
<polygon fill="#000000" stroke="#000000" points="864.34,-229.34 874,-225 863.74,-222.37 864.34,-229.34"/>
</a>
</g>
</g>
<!-- Node_Ja_102&#45;&gt;Node_Ja_103 -->
<g id="edge12" class="edge">
<title>Node_Ja_102:e&#45;&gt;Node_Ja_103</title>
<g id="a_edge12"><a xlink:title="Ja_102 &#45;&#45;&gt; Ja_103">
<path fill="none" stroke="#008000" d="M815.5,-468C832,-468 849.98,-468 866.22,-468"/>
<polygon fill="#008000" stroke="#008000" points="866.61,-471.5 876.61,-468 866.61,-464.5 866.61,-471.5"/>
</a>
</g>
</g>
<!-- Node_Ja_111 -->
<g id="node11" class="node">
<title>Node_Ja_111</title>
<g id="a_node11"><a xlink:title=".McapReplaySuccessResponse">
<polygon fill="#fffaf0" stroke="transparent" points="280,-163.5 280,-180.5 458,-180.5 458,-163.5 280,-163.5"/>
<polygon fill="#e31a1c" stroke="transparent" points="281,-164 281,-179 457,-179 457,-164 281,-164"/>
<text text-anchor="start" x="286" y="-170" font-family="Ubuntu" font-weight="bold" font-size="10.00">McapReplaySuccessResponse</text>
<polygon fill="none" stroke="black" points="280,-163.5 280,-180.5 458,-180.5 458,-163.5 280,-163.5"/>
</a>
</g>
</g>
<!-- Node_Ja_112 -->
<g id="node12" class="node">
<title>Node_Ja_112</title>
<g id="a_node12"><a xlink:title="McapReplayControl">
<polygon fill="#ffd700" stroke="transparent" points="8,-77.5 8,-364.5 228,-364.5 228,-77.5 8,-77.5"/>
<polygon fill="#ff7f50" stroke="transparent" points="9,-348 9,-363 227,-363 227,-348 9,-348"/>
<text text-anchor="start" x="114" y="-354" font-family="Ubuntu" font-weight="bold" font-size="10.00">McapReplayControl</text>
<text text-anchor="start" x="11" y="-339" font-family="Ubuntu" font-weight="bold" font-size="10.00">get_status</text>
<text text-anchor="start" x="113" y="-338" font-family="Ubuntu" font-size="10.00">google.protobuf.Empty</text>
<polygon fill="#ff7f50" stroke="transparent" points="72,-318 72,-333 76,-333 76,-318 72,-318"/>
<polygon fill="#ff7f50" stroke="transparent" points="76,-318 76,-333 227,-333 227,-318 76,-318"/>
<text text-anchor="start" x="160" y="-323" font-family="Ubuntu" font-size="10.00">ReplayStatus</text>
<text text-anchor="start" x="11" y="-309" font-family="Ubuntu" font-weight="bold" font-size="10.00">list_files</text>
<text text-anchor="start" x="145" y="-308" font-family="Ubuntu" font-size="10.00">ListFilesRequest</text>
<polygon fill="#ff7f50" stroke="transparent" points="72,-288 72,-303 76,-303 76,-288 72,-288"/>
<polygon fill="#ff7f50" stroke="transparent" points="76,-288 76,-303 227,-303 227,-288 76,-288"/>
<text text-anchor="start" x="137" y="-293" font-family="Ubuntu" font-size="10.00">ListFilesResponse</text>
<text text-anchor="start" x="11" y="-279" font-family="Ubuntu" font-weight="bold" font-size="10.00">load_file</text>
<text text-anchor="start" x="144" y="-278" font-family="Ubuntu" font-size="10.00">LoadFileRequest</text>
<polygon fill="#ff7f50" stroke="transparent" points="72,-258 72,-273 76,-273 76,-258 72,-258"/>
<polygon fill="#ff7f50" stroke="transparent" points="76,-258 76,-273 227,-273 227,-258 76,-258"/>
<text text-anchor="start" x="78" y="-263" font-family="Ubuntu" font-size="10.00">McapReplaySuccessResponse</text>
<text text-anchor="start" x="11" y="-249" font-family="Ubuntu" font-weight="bold" font-size="10.00">play</text>
<text text-anchor="start" x="113" y="-248" font-family="Ubuntu" font-size="10.00">google.protobuf.Empty</text>
<polygon fill="#ff7f50" stroke="transparent" points="72,-228 72,-243 76,-243 76,-228 72,-228"/>
<polygon fill="#ff7f50" stroke="transparent" points="76,-228 76,-243 227,-243 227,-228 76,-228"/>
<text text-anchor="start" x="78" y="-233" font-family="Ubuntu" font-size="10.00">McapReplaySuccessResponse</text>
<text text-anchor="start" x="11" y="-219" font-family="Ubuntu" font-weight="bold" font-size="10.00">pause</text>
<text text-anchor="start" x="113" y="-218" font-family="Ubuntu" font-size="10.00">google.protobuf.Empty</text>
<polygon fill="#ff7f50" stroke="transparent" points="72,-198 72,-213 76,-213 76,-198 72,-198"/>
<polygon fill="#ff7f50" stroke="transparent" points="76,-198 76,-213 227,-213 227,-198 76,-198"/>
<text text-anchor="start" x="78" y="-203" font-family="Ubuntu" font-size="10.00">McapReplaySuccessResponse</text>
<text text-anchor="start" x="11" y="-189" font-family="Ubuntu" font-weight="bold" font-size="10.00">stop</text>
<text text-anchor="start" x="113" y="-188" font-family="Ubuntu" font-size="10.00">google.protobuf.Empty</text>
<polygon fill="#ff7f50" stroke="transparent" points="72,-168 72,-183 76,-183 76,-168 72,-168"/>
<polygon fill="#ff7f50" stroke="transparent" points="76,-168 76,-183 227,-183 227,-168 76,-168"/>
<text text-anchor="start" x="78" y="-173" font-family="Ubuntu" font-size="10.00">McapReplaySuccessResponse</text>
<text text-anchor="start" x="11" y="-159" font-family="Ubuntu" font-weight="bold" font-size="10.00">seek</text>
<text text-anchor="start" x="161" y="-158" font-family="Ubuntu" font-size="10.00">SeekRequest</text>
<polygon fill="#ff7f50" stroke="transparent" points="72,-138 72,-153 76,-153 76,-138 72,-138"/>
<polygon fill="#ff7f50" stroke="transparent" points="76,-138 76,-153 227,-153 227,-138 76,-138"/>
<text text-anchor="start" x="78" y="-143" font-family="Ubuntu" font-size="10.00">McapReplaySuccessResponse</text>
<text text-anchor="start" x="11" y="-129" font-family="Ubuntu" font-weight="bold" font-size="10.00">set_speed</text>
<text text-anchor="start" x="139" y="-128" font-family="Ubuntu" font-size="10.00">SetSpeedRequest</text>
<polygon fill="#ff7f50" stroke="transparent" points="72,-108 72,-123 76,-123 76,-108 72,-108"/>
<polygon fill="#ff7f50" stroke="transparent" points="76,-108 76,-123 227,-123 227,-108 76,-108"/>
<text text-anchor="start" x="78" y="-113" font-family="Ubuntu" font-size="10.00">McapReplaySuccessResponse</text>
<text text-anchor="start" x="11" y="-99" font-family="Ubuntu" font-weight="bold" font-size="10.00">set_loop</text>
<text text-anchor="start" x="146" y="-98" font-family="Ubuntu" font-size="10.00">SetLoopRequest</text>
<polygon fill="#ff7f50" stroke="transparent" points="72,-78 72,-93 76,-93 76,-78 72,-78"/>
<polygon fill="#ff7f50" stroke="transparent" points="76,-78 76,-93 227,-93 227,-78 76,-78"/>
<text text-anchor="start" x="78" y="-83" font-family="Ubuntu" font-size="10.00">McapReplaySuccessResponse</text>
<polygon fill="none" stroke="black" points="8,-77.5 8,-364.5 228,-364.5 228,-77.5 8,-77.5"/>
</a>
</g>
</g>
<!-- Node_Ja_112&#45;&gt;Node_Ja_100 -->
<g id="edge15" class="edge">
<title>Node_Ja_112:e&#45;&gt;Node_Ja_100:header</title>
<g id="a_edge15"><a xlink:title="Ja_112 &#45;&#45;&gt; Ja_100">
<path fill="none" stroke="#000000" d="M228,-220C265.31,-220 308.18,-221.8 336.54,-223.23"/>
<polygon fill="#000000" stroke="#000000" points="336.49,-226.74 346.66,-223.76 336.86,-219.75 336.49,-226.74"/>
</a>
</g>
</g>
<!-- Node_Ja_112&#45;&gt;Node_Ja_100 -->
<g id="edge18" class="edge">
<title>Node_Ja_112:e&#45;&gt;Node_Ja_100:header</title>
<g id="a_edge18"><a xlink:title="Ja_112 &#45;&#45;&gt; Ja_100">
<path fill="none" stroke="#000000" d="M228,-341C263.62,-341 245.47,-297.78 272,-274 291.04,-256.93 317.1,-244.13 337.27,-235.89"/>
<polygon fill="#000000" stroke="#000000" points="338.61,-239.13 346.64,-232.22 336.05,-232.61 338.61,-239.13"/>
</a>
</g>
</g>
<!-- Node_Ja_112&#45;&gt;Node_Ja_100 -->
<g id="edge20" class="edge">
<title>Node_Ja_112:e&#45;&gt;Node_Ja_100:header</title>
<g id="a_edge20"><a xlink:title="Ja_112 &#45;&#45;&gt; Ja_100">
<path fill="none" stroke="#000000" d="M228,-251C266.09,-251 309.04,-241.58 337.21,-234.08"/>
<polygon fill="#000000" stroke="#000000" points="338.16,-237.45 346.88,-231.43 336.31,-230.7 338.16,-237.45"/>
</a>
</g>
</g>
<!-- Node_Ja_112&#45;&gt;Node_Ja_100 -->
<g id="edge23" class="edge">
<title>Node_Ja_112:e&#45;&gt;Node_Ja_100:header</title>
<g id="a_edge23"><a xlink:title="Ja_112 &#45;&#45;&gt; Ja_100">
<path fill="none" stroke="#000000" d="M228,-190C238.85,-190 299.11,-206.02 336.95,-216.39"/>
<polygon fill="#000000" stroke="#000000" points="336.4,-219.87 346.97,-219.14 338.26,-213.12 336.4,-219.87"/>
</a>
</g>
</g>
<!-- Node_Ja_112&#45;&gt;Node_Ja_106 -->
<g id="edge14" class="edge">
<title>Node_Ja_112:e&#45;&gt;Node_Ja_106:header</title>
<g id="a_edge14"><a xlink:title="Ja_112 &#45;&#45;&gt; Ja_106">
<path fill="none" stroke="#000000" d="M228,-296C271.92,-296 247.13,-370.15 279.78,-382.32"/>
<polygon fill="#000000" stroke="#000000" points="279.56,-385.83 290,-384 280.7,-378.92 279.56,-385.83"/>
</a>
</g>
</g>
<!-- Node_Ja_112&#45;&gt;Node_Ja_107 -->
<g id="edge3" class="edge">
<title>Node_Ja_112:e&#45;&gt;Node_Ja_107:header</title>
<g id="a_edge3"><a xlink:title="Ja_112 &#45;&#45;&gt; Ja_107">
<path fill="none" stroke="#000000" d="M228,-281C266.93,-281 275.14,-306.07 308.79,-310.37"/>
<polygon fill="#000000" stroke="#000000" points="308.8,-313.88 319,-311 309.23,-306.89 308.8,-313.88"/>
</a>
</g>
</g>
<!-- Node_Ja_112&#45;&gt;Node_Ja_108 -->
<g id="edge25" class="edge">
<title>Node_Ja_112:e&#45;&gt;Node_Ja_108:header</title>
<g id="a_edge25"><a xlink:title="Ja_112 &#45;&#45;&gt; Ja_108">
<path fill="none" stroke="#000000" d="M228,-160C248.66,-160 251.74,-149.06 272,-145 392.44,-120.87 427.32,-125.71 545.35,-125.99"/>
<polygon fill="#000000" stroke="#000000" points="545.5,-129.49 555.5,-126 545.5,-122.49 545.5,-129.49"/>
</a>
</g>
</g>
<!-- Node_Ja_112&#45;&gt;Node_Ja_109 -->
<g id="edge4" class="edge">
<title>Node_Ja_112:e&#45;&gt;Node_Ja_109:header</title>
<g id="a_edge4"><a xlink:title="Ja_112 &#45;&#45;&gt; Ja_109">
<path fill="none" stroke="#000000" d="M228,-130C267.97,-130 271.86,-93.24 305.63,-86.92"/>
<polygon fill="#000000" stroke="#000000" points="306.35,-90.37 316,-86 305.73,-83.4 306.35,-90.37"/>
</a>
</g>
</g>
<!-- Node_Ja_112&#45;&gt;Node_Ja_110 -->
<g id="edge11" class="edge">
<title>Node_Ja_112:e&#45;&gt;Node_Ja_110:header</title>
<g id="a_edge11"><a xlink:title="Ja_112 &#45;&#45;&gt; Ja_110">
<path fill="none" stroke="#000000" d="M228,-100C257.94,-100 247.91,-66.77 272,-49 287.66,-37.44 294.41,-30.53 309.8,-28.58"/>
<polygon fill="#000000" stroke="#000000" points="310.21,-32.06 320,-28 309.82,-25.07 310.21,-32.06"/>
</a>
</g>
</g>
<!-- Node_Ja_112&#45;&gt;Node_Ja_102 -->
<g id="edge9" class="edge">
<title>Node_Ja_112:e&#45;&gt;Node_Ja_102:header</title>
<g id="a_edge9"><a xlink:title="Ja_112 &#45;&#45;&gt; Ja_102">
<path fill="none" stroke="#000000" d="M228,-326C292.38,-326 221.57,-423.98 272,-464 352.61,-527.97 400.98,-485.92 500.4,-483.14"/>
<polygon fill="#000000" stroke="#000000" points="500.55,-486.64 510.5,-483 500.45,-479.64 500.55,-486.64"/>
</a>
</g>
</g>
<!-- Node_Ja_112&#45;&gt;Node_Ja_111 -->
<g id="edge5" class="edge">
<title>Node_Ja_112:e&#45;&gt;Node_Ja_111:header</title>
<g id="a_edge5"><a xlink:title="Ja_112 &#45;&#45;&gt; Ja_111">
<path fill="none" stroke="#000000" d="M228,-115C250.49,-115 251.41,-130.94 272,-140 291.21,-148.45 313.46,-155.78 331.71,-161.19"/>
<polygon fill="#000000" stroke="#000000" points="330.81,-164.57 341.39,-163.99 332.75,-157.85 330.81,-164.57"/>
</a>
</g>
</g>
<!-- Node_Ja_112&#45;&gt;Node_Ja_111 -->
<g id="edge16" class="edge">
<title>Node_Ja_112:e&#45;&gt;Node_Ja_111:header</title>
<g id="a_edge16"><a xlink:title="Ja_112 &#45;&#45;&gt; Ja_111">
<path fill="none" stroke="#000000" d="M228,-145C264.99,-145 306.57,-153.88 334.73,-161.26"/>
<polygon fill="#000000" stroke="#000000" points="333.9,-164.66 344.47,-163.9 335.73,-157.91 333.9,-164.66"/>
</a>
</g>
</g>
<!-- Node_Ja_112&#45;&gt;Node_Ja_111 -->
<g id="edge19" class="edge">
<title>Node_Ja_112:e&#45;&gt;Node_Ja_111:header</title>
<g id="a_edge19"><a xlink:title="Ja_112 &#45;&#45;&gt; Ja_111">
<path fill="none" stroke="#000000" d="M228,-266C264.75,-266 242.36,-217.71 272,-196 280.08,-190.08 289.43,-185.57 299.07,-182.12"/>
<polygon fill="#000000" stroke="#000000" points="300.32,-185.39 308.77,-179.01 298.18,-178.73 300.32,-185.39"/>
</a>
</g>
</g>
<!-- Node_Ja_112&#45;&gt;Node_Ja_111 -->
<g id="edge21" class="edge">
<title>Node_Ja_112:e&#45;&gt;Node_Ja_111:header</title>
<g id="a_edge21"><a xlink:title="Ja_112 &#45;&#45;&gt; Ja_111">
<path fill="none" stroke="#000000" d="M228,-236C254.43,-236 248.76,-208.58 272,-196 283.23,-189.92 296.02,-185.26 308.51,-181.71"/>
<polygon fill="#000000" stroke="#000000" points="309.65,-185.03 318.43,-179.1 307.87,-178.26 309.65,-185.03"/>
</a>
</g>
</g>
<!-- Node_Ja_112&#45;&gt;Node_Ja_111 -->
<g id="edge22" class="edge">
<title>Node_Ja_112:e&#45;&gt;Node_Ja_111:header</title>
<g id="a_edge22"><a xlink:title="Ja_112 &#45;&#45;&gt; Ja_111">
<path fill="none" stroke="#000000" d="M228,-205C233.03,-205 287.1,-191.55 326.54,-181.57"/>
<polygon fill="#000000" stroke="#000000" points="327.63,-184.91 336.47,-179.06 325.91,-178.12 327.63,-184.91"/>
</a>
</g>
</g>
<!-- Node_Ja_112&#45;&gt;Node_Ja_111 -->
<g id="edge24" class="edge">
<title>Node_Ja_112:e&#45;&gt;Node_Ja_111:header</title>
<g id="a_edge24"><a xlink:title="Ja_112 &#45;&#45;&gt; Ja_111">
<path fill="none" stroke="#000000" d="M228,-175C241.7,-175 256.14,-174.81 270.35,-174.5"/>
<polygon fill="#000000" stroke="#000000" points="270.72,-178 280.63,-174.27 270.56,-171 270.72,-178"/>
</a>
</g>
</g>
<!-- Node_Ja_112&#45;&gt;Node_Ja_111 -->
<g id="edge26" class="edge">
<title>Node_Ja_112:e&#45;&gt;Node_Ja_111:header</title>
<g id="a_edge26"><a xlink:title="Ja_112 &#45;&#45;&gt; Ja_111">
<path fill="none" stroke="#000000" d="M228,-85C259.3,-85 246.24,-122.22 272,-140 286.08,-149.72 303.4,-156.54 319.44,-161.25"/>
<polygon fill="#000000" stroke="#000000" points="318.64,-164.66 329.21,-163.92 320.49,-157.91 318.64,-164.66"/>
</a>
</g>
</g>
<!-- Node_Ja_105 -->
<g id="node13" class="node">
<title>Node_Ja_105</title>
<g id="a_node13"><a xlink:title=".ListFilesRequest">
<polygon fill="#fffaf0" stroke="transparent" points="319,-419 319,-451 419,-451 419,-419 319,-419"/>
<polygon fill="#e31a1c" stroke="transparent" points="320,-435 320,-450 418,-450 418,-435 320,-435"/>
<text text-anchor="start" x="322" y="-441" font-family="Ubuntu" font-weight="bold" font-size="10.00">ListFilesRequest</text>
<text text-anchor="start" x="334" y="-425" font-family="Ubuntu" font-size="10.00">1</text>
<text text-anchor="start" x="345" y="-425" font-family="Ubuntu" font-size="10.00">pattern</text>
<polygon fill="#a6cee3" stroke="transparent" points="384,-420 384,-435 418,-435 418,-420 384,-420"/>
<text text-anchor="start" x="388" y="-426" font-family="Ubuntu" font-style="italic" font-size="10.00">string</text>
<polygon fill="none" stroke="black" points="319,-419 319,-451 419,-451 419,-419 319,-419"/>
</a>
</g>
</g>
<!-- Node_Ja_112&#45;&gt;Node_Ja_105 -->
<g id="edge10" class="edge">
<title>Node_Ja_112:e&#45;&gt;Node_Ja_105:header</title>
<g id="a_edge10"><a xlink:title="Ja_112 &#45;&#45;&gt; Ja_105">
<path fill="none" stroke="#000000" d="M228,-311C274.53,-311 243.15,-369.49 272,-406 286.17,-423.92 291.06,-438.37 309.03,-442.07"/>
<polygon fill="#000000" stroke="#000000" points="308.72,-445.56 319,-443 309.37,-438.59 308.72,-445.56"/>
</a>
</g>
</g>
</g>
</svg>
