<?xml version="1.0" encoding="UTF-8" standalone="no"?>
<!DOCTYPE svg PUBLIC "-//W3C//DTD SVG 1.1//EN"
 "http://www.w3.org/Graphics/SVG/1.1/DTD/svg11.dtd">
<!-- Generated by graphviz version 2.43.0 (0)
 -->
<!-- Title: protodot Pages: 1 -->
<svg width="942pt" height="151pt"
 viewBox="0.00 0.00 942.00 150.50" xmlns="http://www.w3.org/2000/svg" xmlns:xlink="http://www.w3.org/1999/xlink">
<g id="graph0" class="graph" transform="scale(1 1) rotate(0) translate(4 146.5)">
<title>protodot</title>
<g id="clust1" class="cluster">
<title>cluster_fb36aafb54f5</title>
<g id="a_clust1"><a xlink:title="google/protobuf/timestamp.proto">
<polygon fill="#caff70" stroke="black" points="797,-8 797,-103 933,-103 933,-8 797,-8"/>
<text text-anchor="middle" x="865" y="-87.8" font-family="Times,serif" font-size="14.00">timestamp.proto</text>
</a>
</g>
</g>
<!-- Node_Ja_100 -->
<g id="node1" class="node">
<title>Node_Ja_100</title>
<g id="a_node1"><a xlink:title="google.protobuf.Timestamp">
<polygon fill="#fffaf0" stroke="transparent" points="820,-20.5 820,-67.5 910,-67.5 910,-20.5 820,-20.5"/>
<polygon fill="#e31a1c" stroke="transparent" points="821,-51 821,-66 909,-66 909,-51 821,-51"/>
<text text-anchor="start" x="843" y="-57" font-family="Ubuntu" font-weight="bold" font-size="10.00">Timestamp</text>
<text text-anchor="start" x="827" y="-41" font-family="Ubuntu" font-size="10.00">1</text>
<text text-anchor="start" x="838" y="-41" font-family="Ubuntu" font-size="10.00">seconds</text>
<polygon fill="#a6cee3" stroke="transparent" points="880,-36 880,-51 909,-51 909,-36 880,-36"/>
<text text-anchor="start" x="882" y="-42" font-family="Ubuntu" font-style="italic" font-size="10.00">int64</text>
<text text-anchor="start" x="827" y="-26" font-family="Ubuntu" font-size="10.00">2</text>
<text text-anchor="start" x="838" y="-26" font-family="Ubuntu" font-size="10.00">nanos</text>
<polygon fill="#a6cee3" stroke="transparent" points="880,-21 880,-36 909,-36 909,-21 880,-21"/>
<text text-anchor="start" x="882" y="-27" font-family="Ubuntu" font-style="italic" font-size="10.00">int32</text>
<polygon fill="none" stroke="black" points="820,-20.5 820,-67.5 910,-67.5 910,-20.5 820,-20.5"/>
</a>
</g>
</g>
<!-- Node_Ja_101 -->
<g id="node2" class="node">
<title>Node_Ja_101</title>
<g id="a_node2"><a xlink:title=".NetworkPing">
<polygon fill="#fffaf0" stroke="transparent" points="537,-91.5 537,-138.5 761,-138.5 761,-91.5 537,-91.5"/>
<polygon fill="#e31a1c" stroke="transparent" points="538,-122 538,-137 760,-137 760,-122 538,-122"/>
<text text-anchor="start" x="685" y="-128" font-family="Ubuntu" font-weight="bold" font-size="10.00">NetworkPing</text>
<text text-anchor="start" x="544" y="-112" font-family="Ubuntu" font-size="10.00">1</text>
<text text-anchor="start" x="555" y="-112" font-family="Ubuntu" font-size="10.00">sent_at</text>
<polygon fill="#fb9a99" stroke="transparent" points="597,-107 597,-122 760,-122 760,-107 597,-107"/>
<text text-anchor="start" x="599" y="-113" font-family="Ubuntu" font-weight="bold" font-size="10.00">google.protobuf.Timestamp</text>
<text text-anchor="start" x="544" y="-97" font-family="Ubuntu" font-size="10.00">2</text>
<text text-anchor="start" x="555" y="-97" font-family="Ubuntu" font-size="10.00">payload</text>
<polygon fill="#a6cee3" stroke="transparent" points="597,-92 597,-107 760,-107 760,-92 597,-92"/>
<text text-anchor="start" x="730" y="-98" font-family="Ubuntu" font-style="italic" font-size="10.00">bytes</text>
<polygon fill="none" stroke="black" points="537,-91.5 537,-138.5 761,-138.5 761,-91.5 537,-91.5"/>
</a>
</g>
</g>
<!-- Node_Ja_101&#45;&gt;Node_Ja_100 -->
<g id="edge2" class="edge">
<title>Node_Ja_101:e&#45;&gt;Node_Ja_100:header</title>
<g id="a_edge2"><a xlink:title="Ja_101 &#45;&#45;&gt; Ja_100">
<path fill="none" stroke="#000000" d="M761,-114C792.93,-114 786.35,-70.37 809.85,-60.83"/>
<polygon fill="#000000" stroke="#000000" points="810.78,-64.22 820,-59 809.54,-57.33 810.78,-64.22"/>
</a>
</g>
</g>
<!-- Node_Ja_102 -->
<g id="node3" class="node">
<title>Node_Ja_102</title>
<g id="a_node3"><a xlink:title=".NetworkPong">
<polygon fill="#fffaf0" stroke="transparent" points="217,-24 217,-86 485,-86 485,-24 217,-24"/>
<polygon fill="#e31a1c" stroke="transparent" points="218,-70 218,-85 484,-85 484,-70 218,-70"/>
<text text-anchor="start" x="406" y="-76" font-family="Ubuntu" font-weight="bold" font-size="10.00">NetworkPong</text>
<text text-anchor="start" x="224" y="-60" font-family="Ubuntu" font-size="10.00">1</text>
<text text-anchor="start" x="235" y="-60" font-family="Ubuntu" font-size="10.00">sent_at</text>
<polygon fill="#fb9a99" stroke="transparent" points="321,-55 321,-70 484,-70 484,-55 321,-55"/>
<text text-anchor="start" x="323" y="-61" font-family="Ubuntu" font-weight="bold" font-size="10.00">google.protobuf.Timestamp</text>
<text text-anchor="start" x="224" y="-45" font-family="Ubuntu" font-size="10.00">2</text>
<text text-anchor="start" x="235" y="-45" font-family="Ubuntu" font-size="10.00">ping</text>
<polygon fill="#fb9a99" stroke="transparent" points="321,-40 321,-55 484,-55 484,-40 321,-40"/>
<text text-anchor="start" x="409" y="-46" font-family="Ubuntu" font-weight="bold" font-size="10.00">NetworkPing</text>
<text text-anchor="start" x="224" y="-30" font-family="Ubuntu" font-size="10.00">3</text>
<text text-anchor="start" x="235" y="-30" font-family="Ubuntu" font-size="10.00">ping_received_at</text>
<polygon fill="#fb9a99" stroke="transparent" points="321,-25 321,-40 484,-40 484,-25 321,-25"/>
<text text-anchor="start" x="323" y="-31" font-family="Ubuntu" font-weight="bold" font-size="10.00">google.protobuf.Timestamp</text>
<polygon fill="none" stroke="black" points="217,-24 217,-86 485,-86 485,-24 217,-24"/>
</a>
</g>
</g>
<!-- Node_Ja_102&#45;&gt;Node_Ja_100 -->
<g id="edge3" class="edge">
<title>Node_Ja_102:e&#45;&gt;Node_Ja_100:header</title>
<g id="a_edge3"><a xlink:title="Ja_102 &#45;&#45;&gt; Ja_100">
<path fill="none" stroke="#000000" d="M485,-63C630.41,-63 669.3,-59.19 809.71,-59.01"/>
<polygon fill="#000000" stroke="#000000" points="810,-62.51 820,-59 810,-55.51 810,-62.51"/>
</a>
</g>
</g>
<!-- Node_Ja_102&#45;&gt;Node_Ja_100 -->
<g id="edge5" class="edge">
<title>Node_Ja_102:e&#45;&gt;Node_Ja_100:header</title>
<g id="a_edge5"><a xlink:title="Ja_102 &#45;&#45;&gt; Ja_100">
<path fill="none" stroke="#000000" d="M485,-32C519.86,-32 749.07,-55.53 809.74,-58.66"/>
<polygon fill="#000000" stroke="#000000" points="809.89,-62.17 820,-59 810.12,-55.17 809.89,-62.17"/>
</a>
</g>
</g>
<!-- Node_Ja_102&#45;&gt;Node_Ja_101 -->
<g id="edge4" class="edge">
<title>Node_Ja_102:e&#45;&gt;Node_Ja_101:header</title>
<g id="a_edge4"><a xlink:title="Ja_102 &#45;&#45;&gt; Ja_101">
<path fill="none" stroke="#000000" d="M485,-47C524.62,-47 499.14,-115.76 527.06,-128.11"/>
<polygon fill="#000000" stroke="#000000" points="526.52,-131.57 537,-130 527.83,-124.69 526.52,-131.57"/>
</a>
</g>
</g>
<!-- Node_Ja_103 -->
<g id="node4" class="node">
<title>Node_Ja_103</title>
<g id="a_node4"><a xlink:title="NetworkPingPong">
<polygon fill="#ffd700" stroke="transparent" points="8,-82.5 8,-129.5 165,-129.5 165,-82.5 8,-82.5"/>
<polygon fill="#ff7f50" stroke="transparent" points="9.5,-113 9.5,-128 164.5,-128 164.5,-113 9.5,-113"/>
<text text-anchor="start" x="60.5" y="-119" font-family="Ubuntu" font-weight="bold" font-size="10.00">NetworkPingPong</text>
<text text-anchor="start" x="11.5" y="-104" font-family="Ubuntu" font-weight="bold" font-size="10.00">ping_network</text>
<text text-anchor="start" x="99.5" y="-103" font-family="Ubuntu" font-size="10.00">NetworkPing</text>
<polygon fill="#ff7f50" stroke="transparent" points="90.5,-83 90.5,-98 94.5,-98 94.5,-83 90.5,-83"/>
<polygon fill="#ff7f50" stroke="transparent" points="94.5,-83 94.5,-98 164.5,-98 164.5,-83 94.5,-83"/>
<text text-anchor="start" x="96.5" y="-88" font-family="Ubuntu" font-size="10.00">NetworkPong</text>
<polygon fill="none" stroke="black" points="8,-82.5 8,-129.5 165,-129.5 165,-82.5 8,-82.5"/>
</a>
</g>
</g>
<!-- Node_Ja_103&#45;&gt;Node_Ja_101 -->
<g id="edge6" class="edge">
<title>Node_Ja_103:e&#45;&gt;Node_Ja_101:header</title>
<g id="a_edge6"><a xlink:title="Ja_103 &#45;&#45;&gt; Ja_101">
<path fill="none" stroke="#000000" d="M165.5,-105C327.59,-105 369.8,-128.99 526.97,-129.97"/>
<polygon fill="#000000" stroke="#000000" points="526.99,-133.47 537,-130 527.01,-126.47 526.99,-133.47"/>
</a>
</g>
</g>
<!-- Node_Ja_103&#45;&gt;Node_Ja_102 -->
<g id="edge1" class="edge">
<title>Node_Ja_103:e&#45;&gt;Node_Ja_102:header</title>
<g id="a_edge1"><a xlink:title="Ja_103 &#45;&#45;&gt; Ja_102">
<path fill="none" stroke="#000000" d="M165.5,-90C185.15,-90 191.51,-81.61 206.8,-78.86"/>
<polygon fill="#000000" stroke="#000000" points="207.33,-82.33 217,-78 206.74,-75.36 207.33,-82.33"/>
</a>
</g>
</g>
</g>
</svg>
