<?xml version="1.0" encoding="UTF-8" standalone="no"?>
<!DOCTYPE svg PUBLIC "-//W3C//DTD SVG 1.1//EN"
 "http://www.w3.org/Graphics/SVG/1.1/DTD/svg11.dtd">
<!-- Generated by graphviz version 2.43.0 (0)
 -->
<!-- Title: protodot Pages: 1 -->
<svg width="922pt" height="463pt"
 viewBox="0.00 0.00 922.00 463.00" xmlns="http://www.w3.org/2000/svg" xmlns:xlink="http://www.w3.org/1999/xlink">
<g id="graph0" class="graph" transform="scale(1 1) rotate(0) translate(4 459)">
<title>protodot</title>
<g id="clust1" class="cluster">
<title>cluster_ac8d7b3b7cac</title>
<g id="a_clust1"><a xlink:title="google/protobuf/empty.proto">
<polygon fill="#caff70" stroke="black" points="281,-200 281,-275 383,-275 383,-200 281,-200"/>
<text text-anchor="middle" x="332" y="-259.8" font-family="Times,serif" font-size="14.00">empty.proto</text>
</a>
</g>
</g>
<g id="clust2" class="cluster">
<title>cluster_fb36aafb54f5</title>
<g id="a_clust2"><a xlink:title="google/protobuf/timestamp.proto">
<polygon fill="#caff70" stroke="black" points="777,-168 777,-263 913,-263 913,-168 777,-168"/>
<text text-anchor="middle" x="845" y="-247.8" font-family="Times,serif" font-size="14.00">timestamp.proto</text>
</a>
</g>
</g>
<!-- Node_Ja_103 -->
<g id="node1" class="node">
<title>Node_Ja_103</title>
<g id="a_node1"><a xlink:title=".ListFilesRequest">
<polygon fill="#fffaf0" stroke="transparent" points="282,-419 282,-451 382,-451 382,-419 282,-419"/>
<polygon fill="#e31a1c" stroke="transparent" points="283,-435 283,-450 381,-450 381,-435 283,-435"/>
<text text-anchor="start" x="285" y="-441" font-family="Ubuntu" font-weight="bold" font-size="10.00">ListFilesRequest</text>
<text text-anchor="start" x="297" y="-425" font-family="Ubuntu" font-size="10.00">1</text>
<text text-anchor="start" x="308" y="-425" font-family="Ubuntu" font-size="10.00">pattern</text>
<polygon fill="#a6cee3" stroke="transparent" points="347,-420 347,-435 381,-435 381,-420 347,-420"/>
<text text-anchor="start" x="351" y="-426" font-family="Ubuntu" font-style="italic" font-size="10.00">string</text>
<polygon fill="none" stroke="black" points="282,-419 282,-451 382,-451 382,-419 282,-419"/>
</a>
</g>
</g>
<!-- Node_Ja_106 -->
<g id="node2" class="node">
<title>Node_Ja_106</title>
<g id="a_node2"><a xlink:title=".SeekRequest">
<polygon fill="#fffaf0" stroke="transparent" points="495,-114 495,-146 709,-146 709,-114 495,-114"/>
<polygon fill="#e31a1c" stroke="transparent" points="496,-130 496,-145 708,-145 708,-130 496,-130"/>
<text text-anchor="start" x="632" y="-136" font-family="Ubuntu" font-weight="bold" font-size="10.00">SeekRequest</text>
<text text-anchor="start" x="502" y="-120" font-family="Ubuntu" font-size="10.00">1</text>
<text text-anchor="start" x="513" y="-120" font-family="Ubuntu" font-size="10.00">target</text>
<polygon fill="#fb9a99" stroke="transparent" points="545,-115 545,-130 708,-130 708,-115 545,-115"/>
<text text-anchor="start" x="547" y="-121" font-family="Ubuntu" font-weight="bold" font-size="10.00">google.protobuf.Timestamp</text>
<polygon fill="none" stroke="black" points="495,-114 495,-146 709,-146 709,-114 495,-114"/>
</a>
</g>
</g>
<!-- Node_Ja_101 -->
<g id="node11" class="node">
<title>Node_Ja_101</title>
<g id="a_node11"><a xlink:title="google.protobuf.Timestamp">
<polygon fill="#fffaf0" stroke="transparent" points="800,-180.5 800,-227.5 890,-227.5 890,-180.5 800,-180.5"/>
<polygon fill="#e31a1c" stroke="transparent" points="801,-211 801,-226 889,-226 889,-211 801,-211"/>
<text text-anchor="start" x="823" y="-217" font-family="Ubuntu" font-weight="bold" font-size="10.00">Timestamp</text>
<text text-anchor="start" x="807" y="-201" font-family="Ubuntu" font-size="10.00">1</text>
<text text-anchor="start" x="818" y="-201" font-family="Ubuntu" font-size="10.00">seconds</text>
<polygon fill="#a6cee3" stroke="transparent" points="860,-196 860,-211 889,-211 889,-196 860,-196"/>
<text text-anchor="start" x="862" y="-202" font-family="Ubuntu" font-style="italic" font-size="10.00">int64</text>
<text text-anchor="start" x="807" y="-186" font-family="Ubuntu" font-size="10.00">2</text>
<text text-anchor="start" x="818" y="-186" font-family="Ubuntu" font-size="10.00">nanos</text>
<polygon fill="#a6cee3" stroke="transparent" points="860,-181 860,-196 889,-196 889,-181 860,-181"/>
<text text-anchor="start" x="862" y="-187" font-family="Ubuntu" font-style="italic" font-size="10.00">int32</text>
<polygon fill="none" stroke="black" points="800,-180.5 800,-227.5 890,-227.5 890,-180.5 800,-180.5"/>
</a>
</g>
</g>
<!-- Node_Ja_106&#45;&gt;Node_Ja_101 -->
<g id="edge13" class="edge">
<title>Node_Ja_106:e&#45;&gt;Node_Ja_101:header</title>
<g id="a_edge13"><a xlink:title="Ja_106 &#45;&#45;&gt; Ja_101">
<path fill="none" stroke="#000000" d="M709,-122C764.42,-122 743.95,-207.25 789.89,-217.91"/>
<polygon fill="#000000" stroke="#000000" points="789.68,-221.41 800,-219 790.43,-214.45 789.68,-221.41"/>
</a>
</g>
</g>
<!-- Node_Ja_109 -->
<g id="node3" class="node">
<title>Node_Ja_109</title>
<g id="a_node3"><a xlink:title=".ReplaySuccessResponse">
<polygon fill="#fffaf0" stroke="transparent" points="259,-163.5 259,-180.5 405,-180.5 405,-163.5 259,-163.5"/>
<polygon fill="#e31a1c" stroke="transparent" points="260,-164 260,-179 404,-179 404,-164 260,-164"/>
<text text-anchor="start" x="263" y="-170" font-family="Ubuntu" font-weight="bold" font-size="10.00">ReplaySuccessResponse</text>
<polygon fill="none" stroke="black" points="259,-163.5 259,-180.5 405,-180.5 405,-163.5 259,-163.5"/>
</a>
</g>
</g>
<!-- Node_Ja_110 -->
<g id="node4" class="node">
<title>Node_Ja_110</title>
<g id="a_node4"><a xlink:title="ReplayControl">
<polygon fill="#ffd700" stroke="transparent" points="8,-77.5 8,-334.5 201,-334.5 201,-77.5 8,-77.5"/>
<polygon fill="#ff7f50" stroke="transparent" points="9.5,-318 9.5,-333 200.5,-333 200.5,-318 9.5,-318"/>
<text text-anchor="start" x="117.5" y="-324" font-family="Ubuntu" font-weight="bold" font-size="10.00">ReplayControl</text>
<text text-anchor="start" x="11.5" y="-309" font-family="Ubuntu" font-weight="bold" font-size="10.00">list_files</text>
<text text-anchor="start" x="118.5" y="-308" font-family="Ubuntu" font-size="10.00">ListFilesRequest</text>
<polygon fill="#ff7f50" stroke="transparent" points="71.5,-288 71.5,-303 75.5,-303 75.5,-288 71.5,-288"/>
<polygon fill="#ff7f50" stroke="transparent" points="75.5,-288 75.5,-303 200.5,-303 200.5,-288 75.5,-288"/>
<text text-anchor="start" x="110.5" y="-293" font-family="Ubuntu" font-size="10.00">ListFilesResponse</text>
<text text-anchor="start" x="11.5" y="-279" font-family="Ubuntu" font-weight="bold" font-size="10.00">load_file</text>
<text text-anchor="start" x="117.5" y="-278" font-family="Ubuntu" font-size="10.00">LoadFileRequest</text>
<polygon fill="#ff7f50" stroke="transparent" points="71.5,-258 71.5,-273 75.5,-273 75.5,-258 71.5,-258"/>
<polygon fill="#ff7f50" stroke="transparent" points="75.5,-258 75.5,-273 200.5,-273 200.5,-258 75.5,-258"/>
<text text-anchor="start" x="77.5" y="-263" font-family="Ubuntu" font-size="10.00">ReplaySuccessResponse</text>
<text text-anchor="start" x="11.5" y="-249" font-family="Ubuntu" font-weight="bold" font-size="10.00">play</text>
<text text-anchor="start" x="86.5" y="-248" font-family="Ubuntu" font-size="10.00">google.protobuf.Empty</text>
<polygon fill="#ff7f50" stroke="transparent" points="71.5,-228 71.5,-243 75.5,-243 75.5,-228 71.5,-228"/>
<polygon fill="#ff7f50" stroke="transparent" points="75.5,-228 75.5,-243 200.5,-243 200.5,-228 75.5,-228"/>
<text text-anchor="start" x="77.5" y="-233" font-family="Ubuntu" font-size="10.00">ReplaySuccessResponse</text>
<text text-anchor="start" x="11.5" y="-219" font-family="Ubuntu" font-weight="bold" font-size="10.00">pause</text>
<text text-anchor="start" x="86.5" y="-218" font-family="Ubuntu" font-size="10.00">google.protobuf.Empty</text>
<polygon fill="#ff7f50" stroke="transparent" points="71.5,-198 71.5,-213 75.5,-213 75.5,-198 71.5,-198"/>
<polygon fill="#ff7f50" stroke="transparent" points="75.5,-198 75.5,-213 200.5,-213 200.5,-198 75.5,-198"/>
<text text-anchor="start" x="77.5" y="-203" font-family="Ubuntu" font-size="10.00">ReplaySuccessResponse</text>
<text text-anchor="start" x="11.5" y="-189" font-family="Ubuntu" font-weight="bold" font-size="10.00">stop</text>
<text text-anchor="start" x="86.5" y="-188" font-family="Ubuntu" font-size="10.00">google.protobuf.Empty</text>
<polygon fill="#ff7f50" stroke="transparent" points="71.5,-168 71.5,-183 75.5,-183 75.5,-168 71.5,-168"/>
<polygon fill="#ff7f50" stroke="transparent" points="75.5,-168 75.5,-183 200.5,-183 200.5,-168 75.5,-168"/>
<text text-anchor="start" x="77.5" y="-173" font-family="Ubuntu" font-size="10.00">ReplaySuccessResponse</text>
<text text-anchor="start" x="11.5" y="-159" font-family="Ubuntu" font-weight="bold" font-size="10.00">seek</text>
<text text-anchor="start" x="134.5" y="-158" font-family="Ubuntu" font-size="10.00">SeekRequest</text>
<polygon fill="#ff7f50" stroke="transparent" points="71.5,-138 71.5,-153 75.5,-153 75.5,-138 71.5,-138"/>
<polygon fill="#ff7f50" stroke="transparent" points="75.5,-138 75.5,-153 200.5,-153 200.5,-138 75.5,-138"/>
<text text-anchor="start" x="77.5" y="-143" font-family="Ubuntu" font-size="10.00">ReplaySuccessResponse</text>
<text text-anchor="start" x="11.5" y="-129" font-family="Ubuntu" font-weight="bold" font-size="10.00">set_speed</text>
<text text-anchor="start" x="112.5" y="-128" font-family="Ubuntu" font-size="10.00">SetSpeedRequest</text>
<polygon fill="#ff7f50" stroke="transparent" points="71.5,-108 71.5,-123 75.5,-123 75.5,-108 71.5,-108"/>
<polygon fill="#ff7f50" stroke="transparent" points="75.5,-108 75.5,-123 200.5,-123 200.5,-108 75.5,-108"/>
<text text-anchor="start" x="77.5" y="-113" font-family="Ubuntu" font-size="10.00">ReplaySuccessResponse</text>
<text text-anchor="start" x="11.5" y="-99" font-family="Ubuntu" font-weight="bold" font-size="10.00">set_loop</text>
<text text-anchor="start" x="119.5" y="-98" font-family="Ubuntu" font-size="10.00">SetLoopRequest</text>
<polygon fill="#ff7f50" stroke="transparent" points="71.5,-78 71.5,-93 75.5,-93 75.5,-78 71.5,-78"/>
<polygon fill="#ff7f50" stroke="transparent" points="75.5,-78 75.5,-93 200.5,-93 200.5,-78 75.5,-78"/>
<text text-anchor="start" x="77.5" y="-83" font-family="Ubuntu" font-size="10.00">ReplaySuccessResponse</text>
<polygon fill="none" stroke="black" points="8,-77.5 8,-334.5 201,-334.5 201,-77.5 8,-77.5"/>
</a>
</g>
</g>
<!-- Node_Ja_110&#45;&gt;Node_Ja_103 -->
<g id="edge17" class="edge">
<title>Node_Ja_110:e&#45;&gt;Node_Ja_103:header</title>
<g id="a_edge17"><a xlink:title="Ja_110 &#45;&#45;&gt; Ja_103">
<path fill="none" stroke="#000000" d="M201.5,-311C247.94,-311 218.5,-367.87 245,-406 255.99,-421.81 258.2,-436.81 271.85,-441.5"/>
<polygon fill="#000000" stroke="#000000" points="271.6,-445 282,-443 272.62,-438.07 271.6,-445"/>
</a>
</g>
</g>
<!-- Node_Ja_110&#45;&gt;Node_Ja_106 -->
<g id="edge11" class="edge">
<title>Node_Ja_110:e&#45;&gt;Node_Ja_106:header</title>
<g id="a_edge11"><a xlink:title="Ja_110 &#45;&#45;&gt; Ja_106">
<path fill="none" stroke="#000000" d="M201.5,-160C221.95,-160 224.88,-148.66 245,-145 350.94,-125.72 381.92,-137.23 484.81,-137.96"/>
<polygon fill="#000000" stroke="#000000" points="484.99,-141.46 495,-138 485.01,-134.46 484.99,-141.46"/>
</a>
</g>
</g>
<!-- Node_Ja_110&#45;&gt;Node_Ja_109 -->
<g id="edge4" class="edge">
<title>Node_Ja_110:e&#45;&gt;Node_Ja_109:header</title>
<g id="a_edge4"><a xlink:title="Ja_110 &#45;&#45;&gt; Ja_109">
<path fill="none" stroke="#000000" d="M201.5,-145C235.51,-145 273.58,-153.73 299.59,-161.07"/>
<polygon fill="#000000" stroke="#000000" points="298.69,-164.45 309.27,-163.9 300.65,-157.73 298.69,-164.45"/>
</a>
</g>
</g>
<!-- Node_Ja_110&#45;&gt;Node_Ja_109 -->
<g id="edge7" class="edge">
<title>Node_Ja_110:e&#45;&gt;Node_Ja_109:header</title>
<g id="a_edge7"><a xlink:title="Ja_110 &#45;&#45;&gt; Ja_109">
<path fill="none" stroke="#000000" d="M201.5,-266C238.13,-266 215.81,-218.13 245,-196 252.72,-190.14 261.79,-185.66 271.08,-182.22"/>
<polygon fill="#000000" stroke="#000000" points="272.4,-185.47 280.79,-179 270.2,-178.82 272.4,-185.47"/>
</a>
</g>
</g>
<!-- Node_Ja_110&#45;&gt;Node_Ja_109 -->
<g id="edge10" class="edge">
<title>Node_Ja_110:e&#45;&gt;Node_Ja_109:header</title>
<g id="a_edge10"><a xlink:title="Ja_110 &#45;&#45;&gt; Ja_109">
<path fill="none" stroke="#000000" d="M201.5,-175C217,-175 233.54,-174.71 249.43,-174.29"/>
<polygon fill="#000000" stroke="#000000" points="249.87,-177.78 259.77,-173.99 249.67,-170.78 249.87,-177.78"/>
</a>
</g>
</g>
<!-- Node_Ja_110&#45;&gt;Node_Ja_109 -->
<g id="edge14" class="edge">
<title>Node_Ja_110:e&#45;&gt;Node_Ja_109:header</title>
<g id="a_edge14"><a xlink:title="Ja_110 &#45;&#45;&gt; Ja_109">
<path fill="none" stroke="#000000" d="M201.5,-236C227.76,-236 222.12,-208.9 245,-196 255.58,-190.04 267.72,-185.38 279.47,-181.8"/>
<polygon fill="#000000" stroke="#000000" points="280.54,-185.13 289.21,-179.03 278.63,-178.4 280.54,-185.13"/>
</a>
</g>
</g>
<!-- Node_Ja_110&#45;&gt;Node_Ja_109 -->
<g id="edge15" class="edge">
<title>Node_Ja_110:e&#45;&gt;Node_Ja_109:header</title>
<g id="a_edge15"><a xlink:title="Ja_110 &#45;&#45;&gt; Ja_109">
<path fill="none" stroke="#000000" d="M201.5,-205C210.76,-205 258.62,-191.84 293.47,-181.89"/>
<polygon fill="#000000" stroke="#000000" points="294.72,-185.18 303.36,-179.06 292.79,-178.45 294.72,-185.18"/>
</a>
</g>
</g>
<!-- Node_Ja_110&#45;&gt;Node_Ja_109 -->
<g id="edge19" class="edge">
<title>Node_Ja_110:e&#45;&gt;Node_Ja_109:header</title>
<g id="a_edge19"><a xlink:title="Ja_110 &#45;&#45;&gt; Ja_109">
<path fill="none" stroke="#000000" d="M201.5,-115C223.8,-115 224.77,-130.63 245,-140 262.17,-147.95 282.01,-155.23 298.3,-160.72"/>
<polygon fill="#000000" stroke="#000000" points="297.34,-164.09 307.93,-163.91 299.53,-157.44 297.34,-164.09"/>
</a>
</g>
</g>
<!-- Node_Ja_110&#45;&gt;Node_Ja_109 -->
<g id="edge20" class="edge">
<title>Node_Ja_110:e&#45;&gt;Node_Ja_109:header</title>
<g id="a_edge20"><a xlink:title="Ja_110 &#45;&#45;&gt; Ja_109">
<path fill="none" stroke="#000000" d="M201.5,-85C232.67,-85 219.7,-121.8 245,-140 257.98,-149.34 274.06,-156.13 288.8,-160.93"/>
<polygon fill="#000000" stroke="#000000" points="288.14,-164.39 298.73,-163.94 290.17,-157.69 288.14,-164.39"/>
</a>
</g>
</g>
<!-- Node_Ja_104 -->
<g id="node5" class="node">
<title>Node_Ja_104</title>
<g id="a_node5"><a xlink:title=".ListFilesResponse">
<polygon fill="#fffaf0" stroke="transparent" points="253,-345.5 253,-392.5 411,-392.5 411,-345.5 253,-345.5"/>
<polygon fill="#e31a1c" stroke="transparent" points="254,-376 254,-391 410,-391 410,-376 254,-376"/>
<text text-anchor="start" x="306" y="-382" font-family="Ubuntu" font-weight="bold" font-size="10.00">ListFilesResponse</text>
<text text-anchor="start" x="277" y="-366" font-family="Ubuntu" font-size="10.00">1</text>
<text text-anchor="start" x="288" y="-366" font-family="Ubuntu" font-size="10.00">base_directory</text>
<polygon fill="#a6cee3" stroke="transparent" points="363,-361 363,-376 410,-376 410,-361 363,-361"/>
<text text-anchor="start" x="380" y="-367" font-family="Ubuntu" font-style="italic" font-size="10.00">string</text>
<text text-anchor="start" x="256" y="-351" font-family="Ubuntu" font-size="10.00">[...]</text>
<text text-anchor="start" x="277" y="-351" font-family="Ubuntu" font-size="10.00">2</text>
<text text-anchor="start" x="288" y="-351" font-family="Ubuntu" font-size="10.00">files</text>
<polygon fill="#fb9a99" stroke="transparent" points="363,-346 363,-361 410,-361 410,-346 363,-346"/>
<text text-anchor="start" x="365" y="-352" font-family="Ubuntu" font-weight="bold" font-size="10.00">FileInfo</text>
<polygon fill="none" stroke="black" points="253,-345.5 253,-392.5 411,-392.5 411,-345.5 253,-345.5"/>
</a>
</g>
</g>
<!-- Node_Ja_110&#45;&gt;Node_Ja_104 -->
<g id="edge2" class="edge">
<title>Node_Ja_110:e&#45;&gt;Node_Ja_104:header</title>
<g id="a_edge2"><a xlink:title="Ja_110 &#45;&#45;&gt; Ja_104">
<path fill="none" stroke="#000000" d="M201.5,-296C242.92,-296 213.79,-369.52 243.08,-382.16"/>
<polygon fill="#000000" stroke="#000000" points="242.53,-385.62 253,-384 243.81,-378.74 242.53,-385.62"/>
</a>
</g>
</g>
<!-- Node_Ja_105 -->
<g id="node7" class="node">
<title>Node_Ja_105</title>
<g id="a_node7"><a xlink:title=".LoadFileRequest">
<polygon fill="#fffaf0" stroke="transparent" points="282,-287 282,-319 382,-319 382,-287 282,-287"/>
<polygon fill="#e31a1c" stroke="transparent" points="283,-303 283,-318 381,-318 381,-303 283,-303"/>
<text text-anchor="start" x="285" y="-309" font-family="Ubuntu" font-weight="bold" font-size="10.00">LoadFileRequest</text>
<text text-anchor="start" x="307" y="-293" font-family="Ubuntu" font-size="10.00">1</text>
<text text-anchor="start" x="318" y="-293" font-family="Ubuntu" font-size="10.00">path</text>
<polygon fill="#a6cee3" stroke="transparent" points="345,-288 345,-303 381,-303 381,-288 345,-288"/>
<text text-anchor="start" x="351" y="-294" font-family="Ubuntu" font-style="italic" font-size="10.00">string</text>
<polygon fill="none" stroke="black" points="282,-287 282,-319 382,-319 382,-287 282,-287"/>
</a>
</g>
</g>
<!-- Node_Ja_110&#45;&gt;Node_Ja_105 -->
<g id="edge3" class="edge">
<title>Node_Ja_110:e&#45;&gt;Node_Ja_105:header</title>
<g id="a_edge3"><a xlink:title="Ja_110 &#45;&#45;&gt; Ja_105">
<path fill="none" stroke="#000000" d="M201.5,-281C235.95,-281 242.69,-305.43 271.72,-310.2"/>
<polygon fill="#000000" stroke="#000000" points="271.76,-313.71 282,-311 272.3,-306.73 271.76,-313.71"/>
</a>
</g>
</g>
<!-- Node_Ja_107 -->
<g id="node8" class="node">
<title>Node_Ja_107</title>
<g id="a_node8"><a xlink:title=".SetSpeedRequest">
<polygon fill="#fffaf0" stroke="transparent" points="278.5,-62 278.5,-94 385.5,-94 385.5,-62 278.5,-62"/>
<polygon fill="#e31a1c" stroke="transparent" points="280,-78 280,-93 385,-93 385,-78 280,-78"/>
<text text-anchor="start" x="282" y="-84" font-family="Ubuntu" font-weight="bold" font-size="10.00">SetSpeedRequest</text>
<text text-anchor="start" x="307" y="-68" font-family="Ubuntu" font-size="10.00">1</text>
<text text-anchor="start" x="318" y="-68" font-family="Ubuntu" font-size="10.00">speed</text>
<polygon fill="#a6cee3" stroke="transparent" points="354,-63 354,-78 385,-78 385,-63 354,-63"/>
<text text-anchor="start" x="360" y="-69" font-family="Ubuntu" font-style="italic" font-size="10.00">float</text>
<polygon fill="none" stroke="black" points="278.5,-62 278.5,-94 385.5,-94 385.5,-62 278.5,-62"/>
</a>
</g>
</g>
<!-- Node_Ja_110&#45;&gt;Node_Ja_107 -->
<g id="edge5" class="edge">
<title>Node_Ja_110:e&#45;&gt;Node_Ja_107:header</title>
<g id="a_edge5"><a xlink:title="Ja_110 &#45;&#45;&gt; Ja_107">
<path fill="none" stroke="#000000" d="M201.5,-130C237.4,-130 239.35,-93.86 268.88,-87.09"/>
<polygon fill="#000000" stroke="#000000" points="269.43,-90.55 279,-86 268.68,-83.59 269.43,-90.55"/>
</a>
</g>
</g>
<!-- Node_Ja_108 -->
<g id="node9" class="node">
<title>Node_Ja_108</title>
<g id="a_node9"><a xlink:title=".SetLoopRequest">
<polygon fill="#fffaf0" stroke="transparent" points="283,-4 283,-36 381,-36 381,-4 283,-4"/>
<polygon fill="#e31a1c" stroke="transparent" points="284,-20 284,-35 380,-35 380,-20 284,-20"/>
<text text-anchor="start" x="286" y="-26" font-family="Ubuntu" font-weight="bold" font-size="10.00">SetLoopRequest</text>
<text text-anchor="start" x="311" y="-10" font-family="Ubuntu" font-size="10.00">1</text>
<text text-anchor="start" x="322" y="-10" font-family="Ubuntu" font-size="10.00">loop</text>
<polygon fill="#a6cee3" stroke="transparent" points="350,-5 350,-20 380,-20 380,-5 350,-5"/>
<text text-anchor="start" x="356" y="-11" font-family="Ubuntu" font-style="italic" font-size="10.00">bool</text>
<polygon fill="none" stroke="black" points="283,-4 283,-36 381,-36 381,-4 283,-4"/>
</a>
</g>
</g>
<!-- Node_Ja_110&#45;&gt;Node_Ja_108 -->
<g id="edge6" class="edge">
<title>Node_Ja_110:e&#45;&gt;Node_Ja_108:header</title>
<g id="a_edge6"><a xlink:title="Ja_110 &#45;&#45;&gt; Ja_108">
<path fill="none" stroke="#000000" d="M201.5,-100C231.29,-100 221.92,-67.84 245,-49 256.91,-39.27 261.72,-31.71 272.94,-29.04"/>
<polygon fill="#000000" stroke="#000000" points="273.41,-32.51 283,-28 272.69,-25.55 273.41,-32.51"/>
</a>
</g>
</g>
<!-- Node_Ja_100 -->
<g id="node10" class="node">
<title>Node_Ja_100</title>
<g id="a_node10"><a xlink:title="google.protobuf.Empty">
<polygon fill="#fffaf0" stroke="transparent" points="309,-217.5 309,-234.5 355,-234.5 355,-217.5 309,-217.5"/>
<polygon fill="#e31a1c" stroke="transparent" points="310,-218 310,-233 354,-233 354,-218 310,-218"/>
<text text-anchor="start" x="315" y="-224" font-family="Ubuntu" font-weight="bold" font-size="10.00">Empty</text>
<polygon fill="none" stroke="black" points="309,-217.5 309,-234.5 355,-234.5 355,-217.5 309,-217.5"/>
</a>
</g>
</g>
<!-- Node_Ja_110&#45;&gt;Node_Ja_100 -->
<g id="edge8" class="edge">
<title>Node_Ja_110:e&#45;&gt;Node_Ja_100:header</title>
<g id="a_edge8"><a xlink:title="Ja_110 &#45;&#45;&gt; Ja_100">
<path fill="none" stroke="#000000" d="M201.5,-251C235.71,-251 274.03,-242.17 300.05,-234.8"/>
<polygon fill="#000000" stroke="#000000" points="301.11,-238.14 309.72,-231.97 299.14,-231.42 301.11,-238.14"/>
</a>
</g>
</g>
<!-- Node_Ja_110&#45;&gt;Node_Ja_100 -->
<g id="edge9" class="edge">
<title>Node_Ja_110:e&#45;&gt;Node_Ja_100:header</title>
<g id="a_edge9"><a xlink:title="Ja_110 &#45;&#45;&gt; Ja_100">
<path fill="none" stroke="#000000" d="M201.5,-221C235.11,-221 273.6,-222.36 299.82,-223.5"/>
<polygon fill="#000000" stroke="#000000" points="299.78,-227 309.92,-223.95 300.09,-220.01 299.78,-227"/>
</a>
</g>
</g>
<!-- Node_Ja_110&#45;&gt;Node_Ja_100 -->
<g id="edge18" class="edge">
<title>Node_Ja_110:e&#45;&gt;Node_Ja_100:header</title>
<g id="a_edge18"><a xlink:title="Ja_110 &#45;&#45;&gt; Ja_100">
<path fill="none" stroke="#000000" d="M201.5,-190C211.38,-190 265.09,-205.39 300.17,-215.76"/>
<polygon fill="#000000" stroke="#000000" points="299.37,-219.17 309.95,-218.66 301.36,-212.46 299.37,-219.17"/>
</a>
</g>
</g>
<!-- Node_Ja_102 -->
<g id="node6" class="node">
<title>Node_Ja_102</title>
<g id="a_node6"><a xlink:title=".FileInfo">
<polygon fill="#fffaf0" stroke="transparent" points="463,-196 463,-318 741,-318 741,-196 463,-196"/>
<polygon fill="#e31a1c" stroke="transparent" points="464,-302 464,-317 740,-317 740,-302 464,-302"/>
<text text-anchor="start" x="695" y="-308" font-family="Ubuntu" font-weight="bold" font-size="10.00">FileInfo</text>
<text text-anchor="start" x="487" y="-292" font-family="Ubuntu" font-size="10.00">1</text>
<text text-anchor="start" x="498" y="-292" font-family="Ubuntu" font-size="10.00">path</text>
<polygon fill="#a6cee3" stroke="transparent" points="577,-287 577,-302 740,-302 740,-287 577,-287"/>
<text text-anchor="start" x="710" y="-293" font-family="Ubuntu" font-style="italic" font-size="10.00">string</text>
<text text-anchor="start" x="487" y="-277" font-family="Ubuntu" font-size="10.00">2</text>
<text text-anchor="start" x="498" y="-277" font-family="Ubuntu" font-size="10.00">size_bytes</text>
<polygon fill="#a6cee3" stroke="transparent" points="577,-272 577,-287 740,-287 740,-272 577,-272"/>
<text text-anchor="start" x="707" y="-278" font-family="Ubuntu" font-style="italic" font-size="10.00">uint64</text>
<text text-anchor="start" x="487" y="-262" font-family="Ubuntu" font-size="10.00">3</text>
<text text-anchor="start" x="498" y="-262" font-family="Ubuntu" font-size="10.00">message_count</text>
<polygon fill="#a6cee3" stroke="transparent" points="577,-257 577,-272 740,-272 740,-257 577,-257"/>
<text text-anchor="start" x="707" y="-263" font-family="Ubuntu" font-style="italic" font-size="10.00">uint64</text>
<text text-anchor="start" x="487" y="-247" font-family="Ubuntu" font-size="10.00">4</text>
<text text-anchor="start" x="498" y="-247" font-family="Ubuntu" font-size="10.00">channel_count</text>
<polygon fill="#a6cee3" stroke="transparent" points="577,-242 577,-257 740,-257 740,-242 577,-242"/>
<text text-anchor="start" x="707" y="-248" font-family="Ubuntu" font-style="italic" font-size="10.00">uint32</text>
<text text-anchor="start" x="487" y="-232" font-family="Ubuntu" font-size="10.00">5</text>
<text text-anchor="start" x="498" y="-232" font-family="Ubuntu" font-size="10.00">start_time</text>
<polygon fill="#fb9a99" stroke="transparent" points="577,-227 577,-242 740,-242 740,-227 577,-227"/>
<text text-anchor="start" x="579" y="-233" font-family="Ubuntu" font-weight="bold" font-size="10.00">google.protobuf.Timestamp</text>
<text text-anchor="start" x="487" y="-217" font-family="Ubuntu" font-size="10.00">6</text>
<text text-anchor="start" x="498" y="-217" font-family="Ubuntu" font-size="10.00">end_time</text>
<polygon fill="#fb9a99" stroke="transparent" points="577,-212 577,-227 740,-227 740,-212 577,-212"/>
<text text-anchor="start" x="579" y="-218" font-family="Ubuntu" font-weight="bold" font-size="10.00">google.protobuf.Timestamp</text>
<text text-anchor="start" x="466" y="-202" font-family="Ubuntu" font-size="10.00">[...]</text>
<text text-anchor="start" x="487" y="-202" font-family="Ubuntu" font-size="10.00">7</text>
<text text-anchor="start" x="498" y="-202" font-family="Ubuntu" font-size="10.00">channel_names</text>
<polygon fill="#a6cee3" stroke="transparent" points="577,-197 577,-212 740,-212 740,-197 577,-197"/>
<text text-anchor="start" x="710" y="-203" font-family="Ubuntu" font-style="italic" font-size="10.00">string</text>
<polygon fill="none" stroke="black" points="463,-196 463,-318 741,-318 741,-196 463,-196"/>
</a>
</g>
</g>
<!-- Node_Ja_104&#45;&gt;Node_Ja_102 -->
<g id="edge16" class="edge">
<title>Node_Ja_104:e&#45;&gt;Node_Ja_102:header</title>
<g id="a_edge16"><a xlink:title="Ja_104 &#45;&#45;&gt; Ja_102">
<path fill="none" stroke="#000000" d="M411,-353C437.01,-353 434.46,-320.66 452.88,-312.07"/>
<polygon fill="#000000" stroke="#000000" points="453.91,-315.44 463,-310 452.5,-308.58 453.91,-315.44"/>
</a>
</g>
</g>
<!-- Node_Ja_102&#45;&gt;Node_Ja_101 -->
<g id="edge1" class="edge">
<title>Node_Ja_102:e&#45;&gt;Node_Ja_101:header</title>
<g id="a_edge1"><a xlink:title="Ja_102 &#45;&#45;&gt; Ja_101">
<path fill="none" stroke="#000000" d="M741,-219C763.53,-219 771.55,-219 789.99,-219"/>
<polygon fill="#000000" stroke="#000000" points="790,-222.5 800,-219 790,-215.5 790,-222.5"/>
</a>
</g>
</g>
<!-- Node_Ja_102&#45;&gt;Node_Ja_101 -->
<g id="edge12" class="edge">
<title>Node_Ja_102:e&#45;&gt;Node_Ja_101:header</title>
<g id="a_edge12"><a xlink:title="Ja_102 &#45;&#45;&gt; Ja_101">
<path fill="none" stroke="#000000" d="M741,-234C764.25,-234 771.13,-222.92 789.78,-219.81"/>
<polygon fill="#000000" stroke="#000000" points="790.31,-223.28 800,-219 789.76,-216.3 790.31,-223.28"/>
</a>
</g>
</g>
</g>
</svg>
