<?xml version="1.0" encoding="UTF-8" standalone="no"?>
<!DOCTYPE svg PUBLIC "-//W3C//DTD SVG 1.1//EN"
 "http://www.w3.org/Graphics/SVG/1.1/DTD/svg11.dtd">
<!-- Generated by graphviz version 2.43.0 (0)
 -->
<!-- Title: protodot Pages: 1 -->
<svg width="330pt" height="227pt"
 viewBox="0.00 0.00 330.00 227.00" xmlns="http://www.w3.org/2000/svg" xmlns:xlink="http://www.w3.org/1999/xlink">
<g id="graph0" class="graph" transform="scale(1 1) rotate(0) translate(4 223)">
<title>protodot</title>
<g id="clust1" class="cluster">
<title>cluster_ac8d7b3b7cac</title>
<g id="a_clust1"><a xlink:title="google/protobuf/empty.proto">
<polygon fill="#caff70" stroke="black" points="216,-46 216,-121 318,-121 318,-46 216,-46"/>
<text text-anchor="middle" x="267" y="-105.8" font-family="Times,serif" font-size="14.00">empty.proto</text>
</a>
</g>
</g>
<!-- Node_Ja_103 -->
<g id="node1" class="node">
<title>Node_Ja_103</title>
<g id="a_node1"><a xlink:title=".StopResponse">
<polygon fill="#fffaf0" stroke="transparent" points="222,-9.5 222,-26.5 312,-26.5 312,-9.5 222,-9.5"/>
<polygon fill="#e31a1c" stroke="transparent" points="223,-10 223,-25 311,-25 311,-10 223,-10"/>
<text text-anchor="start" x="228" y="-16" font-family="Ubuntu" font-weight="bold" font-size="10.00">StopResponse</text>
<polygon fill="none" stroke="black" points="222,-9.5 222,-26.5 312,-26.5 312,-9.5 222,-9.5"/>
</a>
</g>
</g>
<!-- Node_Ja_104 -->
<g id="node2" class="node">
<title>Node_Ja_104</title>
<g id="a_node2"><a xlink:title="SimulationControl">
<polygon fill="#ffd700" stroke="transparent" points="8,-33.5 8,-140.5 168,-140.5 168,-33.5 8,-33.5"/>
<polygon fill="#ff7f50" stroke="transparent" points="9,-124 9,-139 167,-139 167,-124 9,-124"/>
<text text-anchor="start" x="62" y="-130" font-family="Ubuntu" font-weight="bold" font-size="10.00">SimulationControl</text>
<text text-anchor="start" x="11" y="-115" font-family="Ubuntu" font-weight="bold" font-size="10.00">start</text>
<text text-anchor="start" x="53" y="-114" font-family="Ubuntu" font-size="10.00">google.protobuf.Empty</text>
<polygon fill="#ff7f50" stroke="transparent" points="47,-94 47,-109 51,-109 51,-94 47,-94"/>
<polygon fill="#ff7f50" stroke="transparent" points="51,-94 51,-109 167,-109 167,-94 51,-94"/>
<text text-anchor="start" x="94" y="-99" font-family="Ubuntu" font-size="10.00">StartResponse</text>
<text text-anchor="start" x="11" y="-85" font-family="Ubuntu" font-weight="bold" font-size="10.00">pause</text>
<text text-anchor="start" x="53" y="-84" font-family="Ubuntu" font-size="10.00">google.protobuf.Empty</text>
<polygon fill="#ff7f50" stroke="transparent" points="47,-64 47,-79 51,-79 51,-64 47,-64"/>
<polygon fill="#ff7f50" stroke="transparent" points="51,-64 51,-79 167,-79 167,-64 51,-64"/>
<text text-anchor="start" x="89" y="-69" font-family="Ubuntu" font-size="10.00">PauseResponse</text>
<text text-anchor="start" x="11" y="-55" font-family="Ubuntu" font-weight="bold" font-size="10.00">stop</text>
<text text-anchor="start" x="53" y="-54" font-family="Ubuntu" font-size="10.00">google.protobuf.Empty</text>
<polygon fill="#ff7f50" stroke="transparent" points="47,-34 47,-49 51,-49 51,-34 47,-34"/>
<polygon fill="#ff7f50" stroke="transparent" points="51,-34 51,-49 167,-49 167,-34 51,-34"/>
<text text-anchor="start" x="95" y="-39" font-family="Ubuntu" font-size="10.00">StopResponse</text>
<polygon fill="none" stroke="black" points="8,-33.5 8,-140.5 168,-140.5 168,-33.5 8,-33.5"/>
</a>
</g>
</g>
<!-- Node_Ja_104&#45;&gt;Node_Ja_103 -->
<g id="edge2" class="edge">
<title>Node_Ja_104:e&#45;&gt;Node_Ja_103:header</title>
<g id="a_edge2"><a xlink:title="Ja_104 &#45;&#45;&gt; Ja_103">
<path fill="none" stroke="#000000" d="M168,-41C191.16,-41 216.54,-34.6 235.67,-28.4"/>
<polygon fill="#000000" stroke="#000000" points="236.99,-31.65 245.33,-25.13 234.74,-25.03 236.99,-31.65"/>
</a>
</g>
</g>
<!-- Node_Ja_101 -->
<g id="node3" class="node">
<title>Node_Ja_101</title>
<g id="a_node3"><a xlink:title=".StartResponse">
<polygon fill="#fffaf0" stroke="transparent" points="222,-192.5 222,-209.5 312,-209.5 312,-192.5 222,-192.5"/>
<polygon fill="#e31a1c" stroke="transparent" points="223,-193 223,-208 311,-208 311,-193 223,-193"/>
<text text-anchor="start" x="226" y="-199" font-family="Ubuntu" font-weight="bold" font-size="10.00">StartResponse</text>
<polygon fill="none" stroke="black" points="222,-192.5 222,-209.5 312,-209.5 312,-192.5 222,-192.5"/>
</a>
</g>
</g>
<!-- Node_Ja_104&#45;&gt;Node_Ja_101 -->
<g id="edge4" class="edge">
<title>Node_Ja_104:e&#45;&gt;Node_Ja_101:header</title>
<g id="a_edge4"><a xlink:title="Ja_104 &#45;&#45;&gt; Ja_101">
<path fill="none" stroke="#000000" d="M168,-102C205.5,-102 184.19,-148.84 212,-174 218.71,-180.07 227.09,-185.02 235.24,-188.9"/>
<polygon fill="#000000" stroke="#000000" points="234.01,-192.19 244.58,-192.98 236.81,-185.77 234.01,-192.19"/>
</a>
</g>
</g>
<!-- Node_Ja_102 -->
<g id="node4" class="node">
<title>Node_Ja_102</title>
<g id="a_node4"><a xlink:title=".PauseResponse">
<polygon fill="#fffaf0" stroke="transparent" points="220,-138.5 220,-155.5 314,-155.5 314,-138.5 220,-138.5"/>
<polygon fill="#e31a1c" stroke="transparent" points="221,-139 221,-154 313,-154 313,-139 221,-139"/>
<text text-anchor="start" x="223" y="-145" font-family="Ubuntu" font-weight="bold" font-size="10.00">PauseResponse</text>
<polygon fill="none" stroke="black" points="220,-138.5 220,-155.5 314,-155.5 314,-138.5 220,-138.5"/>
</a>
</g>
</g>
<!-- Node_Ja_104&#45;&gt;Node_Ja_102 -->
<g id="edge6" class="edge">
<title>Node_Ja_104:e&#45;&gt;Node_Ja_102:header</title>
<g id="a_edge6"><a xlink:title="Ja_104 &#45;&#45;&gt; Ja_102">
<path fill="none" stroke="#000000" d="M168,-71C198.96,-71 186.97,-106.79 212,-125 217.63,-129.1 224.16,-132.51 230.7,-135.32"/>
<polygon fill="#000000" stroke="#000000" points="229.58,-138.64 240.17,-138.99 232.11,-132.11 229.58,-138.64"/>
</a>
</g>
</g>
<!-- Node_Ja_100 -->
<g id="node5" class="node">
<title>Node_Ja_100</title>
<g id="a_node5"><a xlink:title="google.protobuf.Empty">
<polygon fill="#fffaf0" stroke="transparent" points="244,-63.5 244,-80.5 290,-80.5 290,-63.5 244,-63.5"/>
<polygon fill="#e31a1c" stroke="transparent" points="245,-64 245,-79 289,-79 289,-64 245,-64"/>
<text text-anchor="start" x="250" y="-70" font-family="Ubuntu" font-weight="bold" font-size="10.00">Empty</text>
<polygon fill="none" stroke="black" points="244,-63.5 244,-80.5 290,-80.5 290,-63.5 244,-63.5"/>
</a>
</g>
</g>
<!-- Node_Ja_104&#45;&gt;Node_Ja_100 -->
<g id="edge1" class="edge">
<title>Node_Ja_104:e&#45;&gt;Node_Ja_100:header</title>
<g id="a_edge1"><a xlink:title="Ja_104 &#45;&#45;&gt; Ja_100">
<path fill="none" stroke="#000000" d="M168,-56C190.51,-56 215.6,-59.91 234.75,-63.74"/>
<polygon fill="#000000" stroke="#000000" points="234.23,-67.21 244.73,-65.84 235.66,-60.36 234.23,-67.21"/>
</a>
</g>
</g>
<!-- Node_Ja_104&#45;&gt;Node_Ja_100 -->
<g id="edge3" class="edge">
<title>Node_Ja_104:e&#45;&gt;Node_Ja_100:header</title>
<g id="a_edge3"><a xlink:title="Ja_104 &#45;&#45;&gt; Ja_100">
<path fill="none" stroke="#000000" d="M168,-117C198.37,-117 229.44,-98.68 248.23,-85.16"/>
<polygon fill="#000000" stroke="#000000" points="250.52,-87.82 256.41,-79.01 246.31,-82.22 250.52,-87.82"/>
</a>
</g>
</g>
<!-- Node_Ja_104&#45;&gt;Node_Ja_100 -->
<g id="edge5" class="edge">
<title>Node_Ja_104:e&#45;&gt;Node_Ja_100:header</title>
<g id="a_edge5"><a xlink:title="Ja_104 &#45;&#45;&gt; Ja_100">
<path fill="none" stroke="#000000" d="M168,-86C190.51,-86 215.6,-82.09 234.75,-78.26"/>
<polygon fill="#000000" stroke="#000000" points="235.66,-81.64 244.73,-76.16 234.23,-74.79 235.66,-81.64"/>
</a>
</g>
</g>
</g>
</svg>
