<?xml version="1.0" encoding="UTF-8" standalone="no"?>
<!DOCTYPE svg PUBLIC "-//W3C//DTD SVG 1.1//EN"
 "http://www.w3.org/Graphics/SVG/1.1/DTD/svg11.dtd">
<!-- Generated by graphviz version 2.43.0 (0)
 -->
<!-- Title: protodot Pages: 1 -->
<svg width="520pt" height="195pt"
 viewBox="0.00 0.00 520.00 195.00" xmlns="http://www.w3.org/2000/svg" xmlns:xlink="http://www.w3.org/1999/xlink">
<g id="graph0" class="graph" transform="scale(1 1) rotate(0) translate(4 191)">
<title>protodot</title>
<g id="clust1" class="cluster">
<title>cluster_ac8d7b3b7cac</title>
<g id="a_clust1"><a xlink:title="google/protobuf/empty.proto">
<polygon fill="#caff70" stroke="black" points="357.5,-104 357.5,-179 459.5,-179 459.5,-104 357.5,-104"/>
<text text-anchor="middle" x="408.5" y="-163.8" font-family="Times,serif" font-size="14.00">empty.proto</text>
</a>
</g>
</g>
<!-- Node_Ja_102 -->
<g id="node1" class="node">
<title>Node_Ja_102</title>
<g id="a_node1"><a xlink:title=".SubscriberSuccessResponse">
<polygon fill="#fffaf0" stroke="transparent" points="323.5,-9.5 323.5,-26.5 493.5,-26.5 493.5,-9.5 323.5,-9.5"/>
<polygon fill="#e31a1c" stroke="transparent" points="324.5,-10 324.5,-25 492.5,-25 492.5,-10 324.5,-10"/>
<text text-anchor="start" x="328.5" y="-16" font-family="Ubuntu" font-weight="bold" font-size="10.00">SubscriberSuccessResponse</text>
<polygon fill="none" stroke="black" points="323.5,-9.5 323.5,-26.5 493.5,-26.5 493.5,-9.5 323.5,-9.5"/>
</a>
</g>
</g>
<!-- Node_Ja_103 -->
<g id="node2" class="node">
<title>Node_Ja_103</title>
<g id="a_node2"><a xlink:title="Subscriber">
<polygon fill="#ffd700" stroke="transparent" points="8,-51.5 8,-128.5 261,-128.5 261,-51.5 8,-51.5"/>
<polygon fill="#ff7f50" stroke="transparent" points="9.5,-112 9.5,-127 260.5,-127 260.5,-112 9.5,-112"/>
<text text-anchor="start" x="195.5" y="-118" font-family="Ubuntu" font-weight="bold" font-size="10.00">Subscriber</text>
<text text-anchor="start" x="11.5" y="-103" font-family="Ubuntu" font-weight="bold" font-size="10.00">get_subscriptions</text>
<text text-anchor="start" x="146.5" y="-102" font-family="Ubuntu" font-size="10.00">google.protobuf.Empty</text>
<polygon fill="#ff7f50" stroke="transparent" points="114.5,-82 114.5,-97 118.5,-97 118.5,-82 114.5,-82"/>
<polygon fill="#ff7f50" stroke="transparent" points="118.5,-82 118.5,-97 260.5,-97 260.5,-82 118.5,-82"/>
<text text-anchor="start" x="192.5" y="-87" font-family="Ubuntu" font-size="10.00">Subscriptions</text>
<text text-anchor="start" x="11.5" y="-73" font-family="Ubuntu" font-weight="bold" font-size="10.00">set_subscriptions</text>
<text text-anchor="start" x="192.5" y="-72" font-family="Ubuntu" font-size="10.00">Subscriptions</text>
<polygon fill="#ff7f50" stroke="transparent" points="114.5,-52 114.5,-67 118.5,-67 118.5,-52 114.5,-52"/>
<polygon fill="#ff7f50" stroke="transparent" points="118.5,-52 118.5,-67 260.5,-67 260.5,-52 118.5,-52"/>
<text text-anchor="start" x="120.5" y="-57" font-family="Ubuntu" font-size="10.00">SubscriberSuccessResponse</text>
<polygon fill="none" stroke="black" points="8,-51.5 8,-128.5 261,-128.5 261,-51.5 8,-51.5"/>
</a>
</g>
</g>
<!-- Node_Ja_103&#45;&gt;Node_Ja_102 -->
<g id="edge2" class="edge">
<title>Node_Ja_103:e&#45;&gt;Node_Ja_102:header</title>
<g id="a_edge2"><a xlink:title="Ja_103 &#45;&#45;&gt; Ja_102">
<path fill="none" stroke="#000000" d="M261.5,-59C281.81,-59 285.53,-50.79 305,-45 325.23,-38.98 347.86,-32.75 366.7,-27.7"/>
<polygon fill="#000000" stroke="#000000" points="367.69,-31.06 376.45,-25.1 365.88,-24.29 367.69,-31.06"/>
</a>
</g>
</g>
<!-- Node_Ja_101 -->
<g id="node3" class="node">
<title>Node_Ja_101</title>
<g id="a_node3"><a xlink:title=".Subscriptions">
<polygon fill="#fffaf0" stroke="transparent" points="313,-58 313,-90 504,-90 504,-58 313,-58"/>
<polygon fill="#e31a1c" stroke="transparent" points="314.5,-74 314.5,-89 503.5,-89 503.5,-74 314.5,-74"/>
<text text-anchor="start" x="422.5" y="-80" font-family="Ubuntu" font-weight="bold" font-size="10.00">Subscriptions</text>
<text text-anchor="start" x="320.5" y="-64" font-family="Ubuntu" font-size="10.00">1</text>
<text text-anchor="start" x="331.5" y="-64" font-family="Ubuntu" font-size="10.00">subscriptions</text>
<polygon fill="#a6cee3" stroke="transparent" points="398.5,-59 398.5,-74 503.5,-74 503.5,-59 398.5,-59"/>
<text text-anchor="start" x="400.5" y="-65" font-family="Ubuntu" font-size="10.00">map&lt;string, </text>
<text text-anchor="start" x="464.5" y="-65" font-family="Ubuntu" font-style="italic" font-size="10.00">string</text>
<text text-anchor="start" x="492.5" y="-65" font-family="Ubuntu" font-size="10.00">&gt;</text>
<polygon fill="none" stroke="black" points="313,-58 313,-90 504,-90 504,-58 313,-58"/>
</a>
</g>
</g>
<!-- Node_Ja_103&#45;&gt;Node_Ja_101 -->
<g id="edge1" class="edge">
<title>Node_Ja_103:e&#45;&gt;Node_Ja_101:header</title>
<g id="a_edge1"><a xlink:title="Ja_103 &#45;&#45;&gt; Ja_101">
<path fill="none" stroke="#000000" d="M261.5,-74C281.05,-74 287.91,-79.59 303.3,-81.42"/>
<polygon fill="#000000" stroke="#000000" points="303.32,-84.93 313.5,-82 303.71,-77.94 303.32,-84.93"/>
</a>
</g>
</g>
<!-- Node_Ja_103&#45;&gt;Node_Ja_101 -->
<g id="edge4" class="edge">
<title>Node_Ja_103:e&#45;&gt;Node_Ja_101:header</title>
<g id="a_edge4"><a xlink:title="Ja_103 &#45;&#45;&gt; Ja_101">
<path fill="none" stroke="#000000" d="M261.5,-89C280.99,-89 287.94,-84.11 303.31,-82.5"/>
<polygon fill="#000000" stroke="#000000" points="303.68,-85.99 313.5,-82 303.34,-79 303.68,-85.99"/>
</a>
</g>
</g>
<!-- Node_Ja_100 -->
<g id="node4" class="node">
<title>Node_Ja_100</title>
<g id="a_node4"><a xlink:title="google.protobuf.Empty">
<polygon fill="#fffaf0" stroke="transparent" points="385.5,-121.5 385.5,-138.5 431.5,-138.5 431.5,-121.5 385.5,-121.5"/>
<polygon fill="#e31a1c" stroke="transparent" points="386.5,-122 386.5,-137 430.5,-137 430.5,-122 386.5,-122"/>
<text text-anchor="start" x="391.5" y="-128" font-family="Ubuntu" font-weight="bold" font-size="10.00">Empty</text>
<polygon fill="none" stroke="black" points="385.5,-121.5 385.5,-138.5 431.5,-138.5 431.5,-121.5 385.5,-121.5"/>
</a>
</g>
</g>
<!-- Node_Ja_103&#45;&gt;Node_Ja_100 -->
<g id="edge3" class="edge">
<title>Node_Ja_103:e&#45;&gt;Node_Ja_100:header</title>
<g id="a_edge3"><a xlink:title="Ja_103 &#45;&#45;&gt; Ja_100">
<path fill="none" stroke="#000000" d="M261.5,-105C301.54,-105 346.94,-113.9 376.34,-120.86"/>
<polygon fill="#000000" stroke="#000000" points="375.86,-124.34 386.4,-123.31 377.52,-117.54 375.86,-124.34"/>
</a>
</g>
</g>
</g>
</svg>
