<?xml version="1.0" encoding="UTF-8" standalone="no"?>
<!DOCTYPE svg PUBLIC "-//W3C//DTD SVG 1.1//EN"
 "http://www.w3.org/Graphics/SVG/1.1/DTD/svg11.dtd">
<!-- Generated by graphviz version 2.43.0 (0)
 -->
<!-- Title: protodot Pages: 1 -->
<svg width="725pt" height="223pt"
 viewBox="0.00 0.00 725.00 223.00" xmlns="http://www.w3.org/2000/svg" xmlns:xlink="http://www.w3.org/1999/xlink">
<g id="graph0" class="graph" transform="scale(1 1) rotate(0) translate(4 219)">
<title>protodot</title>
<g id="clust1" class="cluster">
<title>cluster_ac8d7b3b7cac</title>
<g id="a_clust1"><a xlink:title="google/protobuf/empty.proto">
<polygon fill="#caff70" stroke="black" points="383,-8 383,-83 485,-83 485,-8 383,-8"/>
<text text-anchor="middle" x="434" y="-67.8" font-family="Times,serif" font-size="14.00">empty.proto</text>
</a>
</g>
</g>
<!-- Node_Ja_104 -->
<g id="node1" class="node">
<title>Node_Ja_104</title>
<g id="a_node1"><a xlink:title="VehicleControl">
<polygon fill="#ffd700" stroke="transparent" points="8,-118.5 8,-195.5 259,-195.5 259,-118.5 8,-118.5"/>
<polygon fill="#ff7f50" stroke="transparent" points="9.5,-179 9.5,-194 258.5,-194 258.5,-179 9.5,-179"/>
<text text-anchor="start" x="173.5" y="-185" font-family="Ubuntu" font-weight="bold" font-size="10.00">VehicleControl</text>
<text text-anchor="start" x="11.5" y="-170" font-family="Ubuntu" font-weight="bold" font-size="10.00">set_control_mapping</text>
<text text-anchor="start" x="157.5" y="-169" font-family="Ubuntu" font-size="10.00">ControlAxisMapping</text>
<polygon fill="#ff7f50" stroke="transparent" points="133.5,-149 133.5,-164 137.5,-164 137.5,-149 133.5,-149"/>
<polygon fill="#ff7f50" stroke="transparent" points="137.5,-149 137.5,-164 258.5,-164 258.5,-149 137.5,-149"/>
<text text-anchor="start" x="139.5" y="-154" font-family="Ubuntu" font-size="10.00">ControlAxisMappingAck</text>
<text text-anchor="start" x="11.5" y="-140" font-family="Ubuntu" font-weight="bold" font-size="10.00">get_control_mapping</text>
<text text-anchor="start" x="144.5" y="-139" font-family="Ubuntu" font-size="10.00">google.protobuf.Empty</text>
<polygon fill="#ff7f50" stroke="transparent" points="133.5,-119 133.5,-134 137.5,-134 137.5,-119 133.5,-119"/>
<polygon fill="#ff7f50" stroke="transparent" points="137.5,-119 137.5,-134 258.5,-134 258.5,-119 137.5,-119"/>
<text text-anchor="start" x="157.5" y="-124" font-family="Ubuntu" font-size="10.00">ControlAxisMapping</text>
<polygon fill="none" stroke="black" points="8,-118.5 8,-195.5 259,-195.5 259,-118.5 8,-118.5"/>
</a>
</g>
</g>
<!-- Node_Ja_102 -->
<g id="node3" class="node">
<title>Node_Ja_102</title>
<g id="a_node3"><a xlink:title=".ControlAxisMapping">
<polygon fill="#fffaf0" stroke="transparent" points="311,-95 311,-157 557,-157 557,-95 311,-95"/>
<polygon fill="#e31a1c" stroke="transparent" points="312,-141 312,-156 556,-156 556,-141 312,-141"/>
<text text-anchor="start" x="439" y="-147" font-family="Ubuntu" font-weight="bold" font-size="10.00">ControlAxisMapping</text>
<text text-anchor="start" x="318" y="-131" font-family="Ubuntu" font-size="10.00">1</text>
<text text-anchor="start" x="329" y="-131" font-family="Ubuntu" font-size="10.00">axes</text>
<polygon fill="#fb9a99" stroke="transparent" points="413,-126 413,-141 556,-141 556,-126 413,-126"/>
<text text-anchor="start" x="415" y="-132" font-family="Ubuntu" font-size="10.00">map&lt;string, </text>
<text text-anchor="start" x="479" y="-132" font-family="Ubuntu" font-weight="bold" font-size="10.00">ControlAxis</text>
<text text-anchor="start" x="545" y="-132" font-family="Ubuntu" font-size="10.00">&gt;</text>
<text text-anchor="start" x="318" y="-116" font-family="Ubuntu" font-size="10.00">2</text>
<text text-anchor="start" x="329" y="-116" font-family="Ubuntu" font-size="10.00">min_interval_s</text>
<polygon fill="#a6cee3" stroke="transparent" points="413,-111 413,-126 556,-126 556,-111 413,-111"/>
<text text-anchor="start" x="531" y="-117" font-family="Ubuntu" font-style="italic" font-size="10.00">float</text>
<text text-anchor="start" x="318" y="-101" font-family="Ubuntu" font-size="10.00">3</text>
<text text-anchor="start" x="329" y="-101" font-family="Ubuntu" font-size="10.00">max_axis_age_s</text>
<polygon fill="#a6cee3" stroke="transparent" points="413,-96 413,-111 556,-111 556,-96 413,-96"/>
<text text-anchor="start" x="531" y="-102" font-family="Ubuntu" font-style="italic" font-size="10.00">float</text>
<polygon fill="none" stroke="black" points="311,-95 311,-157 557,-157 557,-95 311,-95"/>
</a>
</g>
</g>
<!-- Node_Ja_104&#45;&gt;Node_Ja_102 -->
<g id="edge1" class="edge">
<title>Node_Ja_104:e&#45;&gt;Node_Ja_102:header</title>
<g id="a_edge1"><a xlink:title="Ja_104 &#45;&#45;&gt; Ja_102">
<path fill="none" stroke="#000000" d="M259.5,-172C280.65,-172 284.93,-155.63 300.8,-150.51"/>
<polygon fill="#000000" stroke="#000000" points="301.62,-153.93 311,-149 300.6,-147 301.62,-153.93"/>
</a>
</g>
</g>
<!-- Node_Ja_104&#45;&gt;Node_Ja_102 -->
<g id="edge4" class="edge">
<title>Node_Ja_104:e&#45;&gt;Node_Ja_102:header</title>
<g id="a_edge4"><a xlink:title="Ja_104 &#45;&#45;&gt; Ja_102">
<path fill="none" stroke="#000000" d="M259.5,-126C280.65,-126 284.93,-142.37 300.8,-147.49"/>
<polygon fill="#000000" stroke="#000000" points="300.6,-151 311,-149 301.62,-144.07 300.6,-151"/>
</a>
</g>
</g>
<!-- Node_Ja_103 -->
<g id="node4" class="node">
<title>Node_Ja_103</title>
<g id="a_node4"><a xlink:title=".ControlAxisMappingAck">
<polygon fill="#fffaf0" stroke="transparent" points="363,-188.5 363,-205.5 505,-205.5 505,-188.5 363,-188.5"/>
<polygon fill="#e31a1c" stroke="transparent" points="364,-189 364,-204 504,-204 504,-189 364,-189"/>
<text text-anchor="start" x="366" y="-195" font-family="Ubuntu" font-weight="bold" font-size="10.00">ControlAxisMappingAck</text>
<polygon fill="none" stroke="black" points="363,-188.5 363,-205.5 505,-205.5 505,-188.5 363,-188.5"/>
</a>
</g>
</g>
<!-- Node_Ja_104&#45;&gt;Node_Ja_103 -->
<g id="edge2" class="edge">
<title>Node_Ja_104:e&#45;&gt;Node_Ja_103:header</title>
<g id="a_edge2"><a xlink:title="Ja_104 &#45;&#45;&gt; Ja_103">
<path fill="none" stroke="#000000" d="M259.5,-156C279.81,-156 283.34,-164.89 303,-170 328.73,-176.69 357.7,-182.64 381.76,-187.15"/>
<polygon fill="#000000" stroke="#000000" points="381.27,-190.62 391.74,-188.99 382.54,-183.73 381.27,-190.62"/>
</a>
</g>
</g>
<!-- Node_Ja_100 -->
<g id="node5" class="node">
<title>Node_Ja_100</title>
<g id="a_node5"><a xlink:title="google.protobuf.Empty">
<polygon fill="#fffaf0" stroke="transparent" points="411,-25.5 411,-42.5 457,-42.5 457,-25.5 411,-25.5"/>
<polygon fill="#e31a1c" stroke="transparent" points="412,-26 412,-41 456,-41 456,-26 412,-26"/>
<text text-anchor="start" x="417" y="-32" font-family="Ubuntu" font-weight="bold" font-size="10.00">Empty</text>
<polygon fill="none" stroke="black" points="411,-25.5 411,-42.5 457,-42.5 457,-25.5 411,-25.5"/>
</a>
</g>
</g>
<!-- Node_Ja_104&#45;&gt;Node_Ja_100 -->
<g id="edge3" class="edge">
<title>Node_Ja_104:e&#45;&gt;Node_Ja_100:header</title>
<g id="a_edge3"><a xlink:title="Ja_104 &#45;&#45;&gt; Ja_100">
<path fill="none" stroke="#000000" d="M259.5,-141C292.08,-141 277.02,-101.66 303,-82 332.67,-59.54 373.8,-46.35 401.79,-39.42"/>
<polygon fill="#000000" stroke="#000000" points="402.9,-42.76 411.83,-37.06 401.29,-35.94 402.9,-42.76"/>
</a>
</g>
</g>
<!-- Node_Ja_101 -->
<g id="node2" class="node">
<title>Node_Ja_101</title>
<g id="a_node2"><a xlink:title=".ControlAxis">
<polygon fill="#fffaf0" stroke="transparent" points="609,-50 609,-142 709,-142 709,-50 609,-50"/>
<polygon fill="#e31a1c" stroke="transparent" points="610,-126 610,-141 708,-141 708,-126 610,-126"/>
<text text-anchor="start" x="640" y="-132" font-family="Ubuntu" font-weight="bold" font-size="10.00">ControlAxis</text>
<text text-anchor="start" x="616" y="-116" font-family="Ubuntu" font-size="10.00">1</text>
<text text-anchor="start" x="627" y="-116" font-family="Ubuntu" font-size="10.00">entity_id</text>
<polygon fill="#a6cee3" stroke="transparent" points="676,-111 676,-126 708,-126 708,-111 676,-111"/>
<text text-anchor="start" x="678" y="-117" font-family="Ubuntu" font-style="italic" font-size="10.00">string</text>
<text text-anchor="start" x="616" y="-101" font-family="Ubuntu" font-size="10.00">2</text>
<text text-anchor="start" x="627" y="-101" font-family="Ubuntu" font-size="10.00">subject</text>
<polygon fill="#a6cee3" stroke="transparent" points="676,-96 676,-111 708,-111 708,-96 676,-96"/>
<text text-anchor="start" x="678" y="-102" font-family="Ubuntu" font-style="italic" font-size="10.00">string</text>
<text text-anchor="start" x="616" y="-86" font-family="Ubuntu" font-size="10.00">3</text>
<text text-anchor="start" x="627" y="-86" font-family="Ubuntu" font-size="10.00">source_id</text>
<polygon fill="#a6cee3" stroke="transparent" points="676,-81 676,-96 708,-96 708,-81 676,-81"/>
<text text-anchor="start" x="678" y="-87" font-family="Ubuntu" font-style="italic" font-size="10.00">string</text>
<text text-anchor="start" x="616" y="-71" font-family="Ubuntu" font-size="10.00">4</text>
<text text-anchor="start" x="627" y="-71" font-family="Ubuntu" font-size="10.00">unipolar</text>
<polygon fill="#a6cee3" stroke="transparent" points="676,-66 676,-81 708,-81 708,-66 676,-66"/>
<text text-anchor="start" x="684" y="-72" font-family="Ubuntu" font-style="italic" font-size="10.00">bool</text>
<text text-anchor="start" x="616" y="-56" font-family="Ubuntu" font-size="10.00">5</text>
<text text-anchor="start" x="627" y="-56" font-family="Ubuntu" font-size="10.00">invert</text>
<polygon fill="#a6cee3" stroke="transparent" points="676,-51 676,-66 708,-66 708,-51 676,-51"/>
<text text-anchor="start" x="684" y="-57" font-family="Ubuntu" font-style="italic" font-size="10.00">bool</text>
<polygon fill="none" stroke="black" points="609,-50 609,-142 709,-142 709,-50 609,-50"/>
</a>
</g>
</g>
<!-- Node_Ja_102&#45;&gt;Node_Ja_101 -->
<g id="edge5" class="edge">
<title>Node_Ja_102:e&#45;&gt;Node_Ja_101:header</title>
<g id="a_edge5"><a xlink:title="Ja_102 &#45;&#45;&gt; Ja_101">
<path fill="none" stroke="#000000" d="M557,-134C576.32,-134 583.53,-134 598.87,-134"/>
<polygon fill="#000000" stroke="#000000" points="599,-137.5 609,-134 599,-130.5 599,-137.5"/>
</a>
</g>
</g>
</g>
</svg>
