<?xml version="1.0" encoding="UTF-8" standalone="no"?>
<!DOCTYPE svg PUBLIC "-//W3C//DTD SVG 1.1//EN"
 "http://www.w3.org/Graphics/SVG/1.1/DTD/svg11.dtd">
<!-- Generated by graphviz version 2.43.0 (0)
 -->
<!-- Title: protodot Pages: 1 -->
<svg width="686pt" height="318pt"
 viewBox="0.00 0.00 686.00 318.00" xmlns="http://www.w3.org/2000/svg" xmlns:xlink="http://www.w3.org/1999/xlink">
<g id="graph0" class="graph" transform="scale(1 1) rotate(0) translate(4 314)">
<title>protodot</title>
<g id="clust1" class="cluster">
<title>cluster_da39a3ee5e6b</title>
<polygon fill="#caff70" stroke="black" points="8,-110 8,-302 280,-302 280,-110 8,-110"/>
</g>
<g id="clust2" class="cluster">
<title>cluster_d527937d7e0f</title>
<g id="a_clust2"><a xlink:title="VehicleCommon.proto">
<polygon fill="#caff70" stroke="black" points="503,-46 503,-141 676,-141 676,-46 503,-46"/>
<text text-anchor="middle" x="589.5" y="-125.8" font-family="Times,serif" font-size="14.00">VehicleCommon.proto</text>
</a>
</g>
</g>
<!-- Node_Ja_104 -->
<g id="node1" class="node">
<title>Node_Ja_104</title>
<g id="a_node1"><a xlink:title="VehicleSimulatorControl">
<polygon fill="#ffd700" stroke="transparent" points="35.5,-49.5 35.5,-96.5 252.5,-96.5 252.5,-49.5 35.5,-49.5"/>
<polygon fill="#ff7f50" stroke="transparent" points="37,-80 37,-95 252,-95 252,-80 37,-80"/>
<text text-anchor="start" x="111" y="-86" font-family="Ubuntu" font-weight="bold" font-size="10.00">VehicleSimulatorControl</text>
<text text-anchor="start" x="39" y="-71" font-family="Ubuntu" font-weight="bold" font-size="10.00">set_initial_pose</text>
<text text-anchor="start" x="198" y="-70" font-family="Ubuntu" font-size="10.00">InitialPose</text>
<polygon fill="#ff7f50" stroke="transparent" points="129,-50 129,-65 133,-65 133,-50 129,-50"/>
<polygon fill="#ff7f50" stroke="transparent" points="133,-50 133,-65 252,-65 252,-50 133,-50"/>
<text text-anchor="start" x="135" y="-55" font-family="Ubuntu" font-size="10.00">SetInitialPoseResponse</text>
<polygon fill="none" stroke="black" points="35.5,-49.5 35.5,-96.5 252.5,-96.5 252.5,-49.5 35.5,-49.5"/>
</a>
</g>
</g>
<!-- Node_Ja_102 -->
<g id="node2" class="node">
<title>Node_Ja_102</title>
<g id="a_node2"><a xlink:title=".InitialPose">
<polygon fill="#fffaf0" stroke="transparent" points="316,-58 316,-120 467,-120 467,-58 316,-58"/>
<polygon fill="#e31a1c" stroke="transparent" points="317.5,-104 317.5,-119 466.5,-119 466.5,-104 317.5,-104"/>
<text text-anchor="start" x="403.5" y="-110" font-family="Ubuntu" font-weight="bold" font-size="10.00">InitialPose</text>
<text text-anchor="start" x="323.5" y="-94" font-family="Ubuntu" font-size="10.00">1</text>
<text text-anchor="start" x="334.5" y="-94" font-family="Ubuntu" font-size="10.00">position</text>
<polygon fill="#fb9a99" stroke="transparent" points="399.5,-89 399.5,-104 466.5,-104 466.5,-89 399.5,-89"/>
<text text-anchor="start" x="401.5" y="-95" font-family="Ubuntu" font-weight="bold" font-size="10.00">Coordinate</text>
<text text-anchor="start" x="323.5" y="-79" font-family="Ubuntu" font-size="10.00">2</text>
<text text-anchor="start" x="334.5" y="-79" font-family="Ubuntu" font-size="10.00">heading_deg</text>
<polygon fill="#a6cee3" stroke="transparent" points="399.5,-74 399.5,-89 466.5,-89 466.5,-74 399.5,-74"/>
<text text-anchor="start" x="430.5" y="-80" font-family="Ubuntu" font-style="italic" font-size="10.00">double</text>
<text text-anchor="start" x="323.5" y="-64" font-family="Ubuntu" font-size="10.00">3</text>
<text text-anchor="start" x="334.5" y="-64" font-family="Ubuntu" font-size="10.00">sog_mps</text>
<polygon fill="#a6cee3" stroke="transparent" points="399.5,-59 399.5,-74 466.5,-74 466.5,-59 399.5,-59"/>
<text text-anchor="start" x="430.5" y="-65" font-family="Ubuntu" font-style="italic" font-size="10.00">double</text>
<polygon fill="none" stroke="black" points="316,-58 316,-120 467,-120 467,-58 316,-58"/>
</a>
</g>
</g>
<!-- Node_Ja_104&#45;&gt;Node_Ja_102 -->
<g id="edge1" class="edge">
<title>Node_Ja_104:e&#45;&gt;Node_Ja_102:header</title>
<g id="a_edge1"><a xlink:title="Ja_104 &#45;&#45;&gt; Ja_102">
<path fill="none" stroke="#000000" d="M253,-72C282.58,-72 283.4,-103.45 306.47,-110.58"/>
<polygon fill="#000000" stroke="#000000" points="306.11,-114.06 316.5,-112 307.09,-107.13 306.11,-114.06"/>
</a>
</g>
</g>
<!-- Node_Ja_103 -->
<g id="node3" class="node">
<title>Node_Ja_103</title>
<g id="a_node3"><a xlink:title=".SetInitialPoseResponse">
<polygon fill="#fffaf0" stroke="transparent" points="320.5,-9.5 320.5,-26.5 462.5,-26.5 462.5,-9.5 320.5,-9.5"/>
<polygon fill="#e31a1c" stroke="transparent" points="321.5,-10 321.5,-25 461.5,-25 461.5,-10 321.5,-10"/>
<text text-anchor="start" x="326.5" y="-16" font-family="Ubuntu" font-weight="bold" font-size="10.00">SetInitialPoseResponse</text>
<polygon fill="none" stroke="black" points="320.5,-9.5 320.5,-26.5 462.5,-26.5 462.5,-9.5 320.5,-9.5"/>
</a>
</g>
</g>
<!-- Node_Ja_104&#45;&gt;Node_Ja_103 -->
<g id="edge2" class="edge">
<title>Node_Ja_104:e&#45;&gt;Node_Ja_103:header</title>
<g id="a_edge2"><a xlink:title="Ja_104 &#45;&#45;&gt; Ja_103">
<path fill="none" stroke="#000000" d="M253,-57C263.34,-57 318.31,-40.11 355.53,-28.28"/>
<polygon fill="#000000" stroke="#000000" points="357.05,-31.47 365.51,-25.09 354.92,-24.8 357.05,-31.47"/>
</a>
</g>
</g>
<!-- Node_Ja_101 -->
<g id="node5" class="node">
<title>Node_Ja_101</title>
<g id="a_node5"><a xlink:title=".Coordinate">
<polygon fill="#fffaf0" stroke="transparent" points="525,-58.5 525,-105.5 654,-105.5 654,-58.5 525,-58.5"/>
<polygon fill="#e31a1c" stroke="transparent" points="526.5,-89 526.5,-104 653.5,-104 653.5,-89 526.5,-89"/>
<text text-anchor="start" x="588.5" y="-95" font-family="Ubuntu" font-weight="bold" font-size="10.00">Coordinate</text>
<text text-anchor="start" x="532.5" y="-79" font-family="Ubuntu" font-size="10.00">1</text>
<text text-anchor="start" x="543.5" y="-79" font-family="Ubuntu" font-size="10.00">latitude_deg</text>
<polygon fill="#a6cee3" stroke="transparent" points="615.5,-74 615.5,-89 653.5,-89 653.5,-74 615.5,-74"/>
<text text-anchor="start" x="617.5" y="-80" font-family="Ubuntu" font-style="italic" font-size="10.00">double</text>
<text text-anchor="start" x="532.5" y="-64" font-family="Ubuntu" font-size="10.00">2</text>
<text text-anchor="start" x="543.5" y="-64" font-family="Ubuntu" font-size="10.00">longitude_deg</text>
<polygon fill="#a6cee3" stroke="transparent" points="615.5,-59 615.5,-74 653.5,-74 653.5,-59 615.5,-59"/>
<text text-anchor="start" x="617.5" y="-65" font-family="Ubuntu" font-style="italic" font-size="10.00">double</text>
<polygon fill="none" stroke="black" points="525,-58.5 525,-105.5 654,-105.5 654,-58.5 525,-58.5"/>
</a>
</g>
</g>
<!-- Node_Ja_102&#45;&gt;Node_Ja_101 -->
<g id="edge3" class="edge">
<title>Node_Ja_102:e&#45;&gt;Node_Ja_101:header</title>
<g id="a_edge3"><a xlink:title="Ja_102 &#45;&#45;&gt; Ja_101">
<path fill="none" stroke="#000000" d="M467.5,-97C489.45,-97 497.38,-97 515.17,-97"/>
<polygon fill="#000000" stroke="#000000" points="515.5,-100.5 525.5,-97 515.5,-93.5 515.5,-100.5"/>
</a>
</g>
</g>
<!-- Node_Ja_100 -->
<g id="node4" class="node">
<title>Node_Ja_100</title>
<g id="a_node4"><a xlink:title="CommandResult">
<polygon fill="#b2df8a" stroke="transparent" points="24,-122.5 24,-289.5 264,-289.5 264,-122.5 24,-122.5"/>
<polygon fill="#33a02c" stroke="transparent" points="25,-273 25,-288 263,-288 263,-273 25,-273"/>
<text text-anchor="start" x="138" y="-279" font-family="Ubuntu" font-size="10.00">enum </text>
<text text-anchor="start" x="169" y="-279" font-family="Ubuntu" font-weight="bold" font-size="10.00">CommandResult</text>
<polygon fill="#b2df8a" stroke="transparent" points="25,-258 25,-273 252,-273 252,-258 25,-258"/>
<text text-anchor="start" x="27" y="-263" font-family="Ubuntu" font-size="10.00">COMMAND_RESULT_UNSPECIFIED</text>
<polygon fill="#b2df8a" stroke="transparent" points="252,-258 252,-273 263,-273 263,-258 252,-258"/>
<text text-anchor="start" x="254" y="-263" font-family="Ubuntu" font-size="10.00">0</text>
<polygon fill="#b2df8a" stroke="transparent" points="25,-243 25,-258 252,-258 252,-243 25,-243"/>
<text text-anchor="start" x="27" y="-248" font-family="Ubuntu" font-size="10.00">COMMAND_RESULT_ACCEPTED</text>
<polygon fill="#b2df8a" stroke="transparent" points="252,-243 252,-258 263,-258 263,-243 252,-243"/>
<text text-anchor="start" x="254" y="-248" font-family="Ubuntu" font-size="10.00">1</text>
<polygon fill="#b2df8a" stroke="transparent" points="25,-228 25,-243 252,-243 252,-228 25,-228"/>
<text text-anchor="start" x="27" y="-233" font-family="Ubuntu" font-size="10.00">COMMAND_RESULT_TEMPORARILY_REJECTED</text>
<polygon fill="#b2df8a" stroke="transparent" points="252,-228 252,-243 263,-243 263,-228 252,-228"/>
<text text-anchor="start" x="254" y="-233" font-family="Ubuntu" font-size="10.00">2</text>
<polygon fill="#b2df8a" stroke="transparent" points="25,-213 25,-228 252,-228 252,-213 25,-213"/>
<text text-anchor="start" x="27" y="-218" font-family="Ubuntu" font-size="10.00">COMMAND_RESULT_DENIED</text>
<polygon fill="#b2df8a" stroke="transparent" points="252,-213 252,-228 263,-228 263,-213 252,-213"/>
<text text-anchor="start" x="254" y="-218" font-family="Ubuntu" font-size="10.00">3</text>
<polygon fill="#b2df8a" stroke="transparent" points="25,-198 25,-213 252,-213 252,-198 25,-198"/>
<text text-anchor="start" x="27" y="-203" font-family="Ubuntu" font-size="10.00">COMMAND_RESULT_UNSUPPORTED</text>
<polygon fill="#b2df8a" stroke="transparent" points="252,-198 252,-213 263,-213 263,-198 252,-198"/>
<text text-anchor="start" x="254" y="-203" font-family="Ubuntu" font-size="10.00">4</text>
<polygon fill="#b2df8a" stroke="transparent" points="25,-183 25,-198 252,-198 252,-183 25,-183"/>
<text text-anchor="start" x="27" y="-188" font-family="Ubuntu" font-size="10.00">COMMAND_RESULT_FAILED</text>
<polygon fill="#b2df8a" stroke="transparent" points="252,-183 252,-198 263,-198 263,-183 252,-183"/>
<text text-anchor="start" x="254" y="-188" font-family="Ubuntu" font-size="10.00">5</text>
<polygon fill="#b2df8a" stroke="transparent" points="25,-168 25,-183 252,-183 252,-168 25,-168"/>
<text text-anchor="start" x="27" y="-173" font-family="Ubuntu" font-size="10.00">COMMAND_RESULT_IN_PROGRESS</text>
<polygon fill="#b2df8a" stroke="transparent" points="252,-168 252,-183 263,-183 263,-168 252,-168"/>
<text text-anchor="start" x="254" y="-173" font-family="Ubuntu" font-size="10.00">6</text>
<polygon fill="#b2df8a" stroke="transparent" points="25,-153 25,-168 252,-168 252,-153 25,-153"/>
<text text-anchor="start" x="27" y="-158" font-family="Ubuntu" font-size="10.00">COMMAND_RESULT_CANCELLED</text>
<polygon fill="#b2df8a" stroke="transparent" points="252,-153 252,-168 263,-168 263,-153 252,-153"/>
<text text-anchor="start" x="254" y="-158" font-family="Ubuntu" font-size="10.00">7</text>
<polygon fill="#b2df8a" stroke="transparent" points="25,-138 25,-153 252,-153 252,-138 25,-138"/>
<text text-anchor="start" x="27" y="-143" font-family="Ubuntu" font-size="10.00">COMMAND_RESULT_TIMEOUT</text>
<polygon fill="#b2df8a" stroke="transparent" points="252,-138 252,-153 263,-153 263,-138 252,-138"/>
<text text-anchor="start" x="254" y="-143" font-family="Ubuntu" font-size="10.00">8</text>
<polygon fill="#b2df8a" stroke="transparent" points="25,-123 25,-138 252,-138 252,-123 25,-123"/>
<text text-anchor="start" x="27" y="-128" font-family="Ubuntu" font-size="10.00">COMMAND_RESULT_NOT_OBSERVABLE</text>
<polygon fill="#b2df8a" stroke="transparent" points="252,-123 252,-138 263,-138 263,-123 252,-123"/>
<text text-anchor="start" x="254" y="-128" font-family="Ubuntu" font-size="10.00">9</text>
<polygon fill="none" stroke="black" points="24,-122.5 24,-289.5 264,-289.5 264,-122.5 24,-122.5"/>
</a>
</g>
</g>
</g>
</svg>
