<?xml version="1.0" encoding="UTF-8" standalone="no"?>
<!DOCTYPE svg PUBLIC "-//W3C//DTD SVG 1.1//EN"
 "http://www.w3.org/Graphics/SVG/1.1/DTD/svg11.dtd">
<!-- Generated by graphviz version 2.43.0 (0)
 -->
<!-- Title: protodot Pages: 1 -->
<svg width="1351pt" height="851pt"
 viewBox="0.00 0.00 1351.00 851.00" xmlns="http://www.w3.org/2000/svg" xmlns:xlink="http://www.w3.org/1999/xlink">
<g id="graph0" class="graph" transform="scale(1 1) rotate(0) translate(4 847)">
<title>protodot</title>
<g id="clust1" class="cluster">
<title>cluster_da39a3ee5e6b</title>
<polygon fill="#caff70" stroke="black" points="614,-20.5 614,-212.5 886,-212.5 886,-20.5 614,-20.5"/>
</g>
<g id="clust2" class="cluster">
<title>cluster_fb36aafb54f5</title>
<g id="a_clust2"><a xlink:title="google/protobuf/timestamp.proto">
<polygon fill="#caff70" stroke="black" points="682,-220.5 682,-315.5 818,-315.5 818,-220.5 682,-220.5"/>
<text text-anchor="middle" x="750" y="-300.3" font-family="Times,serif" font-size="14.00">timestamp.proto</text>
</a>
</g>
</g>
<g id="clust3" class="cluster">
<title>cluster_d527937d7e0f</title>
<g id="a_clust3"><a xlink:title="VehicleCommon.proto">
<polygon fill="#caff70" stroke="black" points="1168,-661.5 1168,-756.5 1341,-756.5 1341,-661.5 1168,-661.5"/>
<text text-anchor="middle" x="1254.5" y="-741.3" font-family="Times,serif" font-size="14.00">VehicleCommon.proto</text>
</a>
</g>
</g>
<g id="clust4" class="cluster">
<title>cluster_ac8d7b3b7cac</title>
<g id="a_clust4"><a xlink:title="google/protobuf/empty.proto">
<polygon fill="#caff70" stroke="black" points="1203.5,-443.5 1203.5,-518.5 1305.5,-518.5 1305.5,-443.5 1203.5,-443.5"/>
<text text-anchor="middle" x="1254.5" y="-503.3" font-family="Times,serif" font-size="14.00">empty.proto</text>
</a>
</g>
</g>
<!-- Node_Ja_107 -->
<g id="node1" class="node">
<title>Node_Ja_107</title>
<g id="a_node1"><a xlink:title=".Loiter">
<polygon fill="#fffaf0" stroke="transparent" points="922,-609.5 922,-735.5 1132,-735.5 1132,-609.5 922,-609.5"/>
<polygon fill="#e31a1c" stroke="transparent" points="923,-719.5 923,-734.5 1131,-734.5 1131,-719.5 923,-719.5"/>
<text text-anchor="start" x="1095" y="-725.5" font-family="Ubuntu" font-weight="bold" font-size="10.00">Loiter</text>
<text text-anchor="start" x="929" y="-709.5" font-family="Ubuntu" font-size="10.00">1</text>
<text text-anchor="start" x="940" y="-709.5" font-family="Ubuntu" font-size="10.00">position</text>
<polygon fill="#fb9a99" stroke="transparent" points="995,-704.5 995,-719.5 1131,-719.5 1131,-704.5 995,-704.5"/>
<text text-anchor="start" x="1066" y="-710.5" font-family="Ubuntu" font-weight="bold" font-size="10.00">Coordinate</text>
<text text-anchor="start" x="929" y="-694.5" font-family="Ubuntu" font-size="10.00">2</text>
<text text-anchor="start" x="940" y="-694.5" font-family="Ubuntu" font-size="10.00">altitude_m</text>
<polygon fill="#a6cee3" stroke="transparent" points="995,-689.5 995,-704.5 1131,-704.5 1131,-689.5 995,-689.5"/>
<text text-anchor="start" x="1095" y="-695.5" font-family="Ubuntu" font-style="italic" font-size="10.00">double</text>
<text text-anchor="start" x="929" y="-679.5" font-family="Ubuntu" font-size="10.00">3</text>
<text text-anchor="start" x="940" y="-679.5" font-family="Ubuntu" font-size="10.00">radius_m</text>
<polygon fill="#a6cee3" stroke="transparent" points="995,-674.5 995,-689.5 1131,-689.5 1131,-674.5 995,-674.5"/>
<text text-anchor="start" x="1095" y="-680.5" font-family="Ubuntu" font-style="italic" font-size="10.00">double</text>
<polygon fill="#fdbf6f" stroke="transparent" points="923,-659.5 923,-674.5 1131,-674.5 1131,-659.5 923,-659.5"/>
<text text-anchor="start" x="925" y="-664.5" font-family="Ubuntu" font-size="10.00">termination</text>
<polygon fill="#fdbf6f" stroke="transparent" points="923,-644.5 923,-659.5 927,-659.5 927,-644.5 923,-644.5"/>
<text text-anchor="start" x="929" y="-649.5" font-family="Ubuntu" font-size="10.00">4</text>
<text text-anchor="start" x="940" y="-649.5" font-family="Ubuntu" font-size="10.00">unlimited</text>
<polygon fill="#fb9a99" stroke="transparent" points="995,-644.5 995,-659.5 1131,-659.5 1131,-644.5 995,-644.5"/>
<text text-anchor="start" x="997" y="-650.5" font-family="Ubuntu" font-weight="bold" font-size="10.00">google.protobuf.Empty</text>
<polygon fill="#fdbf6f" stroke="transparent" points="923,-629.5 923,-644.5 927,-644.5 927,-629.5 923,-629.5"/>
<text text-anchor="start" x="929" y="-634.5" font-family="Ubuntu" font-size="10.00">5</text>
<text text-anchor="start" x="940" y="-634.5" font-family="Ubuntu" font-size="10.00">turns</text>
<polygon fill="#a6cee3" stroke="transparent" points="995,-629.5 995,-644.5 1131,-644.5 1131,-629.5 995,-629.5"/>
<text text-anchor="start" x="1098" y="-635.5" font-family="Ubuntu" font-style="italic" font-size="10.00">uint32</text>
<polygon fill="#fdbf6f" stroke="transparent" points="923,-614.5 923,-629.5 927,-629.5 927,-614.5 923,-614.5"/>
<text text-anchor="start" x="929" y="-619.5" font-family="Ubuntu" font-size="10.00">6</text>
<text text-anchor="start" x="940" y="-619.5" font-family="Ubuntu" font-size="10.00">duration_s</text>
<polygon fill="#a6cee3" stroke="transparent" points="995,-614.5 995,-629.5 1131,-629.5 1131,-614.5 995,-614.5"/>
<text text-anchor="start" x="1095" y="-620.5" font-family="Ubuntu" font-style="italic" font-size="10.00">double</text>
<polygon fill="#fdbf6f" stroke="transparent" points="923,-610.5 923,-614.5 1131,-614.5 1131,-610.5 923,-610.5"/>
<polygon fill="none" stroke="black" points="922,-609.5 922,-735.5 1132,-735.5 1132,-609.5 922,-609.5"/>
</a>
</g>
</g>
<!-- Node_Ja_103 -->
<g id="node17" class="node">
<title>Node_Ja_103</title>
<g id="a_node17"><a xlink:title=".Coordinate">
<polygon fill="#fffaf0" stroke="transparent" points="1190,-674 1190,-721 1319,-721 1319,-674 1190,-674"/>
<polygon fill="#e31a1c" stroke="transparent" points="1191.5,-704.5 1191.5,-719.5 1318.5,-719.5 1318.5,-704.5 1191.5,-704.5"/>
<text text-anchor="start" x="1253.5" y="-710.5" font-family="Ubuntu" font-weight="bold" font-size="10.00">Coordinate</text>
<text text-anchor="start" x="1197.5" y="-694.5" font-family="Ubuntu" font-size="10.00">1</text>
<text text-anchor="start" x="1208.5" y="-694.5" font-family="Ubuntu" font-size="10.00">latitude_deg</text>
<polygon fill="#a6cee3" stroke="transparent" points="1280.5,-689.5 1280.5,-704.5 1318.5,-704.5 1318.5,-689.5 1280.5,-689.5"/>
<text text-anchor="start" x="1282.5" y="-695.5" font-family="Ubuntu" font-style="italic" font-size="10.00">double</text>
<text text-anchor="start" x="1197.5" y="-679.5" font-family="Ubuntu" font-size="10.00">2</text>
<text text-anchor="start" x="1208.5" y="-679.5" font-family="Ubuntu" font-size="10.00">longitude_deg</text>
<polygon fill="#a6cee3" stroke="transparent" points="1280.5,-674.5 1280.5,-689.5 1318.5,-689.5 1318.5,-674.5 1280.5,-674.5"/>
<text text-anchor="start" x="1282.5" y="-680.5" font-family="Ubuntu" font-style="italic" font-size="10.00">double</text>
<polygon fill="none" stroke="black" points="1190,-674 1190,-721 1319,-721 1319,-674 1190,-674"/>
</a>
</g>
</g>
<!-- Node_Ja_107&#45;&gt;Node_Ja_103 -->
<g id="edge22" class="edge">
<title>Node_Ja_107:e&#45;&gt;Node_Ja_103:header</title>
<g id="a_edge22"><a xlink:title="Ja_107 &#45;&#45;&gt; Ja_103">
<path fill="none" stroke="#000000" d="M1132,-712.5C1154.14,-712.5 1162.14,-712.5 1180.08,-712.5"/>
<polygon fill="#000000" stroke="#000000" points="1180.5,-716 1190.5,-712.5 1180.5,-709 1180.5,-716"/>
</a>
</g>
</g>
<!-- Node_Ja_100 -->
<g id="node18" class="node">
<title>Node_Ja_100</title>
<g id="a_node18"><a xlink:title="google.protobuf.Empty">
<polygon fill="#fffaf0" stroke="transparent" points="1231.5,-461 1231.5,-478 1277.5,-478 1277.5,-461 1231.5,-461"/>
<polygon fill="#e31a1c" stroke="transparent" points="1232.5,-461.5 1232.5,-476.5 1276.5,-476.5 1276.5,-461.5 1232.5,-461.5"/>
<text text-anchor="start" x="1237.5" y="-467.5" font-family="Ubuntu" font-weight="bold" font-size="10.00">Empty</text>
<polygon fill="none" stroke="black" points="1231.5,-461 1231.5,-478 1277.5,-478 1277.5,-461 1231.5,-461"/>
</a>
</g>
</g>
<!-- Node_Ja_107&#45;&gt;Node_Ja_100 -->
<g id="edge7" class="edge">
<title>Node_Ja_107:e&#45;&gt;Node_Ja_100:header</title>
<g id="a_edge7"><a xlink:title="Ja_107 &#45;&#45;&gt; Ja_100">
<path fill="none" stroke="#000000" d="M1132,-651.5C1210.56,-651.5 1241.37,-532.99 1250.4,-486.71"/>
<polygon fill="#000000" stroke="#000000" points="1253.85,-487.31 1252.2,-476.84 1246.96,-486.05 1253.85,-487.31"/>
</a>
</g>
</g>
<!-- Node_Ja_110 -->
<g id="node2" class="node">
<title>Node_Ja_110</title>
<g id="a_node2"><a xlink:title=".ChangeSpeed">
<polygon fill="#fffaf0" stroke="transparent" points="969.5,-439.5 969.5,-471.5 1084.5,-471.5 1084.5,-439.5 969.5,-439.5"/>
<polygon fill="#e31a1c" stroke="transparent" points="971,-455.5 971,-470.5 1084,-470.5 1084,-455.5 971,-455.5"/>
<text text-anchor="start" x="1003" y="-461.5" font-family="Ubuntu" font-weight="bold" font-size="10.00">ChangeSpeed</text>
<text text-anchor="start" x="977" y="-445.5" font-family="Ubuntu" font-size="10.00">1</text>
<text text-anchor="start" x="988" y="-445.5" font-family="Ubuntu" font-size="10.00">speed_mps</text>
<polygon fill="#a6cee3" stroke="transparent" points="1046,-440.5 1046,-455.5 1084,-455.5 1084,-440.5 1046,-440.5"/>
<text text-anchor="start" x="1048" y="-446.5" font-family="Ubuntu" font-style="italic" font-size="10.00">double</text>
<polygon fill="none" stroke="black" points="969.5,-439.5 969.5,-471.5 1084.5,-471.5 1084.5,-439.5 969.5,-439.5"/>
</a>
</g>
</g>
<!-- Node_Ja_113 -->
<g id="node3" class="node">
<title>Node_Ja_113</title>
<g id="a_node3"><a xlink:title=".ClearMissionRequest">
<polygon fill="#fffaf0" stroke="transparent" points="340,-269.5 340,-301.5 578,-301.5 578,-269.5 340,-269.5"/>
<polygon fill="#e31a1c" stroke="transparent" points="341,-285.5 341,-300.5 577,-300.5 577,-285.5 341,-285.5"/>
<text text-anchor="start" x="456" y="-291.5" font-family="Ubuntu" font-weight="bold" font-size="10.00">ClearMissionRequest</text>
<text text-anchor="start" x="347" y="-275.5" font-family="Ubuntu" font-size="10.00">1</text>
<text text-anchor="start" x="358" y="-275.5" font-family="Ubuntu" font-size="10.00">timestamp</text>
<polygon fill="#fb9a99" stroke="transparent" points="414,-270.5 414,-285.5 577,-285.5 577,-270.5 414,-270.5"/>
<text text-anchor="start" x="416" y="-276.5" font-family="Ubuntu" font-weight="bold" font-size="10.00">google.protobuf.Timestamp</text>
<polygon fill="none" stroke="black" points="340,-269.5 340,-301.5 578,-301.5 578,-269.5 340,-269.5"/>
</a>
</g>
</g>
<!-- Node_Ja_101 -->
<g id="node16" class="node">
<title>Node_Ja_101</title>
<g id="a_node16"><a xlink:title="google.protobuf.Timestamp">
<polygon fill="#fffaf0" stroke="transparent" points="705,-233 705,-280 795,-280 795,-233 705,-233"/>
<polygon fill="#e31a1c" stroke="transparent" points="706,-263.5 706,-278.5 794,-278.5 794,-263.5 706,-263.5"/>
<text text-anchor="start" x="728" y="-269.5" font-family="Ubuntu" font-weight="bold" font-size="10.00">Timestamp</text>
<text text-anchor="start" x="712" y="-253.5" font-family="Ubuntu" font-size="10.00">1</text>
<text text-anchor="start" x="723" y="-253.5" font-family="Ubuntu" font-size="10.00">seconds</text>
<polygon fill="#a6cee3" stroke="transparent" points="765,-248.5 765,-263.5 794,-263.5 794,-248.5 765,-248.5"/>
<text text-anchor="start" x="767" y="-254.5" font-family="Ubuntu" font-style="italic" font-size="10.00">int64</text>
<text text-anchor="start" x="712" y="-238.5" font-family="Ubuntu" font-size="10.00">2</text>
<text text-anchor="start" x="723" y="-238.5" font-family="Ubuntu" font-size="10.00">nanos</text>
<polygon fill="#a6cee3" stroke="transparent" points="765,-233.5 765,-248.5 794,-248.5 794,-233.5 765,-233.5"/>
<text text-anchor="start" x="767" y="-239.5" font-family="Ubuntu" font-style="italic" font-size="10.00">int32</text>
<polygon fill="none" stroke="black" points="705,-233 705,-280 795,-280 795,-233 705,-233"/>
</a>
</g>
</g>
<!-- Node_Ja_113&#45;&gt;Node_Ja_101 -->
<g id="edge10" class="edge">
<title>Node_Ja_113:e&#45;&gt;Node_Ja_101:header</title>
<g id="a_edge10"><a xlink:title="Ja_113 &#45;&#45;&gt; Ja_101">
<path fill="none" stroke="#000000" d="M578,-277.5C630.98,-277.5 646.58,-272.23 694.88,-271.57"/>
<polygon fill="#000000" stroke="#000000" points="695.02,-275.07 705,-271.5 694.98,-268.07 695.02,-275.07"/>
</a>
</g>
</g>
<!-- Node_Ja_115 -->
<g id="node4" class="node">
<title>Node_Ja_115</title>
<g id="a_node4"><a xlink:title=".SetCurrentWaypointRequest">
<polygon fill="#fffaf0" stroke="transparent" points="340,-196 340,-243 578,-243 578,-196 340,-196"/>
<polygon fill="#e31a1c" stroke="transparent" points="341,-226.5 341,-241.5 577,-241.5 577,-226.5 341,-226.5"/>
<text text-anchor="start" x="414" y="-232.5" font-family="Ubuntu" font-weight="bold" font-size="10.00">SetCurrentWaypointRequest</text>
<text text-anchor="start" x="347" y="-216.5" font-family="Ubuntu" font-size="10.00">1</text>
<text text-anchor="start" x="358" y="-216.5" font-family="Ubuntu" font-size="10.00">timestamp</text>
<polygon fill="#fb9a99" stroke="transparent" points="414,-211.5 414,-226.5 577,-226.5 577,-211.5 414,-211.5"/>
<text text-anchor="start" x="416" y="-217.5" font-family="Ubuntu" font-weight="bold" font-size="10.00">google.protobuf.Timestamp</text>
<text text-anchor="start" x="347" y="-201.5" font-family="Ubuntu" font-size="10.00">2</text>
<text text-anchor="start" x="358" y="-201.5" font-family="Ubuntu" font-size="10.00">seq</text>
<polygon fill="#a6cee3" stroke="transparent" points="414,-196.5 414,-211.5 577,-211.5 577,-196.5 414,-196.5"/>
<text text-anchor="start" x="544" y="-202.5" font-family="Ubuntu" font-style="italic" font-size="10.00">uint32</text>
<polygon fill="none" stroke="black" points="340,-196 340,-243 578,-243 578,-196 340,-196"/>
</a>
</g>
</g>
<!-- Node_Ja_115&#45;&gt;Node_Ja_101 -->
<g id="edge19" class="edge">
<title>Node_Ja_115:e&#45;&gt;Node_Ja_101:header</title>
<g id="a_edge19"><a xlink:title="Ja_115 &#45;&#45;&gt; Ja_101">
<path fill="none" stroke="#000000" d="M578,-218.5C635.58,-218.5 643.1,-265.47 694.81,-270.98"/>
<polygon fill="#000000" stroke="#000000" points="694.83,-274.48 705,-271.5 695.19,-267.49 694.83,-274.48"/>
</a>
</g>
</g>
<!-- Node_Ja_105 -->
<g id="node5" class="node">
<title>Node_Ja_105</title>
<g id="a_node5"><a xlink:title=".Mission">
<polygon fill="#fffaf0" stroke="transparent" points="389.5,-453.5 389.5,-485.5 528.5,-485.5 528.5,-453.5 389.5,-453.5"/>
<polygon fill="#e31a1c" stroke="transparent" points="391,-469.5 391,-484.5 528,-484.5 528,-469.5 391,-469.5"/>
<text text-anchor="start" x="483" y="-475.5" font-family="Ubuntu" font-weight="bold" font-size="10.00">Mission</text>
<text text-anchor="start" x="393" y="-459.5" font-family="Ubuntu" font-size="10.00">[...]</text>
<text text-anchor="start" x="414" y="-459.5" font-family="Ubuntu" font-size="10.00">1</text>
<text text-anchor="start" x="425" y="-459.5" font-family="Ubuntu" font-size="10.00">items</text>
<polygon fill="#fb9a99" stroke="transparent" points="455,-454.5 455,-469.5 528,-469.5 528,-454.5 455,-454.5"/>
<text text-anchor="start" x="457" y="-460.5" font-family="Ubuntu" font-weight="bold" font-size="10.00">MissionItem</text>
<polygon fill="none" stroke="black" points="389.5,-453.5 389.5,-485.5 528.5,-485.5 528.5,-453.5 389.5,-453.5"/>
</a>
</g>
</g>
<!-- Node_Ja_104 -->
<g id="node11" class="node">
<title>Node_Ja_104</title>
<g id="a_node11"><a xlink:title=".MissionItem">
<polygon fill="#fffaf0" stroke="transparent" points="663,-469 663,-610 837,-610 837,-469 663,-469"/>
<polygon fill="#e31a1c" stroke="transparent" points="664,-593.5 664,-608.5 836,-608.5 836,-593.5 664,-593.5"/>
<text text-anchor="start" x="765" y="-599.5" font-family="Ubuntu" font-weight="bold" font-size="10.00">MissionItem</text>
<text text-anchor="start" x="670" y="-583.5" font-family="Ubuntu" font-size="10.00">1</text>
<text text-anchor="start" x="681" y="-583.5" font-family="Ubuntu" font-size="10.00">autocontinue</text>
<polygon fill="#a6cee3" stroke="transparent" points="753,-578.5 753,-593.5 836,-593.5 836,-578.5 753,-578.5"/>
<text text-anchor="start" x="812" y="-584.5" font-family="Ubuntu" font-style="italic" font-size="10.00">bool</text>
<polygon fill="#fdbf6f" stroke="transparent" points="664,-563.5 664,-578.5 836,-578.5 836,-563.5 664,-563.5"/>
<text text-anchor="start" x="666" y="-568.5" font-family="Ubuntu" font-size="10.00">step</text>
<polygon fill="#fdbf6f" stroke="transparent" points="664,-548.5 664,-563.5 668,-563.5 668,-548.5 664,-548.5"/>
<text text-anchor="start" x="670" y="-553.5" font-family="Ubuntu" font-size="10.00">2</text>
<text text-anchor="start" x="681" y="-553.5" font-family="Ubuntu" font-size="10.00">waypoint</text>
<polygon fill="#fb9a99" stroke="transparent" points="753,-548.5 753,-563.5 836,-563.5 836,-548.5 753,-548.5"/>
<text text-anchor="start" x="780" y="-554.5" font-family="Ubuntu" font-weight="bold" font-size="10.00">Waypoint</text>
<polygon fill="#fdbf6f" stroke="transparent" points="664,-533.5 664,-548.5 668,-548.5 668,-533.5 664,-533.5"/>
<text text-anchor="start" x="670" y="-538.5" font-family="Ubuntu" font-size="10.00">3</text>
<text text-anchor="start" x="681" y="-538.5" font-family="Ubuntu" font-size="10.00">loiter</text>
<polygon fill="#fb9a99" stroke="transparent" points="753,-533.5 753,-548.5 836,-548.5 836,-533.5 753,-533.5"/>
<text text-anchor="start" x="800" y="-539.5" font-family="Ubuntu" font-weight="bold" font-size="10.00">Loiter</text>
<polygon fill="#fdbf6f" stroke="transparent" points="664,-518.5 664,-533.5 668,-533.5 668,-518.5 664,-518.5"/>
<text text-anchor="start" x="670" y="-523.5" font-family="Ubuntu" font-size="10.00">4</text>
<text text-anchor="start" x="681" y="-523.5" font-family="Ubuntu" font-size="10.00">delay</text>
<polygon fill="#fb9a99" stroke="transparent" points="753,-518.5 753,-533.5 836,-533.5 836,-518.5 753,-518.5"/>
<text text-anchor="start" x="801" y="-524.5" font-family="Ubuntu" font-weight="bold" font-size="10.00">Delay</text>
<polygon fill="#fdbf6f" stroke="transparent" points="664,-503.5 664,-518.5 668,-518.5 668,-503.5 664,-503.5"/>
<text text-anchor="start" x="670" y="-508.5" font-family="Ubuntu" font-size="10.00">5</text>
<text text-anchor="start" x="681" y="-508.5" font-family="Ubuntu" font-size="10.00">return_home</text>
<polygon fill="#fb9a99" stroke="transparent" points="753,-503.5 753,-518.5 836,-518.5 836,-503.5 753,-503.5"/>
<text text-anchor="start" x="764" y="-509.5" font-family="Ubuntu" font-weight="bold" font-size="10.00">ReturnHome</text>
<polygon fill="#fdbf6f" stroke="transparent" points="664,-488.5 664,-503.5 668,-503.5 668,-488.5 664,-488.5"/>
<text text-anchor="start" x="670" y="-493.5" font-family="Ubuntu" font-size="10.00">6</text>
<text text-anchor="start" x="681" y="-493.5" font-family="Ubuntu" font-size="10.00">change_speed</text>
<polygon fill="#fb9a99" stroke="transparent" points="753,-488.5 753,-503.5 836,-503.5 836,-488.5 753,-488.5"/>
<text text-anchor="start" x="755" y="-494.5" font-family="Ubuntu" font-weight="bold" font-size="10.00">ChangeSpeed</text>
<polygon fill="#fdbf6f" stroke="transparent" points="664,-473.5 664,-488.5 668,-488.5 668,-473.5 664,-473.5"/>
<text text-anchor="start" x="670" y="-478.5" font-family="Ubuntu" font-size="10.00">7</text>
<text text-anchor="start" x="681" y="-478.5" font-family="Ubuntu" font-size="10.00">set_home</text>
<polygon fill="#fb9a99" stroke="transparent" points="753,-473.5 753,-488.5 836,-488.5 836,-473.5 753,-473.5"/>
<text text-anchor="start" x="782" y="-479.5" font-family="Ubuntu" font-weight="bold" font-size="10.00">SetHome</text>
<polygon fill="#fdbf6f" stroke="transparent" points="664,-469.5 664,-473.5 836,-473.5 836,-469.5 664,-469.5"/>
<polygon fill="none" stroke="black" points="663,-469 663,-610 837,-610 837,-469 663,-469"/>
</a>
</g>
</g>
<!-- Node_Ja_105&#45;&gt;Node_Ja_104 -->
<g id="edge21" class="edge">
<title>Node_Ja_105:e&#45;&gt;Node_Ja_104:header</title>
<g id="a_edge21"><a xlink:title="Ja_105 &#45;&#45;&gt; Ja_104">
<path fill="none" stroke="#000000" d="M529,-461.5C611.6,-461.5 579.8,-590.25 653.01,-600.81"/>
<polygon fill="#000000" stroke="#000000" points="652.78,-604.31 663,-601.5 653.26,-597.32 652.78,-604.31"/>
</a>
</g>
</g>
<!-- Node_Ja_106 -->
<g id="node6" class="node">
<title>Node_Ja_106</title>
<g id="a_node6"><a xlink:title=".Waypoint">
<polygon fill="#fffaf0" stroke="transparent" points="930,-762 930,-839 1124,-839 1124,-762 930,-762"/>
<polygon fill="#e31a1c" stroke="transparent" points="931,-822.5 931,-837.5 1123,-837.5 1123,-822.5 931,-822.5"/>
<text text-anchor="start" x="1067" y="-828.5" font-family="Ubuntu" font-weight="bold" font-size="10.00">Waypoint</text>
<text text-anchor="start" x="937" y="-812.5" font-family="Ubuntu" font-size="10.00">1</text>
<text text-anchor="start" x="948" y="-812.5" font-family="Ubuntu" font-size="10.00">position</text>
<polygon fill="#fb9a99" stroke="transparent" points="1056,-807.5 1056,-822.5 1123,-822.5 1123,-807.5 1056,-807.5"/>
<text text-anchor="start" x="1058" y="-813.5" font-family="Ubuntu" font-weight="bold" font-size="10.00">Coordinate</text>
<text text-anchor="start" x="937" y="-797.5" font-family="Ubuntu" font-size="10.00">2</text>
<text text-anchor="start" x="948" y="-797.5" font-family="Ubuntu" font-size="10.00">altitude_m</text>
<polygon fill="#a6cee3" stroke="transparent" points="1056,-792.5 1056,-807.5 1123,-807.5 1123,-792.5 1056,-792.5"/>
<text text-anchor="start" x="1087" y="-798.5" font-family="Ubuntu" font-style="italic" font-size="10.00">double</text>
<text text-anchor="start" x="937" y="-782.5" font-family="Ubuntu" font-size="10.00">3</text>
<text text-anchor="start" x="948" y="-782.5" font-family="Ubuntu" font-size="10.00">acceptance_radius_m</text>
<polygon fill="#a6cee3" stroke="transparent" points="1056,-777.5 1056,-792.5 1123,-792.5 1123,-777.5 1056,-777.5"/>
<text text-anchor="start" x="1087" y="-783.5" font-family="Ubuntu" font-style="italic" font-size="10.00">double</text>
<text text-anchor="start" x="937" y="-767.5" font-family="Ubuntu" font-size="10.00">4</text>
<text text-anchor="start" x="948" y="-767.5" font-family="Ubuntu" font-size="10.00">hold_time_s</text>
<polygon fill="#a6cee3" stroke="transparent" points="1056,-762.5 1056,-777.5 1123,-777.5 1123,-762.5 1056,-762.5"/>
<text text-anchor="start" x="1087" y="-768.5" font-family="Ubuntu" font-style="italic" font-size="10.00">double</text>
<polygon fill="none" stroke="black" points="930,-762 930,-839 1124,-839 1124,-762 930,-762"/>
</a>
</g>
</g>
<!-- Node_Ja_106&#45;&gt;Node_Ja_103 -->
<g id="edge6" class="edge">
<title>Node_Ja_106:e&#45;&gt;Node_Ja_103:header</title>
<g id="a_edge6"><a xlink:title="Ja_106 &#45;&#45;&gt; Ja_103">
<path fill="none" stroke="#000000" d="M1124,-815.5C1174.66,-815.5 1141.5,-726.48 1180.38,-713.96"/>
<polygon fill="#000000" stroke="#000000" points="1181.1,-717.39 1190.5,-712.5 1180.1,-710.46 1181.1,-717.39"/>
</a>
</g>
</g>
<!-- Node_Ja_117 -->
<g id="node7" class="node">
<title>Node_Ja_117</title>
<g id="a_node7"><a xlink:title="VehicleMission">
<polygon fill="#ffd700" stroke="transparent" points="8,-245 8,-382 288,-382 288,-245 8,-245"/>
<polygon fill="#ff7f50" stroke="transparent" points="9,-365.5 9,-380.5 287,-380.5 287,-365.5 9,-365.5"/>
<text text-anchor="start" x="200" y="-371.5" font-family="Ubuntu" font-weight="bold" font-size="10.00">VehicleMission</text>
<text text-anchor="start" x="11" y="-356.5" font-family="Ubuntu" font-weight="bold" font-size="10.00">upload_mission</text>
<text text-anchor="start" x="247" y="-355.5" font-family="Ubuntu" font-size="10.00">Mission</text>
<polygon fill="#ff7f50" stroke="transparent" points="134,-335.5 134,-350.5 138,-350.5 138,-335.5 134,-335.5"/>
<polygon fill="#ff7f50" stroke="transparent" points="138,-335.5 138,-350.5 287,-350.5 287,-335.5 138,-335.5"/>
<text text-anchor="start" x="165" y="-340.5" font-family="Ubuntu" font-size="10.00">MissionUploadResponse</text>
<text text-anchor="start" x="11" y="-326.5" font-family="Ubuntu" font-weight="bold" font-size="10.00">download_mission</text>
<text text-anchor="start" x="173" y="-325.5" font-family="Ubuntu" font-size="10.00">google.protobuf.Empty</text>
<polygon fill="#ff7f50" stroke="transparent" points="134,-305.5 134,-320.5 138,-320.5 138,-305.5 134,-305.5"/>
<polygon fill="#ff7f50" stroke="transparent" points="138,-305.5 138,-320.5 287,-320.5 287,-305.5 138,-305.5"/>
<text text-anchor="start" x="247" y="-310.5" font-family="Ubuntu" font-size="10.00">Mission</text>
<text text-anchor="start" x="11" y="-296.5" font-family="Ubuntu" font-weight="bold" font-size="10.00">clear_mission</text>
<text text-anchor="start" x="182" y="-295.5" font-family="Ubuntu" font-size="10.00">ClearMissionRequest</text>
<polygon fill="#ff7f50" stroke="transparent" points="134,-275.5 134,-290.5 138,-290.5 138,-275.5 134,-275.5"/>
<polygon fill="#ff7f50" stroke="transparent" points="138,-275.5 138,-290.5 287,-290.5 287,-275.5 138,-275.5"/>
<text text-anchor="start" x="174" y="-280.5" font-family="Ubuntu" font-size="10.00">ClearMissionResponse</text>
<text text-anchor="start" x="11" y="-266.5" font-family="Ubuntu" font-weight="bold" font-size="10.00">set_current_waypoint</text>
<text text-anchor="start" x="147" y="-265.5" font-family="Ubuntu" font-size="10.00">SetCurrentWaypointRequest</text>
<polygon fill="#ff7f50" stroke="transparent" points="134,-245.5 134,-260.5 138,-260.5 138,-245.5 134,-245.5"/>
<polygon fill="#ff7f50" stroke="transparent" points="138,-245.5 138,-260.5 287,-260.5 287,-245.5 138,-245.5"/>
<text text-anchor="start" x="140" y="-250.5" font-family="Ubuntu" font-size="10.00">SetCurrentWaypointResponse</text>
<polygon fill="none" stroke="black" points="8,-245 8,-382 288,-382 288,-245 8,-245"/>
</a>
</g>
</g>
<!-- Node_Ja_117&#45;&gt;Node_Ja_113 -->
<g id="edge20" class="edge">
<title>Node_Ja_117:e&#45;&gt;Node_Ja_113:header</title>
<g id="a_edge20"><a xlink:title="Ja_117 &#45;&#45;&gt; Ja_113">
<path fill="none" stroke="#000000" d="M288,-297.5C307.38,-297.5 314.5,-294.7 329.85,-293.79"/>
<polygon fill="#000000" stroke="#000000" points="330.1,-297.28 340,-293.5 329.9,-290.28 330.1,-297.28"/>
</a>
</g>
</g>
<!-- Node_Ja_117&#45;&gt;Node_Ja_115 -->
<g id="edge4" class="edge">
<title>Node_Ja_117:e&#45;&gt;Node_Ja_115:header</title>
<g id="a_edge4"><a xlink:title="Ja_117 &#45;&#45;&gt; Ja_115">
<path fill="none" stroke="#000000" d="M288,-267.5C311.52,-267.5 312.8,-243.13 330.07,-236.27"/>
<polygon fill="#000000" stroke="#000000" points="330.77,-239.7 340,-234.5 329.54,-232.81 330.77,-239.7"/>
</a>
</g>
</g>
<!-- Node_Ja_117&#45;&gt;Node_Ja_105 -->
<g id="edge2" class="edge">
<title>Node_Ja_117:e&#45;&gt;Node_Ja_105:header</title>
<g id="a_edge2"><a xlink:title="Ja_117 &#45;&#45;&gt; Ja_105">
<path fill="none" stroke="#000000" d="M288,-312.5C348.16,-312.5 294.78,-393.24 332,-440.5 348.63,-461.61 357.21,-474.2 379.81,-476.93"/>
<polygon fill="#000000" stroke="#000000" points="379.82,-480.44 390,-477.5 380.21,-473.45 379.82,-480.44"/>
</a>
</g>
</g>
<!-- Node_Ja_117&#45;&gt;Node_Ja_105 -->
<g id="edge23" class="edge">
<title>Node_Ja_117:e&#45;&gt;Node_Ja_105:header</title>
<g id="a_edge23"><a xlink:title="Ja_117 &#45;&#45;&gt; Ja_105">
<path fill="none" stroke="#000000" d="M288,-358.5C329.36,-358.5 303.88,-410.17 332,-440.5 350.27,-460.2 357.61,-473.85 379.88,-476.87"/>
<polygon fill="#000000" stroke="#000000" points="379.8,-480.37 390,-477.5 380.24,-473.39 379.8,-480.37"/>
</a>
</g>
</g>
<!-- Node_Ja_114 -->
<g id="node10" class="node">
<title>Node_Ja_114</title>
<g id="a_node10"><a xlink:title=".ClearMissionResponse">
<polygon fill="#fffaf0" stroke="transparent" points="355.5,-107.5 355.5,-169.5 562.5,-169.5 562.5,-107.5 355.5,-107.5"/>
<polygon fill="#e31a1c" stroke="transparent" points="357,-153.5 357,-168.5 562,-168.5 562,-153.5 357,-153.5"/>
<text text-anchor="start" x="433" y="-159.5" font-family="Ubuntu" font-weight="bold" font-size="10.00">ClearMissionResponse</text>
<text text-anchor="start" x="363" y="-143.5" font-family="Ubuntu" font-size="10.00">1</text>
<text text-anchor="start" x="374" y="-143.5" font-family="Ubuntu" font-size="10.00">result</text>
<polygon fill="#b2df8a" stroke="transparent" points="476,-138.5 476,-153.5 562,-153.5 562,-138.5 476,-138.5"/>
<text text-anchor="start" x="478" y="-144.5" font-family="Ubuntu" text-decoration="underline" font-size="10.00">CommandResult</text>
<text text-anchor="start" x="363" y="-128.5" font-family="Ubuntu" font-size="10.00">2</text>
<text text-anchor="start" x="374" y="-128.5" font-family="Ubuntu" font-size="10.00">raw_autopilot_result</text>
<polygon fill="#a6cee3" stroke="transparent" points="476,-123.5 476,-138.5 562,-138.5 562,-123.5 476,-123.5"/>
<text text-anchor="start" x="535" y="-129.5" font-family="Ubuntu" font-style="italic" font-size="10.00">int32</text>
<text text-anchor="start" x="363" y="-113.5" font-family="Ubuntu" font-size="10.00">3</text>
<text text-anchor="start" x="374" y="-113.5" font-family="Ubuntu" font-size="10.00">detail</text>
<polygon fill="#a6cee3" stroke="transparent" points="476,-108.5 476,-123.5 562,-123.5 562,-108.5 476,-108.5"/>
<text text-anchor="start" x="532" y="-114.5" font-family="Ubuntu" font-style="italic" font-size="10.00">string</text>
<polygon fill="none" stroke="black" points="355.5,-107.5 355.5,-169.5 562.5,-169.5 562.5,-107.5 355.5,-107.5"/>
</a>
</g>
</g>
<!-- Node_Ja_117&#45;&gt;Node_Ja_114 -->
<g id="edge3" class="edge">
<title>Node_Ja_117:e&#45;&gt;Node_Ja_114:header</title>
<g id="a_edge3"><a xlink:title="Ja_117 &#45;&#45;&gt; Ja_114">
<path fill="none" stroke="#000000" d="M288,-282.5C345.95,-282.5 300.59,-175.71 346.03,-162.78"/>
<polygon fill="#000000" stroke="#000000" points="346.53,-166.24 356,-161.5 345.64,-159.3 346.53,-166.24"/>
</a>
</g>
</g>
<!-- Node_Ja_112 -->
<g id="node13" class="node">
<title>Node_Ja_112</title>
<g id="a_node13"><a xlink:title=".MissionUploadResponse">
<polygon fill="#fffaf0" stroke="transparent" points="355.5,-365.5 355.5,-427.5 562.5,-427.5 562.5,-365.5 355.5,-365.5"/>
<polygon fill="#e31a1c" stroke="transparent" points="357,-411.5 357,-426.5 562,-426.5 562,-411.5 357,-411.5"/>
<text text-anchor="start" x="422" y="-417.5" font-family="Ubuntu" font-weight="bold" font-size="10.00">MissionUploadResponse</text>
<text text-anchor="start" x="363" y="-401.5" font-family="Ubuntu" font-size="10.00">1</text>
<text text-anchor="start" x="374" y="-401.5" font-family="Ubuntu" font-size="10.00">result</text>
<polygon fill="#b2df8a" stroke="transparent" points="476,-396.5 476,-411.5 562,-411.5 562,-396.5 476,-396.5"/>
<text text-anchor="start" x="478" y="-402.5" font-family="Ubuntu" text-decoration="underline" font-size="10.00">CommandResult</text>
<text text-anchor="start" x="363" y="-386.5" font-family="Ubuntu" font-size="10.00">2</text>
<text text-anchor="start" x="374" y="-386.5" font-family="Ubuntu" font-size="10.00">raw_autopilot_result</text>
<polygon fill="#a6cee3" stroke="transparent" points="476,-381.5 476,-396.5 562,-396.5 562,-381.5 476,-381.5"/>
<text text-anchor="start" x="535" y="-387.5" font-family="Ubuntu" font-style="italic" font-size="10.00">int32</text>
<text text-anchor="start" x="363" y="-371.5" font-family="Ubuntu" font-size="10.00">3</text>
<text text-anchor="start" x="374" y="-371.5" font-family="Ubuntu" font-size="10.00">detail</text>
<polygon fill="#a6cee3" stroke="transparent" points="476,-366.5 476,-381.5 562,-381.5 562,-366.5 476,-366.5"/>
<text text-anchor="start" x="532" y="-372.5" font-family="Ubuntu" font-style="italic" font-size="10.00">string</text>
<polygon fill="none" stroke="black" points="355.5,-365.5 355.5,-427.5 562.5,-427.5 562.5,-365.5 355.5,-365.5"/>
</a>
</g>
</g>
<!-- Node_Ja_117&#45;&gt;Node_Ja_112 -->
<g id="edge24" class="edge">
<title>Node_Ja_117:e&#45;&gt;Node_Ja_112:header</title>
<g id="a_edge24"><a xlink:title="Ja_117 &#45;&#45;&gt; Ja_112">
<path fill="none" stroke="#000000" d="M288,-343.5C329.43,-343.5 314.07,-407 345.73,-417.91"/>
<polygon fill="#000000" stroke="#000000" points="345.58,-421.43 356,-419.5 346.65,-414.51 345.58,-421.43"/>
</a>
</g>
</g>
<!-- Node_Ja_116 -->
<g id="node14" class="node">
<title>Node_Ja_116</title>
<g id="a_node14"><a xlink:title=".SetCurrentWaypointResponse">
<polygon fill="#fffaf0" stroke="transparent" points="355.5,-4 355.5,-81 562.5,-81 562.5,-4 355.5,-4"/>
<polygon fill="#e31a1c" stroke="transparent" points="357,-64.5 357,-79.5 562,-79.5 562,-64.5 357,-64.5"/>
<text text-anchor="start" x="391" y="-70.5" font-family="Ubuntu" font-weight="bold" font-size="10.00">SetCurrentWaypointResponse</text>
<text text-anchor="start" x="363" y="-54.5" font-family="Ubuntu" font-size="10.00">1</text>
<text text-anchor="start" x="374" y="-54.5" font-family="Ubuntu" font-size="10.00">result</text>
<polygon fill="#b2df8a" stroke="transparent" points="476,-49.5 476,-64.5 562,-64.5 562,-49.5 476,-49.5"/>
<text text-anchor="start" x="478" y="-55.5" font-family="Ubuntu" text-decoration="underline" font-size="10.00">CommandResult</text>
<text text-anchor="start" x="363" y="-39.5" font-family="Ubuntu" font-size="10.00">2</text>
<text text-anchor="start" x="374" y="-39.5" font-family="Ubuntu" font-size="10.00">raw_autopilot_result</text>
<polygon fill="#a6cee3" stroke="transparent" points="476,-34.5 476,-49.5 562,-49.5 562,-34.5 476,-34.5"/>
<text text-anchor="start" x="535" y="-40.5" font-family="Ubuntu" font-style="italic" font-size="10.00">int32</text>
<text text-anchor="start" x="363" y="-24.5" font-family="Ubuntu" font-size="10.00">3</text>
<text text-anchor="start" x="374" y="-24.5" font-family="Ubuntu" font-size="10.00">detail</text>
<polygon fill="#a6cee3" stroke="transparent" points="476,-19.5 476,-34.5 562,-34.5 562,-19.5 476,-19.5"/>
<text text-anchor="start" x="532" y="-25.5" font-family="Ubuntu" font-style="italic" font-size="10.00">string</text>
<text text-anchor="start" x="363" y="-9.5" font-family="Ubuntu" font-size="10.00">4</text>
<text text-anchor="start" x="374" y="-9.5" font-family="Ubuntu" font-size="10.00">seq_actual</text>
<polygon fill="#a6cee3" stroke="transparent" points="476,-4.5 476,-19.5 562,-19.5 562,-4.5 476,-4.5"/>
<text text-anchor="start" x="529" y="-10.5" font-family="Ubuntu" font-style="italic" font-size="10.00">uint32</text>
<polygon fill="none" stroke="black" points="355.5,-4 355.5,-81 562.5,-81 562.5,-4 355.5,-4"/>
</a>
</g>
</g>
<!-- Node_Ja_117&#45;&gt;Node_Ja_116 -->
<g id="edge9" class="edge">
<title>Node_Ja_117:e&#45;&gt;Node_Ja_116:header</title>
<g id="a_edge9"><a xlink:title="Ja_117 &#45;&#45;&gt; Ja_116">
<path fill="none" stroke="#000000" d="M288,-252.5C369.84,-252.5 278.99,-87.64 345.99,-73.47"/>
<polygon fill="#000000" stroke="#000000" points="346.38,-76.95 356,-72.5 345.71,-69.98 346.38,-76.95"/>
</a>
</g>
</g>
<!-- Node_Ja_117&#45;&gt;Node_Ja_100 -->
<g id="edge12" class="edge">
<title>Node_Ja_117:e&#45;&gt;Node_Ja_100:header</title>
<g id="a_edge12"><a xlink:title="Ja_117 &#45;&#45;&gt; Ja_100">
<path fill="none" stroke="#000000" d="M288,-328.5C382.7,-328.5 1053.23,-314.56 1140,-352.5 1188.3,-373.62 1226.62,-425.83 1243.76,-452.4"/>
<polygon fill="#000000" stroke="#000000" points="1240.99,-454.59 1249.26,-461.22 1246.93,-450.88 1240.99,-454.59"/>
</a>
</g>
</g>
<!-- Node_Ja_109 -->
<g id="node8" class="node">
<title>Node_Ja_109</title>
<g id="a_node8"><a xlink:title=".ReturnHome">
<polygon fill="#fffaf0" stroke="transparent" points="988,-503 988,-520 1066,-520 1066,-503 988,-503"/>
<polygon fill="#e31a1c" stroke="transparent" points="989,-503.5 989,-518.5 1065,-518.5 1065,-503.5 989,-503.5"/>
<text text-anchor="start" x="993" y="-509.5" font-family="Ubuntu" font-weight="bold" font-size="10.00">ReturnHome</text>
<polygon fill="none" stroke="black" points="988,-503 988,-520 1066,-520 1066,-503 988,-503"/>
</a>
</g>
</g>
<!-- Node_Ja_111 -->
<g id="node9" class="node">
<title>Node_Ja_111</title>
<g id="a_node9"><a xlink:title=".SetHome">
<polygon fill="#fffaf0" stroke="transparent" points="956.5,-366 956.5,-413 1097.5,-413 1097.5,-366 956.5,-366"/>
<polygon fill="#e31a1c" stroke="transparent" points="958,-396.5 958,-411.5 1097,-411.5 1097,-396.5 958,-396.5"/>
<text text-anchor="start" x="1043" y="-402.5" font-family="Ubuntu" font-weight="bold" font-size="10.00">SetHome</text>
<text text-anchor="start" x="964" y="-386.5" font-family="Ubuntu" font-size="10.00">1</text>
<text text-anchor="start" x="975" y="-386.5" font-family="Ubuntu" font-size="10.00">position</text>
<polygon fill="#fb9a99" stroke="transparent" points="1030,-381.5 1030,-396.5 1097,-396.5 1097,-381.5 1030,-381.5"/>
<text text-anchor="start" x="1032" y="-387.5" font-family="Ubuntu" font-weight="bold" font-size="10.00">Coordinate</text>
<text text-anchor="start" x="964" y="-371.5" font-family="Ubuntu" font-size="10.00">2</text>
<text text-anchor="start" x="975" y="-371.5" font-family="Ubuntu" font-size="10.00">altitude_m</text>
<polygon fill="#a6cee3" stroke="transparent" points="1030,-366.5 1030,-381.5 1097,-381.5 1097,-366.5 1030,-366.5"/>
<text text-anchor="start" x="1061" y="-372.5" font-family="Ubuntu" font-style="italic" font-size="10.00">double</text>
<polygon fill="none" stroke="black" points="956.5,-366 956.5,-413 1097.5,-413 1097.5,-366 956.5,-366"/>
</a>
</g>
</g>
<!-- Node_Ja_111&#45;&gt;Node_Ja_103 -->
<g id="edge8" class="edge">
<title>Node_Ja_111:e&#45;&gt;Node_Ja_103:header</title>
<g id="a_edge8"><a xlink:title="Ja_111 &#45;&#45;&gt; Ja_103">
<path fill="none" stroke="#000000" d="M1098,-388.5C1123.17,-388.5 1127.82,-404.47 1140,-426.5 1169.46,-479.78 1130.84,-687.05 1180.56,-710.36"/>
<polygon fill="#000000" stroke="#000000" points="1179.99,-713.82 1190.5,-712.5 1181.46,-706.98 1179.99,-713.82"/>
</a>
</g>
</g>
<!-- Node_Ja_102 -->
<g id="node15" class="node">
<title>Node_Ja_102</title>
<g id="a_node15"><a xlink:title="CommandResult">
<polygon fill="#b2df8a" stroke="transparent" points="630,-33 630,-200 870,-200 870,-33 630,-33"/>
<polygon fill="#33a02c" stroke="transparent" points="631,-183.5 631,-198.5 869,-198.5 869,-183.5 631,-183.5"/>
<text text-anchor="start" x="744" y="-189.5" font-family="Ubuntu" font-size="10.00">enum </text>
<text text-anchor="start" x="775" y="-189.5" font-family="Ubuntu" font-weight="bold" font-size="10.00">CommandResult</text>
<polygon fill="#b2df8a" stroke="transparent" points="631,-168.5 631,-183.5 858,-183.5 858,-168.5 631,-168.5"/>
<text text-anchor="start" x="633" y="-173.5" font-family="Ubuntu" font-size="10.00">COMMAND_RESULT_UNSPECIFIED</text>
<polygon fill="#b2df8a" stroke="transparent" points="858,-168.5 858,-183.5 869,-183.5 869,-168.5 858,-168.5"/>
<text text-anchor="start" x="860" y="-173.5" font-family="Ubuntu" font-size="10.00">0</text>
<polygon fill="#b2df8a" stroke="transparent" points="631,-153.5 631,-168.5 858,-168.5 858,-153.5 631,-153.5"/>
<text text-anchor="start" x="633" y="-158.5" font-family="Ubuntu" font-size="10.00">COMMAND_RESULT_ACCEPTED</text>
<polygon fill="#b2df8a" stroke="transparent" points="858,-153.5 858,-168.5 869,-168.5 869,-153.5 858,-153.5"/>
<text text-anchor="start" x="860" y="-158.5" font-family="Ubuntu" font-size="10.00">1</text>
<polygon fill="#b2df8a" stroke="transparent" points="631,-138.5 631,-153.5 858,-153.5 858,-138.5 631,-138.5"/>
<text text-anchor="start" x="633" y="-143.5" font-family="Ubuntu" font-size="10.00">COMMAND_RESULT_TEMPORARILY_REJECTED</text>
<polygon fill="#b2df8a" stroke="transparent" points="858,-138.5 858,-153.5 869,-153.5 869,-138.5 858,-138.5"/>
<text text-anchor="start" x="860" y="-143.5" font-family="Ubuntu" font-size="10.00">2</text>
<polygon fill="#b2df8a" stroke="transparent" points="631,-123.5 631,-138.5 858,-138.5 858,-123.5 631,-123.5"/>
<text text-anchor="start" x="633" y="-128.5" font-family="Ubuntu" font-size="10.00">COMMAND_RESULT_DENIED</text>
<polygon fill="#b2df8a" stroke="transparent" points="858,-123.5 858,-138.5 869,-138.5 869,-123.5 858,-123.5"/>
<text text-anchor="start" x="860" y="-128.5" font-family="Ubuntu" font-size="10.00">3</text>
<polygon fill="#b2df8a" stroke="transparent" points="631,-108.5 631,-123.5 858,-123.5 858,-108.5 631,-108.5"/>
<text text-anchor="start" x="633" y="-113.5" font-family="Ubuntu" font-size="10.00">COMMAND_RESULT_UNSUPPORTED</text>
<polygon fill="#b2df8a" stroke="transparent" points="858,-108.5 858,-123.5 869,-123.5 869,-108.5 858,-108.5"/>
<text text-anchor="start" x="860" y="-113.5" font-family="Ubuntu" font-size="10.00">4</text>
<polygon fill="#b2df8a" stroke="transparent" points="631,-93.5 631,-108.5 858,-108.5 858,-93.5 631,-93.5"/>
<text text-anchor="start" x="633" y="-98.5" font-family="Ubuntu" font-size="10.00">COMMAND_RESULT_FAILED</text>
<polygon fill="#b2df8a" stroke="transparent" points="858,-93.5 858,-108.5 869,-108.5 869,-93.5 858,-93.5"/>
<text text-anchor="start" x="860" y="-98.5" font-family="Ubuntu" font-size="10.00">5</text>
<polygon fill="#b2df8a" stroke="transparent" points="631,-78.5 631,-93.5 858,-93.5 858,-78.5 631,-78.5"/>
<text text-anchor="start" x="633" y="-83.5" font-family="Ubuntu" font-size="10.00">COMMAND_RESULT_IN_PROGRESS</text>
<polygon fill="#b2df8a" stroke="transparent" points="858,-78.5 858,-93.5 869,-93.5 869,-78.5 858,-78.5"/>
<text text-anchor="start" x="860" y="-83.5" font-family="Ubuntu" font-size="10.00">6</text>
<polygon fill="#b2df8a" stroke="transparent" points="631,-63.5 631,-78.5 858,-78.5 858,-63.5 631,-63.5"/>
<text text-anchor="start" x="633" y="-68.5" font-family="Ubuntu" font-size="10.00">COMMAND_RESULT_CANCELLED</text>
<polygon fill="#b2df8a" stroke="transparent" points="858,-63.5 858,-78.5 869,-78.5 869,-63.5 858,-63.5"/>
<text text-anchor="start" x="860" y="-68.5" font-family="Ubuntu" font-size="10.00">7</text>
<polygon fill="#b2df8a" stroke="transparent" points="631,-48.5 631,-63.5 858,-63.5 858,-48.5 631,-48.5"/>
<text text-anchor="start" x="633" y="-53.5" font-family="Ubuntu" font-size="10.00">COMMAND_RESULT_TIMEOUT</text>
<polygon fill="#b2df8a" stroke="transparent" points="858,-48.5 858,-63.5 869,-63.5 869,-48.5 858,-48.5"/>
<text text-anchor="start" x="860" y="-53.5" font-family="Ubuntu" font-size="10.00">8</text>
<polygon fill="#b2df8a" stroke="transparent" points="631,-33.5 631,-48.5 858,-48.5 858,-33.5 631,-33.5"/>
<text text-anchor="start" x="633" y="-38.5" font-family="Ubuntu" font-size="10.00">COMMAND_RESULT_NOT_OBSERVABLE</text>
<polygon fill="#b2df8a" stroke="transparent" points="858,-33.5 858,-48.5 869,-48.5 869,-33.5 858,-33.5"/>
<text text-anchor="start" x="860" y="-38.5" font-family="Ubuntu" font-size="10.00">9</text>
<polygon fill="none" stroke="black" points="630,-33 630,-200 870,-200 870,-33 630,-33"/>
</a>
</g>
</g>
<!-- Node_Ja_114&#45;&gt;Node_Ja_102 -->
<g id="edge11" class="edge">
<title>Node_Ja_114:e&#45;&gt;Node_Ja_102</title>
<g id="a_edge11"><a xlink:title="Ja_114 &#45;&#45;&gt; Ja_102">
<path fill="none" stroke="#008000" d="M563,-146.5C578.85,-146.5 595.36,-145.43 611.71,-143.68"/>
<polygon fill="#008000" stroke="#008000" points="612.33,-147.14 621.87,-142.52 611.53,-140.18 612.33,-147.14"/>
</a>
</g>
</g>
<!-- Node_Ja_104&#45;&gt;Node_Ja_107 -->
<g id="edge18" class="edge">
<title>Node_Ja_104:e&#45;&gt;Node_Ja_107:header</title>
<g id="a_edge18"><a xlink:title="Ja_104 &#45;&#45;&gt; Ja_107">
<path fill="none" stroke="#000000" d="M837,-541.5C924.16,-541.5 838.73,-712.56 911.74,-726.59"/>
<polygon fill="#000000" stroke="#000000" points="911.73,-730.1 922,-727.5 912.35,-723.13 911.73,-730.1"/>
</a>
</g>
</g>
<!-- Node_Ja_104&#45;&gt;Node_Ja_110 -->
<g id="edge15" class="edge">
<title>Node_Ja_104:e&#45;&gt;Node_Ja_110:header</title>
<g id="a_edge15"><a xlink:title="Ja_104 &#45;&#45;&gt; Ja_110">
<path fill="none" stroke="#000000" d="M837,-495.5C894.24,-495.5 907.7,-467.14 959.8,-463.82"/>
<polygon fill="#000000" stroke="#000000" points="960.11,-467.31 970,-463.5 959.9,-460.31 960.11,-467.31"/>
</a>
</g>
</g>
<!-- Node_Ja_104&#45;&gt;Node_Ja_106 -->
<g id="edge17" class="edge">
<title>Node_Ja_104:e&#45;&gt;Node_Ja_106:header</title>
<g id="a_edge17"><a xlink:title="Ja_104 &#45;&#45;&gt; Ja_106">
<path fill="none" stroke="#000000" d="M837,-556.5C961.96,-556.5 810.46,-815.2 919.77,-829.85"/>
<polygon fill="#000000" stroke="#000000" points="919.8,-833.36 930,-830.5 920.24,-826.38 919.8,-833.36"/>
</a>
</g>
</g>
<!-- Node_Ja_104&#45;&gt;Node_Ja_109 -->
<g id="edge14" class="edge">
<title>Node_Ja_104:e&#45;&gt;Node_Ja_109:header</title>
<g id="a_edge14"><a xlink:title="Ja_104 &#45;&#45;&gt; Ja_109">
<path fill="none" stroke="#000000" d="M837,-510.5C885.14,-510.5 940.17,-510.5 978.39,-510.5"/>
<polygon fill="#000000" stroke="#000000" points="978.7,-514 988.7,-510.5 978.7,-507 978.7,-514"/>
</a>
</g>
</g>
<!-- Node_Ja_104&#45;&gt;Node_Ja_111 -->
<g id="edge5" class="edge">
<title>Node_Ja_104:e&#45;&gt;Node_Ja_111:header</title>
<g id="a_edge5"><a xlink:title="Ja_104 &#45;&#45;&gt; Ja_111">
<path fill="none" stroke="#000000" d="M837,-480.5C896.55,-480.5 894.36,-412.87 946.92,-405.2"/>
<polygon fill="#000000" stroke="#000000" points="947.27,-408.69 957,-404.5 946.78,-401.7 947.27,-408.69"/>
</a>
</g>
</g>
<!-- Node_Ja_108 -->
<g id="node12" class="node">
<title>Node_Ja_108</title>
<g id="a_node12"><a xlink:title=".Delay">
<polygon fill="#fffaf0" stroke="transparent" points="971.5,-551.5 971.5,-583.5 1082.5,-583.5 1082.5,-551.5 971.5,-551.5"/>
<polygon fill="#e31a1c" stroke="transparent" points="973,-567.5 973,-582.5 1082,-582.5 1082,-567.5 973,-567.5"/>
<text text-anchor="start" x="1047" y="-573.5" font-family="Ubuntu" font-weight="bold" font-size="10.00">Delay</text>
<text text-anchor="start" x="979" y="-557.5" font-family="Ubuntu" font-size="10.00">1</text>
<text text-anchor="start" x="990" y="-557.5" font-family="Ubuntu" font-size="10.00">duration_s</text>
<polygon fill="#a6cee3" stroke="transparent" points="1044,-552.5 1044,-567.5 1082,-567.5 1082,-552.5 1044,-552.5"/>
<text text-anchor="start" x="1046" y="-558.5" font-family="Ubuntu" font-style="italic" font-size="10.00">double</text>
<polygon fill="none" stroke="black" points="971.5,-551.5 971.5,-583.5 1082.5,-583.5 1082.5,-551.5 971.5,-551.5"/>
</a>
</g>
</g>
<!-- Node_Ja_104&#45;&gt;Node_Ja_108 -->
<g id="edge13" class="edge">
<title>Node_Ja_104:e&#45;&gt;Node_Ja_108:header</title>
<g id="a_edge13"><a xlink:title="Ja_104 &#45;&#45;&gt; Ja_108">
<path fill="none" stroke="#000000" d="M837,-525.5C897.48,-525.5 907.08,-570.18 962,-575.07"/>
<polygon fill="#000000" stroke="#000000" points="961.86,-578.57 972,-575.5 962.16,-571.57 961.86,-578.57"/>
</a>
</g>
</g>
<!-- Node_Ja_112&#45;&gt;Node_Ja_102 -->
<g id="edge16" class="edge">
<title>Node_Ja_112:e&#45;&gt;Node_Ja_102</title>
<g id="a_edge16"><a xlink:title="Ja_112 &#45;&#45;&gt; Ja_102">
<path fill="none" stroke="#008000" d="M563,-404.5C649.58,-404.5 565.18,-288 614,-216.5 614.99,-215.05 616.01,-213.61 617.05,-212.19"/>
<polygon fill="#008000" stroke="#008000" points="619.91,-214.22 623.3,-204.19 614.39,-209.91 619.91,-214.22"/>
</a>
</g>
</g>
<!-- Node_Ja_116&#45;&gt;Node_Ja_102 -->
<g id="edge1" class="edge">
<title>Node_Ja_116:e&#45;&gt;Node_Ja_102</title>
<g id="a_edge1"><a xlink:title="Ja_116 &#45;&#45;&gt; Ja_102">
<path fill="none" stroke="#008000" d="M563,-57.5C579.06,-57.5 595.55,-59.52 611.76,-62.82"/>
<polygon fill="#008000" stroke="#008000" points="611.3,-66.3 621.82,-65.03 612.8,-59.47 611.3,-66.3"/>
</a>
</g>
</g>
</g>
</svg>
