<?xml version="1.0" encoding="UTF-8" standalone="no"?>
<!DOCTYPE svg PUBLIC "-//W3C//DTD SVG 1.1//EN"
 "http://www.w3.org/Graphics/SVG/1.1/DTD/svg11.dtd">
<!-- Generated by graphviz version 2.43.0 (0)
 -->
<!-- Title: protodot Pages: 1 -->
<svg width="932pt" height="389pt"
 viewBox="0.00 0.00 932.00 389.00" xmlns="http://www.w3.org/2000/svg" xmlns:xlink="http://www.w3.org/1999/xlink">
<g id="graph0" class="graph" transform="scale(1 1) rotate(0) translate(4 385)">
<title>protodot</title>
<g id="clust1" class="cluster">
<title>cluster_da39a3ee5e6b</title>
<polygon fill="#caff70" stroke="black" points="644,-8 644,-200 916,-200 916,-8 644,-8"/>
</g>
<g id="clust2" class="cluster">
<title>cluster_d527937d7e0f</title>
<g id="a_clust2"><a xlink:title="VehicleCommon.proto">
<polygon fill="#caff70" stroke="black" points="56,-267 56,-362 229,-362 229,-267 56,-267"/>
<text text-anchor="middle" x="142.5" y="-346.8" font-family="Times,serif" font-size="14.00">VehicleCommon.proto</text>
</a>
</g>
</g>
<g id="clust3" class="cluster">
<title>cluster_fb36aafb54f5</title>
<g id="a_clust3"><a xlink:title="google/protobuf/timestamp.proto">
<polygon fill="#caff70" stroke="black" points="712,-278 712,-373 848,-373 848,-278 712,-278"/>
<text text-anchor="middle" x="780" y="-357.8" font-family="Times,serif" font-size="14.00">timestamp.proto</text>
</a>
</g>
</g>
<!-- Node_Ja_101 -->
<g id="node1" class="node">
<title>Node_Ja_101</title>
<g id="a_node1"><a xlink:title="CommandResult">
<polygon fill="#b2df8a" stroke="transparent" points="660,-20.5 660,-187.5 900,-187.5 900,-20.5 660,-20.5"/>
<polygon fill="#33a02c" stroke="transparent" points="661,-171 661,-186 899,-186 899,-171 661,-171"/>
<text text-anchor="start" x="774" y="-177" font-family="Ubuntu" font-size="10.00">enum </text>
<text text-anchor="start" x="805" y="-177" font-family="Ubuntu" font-weight="bold" font-size="10.00">CommandResult</text>
<polygon fill="#b2df8a" stroke="transparent" points="661,-156 661,-171 888,-171 888,-156 661,-156"/>
<text text-anchor="start" x="663" y="-161" font-family="Ubuntu" font-size="10.00">COMMAND_RESULT_UNSPECIFIED</text>
<polygon fill="#b2df8a" stroke="transparent" points="888,-156 888,-171 899,-171 899,-156 888,-156"/>
<text text-anchor="start" x="890" y="-161" font-family="Ubuntu" font-size="10.00">0</text>
<polygon fill="#b2df8a" stroke="transparent" points="661,-141 661,-156 888,-156 888,-141 661,-141"/>
<text text-anchor="start" x="663" y="-146" font-family="Ubuntu" font-size="10.00">COMMAND_RESULT_ACCEPTED</text>
<polygon fill="#b2df8a" stroke="transparent" points="888,-141 888,-156 899,-156 899,-141 888,-141"/>
<text text-anchor="start" x="890" y="-146" font-family="Ubuntu" font-size="10.00">1</text>
<polygon fill="#b2df8a" stroke="transparent" points="661,-126 661,-141 888,-141 888,-126 661,-126"/>
<text text-anchor="start" x="663" y="-131" font-family="Ubuntu" font-size="10.00">COMMAND_RESULT_TEMPORARILY_REJECTED</text>
<polygon fill="#b2df8a" stroke="transparent" points="888,-126 888,-141 899,-141 899,-126 888,-126"/>
<text text-anchor="start" x="890" y="-131" font-family="Ubuntu" font-size="10.00">2</text>
<polygon fill="#b2df8a" stroke="transparent" points="661,-111 661,-126 888,-126 888,-111 661,-111"/>
<text text-anchor="start" x="663" y="-116" font-family="Ubuntu" font-size="10.00">COMMAND_RESULT_DENIED</text>
<polygon fill="#b2df8a" stroke="transparent" points="888,-111 888,-126 899,-126 899,-111 888,-111"/>
<text text-anchor="start" x="890" y="-116" font-family="Ubuntu" font-size="10.00">3</text>
<polygon fill="#b2df8a" stroke="transparent" points="661,-96 661,-111 888,-111 888,-96 661,-96"/>
<text text-anchor="start" x="663" y="-101" font-family="Ubuntu" font-size="10.00">COMMAND_RESULT_UNSUPPORTED</text>
<polygon fill="#b2df8a" stroke="transparent" points="888,-96 888,-111 899,-111 899,-96 888,-96"/>
<text text-anchor="start" x="890" y="-101" font-family="Ubuntu" font-size="10.00">4</text>
<polygon fill="#b2df8a" stroke="transparent" points="661,-81 661,-96 888,-96 888,-81 661,-81"/>
<text text-anchor="start" x="663" y="-86" font-family="Ubuntu" font-size="10.00">COMMAND_RESULT_FAILED</text>
<polygon fill="#b2df8a" stroke="transparent" points="888,-81 888,-96 899,-96 899,-81 888,-81"/>
<text text-anchor="start" x="890" y="-86" font-family="Ubuntu" font-size="10.00">5</text>
<polygon fill="#b2df8a" stroke="transparent" points="661,-66 661,-81 888,-81 888,-66 661,-66"/>
<text text-anchor="start" x="663" y="-71" font-family="Ubuntu" font-size="10.00">COMMAND_RESULT_IN_PROGRESS</text>
<polygon fill="#b2df8a" stroke="transparent" points="888,-66 888,-81 899,-81 899,-66 888,-66"/>
<text text-anchor="start" x="890" y="-71" font-family="Ubuntu" font-size="10.00">6</text>
<polygon fill="#b2df8a" stroke="transparent" points="661,-51 661,-66 888,-66 888,-51 661,-51"/>
<text text-anchor="start" x="663" y="-56" font-family="Ubuntu" font-size="10.00">COMMAND_RESULT_CANCELLED</text>
<polygon fill="#b2df8a" stroke="transparent" points="888,-51 888,-66 899,-66 899,-51 888,-51"/>
<text text-anchor="start" x="890" y="-56" font-family="Ubuntu" font-size="10.00">7</text>
<polygon fill="#b2df8a" stroke="transparent" points="661,-36 661,-51 888,-51 888,-36 661,-36"/>
<text text-anchor="start" x="663" y="-41" font-family="Ubuntu" font-size="10.00">COMMAND_RESULT_TIMEOUT</text>
<polygon fill="#b2df8a" stroke="transparent" points="888,-36 888,-51 899,-51 899,-36 888,-36"/>
<text text-anchor="start" x="890" y="-41" font-family="Ubuntu" font-size="10.00">8</text>
<polygon fill="#b2df8a" stroke="transparent" points="661,-21 661,-36 888,-36 888,-21 661,-21"/>
<text text-anchor="start" x="663" y="-26" font-family="Ubuntu" font-size="10.00">COMMAND_RESULT_NOT_OBSERVABLE</text>
<polygon fill="#b2df8a" stroke="transparent" points="888,-21 888,-36 899,-36 899,-21 888,-21"/>
<text text-anchor="start" x="890" y="-26" font-family="Ubuntu" font-size="10.00">9</text>
<polygon fill="none" stroke="black" points="660,-20.5 660,-187.5 900,-187.5 900,-20.5 660,-20.5"/>
</a>
</g>
</g>
<!-- Node_Ja_102 -->
<g id="node2" class="node">
<title>Node_Ja_102</title>
<g id="a_node2"><a xlink:title=".Coordinate">
<polygon fill="#fffaf0" stroke="transparent" points="78,-279.5 78,-326.5 207,-326.5 207,-279.5 78,-279.5"/>
<polygon fill="#e31a1c" stroke="transparent" points="79.5,-310 79.5,-325 206.5,-325 206.5,-310 79.5,-310"/>
<text text-anchor="start" x="141.5" y="-316" font-family="Ubuntu" font-weight="bold" font-size="10.00">Coordinate</text>
<text text-anchor="start" x="85.5" y="-300" font-family="Ubuntu" font-size="10.00">1</text>
<text text-anchor="start" x="96.5" y="-300" font-family="Ubuntu" font-size="10.00">latitude_deg</text>
<polygon fill="#a6cee3" stroke="transparent" points="168.5,-295 168.5,-310 206.5,-310 206.5,-295 168.5,-295"/>
<text text-anchor="start" x="170.5" y="-301" font-family="Ubuntu" font-style="italic" font-size="10.00">double</text>
<text text-anchor="start" x="85.5" y="-285" font-family="Ubuntu" font-size="10.00">2</text>
<text text-anchor="start" x="96.5" y="-285" font-family="Ubuntu" font-size="10.00">longitude_deg</text>
<polygon fill="#a6cee3" stroke="transparent" points="168.5,-280 168.5,-295 206.5,-295 206.5,-280 168.5,-280"/>
<text text-anchor="start" x="170.5" y="-286" font-family="Ubuntu" font-style="italic" font-size="10.00">double</text>
<polygon fill="none" stroke="black" points="78,-279.5 78,-326.5 207,-326.5 207,-279.5 78,-279.5"/>
</a>
</g>
</g>
<!-- Node_Ja_103 -->
<g id="node3" class="node">
<title>Node_Ja_103</title>
<g id="a_node3"><a xlink:title=".NavigationTarget">
<polygon fill="#fffaf0" stroke="transparent" points="329,-256.5 329,-363.5 608,-363.5 608,-256.5 329,-256.5"/>
<polygon fill="#e31a1c" stroke="transparent" points="330.5,-347 330.5,-362 607.5,-362 607.5,-347 330.5,-347"/>
<text text-anchor="start" x="507.5" y="-353" font-family="Ubuntu" font-weight="bold" font-size="10.00">NavigationTarget</text>
<text text-anchor="start" x="336.5" y="-337" font-family="Ubuntu" font-size="10.00">1</text>
<text text-anchor="start" x="347.5" y="-337" font-family="Ubuntu" font-size="10.00">timestamp</text>
<polygon fill="#fb9a99" stroke="transparent" points="444.5,-332 444.5,-347 607.5,-347 607.5,-332 444.5,-332"/>
<text text-anchor="start" x="446.5" y="-338" font-family="Ubuntu" font-weight="bold" font-size="10.00">google.protobuf.Timestamp</text>
<text text-anchor="start" x="336.5" y="-322" font-family="Ubuntu" font-size="10.00">2</text>
<text text-anchor="start" x="347.5" y="-322" font-family="Ubuntu" font-size="10.00">latitude</text>
<polygon fill="#a6cee3" stroke="transparent" points="444.5,-317 444.5,-332 607.5,-332 607.5,-317 444.5,-317"/>
<text text-anchor="start" x="571.5" y="-323" font-family="Ubuntu" font-style="italic" font-size="10.00">double</text>
<text text-anchor="start" x="336.5" y="-307" font-family="Ubuntu" font-size="10.00">3</text>
<text text-anchor="start" x="347.5" y="-307" font-family="Ubuntu" font-size="10.00">longitude</text>
<polygon fill="#a6cee3" stroke="transparent" points="444.5,-302 444.5,-317 607.5,-317 607.5,-302 444.5,-302"/>
<text text-anchor="start" x="571.5" y="-308" font-family="Ubuntu" font-style="italic" font-size="10.00">double</text>
<text text-anchor="start" x="336.5" y="-292" font-family="Ubuntu" font-size="10.00">4</text>
<text text-anchor="start" x="347.5" y="-292" font-family="Ubuntu" font-size="10.00">altitude_msl_m</text>
<polygon fill="#a6cee3" stroke="transparent" points="444.5,-287 444.5,-302 607.5,-302 607.5,-287 444.5,-287"/>
<text text-anchor="start" x="582.5" y="-293" font-family="Ubuntu" font-style="italic" font-size="10.00">float</text>
<text text-anchor="start" x="336.5" y="-277" font-family="Ubuntu" font-size="10.00">5</text>
<text text-anchor="start" x="347.5" y="-277" font-family="Ubuntu" font-size="10.00">ground_speed_mps</text>
<polygon fill="#a6cee3" stroke="transparent" points="444.5,-272 444.5,-287 607.5,-287 607.5,-272 444.5,-272"/>
<text text-anchor="start" x="582.5" y="-278" font-family="Ubuntu" font-style="italic" font-size="10.00">float</text>
<text text-anchor="start" x="336.5" y="-262" font-family="Ubuntu" font-size="10.00">6</text>
<text text-anchor="start" x="347.5" y="-262" font-family="Ubuntu" font-size="10.00">yaw_deg</text>
<polygon fill="#a6cee3" stroke="transparent" points="444.5,-257 444.5,-272 607.5,-272 607.5,-257 444.5,-257"/>
<text text-anchor="start" x="582.5" y="-263" font-family="Ubuntu" font-style="italic" font-size="10.00">float</text>
<polygon fill="none" stroke="black" points="329,-256.5 329,-363.5 608,-363.5 608,-256.5 329,-256.5"/>
</a>
</g>
</g>
<!-- Node_Ja_100 -->
<g id="node8" class="node">
<title>Node_Ja_100</title>
<g id="a_node8"><a xlink:title="google.protobuf.Timestamp">
<polygon fill="#fffaf0" stroke="transparent" points="735,-290.5 735,-337.5 825,-337.5 825,-290.5 735,-290.5"/>
<polygon fill="#e31a1c" stroke="transparent" points="736,-321 736,-336 824,-336 824,-321 736,-321"/>
<text text-anchor="start" x="758" y="-327" font-family="Ubuntu" font-weight="bold" font-size="10.00">Timestamp</text>
<text text-anchor="start" x="742" y="-311" font-family="Ubuntu" font-size="10.00">1</text>
<text text-anchor="start" x="753" y="-311" font-family="Ubuntu" font-size="10.00">seconds</text>
<polygon fill="#a6cee3" stroke="transparent" points="795,-306 795,-321 824,-321 824,-306 795,-306"/>
<text text-anchor="start" x="797" y="-312" font-family="Ubuntu" font-style="italic" font-size="10.00">int64</text>
<text text-anchor="start" x="742" y="-296" font-family="Ubuntu" font-size="10.00">2</text>
<text text-anchor="start" x="753" y="-296" font-family="Ubuntu" font-size="10.00">nanos</text>
<polygon fill="#a6cee3" stroke="transparent" points="795,-291 795,-306 824,-306 824,-291 795,-291"/>
<text text-anchor="start" x="797" y="-297" font-family="Ubuntu" font-style="italic" font-size="10.00">int32</text>
<polygon fill="none" stroke="black" points="735,-290.5 735,-337.5 825,-337.5 825,-290.5 735,-290.5"/>
</a>
</g>
</g>
<!-- Node_Ja_103&#45;&gt;Node_Ja_100 -->
<g id="edge5" class="edge">
<title>Node_Ja_103:e&#45;&gt;Node_Ja_100:header</title>
<g id="a_edge5"><a xlink:title="Ja_103 &#45;&#45;&gt; Ja_100">
<path fill="none" stroke="#000000" d="M608.5,-340C661.41,-340 676.69,-330.33 724.9,-329.12"/>
<polygon fill="#000000" stroke="#000000" points="725.04,-332.62 735,-329 724.96,-325.62 725.04,-332.62"/>
</a>
</g>
</g>
<!-- Node_Ja_105 -->
<g id="node4" class="node">
<title>Node_Ja_105</title>
<g id="a_node4"><a xlink:title=".SetCruiseSpeedRequest">
<polygon fill="#fffaf0" stroke="transparent" points="348.5,-94.5 348.5,-141.5 588.5,-141.5 588.5,-94.5 348.5,-94.5"/>
<polygon fill="#e31a1c" stroke="transparent" points="349.5,-125 349.5,-140 587.5,-140 587.5,-125 349.5,-125"/>
<text text-anchor="start" x="448.5" y="-131" font-family="Ubuntu" font-weight="bold" font-size="10.00">SetCruiseSpeedRequest</text>
<text text-anchor="start" x="355.5" y="-115" font-family="Ubuntu" font-size="10.00">1</text>
<text text-anchor="start" x="366.5" y="-115" font-family="Ubuntu" font-size="10.00">timestamp</text>
<polygon fill="#fb9a99" stroke="transparent" points="424.5,-110 424.5,-125 587.5,-125 587.5,-110 424.5,-110"/>
<text text-anchor="start" x="426.5" y="-116" font-family="Ubuntu" font-weight="bold" font-size="10.00">google.protobuf.Timestamp</text>
<text text-anchor="start" x="355.5" y="-100" font-family="Ubuntu" font-size="10.00">2</text>
<text text-anchor="start" x="366.5" y="-100" font-family="Ubuntu" font-size="10.00">speed_mps</text>
<polygon fill="#a6cee3" stroke="transparent" points="424.5,-95 424.5,-110 587.5,-110 587.5,-95 424.5,-95"/>
<text text-anchor="start" x="562.5" y="-101" font-family="Ubuntu" font-style="italic" font-size="10.00">float</text>
<polygon fill="none" stroke="black" points="348.5,-94.5 348.5,-141.5 588.5,-141.5 588.5,-94.5 348.5,-94.5"/>
</a>
</g>
</g>
<!-- Node_Ja_105&#45;&gt;Node_Ja_100 -->
<g id="edge7" class="edge">
<title>Node_Ja_105:e&#45;&gt;Node_Ja_100:header</title>
<g id="a_edge7"><a xlink:title="Ja_105 &#45;&#45;&gt; Ja_100">
<path fill="none" stroke="#000000" d="M588.5,-117C609.35,-117 604.7,-137.48 616,-155 664.84,-230.74 643.14,-321.77 724.8,-328.59"/>
<polygon fill="#000000" stroke="#000000" points="724.87,-332.1 735,-329 725.15,-325.1 724.87,-332.1"/>
</a>
</g>
</g>
<!-- Node_Ja_104 -->
<g id="node5" class="node">
<title>Node_Ja_104</title>
<g id="a_node5"><a xlink:title=".NavigationTargetResponse">
<polygon fill="#fffaf0" stroke="transparent" points="365,-168 365,-230 572,-230 572,-168 365,-168"/>
<polygon fill="#e31a1c" stroke="transparent" points="366.5,-214 366.5,-229 571.5,-229 571.5,-214 366.5,-214"/>
<text text-anchor="start" x="417.5" y="-220" font-family="Ubuntu" font-weight="bold" font-size="10.00">NavigationTargetResponse</text>
<text text-anchor="start" x="372.5" y="-204" font-family="Ubuntu" font-size="10.00">1</text>
<text text-anchor="start" x="383.5" y="-204" font-family="Ubuntu" font-size="10.00">result</text>
<polygon fill="#b2df8a" stroke="transparent" points="485.5,-199 485.5,-214 571.5,-214 571.5,-199 485.5,-199"/>
<text text-anchor="start" x="487.5" y="-205" font-family="Ubuntu" text-decoration="underline" font-size="10.00">CommandResult</text>
<text text-anchor="start" x="372.5" y="-189" font-family="Ubuntu" font-size="10.00">2</text>
<text text-anchor="start" x="383.5" y="-189" font-family="Ubuntu" font-size="10.00">raw_autopilot_result</text>
<polygon fill="#a6cee3" stroke="transparent" points="485.5,-184 485.5,-199 571.5,-199 571.5,-184 485.5,-184"/>
<text text-anchor="start" x="544.5" y="-190" font-family="Ubuntu" font-style="italic" font-size="10.00">int32</text>
<text text-anchor="start" x="372.5" y="-174" font-family="Ubuntu" font-size="10.00">3</text>
<text text-anchor="start" x="383.5" y="-174" font-family="Ubuntu" font-size="10.00">detail</text>
<polygon fill="#a6cee3" stroke="transparent" points="485.5,-169 485.5,-184 571.5,-184 571.5,-169 485.5,-169"/>
<text text-anchor="start" x="541.5" y="-175" font-family="Ubuntu" font-style="italic" font-size="10.00">string</text>
<polygon fill="none" stroke="black" points="365,-168 365,-230 572,-230 572,-168 365,-168"/>
</a>
</g>
</g>
<!-- Node_Ja_104&#45;&gt;Node_Ja_101 -->
<g id="edge6" class="edge">
<title>Node_Ja_104:e&#45;&gt;Node_Ja_101</title>
<g id="a_edge6"><a xlink:title="Ja_104 &#45;&#45;&gt; Ja_101">
<path fill="none" stroke="#008000" d="M572.5,-207C596.16,-207 619.9,-201.52 642.41,-193.08"/>
<polygon fill="#008000" stroke="#008000" points="643.97,-196.23 651.98,-189.29 641.4,-189.72 643.97,-196.23"/>
</a>
</g>
</g>
<!-- Node_Ja_106 -->
<g id="node6" class="node">
<title>Node_Ja_106</title>
<g id="a_node6"><a xlink:title=".SetCruiseSpeedResponse">
<polygon fill="#fffaf0" stroke="transparent" points="365,-6 365,-68 572,-68 572,-6 365,-6"/>
<polygon fill="#e31a1c" stroke="transparent" points="366.5,-52 366.5,-67 571.5,-67 571.5,-52 366.5,-52"/>
<text text-anchor="start" x="424.5" y="-58" font-family="Ubuntu" font-weight="bold" font-size="10.00">SetCruiseSpeedResponse</text>
<text text-anchor="start" x="372.5" y="-42" font-family="Ubuntu" font-size="10.00">1</text>
<text text-anchor="start" x="383.5" y="-42" font-family="Ubuntu" font-size="10.00">result</text>
<polygon fill="#b2df8a" stroke="transparent" points="485.5,-37 485.5,-52 571.5,-52 571.5,-37 485.5,-37"/>
<text text-anchor="start" x="487.5" y="-43" font-family="Ubuntu" text-decoration="underline" font-size="10.00">CommandResult</text>
<text text-anchor="start" x="372.5" y="-27" font-family="Ubuntu" font-size="10.00">2</text>
<text text-anchor="start" x="383.5" y="-27" font-family="Ubuntu" font-size="10.00">raw_autopilot_result</text>
<polygon fill="#a6cee3" stroke="transparent" points="485.5,-22 485.5,-37 571.5,-37 571.5,-22 485.5,-22"/>
<text text-anchor="start" x="544.5" y="-28" font-family="Ubuntu" font-style="italic" font-size="10.00">int32</text>
<text text-anchor="start" x="372.5" y="-12" font-family="Ubuntu" font-size="10.00">3</text>
<text text-anchor="start" x="383.5" y="-12" font-family="Ubuntu" font-size="10.00">detail</text>
<polygon fill="#a6cee3" stroke="transparent" points="485.5,-7 485.5,-22 571.5,-22 571.5,-7 485.5,-7"/>
<text text-anchor="start" x="541.5" y="-13" font-family="Ubuntu" font-style="italic" font-size="10.00">string</text>
<polygon fill="none" stroke="black" points="365,-6 365,-68 572,-68 572,-6 365,-6"/>
</a>
</g>
</g>
<!-- Node_Ja_106&#45;&gt;Node_Ja_101 -->
<g id="edge8" class="edge">
<title>Node_Ja_106:e&#45;&gt;Node_Ja_101</title>
<g id="a_edge8"><a xlink:title="Ja_106 &#45;&#45;&gt; Ja_101">
<path fill="none" stroke="#008000" d="M572.5,-45C595.42,-45 619.24,-48.4 642.2,-53.57"/>
<polygon fill="#008000" stroke="#008000" points="641.45,-56.99 651.99,-55.89 643.06,-50.18 641.45,-56.99"/>
</a>
</g>
</g>
<!-- Node_Ja_107 -->
<g id="node7" class="node">
<title>Node_Ja_107</title>
<g id="a_node7"><a xlink:title="VehicleNavigation">
<polygon fill="#ffd700" stroke="transparent" points="8,-132.5 8,-209.5 277,-209.5 277,-132.5 8,-132.5"/>
<polygon fill="#ff7f50" stroke="transparent" points="9.5,-193 9.5,-208 276.5,-208 276.5,-193 9.5,-193"/>
<text text-anchor="start" x="171.5" y="-199" font-family="Ubuntu" font-weight="bold" font-size="10.00">VehicleNavigation</text>
<text text-anchor="start" x="11.5" y="-184" font-family="Ubuntu" font-weight="bold" font-size="10.00">set_navigation_target</text>
<text text-anchor="start" x="190.5" y="-183" font-family="Ubuntu" font-size="10.00">NavigationTarget</text>
<polygon fill="#ff7f50" stroke="transparent" points="137.5,-163 137.5,-178 141.5,-178 141.5,-163 137.5,-163"/>
<polygon fill="#ff7f50" stroke="transparent" points="141.5,-163 141.5,-178 276.5,-178 276.5,-163 141.5,-163"/>
<text text-anchor="start" x="143.5" y="-168" font-family="Ubuntu" font-size="10.00">NavigationTargetResponse</text>
<text text-anchor="start" x="11.5" y="-154" font-family="Ubuntu" font-weight="bold" font-size="10.00">set_cruise_speed</text>
<text text-anchor="start" x="157.5" y="-153" font-family="Ubuntu" font-size="10.00">SetCruiseSpeedRequest</text>
<polygon fill="#ff7f50" stroke="transparent" points="137.5,-133 137.5,-148 141.5,-148 141.5,-133 137.5,-133"/>
<polygon fill="#ff7f50" stroke="transparent" points="141.5,-133 141.5,-148 276.5,-148 276.5,-133 141.5,-133"/>
<text text-anchor="start" x="150.5" y="-138" font-family="Ubuntu" font-size="10.00">SetCruiseSpeedResponse</text>
<polygon fill="none" stroke="black" points="8,-132.5 8,-209.5 277,-209.5 277,-132.5 8,-132.5"/>
</a>
</g>
</g>
<!-- Node_Ja_107&#45;&gt;Node_Ja_103 -->
<g id="edge1" class="edge">
<title>Node_Ja_107:e&#45;&gt;Node_Ja_103:header</title>
<g id="a_edge1"><a xlink:title="Ja_107 &#45;&#45;&gt; Ja_103">
<path fill="none" stroke="#000000" d="M277.5,-186C352.25,-186 260.75,-338.9 319.26,-353.83"/>
<polygon fill="#000000" stroke="#000000" points="319.17,-357.34 329.5,-355 319.96,-350.39 319.17,-357.34"/>
</a>
</g>
</g>
<!-- Node_Ja_107&#45;&gt;Node_Ja_105 -->
<g id="edge3" class="edge">
<title>Node_Ja_107:e&#45;&gt;Node_Ja_105:header</title>
<g id="a_edge3"><a xlink:title="Ja_107 &#45;&#45;&gt; Ja_105">
<path fill="none" stroke="#000000" d="M277.5,-155C306.79,-155 313.99,-137.7 338.27,-133.78"/>
<polygon fill="#000000" stroke="#000000" points="338.8,-137.25 348.5,-133 338.26,-130.27 338.8,-137.25"/>
</a>
</g>
</g>
<!-- Node_Ja_107&#45;&gt;Node_Ja_104 -->
<g id="edge2" class="edge">
<title>Node_Ja_107:e&#45;&gt;Node_Ja_104:header</title>
<g id="a_edge2"><a xlink:title="Ja_107 &#45;&#45;&gt; Ja_104">
<path fill="none" stroke="#000000" d="M277.5,-170C319.2,-170 320.21,-213.82 355.24,-221.01"/>
<polygon fill="#000000" stroke="#000000" points="355.21,-224.52 365.5,-222 355.88,-217.55 355.21,-224.52"/>
</a>
</g>
</g>
<!-- Node_Ja_107&#45;&gt;Node_Ja_106 -->
<g id="edge4" class="edge">
<title>Node_Ja_107:e&#45;&gt;Node_Ja_106:header</title>
<g id="a_edge4"><a xlink:title="Ja_107 &#45;&#45;&gt; Ja_106">
<path fill="none" stroke="#000000" d="M277.5,-140C309.72,-140 296.21,-102.59 321,-82 335.05,-70.32 341.22,-62.9 355.45,-60.69"/>
<polygon fill="#000000" stroke="#000000" points="355.76,-64.18 365.5,-60 355.28,-57.2 355.76,-64.18"/>
</a>
</g>
</g>
</g>
</svg>
