<?xml version="1.0" encoding="UTF-8" standalone="no"?>
<!DOCTYPE svg PUBLIC "-//W3C//DTD SVG 1.1//EN"
 "http://www.w3.org/Graphics/SVG/1.1/DTD/svg11.dtd">
<!-- Generated by graphviz version 2.43.0 (0)
 -->
<!-- Title: protodot Pages: 1 -->
<svg width="854pt" height="476pt"
 viewBox="0.00 0.00 854.00 475.50" xmlns="http://www.w3.org/2000/svg" xmlns:xlink="http://www.w3.org/1999/xlink">
<g id="graph0" class="graph" transform="scale(1 1) rotate(0) translate(4 471.5)">
<title>protodot</title>
<g id="clust1" class="cluster">
<title>cluster_da39a3ee5e6b</title>
<polygon fill="#caff70" stroke="black" points="566,-38 566,-230 838,-230 838,-38 566,-38"/>
</g>
<g id="clust2" class="cluster">
<title>cluster_d527937d7e0f</title>
<g id="a_clust2"><a xlink:title="VehicleCommon.proto">
<polygon fill="#caff70" stroke="black" points="37.5,-339 37.5,-434 210.5,-434 210.5,-339 37.5,-339"/>
<text text-anchor="middle" x="124" y="-418.8" font-family="Times,serif" font-size="14.00">VehicleCommon.proto</text>
</a>
</g>
</g>
<g id="clust3" class="cluster">
<title>cluster_fb36aafb54f5</title>
<g id="a_clust3"><a xlink:title="google/protobuf/timestamp.proto">
<polygon fill="#caff70" stroke="black" points="634,-238 634,-333 770,-333 770,-238 634,-238"/>
<text text-anchor="middle" x="702" y="-317.8" font-family="Times,serif" font-size="14.00">timestamp.proto</text>
</a>
</g>
</g>
<!-- Node_Ja_101 -->
<g id="node1" class="node">
<title>Node_Ja_101</title>
<g id="a_node1"><a xlink:title="CommandResult">
<polygon fill="#b2df8a" stroke="transparent" points="582,-50.5 582,-217.5 822,-217.5 822,-50.5 582,-50.5"/>
<polygon fill="#33a02c" stroke="transparent" points="583,-201 583,-216 821,-216 821,-201 583,-201"/>
<text text-anchor="start" x="696" y="-207" font-family="Ubuntu" font-size="10.00">enum </text>
<text text-anchor="start" x="727" y="-207" font-family="Ubuntu" font-weight="bold" font-size="10.00">CommandResult</text>
<polygon fill="#b2df8a" stroke="transparent" points="583,-186 583,-201 810,-201 810,-186 583,-186"/>
<text text-anchor="start" x="585" y="-191" font-family="Ubuntu" font-size="10.00">COMMAND_RESULT_UNSPECIFIED</text>
<polygon fill="#b2df8a" stroke="transparent" points="810,-186 810,-201 821,-201 821,-186 810,-186"/>
<text text-anchor="start" x="812" y="-191" font-family="Ubuntu" font-size="10.00">0</text>
<polygon fill="#b2df8a" stroke="transparent" points="583,-171 583,-186 810,-186 810,-171 583,-171"/>
<text text-anchor="start" x="585" y="-176" font-family="Ubuntu" font-size="10.00">COMMAND_RESULT_ACCEPTED</text>
<polygon fill="#b2df8a" stroke="transparent" points="810,-171 810,-186 821,-186 821,-171 810,-171"/>
<text text-anchor="start" x="812" y="-176" font-family="Ubuntu" font-size="10.00">1</text>
<polygon fill="#b2df8a" stroke="transparent" points="583,-156 583,-171 810,-171 810,-156 583,-156"/>
<text text-anchor="start" x="585" y="-161" font-family="Ubuntu" font-size="10.00">COMMAND_RESULT_TEMPORARILY_REJECTED</text>
<polygon fill="#b2df8a" stroke="transparent" points="810,-156 810,-171 821,-171 821,-156 810,-156"/>
<text text-anchor="start" x="812" y="-161" font-family="Ubuntu" font-size="10.00">2</text>
<polygon fill="#b2df8a" stroke="transparent" points="583,-141 583,-156 810,-156 810,-141 583,-141"/>
<text text-anchor="start" x="585" y="-146" font-family="Ubuntu" font-size="10.00">COMMAND_RESULT_DENIED</text>
<polygon fill="#b2df8a" stroke="transparent" points="810,-141 810,-156 821,-156 821,-141 810,-141"/>
<text text-anchor="start" x="812" y="-146" font-family="Ubuntu" font-size="10.00">3</text>
<polygon fill="#b2df8a" stroke="transparent" points="583,-126 583,-141 810,-141 810,-126 583,-126"/>
<text text-anchor="start" x="585" y="-131" font-family="Ubuntu" font-size="10.00">COMMAND_RESULT_UNSUPPORTED</text>
<polygon fill="#b2df8a" stroke="transparent" points="810,-126 810,-141 821,-141 821,-126 810,-126"/>
<text text-anchor="start" x="812" y="-131" font-family="Ubuntu" font-size="10.00">4</text>
<polygon fill="#b2df8a" stroke="transparent" points="583,-111 583,-126 810,-126 810,-111 583,-111"/>
<text text-anchor="start" x="585" y="-116" font-family="Ubuntu" font-size="10.00">COMMAND_RESULT_FAILED</text>
<polygon fill="#b2df8a" stroke="transparent" points="810,-111 810,-126 821,-126 821,-111 810,-111"/>
<text text-anchor="start" x="812" y="-116" font-family="Ubuntu" font-size="10.00">5</text>
<polygon fill="#b2df8a" stroke="transparent" points="583,-96 583,-111 810,-111 810,-96 583,-96"/>
<text text-anchor="start" x="585" y="-101" font-family="Ubuntu" font-size="10.00">COMMAND_RESULT_IN_PROGRESS</text>
<polygon fill="#b2df8a" stroke="transparent" points="810,-96 810,-111 821,-111 821,-96 810,-96"/>
<text text-anchor="start" x="812" y="-101" font-family="Ubuntu" font-size="10.00">6</text>
<polygon fill="#b2df8a" stroke="transparent" points="583,-81 583,-96 810,-96 810,-81 583,-81"/>
<text text-anchor="start" x="585" y="-86" font-family="Ubuntu" font-size="10.00">COMMAND_RESULT_CANCELLED</text>
<polygon fill="#b2df8a" stroke="transparent" points="810,-81 810,-96 821,-96 821,-81 810,-81"/>
<text text-anchor="start" x="812" y="-86" font-family="Ubuntu" font-size="10.00">7</text>
<polygon fill="#b2df8a" stroke="transparent" points="583,-66 583,-81 810,-81 810,-66 583,-66"/>
<text text-anchor="start" x="585" y="-71" font-family="Ubuntu" font-size="10.00">COMMAND_RESULT_TIMEOUT</text>
<polygon fill="#b2df8a" stroke="transparent" points="810,-66 810,-81 821,-81 821,-66 810,-66"/>
<text text-anchor="start" x="812" y="-71" font-family="Ubuntu" font-size="10.00">8</text>
<polygon fill="#b2df8a" stroke="transparent" points="583,-51 583,-66 810,-66 810,-51 583,-51"/>
<text text-anchor="start" x="585" y="-56" font-family="Ubuntu" font-size="10.00">COMMAND_RESULT_NOT_OBSERVABLE</text>
<polygon fill="#b2df8a" stroke="transparent" points="810,-51 810,-66 821,-66 821,-51 810,-51"/>
<text text-anchor="start" x="812" y="-56" font-family="Ubuntu" font-size="10.00">9</text>
<polygon fill="none" stroke="black" points="582,-50.5 582,-217.5 822,-217.5 822,-50.5 582,-50.5"/>
</a>
</g>
</g>
<!-- Node_Ja_104 -->
<g id="node2" class="node">
<title>Node_Ja_104</title>
<g id="a_node2"><a xlink:title=".ArmResponse">
<polygon fill="#fffaf0" stroke="transparent" points="307.5,-328 307.5,-390 514.5,-390 514.5,-328 307.5,-328"/>
<polygon fill="#e31a1c" stroke="transparent" points="309,-374 309,-389 514,-389 514,-374 309,-374"/>
<text text-anchor="start" x="434" y="-380" font-family="Ubuntu" font-weight="bold" font-size="10.00">ArmResponse</text>
<text text-anchor="start" x="315" y="-364" font-family="Ubuntu" font-size="10.00">1</text>
<text text-anchor="start" x="326" y="-364" font-family="Ubuntu" font-size="10.00">result</text>
<polygon fill="#b2df8a" stroke="transparent" points="428,-359 428,-374 514,-374 514,-359 428,-359"/>
<text text-anchor="start" x="430" y="-365" font-family="Ubuntu" text-decoration="underline" font-size="10.00">CommandResult</text>
<text text-anchor="start" x="315" y="-349" font-family="Ubuntu" font-size="10.00">2</text>
<text text-anchor="start" x="326" y="-349" font-family="Ubuntu" font-size="10.00">raw_autopilot_result</text>
<polygon fill="#a6cee3" stroke="transparent" points="428,-344 428,-359 514,-359 514,-344 428,-344"/>
<text text-anchor="start" x="487" y="-350" font-family="Ubuntu" font-style="italic" font-size="10.00">int32</text>
<text text-anchor="start" x="315" y="-334" font-family="Ubuntu" font-size="10.00">3</text>
<text text-anchor="start" x="326" y="-334" font-family="Ubuntu" font-size="10.00">detail</text>
<polygon fill="#a6cee3" stroke="transparent" points="428,-329 428,-344 514,-344 514,-329 428,-329"/>
<text text-anchor="start" x="484" y="-335" font-family="Ubuntu" font-style="italic" font-size="10.00">string</text>
<polygon fill="none" stroke="black" points="307.5,-328 307.5,-390 514.5,-390 514.5,-328 307.5,-328"/>
</a>
</g>
</g>
<!-- Node_Ja_104&#45;&gt;Node_Ja_101 -->
<g id="edge3" class="edge">
<title>Node_Ja_104:e&#45;&gt;Node_Ja_101</title>
<g id="a_edge3"><a xlink:title="Ja_104 &#45;&#45;&gt; Ja_101">
<path fill="none" stroke="#008000" d="M515,-367C540.27,-367 528.75,-338.52 538,-315 551.94,-279.55 543.47,-264.71 566,-234 567.07,-232.54 568.16,-231.1 569.28,-229.67"/>
<polygon fill="#008000" stroke="#008000" points="572.28,-231.54 575.96,-221.61 566.89,-227.08 572.28,-231.54"/>
</a>
</g>
</g>
<!-- Node_Ja_105 -->
<g id="node3" class="node">
<title>Node_Ja_105</title>
<g id="a_node3"><a xlink:title=".SetModeRequest">
<polygon fill="#fffaf0" stroke="transparent" points="292,-254.5 292,-301.5 530,-301.5 530,-254.5 292,-254.5"/>
<polygon fill="#e31a1c" stroke="transparent" points="293,-285 293,-300 529,-300 529,-285 293,-285"/>
<text text-anchor="start" x="431" y="-291" font-family="Ubuntu" font-weight="bold" font-size="10.00">SetModeRequest</text>
<text text-anchor="start" x="299" y="-275" font-family="Ubuntu" font-size="10.00">1</text>
<text text-anchor="start" x="310" y="-275" font-family="Ubuntu" font-size="10.00">timestamp</text>
<polygon fill="#fb9a99" stroke="transparent" points="366,-270 366,-285 529,-285 529,-270 366,-270"/>
<text text-anchor="start" x="368" y="-276" font-family="Ubuntu" font-weight="bold" font-size="10.00">google.protobuf.Timestamp</text>
<text text-anchor="start" x="299" y="-260" font-family="Ubuntu" font-size="10.00">2</text>
<text text-anchor="start" x="310" y="-260" font-family="Ubuntu" font-size="10.00">mode</text>
<polygon fill="#a6cee3" stroke="transparent" points="366,-255 366,-270 529,-270 529,-255 366,-255"/>
<text text-anchor="start" x="499" y="-261" font-family="Ubuntu" font-style="italic" font-size="10.00">string</text>
<polygon fill="none" stroke="black" points="292,-254.5 292,-301.5 530,-301.5 530,-254.5 292,-254.5"/>
</a>
</g>
</g>
<!-- Node_Ja_100 -->
<g id="node10" class="node">
<title>Node_Ja_100</title>
<g id="a_node10"><a xlink:title="google.protobuf.Timestamp">
<polygon fill="#fffaf0" stroke="transparent" points="657,-250.5 657,-297.5 747,-297.5 747,-250.5 657,-250.5"/>
<polygon fill="#e31a1c" stroke="transparent" points="658,-281 658,-296 746,-296 746,-281 658,-281"/>
<text text-anchor="start" x="680" y="-287" font-family="Ubuntu" font-weight="bold" font-size="10.00">Timestamp</text>
<text text-anchor="start" x="664" y="-271" font-family="Ubuntu" font-size="10.00">1</text>
<text text-anchor="start" x="675" y="-271" font-family="Ubuntu" font-size="10.00">seconds</text>
<polygon fill="#a6cee3" stroke="transparent" points="717,-266 717,-281 746,-281 746,-266 717,-266"/>
<text text-anchor="start" x="719" y="-272" font-family="Ubuntu" font-style="italic" font-size="10.00">int64</text>
<text text-anchor="start" x="664" y="-256" font-family="Ubuntu" font-size="10.00">2</text>
<text text-anchor="start" x="675" y="-256" font-family="Ubuntu" font-size="10.00">nanos</text>
<polygon fill="#a6cee3" stroke="transparent" points="717,-251 717,-266 746,-266 746,-251 717,-251"/>
<text text-anchor="start" x="719" y="-257" font-family="Ubuntu" font-style="italic" font-size="10.00">int32</text>
<polygon fill="none" stroke="black" points="657,-250.5 657,-297.5 747,-297.5 747,-250.5 657,-250.5"/>
</a>
</g>
</g>
<!-- Node_Ja_105&#45;&gt;Node_Ja_100 -->
<g id="edge4" class="edge">
<title>Node_Ja_105:e&#45;&gt;Node_Ja_100:header</title>
<g id="a_edge4"><a xlink:title="Ja_105 &#45;&#45;&gt; Ja_100">
<path fill="none" stroke="#000000" d="M530,-277C583.15,-277 598.43,-287.55 646.85,-288.87"/>
<polygon fill="#000000" stroke="#000000" points="646.95,-292.37 657,-289 647.05,-285.37 646.95,-292.37"/>
</a>
</g>
</g>
<!-- Node_Ja_107 -->
<g id="node4" class="node">
<title>Node_Ja_107</title>
<g id="a_node4"><a xlink:title=".EmergencyStopRequest">
<polygon fill="#fffaf0" stroke="transparent" points="292,-196 292,-228 530,-228 530,-196 292,-196"/>
<polygon fill="#e31a1c" stroke="transparent" points="293,-212 293,-227 529,-227 529,-212 293,-212"/>
<text text-anchor="start" x="391" y="-218" font-family="Ubuntu" font-weight="bold" font-size="10.00">EmergencyStopRequest</text>
<text text-anchor="start" x="299" y="-202" font-family="Ubuntu" font-size="10.00">1</text>
<text text-anchor="start" x="310" y="-202" font-family="Ubuntu" font-size="10.00">timestamp</text>
<polygon fill="#fb9a99" stroke="transparent" points="366,-197 366,-212 529,-212 529,-197 366,-197"/>
<text text-anchor="start" x="368" y="-203" font-family="Ubuntu" font-weight="bold" font-size="10.00">google.protobuf.Timestamp</text>
<polygon fill="none" stroke="black" points="292,-196 292,-228 530,-228 530,-196 292,-196"/>
</a>
</g>
</g>
<!-- Node_Ja_107&#45;&gt;Node_Ja_100 -->
<g id="edge12" class="edge">
<title>Node_Ja_107:e&#45;&gt;Node_Ja_100:header</title>
<g id="a_edge12"><a xlink:title="Ja_107 &#45;&#45;&gt; Ja_100">
<path fill="none" stroke="#000000" d="M530,-204C550.83,-204 549.04,-221.91 566,-234 601.48,-259.28 608.72,-284.69 646.66,-288.51"/>
<polygon fill="#000000" stroke="#000000" points="646.85,-292.02 657,-289 647.18,-285.03 646.85,-292.02"/>
</a>
</g>
</g>
<!-- Node_Ja_108 -->
<g id="node5" class="node">
<title>Node_Ja_108</title>
<g id="a_node5"><a xlink:title=".EmergencyStopResponse">
<polygon fill="#fffaf0" stroke="transparent" points="307.5,-4 307.5,-66 514.5,-66 514.5,-4 307.5,-4"/>
<polygon fill="#e31a1c" stroke="transparent" points="309,-50 309,-65 514,-65 514,-50 309,-50"/>
<text text-anchor="start" x="368" y="-56" font-family="Ubuntu" font-weight="bold" font-size="10.00">EmergencyStopResponse</text>
<text text-anchor="start" x="315" y="-40" font-family="Ubuntu" font-size="10.00">1</text>
<text text-anchor="start" x="326" y="-40" font-family="Ubuntu" font-size="10.00">result</text>
<polygon fill="#b2df8a" stroke="transparent" points="428,-35 428,-50 514,-50 514,-35 428,-35"/>
<text text-anchor="start" x="430" y="-41" font-family="Ubuntu" text-decoration="underline" font-size="10.00">CommandResult</text>
<text text-anchor="start" x="315" y="-25" font-family="Ubuntu" font-size="10.00">2</text>
<text text-anchor="start" x="326" y="-25" font-family="Ubuntu" font-size="10.00">raw_autopilot_result</text>
<polygon fill="#a6cee3" stroke="transparent" points="428,-20 428,-35 514,-35 514,-20 428,-20"/>
<text text-anchor="start" x="487" y="-26" font-family="Ubuntu" font-style="italic" font-size="10.00">int32</text>
<text text-anchor="start" x="315" y="-10" font-family="Ubuntu" font-size="10.00">3</text>
<text text-anchor="start" x="326" y="-10" font-family="Ubuntu" font-size="10.00">detail</text>
<polygon fill="#a6cee3" stroke="transparent" points="428,-5 428,-20 514,-20 514,-5 428,-5"/>
<text text-anchor="start" x="484" y="-11" font-family="Ubuntu" font-style="italic" font-size="10.00">string</text>
<polygon fill="none" stroke="black" points="307.5,-4 307.5,-66 514.5,-66 514.5,-4 307.5,-4"/>
</a>
</g>
</g>
<!-- Node_Ja_108&#45;&gt;Node_Ja_101 -->
<g id="edge6" class="edge">
<title>Node_Ja_108:e&#45;&gt;Node_Ja_101</title>
<g id="a_edge6"><a xlink:title="Ja_108 &#45;&#45;&gt; Ja_101">
<path fill="none" stroke="#008000" d="M515,-43C531.45,-43 547.96,-45.91 563.98,-50.68"/>
<polygon fill="#008000" stroke="#008000" points="563.3,-54.14 573.89,-53.89 565.46,-47.48 563.3,-54.14"/>
</a>
</g>
</g>
<!-- Node_Ja_109 -->
<g id="node6" class="node">
<title>Node_Ja_109</title>
<g id="a_node6"><a xlink:title="VehicleLifecycle">
<polygon fill="#ffd700" stroke="transparent" points="8,-218.5 8,-325.5 240,-325.5 240,-218.5 8,-218.5"/>
<polygon fill="#ff7f50" stroke="transparent" points="9,-309 9,-324 239,-324 239,-309 9,-309"/>
<text text-anchor="start" x="145" y="-315" font-family="Ubuntu" font-weight="bold" font-size="10.00">VehicleLifecycle</text>
<text text-anchor="start" x="11" y="-300" font-family="Ubuntu" font-weight="bold" font-size="10.00">arm</text>
<text text-anchor="start" x="176" y="-299" font-family="Ubuntu" font-size="10.00">ArmRequest</text>
<polygon fill="#ff7f50" stroke="transparent" points="107,-279 107,-294 111,-294 111,-279 107,-279"/>
<polygon fill="#ff7f50" stroke="transparent" points="111,-279 111,-294 239,-294 239,-279 111,-279"/>
<text text-anchor="start" x="169" y="-284" font-family="Ubuntu" font-size="10.00">ArmResponse</text>
<text text-anchor="start" x="11" y="-270" font-family="Ubuntu" font-weight="bold" font-size="10.00">set_mode</text>
<text text-anchor="start" x="154" y="-269" font-family="Ubuntu" font-size="10.00">SetModeRequest</text>
<polygon fill="#ff7f50" stroke="transparent" points="107,-249 107,-264 111,-264 111,-249 107,-249"/>
<polygon fill="#ff7f50" stroke="transparent" points="111,-249 111,-264 239,-264 239,-249 111,-249"/>
<text text-anchor="start" x="146" y="-254" font-family="Ubuntu" font-size="10.00">SetModeResponse</text>
<text text-anchor="start" x="11" y="-240" font-family="Ubuntu" font-weight="bold" font-size="10.00">emergency_stop</text>
<text text-anchor="start" x="120" y="-239" font-family="Ubuntu" font-size="10.00">EmergencyStopRequest</text>
<polygon fill="#ff7f50" stroke="transparent" points="107,-219 107,-234 111,-234 111,-219 107,-219"/>
<polygon fill="#ff7f50" stroke="transparent" points="111,-219 111,-234 239,-234 239,-219 111,-219"/>
<text text-anchor="start" x="113" y="-224" font-family="Ubuntu" font-size="10.00">EmergencyStopResponse</text>
<polygon fill="none" stroke="black" points="8,-218.5 8,-325.5 240,-325.5 240,-218.5 8,-218.5"/>
</a>
</g>
</g>
<!-- Node_Ja_109&#45;&gt;Node_Ja_104 -->
<g id="edge8" class="edge">
<title>Node_Ja_109:e&#45;&gt;Node_Ja_104:header</title>
<g id="a_edge8"><a xlink:title="Ja_109 &#45;&#45;&gt; Ja_104">
<path fill="none" stroke="#000000" d="M240,-287C288.07,-287 260.91,-368.42 297.82,-380.51"/>
<polygon fill="#000000" stroke="#000000" points="297.6,-384.01 308,-382 298.61,-377.09 297.6,-384.01"/>
</a>
</g>
</g>
<!-- Node_Ja_109&#45;&gt;Node_Ja_105 -->
<g id="edge9" class="edge">
<title>Node_Ja_109:e&#45;&gt;Node_Ja_105:header</title>
<g id="a_edge9"><a xlink:title="Ja_109 &#45;&#45;&gt; Ja_105">
<path fill="none" stroke="#000000" d="M240,-271C261.17,-271 265.77,-286.66 281.76,-291.56"/>
<polygon fill="#000000" stroke="#000000" points="281.61,-295.07 292,-293 282.59,-288.14 281.61,-295.07"/>
</a>
</g>
</g>
<!-- Node_Ja_109&#45;&gt;Node_Ja_107 -->
<g id="edge1" class="edge">
<title>Node_Ja_109:e&#45;&gt;Node_Ja_107:header</title>
<g id="a_edge1"><a xlink:title="Ja_109 &#45;&#45;&gt; Ja_107">
<path fill="none" stroke="#000000" d="M240,-241C261.03,-241 265.85,-226.05 281.81,-221.38"/>
<polygon fill="#000000" stroke="#000000" points="282.56,-224.81 292,-220 281.62,-217.87 282.56,-224.81"/>
</a>
</g>
</g>
<!-- Node_Ja_109&#45;&gt;Node_Ja_108 -->
<g id="edge2" class="edge">
<title>Node_Ja_109:e&#45;&gt;Node_Ja_108:header</title>
<g id="a_edge2"><a xlink:title="Ja_109 &#45;&#45;&gt; Ja_108">
<path fill="none" stroke="#000000" d="M240,-226C316.78,-226 235.8,-73.38 297.78,-59.07"/>
<polygon fill="#000000" stroke="#000000" points="298.42,-62.53 308,-58 297.69,-55.56 298.42,-62.53"/>
</a>
</g>
</g>
<!-- Node_Ja_103 -->
<g id="node7" class="node">
<title>Node_Ja_103</title>
<g id="a_node7"><a xlink:title=".ArmRequest">
<polygon fill="#fffaf0" stroke="transparent" points="292,-416.5 292,-463.5 530,-463.5 530,-416.5 292,-416.5"/>
<polygon fill="#e31a1c" stroke="transparent" points="293,-447 293,-462 529,-462 529,-447 293,-447"/>
<text text-anchor="start" x="457" y="-453" font-family="Ubuntu" font-weight="bold" font-size="10.00">ArmRequest</text>
<text text-anchor="start" x="299" y="-437" font-family="Ubuntu" font-size="10.00">1</text>
<text text-anchor="start" x="310" y="-437" font-family="Ubuntu" font-size="10.00">timestamp</text>
<polygon fill="#fb9a99" stroke="transparent" points="366,-432 366,-447 529,-447 529,-432 366,-432"/>
<text text-anchor="start" x="368" y="-438" font-family="Ubuntu" font-weight="bold" font-size="10.00">google.protobuf.Timestamp</text>
<text text-anchor="start" x="299" y="-422" font-family="Ubuntu" font-size="10.00">2</text>
<text text-anchor="start" x="310" y="-422" font-family="Ubuntu" font-size="10.00">arm</text>
<polygon fill="#a6cee3" stroke="transparent" points="366,-417 366,-432 529,-432 529,-417 366,-417"/>
<text text-anchor="start" x="505" y="-423" font-family="Ubuntu" font-style="italic" font-size="10.00">bool</text>
<polygon fill="none" stroke="black" points="292,-416.5 292,-463.5 530,-463.5 530,-416.5 292,-416.5"/>
</a>
</g>
</g>
<!-- Node_Ja_109&#45;&gt;Node_Ja_103 -->
<g id="edge7" class="edge">
<title>Node_Ja_109:e&#45;&gt;Node_Ja_103:header</title>
<g id="a_edge7"><a xlink:title="Ja_109 &#45;&#45;&gt; Ja_103">
<path fill="none" stroke="#000000" d="M240,-302C308.03,-302 229.39,-439.29 281.95,-453.77"/>
<polygon fill="#000000" stroke="#000000" points="281.65,-457.26 292,-455 282.5,-450.31 281.65,-457.26"/>
</a>
</g>
</g>
<!-- Node_Ja_106 -->
<g id="node8" class="node">
<title>Node_Ja_106</title>
<g id="a_node8"><a xlink:title=".SetModeResponse">
<polygon fill="#fffaf0" stroke="transparent" points="307.5,-92.5 307.5,-169.5 514.5,-169.5 514.5,-92.5 307.5,-92.5"/>
<polygon fill="#e31a1c" stroke="transparent" points="309,-153 309,-168 514,-168 514,-153 309,-153"/>
<text text-anchor="start" x="408" y="-159" font-family="Ubuntu" font-weight="bold" font-size="10.00">SetModeResponse</text>
<text text-anchor="start" x="315" y="-143" font-family="Ubuntu" font-size="10.00">1</text>
<text text-anchor="start" x="326" y="-143" font-family="Ubuntu" font-size="10.00">result</text>
<polygon fill="#b2df8a" stroke="transparent" points="428,-138 428,-153 514,-153 514,-138 428,-138"/>
<text text-anchor="start" x="430" y="-144" font-family="Ubuntu" text-decoration="underline" font-size="10.00">CommandResult</text>
<text text-anchor="start" x="315" y="-128" font-family="Ubuntu" font-size="10.00">2</text>
<text text-anchor="start" x="326" y="-128" font-family="Ubuntu" font-size="10.00">raw_autopilot_result</text>
<polygon fill="#a6cee3" stroke="transparent" points="428,-123 428,-138 514,-138 514,-123 428,-123"/>
<text text-anchor="start" x="487" y="-129" font-family="Ubuntu" font-style="italic" font-size="10.00">int32</text>
<text text-anchor="start" x="315" y="-113" font-family="Ubuntu" font-size="10.00">3</text>
<text text-anchor="start" x="326" y="-113" font-family="Ubuntu" font-size="10.00">detail</text>
<polygon fill="#a6cee3" stroke="transparent" points="428,-108 428,-123 514,-123 514,-108 428,-108"/>
<text text-anchor="start" x="484" y="-114" font-family="Ubuntu" font-style="italic" font-size="10.00">string</text>
<text text-anchor="start" x="315" y="-98" font-family="Ubuntu" font-size="10.00">4</text>
<text text-anchor="start" x="326" y="-98" font-family="Ubuntu" font-size="10.00">mode_actual</text>
<polygon fill="#a6cee3" stroke="transparent" points="428,-93 428,-108 514,-108 514,-93 428,-93"/>
<text text-anchor="start" x="484" y="-99" font-family="Ubuntu" font-style="italic" font-size="10.00">string</text>
<polygon fill="none" stroke="black" points="307.5,-92.5 307.5,-169.5 514.5,-169.5 514.5,-92.5 307.5,-92.5"/>
</a>
</g>
</g>
<!-- Node_Ja_109&#45;&gt;Node_Ja_106 -->
<g id="edge5" class="edge">
<title>Node_Ja_109:e&#45;&gt;Node_Ja_106:header</title>
<g id="a_edge5"><a xlink:title="Ja_109 &#45;&#45;&gt; Ja_106">
<path fill="none" stroke="#000000" d="M240,-256C288.07,-256 260.91,-174.58 297.82,-162.49"/>
<polygon fill="#000000" stroke="#000000" points="298.61,-165.91 308,-161 297.6,-158.99 298.61,-165.91"/>
</a>
</g>
</g>
<!-- Node_Ja_103&#45;&gt;Node_Ja_100 -->
<g id="edge10" class="edge">
<title>Node_Ja_103:e&#45;&gt;Node_Ja_100:header</title>
<g id="a_edge10"><a xlink:title="Ja_103 &#45;&#45;&gt; Ja_100">
<path fill="none" stroke="#000000" d="M530,-439C613.77,-439 573.33,-301.05 646.91,-289.74"/>
<polygon fill="#000000" stroke="#000000" points="647.28,-293.22 657,-289 646.77,-286.24 647.28,-293.22"/>
</a>
</g>
</g>
<!-- Node_Ja_106&#45;&gt;Node_Ja_101 -->
<g id="edge11" class="edge">
<title>Node_Ja_106:e&#45;&gt;Node_Ja_101</title>
<g id="a_edge11"><a xlink:title="Ja_106 &#45;&#45;&gt; Ja_101">
<path fill="none" stroke="#008000" d="M515,-146C530.74,-146 547.22,-145.57 563.58,-144.86"/>
<polygon fill="#008000" stroke="#008000" points="563.92,-148.35 573.75,-144.39 563.6,-141.36 563.92,-148.35"/>
</a>
</g>
</g>
<!-- Node_Ja_102 -->
<g id="node9" class="node">
<title>Node_Ja_102</title>
<g id="a_node9"><a xlink:title=".Coordinate">
<polygon fill="#fffaf0" stroke="transparent" points="59.5,-351.5 59.5,-398.5 188.5,-398.5 188.5,-351.5 59.5,-351.5"/>
<polygon fill="#e31a1c" stroke="transparent" points="61,-382 61,-397 188,-397 188,-382 61,-382"/>
<text text-anchor="start" x="123" y="-388" font-family="Ubuntu" font-weight="bold" font-size="10.00">Coordinate</text>
<text text-anchor="start" x="67" y="-372" font-family="Ubuntu" font-size="10.00">1</text>
<text text-anchor="start" x="78" y="-372" font-family="Ubuntu" font-size="10.00">latitude_deg</text>
<polygon fill="#a6cee3" stroke="transparent" points="150,-367 150,-382 188,-382 188,-367 150,-367"/>
<text text-anchor="start" x="152" y="-373" font-family="Ubuntu" font-style="italic" font-size="10.00">double</text>
<text text-anchor="start" x="67" y="-357" font-family="Ubuntu" font-size="10.00">2</text>
<text text-anchor="start" x="78" y="-357" font-family="Ubuntu" font-size="10.00">longitude_deg</text>
<polygon fill="#a6cee3" stroke="transparent" points="150,-352 150,-367 188,-367 188,-352 150,-352"/>
<text text-anchor="start" x="152" y="-358" font-family="Ubuntu" font-style="italic" font-size="10.00">double</text>
<polygon fill="none" stroke="black" points="59.5,-351.5 59.5,-398.5 188.5,-398.5 188.5,-351.5 59.5,-351.5"/>
</a>
</g>
</g>
</g>
</svg>
