<?xml version="1.0" encoding="UTF-8" standalone="no"?>
<!DOCTYPE svg PUBLIC "-//W3C//DTD SVG 1.1//EN"
 "http://www.w3.org/Graphics/SVG/1.1/DTD/svg11.dtd">
<!-- Generated by graphviz version 2.43.0 (0)
 -->
<!-- Title: protodot Pages: 1 -->
<svg width="827pt" height="716pt"
 viewBox="0.00 0.00 827.00 716.00" xmlns="http://www.w3.org/2000/svg" xmlns:xlink="http://www.w3.org/1999/xlink">
<g id="graph0" class="graph" transform="scale(1 1) rotate(0) translate(4 712)">
<title>protodot</title>
<g id="clust1" class="cluster">
<title>cluster_d527937d7e0f</title>
<g id="a_clust1"><a xlink:title="VehicleCommon.proto">
<polygon fill="#caff70" stroke="black" points="24,-578 24,-673 197,-673 197,-578 24,-578"/>
<text text-anchor="middle" x="110.5" y="-657.8" font-family="Times,serif" font-size="14.00">VehicleCommon.proto</text>
</a>
</g>
</g>
<g id="clust2" class="cluster">
<title>cluster_ac8d7b3b7cac</title>
<g id="a_clust2"><a xlink:title="google/protobuf/empty.proto">
<polygon fill="#caff70" stroke="black" points="333,-471 333,-546 435,-546 435,-471 333,-471"/>
<text text-anchor="middle" x="384" y="-530.8" font-family="Times,serif" font-size="14.00">empty.proto</text>
</a>
</g>
</g>
<g id="clust3" class="cluster">
<title>cluster_fb36aafb54f5</title>
<g id="a_clust3"><a xlink:title="google/protobuf/timestamp.proto">
<polygon fill="#caff70" stroke="black" points="607,-208 607,-303 743,-303 743,-208 607,-208"/>
<text text-anchor="middle" x="675" y="-287.8" font-family="Times,serif" font-size="14.00">timestamp.proto</text>
</a>
</g>
</g>
<g id="clust4" class="cluster">
<title>cluster_da39a3ee5e6b</title>
<polygon fill="#caff70" stroke="black" points="539,-8 539,-200 811,-200 811,-8 539,-8"/>
</g>
<!-- Node_Ja_104 -->
<g id="node1" class="node">
<title>Node_Ja_104</title>
<g id="a_node1"><a xlink:title=".ParamGetRequest">
<polygon fill="#fffaf0" stroke="transparent" points="330,-672 330,-704 438,-704 438,-672 330,-672"/>
<polygon fill="#e31a1c" stroke="transparent" points="331,-688 331,-703 437,-703 437,-688 331,-688"/>
<text text-anchor="start" x="333" y="-694" font-family="Ubuntu" font-weight="bold" font-size="10.00">ParamGetRequest</text>
<text text-anchor="start" x="357" y="-678" font-family="Ubuntu" font-size="10.00">1</text>
<text text-anchor="start" x="368" y="-678" font-family="Ubuntu" font-size="10.00">name</text>
<polygon fill="#a6cee3" stroke="transparent" points="401,-673 401,-688 437,-688 437,-673 401,-673"/>
<text text-anchor="start" x="407" y="-679" font-family="Ubuntu" font-style="italic" font-size="10.00">string</text>
<polygon fill="none" stroke="black" points="330,-672 330,-704 438,-704 438,-672 330,-672"/>
</a>
</g>
</g>
<!-- Node_Ja_112 -->
<g id="node2" class="node">
<title>Node_Ja_112</title>
<g id="a_node2"><a xlink:title=".SaveParamsResponse">
<polygon fill="#fffaf0" stroke="transparent" points="280.5,-114 280.5,-176 487.5,-176 487.5,-114 280.5,-114"/>
<polygon fill="#e31a1c" stroke="transparent" points="282,-160 282,-175 487,-175 487,-160 282,-160"/>
<text text-anchor="start" x="361" y="-166" font-family="Ubuntu" font-weight="bold" font-size="10.00">SaveParamsResponse</text>
<text text-anchor="start" x="288" y="-150" font-family="Ubuntu" font-size="10.00">1</text>
<text text-anchor="start" x="299" y="-150" font-family="Ubuntu" font-size="10.00">result</text>
<polygon fill="#b2df8a" stroke="transparent" points="401,-145 401,-160 487,-160 487,-145 401,-145"/>
<text text-anchor="start" x="403" y="-151" font-family="Ubuntu" text-decoration="underline" font-size="10.00">CommandResult</text>
<text text-anchor="start" x="288" y="-135" font-family="Ubuntu" font-size="10.00">2</text>
<text text-anchor="start" x="299" y="-135" font-family="Ubuntu" font-size="10.00">raw_autopilot_result</text>
<polygon fill="#a6cee3" stroke="transparent" points="401,-130 401,-145 487,-145 487,-130 401,-130"/>
<text text-anchor="start" x="460" y="-136" font-family="Ubuntu" font-style="italic" font-size="10.00">int32</text>
<text text-anchor="start" x="288" y="-120" font-family="Ubuntu" font-size="10.00">3</text>
<text text-anchor="start" x="299" y="-120" font-family="Ubuntu" font-size="10.00">detail</text>
<polygon fill="#a6cee3" stroke="transparent" points="401,-115 401,-130 487,-130 487,-115 401,-115"/>
<text text-anchor="start" x="457" y="-121" font-family="Ubuntu" font-style="italic" font-size="10.00">string</text>
<polygon fill="none" stroke="black" points="280.5,-114 280.5,-176 487.5,-176 487.5,-114 280.5,-114"/>
</a>
</g>
</g>
<!-- Node_Ja_102 -->
<g id="node14" class="node">
<title>Node_Ja_102</title>
<g id="a_node14"><a xlink:title="CommandResult">
<polygon fill="#b2df8a" stroke="transparent" points="555,-20.5 555,-187.5 795,-187.5 795,-20.5 555,-20.5"/>
<polygon fill="#33a02c" stroke="transparent" points="556,-171 556,-186 794,-186 794,-171 556,-171"/>
<text text-anchor="start" x="669" y="-177" font-family="Ubuntu" font-size="10.00">enum </text>
<text text-anchor="start" x="700" y="-177" font-family="Ubuntu" font-weight="bold" font-size="10.00">CommandResult</text>
<polygon fill="#b2df8a" stroke="transparent" points="556,-156 556,-171 783,-171 783,-156 556,-156"/>
<text text-anchor="start" x="558" y="-161" font-family="Ubuntu" font-size="10.00">COMMAND_RESULT_UNSPECIFIED</text>
<polygon fill="#b2df8a" stroke="transparent" points="783,-156 783,-171 794,-171 794,-156 783,-156"/>
<text text-anchor="start" x="785" y="-161" font-family="Ubuntu" font-size="10.00">0</text>
<polygon fill="#b2df8a" stroke="transparent" points="556,-141 556,-156 783,-156 783,-141 556,-141"/>
<text text-anchor="start" x="558" y="-146" font-family="Ubuntu" font-size="10.00">COMMAND_RESULT_ACCEPTED</text>
<polygon fill="#b2df8a" stroke="transparent" points="783,-141 783,-156 794,-156 794,-141 783,-141"/>
<text text-anchor="start" x="785" y="-146" font-family="Ubuntu" font-size="10.00">1</text>
<polygon fill="#b2df8a" stroke="transparent" points="556,-126 556,-141 783,-141 783,-126 556,-126"/>
<text text-anchor="start" x="558" y="-131" font-family="Ubuntu" font-size="10.00">COMMAND_RESULT_TEMPORARILY_REJECTED</text>
<polygon fill="#b2df8a" stroke="transparent" points="783,-126 783,-141 794,-141 794,-126 783,-126"/>
<text text-anchor="start" x="785" y="-131" font-family="Ubuntu" font-size="10.00">2</text>
<polygon fill="#b2df8a" stroke="transparent" points="556,-111 556,-126 783,-126 783,-111 556,-111"/>
<text text-anchor="start" x="558" y="-116" font-family="Ubuntu" font-size="10.00">COMMAND_RESULT_DENIED</text>
<polygon fill="#b2df8a" stroke="transparent" points="783,-111 783,-126 794,-126 794,-111 783,-111"/>
<text text-anchor="start" x="785" y="-116" font-family="Ubuntu" font-size="10.00">3</text>
<polygon fill="#b2df8a" stroke="transparent" points="556,-96 556,-111 783,-111 783,-96 556,-96"/>
<text text-anchor="start" x="558" y="-101" font-family="Ubuntu" font-size="10.00">COMMAND_RESULT_UNSUPPORTED</text>
<polygon fill="#b2df8a" stroke="transparent" points="783,-96 783,-111 794,-111 794,-96 783,-96"/>
<text text-anchor="start" x="785" y="-101" font-family="Ubuntu" font-size="10.00">4</text>
<polygon fill="#b2df8a" stroke="transparent" points="556,-81 556,-96 783,-96 783,-81 556,-81"/>
<text text-anchor="start" x="558" y="-86" font-family="Ubuntu" font-size="10.00">COMMAND_RESULT_FAILED</text>
<polygon fill="#b2df8a" stroke="transparent" points="783,-81 783,-96 794,-96 794,-81 783,-81"/>
<text text-anchor="start" x="785" y="-86" font-family="Ubuntu" font-size="10.00">5</text>
<polygon fill="#b2df8a" stroke="transparent" points="556,-66 556,-81 783,-81 783,-66 556,-66"/>
<text text-anchor="start" x="558" y="-71" font-family="Ubuntu" font-size="10.00">COMMAND_RESULT_IN_PROGRESS</text>
<polygon fill="#b2df8a" stroke="transparent" points="783,-66 783,-81 794,-81 794,-66 783,-66"/>
<text text-anchor="start" x="785" y="-71" font-family="Ubuntu" font-size="10.00">6</text>
<polygon fill="#b2df8a" stroke="transparent" points="556,-51 556,-66 783,-66 783,-51 556,-51"/>
<text text-anchor="start" x="558" y="-56" font-family="Ubuntu" font-size="10.00">COMMAND_RESULT_CANCELLED</text>
<polygon fill="#b2df8a" stroke="transparent" points="783,-51 783,-66 794,-66 794,-51 783,-51"/>
<text text-anchor="start" x="785" y="-56" font-family="Ubuntu" font-size="10.00">7</text>
<polygon fill="#b2df8a" stroke="transparent" points="556,-36 556,-51 783,-51 783,-36 556,-36"/>
<text text-anchor="start" x="558" y="-41" font-family="Ubuntu" font-size="10.00">COMMAND_RESULT_TIMEOUT</text>
<polygon fill="#b2df8a" stroke="transparent" points="783,-36 783,-51 794,-51 794,-36 783,-36"/>
<text text-anchor="start" x="785" y="-41" font-family="Ubuntu" font-size="10.00">8</text>
<polygon fill="#b2df8a" stroke="transparent" points="556,-21 556,-36 783,-36 783,-21 556,-21"/>
<text text-anchor="start" x="558" y="-26" font-family="Ubuntu" font-size="10.00">COMMAND_RESULT_NOT_OBSERVABLE</text>
<polygon fill="#b2df8a" stroke="transparent" points="783,-21 783,-36 794,-36 794,-21 783,-21"/>
<text text-anchor="start" x="785" y="-26" font-family="Ubuntu" font-size="10.00">9</text>
<polygon fill="none" stroke="black" points="555,-20.5 555,-187.5 795,-187.5 795,-20.5 555,-20.5"/>
</a>
</g>
</g>
<!-- Node_Ja_112&#45;&gt;Node_Ja_102 -->
<g id="edge13" class="edge">
<title>Node_Ja_112:e&#45;&gt;Node_Ja_102</title>
<g id="a_edge13"><a xlink:title="Ja_112 &#45;&#45;&gt; Ja_102">
<path fill="none" stroke="#008000" d="M488,-153C503.97,-153 520.46,-151.29 536.73,-148.51"/>
<polygon fill="#008000" stroke="#008000" points="537.62,-151.9 546.82,-146.64 536.35,-145.02 537.62,-151.9"/>
</a>
</g>
</g>
<!-- Node_Ja_113 -->
<g id="node3" class="node">
<title>Node_Ja_113</title>
<g id="a_node3"><a xlink:title="VehicleParam">
<polygon fill="#ffd700" stroke="transparent" points="8,-397.5 8,-564.5 213,-564.5 213,-397.5 8,-397.5"/>
<polygon fill="#ff7f50" stroke="transparent" points="9.5,-548 9.5,-563 212.5,-563 212.5,-548 9.5,-548"/>
<text text-anchor="start" x="132.5" y="-554" font-family="Ubuntu" font-weight="bold" font-size="10.00">VehicleParam</text>
<text text-anchor="start" x="11.5" y="-539" font-family="Ubuntu" font-weight="bold" font-size="10.00">get_param</text>
<text text-anchor="start" x="122.5" y="-538" font-family="Ubuntu" font-size="10.00">ParamGetRequest</text>
<polygon fill="#ff7f50" stroke="transparent" points="88.5,-518 88.5,-533 92.5,-533 92.5,-518 88.5,-518"/>
<polygon fill="#ff7f50" stroke="transparent" points="92.5,-518 92.5,-533 212.5,-533 212.5,-518 92.5,-518"/>
<text text-anchor="start" x="104.5" y="-523" font-family="Ubuntu" font-size="10.00">ParamValueResponse</text>
<text text-anchor="start" x="11.5" y="-509" font-family="Ubuntu" font-weight="bold" font-size="10.00">set_param</text>
<text text-anchor="start" x="123.5" y="-508" font-family="Ubuntu" font-size="10.00">ParamSetRequest</text>
<polygon fill="#ff7f50" stroke="transparent" points="88.5,-488 88.5,-503 92.5,-503 92.5,-488 88.5,-488"/>
<polygon fill="#ff7f50" stroke="transparent" points="92.5,-488 92.5,-503 212.5,-503 212.5,-488 92.5,-488"/>
<text text-anchor="start" x="104.5" y="-493" font-family="Ubuntu" font-size="10.00">ParamValueResponse</text>
<text text-anchor="start" x="11.5" y="-479" font-family="Ubuntu" font-weight="bold" font-size="10.00">list_params</text>
<text text-anchor="start" x="98.5" y="-478" font-family="Ubuntu" font-size="10.00">google.protobuf.Empty</text>
<polygon fill="#ff7f50" stroke="transparent" points="88.5,-458 88.5,-473 92.5,-473 92.5,-458 88.5,-458"/>
<polygon fill="#ff7f50" stroke="transparent" points="92.5,-458 92.5,-473 212.5,-473 212.5,-458 92.5,-458"/>
<text text-anchor="start" x="114.5" y="-463" font-family="Ubuntu" font-size="10.00">ParamListResponse</text>
<text text-anchor="start" x="11.5" y="-449" font-family="Ubuntu" font-weight="bold" font-size="10.00">set_params</text>
<text text-anchor="start" x="101.5" y="-448" font-family="Ubuntu" font-size="10.00">ParamSetBulkRequest</text>
<polygon fill="#ff7f50" stroke="transparent" points="88.5,-428 88.5,-443 92.5,-443 92.5,-428 88.5,-428"/>
<polygon fill="#ff7f50" stroke="transparent" points="92.5,-428 92.5,-443 212.5,-443 212.5,-428 92.5,-428"/>
<text text-anchor="start" x="94.5" y="-433" font-family="Ubuntu" font-size="10.00">ParamSetBulkResponse</text>
<text text-anchor="start" x="11.5" y="-419" font-family="Ubuntu" font-weight="bold" font-size="10.00">save_params</text>
<text text-anchor="start" x="110.5" y="-418" font-family="Ubuntu" font-size="10.00">SaveParamsRequest</text>
<polygon fill="#ff7f50" stroke="transparent" points="88.5,-398 88.5,-413 92.5,-413 92.5,-398 88.5,-398"/>
<polygon fill="#ff7f50" stroke="transparent" points="92.5,-398 92.5,-413 212.5,-413 212.5,-398 92.5,-398"/>
<text text-anchor="start" x="102.5" y="-403" font-family="Ubuntu" font-size="10.00">SaveParamsResponse</text>
<polygon fill="none" stroke="black" points="8,-397.5 8,-564.5 213,-564.5 213,-397.5 8,-397.5"/>
</a>
</g>
</g>
<!-- Node_Ja_113&#45;&gt;Node_Ja_104 -->
<g id="edge14" class="edge">
<title>Node_Ja_113:e&#45;&gt;Node_Ja_104:header</title>
<g id="a_edge14"><a xlink:title="Ja_113 &#45;&#45;&gt; Ja_104">
<path fill="none" stroke="#000000" d="M213.5,-541C267.31,-541 222,-613.12 257,-654 278.97,-679.66 290.25,-693.21 319.75,-695.61"/>
<polygon fill="#000000" stroke="#000000" points="319.87,-699.12 330,-696 320.14,-692.12 319.87,-699.12"/>
</a>
</g>
</g>
<!-- Node_Ja_113&#45;&gt;Node_Ja_112 -->
<g id="edge11" class="edge">
<title>Node_Ja_113:e&#45;&gt;Node_Ja_112:header</title>
<g id="a_edge11"><a xlink:title="Ja_113 &#45;&#45;&gt; Ja_112">
<path fill="none" stroke="#000000" d="M213.5,-405C319.39,-405 181.25,-183.48 270.93,-168.77"/>
<polygon fill="#000000" stroke="#000000" points="271.29,-172.25 281,-168 270.76,-165.27 271.29,-172.25"/>
</a>
</g>
</g>
<!-- Node_Ja_106 -->
<g id="node4" class="node">
<title>Node_Ja_106</title>
<g id="a_node4"><a xlink:title=".ParamValueResponse">
<polygon fill="#fffaf0" stroke="transparent" points="605.5,-510 605.5,-572 744.5,-572 744.5,-510 605.5,-510"/>
<polygon fill="#e31a1c" stroke="transparent" points="607,-556 607,-571 744,-571 744,-556 607,-556"/>
<text text-anchor="start" x="620" y="-562" font-family="Ubuntu" font-weight="bold" font-size="10.00">ParamValueResponse</text>
<text text-anchor="start" x="613" y="-546" font-family="Ubuntu" font-size="10.00">1</text>
<text text-anchor="start" x="624" y="-546" font-family="Ubuntu" font-size="10.00">name</text>
<polygon fill="#a6cee3" stroke="transparent" points="712,-541 712,-556 744,-556 744,-541 712,-541"/>
<text text-anchor="start" x="714" y="-547" font-family="Ubuntu" font-style="italic" font-size="10.00">string</text>
<text text-anchor="start" x="613" y="-531" font-family="Ubuntu" font-size="10.00">2</text>
<text text-anchor="start" x="624" y="-531" font-family="Ubuntu" font-size="10.00">value</text>
<polygon fill="#a6cee3" stroke="transparent" points="712,-526 712,-541 744,-541 744,-526 712,-526"/>
<text text-anchor="start" x="719" y="-532" font-family="Ubuntu" font-style="italic" font-size="10.00">float</text>
<text text-anchor="start" x="613" y="-516" font-family="Ubuntu" font-size="10.00">3</text>
<text text-anchor="start" x="624" y="-516" font-family="Ubuntu" font-size="10.00">mav_param_type</text>
<polygon fill="#a6cee3" stroke="transparent" points="712,-511 712,-526 744,-526 744,-511 712,-511"/>
<text text-anchor="start" x="717" y="-517" font-family="Ubuntu" font-style="italic" font-size="10.00">int32</text>
<polygon fill="none" stroke="black" points="605.5,-510 605.5,-572 744.5,-572 744.5,-510 605.5,-510"/>
</a>
</g>
</g>
<!-- Node_Ja_113&#45;&gt;Node_Ja_106 -->
<g id="edge5" class="edge">
<title>Node_Ja_113:e&#45;&gt;Node_Ja_106:header</title>
<g id="a_edge5"><a xlink:title="Ja_113 &#45;&#45;&gt; Ja_106">
<path fill="none" stroke="#000000" d="M213.5,-526C245.02,-526 228.69,-568.14 257,-582 358.39,-631.63 398.61,-592.55 511,-582 550.11,-578.33 561.19,-566.33 595.63,-564.29"/>
<polygon fill="#000000" stroke="#000000" points="596.1,-567.78 606,-564 595.9,-560.79 596.1,-567.78"/>
</a>
</g>
</g>
<!-- Node_Ja_113&#45;&gt;Node_Ja_106 -->
<g id="edge15" class="edge">
<title>Node_Ja_113:e&#45;&gt;Node_Ja_106:header</title>
<g id="a_edge15"><a xlink:title="Ja_113 &#45;&#45;&gt; Ja_106">
<path fill="none" stroke="#000000" d="M213.5,-496C244.32,-496 229.47,-536.14 257,-550 323.48,-583.47 512.03,-565.62 595.84,-564.1"/>
<polygon fill="#000000" stroke="#000000" points="596.04,-567.6 606,-564 595.97,-560.6 596.04,-567.6"/>
</a>
</g>
</g>
<!-- Node_Ja_107 -->
<g id="node5" class="node">
<title>Node_Ja_107</title>
<g id="a_node5"><a xlink:title=".ParamListResponse">
<polygon fill="#fffaf0" stroke="transparent" points="283.5,-425 283.5,-457 484.5,-457 484.5,-425 283.5,-425"/>
<polygon fill="#e31a1c" stroke="transparent" points="285,-441 285,-456 484,-456 484,-441 285,-441"/>
<text text-anchor="start" x="371" y="-447" font-family="Ubuntu" font-weight="bold" font-size="10.00">ParamListResponse</text>
<text text-anchor="start" x="287" y="-431" font-family="Ubuntu" font-size="10.00">[...]</text>
<text text-anchor="start" x="308" y="-431" font-family="Ubuntu" font-size="10.00">1</text>
<text text-anchor="start" x="319" y="-431" font-family="Ubuntu" font-size="10.00">params</text>
<polygon fill="#fb9a99" stroke="transparent" points="358,-426 358,-441 484,-441 484,-426 358,-426"/>
<text text-anchor="start" x="360" y="-432" font-family="Ubuntu" font-weight="bold" font-size="10.00">ParamValueResponse</text>
<polygon fill="none" stroke="black" points="283.5,-425 283.5,-457 484.5,-457 484.5,-425 283.5,-425"/>
</a>
</g>
</g>
<!-- Node_Ja_113&#45;&gt;Node_Ja_107 -->
<g id="edge8" class="edge">
<title>Node_Ja_113:e&#45;&gt;Node_Ja_107:header</title>
<g id="a_edge8"><a xlink:title="Ja_113 &#45;&#45;&gt; Ja_107">
<path fill="none" stroke="#000000" d="M213.5,-465C241.99,-465 250.12,-452.42 274,-449.57"/>
<polygon fill="#000000" stroke="#000000" points="274.22,-453.06 284,-449 273.82,-446.07 274.22,-453.06"/>
</a>
</g>
</g>
<!-- Node_Ja_105 -->
<g id="node6" class="node">
<title>Node_Ja_105</title>
<g id="a_node6"><a xlink:title=".ParamSetRequest">
<polygon fill="#fffaf0" stroke="transparent" points="621.5,-435.5 621.5,-482.5 728.5,-482.5 728.5,-435.5 621.5,-435.5"/>
<polygon fill="#e31a1c" stroke="transparent" points="623,-466 623,-481 728,-481 728,-466 623,-466"/>
<text text-anchor="start" x="625" y="-472" font-family="Ubuntu" font-weight="bold" font-size="10.00">ParamSetRequest</text>
<text text-anchor="start" x="648" y="-456" font-family="Ubuntu" font-size="10.00">1</text>
<text text-anchor="start" x="659" y="-456" font-family="Ubuntu" font-size="10.00">name</text>
<polygon fill="#a6cee3" stroke="transparent" points="692,-451 692,-466 728,-466 728,-451 692,-451"/>
<text text-anchor="start" x="698" y="-457" font-family="Ubuntu" font-style="italic" font-size="10.00">string</text>
<text text-anchor="start" x="648" y="-441" font-family="Ubuntu" font-size="10.00">2</text>
<text text-anchor="start" x="659" y="-441" font-family="Ubuntu" font-size="10.00">value</text>
<polygon fill="#a6cee3" stroke="transparent" points="692,-436 692,-451 728,-451 728,-436 692,-436"/>
<text text-anchor="start" x="703" y="-442" font-family="Ubuntu" font-style="italic" font-size="10.00">float</text>
<polygon fill="none" stroke="black" points="621.5,-435.5 621.5,-482.5 728.5,-482.5 728.5,-435.5 621.5,-435.5"/>
</a>
</g>
</g>
<!-- Node_Ja_113&#45;&gt;Node_Ja_105 -->
<g id="edge6" class="edge">
<title>Node_Ja_113:e&#45;&gt;Node_Ja_105:header</title>
<g id="a_edge6"><a xlink:title="Ja_113 &#45;&#45;&gt; Ja_105">
<path fill="none" stroke="#000000" d="M213.5,-511C239.47,-511 232.75,-540.72 257,-550 362.43,-590.34 414.31,-608.27 511,-550 533.82,-536.25 518.24,-513.7 539,-497 566.03,-475.25 580.8,-474.03 611.82,-474"/>
<polygon fill="#000000" stroke="#000000" points="612,-477.5 622,-474 612,-470.5 612,-477.5"/>
</a>
</g>
</g>
<!-- Node_Ja_108 -->
<g id="node7" class="node">
<title>Node_Ja_108</title>
<g id="a_node7"><a xlink:title=".ParamSetBulkRequest">
<polygon fill="#fffaf0" stroke="transparent" points="294,-367 294,-399 474,-399 474,-367 294,-367"/>
<polygon fill="#e31a1c" stroke="transparent" points="295,-383 295,-398 473,-398 473,-383 295,-383"/>
<text text-anchor="start" x="345" y="-389" font-family="Ubuntu" font-weight="bold" font-size="10.00">ParamSetBulkRequest</text>
<text text-anchor="start" x="297" y="-373" font-family="Ubuntu" font-size="10.00">[...]</text>
<text text-anchor="start" x="318" y="-373" font-family="Ubuntu" font-size="10.00">1</text>
<text text-anchor="start" x="329" y="-373" font-family="Ubuntu" font-size="10.00">params</text>
<polygon fill="#fb9a99" stroke="transparent" points="368,-368 368,-383 473,-383 473,-368 368,-368"/>
<text text-anchor="start" x="370" y="-374" font-family="Ubuntu" font-weight="bold" font-size="10.00">ParamSetRequest</text>
<polygon fill="none" stroke="black" points="294,-367 294,-399 474,-399 474,-367 294,-367"/>
</a>
</g>
</g>
<!-- Node_Ja_113&#45;&gt;Node_Ja_108 -->
<g id="edge1" class="edge">
<title>Node_Ja_113:e&#45;&gt;Node_Ja_108:header</title>
<g id="a_edge1"><a xlink:title="Ja_113 &#45;&#45;&gt; Ja_108">
<path fill="none" stroke="#000000" d="M213.5,-450C239.17,-450 236.06,-426.86 257,-412 269.17,-403.37 273.4,-395.28 283.93,-392.26"/>
<polygon fill="#000000" stroke="#000000" points="284.51,-395.71 294,-391 283.64,-388.77 284.51,-395.71"/>
</a>
</g>
</g>
<!-- Node_Ja_110 -->
<g id="node9" class="node">
<title>Node_Ja_110</title>
<g id="a_node9"><a xlink:title=".ParamSetBulkResponse">
<polygon fill="#fffaf0" stroke="transparent" points="288.5,-309 288.5,-341 479.5,-341 479.5,-309 288.5,-309"/>
<polygon fill="#e31a1c" stroke="transparent" points="290,-325 290,-340 479,-340 479,-325 290,-325"/>
<text text-anchor="start" x="343" y="-331" font-family="Ubuntu" font-weight="bold" font-size="10.00">ParamSetBulkResponse</text>
<text text-anchor="start" x="292" y="-315" font-family="Ubuntu" font-size="10.00">[...]</text>
<text text-anchor="start" x="313" y="-315" font-family="Ubuntu" font-size="10.00">1</text>
<text text-anchor="start" x="324" y="-315" font-family="Ubuntu" font-size="10.00">results</text>
<polygon fill="#fb9a99" stroke="transparent" points="360,-310 360,-325 479,-325 479,-310 360,-310"/>
<text text-anchor="start" x="362" y="-316" font-family="Ubuntu" font-weight="bold" font-size="10.00">ParamSetBulkResult</text>
<polygon fill="none" stroke="black" points="288.5,-309 288.5,-341 479.5,-341 479.5,-309 288.5,-309"/>
</a>
</g>
</g>
<!-- Node_Ja_113&#45;&gt;Node_Ja_110 -->
<g id="edge10" class="edge">
<title>Node_Ja_113:e&#45;&gt;Node_Ja_110:header</title>
<g id="a_edge10"><a xlink:title="Ja_113 &#45;&#45;&gt; Ja_110">
<path fill="none" stroke="#000000" d="M213.5,-435C254.36,-435 229.4,-384.14 257,-354 265.8,-344.39 269.91,-337.19 278.99,-334.34"/>
<polygon fill="#000000" stroke="#000000" points="279.55,-337.79 289,-333 278.62,-330.85 279.55,-337.79"/>
</a>
</g>
</g>
<!-- Node_Ja_111 -->
<g id="node10" class="node">
<title>Node_Ja_111</title>
<g id="a_node10"><a xlink:title=".SaveParamsRequest">
<polygon fill="#fffaf0" stroke="transparent" points="265,-251 265,-283 503,-283 503,-251 265,-251"/>
<polygon fill="#e31a1c" stroke="transparent" points="266,-267 266,-282 502,-282 502,-267 266,-267"/>
<text text-anchor="start" x="384" y="-273" font-family="Ubuntu" font-weight="bold" font-size="10.00">SaveParamsRequest</text>
<text text-anchor="start" x="272" y="-257" font-family="Ubuntu" font-size="10.00">1</text>
<text text-anchor="start" x="283" y="-257" font-family="Ubuntu" font-size="10.00">timestamp</text>
<polygon fill="#fb9a99" stroke="transparent" points="339,-252 339,-267 502,-267 502,-252 339,-252"/>
<text text-anchor="start" x="341" y="-258" font-family="Ubuntu" font-weight="bold" font-size="10.00">google.protobuf.Timestamp</text>
<polygon fill="none" stroke="black" points="265,-251 265,-283 503,-283 503,-251 265,-251"/>
</a>
</g>
</g>
<!-- Node_Ja_113&#45;&gt;Node_Ja_111 -->
<g id="edge2" class="edge">
<title>Node_Ja_113:e&#45;&gt;Node_Ja_111:header</title>
<g id="a_edge2"><a xlink:title="Ja_113 &#45;&#45;&gt; Ja_111">
<path fill="none" stroke="#000000" d="M213.5,-420C278.01,-420 205.78,-290.96 254.8,-276.34"/>
<polygon fill="#000000" stroke="#000000" points="255.54,-279.78 265,-275 254.63,-272.84 255.54,-279.78"/>
</a>
</g>
</g>
<!-- Node_Ja_100 -->
<g id="node12" class="node">
<title>Node_Ja_100</title>
<g id="a_node12"><a xlink:title="google.protobuf.Empty">
<polygon fill="#fffaf0" stroke="transparent" points="361,-488.5 361,-505.5 407,-505.5 407,-488.5 361,-488.5"/>
<polygon fill="#e31a1c" stroke="transparent" points="362,-489 362,-504 406,-504 406,-489 362,-489"/>
<text text-anchor="start" x="367" y="-495" font-family="Ubuntu" font-weight="bold" font-size="10.00">Empty</text>
<polygon fill="none" stroke="black" points="361,-488.5 361,-505.5 407,-505.5 407,-488.5 361,-488.5"/>
</a>
</g>
</g>
<!-- Node_Ja_113&#45;&gt;Node_Ja_100 -->
<g id="edge7" class="edge">
<title>Node_Ja_113:e&#45;&gt;Node_Ja_100:header</title>
<g id="a_edge7"><a xlink:title="Ja_113 &#45;&#45;&gt; Ja_100">
<path fill="none" stroke="#000000" d="M213.5,-480C261.91,-480 317.75,-486.55 351.7,-491.27"/>
<polygon fill="#000000" stroke="#000000" points="351.53,-494.78 361.92,-492.72 352.51,-487.85 351.53,-494.78"/>
</a>
</g>
</g>
<!-- Node_Ja_107&#45;&gt;Node_Ja_106 -->
<g id="edge12" class="edge">
<title>Node_Ja_107:e&#45;&gt;Node_Ja_106:header</title>
<g id="a_edge12"><a xlink:title="Ja_107 &#45;&#45;&gt; Ja_106">
<path fill="none" stroke="#000000" d="M485,-433C521.88,-433 514.04,-468.85 539,-496 565.13,-524.43 564.05,-557.44 595.63,-563.14"/>
<polygon fill="#000000" stroke="#000000" points="595.74,-566.66 606,-564 596.32,-559.69 595.74,-566.66"/>
</a>
</g>
</g>
<!-- Node_Ja_108&#45;&gt;Node_Ja_105 -->
<g id="edge3" class="edge">
<title>Node_Ja_108:e&#45;&gt;Node_Ja_105:header</title>
<g id="a_edge3"><a xlink:title="Ja_108 &#45;&#45;&gt; Ja_105">
<path fill="none" stroke="#000000" d="M474,-375C509.14,-375 509.83,-400.42 539,-420 572.54,-442.52 577.36,-469.2 611.97,-473.42"/>
<polygon fill="#000000" stroke="#000000" points="611.82,-476.92 622,-474 612.22,-469.93 611.82,-476.92"/>
</a>
</g>
</g>
<!-- Node_Ja_109 -->
<g id="node8" class="node">
<title>Node_Ja_109</title>
<g id="a_node8"><a xlink:title=".ParamSetBulkResult">
<polygon fill="#fffaf0" stroke="transparent" points="605.5,-315 605.5,-407 744.5,-407 744.5,-315 605.5,-315"/>
<polygon fill="#e31a1c" stroke="transparent" points="607,-391 607,-406 744,-406 744,-391 607,-391"/>
<text text-anchor="start" x="627" y="-397" font-family="Ubuntu" font-weight="bold" font-size="10.00">ParamSetBulkResult</text>
<text text-anchor="start" x="613" y="-381" font-family="Ubuntu" font-size="10.00">1</text>
<text text-anchor="start" x="624" y="-381" font-family="Ubuntu" font-size="10.00">name</text>
<polygon fill="#a6cee3" stroke="transparent" points="712,-376 712,-391 744,-391 744,-376 712,-376"/>
<text text-anchor="start" x="714" y="-382" font-family="Ubuntu" font-style="italic" font-size="10.00">string</text>
<text text-anchor="start" x="613" y="-366" font-family="Ubuntu" font-size="10.00">2</text>
<text text-anchor="start" x="624" y="-366" font-family="Ubuntu" font-size="10.00">ok</text>
<polygon fill="#a6cee3" stroke="transparent" points="712,-361 712,-376 744,-376 744,-361 712,-361"/>
<text text-anchor="start" x="720" y="-367" font-family="Ubuntu" font-style="italic" font-size="10.00">bool</text>
<text text-anchor="start" x="613" y="-351" font-family="Ubuntu" font-size="10.00">3</text>
<text text-anchor="start" x="624" y="-351" font-family="Ubuntu" font-size="10.00">error</text>
<polygon fill="#a6cee3" stroke="transparent" points="712,-346 712,-361 744,-361 744,-346 712,-346"/>
<text text-anchor="start" x="714" y="-352" font-family="Ubuntu" font-style="italic" font-size="10.00">string</text>
<text text-anchor="start" x="613" y="-336" font-family="Ubuntu" font-size="10.00">4</text>
<text text-anchor="start" x="624" y="-336" font-family="Ubuntu" font-size="10.00">value</text>
<polygon fill="#a6cee3" stroke="transparent" points="712,-331 712,-346 744,-346 744,-331 712,-331"/>
<text text-anchor="start" x="719" y="-337" font-family="Ubuntu" font-style="italic" font-size="10.00">float</text>
<text text-anchor="start" x="613" y="-321" font-family="Ubuntu" font-size="10.00">5</text>
<text text-anchor="start" x="624" y="-321" font-family="Ubuntu" font-size="10.00">mav_param_type</text>
<polygon fill="#a6cee3" stroke="transparent" points="712,-316 712,-331 744,-331 744,-316 712,-316"/>
<text text-anchor="start" x="717" y="-322" font-family="Ubuntu" font-style="italic" font-size="10.00">int32</text>
<polygon fill="none" stroke="black" points="605.5,-315 605.5,-407 744.5,-407 744.5,-315 605.5,-315"/>
</a>
</g>
</g>
<!-- Node_Ja_110&#45;&gt;Node_Ja_109 -->
<g id="edge4" class="edge">
<title>Node_Ja_110:e&#45;&gt;Node_Ja_109:header</title>
<g id="a_edge4"><a xlink:title="Ja_110 &#45;&#45;&gt; Ja_109">
<path fill="none" stroke="#000000" d="M480,-317C543.16,-317 539.8,-390.28 595.68,-398.29"/>
<polygon fill="#000000" stroke="#000000" points="595.78,-401.81 606,-399 596.26,-394.82 595.78,-401.81"/>
</a>
</g>
</g>
<!-- Node_Ja_101 -->
<g id="node13" class="node">
<title>Node_Ja_101</title>
<g id="a_node13"><a xlink:title="google.protobuf.Timestamp">
<polygon fill="#fffaf0" stroke="transparent" points="630,-220.5 630,-267.5 720,-267.5 720,-220.5 630,-220.5"/>
<polygon fill="#e31a1c" stroke="transparent" points="631,-251 631,-266 719,-266 719,-251 631,-251"/>
<text text-anchor="start" x="653" y="-257" font-family="Ubuntu" font-weight="bold" font-size="10.00">Timestamp</text>
<text text-anchor="start" x="637" y="-241" font-family="Ubuntu" font-size="10.00">1</text>
<text text-anchor="start" x="648" y="-241" font-family="Ubuntu" font-size="10.00">seconds</text>
<polygon fill="#a6cee3" stroke="transparent" points="690,-236 690,-251 719,-251 719,-236 690,-236"/>
<text text-anchor="start" x="692" y="-242" font-family="Ubuntu" font-style="italic" font-size="10.00">int64</text>
<text text-anchor="start" x="637" y="-226" font-family="Ubuntu" font-size="10.00">2</text>
<text text-anchor="start" x="648" y="-226" font-family="Ubuntu" font-size="10.00">nanos</text>
<polygon fill="#a6cee3" stroke="transparent" points="690,-221 690,-236 719,-236 719,-221 690,-221"/>
<text text-anchor="start" x="692" y="-227" font-family="Ubuntu" font-style="italic" font-size="10.00">int32</text>
<polygon fill="none" stroke="black" points="630,-220.5 630,-267.5 720,-267.5 720,-220.5 630,-220.5"/>
</a>
</g>
</g>
<!-- Node_Ja_111&#45;&gt;Node_Ja_101 -->
<g id="edge9" class="edge">
<title>Node_Ja_111:e&#45;&gt;Node_Ja_101:header</title>
<g id="a_edge9"><a xlink:title="Ja_111 &#45;&#45;&gt; Ja_101">
<path fill="none" stroke="#000000" d="M503,-259C555.92,-259 571.63,-259 619.89,-259"/>
<polygon fill="#000000" stroke="#000000" points="620,-262.5 630,-259 620,-255.5 620,-262.5"/>
</a>
</g>
</g>
<!-- Node_Ja_103 -->
<g id="node11" class="node">
<title>Node_Ja_103</title>
<g id="a_node11"><a xlink:title=".Coordinate">
<polygon fill="#fffaf0" stroke="transparent" points="46,-590.5 46,-637.5 175,-637.5 175,-590.5 46,-590.5"/>
<polygon fill="#e31a1c" stroke="transparent" points="47.5,-621 47.5,-636 174.5,-636 174.5,-621 47.5,-621"/>
<text text-anchor="start" x="109.5" y="-627" font-family="Ubuntu" font-weight="bold" font-size="10.00">Coordinate</text>
<text text-anchor="start" x="53.5" y="-611" font-family="Ubuntu" font-size="10.00">1</text>
<text text-anchor="start" x="64.5" y="-611" font-family="Ubuntu" font-size="10.00">latitude_deg</text>
<polygon fill="#a6cee3" stroke="transparent" points="136.5,-606 136.5,-621 174.5,-621 174.5,-606 136.5,-606"/>
<text text-anchor="start" x="138.5" y="-612" font-family="Ubuntu" font-style="italic" font-size="10.00">double</text>
<text text-anchor="start" x="53.5" y="-596" font-family="Ubuntu" font-size="10.00">2</text>
<text text-anchor="start" x="64.5" y="-596" font-family="Ubuntu" font-size="10.00">longitude_deg</text>
<polygon fill="#a6cee3" stroke="transparent" points="136.5,-591 136.5,-606 174.5,-606 174.5,-591 136.5,-591"/>
<text text-anchor="start" x="138.5" y="-597" font-family="Ubuntu" font-style="italic" font-size="10.00">double</text>
<polygon fill="none" stroke="black" points="46,-590.5 46,-637.5 175,-637.5 175,-590.5 46,-590.5"/>
</a>
</g>
</g>
</g>
</svg>
