<?xml version="1.0" encoding="UTF-8" standalone="no"?>
<!DOCTYPE svg PUBLIC "-//W3C//DTD SVG 1.1//EN"
 "http://www.w3.org/Graphics/SVG/1.1/DTD/svg11.dtd">
<!-- Generated by graphviz version 2.43.0 (0)
 -->
<!-- Title: protodot Pages: 1 -->
<svg width="1220pt" height="458pt"
 viewBox="0.00 0.00 1220.00 458.00" xmlns="http://www.w3.org/2000/svg" xmlns:xlink="http://www.w3.org/1999/xlink">
<g id="graph0" class="graph" transform="scale(1 1) rotate(0) translate(4 454)">
<title>protodot</title>
<g id="clust1" class="cluster">
<title>cluster_da39a3ee5e6b</title>
<polygon fill="#caff70" stroke="black" points="745,-8 745,-288 1017,-288 1017,-8 745,-8"/>
</g>
<g id="clust2" class="cluster">
<title>cluster_fb36aafb54f5</title>
<g id="a_clust2"><a xlink:title="google/protobuf/timestamp.proto">
<polygon fill="#caff70" stroke="black" points="581.5,-117 581.5,-212 717.5,-212 717.5,-117 581.5,-117"/>
<text text-anchor="middle" x="649.5" y="-196.8" font-family="Times,serif" font-size="14.00">timestamp.proto</text>
</a>
</g>
</g>
<g id="clust3" class="cluster">
<title>cluster_d527937d7e0f</title>
<g id="a_clust3"><a xlink:title="VehicleCommon.proto">
<polygon fill="#caff70" stroke="black" points="1037,-312 1037,-407 1210,-407 1210,-312 1037,-312"/>
<text text-anchor="middle" x="1123.5" y="-391.8" font-family="Times,serif" font-size="14.00">VehicleCommon.proto</text>
</a>
</g>
</g>
<!-- Node_Ja_104 -->
<g id="node1" class="node">
<title>Node_Ja_104</title>
<g id="a_node1"><a xlink:title="Kind">
<polygon fill="#b2df8a" stroke="transparent" points="839.5,-214 839.5,-276 922.5,-276 922.5,-214 839.5,-214"/>
<polygon fill="#33a02c" stroke="transparent" points="841,-260 841,-275 922,-275 922,-260 841,-260"/>
<text text-anchor="start" x="863" y="-266" font-family="Ubuntu" font-size="10.00">enum </text>
<text text-anchor="start" x="894" y="-266" font-family="Ubuntu" font-weight="bold" font-size="10.00">Kind</text>
<polygon fill="#b2df8a" stroke="transparent" points="841,-245 841,-260 911,-260 911,-245 841,-245"/>
<text text-anchor="start" x="843" y="-250" font-family="Ubuntu" font-size="10.00">UNSPECIFIED</text>
<polygon fill="#b2df8a" stroke="transparent" points="911,-245 911,-260 922,-260 922,-245 911,-245"/>
<text text-anchor="start" x="913" y="-250" font-family="Ubuntu" font-size="10.00">0</text>
<polygon fill="#b2df8a" stroke="transparent" points="841,-230 841,-245 911,-245 911,-230 841,-230"/>
<text text-anchor="start" x="843" y="-235" font-family="Ubuntu" font-size="10.00">INCLUSION</text>
<polygon fill="#b2df8a" stroke="transparent" points="911,-230 911,-245 922,-245 922,-230 911,-230"/>
<text text-anchor="start" x="913" y="-235" font-family="Ubuntu" font-size="10.00">1</text>
<polygon fill="#b2df8a" stroke="transparent" points="841,-215 841,-230 911,-230 911,-215 841,-215"/>
<text text-anchor="start" x="843" y="-220" font-family="Ubuntu" font-size="10.00">EXCLUSION</text>
<polygon fill="#b2df8a" stroke="transparent" points="911,-215 911,-230 922,-230 922,-215 911,-215"/>
<text text-anchor="start" x="913" y="-220" font-family="Ubuntu" font-size="10.00">2</text>
<polygon fill="none" stroke="black" points="839.5,-214 839.5,-276 922.5,-276 922.5,-214 839.5,-214"/>
</a>
</g>
</g>
<!-- Node_Ja_101 -->
<g id="node2" class="node">
<title>Node_Ja_101</title>
<g id="a_node2"><a xlink:title="CommandResult">
<polygon fill="#b2df8a" stroke="transparent" points="761,-20.5 761,-187.5 1001,-187.5 1001,-20.5 761,-20.5"/>
<polygon fill="#33a02c" stroke="transparent" points="762,-171 762,-186 1000,-186 1000,-171 762,-171"/>
<text text-anchor="start" x="875" y="-177" font-family="Ubuntu" font-size="10.00">enum </text>
<text text-anchor="start" x="906" y="-177" font-family="Ubuntu" font-weight="bold" font-size="10.00">CommandResult</text>
<polygon fill="#b2df8a" stroke="transparent" points="762,-156 762,-171 989,-171 989,-156 762,-156"/>
<text text-anchor="start" x="764" y="-161" font-family="Ubuntu" font-size="10.00">COMMAND_RESULT_UNSPECIFIED</text>
<polygon fill="#b2df8a" stroke="transparent" points="989,-156 989,-171 1000,-171 1000,-156 989,-156"/>
<text text-anchor="start" x="991" y="-161" font-family="Ubuntu" font-size="10.00">0</text>
<polygon fill="#b2df8a" stroke="transparent" points="762,-141 762,-156 989,-156 989,-141 762,-141"/>
<text text-anchor="start" x="764" y="-146" font-family="Ubuntu" font-size="10.00">COMMAND_RESULT_ACCEPTED</text>
<polygon fill="#b2df8a" stroke="transparent" points="989,-141 989,-156 1000,-156 1000,-141 989,-141"/>
<text text-anchor="start" x="991" y="-146" font-family="Ubuntu" font-size="10.00">1</text>
<polygon fill="#b2df8a" stroke="transparent" points="762,-126 762,-141 989,-141 989,-126 762,-126"/>
<text text-anchor="start" x="764" y="-131" font-family="Ubuntu" font-size="10.00">COMMAND_RESULT_TEMPORARILY_REJECTED</text>
<polygon fill="#b2df8a" stroke="transparent" points="989,-126 989,-141 1000,-141 1000,-126 989,-126"/>
<text text-anchor="start" x="991" y="-131" font-family="Ubuntu" font-size="10.00">2</text>
<polygon fill="#b2df8a" stroke="transparent" points="762,-111 762,-126 989,-126 989,-111 762,-111"/>
<text text-anchor="start" x="764" y="-116" font-family="Ubuntu" font-size="10.00">COMMAND_RESULT_DENIED</text>
<polygon fill="#b2df8a" stroke="transparent" points="989,-111 989,-126 1000,-126 1000,-111 989,-111"/>
<text text-anchor="start" x="991" y="-116" font-family="Ubuntu" font-size="10.00">3</text>
<polygon fill="#b2df8a" stroke="transparent" points="762,-96 762,-111 989,-111 989,-96 762,-96"/>
<text text-anchor="start" x="764" y="-101" font-family="Ubuntu" font-size="10.00">COMMAND_RESULT_UNSUPPORTED</text>
<polygon fill="#b2df8a" stroke="transparent" points="989,-96 989,-111 1000,-111 1000,-96 989,-96"/>
<text text-anchor="start" x="991" y="-101" font-family="Ubuntu" font-size="10.00">4</text>
<polygon fill="#b2df8a" stroke="transparent" points="762,-81 762,-96 989,-96 989,-81 762,-81"/>
<text text-anchor="start" x="764" y="-86" font-family="Ubuntu" font-size="10.00">COMMAND_RESULT_FAILED</text>
<polygon fill="#b2df8a" stroke="transparent" points="989,-81 989,-96 1000,-96 1000,-81 989,-81"/>
<text text-anchor="start" x="991" y="-86" font-family="Ubuntu" font-size="10.00">5</text>
<polygon fill="#b2df8a" stroke="transparent" points="762,-66 762,-81 989,-81 989,-66 762,-66"/>
<text text-anchor="start" x="764" y="-71" font-family="Ubuntu" font-size="10.00">COMMAND_RESULT_IN_PROGRESS</text>
<polygon fill="#b2df8a" stroke="transparent" points="989,-66 989,-81 1000,-81 1000,-66 989,-66"/>
<text text-anchor="start" x="991" y="-71" font-family="Ubuntu" font-size="10.00">6</text>
<polygon fill="#b2df8a" stroke="transparent" points="762,-51 762,-66 989,-66 989,-51 762,-51"/>
<text text-anchor="start" x="764" y="-56" font-family="Ubuntu" font-size="10.00">COMMAND_RESULT_CANCELLED</text>
<polygon fill="#b2df8a" stroke="transparent" points="989,-51 989,-66 1000,-66 1000,-51 989,-51"/>
<text text-anchor="start" x="991" y="-56" font-family="Ubuntu" font-size="10.00">7</text>
<polygon fill="#b2df8a" stroke="transparent" points="762,-36 762,-51 989,-51 989,-36 762,-36"/>
<text text-anchor="start" x="764" y="-41" font-family="Ubuntu" font-size="10.00">COMMAND_RESULT_TIMEOUT</text>
<polygon fill="#b2df8a" stroke="transparent" points="989,-36 989,-51 1000,-51 1000,-36 989,-36"/>
<text text-anchor="start" x="991" y="-41" font-family="Ubuntu" font-size="10.00">8</text>
<polygon fill="#b2df8a" stroke="transparent" points="762,-21 762,-36 989,-36 989,-21 762,-21"/>
<text text-anchor="start" x="764" y="-26" font-family="Ubuntu" font-size="10.00">COMMAND_RESULT_NOT_OBSERVABLE</text>
<polygon fill="#b2df8a" stroke="transparent" points="989,-21 989,-36 1000,-36 1000,-21 989,-21"/>
<text text-anchor="start" x="991" y="-26" font-family="Ubuntu" font-size="10.00">9</text>
<polygon fill="none" stroke="black" points="761,-20.5 761,-187.5 1001,-187.5 1001,-20.5 761,-20.5"/>
</a>
</g>
</g>
<!-- Node_Ja_109 -->
<g id="node3" class="node">
<title>Node_Ja_109</title>
<g id="a_node3"><a xlink:title=".EnableGeofenceRequest">
<polygon fill="#fffaf0" stroke="transparent" points="300,-145.5 300,-192.5 538,-192.5 538,-145.5 300,-145.5"/>
<polygon fill="#e31a1c" stroke="transparent" points="301,-176 301,-191 537,-191 537,-176 301,-176"/>
<text text-anchor="start" x="398" y="-182" font-family="Ubuntu" font-weight="bold" font-size="10.00">EnableGeofenceRequest</text>
<text text-anchor="start" x="307" y="-166" font-family="Ubuntu" font-size="10.00">1</text>
<text text-anchor="start" x="318" y="-166" font-family="Ubuntu" font-size="10.00">timestamp</text>
<polygon fill="#fb9a99" stroke="transparent" points="374,-161 374,-176 537,-176 537,-161 374,-161"/>
<text text-anchor="start" x="376" y="-167" font-family="Ubuntu" font-weight="bold" font-size="10.00">google.protobuf.Timestamp</text>
<text text-anchor="start" x="307" y="-151" font-family="Ubuntu" font-size="10.00">2</text>
<text text-anchor="start" x="318" y="-151" font-family="Ubuntu" font-size="10.00">enabled</text>
<polygon fill="#a6cee3" stroke="transparent" points="374,-146 374,-161 537,-161 537,-146 374,-146"/>
<text text-anchor="start" x="513" y="-152" font-family="Ubuntu" font-style="italic" font-size="10.00">bool</text>
<polygon fill="none" stroke="black" points="300,-145.5 300,-192.5 538,-192.5 538,-145.5 300,-145.5"/>
</a>
</g>
</g>
<!-- Node_Ja_100 -->
<g id="node11" class="node">
<title>Node_Ja_100</title>
<g id="a_node11"><a xlink:title="google.protobuf.Timestamp">
<polygon fill="#fffaf0" stroke="transparent" points="604.5,-129.5 604.5,-176.5 694.5,-176.5 694.5,-129.5 604.5,-129.5"/>
<polygon fill="#e31a1c" stroke="transparent" points="605.5,-160 605.5,-175 693.5,-175 693.5,-160 605.5,-160"/>
<text text-anchor="start" x="627.5" y="-166" font-family="Ubuntu" font-weight="bold" font-size="10.00">Timestamp</text>
<text text-anchor="start" x="611.5" y="-150" font-family="Ubuntu" font-size="10.00">1</text>
<text text-anchor="start" x="622.5" y="-150" font-family="Ubuntu" font-size="10.00">seconds</text>
<polygon fill="#a6cee3" stroke="transparent" points="664.5,-145 664.5,-160 693.5,-160 693.5,-145 664.5,-145"/>
<text text-anchor="start" x="666.5" y="-151" font-family="Ubuntu" font-style="italic" font-size="10.00">int64</text>
<text text-anchor="start" x="611.5" y="-135" font-family="Ubuntu" font-size="10.00">2</text>
<text text-anchor="start" x="622.5" y="-135" font-family="Ubuntu" font-size="10.00">nanos</text>
<polygon fill="#a6cee3" stroke="transparent" points="664.5,-130 664.5,-145 693.5,-145 693.5,-130 664.5,-130"/>
<text text-anchor="start" x="666.5" y="-136" font-family="Ubuntu" font-style="italic" font-size="10.00">int32</text>
<polygon fill="none" stroke="black" points="604.5,-129.5 604.5,-176.5 694.5,-176.5 694.5,-129.5 604.5,-129.5"/>
</a>
</g>
</g>
<!-- Node_Ja_109&#45;&gt;Node_Ja_100 -->
<g id="edge6" class="edge">
<title>Node_Ja_109:e&#45;&gt;Node_Ja_100:header</title>
<g id="a_edge6"><a xlink:title="Ja_109 &#45;&#45;&gt; Ja_100">
<path fill="none" stroke="#000000" d="M538,-168C563.86,-168 572.75,-168 594.37,-168"/>
<polygon fill="#000000" stroke="#000000" points="594.5,-171.5 604.5,-168 594.5,-164.5 594.5,-171.5"/>
</a>
</g>
</g>
<!-- Node_Ja_107 -->
<g id="node4" class="node">
<title>Node_Ja_107</title>
<g id="a_node4"><a xlink:title=".Geofence">
<polygon fill="#fffaf0" stroke="transparent" points="336.5,-307.5 336.5,-354.5 501.5,-354.5 501.5,-307.5 336.5,-307.5"/>
<polygon fill="#e31a1c" stroke="transparent" points="338,-338 338,-353 501,-353 501,-338 338,-338"/>
<text text-anchor="start" x="446" y="-344" font-family="Ubuntu" font-weight="bold" font-size="10.00">Geofence</text>
<text text-anchor="start" x="340" y="-328" font-family="Ubuntu" font-size="10.00">[...]</text>
<text text-anchor="start" x="361" y="-328" font-family="Ubuntu" font-size="10.00">1</text>
<text text-anchor="start" x="372" y="-328" font-family="Ubuntu" font-size="10.00">zones</text>
<polygon fill="#fb9a99" stroke="transparent" points="434,-323 434,-338 501,-338 501,-323 434,-323"/>
<text text-anchor="start" x="438" y="-329" font-family="Ubuntu" font-weight="bold" font-size="10.00">FenceZone</text>
<text text-anchor="start" x="361" y="-313" font-family="Ubuntu" font-size="10.00">2</text>
<text text-anchor="start" x="372" y="-313" font-family="Ubuntu" font-size="10.00">return_point</text>
<polygon fill="#fb9a99" stroke="transparent" points="434,-308 434,-323 501,-323 501,-308 434,-308"/>
<text text-anchor="start" x="436" y="-314" font-family="Ubuntu" font-weight="bold" font-size="10.00">Coordinate</text>
<polygon fill="none" stroke="black" points="336.5,-307.5 336.5,-354.5 501.5,-354.5 501.5,-307.5 336.5,-307.5"/>
</a>
</g>
</g>
<!-- Node_Ja_103 -->
<g id="node10" class="node">
<title>Node_Ja_103</title>
<g id="a_node10"><a xlink:title=".FenceZone">
<polygon fill="#fffaf0" stroke="transparent" points="594,-353.5 594,-434.5 705,-434.5 705,-353.5 594,-353.5"/>
<polygon fill="#e31a1c" stroke="transparent" points="595.5,-418 595.5,-433 704.5,-433 704.5,-418 595.5,-418"/>
<text text-anchor="start" x="641.5" y="-424" font-family="Ubuntu" font-weight="bold" font-size="10.00">FenceZone</text>
<text text-anchor="start" x="601.5" y="-408" font-family="Ubuntu" font-size="10.00">1</text>
<text text-anchor="start" x="612.5" y="-408" font-family="Ubuntu" font-size="10.00">kind</text>
<polygon fill="#b2df8a" stroke="transparent" points="654.5,-403 654.5,-418 704.5,-418 704.5,-403 654.5,-403"/>
<text text-anchor="start" x="680.5" y="-409" font-family="Ubuntu" text-decoration="underline" font-size="10.00">Kind</text>
<polygon fill="#fdbf6f" stroke="transparent" points="595.5,-388 595.5,-403 704.5,-403 704.5,-388 595.5,-388"/>
<text text-anchor="start" x="597.5" y="-393" font-family="Ubuntu" font-size="10.00">shape</text>
<polygon fill="#fdbf6f" stroke="transparent" points="595.5,-373 595.5,-388 599.5,-388 599.5,-373 595.5,-373"/>
<text text-anchor="start" x="601.5" y="-378" font-family="Ubuntu" font-size="10.00">2</text>
<text text-anchor="start" x="612.5" y="-378" font-family="Ubuntu" font-size="10.00">polygon</text>
<polygon fill="#fb9a99" stroke="transparent" points="654.5,-373 654.5,-388 704.5,-388 704.5,-373 654.5,-373"/>
<text text-anchor="start" x="656.5" y="-379" font-family="Ubuntu" font-weight="bold" font-size="10.00">Polygon</text>
<polygon fill="#fdbf6f" stroke="transparent" points="595.5,-358 595.5,-373 599.5,-373 599.5,-358 595.5,-358"/>
<text text-anchor="start" x="601.5" y="-363" font-family="Ubuntu" font-size="10.00">3</text>
<text text-anchor="start" x="612.5" y="-363" font-family="Ubuntu" font-size="10.00">circle</text>
<polygon fill="#fb9a99" stroke="transparent" points="654.5,-358 654.5,-373 704.5,-373 704.5,-358 654.5,-358"/>
<text text-anchor="start" x="668.5" y="-364" font-family="Ubuntu" font-weight="bold" font-size="10.00">Circle</text>
<polygon fill="#fdbf6f" stroke="transparent" points="595.5,-354 595.5,-358 704.5,-358 704.5,-354 595.5,-354"/>
<polygon fill="none" stroke="black" points="594,-353.5 594,-434.5 705,-434.5 705,-353.5 594,-353.5"/>
</a>
</g>
</g>
<!-- Node_Ja_107&#45;&gt;Node_Ja_103 -->
<g id="edge14" class="edge">
<title>Node_Ja_107:e&#45;&gt;Node_Ja_103:header</title>
<g id="a_edge14"><a xlink:title="Ja_107 &#45;&#45;&gt; Ja_103">
<path fill="none" stroke="#000000" d="M502,-330C557.55,-330 538.17,-414.38 584.35,-424.92"/>
<polygon fill="#000000" stroke="#000000" points="584.19,-428.42 594.5,-426 584.93,-421.46 584.19,-428.42"/>
</a>
</g>
</g>
<!-- Node_Ja_102 -->
<g id="node12" class="node">
<title>Node_Ja_102</title>
<g id="a_node12"><a xlink:title=".Coordinate">
<polygon fill="#fffaf0" stroke="transparent" points="1059,-324.5 1059,-371.5 1188,-371.5 1188,-324.5 1059,-324.5"/>
<polygon fill="#e31a1c" stroke="transparent" points="1060.5,-355 1060.5,-370 1187.5,-370 1187.5,-355 1060.5,-355"/>
<text text-anchor="start" x="1122.5" y="-361" font-family="Ubuntu" font-weight="bold" font-size="10.00">Coordinate</text>
<text text-anchor="start" x="1066.5" y="-345" font-family="Ubuntu" font-size="10.00">1</text>
<text text-anchor="start" x="1077.5" y="-345" font-family="Ubuntu" font-size="10.00">latitude_deg</text>
<polygon fill="#a6cee3" stroke="transparent" points="1149.5,-340 1149.5,-355 1187.5,-355 1187.5,-340 1149.5,-340"/>
<text text-anchor="start" x="1151.5" y="-346" font-family="Ubuntu" font-style="italic" font-size="10.00">double</text>
<text text-anchor="start" x="1066.5" y="-330" font-family="Ubuntu" font-size="10.00">2</text>
<text text-anchor="start" x="1077.5" y="-330" font-family="Ubuntu" font-size="10.00">longitude_deg</text>
<polygon fill="#a6cee3" stroke="transparent" points="1149.5,-325 1149.5,-340 1187.5,-340 1187.5,-325 1149.5,-325"/>
<text text-anchor="start" x="1151.5" y="-331" font-family="Ubuntu" font-style="italic" font-size="10.00">double</text>
<polygon fill="none" stroke="black" points="1059,-324.5 1059,-371.5 1188,-371.5 1188,-324.5 1059,-324.5"/>
</a>
</g>
</g>
<!-- Node_Ja_107&#45;&gt;Node_Ja_102 -->
<g id="edge8" class="edge">
<title>Node_Ja_107:e&#45;&gt;Node_Ja_102:header</title>
<g id="a_edge8"><a xlink:title="Ja_107 &#45;&#45;&gt; Ja_102">
<path fill="none" stroke="#000000" d="M502,-315C616.48,-315 909.74,-287.98 1017,-328 1036.16,-335.15 1035.89,-354.8 1049.58,-361.06"/>
<polygon fill="#000000" stroke="#000000" points="1049.01,-364.52 1059.5,-363 1050.36,-357.65 1049.01,-364.52"/>
</a>
</g>
</g>
<!-- Node_Ja_110 -->
<g id="node5" class="node">
<title>Node_Ja_110</title>
<g id="a_node5"><a xlink:title=".EnableGeofenceResponse">
<polygon fill="#fffaf0" stroke="transparent" points="315.5,-57 315.5,-119 522.5,-119 522.5,-57 315.5,-57"/>
<polygon fill="#e31a1c" stroke="transparent" points="317,-103 317,-118 522,-118 522,-103 317,-103"/>
<text text-anchor="start" x="375" y="-109" font-family="Ubuntu" font-weight="bold" font-size="10.00">EnableGeofenceResponse</text>
<text text-anchor="start" x="323" y="-93" font-family="Ubuntu" font-size="10.00">1</text>
<text text-anchor="start" x="334" y="-93" font-family="Ubuntu" font-size="10.00">result</text>
<polygon fill="#b2df8a" stroke="transparent" points="436,-88 436,-103 522,-103 522,-88 436,-88"/>
<text text-anchor="start" x="438" y="-94" font-family="Ubuntu" text-decoration="underline" font-size="10.00">CommandResult</text>
<text text-anchor="start" x="323" y="-78" font-family="Ubuntu" font-size="10.00">2</text>
<text text-anchor="start" x="334" y="-78" font-family="Ubuntu" font-size="10.00">raw_autopilot_result</text>
<polygon fill="#a6cee3" stroke="transparent" points="436,-73 436,-88 522,-88 522,-73 436,-73"/>
<text text-anchor="start" x="495" y="-79" font-family="Ubuntu" font-style="italic" font-size="10.00">int32</text>
<text text-anchor="start" x="323" y="-63" font-family="Ubuntu" font-size="10.00">3</text>
<text text-anchor="start" x="334" y="-63" font-family="Ubuntu" font-size="10.00">detail</text>
<polygon fill="#a6cee3" stroke="transparent" points="436,-58 436,-73 522,-73 522,-58 436,-58"/>
<text text-anchor="start" x="492" y="-64" font-family="Ubuntu" font-style="italic" font-size="10.00">string</text>
<polygon fill="none" stroke="black" points="315.5,-57 315.5,-119 522.5,-119 522.5,-57 315.5,-57"/>
</a>
</g>
</g>
<!-- Node_Ja_110&#45;&gt;Node_Ja_101 -->
<g id="edge7" class="edge">
<title>Node_Ja_110:e&#45;&gt;Node_Ja_101</title>
<g id="a_edge7"><a xlink:title="Ja_110 &#45;&#45;&gt; Ja_101">
<path fill="none" stroke="#008000" d="M523,-96C595.53,-96 676.33,-97.67 742.69,-99.49"/>
<polygon fill="#008000" stroke="#008000" points="742.7,-102.99 752.79,-99.77 742.89,-95.99 742.7,-102.99"/>
</a>
</g>
</g>
<!-- Node_Ja_106 -->
<g id="node6" class="node">
<title>Node_Ja_106</title>
<g id="a_node6"><a xlink:title=".Circle">
<polygon fill="#fffaf0" stroke="transparent" points="814,-340.5 814,-387.5 948,-387.5 948,-340.5 814,-340.5"/>
<polygon fill="#e31a1c" stroke="transparent" points="815,-371 815,-386 947,-386 947,-371 815,-371"/>
<text text-anchor="start" x="911" y="-377" font-family="Ubuntu" font-weight="bold" font-size="10.00">Circle</text>
<text text-anchor="start" x="821" y="-361" font-family="Ubuntu" font-size="10.00">1</text>
<text text-anchor="start" x="832" y="-361" font-family="Ubuntu" font-size="10.00">center</text>
<polygon fill="#fb9a99" stroke="transparent" points="880,-356 880,-371 947,-371 947,-356 880,-356"/>
<text text-anchor="start" x="882" y="-362" font-family="Ubuntu" font-weight="bold" font-size="10.00">Coordinate</text>
<text text-anchor="start" x="821" y="-346" font-family="Ubuntu" font-size="10.00">2</text>
<text text-anchor="start" x="832" y="-346" font-family="Ubuntu" font-size="10.00">radius_m</text>
<polygon fill="#a6cee3" stroke="transparent" points="880,-341 880,-356 947,-356 947,-341 880,-341"/>
<text text-anchor="start" x="911" y="-347" font-family="Ubuntu" font-style="italic" font-size="10.00">double</text>
<polygon fill="none" stroke="black" points="814,-340.5 814,-387.5 948,-387.5 948,-340.5 814,-340.5"/>
</a>
</g>
</g>
<!-- Node_Ja_106&#45;&gt;Node_Ja_102 -->
<g id="edge13" class="edge">
<title>Node_Ja_106:e&#45;&gt;Node_Ja_102:header</title>
<g id="a_edge13"><a xlink:title="Ja_106 &#45;&#45;&gt; Ja_102">
<path fill="none" stroke="#000000" d="M948,-363C993.97,-363 1007.96,-363 1049.31,-363"/>
<polygon fill="#000000" stroke="#000000" points="1049.5,-366.5 1059.5,-363 1049.5,-359.5 1049.5,-366.5"/>
</a>
</g>
</g>
<!-- Node_Ja_111 -->
<g id="node7" class="node">
<title>Node_Ja_111</title>
<g id="a_node7"><a xlink:title="VehicleGeofence">
<polygon fill="#ffd700" stroke="transparent" points="8,-198.5 8,-275.5 248,-275.5 248,-198.5 8,-198.5"/>
<polygon fill="#ff7f50" stroke="transparent" points="9,-259 9,-274 247,-274 247,-259 9,-259"/>
<text text-anchor="start" x="151" y="-265" font-family="Ubuntu" font-weight="bold" font-size="10.00">VehicleGeofence</text>
<text text-anchor="start" x="11" y="-250" font-family="Ubuntu" font-weight="bold" font-size="10.00">upload_geofence</text>
<text text-anchor="start" x="198" y="-249" font-family="Ubuntu" font-size="10.00">Geofence</text>
<polygon fill="#ff7f50" stroke="transparent" points="110,-229 110,-244 114,-244 114,-229 110,-229"/>
<polygon fill="#ff7f50" stroke="transparent" points="114,-229 114,-244 247,-244 247,-229 114,-229"/>
<text text-anchor="start" x="116" y="-234" font-family="Ubuntu" font-size="10.00">GeofenceUploadResponse</text>
<text text-anchor="start" x="11" y="-220" font-family="Ubuntu" font-weight="bold" font-size="10.00">enable_geofence</text>
<text text-anchor="start" x="125" y="-219" font-family="Ubuntu" font-size="10.00">EnableGeofenceRequest</text>
<polygon fill="#ff7f50" stroke="transparent" points="110,-199 110,-214 114,-214 114,-199 110,-199"/>
<polygon fill="#ff7f50" stroke="transparent" points="114,-199 114,-214 247,-214 247,-199 114,-199"/>
<text text-anchor="start" x="118" y="-204" font-family="Ubuntu" font-size="10.00">EnableGeofenceResponse</text>
<polygon fill="none" stroke="black" points="8,-198.5 8,-275.5 248,-275.5 248,-198.5 8,-198.5"/>
</a>
</g>
</g>
<!-- Node_Ja_111&#45;&gt;Node_Ja_109 -->
<g id="edge9" class="edge">
<title>Node_Ja_111:e&#45;&gt;Node_Ja_109:header</title>
<g id="a_edge9"><a xlink:title="Ja_111 &#45;&#45;&gt; Ja_109">
<path fill="none" stroke="#000000" d="M248,-221C272.38,-221 272.31,-193.67 289.81,-185.99"/>
<polygon fill="#000000" stroke="#000000" points="290.86,-189.35 300,-184 289.51,-182.48 290.86,-189.35"/>
</a>
</g>
</g>
<!-- Node_Ja_111&#45;&gt;Node_Ja_107 -->
<g id="edge1" class="edge">
<title>Node_Ja_111:e&#45;&gt;Node_Ja_107:header</title>
<g id="a_edge1"><a xlink:title="Ja_111 &#45;&#45;&gt; Ja_107">
<path fill="none" stroke="#000000" d="M248,-252C301.82,-252 282.48,-334.27 326.87,-344.88"/>
<polygon fill="#000000" stroke="#000000" points="326.68,-348.38 337,-346 327.45,-341.42 326.68,-348.38"/>
</a>
</g>
</g>
<!-- Node_Ja_111&#45;&gt;Node_Ja_110 -->
<g id="edge2" class="edge">
<title>Node_Ja_111:e&#45;&gt;Node_Ja_110:header</title>
<g id="a_edge2"><a xlink:title="Ja_111 &#45;&#45;&gt; Ja_110">
<path fill="none" stroke="#000000" d="M248,-206C296.07,-206 268.91,-124.58 305.82,-112.49"/>
<polygon fill="#000000" stroke="#000000" points="306.61,-115.91 316,-111 305.6,-108.99 306.61,-115.91"/>
</a>
</g>
</g>
<!-- Node_Ja_108 -->
<g id="node9" class="node">
<title>Node_Ja_108</title>
<g id="a_node9"><a xlink:title=".GeofenceUploadResponse">
<polygon fill="#fffaf0" stroke="transparent" points="315.5,-219 315.5,-281 522.5,-281 522.5,-219 315.5,-219"/>
<polygon fill="#e31a1c" stroke="transparent" points="317,-265 317,-280 522,-280 522,-265 317,-265"/>
<text text-anchor="start" x="372" y="-271" font-family="Ubuntu" font-weight="bold" font-size="10.00">GeofenceUploadResponse</text>
<text text-anchor="start" x="323" y="-255" font-family="Ubuntu" font-size="10.00">1</text>
<text text-anchor="start" x="334" y="-255" font-family="Ubuntu" font-size="10.00">result</text>
<polygon fill="#b2df8a" stroke="transparent" points="436,-250 436,-265 522,-265 522,-250 436,-250"/>
<text text-anchor="start" x="438" y="-256" font-family="Ubuntu" text-decoration="underline" font-size="10.00">CommandResult</text>
<text text-anchor="start" x="323" y="-240" font-family="Ubuntu" font-size="10.00">2</text>
<text text-anchor="start" x="334" y="-240" font-family="Ubuntu" font-size="10.00">raw_autopilot_result</text>
<polygon fill="#a6cee3" stroke="transparent" points="436,-235 436,-250 522,-250 522,-235 436,-235"/>
<text text-anchor="start" x="495" y="-241" font-family="Ubuntu" font-style="italic" font-size="10.00">int32</text>
<text text-anchor="start" x="323" y="-225" font-family="Ubuntu" font-size="10.00">3</text>
<text text-anchor="start" x="334" y="-225" font-family="Ubuntu" font-size="10.00">detail</text>
<polygon fill="#a6cee3" stroke="transparent" points="436,-220 436,-235 522,-235 522,-220 436,-220"/>
<text text-anchor="start" x="492" y="-226" font-family="Ubuntu" font-style="italic" font-size="10.00">string</text>
<polygon fill="none" stroke="black" points="315.5,-219 315.5,-281 522.5,-281 522.5,-219 315.5,-219"/>
</a>
</g>
</g>
<!-- Node_Ja_111&#45;&gt;Node_Ja_108 -->
<g id="edge12" class="edge">
<title>Node_Ja_111:e&#45;&gt;Node_Ja_108:header</title>
<g id="a_edge12"><a xlink:title="Ja_111 &#45;&#45;&gt; Ja_108">
<path fill="none" stroke="#000000" d="M248,-236C278.64,-236 281.35,-265.35 305.88,-271.77"/>
<polygon fill="#000000" stroke="#000000" points="305.65,-275.27 316,-273 306.5,-268.32 305.65,-275.27"/>
</a>
</g>
</g>
<!-- Node_Ja_105 -->
<g id="node8" class="node">
<title>Node_Ja_105</title>
<g id="a_node8"><a xlink:title=".Polygon">
<polygon fill="#fffaf0" stroke="transparent" points="808.5,-414 808.5,-446 953.5,-446 953.5,-414 808.5,-414"/>
<polygon fill="#e31a1c" stroke="transparent" points="810,-430 810,-445 953,-445 953,-430 810,-430"/>
<text text-anchor="start" x="905" y="-436" font-family="Ubuntu" font-weight="bold" font-size="10.00">Polygon</text>
<text text-anchor="start" x="812" y="-420" font-family="Ubuntu" font-size="10.00">[...]</text>
<text text-anchor="start" x="833" y="-420" font-family="Ubuntu" font-size="10.00">1</text>
<text text-anchor="start" x="844" y="-420" font-family="Ubuntu" font-size="10.00">vertices</text>
<polygon fill="#fb9a99" stroke="transparent" points="886,-415 886,-430 953,-430 953,-415 886,-415"/>
<text text-anchor="start" x="888" y="-421" font-family="Ubuntu" font-weight="bold" font-size="10.00">Coordinate</text>
<polygon fill="none" stroke="black" points="808.5,-414 808.5,-446 953.5,-446 953.5,-414 808.5,-414"/>
</a>
</g>
</g>
<!-- Node_Ja_105&#45;&gt;Node_Ja_102 -->
<g id="edge11" class="edge">
<title>Node_Ja_105:e&#45;&gt;Node_Ja_102:header</title>
<g id="a_edge11"><a xlink:title="Ja_105 &#45;&#45;&gt; Ja_102">
<path fill="none" stroke="#000000" d="M954,-422C983.51,-422 991.47,-415.81 1017,-401 1035.49,-390.27 1035,-370.59 1049.61,-364.71"/>
<polygon fill="#000000" stroke="#000000" points="1050.24,-368.15 1059.5,-363 1049.05,-361.25 1050.24,-368.15"/>
</a>
</g>
</g>
<!-- Node_Ja_108&#45;&gt;Node_Ja_101 -->
<g id="edge5" class="edge">
<title>Node_Ja_108:e&#45;&gt;Node_Ja_101</title>
<g id="a_edge5"><a xlink:title="Ja_108 &#45;&#45;&gt; Ja_101">
<path fill="none" stroke="#008000" d="M523,-258C611.44,-258 636.32,-251.09 717.5,-216 725.7,-212.45 737.31,-205.7 750.6,-197.2"/>
<polygon fill="#008000" stroke="#008000" points="752.6,-200.07 759.07,-191.69 748.78,-194.2 752.6,-200.07"/>
</a>
</g>
</g>
<!-- Node_Ja_103&#45;&gt;Node_Ja_104 -->
<g id="edge3" class="edge">
<title>Node_Ja_103:e&#45;&gt;Node_Ja_104</title>
<g id="a_edge3"><a xlink:title="Ja_103 &#45;&#45;&gt; Ja_104">
<path fill="none" stroke="#008000" d="M705.5,-411C746.35,-411 717.7,-358.39 745,-328 766.38,-304.2 796.19,-284.89 822.37,-270.91"/>
<polygon fill="#008000" stroke="#008000" points="824.19,-273.91 831.45,-266.19 820.96,-267.7 824.19,-273.91"/>
</a>
</g>
</g>
<!-- Node_Ja_103&#45;&gt;Node_Ja_106 -->
<g id="edge10" class="edge">
<title>Node_Ja_103:e&#45;&gt;Node_Ja_106:header</title>
<g id="a_edge10"><a xlink:title="Ja_103 &#45;&#45;&gt; Ja_106">
<path fill="none" stroke="#000000" d="M705.5,-365C750.51,-365 763.5,-377 803.76,-378.78"/>
<polygon fill="#000000" stroke="#000000" points="803.93,-382.28 814,-379 804.08,-375.29 803.93,-382.28"/>
</a>
</g>
</g>
<!-- Node_Ja_103&#45;&gt;Node_Ja_105 -->
<g id="edge4" class="edge">
<title>Node_Ja_103:e&#45;&gt;Node_Ja_105:header</title>
<g id="a_edge4"><a xlink:title="Ja_103 &#45;&#45;&gt; Ja_105">
<path fill="none" stroke="#000000" d="M705.5,-380C716.73,-380 774.33,-422.06 799.32,-434.55"/>
<polygon fill="#000000" stroke="#000000" points="798.41,-437.94 809,-438 800.76,-431.34 798.41,-437.94"/>
</a>
</g>
</g>
</g>
</svg>
