<?xml version="1.0" encoding="UTF-8" standalone="no"?>
<!DOCTYPE svg PUBLIC "-//W3C//DTD SVG 1.1//EN"
 "http://www.w3.org/Graphics/SVG/1.1/DTD/svg11.dtd">
<!-- Generated by graphviz version 2.43.0 (0)
 -->
<!-- Title: protodot Pages: 1 -->
<svg width="331pt" height="122pt"
 viewBox="0.00 0.00 331.00 121.50" xmlns="http://www.w3.org/2000/svg" xmlns:xlink="http://www.w3.org/1999/xlink">
<g id="graph0" class="graph" transform="scale(1 1) rotate(0) translate(4 117.5)">
<title>protodot</title>
<!-- Node_Ja_102 -->
<g id="node1" class="node">
<title>Node_Ja_102</title>
<g id="a_node1"><a xlink:title="WHEPProxy">
<polygon fill="#ffd700" stroke="transparent" points="8,-49.5 8,-96.5 169,-96.5 169,-49.5 8,-49.5"/>
<polygon fill="#ff7f50" stroke="transparent" points="9.5,-80 9.5,-95 168.5,-95 168.5,-80 9.5,-80"/>
<text text-anchor="start" x="99.5" y="-86" font-family="Ubuntu" font-weight="bold" font-size="10.00">WHEPProxy</text>
<text text-anchor="start" x="11.5" y="-71" font-family="Ubuntu" font-weight="bold" font-size="10.00">whep_signal</text>
<text text-anchor="start" x="96.5" y="-70" font-family="Ubuntu" font-size="10.00">WHEPRequest</text>
<polygon fill="#ff7f50" stroke="transparent" points="83.5,-50 83.5,-65 87.5,-65 87.5,-50 83.5,-50"/>
<polygon fill="#ff7f50" stroke="transparent" points="87.5,-50 87.5,-65 168.5,-65 168.5,-50 87.5,-50"/>
<text text-anchor="start" x="89.5" y="-55" font-family="Ubuntu" font-size="10.00">WHEPResponse</text>
<polygon fill="none" stroke="black" points="8,-49.5 8,-96.5 169,-96.5 169,-49.5 8,-49.5"/>
</a>
</g>
</g>
<!-- Node_Ja_100 -->
<g id="node2" class="node">
<title>Node_Ja_100</title>
<g id="a_node2"><a xlink:title=".WHEPRequest">
<polygon fill="#fffaf0" stroke="transparent" points="225,-62.5 225,-109.5 311,-109.5 311,-62.5 225,-62.5"/>
<polygon fill="#e31a1c" stroke="transparent" points="226,-93 226,-108 310,-108 310,-93 226,-93"/>
<text text-anchor="start" x="228" y="-99" font-family="Ubuntu" font-weight="bold" font-size="10.00">WHEPRequest</text>
<text text-anchor="start" x="240" y="-83" font-family="Ubuntu" font-size="10.00">1</text>
<text text-anchor="start" x="251" y="-83" font-family="Ubuntu" font-size="10.00">path</text>
<polygon fill="#a6cee3" stroke="transparent" points="276,-78 276,-93 310,-93 310,-78 276,-78"/>
<text text-anchor="start" x="280" y="-84" font-family="Ubuntu" font-style="italic" font-size="10.00">string</text>
<text text-anchor="start" x="240" y="-68" font-family="Ubuntu" font-size="10.00">2</text>
<text text-anchor="start" x="251" y="-68" font-family="Ubuntu" font-size="10.00">sdp</text>
<polygon fill="#a6cee3" stroke="transparent" points="276,-63 276,-78 310,-78 310,-63 276,-63"/>
<text text-anchor="start" x="280" y="-69" font-family="Ubuntu" font-style="italic" font-size="10.00">string</text>
<polygon fill="none" stroke="black" points="225,-62.5 225,-109.5 311,-109.5 311,-62.5 225,-62.5"/>
</a>
</g>
</g>
<!-- Node_Ja_102&#45;&gt;Node_Ja_100 -->
<g id="edge1" class="edge">
<title>Node_Ja_102:e&#45;&gt;Node_Ja_100:header</title>
<g id="a_edge1"><a xlink:title="Ja_102 &#45;&#45;&gt; Ja_100">
<path fill="none" stroke="#000000" d="M169.5,-72C193.42,-72 196.66,-93.42 214.76,-99.44"/>
<polygon fill="#000000" stroke="#000000" points="214.59,-102.95 225,-101 215.64,-96.03 214.59,-102.95"/>
</a>
</g>
</g>
<!-- Node_Ja_101 -->
<g id="node3" class="node">
<title>Node_Ja_101</title>
<g id="a_node3"><a xlink:title=".WHEPResponse">
<polygon fill="#fffaf0" stroke="transparent" points="221,-4 221,-36 315,-36 315,-4 221,-4"/>
<polygon fill="#e31a1c" stroke="transparent" points="222,-20 222,-35 314,-35 314,-20 222,-20"/>
<text text-anchor="start" x="224" y="-26" font-family="Ubuntu" font-weight="bold" font-size="10.00">WHEPResponse</text>
<text text-anchor="start" x="245" y="-10" font-family="Ubuntu" font-size="10.00">1</text>
<text text-anchor="start" x="256" y="-10" font-family="Ubuntu" font-size="10.00">sdp</text>
<polygon fill="#a6cee3" stroke="transparent" points="279,-5 279,-20 314,-20 314,-5 279,-5"/>
<text text-anchor="start" x="284" y="-11" font-family="Ubuntu" font-style="italic" font-size="10.00">string</text>
<polygon fill="none" stroke="black" points="221,-4 221,-36 315,-36 315,-4 221,-4"/>
</a>
</g>
</g>
<!-- Node_Ja_102&#45;&gt;Node_Ja_101 -->
<g id="edge2" class="edge">
<title>Node_Ja_102:e&#45;&gt;Node_Ja_101:header</title>
<g id="a_edge2"><a xlink:title="Ja_102 &#45;&#45;&gt; Ja_101">
<path fill="none" stroke="#000000" d="M169.5,-57C191.87,-57 194.44,-35.97 210.93,-29.73"/>
<polygon fill="#000000" stroke="#000000" points="211.74,-33.14 221,-28 210.55,-26.24 211.74,-33.14"/>
</a>
</g>
</g>
</g>
</svg>
